<svg viewBox="0 0 25 25" xmlns="http://www.w3.org/2000/svg" xmlns:xlink="http://www.w3.org/1999/xlink" width="25.000000" height="25.000000" fill="none" customFrame="url(#clipPath_7)">
	<defs>
		<clipPath id="clipPath_7">
			<rect width="25.000000" height="25.000000" x="0.000000" y="0.000000" rx="3.000000" fill="rgb(255,255,255)" />
		</clipPath>
	</defs>
	<rect id="Frame 32" width="25.000000" height="25.000000" x="0.000000" y="0.000000" rx="3.000000" />
	<g id="Группа 6">
		<path id="Убрать верхний слой" d="M4.55412 5.09986C4.38233 4.70296 4.12731 4.06134 4.0419 3.75738C4.02049 3.68093 4.03808 3.59839 4.08614 3.51237C4.42262 2.91027 6.25245 2.13809 6.65257 2.09558C6.94429 2.23876 7.39758 3.29844 7.67332 3.70218L7.72413 3.77559C8.2071 3.7197 8.70948 3.67477 9.18161 3.56191C9.22972 3.43186 9.27354 3.26463 9.32018 3.083C9.32329 3.07089 9.32642 3.05872 9.32955 3.04649C9.49952 2.38386 9.71258 1.55324 10.3043 1.62883C10.3076 1.62926 10.3109 1.62971 10.3143 1.63019C10.4059 1.64337 10.5071 1.65836 10.6153 1.67552C11.3727 1.79562 12.4696 2.02177 12.9746 2.47499C13.1531 2.63506 12.9404 3.62611 12.8502 4.0464C12.84 4.09396 12.8313 4.1342 12.825 4.16511C13.1019 4.50008 13.4889 4.77022 13.6899 5.07527C13.2355 5.66015 13.0317 5.97083 12.7223 6.64228C8.23681 3.72977 3.19644 7.63266 4.20291 12.6322C4.34507 13.3406 4.62309 13.8545 5.06895 14.414C4.48608 14.7456 3.89692 15.2463 3.32489 15.4438L3.51899 15.6545C3.85011 15.5854 4.45696 15.1692 4.8052 15.0705C5.15573 14.9717 6.02576 15.0037 6.29351 14.7959C7.12073 14.1542 8.06441 13.2143 8.82768 12.4959C9.8353 11.5554 10.8355 10.6072 11.8288 9.65115C12.3786 9.12461 13.0631 8.50172 13.5564 7.9459C13.4456 7.05617 13.5124 6.1053 13.8412 5.25342C13.8473 5.23786 13.8523 5.22536 13.8565 5.21513C13.8677 5.18734 13.8722 5.17626 13.8707 5.16605C13.8685 5.15043 13.8524 5.13681 13.8253 5.06861C13.9648 4.99149 14.717 3.88971 14.995 3.5667C16.1162 2.26593 18.877 1.96319 20.1535 3.24608C19.5318 3.86823 18.3769 4.74469 17.9043 5.29193C17.9037 5.3092 17.9032 5.32648 17.9027 5.34378C17.8867 5.8667 17.8704 6.40129 18.2799 6.80376C19.1898 7.69872 20.1935 6.82917 21.0959 6.04732C21.3989 5.78484 21.6905 5.53224 21.9632 5.35964C22.8007 6.56968 22.4359 8.59426 21.5151 9.67609C19.8795 11.3511 18.9838 11.5724 16.7208 11.2802C14.5879 13.7284 12.0618 16.0057 9.97459 18.5102C9.84728 18.6632 9.79818 18.8253 9.77021 19.0194C9.89238 18.9406 9.95404 18.9058 10.0842 18.8413C10.2171 18.8804 10.2851 18.9158 10.3347 18.9416C10.4248 18.9885 10.4543 19.0038 10.7025 18.9526C11.1472 18.4046 11.8762 17.6984 12.39 17.1783L15.6424 13.906C16.0894 13.4473 16.6643 12.8821 17.0496 12.3935C17.1273 12.3995 17.2055 12.4039 17.2831 12.4068C19.5804 12.5006 20.516 11.8292 22.1185 10.3575L22.1185 10.3575C22.2213 10.3041 22.3194 10.2464 22.4176 10.1848C22.7219 10.2064 23.528 11.1168 23.7238 11.3975L23.7239 11.3976C23.3596 11.9943 23.2808 12.1194 22.7277 12.5517C22.8427 12.8079 22.9497 12.9978 23.0596 13.1371C23.389 13.5547 23.7438 13.5161 24.4166 13.443C24.5265 13.4311 24.6449 13.4182 24.7731 13.4062L24.7731 13.4063C24.7809 13.4545 24.7924 13.5206 24.8062 13.5998C24.8991 14.1334 25.0956 15.2625 24.945 15.5279C24.7475 15.8779 23.8517 15.919 23.4464 16.0166C23.3488 16.3523 23.2375 16.7091 23.1507 17.0448C23.5086 17.3987 24.1828 17.9296 24.4283 18.2127L24.4283 18.2128C24.16 18.6844 23.592 19.3649 23.2415 19.8119C22.7847 19.6178 22.4314 19.483 22.014 19.2061C20.9649 19.8572 21.0481 20.0619 21.4343 21.0111C21.4751 21.1114 21.5193 21.22 21.5659 21.3383L21.5659 21.3384C21.1297 21.6918 20.5326 22.044 20.0068 22.2421C19.9725 22.2022 19.9365 22.1601 19.8994 22.1164C19.8223 22.0259 19.74 21.9285 19.6555 21.8295C19.4468 21.5847 19.2247 21.3297 19.0363 21.142L18.2182 21.2785L18.2011 21.3424C18.1023 21.7192 18.096 22.4505 17.8717 22.6138C17.4349 22.7422 16.7567 22.7085 16.3246 22.5578C16.3202 22.5535 16.3159 22.5488 16.3117 22.5439C16.2927 22.5215 16.2757 22.4932 16.2603 22.46C16.1289 22.1757 16.1211 21.5285 16.1165 21.1468C16.1157 21.0822 16.1151 21.0251 16.1139 20.9787C15.8033 20.9251 15.4756 20.8629 15.1657 20.8166C14.9636 21.2339 14.6148 21.7135 14.3482 22.1057C13.8121 21.8848 13.151 21.5125 12.6144 21.2471L12.6144 21.247L12.6143 21.247C12.7942 20.7058 13.014 20.3296 13.2086 19.8312C12.8672 19.4973 12.6486 19.4094 12.221 19.2027C11.9967 19.3803 11.8448 19.5321 11.5731 19.6138C11.3336 19.5817 11.2059 19.4592 11.0938 19.3237C11.0651 19.289 11.0374 19.2535 11.0091 19.2183C10.9258 19.115 10.8373 19.0154 10.7025 18.9527C10.4543 19.0039 10.4248 18.9885 10.3347 18.9416C10.2851 18.9158 10.2171 18.8805 10.0842 18.8413C9.95402 18.9059 9.89236 18.9407 9.77019 19.0195C9.56696 22.5082 6.74505 24.5011 3.5766 22.7C3.78668 22.4206 4.13591 22.129 4.50097 21.8241C5.30059 21.1563 6.17614 20.4251 5.83161 19.6212C5.67005 19.2444 5.05121 19.0486 4.66986 18.9481C3.87575 19.4973 3.11533 20.2075 2.3315 20.7749C2.22591 20.8514 2.13311 20.8221 2.02987 20.7896C2.01367 20.7844 1.99721 20.7792 1.98042 20.7744C1.93132 20.6887 1.88393 20.602 1.83941 20.514C1.0807 18.9955 1.97128 16.4111 3.51896 15.6546L3.32486 15.444C3.31223 15.4361 3.29967 15.4274 3.28711 15.4179C3.19919 15.3517 3.1112 15.2509 2.99831 15.1819C2.9742 15.1672 2.9454 15.1547 2.9126 15.1441C2.68296 15.07 2.25723 15.0902 1.8741 15.1085C1.85148 15.1096 1.82901 15.1106 1.80673 15.1117C1.47263 15.1273 1.18297 15.1369 1.10353 15.0735C1.04016 15.023 0.977812 14.949 0.916911 14.8572C0.490603 14.214 0.135376 12.6912 0 12.157C0.0697197 12.1053 0.141304 12.0566 0.214108 12.0101C0.723745 11.6844 1.29321 11.4663 1.70182 11.0723C1.72623 11.0048 1.74655 10.9395 1.76301 10.8763C2.00993 9.92872 1.38935 9.45113 0.693188 8.91537C0.542343 8.79928 0.387949 8.68046 0.238063 8.55353C0.269676 8.47441 0.307239 8.38408 0.34948 8.28538C0.645163 7.59452 1.17004 6.49423 1.48774 5.96718C1.50908 5.93172 1.53582 5.90447 1.56714 5.88433C1.7864 5.74338 2.23038 5.95108 2.62113 6.13387C2.84804 6.24001 3.05699 6.33776 3.19356 6.35395C3.21497 6.35649 3.23464 6.35888 3.25303 6.36111C3.40375 6.3794 3.46756 6.38715 3.68738 6.38078L3.77244 6.37765C4.06873 6.00754 4.36388 5.65245 4.62192 5.25328C4.60151 5.20827 4.57867 5.15656 4.55412 5.09986ZM17.3191 3.21114C17.991 3.17141 18.1491 3.1754 18.7994 3.3751C18.2599 3.90745 17.6308 4.39311 17.1467 4.97547C17.1335 5.04181 17.1215 5.10832 17.1096 5.17489C16.8846 6.4599 17.5737 7.85401 18.9438 8.0593C19.8182 8.19024 20.4805 7.614 21.1243 7.05381C21.3127 6.88983 21.4996 6.72722 21.6898 6.58413C21.6995 7.0611 21.6784 7.42493 21.5482 7.88615C21.2605 8.86922 20.5954 9.69832 19.698 10.1919C18.5545 10.8132 17.5137 10.7085 16.3223 10.3563C14.7855 12.2082 13.046 13.9049 11.3698 15.6364C10.5483 16.4859 9.6172 17.3502 8.93385 18.3162C8.92928 20.364 8.66667 21.4835 6.61604 22.4129C6.1073 22.5059 5.6212 22.4957 5.11381 22.4851C5.05124 22.4838 4.98836 22.4825 4.92506 22.4814C5.48796 21.9236 6.11994 21.5583 6.63259 21.041C7.06076 19.3672 6.35799 18.3687 4.71384 18.0113C3.89632 18.2568 3.07424 19.0892 2.41486 19.6612C2.25331 17.8178 2.88984 16.6263 4.65789 15.9361C5.18901 15.7288 5.67863 15.74 6.21798 15.7523L6.218 15.7523C6.29201 15.754 6.36695 15.7557 6.44306 15.7569C7.32737 15.1198 9.36715 13.1483 10.2104 12.3249C11.5 11.0658 13.1847 9.58238 14.3961 8.30941C13.9993 6.05714 14.8705 3.70519 17.3191 3.21114ZM14.7301 9.57271L14.8369 9.61502C14.8942 9.78553 14.8827 10.006 14.8724 10.2047C14.8702 10.2476 14.868 10.2895 14.8666 10.3297C14.83 10.3867 14.7941 10.4443 14.7535 10.4989C14.3174 11.092 9.36434 16.0461 9.04635 16.0929L8.94416 16.0136C8.80373 15.8692 8.67413 15.7047 8.54397 15.5495L12.341 11.8302C12.9421 11.2394 14.1079 10.0344 14.7301 9.57271ZM20.6297 12.8248C20.5412 12.7012 20.4932 12.6364 20.3716 12.5472C20.2215 12.6575 20.0371 12.7847 19.8944 12.8995C22.8636 16.4471 17.9099 20.6357 14.7826 17.6494C14.5177 17.3965 14.4281 16.9163 14.0176 16.8433C13.8292 16.9597 13.8977 16.8844 13.7933 17.0682C13.7889 17.2341 13.8376 17.3194 13.9099 17.4461C13.9232 17.4694 13.9373 17.4941 13.952 17.5209C14.5948 18.4292 15.4831 19.0675 16.5946 19.2324C20.129 19.7571 22.7625 15.7951 20.6297 12.8248ZM19.5524 15.1306C19.5004 14.0487 18.6543 13.4097 17.6399 13.2852C17.2619 13.6571 15.257 15.4645 15.2387 15.7865C15.2205 16.1136 15.515 16.4231 15.7325 16.632C16.1584 17.0413 16.5872 17.3022 17.182 17.3816C17.9156 17.3519 18.4757 17.216 19.002 16.6406C19.3794 16.2307 19.5775 15.6872 19.5524 15.1306Z" fill="rgb(67,69,75)" fill-rule="evenodd" />
	</g>
</svg>
