<svg viewBox="0 0 25 25" xmlns="http://www.w3.org/2000/svg" xmlns:xlink="http://www.w3.org/1999/xlink" width="25.000000" height="25.000000" fill="none" customFrame="url(#clipPath_0)">
	<defs>
		<clipPath id="clipPath_0">
			<rect width="25.000000" height="25.000000" x="0.000000" y="0.000000" rx="3.000000" fill="rgb(255,255,255)" />
		</clipPath>
	</defs>
	<rect id="Frame 32" width="25.000000" height="25.000000" x="0.000000" y="0.000000" rx="3.000000" />
	<g id="Группа 1">
		<path id="Убрать верхний слой" d="M14.1899 3.61809C13.0879 3.27446 11.3659 3.09313 10.1962 3.13981C8.70636 3.21567 6.12845 3.40906 5.07935 4.58902C5.04715 4.62547 5.01566 4.66253 4.98498 4.70026C3.48327 5.12686 1.53307 5.65427 0.0684103 6.14651C-0.00907186 6.6607 -0.00264005 7.27916 0.00319109 7.83987C0.00453886 7.96947 0.00585455 8.09598 0.00609457 8.21741C0.00855078 9.19801 0.00690152 10.1766 0.00525269 11.1549C0.00295543 12.518 0.000658995 13.8805 0.00946824 15.2474C0.0124006 15.7004 0.255885 15.8757 0.401219 15.9803C0.466199 16.0271 0.511558 16.0597 0.507025 16.0968C0.408193 16.9017 1.31017 17.1028 1.97941 17.2521C2.03019 17.2634 2.07963 17.2744 2.12719 17.2854C2.40753 17.35 2.69672 17.2578 2.99849 16.9919C5.2482 17.9602 7.46822 19.0137 9.7301 19.9578C9.9973 20.0693 10.2733 20.1773 10.5215 20.3254L10.5416 21.065C11.1598 21.3126 11.8481 21.6439 12.4322 21.8675C12.9247 21.6555 14.3187 21.2414 14.5794 20.975C14.6325 20.8333 14.6334 20.7681 14.6351 20.6422C14.6353 20.6222 14.6356 20.6006 14.6361 20.5769L14.7205 20.4456C14.8025 20.4161 14.9728 20.3536 15.2042 20.2686C16.5462 19.7758 19.9445 18.528 20.0975 18.6013C20.2399 18.6696 20.3153 18.7991 20.4358 18.8938C20.6513 19.0634 21.1376 18.9231 21.4061 18.8457C21.4205 18.8415 21.4343 18.8375 21.4474 18.8338C21.8091 18.7305 22.6572 18.5543 22.8386 18.19C22.9212 18.0243 22.9245 17.7919 22.9274 17.589C22.9281 17.5399 22.9287 17.4925 22.9305 17.4483L22.9843 17.4259C23.7045 17.1314 24.5499 17.0344 24.87 16.2114C25.3209 15.0521 24.5246 14.3181 23.6217 13.891C24.0234 13.6097 24.7824 13.154 24.8538 12.648C24.9951 11.6468 24.5487 10.7746 23.4755 10.6334C23.2658 10.6044 23.0436 10.5995 22.8301 10.5775C22.8195 10.4075 22.8228 9.9903 22.8267 9.50701C22.8342 8.59154 22.8435 7.43902 22.763 7.28093C22.7401 7.23594 22.6878 7.17895 22.6488 7.14613C22.0549 6.64606 17.4105 5.48415 16.3324 5.17798C15.8324 4.24048 15.1861 3.9287 14.1899 3.61809ZM9.94689 3.85294C10.048 3.84435 10.1494 3.83975 10.2508 3.83908C10.2659 3.83893 10.2811 3.83874 10.2964 3.83855C10.5967 3.83481 10.9483 3.83044 11.1632 4.03938L11.1624 4.13497C10.8444 4.48575 9.96725 4.31047 9.49859 4.21682C9.47084 4.21128 9.44452 4.20602 9.41984 4.20117C8.99339 4.12122 8.25368 4.12275 7.80816 4.11427C8.69204 3.90084 9.051 3.89077 9.94689 3.85294ZM14.6373 4.53405C14.1321 4.1827 13.0487 4.06911 12.6116 4.62029C12.7403 4.7511 12.757 4.7393 12.9336 4.77789C13.0367 4.76905 13.2042 4.76786 13.3962 4.7665C13.8842 4.76304 14.53 4.75846 14.675 4.62407L14.6373 4.53405ZM6.33494 4.58316C6.36324 4.56211 6.3726 4.55515 6.21768 4.48087C5.95119 4.67319 5.73735 4.7856 5.66149 5.11405C5.85948 5.89942 7.80538 5.45646 8.374 5.32022C8.67867 5.2783 8.95084 5.24334 9.25802 5.21665C8.30427 5.09396 7.26161 4.97685 6.33219 4.75917C6.26204 4.63738 6.30744 4.60361 6.33494 4.58316ZM14.7841 4.5833C15.2159 4.62113 15.4044 4.88593 15.6402 5.20789C14.8102 6.07433 13.387 6.23408 12.2442 6.40304C12.1338 6.40068 12.0234 6.39762 11.913 6.39394C11.8641 6.33938 11.846 6.32555 11.8395 6.30753C11.8357 6.29704 11.8357 6.28513 11.8359 6.26293C11.836 6.24164 11.8362 6.21088 11.8331 6.16282C11.9106 6.04017 12.3324 6.0235 12.8485 6.0031C13.7858 5.96606 15.0341 5.91672 15.096 5.19782C15.1112 5.02198 14.9824 4.85062 14.8677 4.69796C14.838 4.6584 14.8092 4.6201 14.7841 4.5833ZM11.7673 4.86706C11.7562 4.87186 11.7458 4.87641 11.736 4.88066L12.9336 4.77806C12.757 4.73947 12.7403 4.75128 12.6116 4.62046C12.4151 4.58511 11.9815 4.77382 11.7673 4.86706ZM11.6117 5.13994C11.3671 5.0996 10.528 5.10431 10.2653 5.12695L10.26 5.25159C10.4456 5.38244 10.9176 5.30287 11.1673 5.26078C11.1774 5.25908 11.1871 5.25744 11.1964 5.25588C11.3135 5.23548 11.4299 5.2114 11.5455 5.18375L11.6117 5.13994ZM4.77668 5.3716L4.82842 5.3782C4.88956 5.49631 4.8684 5.61917 4.84591 5.74977C4.84031 5.78231 4.83462 5.81532 4.83011 5.84887C4.56234 7.83654 8.40921 8.26068 9.74238 8.34115C11.6446 8.45607 14.4495 8.42432 16.026 7.24829C16.4684 6.91821 16.5624 6.37679 16.5915 5.86891L21.4619 7.26215C20.6207 7.55926 19.6151 7.80448 18.7375 8.0927C16.6525 8.69245 14.4416 9.52224 12.4153 10.0729C10.4346 9.50302 8.20585 8.61694 6.22876 7.95989C4.62573 7.42716 2.93287 6.90916 1.37308 6.28084C2.47902 5.98439 3.68127 5.6476 4.77668 5.3716ZM15.7997 5.9192L15.9108 5.95259C16.0288 6.15058 15.9447 6.40776 15.8201 6.57718C15.3146 7.2647 14.0151 7.56718 13.2253 7.68813C11.1847 8.00063 7.45247 7.94639 5.75521 6.7378C5.56535 6.56435 5.36317 6.25946 5.49567 5.99752C5.63047 5.9917 5.8763 6.10593 6.0846 6.20272C6.16526 6.2402 6.24029 6.27507 6.30108 6.29934C6.86407 6.52897 7.44991 6.69808 8.04873 6.80374C10.1996 7.17861 14.0065 7.17549 15.7997 5.9192ZM9.74611 6.00352C9.76295 5.9994 9.81718 6.00451 9.851 6.00769C9.85916 6.00846 9.86613 6.00912 9.8711 6.0095C9.91623 6.0928 9.93551 6.1108 9.93985 6.13189C9.94242 6.14433 9.93979 6.15784 9.9342 6.1865L9.93419 6.18652C9.93122 6.20179 9.9274 6.22136 9.92309 6.24737C9.7016 6.43713 9.34364 6.404 9.02589 6.37459C8.96821 6.36925 8.91186 6.36403 8.85789 6.36029C8.71955 6.33034 8.66946 6.31837 8.60586 6.20928C8.77614 6.04391 9.46867 6.02658 9.74611 6.00352ZM0.616114 6.67299C4.38937 7.80694 8.36149 9.22881 12.1041 10.5148C12.0552 12.0134 12.0758 13.5572 12.0963 15.1033C12.1193 16.8279 12.1423 18.5553 12.069 20.2259L11.5926 20.0612C11.4217 19.9994 11.4072 19.9984 11.2481 19.8955C11.1077 19.6852 11.1189 19.449 11.1311 19.193C11.1337 19.1377 11.1364 19.0815 11.1375 19.0244C10.5788 18.6955 9.36658 18.2286 8.71469 17.9173C6.33819 16.7826 3.7953 15.8244 1.40669 14.7464C1.39207 15.0161 1.39182 15.3275 1.38553 15.6008L0.636357 15.3396C0.607513 14.6286 0.61201 13.8468 0.616354 13.0917C0.618038 12.7989 0.619699 12.5102 0.619385 12.2311L0.616114 6.67299ZM22.0405 7.6198L22.118 7.62578C22.204 7.79555 22.2001 11.1306 22.2083 11.587C21.9948 11.6314 21.7151 11.6552 21.4937 11.6805C21.4623 11.0265 21.4655 10.293 21.4687 9.59196L21.4687 9.59185L21.4687 9.59161L21.4687 9.59052L21.4687 9.5903L21.4687 9.58923C21.4698 9.3323 21.471 9.07974 21.4704 8.83708C20.2212 9.16405 18.6225 9.71518 17.353 10.1072C17.4164 12.3394 17.397 14.7795 17.3791 17.0223L17.3787 17.0734L16.6682 17.3216L16.6667 10.33C15.6113 10.6054 14.5416 11.0131 13.4992 11.274C13.5608 12.8525 13.5455 14.6545 13.5308 16.3806L13.5308 16.3808L13.5308 16.381L13.5308 16.3812L13.5308 16.3814L13.5308 16.3816C13.5243 17.148 13.5179 17.8994 13.5184 18.6096C13.5184 18.6238 13.5181 18.6346 13.5179 18.6431C13.5174 18.6594 13.5172 18.6671 13.5198 18.6737C13.5245 18.6855 13.5385 18.6937 13.5768 18.7414C13.8669 18.7452 18.5866 17.082 19.0299 16.9054C19.1001 17.1504 19.1526 17.4068 19.2083 17.6562C18.3644 18.0052 17.4348 18.3095 16.5694 18.6191C15.2479 19.0851 13.9354 19.5761 12.6326 20.0919L12.6284 10.5257C15.755 9.5224 18.8925 8.55367 22.0405 7.6198ZM1.97623 8.75968C1.96125 8.74864 1.9452 8.73928 1.92966 8.72911C1.89843 9.09135 1.92675 13.1817 1.97817 13.4042L2.07484 13.4729C2.13757 13.4478 2.19477 13.4428 2.19528 13.3903C2.20015 12.8652 2.1832 12.2371 2.16591 11.5965C2.14178 10.7026 2.117 9.78445 2.14994 9.08808C3.16392 9.7527 4.68746 10.0528 5.70962 10.5543C5.71063 10.5907 5.71238 10.6289 5.71418 10.6682C5.72273 10.855 5.7324 11.0662 5.66939 11.2188C5.54063 11.2692 4.92663 11.0244 4.27724 10.7655C3.52922 10.4672 2.73423 10.1503 2.57976 10.2441C2.57873 10.2631 2.57675 10.281 2.57491 10.2978C2.5683 10.3576 2.56338 10.4022 2.60951 10.4282C3.39309 10.8692 5.02154 11.2443 5.77147 11.6475C5.77111 11.6878 5.77147 11.7273 5.77183 11.7663C5.77348 11.9486 5.77503 12.1183 5.70215 12.2874C5.53745 12.3499 4.86788 12.0732 4.18265 11.7901L4.18264 11.7901C3.42892 11.4787 2.65626 11.1595 2.51566 11.2751C2.54566 11.3796 2.58702 11.489 2.70306 11.5364C3.29407 11.778 3.98639 12.0384 4.57684 12.2647C4.91648 12.3888 5.40019 12.5489 5.72025 12.6914L5.72086 13.3907C5.16713 13.1892 2.98044 12.3072 2.57485 12.2528L2.56402 12.3203C3.11366 12.9324 5.00461 13.2015 5.66581 13.7897C5.72762 13.8447 5.71835 14.2621 5.71461 14.4302C5.71434 14.4425 5.7141 14.4534 5.71391 14.4627C5.61542 14.4252 5.42218 14.3463 5.17728 14.2464L5.17726 14.2463C4.30142 13.8889 2.76488 13.2618 2.5384 13.2891L2.48688 13.3543C2.577 13.5521 2.73609 13.6018 2.9305 13.6747C3.98921 14.0722 5.04163 14.4863 6.08735 14.9167C6.09272 14.4093 6.06915 10.2898 5.95326 10.0731L5.87141 10.0313L5.70144 10.1853C5.2003 10.082 2.32763 9.01855 1.97623 8.75968ZM20.8924 9.40164L20.9718 9.40952C21.0363 9.54584 21.029 10.6228 21.0255 11.1308L21.0255 11.1317C21.0249 11.227 21.0244 11.3022 21.0245 11.3473C20.8391 11.3205 20.5035 11.2809 20.3226 11.3124C18.8098 11.5753 18.4432 13.9561 19.9817 14.4728C20.0725 14.5033 20.1911 14.4929 20.3141 14.4821C20.4806 14.4675 20.6549 14.4522 20.7788 14.5369C20.8428 14.6545 20.8369 14.6985 20.8224 14.8053C20.8196 14.8253 20.8166 14.8475 20.8137 14.8728C20.662 14.9617 20.4944 14.9735 20.3179 14.986C19.9286 15.0134 19.4963 15.0439 19.0966 15.9123C19.0575 16.1052 19.032 16.3021 19.0038 16.4971C18.6307 16.6416 18.2042 16.7756 17.8218 16.9048C17.8866 15.2113 17.8617 13.1625 17.8396 11.3477C17.8357 11.0282 17.8319 10.716 17.8287 10.4142C18.8533 10.087 19.8746 9.74947 20.8924 9.40164ZM6.52623 10.4785C7.21544 10.6316 9.48279 11.6039 10.2945 11.8618C10.4209 11.9019 10.4454 12.0624 10.4856 12.1874C10.0344 12.142 7.19259 11.0463 6.61355 10.8058C6.52604 10.6959 6.52606 10.6947 6.52735 10.6012C6.52776 10.5717 6.5283 10.5329 6.52623 10.4785ZM16.2201 10.8928L16.2691 10.9273C16.3151 11.1907 16.3059 12.0851 16.3003 12.632C16.299 12.7636 16.2978 12.8751 16.2977 12.9529C16.2892 14.4417 16.2921 15.9306 16.3066 17.4194L14.0195 18.1966C13.954 18.1762 13.9912 18.1941 13.9195 18.1234C13.8784 16.6848 13.8887 15.1103 13.8986 13.5825L13.8986 13.5824C13.9029 12.9171 13.9072 12.2608 13.9072 11.6283C14.6749 11.373 15.4459 11.1278 16.2201 10.8928ZM22.9548 11.1987C23.2803 11.17 23.4745 11.2168 23.7751 11.2892L23.7981 11.2947C24.017 11.5019 24.0584 11.5687 24.2244 11.8238C24.2261 11.8683 24.2281 11.911 24.2301 11.9522C24.2472 12.3121 24.259 12.5589 24.0073 12.8914C23.5571 13.4866 22.34 13.5957 21.6384 13.6669C21.2408 13.6812 20.8986 13.4612 20.8323 13.0803C20.7122 12.3905 21.4603 12.2701 22.1887 12.1529C22.7216 12.0671 23.2439 11.9831 23.4077 11.6789C23.2176 11.3592 23.1478 11.6586 22.9548 11.1987ZM10.3373 12.9915C9.40679 12.6659 7.38206 11.8151 6.51817 11.6027C6.51839 11.6188 6.51785 11.638 6.51727 11.6587C6.51511 11.7359 6.51243 11.8319 6.54706 11.8469C7.45148 12.24 9.59124 13.0418 10.4326 13.3139C10.4312 13.2962 10.4302 13.2765 10.4292 13.2557C10.4241 13.1507 10.4178 13.0196 10.3373 12.9915ZM20.2956 11.9113C20.2722 11.9126 20.2496 11.9137 20.2281 11.9147C19.4793 12.5038 19.2579 13.7408 20.4568 13.8027C20.1926 12.9482 20.191 12.6546 20.8169 11.9764C20.6924 11.8906 20.472 11.9021 20.2956 11.9113ZM10.2925 14.0781C9.76005 13.8559 6.85375 12.6813 6.50516 12.6514C6.53792 12.7967 6.53424 12.941 6.67544 12.9876C7.23378 13.1716 10.1129 14.3624 10.4694 14.3754C10.437 14.243 10.4394 14.1394 10.2925 14.0781ZM6.53372 13.6867C7.36908 13.9327 9.4069 14.867 10.3387 15.1898C10.4435 15.2262 10.4504 15.3915 10.4713 15.5021C10.0077 15.428 7.15959 14.2718 6.61791 14.0227C6.53763 13.916 6.53756 13.9009 6.53715 13.8091C6.53702 13.7787 6.53684 13.74 6.53372 13.6867ZM21.9753 14.171C21.9909 14.168 22.0045 14.1653 22.0167 14.1628C22.1036 14.1454 22.1139 14.1434 22.2231 14.1677C22.4088 14.4378 22.3954 14.739 22.2336 15.0114C22.1464 15.1583 21.9194 15.1745 21.7665 15.2138C21.7475 15.2167 21.7313 15.2196 21.7171 15.2221C21.6349 15.2364 21.6199 15.239 21.5224 15.192C21.4397 14.9871 21.4531 14.7164 21.4655 14.4662C21.4685 14.4057 21.4715 14.3464 21.473 14.2895C21.5804 14.2534 21.8528 14.1992 21.9753 14.171ZM24.2005 16.1126C24.8046 15.1983 23.7457 14.538 22.9896 14.3833C22.9863 14.4346 22.9826 14.4795 22.9794 14.5189C22.9681 14.6566 22.9623 14.7277 22.9935 14.7738C23.0353 14.8353 23.1432 14.852 23.3928 14.9226L23.4676 15.012C23.2818 15.8818 20.9523 15.2358 20.8463 16.3179C20.7891 16.9017 20.9919 17.1645 21.5866 17.1078C22.3221 17.0118 23.7819 16.7461 24.2005 16.1126ZM10.351 16.2514C9.62354 16.0443 7.09123 14.9137 6.5402 14.8017C6.54232 14.8254 6.54303 14.8478 6.54368 14.8687C6.54582 14.937 6.54746 14.9892 6.59638 15.0164C7.66675 15.6122 9.36635 16.0916 10.4514 16.6082C10.4367 16.4873 10.44 16.2767 10.351 16.2514ZM20.3406 15.5189L20.4658 15.5599C20.4925 15.692 20.4433 15.8367 20.3927 15.9852C20.354 16.0986 20.3146 16.2142 20.3076 16.3283C20.3009 16.4385 20.3264 16.5669 20.3522 16.697L20.3522 16.697C20.3986 16.931 20.4461 17.1705 20.3091 17.3197L20.0075 17.3252C19.3061 16.823 19.5862 15.8507 20.3406 15.5189Z" fill="rgb(67,69,75)" fill-rule="evenodd" />
	</g>
</svg>
