<svg viewBox="0 0 32 23.9807" xmlns="http://www.w3.org/2000/svg" xmlns:xlink="http://www.w3.org/1999/xlink" width="32.000000" height="23.980713" fill="none" customFrame="#000000">
	<g id="Группа 1">
		<path id="Убрать верхний слой" d="M18.1631 0.621464C16.7525 0.181624 14.5484 -0.0504761 13.0511 0.00926393C11.1441 0.106364 7.84442 0.353904 6.50158 1.86426C6.46034 1.91092 6.42004 1.95836 6.38078 2.00664C4.45858 2.5527 1.96232 3.22778 0.087564 3.85786C-0.0116147 4.51602 -0.00337968 5.30767 0.00408626 6.02539C0.00581172 6.19127 0.0074961 6.35319 0.00780397 6.5086C0.010946 7.76372 0.0088368 9.01625 0.00672815 10.2684C0.00379004 12.0132 0.000852994 13.7574 0.012124 15.507C0.0158832 16.0869 0.327544 16.3112 0.513573 16.4451C0.596747 16.505 0.654806 16.5468 0.649004 16.5942C0.522486 17.6245 1.67699 17.8819 2.53361 18.0729C2.59862 18.0874 2.66192 18.1016 2.7228 18.1156C3.08164 18.1984 3.4518 18.0803 3.83806 17.7399C6.7177 18.9794 9.55932 20.3279 12.4545 21.5362C12.7965 21.679 13.1498 21.8172 13.4676 22.0068L13.4933 22.9535C14.2845 23.2705 15.1655 23.6945 15.9132 23.9807C16.5436 23.7094 18.3279 23.1794 18.6617 22.8383C18.7297 22.6569 18.7308 22.5735 18.7329 22.4124C18.7332 22.3867 18.7336 22.3591 18.7343 22.3288L18.8423 22.1606C18.9472 22.123 19.1651 22.0429 19.4614 21.9342C21.1791 21.3034 25.5289 19.7061 25.7247 19.8C25.907 19.8874 26.0036 20.0531 26.1578 20.1744C26.4336 20.3915 27.0561 20.2119 27.3998 20.1128C27.4183 20.1074 27.436 20.1023 27.4527 20.0975C27.9156 19.9654 29.0012 19.7398 29.2335 19.2735C29.3392 19.0614 29.3434 18.7639 29.347 18.5042C29.3479 18.4414 29.3488 18.3807 29.351 18.3241L29.4199 18.2954C30.3417 17.9184 31.4239 17.7944 31.8336 16.7409C32.4107 15.257 31.3916 14.3175 30.2357 13.7708C30.7499 13.4107 31.7215 12.8275 31.8129 12.1798C31.9937 10.8982 31.4224 9.78176 30.0486 9.60102C29.7802 9.56398 29.4958 9.5577 29.2225 9.5295C29.2089 9.31194 29.2132 8.77788 29.2182 8.15926C29.2277 6.98746 29.2397 5.51226 29.1367 5.3099C29.1074 5.25232 29.0404 5.17936 28.9904 5.13736C28.2302 4.49728 22.2854 3.01002 20.9055 2.61814C20.2654 1.41814 19.4382 1.01904 18.1631 0.621464ZM12.732 0.922084C12.8614 0.911084 12.9912 0.905184 13.121 0.904344C13.1403 0.904144 13.1597 0.903904 13.1793 0.903644L13.1794 0.903644C13.5638 0.898864 14.0138 0.893267 14.2889 1.1607L14.2879 1.28308C13.8808 1.73206 12.758 1.5077 12.1582 1.38782C12.1226 1.38074 12.089 1.374 12.0574 1.3678C11.5115 1.26546 10.5647 1.26744 9.99444 1.25658C11.1258 0.983384 11.5853 0.970504 12.732 0.922084ZM16.1429 1.90428C16.3075 2.07172 16.329 2.0566 16.555 2.10602C16.6869 2.09468 16.9014 2.09316 17.1471 2.09142C17.7718 2.087 18.5984 2.08112 18.784 1.90912L18.7357 1.79388C18.0891 1.34416 16.7024 1.19876 16.1429 1.90428ZM7.2467 2.5363C7.50012 3.54156 9.99088 2.97458 10.7187 2.8002C11.1087 2.74654 11.4571 2.70178 11.8503 2.66762C10.6295 2.51058 9.29486 2.36068 8.1052 2.08204C8.01542 1.92618 8.07348 1.88296 8.1087 1.85676L8.10872 1.85674C8.14494 1.8298 8.1569 1.8209 7.95862 1.72582C7.61752 1.972 7.3438 2.11588 7.2467 2.5363ZM18.9236 1.85692C19.4764 1.90536 19.7177 2.2443 20.0195 2.6564C18.957 3.76546 17.1354 3.96994 15.6726 4.1862C15.5313 4.18318 15.39 4.17926 15.2487 4.17454C15.186 4.1047 15.1629 4.087 15.1545 4.06394C15.1496 4.05052 15.1497 4.03526 15.1499 4.00682L15.1499 4.00614C15.1501 3.9789 15.1503 3.93968 15.1464 3.87872C15.2456 3.72172 15.7854 3.70038 16.446 3.67428C17.6458 3.62686 19.2437 3.56372 19.3229 2.64352C19.3423 2.41844 19.1775 2.1991 19.0306 2.0037C18.9926 1.95306 18.9558 1.90402 18.9236 1.85692ZM15.022 2.23756L16.555 2.10622C16.329 2.05682 16.3075 2.07194 16.1429 1.9045C15.8914 1.85924 15.3363 2.1008 15.0621 2.22016L15.062 2.22018C15.0479 2.22632 15.0346 2.23212 15.022 2.23756ZM13.1327 2.71234C13.3704 2.87982 13.9745 2.778 14.2941 2.7241L14.2942 2.7241C14.3071 2.72192 14.3195 2.71982 14.3314 2.71784C14.4813 2.69172 14.6303 2.6609 14.7783 2.6255L14.863 2.56942C14.5499 2.5178 13.4759 2.52382 13.1395 2.5528L13.1327 2.71234ZM6.11414 2.86596L6.18036 2.8744C6.25864 3.02558 6.23156 3.1828 6.20276 3.34994L6.20274 3.34998L6.20274 3.35006C6.19558 3.3917 6.1883 3.43394 6.18252 3.47686C5.83978 6.02108 10.7638 6.56398 12.4702 6.66698C14.9051 6.81408 18.4953 6.77344 20.5132 5.26812C21.0796 4.84562 21.1999 4.1526 21.2371 3.5025L27.4712 5.28586C26.3946 5.66616 25.1073 5.98004 23.9839 6.34896C21.3152 7.11664 18.4853 8.17878 15.8916 8.88356C13.3562 8.15416 10.5035 7.02 7.97282 6.17896C5.92092 5.49708 3.75406 4.83404 1.75752 4.02978C3.17314 3.65032 4.71202 3.21924 6.11414 2.86596ZM20.2236 3.5669L20.3658 3.60962C20.5169 3.86304 20.4092 4.19224 20.2498 4.4091C19.6026 5.28912 17.9393 5.6763 16.9284 5.83112C14.3164 6.23112 9.53914 6.16168 7.36666 4.6147C7.12364 4.39268 6.86484 4.00242 7.03446 3.66714C7.207 3.65968 7.52162 3.80588 7.78824 3.92978C7.8915 3.97776 7.98756 4.02238 8.06538 4.05346C8.786 4.3474 9.53588 4.56384 10.3024 4.6991C13.0555 5.17894 17.9283 5.17494 20.2236 3.5669ZM12.6093 3.68016L12.6094 3.68018C12.6198 3.68114 12.6287 3.68198 12.635 3.68248C12.6928 3.7891 12.7174 3.81214 12.723 3.83912C12.7263 3.85504 12.7229 3.87234 12.7158 3.90902C12.7119 3.92858 12.7071 3.95364 12.7015 3.98694C12.4181 4.22982 11.96 4.18743 11.5533 4.14979L11.5533 4.14978L11.5532 4.14978C11.4793 4.14294 11.4072 4.13626 11.3381 4.13148C11.161 4.09314 11.0969 4.07782 11.0155 3.93818C11.2335 3.7265 12.1199 3.70432 12.475 3.67482C12.4966 3.66954 12.5661 3.67608 12.6093 3.68016ZM0.788624 4.53174C5.6184 5.9832 10.7027 7.80318 15.4932 9.44926C15.4307 11.3675 15.457 13.3436 15.4833 15.3226C15.5127 17.53 15.5421 19.7411 15.4483 21.8795L14.8385 21.6687C14.6197 21.5895 14.6012 21.5883 14.3976 21.4565C14.2179 21.1874 14.2322 20.8851 14.2478 20.5575L14.2478 20.5574C14.2511 20.4866 14.2545 20.4146 14.2561 20.3416C13.5409 19.9206 11.9892 19.3229 11.1548 18.9245C8.11288 17.4721 4.85798 16.2456 1.80056 14.8657C1.78184 15.2109 1.78152 15.6095 1.77346 15.9593L0.814524 15.6249C0.777624 14.7152 0.783364 13.715 0.788924 12.7488L0.788924 12.7477C0.791084 12.3729 0.793204 12.0033 0.792804 11.6461L0.788624 4.53174ZM28.2119 5.74364L28.3111 5.7513C28.4211 5.96862 28.4161 10.2374 28.4266 10.8217C28.1534 10.8785 27.7953 10.9089 27.5119 10.9414C27.4718 10.1048 27.4759 9.16656 27.4799 8.26976L27.4799 8.26864L27.4799 8.26772L27.4799 8.26498L27.48 8.25312L27.48 8.25058L27.4801 8.23896L27.4801 8.23668C27.4815 7.91739 27.4828 7.6036 27.482 7.30176C25.8831 7.72028 23.8368 8.42574 22.2119 8.92756C22.293 11.7852 22.2681 14.9092 22.2452 17.7804L22.2447 17.8442L21.3353 18.162L21.3333 9.21272C19.9825 9.5652 18.6132 10.087 17.279 10.421C17.3578 12.4413 17.3382 14.7476 17.3194 16.9566L17.3194 16.9593L17.3194 16.9675L17.3194 16.9692L17.3193 16.9775L17.3193 16.9777C17.311 17.9521 17.3029 18.9074 17.3036 19.8106C17.3036 19.8288 17.3032 19.8427 17.3029 19.8536C17.3023 19.8743 17.302 19.8842 17.3054 19.8926C17.3114 19.9078 17.3292 19.9183 17.3783 19.9793C17.7497 19.9841 23.7909 17.8552 24.3583 17.6292C24.4481 17.9428 24.5153 18.2711 24.5867 18.5902C23.5064 19.037 22.3166 19.4264 21.2088 19.8228C19.5173 20.4193 17.8374 21.0478 16.1697 21.7079L16.1644 9.4632C20.1664 8.17898 24.1825 6.939 28.2119 5.74364ZM2.52956 7.2027C2.5104 7.18858 2.48984 7.1766 2.46996 7.16356C2.42998 7.62724 2.46622 12.8629 2.53206 13.1477L2.65578 13.2356C2.73608 13.2036 2.8093 13.1972 2.80996 13.1299C2.81618 12.4584 2.79453 11.6554 2.77244 10.8362L2.7724 10.835L2.77236 10.8339L2.77236 10.8338L2.77236 10.8338C2.74148 9.68966 2.70976 8.51442 2.75192 7.62304C4.0498 8.47376 5.99994 8.85786 7.3083 9.49982C7.3096 9.54638 7.31184 9.59528 7.31414 9.6456L7.31416 9.64566C7.3251 9.8847 7.33746 10.155 7.2568 10.3504C7.09202 10.4148 6.30631 10.1016 5.47526 9.77025L5.47508 9.77018L5.47482 9.77008L5.47454 9.76996C4.51716 9.38828 3.49978 8.98268 3.30208 9.10272C3.30076 9.1271 3.29822 9.15004 3.29586 9.17148C3.2874 9.24804 3.2811 9.3051 3.34016 9.33834C4.34314 9.90284 6.42756 10.3831 7.38748 10.8991C7.38705 10.9491 7.38747 10.9983 7.38788 11.0467L7.3879 11.049L7.38792 11.049L7.38792 11.0511L7.38792 11.0512C7.39004 11.2846 7.39202 11.5017 7.29874 11.7182C7.08802 11.7981 6.23158 11.4443 5.35486 11.0821L5.3547 11.0821L5.35376 11.0817C4.38902 10.683 3.4 10.2744 3.22002 10.4224C3.25844 10.5562 3.31138 10.6962 3.45992 10.757C4.2164 11.0662 5.10258 11.3995 5.85834 11.6891C6.29308 11.848 6.91222 12.053 7.32192 12.2353L7.3227 13.1305C6.61392 12.8725 3.81496 11.7436 3.2958 11.6739L3.28194 11.7603C3.98548 12.5438 6.4059 12.8883 7.25222 13.6412C7.33132 13.7116 7.31948 14.2455 7.3147 14.4609C7.31434 14.4766 7.31404 14.4906 7.3138 14.5026C7.18772 14.4545 6.94034 14.3536 6.62684 14.2256L6.62604 14.2253C5.50484 13.7677 3.53896 12.9655 3.24914 13.0004L3.1832 13.0839C3.29856 13.337 3.50218 13.4007 3.75102 13.494C5.10618 14.0027 6.45328 14.5327 7.7918 15.0838C7.79866 14.4343 7.7685 9.16128 7.62016 8.88382L7.5154 8.8303L7.29784 9.02754C6.65638 8.8953 2.97936 7.53406 2.52956 7.2027ZM26.7423 8.0244L26.844 8.03448C26.9264 8.2089 26.9171 9.5862 26.9127 10.2369L26.9127 10.238C26.9118 10.3604 26.9112 10.457 26.9114 10.5148C26.6741 10.4805 26.2444 10.4299 26.0129 10.4702C24.0766 10.8067 23.6073 13.8542 25.5766 14.5155C25.6927 14.5545 25.8444 14.5412 26.0016 14.5274L26.0018 14.5274L26.0019 14.5274L26.0021 14.5274C26.2152 14.5087 26.4384 14.4892 26.5969 14.5975C26.6788 14.7481 26.6712 14.8043 26.6526 14.9411L26.6526 14.9411C26.6492 14.9667 26.6453 14.9951 26.6416 15.0275C26.4473 15.1413 26.2328 15.1564 26.0069 15.1724C25.5086 15.2075 24.9552 15.2466 24.4437 16.358C24.3936 16.6049 24.361 16.857 24.3249 17.1066C23.8472 17.2916 23.3013 17.4631 22.812 17.6285C22.8949 15.4608 22.863 12.8385 22.8347 10.5157L22.8347 10.5148C22.8297 10.1061 22.8249 9.70662 22.8208 9.32054C24.1323 8.90168 25.4395 8.46962 26.7423 8.0244ZM8.35356 9.40282C9.23576 9.5988 12.138 10.8433 13.177 11.1734C13.3387 11.2247 13.3702 11.4301 13.4216 11.5902C12.8441 11.5321 9.2065 10.1295 8.46532 9.82174C8.35332 9.6811 8.35334 9.67952 8.355 9.55988C8.35552 9.52204 8.3562 9.4724 8.35356 9.40282ZM20.7617 9.9331L20.8245 9.9772C20.8833 10.3144 20.8716 11.4585 20.8644 12.1587L20.8644 12.1592C20.8627 12.3277 20.8612 12.4704 20.8611 12.57C20.8502 14.4757 20.8539 16.3815 20.8724 18.2871L17.9449 19.282C17.8611 19.2559 17.9087 19.2788 17.8169 19.1883C17.7644 17.3485 17.7775 15.3352 17.7902 13.3813L17.7902 13.3801L17.7902 13.377L17.7902 13.3759C17.7958 12.5243 17.8012 11.6841 17.8012 10.8745C18.7838 10.5477 19.7707 10.2339 20.7617 9.9331ZM29.3821 10.3247C29.7989 10.2879 30.0475 10.3478 30.4323 10.4405L30.4615 10.4475C30.7417 10.7127 30.7947 10.7982 31.0072 11.1248C31.0094 11.1817 31.012 11.2364 31.0145 11.2892L31.0145 11.2893C31.0364 11.7499 31.0515 12.0657 30.7294 12.4914C30.1531 13.2532 28.5952 13.3928 27.6971 13.484C27.1882 13.5022 26.7502 13.2207 26.6653 12.7331C26.5116 11.8502 27.4692 11.6961 28.4014 11.546L28.4015 11.546C29.0836 11.4362 29.7522 11.3286 29.9619 10.9393C29.7186 10.5301 29.6291 10.9133 29.3821 10.3247ZM13.2318 12.6194C12.0407 12.2026 9.44902 11.1137 8.34326 10.8418C8.34354 10.8614 8.3429 10.8848 8.3422 10.9098L8.3422 10.9099L8.34218 10.9103L8.34212 10.9126L8.3421 10.9133L8.3421 10.9135C8.33934 11.0124 8.33592 11.1351 8.38022 11.1544C9.53788 11.6575 12.2768 12.6838 13.3538 13.0321C13.3519 13.0094 13.3507 12.9842 13.3494 12.9577C13.3429 12.8233 13.3347 12.6554 13.2318 12.6194ZM25.892 11.2411C24.9335 11.9952 24.6501 13.5785 26.1847 13.6578C25.8466 12.564 25.8445 12.1882 26.6456 11.32C26.4862 11.2103 26.2041 11.225 25.9784 11.2368C25.9485 11.2384 25.9195 11.2399 25.892 11.2411ZM13.1744 14.0102C12.4929 13.7259 8.77278 12.2224 8.32658 12.1841C8.36854 12.3701 8.36382 12.5548 8.54456 12.6144C9.25922 12.85 12.9446 14.3742 13.4008 14.3909C13.3593 14.2213 13.3624 14.0887 13.1744 14.0102ZM8.36314 13.5093C9.43242 13.8242 12.0408 15.0201 13.2336 15.4333C13.3677 15.4798 13.3765 15.6914 13.4032 15.833C12.8098 15.7382 9.16426 14.2582 8.47092 13.9394C8.36816 13.8027 8.36806 13.7835 8.36754 13.666C8.36736 13.6271 8.36714 13.5775 8.36314 13.5093ZM28.1284 14.1292C28.1484 14.1254 28.1658 14.1219 28.1814 14.1187L28.1814 14.1187C28.2926 14.0965 28.3058 14.0938 28.4456 14.125C28.6833 14.4706 28.6662 14.8562 28.459 15.2049C28.3474 15.393 28.0568 15.4137 27.8612 15.4639C27.8369 15.4677 27.8161 15.4714 27.7979 15.4745C27.6927 15.4929 27.6734 15.4963 27.5487 15.4361C27.4428 15.1738 27.46 14.8273 27.4759 14.507C27.4797 14.4296 27.4835 14.3536 27.4855 14.2808C27.6229 14.2346 27.9716 14.1653 28.1284 14.1292ZM29.4136 14.5747L29.4136 14.5747L29.4136 14.5748C29.3992 14.7508 29.3918 14.8418 29.4317 14.9008C29.4851 14.9796 29.6233 15.0009 29.9428 15.0912L30.0385 15.2057C29.8008 16.319 26.8189 15.4922 26.6833 16.8772C26.6101 17.6244 26.8696 17.9608 27.6308 17.8883C28.5723 17.7654 30.4409 17.4253 30.9767 16.6145C31.7499 15.4442 30.3945 14.5989 29.4267 14.4009C29.4224 14.4666 29.4177 14.524 29.4136 14.5745L29.4136 14.5747ZM13.2493 16.7921C12.3181 16.527 9.07676 15.0799 8.37144 14.9365C8.37416 14.9668 8.37506 14.9955 8.3759 15.0223C8.37864 15.1097 8.38074 15.1765 8.44336 15.2114C9.81342 15.974 11.9889 16.5875 13.3778 17.2488C13.359 17.094 13.3632 16.8245 13.2493 16.7921ZM25.6096 18.1666L25.9957 18.1595C26.171 17.9686 26.1102 17.6622 26.0508 17.3627L26.0508 17.3627L26.0508 17.3626L26.0508 17.3625L26.0508 17.3625L26.0508 17.3624C26.0177 17.196 25.9852 17.0317 25.9938 16.8906C26.0027 16.7445 26.0531 16.5965 26.1026 16.4514L26.1026 16.4513C26.1674 16.2612 26.2305 16.0761 26.1963 15.907L26.0359 15.8545C25.0703 16.2792 24.7118 17.5237 25.6096 18.1666Z" fill="rgb(254,254,254)" fill-rule="evenodd" />
	</g>
</svg>
