<svg viewBox="0 0 32 24.084" xmlns="http://www.w3.org/2000/svg" xmlns:xlink="http://www.w3.org/1999/xlink" width="32.000000" height="24.083984" fill="none" customFrame="#000000">
	<g id="Группа 8">
		<path id="Убрать верхний слой" d="M4.402 4.94103C4.07574 4.29569 3.59924 3.35319 3.72046 3.22629C4.14882 2.77587 5.91882 1.42597 6.50634 1.27925C6.87712 1.42735 7.68862 2.56909 8.08138 2.93625C8.86776 2.76631 9.31592 2.71717 9.91744 2.15825C10.0607 1.54541 10.0755 0.761954 10.3784 0.237154C10.9514 -0.113626 12.6391 0.00513394 13.3215 0.0897539C13.5658 0.118414 13.8525 0.658914 13.8634 0.869094C13.9432 2.47967 14.3349 2.60457 15.938 3.00243C16.4471 2.67963 17.4995 1.38231 17.8291 1.38093C18.3116 1.63139 20.2586 3.03043 20.6244 3.42147C20.6585 3.74409 20.3651 4.37393 20.1119 4.91748C20.0057 5.14546 19.9066 5.35825 19.8416 5.52683C20.0675 5.88101 20.4797 6.36829 20.7902 6.65015C21.2359 6.76273 23.7418 6.62079 24.2544 6.54573C24.4468 5.79297 24.9423 5.06345 25.8015 5.07095C26.2833 5.07231 26.7446 5.26545 27.0838 5.60803C27.6714 6.20449 27.8393 7.52093 27.1643 8.01095C25.8984 8.93021 24.9975 8.44021 24.1923 7.47999C24.0605 7.47723 23.9377 7.47066 23.8227 7.46451C23.1999 7.4312 22.8034 7.40999 22.4336 8.06895L22.4336 8.069C22.3721 8.02946 22.3249 7.99514 22.2849 7.96599C22.1681 7.88095 22.112 7.84011 21.9382 7.84317C21.081 8.48195 20.0874 9.77997 19.25 10.4099C19.2027 10.4099 19.1517 10.4099 19.0976 10.41L19.0972 10.41C18.5887 10.4106 17.8114 10.4114 17.3385 10.3682C17.3043 10.3976 17.2695 10.4276 17.2354 10.457C17.1753 10.581 17.1527 10.6227 17.1482 10.6662C17.1456 10.6914 17.1491 10.7173 17.155 10.7602L17.1551 10.7606L17.1551 10.7611C17.1586 10.7862 17.1628 10.817 17.1672 10.8569C17.486 11.2623 18.6323 11.2062 19.4859 11.1645L19.4859 11.1645L19.4861 11.1645C19.7762 11.1503 20.0324 11.1378 20.2109 11.1456C20.7091 11.1667 21.6372 11.1906 22.1006 11.1224C22.2582 10.9831 22.2705 10.9961 22.332 10.8002C22.1252 10.4146 21.47 10.4488 21.0517 10.4092C20.9847 10.1175 21.5394 9.59503 21.9554 9.20321C22.1116 9.05601 22.2483 8.92727 22.3251 8.83613L22.3251 8.83603C22.9038 8.75345 23.3549 8.90085 23.8319 9.21683C23.6231 9.84195 23.4832 10.2794 23.1802 10.8609C24.9587 10.8882 26.7385 10.8957 28.5176 10.8834C28.7415 9.82967 29.529 9.16769 30.6284 9.42157C31.1205 9.53213 31.5423 9.84673 31.7886 10.2862C32.74 12.0203 30.2756 14.224 28.4705 11.7112C28.3861 11.7108 28.2529 11.7097 28.0825 11.7082C26.7555 11.697 23.1731 11.6665 22.8151 11.8183C22.6216 12.0429 22.6241 12.1112 22.6337 12.3723C22.635 12.4095 22.6365 12.4506 22.6376 12.4967L22.6375 12.4968C22.6193 12.4619 22.6024 12.4288 22.5864 12.3974C22.4249 12.0804 22.3518 11.9369 21.8862 11.9741C21.6623 11.9924 21.071 11.9822 20.3821 11.9703L20.382 11.9703L20.3811 11.9703L20.3784 11.9702L20.3775 11.9702L20.3765 11.9702L20.376 11.9702C19.0896 11.9478 17.4662 11.9196 17.2571 12.0594C17.2533 12.089 17.2496 12.115 17.2462 12.1383C17.2238 12.2957 17.2185 12.3326 17.294 12.5221C17.5165 12.6535 17.8888 12.6318 18.2234 12.6122L18.2237 12.6122C18.3478 12.6049 18.4667 12.598 18.5709 12.5993C19.0105 12.605 19.4513 12.6025 19.8924 12.5999C20.7118 12.5952 21.5323 12.5905 22.3484 12.6388C21.7394 12.69 21.6178 12.8246 21.212 13.2972C21.6467 13.7156 22.0214 14.0848 22.3776 14.5761C22.5314 14.5768 22.6964 14.5765 22.8675 14.576L22.8677 14.576C23.4961 14.5745 24.2078 14.5728 24.756 14.6259C25.2712 13.8172 26.1666 13.0611 27.1316 13.6876C27.5404 13.949 27.8236 14.3673 27.9143 14.8443C28.3033 16.9408 25.5224 17.4936 24.7723 15.4046C24.7204 15.404 24.6442 15.4027 24.5501 15.401L24.5501 15.401C23.8978 15.3894 22.3855 15.3626 22.1463 15.464C21.5348 14.7972 20.8762 14.2287 20.2259 13.4958C19.2261 13.4746 18.227 13.4671 17.2272 13.4733L17.247 14.3693C17.3965 14.3693 17.5491 14.3684 17.7028 14.3676L17.7049 14.3675L17.7069 14.3675L17.709 14.3675L17.7112 14.3675C18.0814 14.3654 18.4581 14.3633 18.8159 14.3734C19.323 14.7563 20.8414 16.5341 21.5239 17.1865C21.7764 17.0773 22.452 16.7715 22.7004 16.7156C24.4987 16.5934 25.6664 18.1747 24.4666 19.4256C24.1807 19.7273 23.7828 19.8972 23.3665 19.8958C22.9468 19.8938 22.6008 19.7798 22.3053 19.4795C21.9709 19.139 21.9961 18.4326 21.6385 18.3405C21.5225 18.3112 21.2475 18.2682 21.1267 18.2306L21.1266 18.2306C20.5969 17.4634 19.1311 15.7125 18.459 15.1318L17.2613 15.1175C16.8812 16.2094 16.559 16.3391 15.4548 16.352C15.4503 16.5086 15.4614 16.6866 15.4729 16.8719C15.5068 17.4181 15.5446 18.0276 15.1996 18.338C15.134 18.3476 15.0908 18.3561 15.06 18.3622C15.0233 18.3694 15.004 18.3732 14.9854 18.3713C14.9529 18.368 14.9222 18.3474 14.8045 18.2977C14.5554 17.9712 14.5897 17.2774 14.6174 16.7164L14.6174 16.7163C14.6244 16.5749 14.631 16.4419 14.6325 16.3254L13.6873 16.3363L13.6832 18.3946C13.6419 18.3962 13.6005 18.3987 13.5593 18.4011C13.3503 18.4137 13.1449 18.426 12.9762 18.3188C12.7603 18.0189 12.7918 17.3758 12.819 16.8208L12.819 16.8206C12.8276 16.6457 12.8358 16.4795 12.8356 16.3356L11.9041 16.337C11.9005 16.4915 11.9118 16.6711 11.9237 16.86C11.9598 17.4321 12.0013 18.0895 11.6509 18.3932C11.5885 18.4004 11.5456 18.4072 11.5142 18.4121C11.4718 18.4188 11.4503 18.4222 11.43 18.4189C11.3951 18.4131 11.3635 18.3876 11.2359 18.325C11.0055 18.0062 11.0419 17.2559 11.0693 16.6925L11.0693 16.6923C11.076 16.555 11.0821 16.4288 11.0837 16.3227L10.1186 16.3316L10.1306 18.3864L9.31708 18.3537C9.30828 17.903 9.31156 17.4356 9.3148 16.9738L9.3148 16.9737L9.3148 16.9736C9.31624 16.7697 9.31766 16.5669 9.31804 16.367C8.42676 16.2626 8.13358 16.2189 7.83078 15.2778L7.80116 15.183C7.67992 15.1189 7.44622 15.1223 7.18336 15.1261C6.91138 15.13 6.60816 15.1343 6.36596 15.0649C6.2436 14.8206 6.27984 14.7114 6.41496 14.4896C6.72538 14.3127 7.1783 14.3421 7.58722 14.3687C7.68006 14.3747 7.7706 14.3806 7.85672 14.3838L7.84648 13.4086C7.79686 13.4094 7.72764 13.4113 7.6458 13.4135C7.24076 13.4246 6.5263 13.444 6.3444 13.3827C6.27346 13.1749 6.27408 13.1339 6.27666 12.9656C6.27704 12.9404 6.27748 12.9123 6.27772 12.8804C6.43435 12.5934 6.64378 12.6304 6.90073 12.6758L6.90076 12.6758L6.90078 12.6758C7.14737 12.7194 7.43775 12.7707 7.76724 12.5508C7.88487 12.3822 7.87336 12.2331 7.8585 12.0405L7.8585 12.0404C7.85548 12.0014 7.85234 11.9606 7.8501 11.9175C7.23888 11.9072 6.87698 11.9222 6.26858 11.9823L6.30366 11.1579C6.37316 11.1579 6.46672 11.1596 6.57406 11.1615C7.00814 11.1694 7.66744 11.1813 7.87186 11.1019L7.84798 10.2577C7.75308 10.2583 7.64724 10.2617 7.53594 10.2653L7.5358 10.2653C7.14155 10.278 6.67883 10.2929 6.39162 10.1929C6.29692 10.0983 6.26248 10.0777 6.24872 10.0477C6.23452 10.0167 6.24242 9.97549 6.2288 9.83189C6.44553 9.42561 6.96621 9.46465 7.44546 9.50059L7.4455 9.50059C7.5893 9.51139 7.72936 9.52189 7.85638 9.52001C7.88346 8.33731 8.01572 7.75313 9.31934 7.73199L9.31068 5.97535L10.1304 5.96103L10.1293 7.75587L11.0851 7.75587L11.0824 5.92689C11.1656 5.92711 11.2503 5.92674 11.3356 5.92636L11.3365 5.92635C11.5271 5.92551 11.7201 5.92467 11.9047 5.93031L11.9068 7.76065L12.8547 7.74905C12.8535 7.64433 12.8472 7.52413 12.8406 7.39619C12.8145 6.89541 12.7823 6.27651 13.0199 6.00743C13.1973 5.92484 13.2069 5.92671 13.3643 5.95749L13.3643 5.95749C13.3825 5.96103 13.4026 5.96497 13.4252 5.96921C13.7856 6.27133 13.7317 6.84201 13.6835 7.35101C13.6703 7.49163 13.6574 7.62753 13.6539 7.75177L14.6318 7.75383L14.6352 5.99105C14.9007 6.00539 15.186 6.01493 15.4487 6.03883L15.4555 7.74427C16.7883 7.75383 17.1855 8.08071 17.2531 9.51863L19.1066 9.51387C19.6185 8.97951 21.1526 7.39691 21.4065 6.80863L21.3594 6.75881C21.1287 6.83593 21.0755 6.84821 20.8332 6.84481C20.318 7.13005 19.8949 7.73403 19.3127 8.11211C17.3684 5.96581 15.9367 4.44461 12.7319 4.27537C10.6204 4.16277 8.55192 4.90119 6.98912 6.32545C5.45298 7.72857 4.61084 9.51113 4.52206 11.5912C4.41396 13.7082 5.17256 15.7781 6.62318 17.3245C9.62194 20.5238 14.5547 20.6617 17.7247 17.6753C18.0884 17.3334 18.4221 16.9198 18.7531 16.5431C19.3878 16.9963 19.7475 17.5395 20.2777 17.9701L20.2783 17.9745C20.2807 17.9945 20.2829 18.0119 20.2847 18.0273C20.29 18.0736 20.2922 18.1022 20.2902 18.1306C20.2875 18.1694 20.2771 18.2076 20.2566 18.2893C19.5693 18.2384 19.4072 18.4092 19.0317 18.8049C18.9699 18.8701 18.9022 18.9414 18.8255 19.0189C18.9293 19.3965 19.1011 19.7472 19.2615 20.0746C19.6936 20.9562 20.0427 21.6688 18.7572 22.2844C18.2481 22.5287 17.6639 22.9791 17.1228 23.2685C16.8313 22.9819 16.0916 21.8101 15.708 21.3344C15.1989 21.404 14.9062 21.5091 14.4557 21.7262C14.2476 22.3342 14.1391 23.5633 13.6955 23.912C13.3032 24.2201 11.4086 24.0315 10.8264 23.9736C10.814 23.9723 10.8023 23.9712 10.7911 23.9701C10.688 23.6866 10.639 23.3456 10.5902 23.0062C10.4734 22.1935 10.3579 21.3899 9.50456 21.4068C8.69012 21.4225 8.10812 22.6536 7.4725 23.2508C6.74568 22.8795 5.13128 22.0251 4.59514 21.4846C4.79552 20.8751 5.16896 20.02 5.44064 19.4543C5.09744 18.8735 4.73218 18.2811 4.19872 17.8662C4.07539 17.898 3.91485 17.9464 3.73506 18.0005C3.12793 18.1833 2.3014 18.4322 1.9471 18.3337C1.71172 18.0061 0.72054 15.81 0.46536 15.2818C0.688065 15.135 0.891729 15.0058 1.07685 14.8883C2.51556 13.9752 2.83414 13.773 2.26492 11.6047C1.4307 11.2533 0.76926 10.955 0 10.4814C0.29864 9.53349 0.55006 8.15699 0.93306 7.28141C1.07167 6.96455 1.68474 7.05562 2.28148 7.14427C2.68336 7.20397 3.07782 7.26257 3.315 7.19473C3.8682 7.03641 4.36168 5.98885 4.66318 5.47563C4.62069 5.37361 4.5214 5.17722 4.402 4.94103ZM25.7025 6.12267C25.9523 6.03463 26.2294 6.08923 26.4266 6.26599C26.6232 6.44205 26.7085 6.71229 26.6477 6.96959C26.5877 7.22687 26.3911 7.43091 26.1366 7.50121C25.7612 7.60495 25.3709 7.39271 25.2542 7.02145C25.1368 6.64951 25.3354 6.25233 25.7025 6.12267ZM13.8359 8.61085L13.8335 8.61085L13.833 8.61085C12.1682 8.60647 10.4895 8.60206 8.85196 8.63079C8.8302 10.8849 8.82494 13.1391 8.8362 15.3939C11.098 15.4314 13.7951 15.4676 16.056 15.4021C16.0765 13.1391 16.0806 10.8761 16.067 8.61373C15.3359 8.61477 14.5973 8.61285 13.8558 8.61089L13.8359 8.61085ZM30.9942 10.9238C30.8994 10.5205 30.4947 10.2707 30.092 10.3683C29.6935 10.4645 29.4471 10.8644 29.5406 11.2637C29.6334 11.6629 30.0313 11.912 30.4312 11.8219C30.8359 11.7305 31.0884 11.3278 30.9942 10.9238ZM27.0524 14.9119C26.9405 14.5556 26.5603 14.3577 26.2041 14.4717C25.8513 14.5843 25.6554 14.961 25.766 15.3152C25.8772 15.6687 26.2532 15.8666 26.6074 15.7581C26.9643 15.6482 27.1643 15.2688 27.0524 14.9119ZM23.1673 17.6205C23.5344 17.5086 23.9241 17.7126 24.0415 18.0784C24.1589 18.4442 23.961 18.8359 23.5972 18.9588C23.3563 19.04 23.0915 18.9854 22.9025 18.8161C22.7141 18.6462 22.6309 18.3889 22.6861 18.1412C22.7407 17.8935 22.925 17.6949 23.1673 17.6205Z" fill="rgb(254,254,254)" fill-rule="evenodd" />
	</g>
</svg>
