<svg viewBox="0 0 25 23.4448" xmlns="http://www.w3.org/2000/svg" xmlns:xlink="http://www.w3.org/1999/xlink" width="25.000000" height="23.444824" fill="none" customFrame="#000000">
	<g id="Black">
		<path id="Vector" d="M1.25055 18.4151C1.03141 18.4051 0.807289 18.3827 0.750014 18.3677C0.525896 18.308 0.251973 18.059 0.124973 17.7975C0.0676983 17.6805 0.0527571 17.6082 0.0378158 17.3816C0.00544317 16.9309 -0.0144785 3.2298 0.0129138 1.61116C0.0378158 0.258981 0.040306 0.156883 0.0851297 0.0796865C0.112522 0.0373531 0.149875 0 0.167306 0C0.224581 0 0.33664 0.191746 0.672818 0.85663L0.984094 1.46922L0.999035 9.18886C1.01149 16.2336 1.02145 17.3841 1.06876 17.4314C1.16339 17.5285 9.56036 17.541 9.81187 17.4464C9.84922 17.4314 9.89404 17.3891 9.90899 17.3517C9.9314 17.3019 9.94136 16.901 9.94883 15.9L9.9563 14.5179L10.0858 14.3859C10.158 14.3112 10.2526 14.244 10.3024 14.229C10.3522 14.2141 10.8777 14.1942 11.56 14.1817C12.205 14.1693 12.7677 14.1493 12.8151 14.1394C12.8823 14.122 12.9072 14.102 12.9221 14.0448C12.9645 13.8953 12.9894 12.5108 13.0068 9.40799L13.0242 6.23796L13.4924 6.23796L13.963 6.23796L13.963 10.541L13.963 14.8441L13.709 15.1404C13.0765 15.8751 10.7855 18.3279 10.666 18.3976C10.6262 18.42 9.61016 18.4275 6.13135 18.43C3.66604 18.4325 1.46968 18.425 1.25055 18.4151Z" fill="rgb(67,69,75)" fill-rule="nonzero" transform="matrix(1,0,0,-1,3.5166,18.4304)" />
		<path id="Vector" d="M0.588524 1.1331C0.29717 1.11069 0.242386 1.09077 0.137797 0.97871C-0.083831 0.742141 -0.0315367 0.323787 0.247366 0.0946877L0.361916 5.99114e-05L4.93393 5.99114e-05C9.92679 5.99114e-05 9.6952 -0.00741071 9.89691 0.144492C10.2381 0.403473 10.1634 1.00361 9.77489 1.11567C9.66034 1.14804 0.996918 1.16299 0.588524 1.1331Z" fill="rgb(67,69,75)" fill-rule="nonzero" transform="matrix(1,0,0,-1,5.44824,6.42773)" />
		<path id="Vector" d="M1.38788 16.5291C1.21357 16.5191 1.01186 16.4942 0.939645 16.4718C0.64082 16.3871 0.314603 16.0958 0.120367 15.7421L0.0107985 15.5479L0.00332786 8.91151C-0.00663296 1.84431 0.000837654 1.11966 0.0954654 0.868151C0.202544 0.584268 0.551173 0.218208 0.837546 0.0912074C0.944625 0.0438935 1.02431 0.0364229 1.66678 0.0165012C2.06273 0.00405022 6.17157 -0.00342039 10.9577 0.00156002L19.5365 0.00903063L19.7855 0.188325C20.0993 0.409954 20.3035 0.631582 20.4778 0.925426C20.9808 1.78206 23.8072 7.16339 24.6912 8.94638C24.9776 9.51912 25 9.5764 25 9.70838C25 9.99724 24.8655 10.2612 24.6588 10.3758C24.5941 10.4106 24.4795 10.443 24.36 10.4554C24.2529 10.4704 23.1323 10.4878 21.8698 10.4978L19.5763 10.5127L19.5614 10.8887C19.5539 11.0954 19.5415 11.5835 19.5315 11.9745C19.5166 12.7614 19.4942 12.9979 19.4269 13.1523C19.3522 13.3217 19.1406 13.5533 18.9364 13.6902C18.7496 13.8147 18.6624 13.8496 18.4582 13.882L18.3512 13.8994L18.3512 13.1673C18.3512 12.7639 18.3437 12.0068 18.3337 11.4864L18.3188 10.5351L16.7973 10.5202C15.9606 10.5127 13.7966 10.4953 11.9887 10.4803C10.1808 10.4654 8.45757 10.443 8.15626 10.4305C7.54865 10.4031 7.53371 10.3982 7.3569 10.2039C7.0257 9.83538 6.73435 9.27508 3.71124 3.17408L2.71267 1.15951L2.21712 1.17445C1.87596 1.18441 1.69667 1.19935 1.63939 1.22425C1.59208 1.24417 1.48002 1.32386 1.38788 1.40355L1.21855 1.54549L1.21855 8.26655L1.21855 14.9851L1.39535 15.137C1.49247 15.2217 1.60204 15.3014 1.6369 15.3163C1.67426 15.3338 1.9183 15.3487 2.1972 15.3562L2.68777 15.3661L2.68777 15.9613L2.68777 16.5564L2.1972 16.554C1.92577 16.5515 1.5622 16.5415 1.38788 16.5291Z" fill="rgb(67,69,75)" fill-rule="nonzero" transform="matrix(1,0,0,-1,0,23.4448)" />
		<path id="Vector" d="M2.34079 1.1704C1.41693 1.16044 0.577727 1.143 0.475629 1.13304C0.311276 1.11561 0.278903 1.10316 0.191746 1.02347C0.0597649 0.903944 0 0.771963 0 0.585198C0 0.405903 0.0522943 0.281393 0.199216 0.11953L0.303805 0L5.03021 0L9.75662 0L9.91849 0.171824C10.0455 0.308785 10.0853 0.36855 10.1102 0.468158C10.16 0.682316 10.1127 0.809317 9.89607 1.0434L9.75662 1.1953L6.88791 1.19032C5.31161 1.18783 3.26466 1.17787 2.34079 1.1704Z" fill="rgb(67,69,75)" fill-rule="nonzero" transform="matrix(1,0,0,-1,5.45215,9.90161)" />
	</g>
</svg>
