<svg viewBox="0 0 25 25" xmlns="http://www.w3.org/2000/svg" xmlns:xlink="http://www.w3.org/1999/xlink" width="25.000000" height="25.000000" fill="none" customFrame="url(#clipPath_3)">
	<defs>
		<clipPath id="clipPath_3">
			<rect width="25.000000" height="25.000000" x="0.000000" y="0.000000" rx="3.000000" fill="rgb(255,255,255)" />
		</clipPath>
	</defs>
	<rect id="Frame 32" width="25.000000" height="25.000000" x="0.000000" y="0.000000" rx="3.000000" />
	<g id="Группа 4">
		<path id="Убрать верхний слой" d="M4.74956 6.97483C4.63899 7.05977 4.59755 7.19813 4.57992 7.33123C4.55429 7.52452 4.53427 7.97578 4.66415 8.11652C4.80846 8.27294 5.07254 8.28126 5.28909 8.28809C5.32548 8.28924 5.36052 8.29034 5.39343 8.2921C5.61021 8.79092 5.75087 9.21838 6.00339 9.70944C5.91718 9.71608 5.83513 9.71958 5.75584 9.72295C5.45508 9.73576 5.19401 9.74688 4.89612 9.92179C4.45354 10.1817 4.27235 10.6186 4.15983 11.1091C3.93008 12.2178 3.89983 13.7593 4.52077 14.7477C4.76242 15.1322 5.18594 15.3244 5.42369 15.781L5.45672 15.8455C5.5228 15.9458 5.58955 16.0453 5.65698 16.1444C5.51181 16.2084 4.86762 16.2081 4.5176 16.208C4.44543 16.208 4.38576 16.2079 4.34555 16.2085C4.32965 16.5615 4.33627 16.9134 4.34291 17.2664C4.34397 17.3225 4.34503 17.3787 4.34599 17.4348L6.60431 17.436C6.60158 17.453 6.59876 17.4701 6.59593 17.4872C6.55833 17.7146 6.51975 17.9479 6.67632 18.1274C6.97984 18.16 7.48597 18.1541 7.89491 18.1494C8.01571 18.148 8.12803 18.1467 8.22413 18.1465L10.8793 18.1469L19.7072 18.1429C19.7062 18.0718 19.7089 17.9629 19.7119 17.8385L19.7119 17.8384C19.72 17.5062 19.7307 17.0639 19.6823 16.9385C19.543 16.7665 18.9603 16.7156 18.6686 16.6463C18.5641 16.4919 18.3826 16.2097 18.4352 16.025C18.5697 15.5525 19.5373 15.9346 19.9623 15.4749C20.5968 14.7887 20.8452 13.7044 20.8965 12.815C20.9569 11.7684 20.9166 10.5677 20.202 9.74741C19.7222 9.19678 19.0633 9.20116 18.4072 9.20553L18.4072 9.20553C18.3926 9.20563 18.378 9.20573 18.3633 9.20582C18.3 9.20621 18.2367 9.20649 18.1736 9.20616C17.8272 9.20194 17.4809 9.19238 17.1348 9.17758C17.1364 9.05124 17.1443 8.92585 17.1521 8.80255C17.1859 8.26622 17.2172 7.76937 16.7218 7.40551L16.6855 7.40467C16.0132 7.38919 13.4628 7.33046 13.0641 7.46155C12.8575 7.52945 12.68 7.66041 12.5897 7.86261C12.4208 8.24083 12.5515 8.78384 12.7026 9.1535C12.4219 9.15248 12.1517 9.16745 11.8822 9.18238C11.6334 9.19616 11.3852 9.20991 11.1296 9.21105C10.9668 9.21177 10.7736 9.11682 10.576 9.01977C10.4003 8.93344 10.2212 8.84545 10.0571 8.82165C9.92716 8.80448 9.7766 8.80793 9.6249 8.8114C9.43297 8.81579 9.23922 8.82022 9.08307 8.783C9.12864 8.79387 8.65816 8.34711 8.60749 8.30893C8.69746 8.30394 8.7962 8.30512 8.89736 8.30633C9.10074 8.30876 9.31391 8.31131 9.48528 8.264C9.59287 8.2343 9.66488 8.18196 9.71698 8.08114C9.81279 7.89561 9.78875 7.24179 9.68928 7.06419C9.63996 6.97614 9.60462 6.93502 9.50411 6.91329C9.01317 6.80713 4.93967 6.82882 4.74956 6.97483ZM5.24715 7.40731C5.67449 7.39616 9.03518 7.36436 9.1487 7.45567C9.15114 7.4729 9.1534 7.48814 9.15543 7.50186C9.17021 7.60147 9.1732 7.62161 9.1471 7.74958C9.04452 7.74866 8.79235 7.7503 8.46266 7.75243L8.46262 7.75243L8.46261 7.75243C7.35223 7.75962 5.36256 7.77251 5.24639 7.71272C5.20213 7.62403 5.21667 7.55478 5.23568 7.46431C5.23947 7.44626 5.24344 7.42737 5.24715 7.40731ZM13.3405 7.95738L16.4402 7.95778L16.4372 8.58963L13.3404 8.59453L13.3405 7.95738ZM6.06867 8.29364C6.36421 8.2804 6.67496 8.28044 6.9787 8.28047L6.97879 8.28047C7.07309 8.28048 7.16672 8.28049 7.259 8.28011C7.69533 8.86491 7.91505 9.25379 8.21896 9.90662C8.3118 9.95866 8.45269 9.95692 8.57608 9.95539L8.57609 9.95539L8.57614 9.95539C8.60307 9.95505 8.62916 9.95473 8.65373 9.95498C8.77279 10.2174 8.87003 10.4892 8.94454 10.7675C9.28507 12.0301 9.37574 13.9176 8.67786 15.0819C8.51159 15.3593 8.129 15.8688 7.80886 15.9524C7.78713 15.9481 7.78003 15.9478 7.77486 15.9445C7.76817 15.9403 7.7647 15.9309 7.73685 15.9011C7.77805 15.7673 8.01659 15.5321 8.11964 15.3474C8.52803 14.615 8.54587 14.0116 8.60804 13.2023C8.58599 13.194 8.56384 13.1849 8.54166 13.1759C8.43606 13.1328 8.32958 13.0894 8.22847 13.1203L8.18811 13.2228C7.83377 14.7404 6.91653 16.0686 5.16026 15.3267C5.28604 15.3269 5.40235 15.335 5.51324 15.3428C5.88803 15.3691 6.2009 15.391 6.60813 15.0863C7.81833 14.1807 7.75588 12.1929 7.3004 10.9077C7.20975 10.6519 6.93992 10.2096 6.66532 9.7594C6.2987 9.1584 5.92358 8.54345 5.95498 8.33986L6.06867 8.29364ZM9.30999 9.3148L9.32949 9.31453C9.66868 9.30984 9.83441 9.30755 10.1724 9.36559C10.9983 10.5896 11.0113 11.9754 10.8964 13.3879C10.6948 13.4093 10.447 13.407 10.2242 13.405C10.1723 13.4045 10.1219 13.404 10.0736 13.4039L10.0737 13.3854C10.079 11.7751 10.0821 10.8012 9.30999 9.3148ZM18.6893 10.7108C18.6119 10.3989 18.3863 9.82468 18.0781 9.69918L18.0855 9.73194C18.1584 10.0396 18.3137 10.3653 18.372 10.654C18.5739 11.6545 18.5631 12.6938 18.4643 13.7054C18.4492 13.8598 18.3864 14.0793 18.3251 14.294C18.255 14.539 18.1868 14.7776 18.1932 14.9059L18.2466 14.9346L18.3646 14.8717C19.0403 13.6481 19.0199 12.0438 18.6893 10.7108ZM18.7039 9.75144C20.2488 9.7877 20.4063 11.2995 20.4167 12.5259L19.3102 12.5364C19.3034 11.3967 19.2165 10.7693 18.7039 9.75144ZM13.4369 10.9196C13.2864 10.2841 13.0616 9.76396 12.3437 9.75373L12.3537 9.78589C12.4597 10.1206 12.5927 10.3852 12.7022 10.7607C12.9611 11.6481 12.989 12.5936 12.8258 13.5012C12.8086 13.5972 12.7469 13.7834 12.6823 13.9787C12.5946 14.2438 12.5014 14.5256 12.5061 14.6209C12.6565 14.6938 12.9114 14.6679 13.0547 14.5883C13.6824 13.5386 13.7121 12.0817 13.4369 10.9196ZM14.2055 10.1839C13.981 10.1864 13.8096 10.1883 13.7216 10.1885C13.7462 10.334 13.7463 10.4561 13.8422 10.5608C14.1373 10.5902 14.6328 10.5814 15.0293 10.5743C15.1464 10.5722 15.2548 10.5703 15.3469 10.5695L17.8092 10.5488C17.8036 10.4531 17.8013 10.2987 17.711 10.2395C17.5683 10.146 15.2801 10.1718 14.2055 10.1839ZM4.96734 14.5636C6.29122 15.6451 6.69002 10.4078 5.14658 10.3822C4.77891 10.6064 4.68211 10.815 4.47723 11.189C5.20605 11.0625 5.37692 11.4052 5.43667 12.0966C5.48861 12.685 5.42851 13.278 5.25954 13.844C5.23397 13.8439 5.2085 13.8432 5.18323 13.8426C5.05824 13.8395 4.93827 13.8364 4.83643 13.9037C4.70597 14.1332 4.83114 14.3393 4.96294 14.5564L4.96734 14.5636ZM6.19528 10.4965C7.07893 10.6607 7.12168 11.9317 7.14286 12.652L6.593 12.6469C6.54424 11.692 6.47634 11.386 6.19528 10.4965ZM16.5933 11.0583L13.9374 11.064C13.9383 11.087 13.9386 11.1105 13.9388 11.1342C13.9402 11.2464 13.9417 11.3626 14.0034 11.4454C14.3482 11.4746 14.8413 11.469 15.2587 11.4643C15.3761 11.4629 15.4876 11.4617 15.588 11.4613C15.8734 11.4601 16.1615 11.4607 16.4504 11.4612C16.9674 11.4622 17.4867 11.4632 17.9963 11.4545C17.9819 11.3141 17.9886 11.1926 17.9054 11.0854C17.7065 11.0449 17.176 11.0515 16.818 11.0561C16.7303 11.0572 16.6529 11.0581 16.5933 11.0583ZM11.4191 11.2293C11.5175 11.2262 11.616 11.2249 11.7144 11.2253C12.3057 11.2307 12.2499 11.9776 12.2158 12.4356C12.213 12.4728 12.2103 12.508 12.2082 12.5408C11.983 12.5596 11.7558 12.5579 11.5296 12.5605C11.5094 12.08 11.4751 11.7075 11.4191 11.2293ZM16.6597 11.9743L14.0539 11.9791C14.0537 12.0042 14.0529 12.0289 14.0521 12.0531C14.0484 12.1621 14.0449 12.2618 14.1057 12.3496C14.3584 12.3912 15.1238 12.3784 15.4864 12.3723L15.4864 12.3723C15.5094 12.3719 15.5308 12.3716 15.5503 12.3713C15.9045 12.3655 16.269 12.3679 16.6341 12.3704L16.6341 12.3704L16.6343 12.3704L16.6343 12.3704C17.1027 12.3735 17.5723 12.3766 18.023 12.3625C18.0242 12.3376 18.0261 12.3135 18.0279 12.2901C18.0363 12.1824 18.0435 12.0903 17.98 12.0021C17.7798 11.9623 17.2318 11.9684 16.8733 11.9724C16.7894 11.9734 16.7159 11.9742 16.6597 11.9743ZM16.048 12.8866L16.0479 12.8866L16.0478 12.8866L16.0478 12.8866L16.0477 12.8866L16.0477 12.8866L16.0476 12.8866C15.3769 12.8899 14.7061 12.8933 14.0363 12.8763C14.0336 12.8997 14.0303 12.9226 14.027 12.9448C14.0123 13.0462 13.9992 13.1362 14.0501 13.2239C14.2721 13.2661 14.8191 13.2602 15.193 13.2561C15.2814 13.2551 15.3602 13.2542 15.4226 13.2542L18.026 13.2494C18.0249 13.203 18.026 13.1668 18.0269 13.1364L18.0269 13.1364C18.0295 13.0464 18.0307 13.0079 17.97 12.9077C17.7915 12.8826 17.6142 12.8837 17.4354 12.8848L17.4354 12.8848L17.4352 12.8848L17.4351 12.8848C17.3831 12.8851 17.331 12.8854 17.2787 12.8851C16.8687 12.8824 16.4584 12.8845 16.048 12.8866L16.048 12.8866ZM15.2119 13.8435L15.2118 13.8435L15.2118 13.8435L15.2118 13.8435L15.2118 13.8435L15.2117 13.8435C14.7633 13.8383 14.314 13.8331 13.8952 13.8495C13.9091 13.94 13.9071 13.9705 13.9169 13.9966C13.9255 14.0198 13.9434 14.0395 13.9898 14.0947C14.333 14.2217 17.2995 14.1907 17.8639 14.1664C17.8703 14.1275 17.8769 14.0974 17.8824 14.072C17.8988 13.9967 17.9061 13.9634 17.8713 13.8702C17.6455 13.828 16.6079 13.8372 16.3162 13.844C15.9611 13.8523 15.5869 13.8479 15.2121 13.8435L15.212 13.8435L15.212 13.8435L15.2119 13.8435ZM15.7342 15.0497C15.9793 15.0427 16.2376 15.0458 16.4904 15.0489C16.5796 15.05 16.6681 15.0511 16.7551 15.0517L16.7555 16.3099C16.4967 16.2997 16.2215 16.3035 15.9545 16.3072C15.879 16.3082 15.8041 16.3092 15.7304 16.3099C15.7216 15.8896 15.7229 15.4697 15.7342 15.0497ZM9.16712 16.5233C9.09634 16.5187 9.02805 16.5142 8.96477 16.5106C8.89798 16.4441 8.89989 16.4449 8.81725 16.3999L8.72411 16.4728L8.68901 16.4449C8.8001 16.2204 9.331 15.4454 9.50188 15.2611C9.6234 15.2842 9.64629 15.2966 9.75842 15.3407C9.85858 15.5019 9.84603 15.946 9.83648 16.2837C9.83358 16.3863 9.83096 16.4791 9.83186 16.5512C9.63775 16.5542 9.39005 16.538 9.16712 16.5233ZM13.1239 16.6659C13.0753 16.6671 13.0292 16.6682 12.9864 16.6698C12.9364 16.6695 12.8693 16.67 12.7893 16.6706C12.1715 16.6753 10.7841 16.6857 10.5397 16.3876C10.5387 16.3736 10.5371 16.3562 10.5354 16.3367C10.5258 16.2291 10.5103 16.0555 10.5504 16.0067C10.7304 15.7869 11.6526 15.7993 11.9745 15.7754C12.7577 15.7348 13.7 15.7818 14.4768 15.8761C14.4454 16.0441 14.4256 16.2343 14.3136 16.3665C14.0796 16.642 13.5201 16.656 13.1239 16.6659ZM5.45676 15.8454C5.67926 15.9163 5.94225 16.1555 6.1911 16.2753C6.31179 16.3334 6.68288 16.4759 6.72913 16.5368C6.42865 16.6017 6.16395 16.4811 5.92099 16.3235C5.83155 16.2662 5.74354 16.2061 5.65701 16.1444C5.58958 16.0452 5.52283 15.9457 5.45676 15.8454ZM11.7947 17.1028C11.5713 16.9969 8.72578 17.0315 8.27556 17.0526L8.19447 17.1935L8.22059 17.2552C8.48645 17.2849 8.89016 17.2805 9.22487 17.2768L9.22493 17.2768C9.3215 17.2758 9.41233 17.2748 9.49244 17.2747C10.2521 17.2755 11.0118 17.2723 11.7715 17.2644L11.8187 17.1907L11.7947 17.1028ZM16.7753 17.0447C16.732 17.0473 16.6926 17.0496 16.6591 17.0509C16.52 17.055 16.2863 17.0532 16.0129 17.0511L16.0128 17.0511C15.2742 17.0453 14.246 17.0374 14.0086 17.1373L13.9839 17.1922C14.1072 17.3003 14.5155 17.2842 14.7668 17.2743C14.8125 17.2725 14.853 17.2709 14.8857 17.2702C15.5284 17.273 16.171 17.2758 16.8137 17.2806C16.8381 17.2808 16.8666 17.2815 16.898 17.2823C17.0891 17.2872 17.3844 17.2947 17.4881 17.1938L17.4877 17.1118C17.3561 17.01 17.0093 17.0307 16.7753 17.0447Z" fill="rgb(67,69,75)" fill-rule="evenodd" />
		<path id="Вектор 157" d="M2.11371 10.6573C2.18619 10.6581 2.1883 10.664 2.25991 10.6816C2.39011 10.8857 2.34629 11.3521 2.33956 11.6091C2.85633 11.6168 3.3302 11.5907 3.86011 11.6132C3.85179 12.0381 3.85183 12.4631 3.86023 12.888C3.48444 12.9196 2.75662 12.9038 2.35417 12.9086C2.35492 13.1476 2.37928 13.4528 2.27758 13.659C2.15467 13.7175 2.22035 13.7096 2.07188 13.6582C1.38999 13.2078 0.707874 12.636 0 12.1677C0.75345 11.6615 1.28662 11.1284 2.11371 10.6573Z" fill="rgb(67,69,75)" fill-rule="nonzero" />
		<path id="Слияние" d="M23.3701 10.8939C23.0426 10.9755 21.6263 12.0895 21.335 12.3469C21.8459 12.7812 22.3668 13.2036 22.8973 13.6139L22.8974 13.614L22.8974 13.614C23.0248 13.7123 23.195 13.8727 23.3436 13.8898C23.4376 13.8188 23.4412 13.7739 23.4492 13.6716C23.4507 13.653 23.4523 13.6325 23.4547 13.6096L23.4546 13.6096L23.4546 13.6095L23.4874 13.1612C23.5515 13.0891 24.1849 13.0838 24.6108 13.0802C24.7634 13.079 24.8893 13.0779 24.9529 13.0741C24.9836 12.5629 25.0037 12.1348 25 11.6236C24.9072 11.621 24.7773 11.6232 24.6315 11.6257C24.2222 11.6325 23.6877 11.6415 23.4969 11.5543C23.4499 11.4671 23.4534 11.3508 23.4569 11.2379C23.4612 11.0967 23.4653 10.9609 23.3701 10.8939Z" fill="rgb(67,69,75)" fill-rule="evenodd" />
	</g>
</svg>
