<svg viewBox="0 0 25 25" xmlns="http://www.w3.org/2000/svg" xmlns:xlink="http://www.w3.org/1999/xlink" width="25.000000" height="25.000000" fill="none" customFrame="url(#clipPath_1)">
	<defs>
		<clipPath id="clipPath_1">
			<rect width="25.000000" height="25.000000" x="0.000000" y="0.000000" rx="3.000000" fill="rgb(255,255,255)" />
		</clipPath>
	</defs>
	<rect id="Frame 32" width="25.000000" height="25.000000" x="0.000000" y="0.000000" rx="3.000000" />
	<g id="Группа 2">
		<path id="Убрать верхний слой" d="M19.3062 2.66499C18.9621 2.55746 18.4278 2.4804 18.0675 2.49564C17.6155 2.54768 17.3525 2.58988 16.936 2.75751C14.4513 3.75685 13.9737 7.10684 16.0514 8.78116C16.4451 9.09841 16.752 9.20261 17.1946 9.40743C17.1516 9.73716 17.1634 10.0632 17.1754 10.3918C17.183 10.6027 17.1907 10.8147 17.184 11.0294C17.0833 11.0302 16.9498 11.0291 16.7966 11.0278C16.1209 11.0224 15.0624 11.0139 14.7487 11.147C14.6309 11.302 14.6231 11.6054 14.6025 11.8134C15.7875 11.7797 16.9776 11.7898 18.1674 11.7999C19.1018 11.8078 20.036 11.8158 20.9676 11.8025C21.2984 11.7978 21.6364 11.7987 21.9617 11.863C22.3492 11.9407 22.7078 12.1226 22.9992 12.3891C23.8571 13.1673 24.0561 14.6517 24.0934 15.7651C24.1395 17.1355 24.0439 18.6828 23.0564 19.7566C22.4731 20.3902 21.427 20.3793 20.5689 20.3704C20.4316 20.3689 20.2991 20.3676 20.1741 20.3689C20.0823 20.3698 20.0807 20.3692 20.0268 20.347C20.0138 20.3417 19.9978 20.3351 19.9768 20.327C19.9691 20.2011 19.9592 20.168 19.9647 20.1377C19.97 20.1082 19.9898 20.0814 20.0401 19.9748C20.2616 19.8084 20.5451 19.8086 20.8226 19.8089C20.8433 19.8089 20.8641 19.8089 20.8847 19.8089C22.5466 19.8049 23.0586 18.9541 23.2683 17.4309C23.2899 17.2645 23.3083 17.0976 23.3227 16.9304C23.1079 16.9309 22.8855 16.9328 22.6602 16.9348C22.1307 16.9396 21.5853 16.9444 21.0849 16.9294C21.085 16.8096 21.0871 16.6106 21.0899 16.3601C21.1035 15.1102 21.1311 12.5801 20.9842 12.2356C20.881 12.1766 20.7416 12.2015 20.5995 12.2269C20.5425 12.237 20.485 12.2473 20.4293 12.2522C20.2538 12.4398 20.2811 13.3078 20.2968 13.8072C20.3001 13.9121 20.3028 14.0007 20.3031 14.0633L20.3115 16.9262L3.29352 16.9269C3.29402 16.823 3.29612 16.6563 3.29875 16.4482C3.31204 15.3957 3.33869 13.286 3.23781 12.9058C2.29591 12.1318 2.45795 15.6225 2.50648 16.668C2.51238 16.7952 2.51661 16.8862 2.51696 16.9289C2.23163 16.9301 1.94634 16.9284 1.66106 16.9238C1.79567 18.0619 1.96758 19.458 3.32527 19.7069C3.41679 19.8195 3.40984 20.0756 3.40422 20.2824C3.40301 20.3267 3.40187 20.3688 3.40177 20.4067C2.69038 20.2695 2.06405 20.1518 1.65328 19.4867C0.747232 18.0195 0.686685 15.828 1.00332 14.1832C1.26531 12.8221 1.90526 11.8184 3.39204 11.8032C3.38148 12.4533 3.42735 13.0933 3.69718 13.6988C4.97719 13.7242 6.53308 13.7335 7.81921 13.7064C7.90383 13.5033 8.01014 13.267 8.07519 13.06L9.61524 13.0564L12.2829 13.0535C12.3623 13.0534 12.4557 13.0563 12.5574 13.0594C13.0307 13.074 13.6834 13.0941 13.9448 12.838C14.0859 12.3588 13.6424 12.31 13.2351 12.2653C13.0181 12.2414 12.8113 12.2186 12.7088 12.1324C12.6779 12.0354 12.664 12.01 12.6631 11.9842C12.6622 11.9576 12.6753 11.9304 12.6982 11.823C12.8201 11.7556 12.9389 11.7713 13.0542 11.7866C13.1967 11.8055 13.334 11.8237 13.4655 11.6835C13.7243 11.4073 13.714 11.0324 13.7041 10.6716C13.7014 10.5759 13.6988 10.4812 13.7012 10.3897L13.7331 10.3899C14.3166 10.3952 16.4943 10.4147 16.9138 10.3343C17.0956 10.1154 17.1195 9.85056 16.9193 9.6325C16.5822 9.55623 15.5687 9.5648 14.7271 9.57191C14.3086 9.57545 13.9326 9.57863 13.7035 9.57084C13.7014 9.48253 13.6998 9.39163 13.6982 9.29874C13.6811 8.30172 13.66 7.07598 12.9484 6.36581C12.7188 6.1354 12.4286 5.97461 12.1117 5.90205C11.7379 5.81765 7.97578 5.85073 7.37681 5.86358C7.31476 5.86519 7.25265 5.86719 7.1906 5.86952C7.14935 5.62305 7.16024 5.50741 6.99272 5.343C6.64361 5.14907 3.37609 5.2388 2.81815 5.30046C2.0583 5.38451 2.18348 7.40964 2.23521 8.24636C2.241 8.34007 2.24587 8.41887 2.24847 8.47837C2.25064 8.6664 2.59936 8.86739 2.75593 8.96731C2.90006 9.24127 2.75089 9.4369 2.61355 9.61701C2.41431 9.87831 2.23998 10.1069 3.02225 10.4947C3.12289 10.6516 3.12333 10.7102 3.0287 10.8874L2.41527 11.0416C-0.294149 11.7071 -0.247165 16.4118 0.292761 18.4838C0.721655 20.1297 1.60219 21.1942 3.40027 21.2818C3.39893 21.3381 3.39661 21.3936 3.39433 21.4484C3.38085 21.7718 3.36844 22.0695 3.56251 22.3373C4.10155 22.5932 5.54024 22.5103 6.14383 22.3981C6.49116 22.3335 6.57028 21.5898 6.65468 21.2857C8.66088 21.2648 10.6672 21.2593 12.6738 21.2691C13.083 21.2693 13.5069 21.2661 13.9357 21.2629C14.8823 21.2559 15.8532 21.2486 16.7448 21.2767C16.7434 21.3394 16.7404 21.4022 16.7375 21.4648C16.7221 21.79 16.7071 22.1056 16.9249 22.3404C17.4726 22.5945 18.9326 22.5273 19.5559 22.336C19.9121 22.2268 19.8824 21.7653 19.8601 21.4177C19.857 21.3693 19.854 21.3231 19.8522 21.2804C20.069 21.2802 20.2933 21.2777 20.5185 21.2752C20.8368 21.2716 21.1572 21.2681 21.4613 21.2709C25.7213 21.3106 25.7435 13.9807 23.5918 11.7138C23.1671 11.2661 22.352 11.115 21.7854 10.5866C21.1987 10.4616 20.4805 10.4765 19.8393 10.4899C19.7349 10.4921 19.6325 10.4942 19.5331 10.4957C19.5392 10.1368 19.5364 9.77784 19.5247 9.41905C19.8222 9.26771 20.138 9.1172 20.4043 8.91649C21.8049 7.86227 22.2413 6.03049 21.4396 4.46992C20.9959 3.60929 20.2286 2.96006 19.3062 2.66499ZM18.1681 3.1651C20.2603 3.251 22.0289 5.32208 20.7629 7.36903C20.6723 7.51493 20.3509 7.99736 20.2075 8.02466C20.1914 7.86965 20.188 7.77474 20.1385 7.62429C19.9216 7.57026 19.4497 7.57924 19.1228 7.58545C19.0552 7.58674 18.9937 7.58791 18.942 7.58838L16.0537 7.58482C14.5819 5.61876 15.9102 3.43882 18.1681 3.1651ZM3.04945 5.93989C3.9205 5.9092 4.84648 5.91582 5.74836 5.92228C6.05391 5.92446 6.35669 5.92663 6.65364 5.92732L6.67227 6.61301L6.67227 6.61303L6.67228 6.61301C6.66277 6.83541 6.65871 7.17729 6.62791 7.38824L6.62791 7.38823L6.6279 7.38831C6.68054 7.59693 6.66995 7.96861 6.66189 8.25143C6.66019 8.31089 6.65861 8.36642 6.65775 8.41568C6.39308 8.41554 6.1242 8.41648 5.85308 8.41743L5.85287 8.41743L5.85267 8.41743L5.85246 8.41744L5.85243 8.41744C4.9049 8.42076 3.9299 8.42418 3.01087 8.38204C3.01052 8.23149 3.00894 8.06784 3.00729 7.89683C3.00099 7.24598 2.99367 6.48842 3.04945 5.93989ZM7.62468 6.53523C9.05798 6.54329 10.4913 6.54279 11.9246 6.53367C12.06 6.81217 12.08 6.92548 12.1506 7.22294C11.0876 7.26805 9.83521 7.25327 8.67217 7.23955L8.67214 7.23955C8.3074 7.23525 7.95145 7.23105 7.61289 7.22883L7.62468 6.53523ZM7.53581 7.83202C8.48949 7.81068 9.49679 7.81827 10.4949 7.82578L10.4951 7.82579L10.4952 7.82579C11.0887 7.83026 11.679 7.8347 12.2529 7.83302L12.2734 8.39763C11.9346 8.46263 7.75315 8.45218 7.57229 8.38117C7.50521 8.23615 7.51628 8.09371 7.52849 7.93651C7.53114 7.90244 7.53384 7.86766 7.53581 7.83202ZM7.60666 9.14335L10.4672 9.13807C10.5629 9.13788 10.6743 9.13651 10.7944 9.13504C11.2488 9.12947 11.8294 9.12235 12.1667 9.17159C12.248 9.30273 12.2467 9.36475 12.244 9.48916L12.244 9.48918L12.244 9.48925L12.244 9.4893C12.2431 9.53159 12.242 9.58109 12.244 9.64297L9.2157 9.64914C9.13941 9.64928 9.0453 9.65046 8.94078 9.65177C8.51404 9.65713 7.9137 9.66467 7.64235 9.61255C7.5624 9.48906 7.57719 9.3758 7.59552 9.23542C7.59935 9.20603 7.60334 9.17546 7.60666 9.14335ZM4.07213 9.14635L5.56231 9.1468C5.5687 9.73771 5.56319 10.3288 5.54585 10.9195C5.05146 10.9236 4.55701 10.9186 4.06284 10.9042L4.07213 9.14635ZM17.8723 9.42012L18.7886 9.413C18.7858 9.974 18.7853 10.4955 18.7458 11.0567L17.8718 11.0759C17.8819 10.6989 17.8786 10.3003 17.8754 9.90919L17.8754 9.90905L17.8754 9.90885C17.874 9.74385 17.8726 9.5802 17.8723 9.42012ZM7.63444 10.3326L10.5519 10.3296C10.6265 10.3296 10.7185 10.3285 10.821 10.3274C11.2609 10.3224 11.8933 10.3153 12.1717 10.3727C12.2438 10.4995 12.2312 10.6315 12.2174 10.7776C12.2143 10.8094 12.2112 10.842 12.2089 10.8753L9.27112 10.8924C9.19446 10.8928 9.10283 10.8941 9.00213 10.8955C8.57142 10.9016 7.97514 10.91 7.67714 10.8575C7.61408 10.7364 7.62217 10.5823 7.62998 10.4336C7.63177 10.3995 7.63354 10.3657 7.63444 10.3326ZM4.24657 11.5442C4.31124 11.5437 4.42025 11.5419 4.5598 11.5396L4.55983 11.5396L4.55986 11.5396C5.35769 11.5263 7.15326 11.4964 7.36431 11.598C7.42507 11.7775 7.41417 11.8779 7.39631 12.0424C7.39285 12.0743 7.38912 12.1087 7.38561 12.1465L4.18997 12.1453L4.24657 11.5442ZM17.5749 17.7242C17.6943 17.721 17.8183 17.7116 17.9438 17.7021C18.3143 17.674 18.6964 17.645 19.0038 17.7731C19.0913 17.9103 19.0888 17.9309 19.0749 18.0469C19.0702 18.0856 19.0642 18.1349 19.0599 18.2026C18.9274 18.2003 18.7803 18.2094 18.6296 18.2189L18.6296 18.2189L18.6295 18.2189L18.6294 18.2189C18.2586 18.2421 17.8652 18.2666 17.6099 18.1242C17.5397 17.9775 17.5413 17.967 17.5571 17.8626C17.5622 17.8289 17.5688 17.7853 17.5749 17.7242ZM4.668 17.8017L4.66803 17.8017C5.07992 17.7829 5.50826 17.7633 5.84958 17.8631C5.94732 17.9661 5.94631 17.9821 5.93927 18.0929C5.9369 18.1302 5.93384 18.1783 5.93365 18.244C5.91281 18.2448 5.89071 18.2456 5.86748 18.2464C5.43222 18.2618 4.60015 18.2912 4.23969 18.2414C4.17184 18.1354 4.17447 18.0613 4.17855 17.9461C4.1799 17.9081 4.18141 17.8657 4.18059 17.8162C4.3357 17.8169 4.50049 17.8094 4.668 17.8017ZM17.5398 18.8233L19.066 18.8235C19.0601 19.5017 19.0637 20.186 19.0673 20.8682C19.0688 21.1482 19.0702 21.4278 19.071 21.7065L17.5398 21.7087C17.5157 21.0678 17.5242 20.3417 17.5323 19.647L17.5323 19.647C17.5356 19.3646 17.5389 19.0874 17.5398 18.8233ZM4.18232 18.8281L5.74623 18.8292L5.73527 21.7078L4.187 21.7073C4.17293 21.0659 4.17625 20.3964 4.17953 19.7358L4.17953 19.7357L4.17953 19.7356C4.18105 19.43 4.18255 19.1263 4.18232 18.8281ZM6.62413 19.6548C9.05462 19.6055 11.6027 19.6229 14.1048 19.6399C15.0402 19.6463 15.9692 19.6526 16.8832 19.6554L16.8904 20.3463C15.5466 20.317 14.1841 20.3266 12.8228 20.3362C11.6856 20.3442 10.5492 20.3522 9.42507 20.3375C9.3021 20.3359 9.07067 20.3376 8.79165 20.3397L8.79156 20.3397C8.02723 20.3453 6.90599 20.3536 6.67873 20.3039C6.61444 20.1592 6.61873 19.9507 6.62248 19.7689C6.62329 19.7293 6.62408 19.691 6.62413 19.6548Z" fill="rgb(67,69,75)" fill-rule="evenodd" />
		<path id="Слияние" d="M16.7733 4.31181C16.6394 4.15452 16.5721 4.1454 16.3814 4.07068C16.2996 4.37837 16.4309 4.53838 16.7172 4.67471C16.7744 4.54469 16.8004 4.5156 16.8051 4.48339C16.8094 4.4543 16.7963 4.42267 16.7733 4.31181ZM19.6739 4.68151L19.5132 4.52005C18.7721 5.10746 18.0282 5.48053 17.5016 6.23891C17.6595 6.40988 17.8108 6.58468 17.9865 6.73602C18.3056 6.7829 19.069 6.20049 19.1791 5.89742C19.1414 5.71064 19.1155 5.62886 19.1332 5.55795C19.1513 5.48562 19.2146 5.4246 19.357 5.27498C19.3957 5.23429 19.4325 5.19894 19.4665 5.16632C19.6139 5.02471 19.7078 4.93448 19.6739 4.68151Z" fill="rgb(67,69,75)" fill-rule="evenodd" />
	</g>
</svg>
