<svg viewBox="0 0 32 25.6162" xmlns="http://www.w3.org/2000/svg" xmlns:xlink="http://www.w3.org/1999/xlink" width="32.000000" height="25.616211" fill="none" customFrame="#000000">
	<g id="Группа 2">
		<path id="Убрать верхний слой" d="M24.712 0.21924C24.2715 0.0816004 23.5875 -0.0170396 23.1264 0.00246042C22.5478 0.0690804 22.2112 0.12308 21.6781 0.33766C18.4976 1.61682 17.8863 5.9048 20.5458 8.04794C21.0497 8.45402 21.4426 8.58738 22.009 8.84956C21.954 9.27161 21.9692 9.6889 21.9845 10.1095C21.9943 10.3795 22.0041 10.6508 21.9955 10.9257C21.8666 10.9266 21.6957 10.9253 21.4996 10.9237C20.6347 10.9167 19.2799 10.9059 18.8784 11.0762C18.7275 11.2746 18.7176 11.663 18.6912 11.9292C20.208 11.886 21.7313 11.899 23.2544 11.9119C24.4503 11.9221 25.6461 11.9322 26.8385 11.9152C27.2619 11.9092 27.6946 11.9103 28.1109 11.9927C28.607 12.0921 29.066 12.325 29.4389 12.6661C30.537 13.6622 30.7918 15.5623 30.8395 16.9873C30.8986 18.7415 30.7762 20.7221 29.5122 22.0964C28.7656 22.9075 27.4265 22.8935 26.3281 22.8821C26.1524 22.8803 25.9829 22.8785 25.8229 22.8802C25.7053 22.8814 25.7033 22.8806 25.6343 22.8522C25.6177 22.8454 25.5972 22.8369 25.5703 22.8266C25.5605 22.6655 25.5478 22.6231 25.5548 22.5843C25.5616 22.5466 25.5869 22.5122 25.6514 22.3758C25.9348 22.1628 26.2977 22.1631 26.653 22.1634C26.6795 22.1635 26.706 22.1635 26.7324 22.1634C28.8596 22.1584 29.5151 21.0693 29.7834 19.1196C29.8111 18.9067 29.8346 18.693 29.8531 18.479C29.5781 18.4795 29.2933 18.4821 29.005 18.4846C28.3272 18.4907 27.6292 18.4969 26.9886 18.4777C26.9888 18.3243 26.9915 18.0693 26.995 17.7485C27.0125 16.1485 27.0477 12.9105 26.8598 12.4696C26.7277 12.3941 26.5492 12.426 26.3673 12.4585C26.2943 12.4715 26.2208 12.4846 26.1496 12.4909C25.9249 12.7309 25.9598 13.842 25.9799 14.4813C25.9841 14.6155 25.9877 14.7289 25.988 14.8091L25.9987 18.4735L4.2157 18.4745C4.21634 18.3416 4.21903 18.1284 4.22239 17.8624C4.23941 16.5154 4.27354 13.8142 4.1444 13.3275C2.93875 12.3367 3.14618 16.8049 3.20831 18.1432C3.21586 18.3059 3.22127 18.4224 3.22172 18.4771C2.85648 18.4786 2.49132 18.4764 2.12616 18.4705C2.29846 19.9273 2.5185 21.7143 4.25634 22.0328C4.3735 22.177 4.3646 22.5047 4.35741 22.7695C4.35587 22.8262 4.35441 22.8801 4.35428 22.9287C3.44368 22.753 2.64198 22.6024 2.1162 21.751C0.956464 19.873 0.878964 17.0679 1.28426 14.9625C1.6196 13.2204 2.43874 11.9356 4.34182 11.9161C4.3283 12.7483 4.387 13.5675 4.73238 14.3425C6.3708 14.3751 8.36234 14.3869 10.0086 14.3523C10.1169 14.0923 10.253 13.7899 10.3362 13.5249L12.3075 13.5203L15.7221 13.5166C15.8238 13.5164 15.9434 13.5201 16.0735 13.5241C16.6793 13.5428 17.5148 13.5685 17.8493 13.2407C18.0299 12.6273 17.4623 12.5649 16.941 12.5076C16.6631 12.477 16.3984 12.4479 16.2673 12.3375C16.2277 12.2134 16.2099 12.1809 16.2088 12.1479C16.2076 12.1137 16.2244 12.079 16.2537 11.9415C16.4097 11.8552 16.5617 11.8753 16.7094 11.8949C16.8918 11.9191 17.0675 11.9424 17.2359 11.7629C17.5672 11.4094 17.5539 10.9295 17.5412 10.4677C17.5378 10.3453 17.5345 10.224 17.5376 10.1068L17.5776 10.1072C18.3234 10.1138 21.1125 10.1389 21.6497 10.036C21.8824 9.75574 21.913 9.41676 21.6568 9.13764C21.2252 9.04001 19.928 9.05099 18.8509 9.0601C18.3151 9.06463 17.8338 9.0687 17.5405 9.05872C17.5378 8.94569 17.5358 8.82934 17.5337 8.71046C17.5118 7.43426 17.4848 5.8653 16.574 4.95628C16.2801 4.66136 15.9086 4.45554 15.5029 4.36268C15.0245 4.25464 10.209 4.29698 9.44232 4.31342C9.3629 4.31548 9.2834 4.31806 9.20398 4.32104C9.15117 4.00556 9.16512 3.85752 8.95068 3.64708C8.50382 3.39886 4.3214 3.51372 3.60722 3.59264C2.63464 3.70023 2.79486 6.29229 2.86106 7.36333C2.86848 7.4833 2.87471 7.58419 2.87804 7.66036C2.88082 7.90104 3.32718 8.15832 3.5276 8.2862C3.71209 8.63688 3.52115 8.88729 3.34535 9.11783C3.09032 9.45228 2.86718 9.74493 3.86848 10.2412C3.9973 10.4421 3.99786 10.5171 3.87674 10.744L3.09154 10.9413C-0.376516 11.7932 -0.316376 17.8152 0.374744 20.4673C0.923724 22.5741 2.0508 23.9366 4.35234 24.0488C4.35062 24.1208 4.34766 24.1919 4.34474 24.262C4.32749 24.6759 4.31162 25.057 4.56002 25.3998C5.24998 25.7274 7.09152 25.6212 7.8641 25.4776C8.30868 25.395 8.40996 24.443 8.518 24.0537C11.0859 24.027 13.6541 24.02 16.2224 24.0325C16.7463 24.0327 17.2889 24.0287 17.8379 24.0246C19.0495 24.0156 20.2921 24.0063 21.4333 24.0422C21.4316 24.1224 21.4278 24.2029 21.424 24.2829C21.4043 24.6992 21.3851 25.1032 21.6639 25.4037C22.3649 25.729 24.2337 25.6429 25.0315 25.3981C25.4875 25.2583 25.4495 24.6676 25.4209 24.2227C25.4169 24.1608 25.4131 24.1016 25.4108 24.0469C25.6883 24.0467 25.9753 24.0435 26.2635 24.0403C26.671 24.0358 27.0811 24.0312 27.4704 24.0348C32.9233 24.0856 32.9517 14.7034 30.1976 11.8017C29.6538 11.2286 28.6105 11.0352 27.8853 10.359C27.1344 10.1989 26.215 10.218 25.3943 10.2351C25.2606 10.2379 25.1296 10.2406 25.0023 10.2425C25.0102 9.78314 25.0066 9.32368 24.9917 8.86444C25.3724 8.67072 25.7766 8.47806 26.1175 8.22116C27.9102 6.87176 28.4689 4.52706 27.4427 2.52954C26.8748 1.42794 25.8927 0.59692 24.712 0.21924ZM23.2552 0.85938C25.9332 0.96934 28.197 3.62032 26.5766 6.24042C26.4606 6.42716 26.0492 7.04468 25.8656 7.07962C25.845 6.8812 25.8407 6.75972 25.7774 6.56714C25.4996 6.49796 24.8954 6.50946 24.4771 6.51744C24.3905 6.51908 24.3119 6.52058 24.2458 6.52118L20.5487 6.51662C18.6649 4.00006 20.3651 1.20974 23.2552 0.85938ZM3.9033 4.4111C5.01816 4.37182 6.2033 4.3803 7.35762 4.38856C7.74882 4.39136 8.13648 4.39414 8.51666 4.39502L8.5405 5.27272L8.5405 5.27276L8.54054 5.27272C8.52836 5.55738 8.52316 5.99498 8.48374 6.265L8.48372 6.26508C8.55106 6.53188 8.53754 7.00714 8.52724 7.36902L8.52724 7.36968C8.52506 7.44586 8.52304 7.51702 8.52194 7.58012C8.18536 7.57994 7.84348 7.58114 7.49874 7.58236L7.49122 7.58238C6.27834 7.58664 5.03032 7.59102 3.85392 7.53706C3.85348 7.34436 3.85144 7.13492 3.84934 6.91604C3.84128 6.08294 3.8319 5.11324 3.9033 4.4111ZM9.7596 5.17314C11.5942 5.18346 13.4288 5.18282 15.2635 5.17114C15.4368 5.52762 15.4624 5.67266 15.5528 6.0534C14.1923 6.11114 12.5896 6.09224 11.1011 6.07468L11.1004 6.07468C10.6335 6.06918 10.1779 6.0638 9.74452 6.06096L9.7596 5.17314ZM13.4324 6.82506L13.4336 6.82506C14.1935 6.83078 14.9491 6.83646 15.6837 6.83432L15.71 7.55702C15.2763 7.64022 9.92404 7.62684 9.69254 7.53596C9.60668 7.35034 9.62084 7.16802 9.63648 6.96682C9.63988 6.9232 9.64334 6.87868 9.64586 6.83304C10.8648 6.80574 12.1521 6.81542 13.4279 6.82502L13.4312 6.82504L13.4324 6.82506ZM9.73652 8.51154L13.398 8.50478C13.5205 8.50454 13.663 8.5028 13.8169 8.5009L13.818 8.5009L13.8183 8.5009C14.3997 8.49378 15.1419 8.48469 15.5734 8.5477C15.6775 8.71554 15.6758 8.79492 15.6723 8.9541L15.6723 8.9545L15.6723 8.9546C15.6711 9.00868 15.6698 9.07196 15.6723 9.15104L11.7961 9.15894C11.6985 9.15912 11.5782 9.16064 11.4445 9.16232L11.4439 9.16232C10.8977 9.16918 10.1295 9.17882 9.78222 9.11212C9.67988 8.95404 9.6988 8.80908 9.72226 8.62938C9.72718 8.59176 9.73228 8.55264 9.73652 8.51154ZM5.21234 8.51538L7.11976 8.51596C7.12794 9.27232 7.1209 10.0289 7.0987 10.785C6.46588 10.7903 5.83298 10.7838 5.20044 10.7655L5.21234 8.51538ZM22.8766 8.8658L24.0494 8.8567C24.0458 9.57478 24.0451 10.2423 23.9946 10.9607L22.8759 10.9852C22.8889 10.5024 22.8846 9.99172 22.8805 9.49084C22.8787 9.27982 22.877 9.07054 22.8766 8.8658ZM9.7721 10.0338L13.5064 10.03C13.602 10.0299 13.7197 10.0286 13.8509 10.0271L13.8518 10.0271L13.8528 10.0271L13.8529 10.0271C14.4158 10.0208 15.2239 10.0118 15.5798 10.0851C15.6721 10.2474 15.656 10.4164 15.6382 10.6033L15.6382 10.6034C15.6344 10.6442 15.6304 10.6858 15.6275 10.7284L11.867 10.7503C11.7689 10.7508 11.6516 10.7524 11.5227 10.7543L11.522 10.7543C10.9708 10.762 10.208 10.7728 9.82676 10.7056C9.74602 10.5507 9.75636 10.3535 9.76636 10.1631L9.76638 10.1631L9.76638 10.163C9.76868 10.1194 9.77094 10.0761 9.7721 10.0338ZM5.43562 11.5846C5.51834 11.584 5.65776 11.5817 5.83622 11.5787C6.85724 11.5617 9.15614 11.5235 9.42632 11.6535C9.5041 11.8832 9.49014 12.0118 9.46728 12.2224C9.46284 12.2632 9.45808 12.3072 9.45358 12.3555L5.36316 12.354L5.43562 11.5846ZM22.4958 19.495C22.6486 19.4909 22.8075 19.4789 22.968 19.4667L22.9682 19.4667C23.4423 19.4308 23.9314 19.3937 24.3248 19.5576C24.4369 19.7333 24.4337 19.7596 24.4158 19.9081C24.4098 19.9576 24.4022 20.0207 24.3967 20.1074C24.227 20.1044 24.0387 20.1161 23.8457 20.1282C23.371 20.1579 22.8675 20.1893 22.5407 20.007C22.4509 19.8192 22.4529 19.8058 22.4731 19.6722C22.4796 19.629 22.488 19.5733 22.4958 19.495ZM5.97398 19.5943L5.97512 19.5942C6.50232 19.5702 7.05058 19.5451 7.48748 19.6728C7.61258 19.8046 7.61128 19.8251 7.60228 19.9669C7.59924 20.0147 7.59532 20.0762 7.59508 20.1604C7.56838 20.1614 7.54006 20.1624 7.5103 20.1634L7.50982 20.1634L7.50968 20.1634L7.50938 20.1635C6.95198 20.1831 5.8879 20.2207 5.42682 20.1571C5.33996 20.0214 5.34332 19.9265 5.34854 19.7791C5.35028 19.7305 5.3522 19.6762 5.35116 19.6128C5.54936 19.6137 5.75994 19.6041 5.97398 19.5943ZM22.451 20.9019L24.4045 20.9021C24.397 21.7697 24.4016 22.6451 24.4061 23.5178C24.408 23.8767 24.4099 24.2351 24.4109 24.5923L22.451 24.5952C22.4201 23.775 22.431 22.8458 22.4414 21.9567C22.4456 21.5951 22.4498 21.2401 22.451 20.9019ZM5.35338 20.908L7.35518 20.9095L7.34116 24.5941L5.35936 24.5934C5.34138 23.7732 5.3456 22.9172 5.34978 22.0724L5.3498 22.0695L5.34982 22.0632C5.35176 21.6742 5.35368 21.2876 5.35338 20.908ZM8.4789 21.9662C11.59 21.9031 14.8517 21.9253 18.0544 21.9471C19.2517 21.9553 20.4407 21.9634 21.6105 21.967L21.6197 22.8513C19.9011 22.8138 18.1586 22.8261 16.4175 22.8383L16.4166 22.8383L16.4128 22.8383C14.9573 22.8486 13.5028 22.8588 12.0641 22.84C11.9067 22.838 11.6104 22.8402 11.2532 22.8428C10.2749 22.8501 8.83968 22.8607 8.54878 22.797C8.46648 22.6118 8.47198 22.345 8.47678 22.1122C8.47782 22.0615 8.47884 22.0125 8.4789 21.9662Z" fill="rgb(254,254,254)" fill-rule="evenodd" />
		<path id="Слияние" d="M21.4696 2.32721C21.2981 2.12587 21.212 2.11419 20.9679 2.01855C20.8633 2.41239 21.0313 2.61721 21.3978 2.79171C21.471 2.62529 21.5043 2.58803 21.5103 2.54681C21.5157 2.50957 21.499 2.46909 21.4696 2.32721ZM25.1824 2.80041L24.9767 2.59375C24.028 3.34563 23.0758 3.82317 22.4019 4.79389C22.604 5.01273 22.7976 5.23647 23.0224 5.43019C23.4309 5.49019 24.4081 4.74471 24.549 4.35677C24.5007 4.11771 24.4676 4.01303 24.4903 3.92227C24.5134 3.82967 24.5945 3.75157 24.7767 3.56005C24.8263 3.50797 24.8734 3.46273 24.9168 3.42097C25.1055 3.23971 25.2258 3.12423 25.1824 2.80041Z" fill="rgb(255,255,255)" fill-rule="evenodd" />
	</g>
</svg>
