<svg viewBox="0 0 25 25" xmlns="http://www.w3.org/2000/svg" xmlns:xlink="http://www.w3.org/1999/xlink" width="25.000000" height="25.000000" fill="none" customFrame="url(#clipPath_6)">
	<defs>
		<clipPath id="clipPath_6">
			<rect width="25.000000" height="25.000000" x="0.000000" y="0.000000" rx="3.000000" fill="rgb(255,255,255)" />
		</clipPath>
	</defs>
	<rect id="Frame 32" width="25.000000" height="25.000000" x="0.000000" y="0.000000" rx="3.000000" />
	<g id="Группа 7">
		<path id="Вектор 1" d="M0.443109 0.763447C5.72739 0.678099 11.1009 0.801727 16.4038 0.760942C18.3124 0.745873 20.8937 0.676843 22.7787 0.848795C23.2199 0.922851 24.7489 2.04242 24.8372 2.42586C25.0687 3.43185 24.9829 5.22104 24.9865 6.25088L24.991 12.4173C24.9877 15.5802 25.0187 18.7438 24.9816 21.9067C24.9697 22.9158 24.9016 22.9127 24.0355 23.2754L24.0068 24.1409C23.7291 24.3235 20.0814 24.2544 19.5457 24.2551L11.3538 24.2519L5.4185 24.2551C4.18509 24.2551 2.78016 24.277 1.55773 24.2068L1.52089 22.6868L0.816886 22.4797C0.711331 20.9704 0.794294 18.2775 0.795235 16.7023L0.812494 3.84918C0.806281 3.09987 0.573015 3.62201 0.109559 3.16075C-0.0247402 2.64803 -0.0218541 1.78261 0.044794 1.24479C0.0769881 0.985607 0.239213 0.895862 0.443109 0.763447ZM2.8121 22.4941C2.79384 22.6535 2.77407 22.7652 2.78895 22.9278C3.0379 23.042 20.8027 22.9717 22.3117 22.9679L22.3384 22.5814C22.2194 22.4558 22.1806 22.4728 21.943 22.4728C18.4316 22.4747 14.9114 22.4791 11.4004 22.4759L5.91434 22.4747C4.95204 22.4753 3.75577 22.4458 2.8121 22.4941ZM1.56764 1.89746C1.55804 2.13656 1.50727 2.30224 1.61891 2.4723C1.91839 2.54448 3.15243 2.51561 3.56775 2.51561L7.68828 2.51435L17.0507 2.51373C18.7691 2.51435 20.6726 2.55263 22.3798 2.49678C22.3776 2.20183 22.4271 2.13781 22.2991 1.92444C22.0035 1.8347 19.6741 1.87675 19.2318 1.87737L12.9253 1.87926L5.57439 1.87549C4.34731 1.87487 2.77608 1.83345 1.56764 1.89746ZM22.3196 21.5798L22.3213 9.32029L22.3162 5.72811C22.3156 5.02273 22.2915 4.08012 22.3659 3.39483C19.6135 3.42369 16.8609 3.42369 14.1085 3.39483L14.0967 9.523C14.1024 11.5005 14.1789 14.0289 14.0909 15.9568C14.1313 16.3289 14.1073 17.4416 14.1073 17.847L14.1037 21.5835C16.8165 21.6099 19.6067 21.603 22.3196 21.5798ZM1.80957 3.39733L1.8031 21.5829L9.73822 21.5835C10.3222 21.5848 12.7758 21.6362 13.2178 21.5678C13.2215 15.5934 13.1251 9.36861 13.229 3.41805C9.51964 3.38353 5.46871 3.50904 1.80957 3.39733Z" fill="rgb(67,69,75)" fill-rule="nonzero" />
		<path id="Вектор 2" d="M4.26746 10.0439C5.1606 9.98557 5.38935 10.2943 5.95698 10.9049C7.89189 11.075 6.62503 9.33478 9.51371 10.9997C9.96235 10.3307 10.0687 10.2008 10.8359 10C11.3404 10.1167 11.8041 10.3665 12.1785 10.7242C12.3741 10.9106 12.4601 11.028 12.4663 11.2972C12.365 11.5287 12.4162 11.4497 12.173 11.6022C11.4687 12.0327 11.1098 11.9505 10.2872 11.9147C9.78852 11.5884 9.49921 11.4704 8.94294 11.7057C7.69402 12.2335 7.18312 11.7377 6.0835 11.6103C5.64885 11.5601 4.5958 12.1814 3.86129 11.8137C3.27879 11.5225 3.25086 11.2369 3.41453 10.6257C3.52115 10.3345 3.99233 10.1632 4.26746 10.0439Z" fill="rgb(67,69,75)" fill-rule="nonzero" />
		<path id="Вектор 3" d="M9.66564 5.0151C10.4333 5.01698 11.2011 5.01447 11.9688 5.00757C11.9596 5.54288 12.0576 8.60163 11.8878 8.84136C11.4414 8.92106 10.1033 8.98507 9.69237 8.81375C9.48597 8.38637 9.63853 5.62635 9.66564 5.0151Z" fill="rgb(67,69,75)" fill-rule="nonzero" />
		<path id="Вектор 4" d="M10.2984 5.71295L11.3245 5.69287L11.3369 7.2122L10.2956 7.21848C10.282 6.71957 10.2929 6.2125 10.2984 5.71295Z" fill="rgb(67,69,75)" fill-rule="nonzero" />
		<path id="Вектор 5" d="M6.57754 5.01897C7.32855 5.00767 8.07961 5.00767 8.83056 5.01897C8.80865 5.83794 8.91653 8.28733 8.76705 8.9105C8.05959 8.91866 7.19475 8.93811 6.50311 8.87222C6.49608 8.09717 6.43571 5.64591 6.57754 5.01897Z" fill="rgb(67,69,75)" fill-rule="nonzero" />
		<path id="Вектор 6" d="M7.20371 5.70679L8.19445 5.73001L8.19696 7.2142L7.2002 7.228L7.20371 5.70679Z" fill="rgb(67,69,75)" fill-rule="nonzero" />
		<path id="Вектор 7" d="M3.48646 5.02338C4.24864 5.01271 5.01088 5.01271 5.77306 5.02338C5.75184 5.76955 5.83519 8.36077 5.68727 8.8967C5.13614 8.90549 4.00232 8.98959 3.53152 8.82454C3.36302 8.48691 3.40444 5.39364 3.48646 5.02338Z" fill="rgb(67,69,75)" fill-rule="nonzero" />
		<path id="Вектор 8" d="M4.0966 5.65097C4.44709 5.64784 4.82589 5.66729 5.17839 5.67859L5.18599 7.21988L4.0752 7.2293C4.07501 6.70717 4.08888 6.17374 4.0966 5.65097Z" fill="rgb(67,69,75)" fill-rule="nonzero" />
		<path id="Вектор 9" d="M9.87668 12.6452C10.5018 12.6929 11.6052 12.3678 12.0719 12.8153C12.1543 13.0023 12.1161 13.0926 12.0803 13.2953C11.5565 13.3041 9.93278 13.478 9.71973 13.0424C9.75857 12.8196 9.75173 12.8335 9.87668 12.6452Z" fill="rgb(67,69,75)" fill-rule="nonzero" />
		<path id="Вектор 10" d="M3.63757 12.615C4.171 12.605 5.20322 12.5309 5.67415 12.723C5.76897 12.7619 5.75981 12.8184 5.80242 12.9357C5.73947 13.1428 5.7354 13.129 5.58597 13.2909C5.09177 13.3022 3.63927 13.4836 3.41504 13.0022C3.44635 12.7813 3.48213 12.7763 3.63757 12.615Z" fill="rgb(67,69,75)" fill-rule="nonzero" />
		<path id="Вектор 11" d="M7.34662 12.6243C7.77242 12.6105 8.73899 12.4938 9.00326 12.8616C8.95701 13.1364 8.98895 13.2218 8.71628 13.299C8.20004 13.299 7.21037 13.4414 6.8573 13.1465C6.77095 12.9136 6.78344 13.031 6.82549 12.7806C7.01771 12.6218 7.0516 12.667 7.34662 12.6243Z" fill="rgb(67,69,75)" fill-rule="nonzero" />
		<path id="Вектор 12" d="M17.6184 5.02334C18.4583 5.02272 19.2983 5.01268 20.1372 5.05159C19.5682 6.11468 18.8787 7.24994 18.2605 8.29171L20.4507 8.28355C19.85 9.18159 19.1775 10.4813 18.5838 11.4534C18.3378 11.8694 18.0461 12.3953 17.7465 12.775C17.6146 12.942 17.5091 12.9005 17.2998 12.9037C16.7726 12.5579 18.0008 10.5534 17.7787 9.93843C17.4109 9.72695 16.6989 9.78279 16.248 9.78342C16.738 8.30048 17.0779 6.59037 17.6184 5.02334Z" fill="rgb(67,69,75)" fill-rule="nonzero" />
		<path id="Вектор 13" d="M14.8888 12.8101C15.2108 12.8001 15.5179 12.8113 15.8392 12.8201C15.8874 13.683 15.8859 15.0731 15.8341 15.9228C15.5201 15.9467 15.2043 15.9316 14.889 15.9241C14.8117 15.1126 14.865 13.6492 14.8888 12.8101Z" fill="rgb(67,69,75)" fill-rule="nonzero" />
		<path id="Вектор 14" d="M14.0908 15.9567C14.0909 15.9574 14.0298 15.8275 14.0279 15.798C13.9033 13.8713 13.8408 11.897 13.9321 9.96601C13.9404 9.79091 14.0247 9.64595 14.0966 9.52295C14.1023 11.5004 14.1788 14.0289 14.0908 15.9567Z" fill="rgb(67,69,75)" fill-rule="nonzero" />
	</g>
</svg>
