<svg viewBox="0 0 34.1227 32" xmlns="http://www.w3.org/2000/svg" xmlns:xlink="http://www.w3.org/1999/xlink" width="34.122650" height="32.000000" fill="none" customFrame="#000000">
	<g id="Black">
		<path id="Vector" d="M1.70688 25.1348C1.40777 25.1212 1.10187 25.0907 1.0237 25.0703C0.717799 24.9887 0.34392 24.6488 0.170576 24.2919C0.0924018 24.1322 0.0720084 24.0336 0.0516151 23.7243C0.00742941 23.1091 -0.0197618 4.40837 0.0176261 2.19909C0.0516151 0.353485 0.055014 0.21413 0.116194 0.108765C0.153582 0.0509834 0.204565 0 0.228358 0C0.306532 0 0.459483 0.261715 0.918334 1.16922L1.3432 2.00535L1.36359 12.5419C1.38058 22.1574 1.39418 23.7277 1.45876 23.7923C1.58792 23.9248 13.049 23.9418 13.3923 23.8127C13.4433 23.7923 13.5044 23.7345 13.5248 23.6835C13.5554 23.6155 13.569 23.0683 13.5792 21.702L13.5894 19.8156L13.7662 19.6354C13.8647 19.5335 13.9939 19.4417 14.0619 19.4213C14.1298 19.4009 14.847 19.3737 15.7783 19.3567C16.6586 19.3397 17.4268 19.3125 17.4914 19.2989C17.5831 19.2751 17.6171 19.2479 17.6375 19.1698C17.6953 18.9658 17.7293 17.0761 17.7531 12.841L17.7769 8.51424L18.4159 8.51424L19.0582 8.51424L19.0582 14.3875L19.0582 20.2608L18.7116 20.6653C17.8482 21.668 14.7213 25.0159 14.5581 25.111C14.5037 25.1416 13.117 25.1518 8.36871 25.1552C5.00381 25.1586 2.00598 25.1484 1.70688 25.1348Z" fill="rgb(255,255,255)" fill-rule="nonzero" transform="matrix(1,0,0,-1,4.79977,25.1558)" />
		<path id="Vector" d="M0.803281 1.54658C0.40561 1.51599 0.330834 1.4888 0.18808 1.33585C-0.114421 1.01295 -0.0430447 0.441938 0.337632 0.12924L0.493981 8.17734e-05L6.73435 8.17734e-05C13.5491 8.17734e-05 13.233 -0.0101149 13.5084 0.197218C13.974 0.550703 13.872 1.36984 13.3418 1.52279C13.1855 1.56697 1.3607 1.58737 0.803281 1.54658Z" fill="rgb(255,255,255)" fill-rule="nonzero" transform="matrix(1,0,0,-1,7.4368,8.77344)" />
		<path id="Vector" d="M1.89433 22.5606C1.65641 22.547 1.3811 22.513 1.28253 22.4824C0.87466 22.3669 0.429404 21.9692 0.16429 21.4866L0.0147389 21.2214L0.00454222 12.1634C-0.00905337 2.51731 0.00114332 1.52823 0.130301 1.18495C0.276454 0.797471 0.752299 0.297833 1.14317 0.12449C1.28932 0.0599105 1.39809 0.0497138 2.275 0.0225227C2.81543 0.00552818 8.42361 -0.00466851 14.9563 0.00212928L26.6655 0.012326L27.0054 0.257047C27.4336 0.559548 27.7123 0.86205 27.9503 1.26312C28.6368 2.43234 32.4946 9.77736 33.7012 12.211C34.0921 12.9927 34.1227 13.0709 34.1227 13.251C34.1227 13.6453 33.9391 14.0056 33.657 14.1619C33.5686 14.2095 33.4123 14.2537 33.2491 14.2707C33.103 14.2911 31.5735 14.3149 29.8502 14.3285L26.7199 14.3489L26.6995 14.8621C26.6893 15.1442 26.6723 15.8104 26.6587 16.344C26.6383 17.4181 26.6077 17.741 26.5159 17.9517C26.414 18.1828 26.1251 18.4989 25.8463 18.6859C25.5914 18.8558 25.4725 18.9034 25.1938 18.9476L25.0476 18.9714L25.0476 17.9721C25.0476 17.4215 25.0374 16.3882 25.0238 15.6778L25.0034 14.3795L22.9267 14.3591C21.7847 14.3489 18.831 14.3251 16.3634 14.3047C13.8958 14.2843 11.5438 14.2537 11.1325 14.2367C10.3032 14.1993 10.2828 14.1925 10.0415 13.9274C9.58943 13.4244 9.19176 12.6596 5.0655 4.33232L3.70254 1.58262L3.02616 1.60301C2.56051 1.61661 2.31579 1.637 2.23762 1.67099C2.17304 1.69818 2.02009 1.80694 1.89433 1.91571L1.6632 2.10945L1.6632 11.2831L1.6632 20.4533L1.90453 20.6606C2.03708 20.7762 2.18663 20.885 2.23422 20.9053C2.2852 20.9291 2.61829 20.9495 2.99897 20.9597L3.66855 20.9733L3.66855 21.7857L3.66855 22.598L2.99897 22.5946C2.62849 22.5912 2.13225 22.5776 1.89433 22.5606Z" fill="rgb(255,255,255)" fill-rule="nonzero" transform="matrix(1,0,0,-1,0,32)" />
		<path id="Vector" d="M3.19496 1.59748C1.93397 1.58389 0.788544 1.56009 0.649189 1.5465C0.424862 1.52271 0.380676 1.50571 0.261715 1.39695C0.0815735 1.2338 0 1.05366 0 0.798741C0 0.55402 0.0713768 0.384075 0.271912 0.163147L0.414665 0L6.86577 0L13.3169 0L13.5378 0.234524C13.7111 0.421463 13.7655 0.503037 13.7995 0.638993C13.8675 0.931298 13.8029 1.10464 13.5072 1.42414L13.3169 1.63147L9.40135 1.62467C7.24985 1.62127 4.45595 1.60768 3.19496 1.59748Z" fill="rgb(255,255,255)" fill-rule="nonzero" transform="matrix(1,0,0,-1,7.44135,13.5146)" />
	</g>
</svg>
