<svg viewBox="0 0 31.9999 14.4719" xmlns="http://www.w3.org/2000/svg" xmlns:xlink="http://www.w3.org/1999/xlink" width="31.999878" height="14.471924" fill="none" customFrame="#000000">
	<g id="Группа 4">
		<path id="Убрать верхний слой" d="M6.77062 1.84469C6.81719 1.84616 6.86205 1.84757 6.90417 1.84982C7.18165 2.48832 7.36169 3.03546 7.68491 3.66402C7.57455 3.67253 7.46952 3.677 7.36802 3.68132C6.98307 3.69771 6.64891 3.71193 6.26761 3.93582C5.70111 4.26848 5.46919 4.82774 5.32517 5.45564C5.03109 6.87476 4.99237 8.84786 5.78717 10.1129C6.09647 10.6051 6.63857 10.8512 6.94289 11.4356L6.98519 11.5181C7.06975 11.6465 7.15519 11.7739 7.24151 11.9007C7.05571 11.9827 6.23118 11.9823 5.78315 11.9821C5.69075 11.9821 5.61436 11.9821 5.56289 11.9828C5.54253 12.4346 5.551 12.885 5.5595 13.3368C5.56086 13.4087 5.56221 13.4806 5.56345 13.5525L8.45409 13.554C8.45059 13.5758 8.44699 13.5976 8.44337 13.6194C8.39522 13.9106 8.34584 14.2092 8.54625 14.439C8.93473 14.4807 9.58252 14.4732 10.1059 14.4671C10.2606 14.4654 10.4044 14.4637 10.5275 14.4635L13.9261 14.464L25.2258 14.4589C25.2245 14.3678 25.2279 14.2284 25.2318 14.0692C25.2421 13.6439 25.2559 13.0777 25.1938 12.9172C25.0156 12.6971 24.2698 12.6319 23.8964 12.5432C23.7626 12.3455 23.5302 11.9843 23.5977 11.7479C23.7698 11.1431 25.0083 11.6322 25.5523 11.0438C26.3645 10.1654 26.6824 8.77756 26.7481 7.63916C26.8253 6.2995 26.7738 4.76258 25.8591 3.71262C25.245 3.00779 24.4016 3.01342 23.5618 3.01902C23.4619 3.01968 23.3621 3.02035 23.2627 3.01982C22.8194 3.01442 22.3761 3.00218 21.933 2.98324C21.9352 2.82154 21.9453 2.66106 21.9552 2.50324C21.9985 1.81672 22.0385 1.18073 21.4045 0.714981L21.3585 0.713923C20.4987 0.694121 17.233 0.618902 16.7225 0.786721C16.4582 0.873641 16.2309 1.04126 16.1153 1.30008C15.8992 1.7842 16.0665 2.47924 16.2598 2.9524C15.9005 2.9511 15.5547 2.97026 15.2097 2.98937C14.8913 3.00701 14.5736 3.02461 14.2465 3.02608C14.0381 3.027 13.7907 2.90546 13.5379 2.78124C13.3129 2.67073 13.0837 2.5581 12.8737 2.52764C12.7073 2.50566 12.5146 2.51007 12.3204 2.51452C12.0748 2.52014 11.8268 2.52581 11.6269 2.47818C11.6852 2.49208 11.083 1.92024 11.0181 1.87138C11.1333 1.86498 11.2597 1.86649 11.3892 1.86804C11.6495 1.87116 11.9224 1.87442 12.1417 1.81386C12.2794 1.77584 12.3716 1.70884 12.4383 1.5798C12.5609 1.34232 12.5302 0.505421 12.4028 0.278101C12.3397 0.165401 12.2945 0.112761 12.1658 0.0849406C11.5374 -0.0509394 6.32335 -0.0231594 6.08003 0.163721C5.93849 0.272441 5.88545 0.449541 5.86287 0.619921C5.83007 0.867321 5.80443 1.44492 5.97069 1.62508C6.15541 1.8253 6.49344 1.83595 6.77062 1.84469ZM6.71691 0.717281C7.26391 0.703021 11.5656 0.662301 11.7109 0.779181C11.714 0.801221 11.7169 0.820701 11.7195 0.838261C11.7384 0.965801 11.7423 0.991561 11.7089 1.1554C11.5775 1.15422 11.2544 1.1563 10.832 1.15904L10.8312 1.15904L10.8306 1.15904C9.40886 1.16825 6.86457 1.18471 6.71595 1.10822C6.65929 0.994662 6.67791 0.906023 6.70223 0.790244L6.70223 0.790241L6.70223 0.790221C6.70707 0.767141 6.71215 0.742961 6.71691 0.717281ZM17.0763 1.42138L21.0439 1.42188L21.0402 2.23064L17.0763 2.23692L17.0763 1.42138ZM7.76845 1.85178C8.14661 1.83484 8.54419 1.83488 8.93283 1.83492L8.93313 1.83492C9.05391 1.83494 9.17386 1.83496 9.29209 1.83446C9.85059 2.583 10.1318 3.08078 10.5208 3.9164C10.6397 3.983 10.82 3.98078 10.978 3.97882L10.9798 3.9788C11.0136 3.97838 11.0464 3.97798 11.0773 3.9783C11.2297 4.31416 11.3542 4.66204 11.4496 5.01832C11.8855 6.6345 12.0015 9.05048 11.1082 10.5408C10.8954 10.8959 10.4057 11.548 9.99591 11.655C9.96809 11.6494 9.95901 11.6491 9.95239 11.6449C9.94383 11.6395 9.93941 11.6275 9.90373 11.5893C9.95649 11.4181 10.2618 11.117 10.3937 10.8806C10.9165 9.94312 10.9393 9.17074 11.0189 8.13486C10.9906 8.1242 10.9623 8.11262 10.9339 8.10104L10.9338 8.101C10.7986 8.04588 10.6624 7.99032 10.533 8.02986L10.4813 8.1611C10.0278 10.1036 8.85373 11.8038 6.60569 10.8541C6.76669 10.8543 6.91557 10.8647 7.05751 10.8747C7.53723 10.9083 7.93771 10.9363 8.45897 10.5464C10.008 9.38724 9.92811 6.8428 9.34507 5.19776C9.22903 4.87034 8.88365 4.30414 8.53217 3.72794C8.06289 2.95866 7.58275 2.17152 7.62295 1.91094L7.76845 1.85178ZM11.9174 3.15886L11.9426 3.1585L11.9429 3.1585C12.3767 3.15252 12.5888 3.1496 13.0213 3.22388C14.0784 4.79066 14.095 6.56446 13.948 8.37248C13.6898 8.39976 13.3726 8.39686 13.0874 8.39424C13.0211 8.39364 12.9565 8.39304 12.8948 8.39286L12.8949 8.36914L12.8949 8.36904C12.9016 6.30792 12.9057 5.06136 11.9174 3.15886ZM23.9228 4.94574C23.8238 4.5465 23.535 3.81152 23.1405 3.65086L23.15 3.6928C23.2433 4.08658 23.442 4.50344 23.5166 4.87298C23.7752 6.15374 23.7612 7.48402 23.6348 8.7789C23.6155 8.9764 23.5352 9.25742 23.4566 9.53226C23.367 9.84576 23.2797 10.1512 23.2879 10.3155L23.3562 10.3522L23.5072 10.2717C24.3722 8.70552 24.346 6.65196 23.9228 4.94574ZM23.9415 3.71776C25.9191 3.76418 26.1206 5.69932 26.1339 7.26906L24.7176 7.28252C24.7088 5.82368 24.5977 5.02064 23.9415 3.71776ZM17.1998 5.213C17.0072 4.39958 16.7193 3.73378 15.8005 3.7207L15.8132 3.76186C15.9489 4.19034 16.1192 4.52894 16.2594 5.0096C16.5907 6.1455 16.6264 7.35576 16.4176 8.5175C16.3955 8.64026 16.3166 8.87868 16.2339 9.12868C16.1217 9.46796 16.0024 9.82868 16.0083 9.95068C16.2009 10.0439 16.5271 10.0108 16.7106 9.9089C17.514 8.56538 17.5521 6.70052 17.1998 5.213ZM18.1833 4.27128C17.8962 4.2745 17.6768 4.27698 17.5642 4.27714C17.5956 4.46342 17.5958 4.61978 17.7186 4.75376C18.0964 4.79142 18.7308 4.7801 19.2384 4.77102C19.3881 4.76836 19.5268 4.76588 19.6446 4.76492L22.7963 4.73838C22.7892 4.6159 22.7862 4.41822 22.6707 4.34252C22.488 4.2228 19.5588 4.25578 18.1833 4.27128ZM6.35877 9.87734C8.05333 11.2616 8.56379 4.55784 6.58819 4.52514C6.11757 4.81214 5.99367 5.07916 5.73143 5.55782C6.66431 5.39596 6.88303 5.83462 6.95951 6.71956C7.02599 7.47274 6.94905 8.23176 6.73279 8.95618C6.70007 8.95608 6.66749 8.95526 6.63517 8.95448C6.47515 8.95042 6.32157 8.94656 6.19119 9.0326C6.02419 9.32634 6.18443 9.59024 6.35315 9.8681L6.35317 9.86814L6.35877 9.87734ZM7.93053 4.67138C9.06159 4.88164 9.11631 6.50854 9.14341 7.43042L8.43961 7.42394C8.37719 6.20174 8.29027 5.81004 7.93053 4.67138ZM21.24 5.3905L17.8404 5.39782C17.8415 5.42726 17.8419 5.45738 17.8423 5.48774C17.844 5.6314 17.8459 5.78006 17.9249 5.88606C18.366 5.92335 18.9966 5.91622 19.5306 5.91018L19.5309 5.91018L19.5316 5.91018C19.6819 5.90846 19.8246 5.90686 19.9532 5.90634C20.3145 5.90492 20.6794 5.90558 21.0451 5.90624L21.0462 5.90624L21.0573 5.90628L21.0597 5.90628C21.7206 5.90752 22.3844 5.90877 23.0358 5.89768C23.0173 5.71798 23.0259 5.56238 22.9195 5.42518C22.6651 5.37338 21.9868 5.3819 21.5287 5.38768L21.5278 5.38768C21.4154 5.3891 21.3163 5.39034 21.24 5.3905ZM14.6171 5.60938C14.743 5.6055 14.869 5.60382 14.995 5.60434C15.7518 5.61126 15.6805 6.56716 15.6367 7.15341L15.6367 7.1535C15.6332 7.20106 15.6298 7.2462 15.6271 7.2882C15.3388 7.31216 15.0479 7.31008 14.7584 7.31336C14.7326 6.69836 14.6887 6.22148 14.6171 5.60938ZM21.3249 6.563L17.9895 6.56924C17.9893 6.60134 17.9883 6.6329 17.9872 6.66388C17.9824 6.8034 17.9781 6.93096 18.0559 7.0434C18.3794 7.09668 19.3593 7.08026 19.8234 7.07246C19.8527 7.072 19.88 7.07152 19.9049 7.07112C20.3573 7.06378 20.8227 7.06688 21.289 7.06997L21.2897 7.06998L21.2921 7.06998L21.2946 7.07L21.2971 7.07002C21.8951 7.07396 22.4945 7.0779 23.07 7.0599C23.0715 7.02796 23.0739 6.99712 23.0763 6.96722L23.0763 6.96713C23.087 6.82937 23.0961 6.71142 23.0149 6.59862C22.759 6.54771 22.0591 6.55549 21.6002 6.56059L21.5989 6.5606L21.5981 6.56062C21.4908 6.56184 21.3969 6.5629 21.3249 6.563ZM20.54 7.73073C19.682 7.73503 18.8239 7.73932 17.967 7.71752C17.9635 7.74758 17.9593 7.77684 17.9551 7.80538C17.9363 7.93504 17.9195 8.05026 17.9847 8.16246C18.2689 8.21658 18.9692 8.20892 19.4478 8.20368C19.5609 8.20244 19.6616 8.20134 19.7415 8.20122L23.0738 8.19516C23.0725 8.13574 23.0738 8.08937 23.075 8.05052L23.075 8.05048C23.0784 7.93538 23.0798 7.88604 23.0022 7.75776C22.7736 7.72566 22.5466 7.72702 22.3178 7.7284C22.2512 7.7288 22.1843 7.7292 22.1173 7.72878C21.5942 7.72546 21.0707 7.72806 20.5471 7.7307L20.5418 7.73072L20.54 7.73073ZM19.4717 8.95566C18.8977 8.94894 18.3224 8.94224 17.7864 8.96332C17.8042 9.07908 17.8017 9.11812 17.8141 9.15152C17.8252 9.18122 17.8481 9.2065 17.9075 9.27716C18.3467 9.4397 22.1439 9.39994 22.8664 9.36886C22.8745 9.31912 22.8829 9.28052 22.89 9.24804C22.911 9.15169 22.9203 9.10905 22.8759 8.9898C22.5868 8.9358 21.2587 8.94752 20.8853 8.95618C20.4318 8.96684 19.954 8.96128 19.4752 8.9557L19.4726 8.95568L19.4717 8.95566ZM21.1069 10.4985L21.1078 10.4986C21.2221 10.5 21.3356 10.5013 21.4471 10.5021L21.4475 12.1126C21.1176 12.0996 20.7669 12.1044 20.4263 12.109L20.4262 12.109L20.425 12.109L20.4239 12.109L20.4228 12.1091C20.3259 12.1104 20.2299 12.1117 20.1354 12.1126C20.1241 11.5746 20.1258 11.0371 20.1403 10.4996C20.4527 10.4906 20.7821 10.4946 21.1044 10.4985L21.1069 10.4985ZM11.7346 12.3858C11.6439 12.3799 11.5565 12.3741 11.4755 12.3695C11.39 12.2844 11.3924 12.2854 11.2866 12.2278L11.1674 12.3211L11.1225 12.2854C11.2647 11.998 11.9442 11.0061 12.163 10.7702C12.3185 10.7997 12.3478 10.8155 12.4913 10.8721C12.6196 11.0784 12.6035 11.6468 12.5913 12.0791C12.5876 12.2104 12.5842 12.3292 12.5853 12.4214C12.3369 12.4253 12.0199 12.4045 11.7346 12.3858ZM16.7991 12.5682C16.737 12.5698 16.6779 12.5713 16.6232 12.5733C16.5592 12.5729 16.4733 12.5736 16.3709 12.5743C15.5801 12.5803 13.8041 12.5937 13.4913 12.212C13.49 12.194 13.4881 12.1718 13.4858 12.1468C13.4735 12.009 13.4537 11.787 13.505 11.7244C13.7354 11.4432 14.9159 11.459 15.328 11.4284C16.3303 11.3765 17.5366 11.4366 18.5308 11.5573C18.4907 11.7723 18.4653 12.0159 18.322 12.185C18.0225 12.5377 17.3062 12.5556 16.7991 12.5682ZM6.98521 11.5181C7.27001 11.6088 7.60663 11.915 7.92517 12.0683C8.07965 12.1427 8.55465 12.3251 8.61385 12.4031C8.22923 12.4861 7.89043 12.3317 7.57943 12.13C7.46495 12.0566 7.35231 11.9797 7.24153 11.9007C7.15523 11.7738 7.06979 11.6465 6.98521 11.5181ZM15.0977 13.1274C14.8118 12.9919 11.1696 13.0363 10.5933 13.0633L10.4895 13.2436L10.5229 13.3226C10.8629 13.3605 11.379 13.3549 11.8072 13.3503L11.808 13.3503L11.8087 13.3503C11.9322 13.3489 12.0484 13.3477 12.1509 13.3476C13.1233 13.3486 14.0957 13.3445 15.0681 13.3343L15.1284 13.2401L15.0977 13.1274ZM21.4731 13.0531C21.4176 13.0564 21.3671 13.0594 21.3242 13.0611C21.1464 13.0663 20.8479 13.064 20.4986 13.0613L20.4969 13.0613L20.4963 13.0613C19.551 13.054 18.2354 13.0438 17.9316 13.1716L17.8999 13.242C18.0577 13.3803 18.5801 13.3597 18.9018 13.347L18.902 13.347C18.9605 13.3447 19.0124 13.3426 19.0542 13.3418C19.8769 13.3454 20.6994 13.349 21.5221 13.3551C21.5533 13.3553 21.5898 13.3562 21.6299 13.3573L21.6301 13.3573C21.8747 13.3635 22.2526 13.3731 22.3853 13.244L22.3848 13.1391C22.2164 13.0088 21.7727 13.0352 21.4732 13.0531L21.4731 13.0531Z" fill="rgb(254,254,254)" fill-rule="evenodd" />
		<path id="Вектор 157" d="M2.70554 4.8772C2.79832 4.87822 2.80102 4.88576 2.89268 4.90823C3.05933 5.16944 3.00324 5.76646 2.99463 6.09549C3.6561 6.10533 4.26265 6.07185 4.94093 6.10074C4.93028 6.64457 4.93033 7.1886 4.94109 7.73248C4.46008 7.77289 3.52847 7.75261 3.01333 7.75882C3.0143 8.06467 3.04548 8.4554 2.9153 8.71931C2.75797 8.79421 2.84204 8.78402 2.652 8.71829C1.77919 8.14176 0.906077 7.40992 0 6.81046C0.964414 6.16249 1.64688 5.48018 2.70554 4.8772Z" fill="rgb(255,255,255)" fill-rule="nonzero" />
		<path id="Слияние" d="M29.9131 5.18018C29.4939 5.28462 27.681 6.71054 27.3081 7.04002C27.9621 7.59588 28.6289 8.1366 29.3079 8.66172L29.3081 8.66186L29.308 8.66186C29.4711 8.7877 29.6889 8.99302 29.8791 9.01494C29.9995 8.92396 30.004 8.86654 30.0144 8.73554C30.0163 8.71176 30.0183 8.68554 30.0213 8.65626L30.0212 8.65626L30.0212 8.65612L30.0632 8.08234C30.1453 7.98998 30.9561 7.98322 31.5013 7.97868C31.6965 7.97706 31.8577 7.9757 31.9391 7.97082C31.9783 7.31648 32.0041 6.76846 31.9994 6.11412C31.8806 6.11088 31.7143 6.11368 31.5277 6.1168C31.0038 6.12558 30.3196 6.13706 30.0754 6.02552C30.0152 5.91382 30.0197 5.76494 30.0241 5.62044C30.0297 5.43972 30.035 5.26588 29.9131 5.18018Z" fill="rgb(255,255,255)" fill-rule="evenodd" />
	</g>
</svg>
