<svg viewBox="0 0 25 25" xmlns="http://www.w3.org/2000/svg" xmlns:xlink="http://www.w3.org/1999/xlink" width="25.000000" height="25.000000" fill="none" customFrame="url(#clipPath_4)">
	<defs>
		<clipPath id="clipPath_4">
			<rect width="25.000000" height="25.000000" x="0.000000" y="0.000000" rx="3.000000" fill="rgb(255,255,255)" />
		</clipPath>
	</defs>
	<rect id="Frame 32" width="25.000000" height="25.000000" x="0.000000" y="0.000000" rx="3.000000" />
	<g id="Группа 5">
		<path id="Убрать верхний слой" d="M14.926 0.35501C13.9637 0.0644968 12.0619 -0.095393 11.0682 0.0614185C10.3689 0.154189 9.28451 0.289347 8.82342 0.876473C8.49466 1.29506 8.51481 1.87101 8.53341 2.40263C8.53672 2.49735 8.53999 2.59067 8.54122 2.68143C7.02305 3.18437 5.44078 4.06676 5.4248 5.87798C5.39342 9.44237 5.40301 13.0097 5.4126 16.5753C5.41423 17.1822 5.41586 17.7891 5.41729 18.3959C5.41886 19.0596 5.5308 19.3836 5.98001 19.8652C5.97899 20.011 5.96801 20.2675 5.95432 20.5873C5.90044 21.8457 5.80464 24.0832 6.10945 24.3984C6.4451 24.7456 7.86618 25.0443 8.34348 24.9946C8.65904 24.9622 9.26912 24.831 9.44359 24.5242C9.63138 24.1944 9.61662 23.2815 9.60673 22.6696C9.60428 22.5181 9.60213 22.385 9.60343 22.2838C10.1057 22.306 10.9508 22.3108 11.3664 22.5965C11.5106 22.7925 11.5317 23.0037 11.5506 23.1927C11.5958 23.6442 11.6283 23.969 13.2957 23.6565C13.3292 23.3411 13.3595 23.0134 13.3978 22.6996C13.4712 22.5528 13.4777 22.4718 13.6543 22.4205C14.1565 22.2741 14.6808 22.2585 15.196 22.1505C15.3336 22.9507 15.2203 23.6927 15.3493 24.467C16.2959 25.406 18.1869 24.9368 19.0509 24.1274C19.052 23.9845 19.0543 23.8125 19.0569 23.6206C19.0713 22.5476 19.094 20.8502 18.9548 20.1196C19.6149 18.8985 19.609 18.5811 19.5897 17.5464C19.5859 17.3461 19.5817 17.119 19.5817 16.8532L19.5801 13.6619L19.5812 8.65265C19.5813 8.53243 19.5837 8.36884 19.5866 8.1761C19.6024 7.12509 19.6312 5.20729 19.3592 4.72863L19.3106 4.64185C18.5773 3.34912 17.5584 3.32931 16.7808 2.59314C16.7198 2.53551 16.7124 2.33794 16.7027 2.07845C16.6787 1.44163 16.6407 0.43189 15.7629 0.202463C15.6414 0.171522 15.5189 0.143336 15.3963 0.118011C15.2413 0.193877 15.075 0.271204 14.926 0.35501ZM11.3477 0.65655C12.4749 0.561782 13.6824 0.689379 14.785 0.940688L14.7758 1.86898C14.0744 2.18562 13.6715 2.21954 12.9021 2.30712C12.3221 2.32834 9.02395 2.27818 9.28978 1.28272C9.70303 0.839065 10.7759 0.712924 11.3477 0.65655ZM15.501 0.764848C16.1031 0.865554 16.0799 1.20952 16.0054 1.73904C15.9341 1.75055 15.8821 1.76211 15.8408 1.77126C15.7184 1.79845 15.6918 1.80434 15.5431 1.72451C15.4472 1.54092 15.4695 1.23022 15.4888 0.962346C15.4938 0.892612 15.4986 0.82578 15.501 0.764848ZM9.09311 2.23465C11.6601 3.14436 13.2703 2.95915 15.8434 2.29308L15.4864 2.70444C14.8455 3.3811 12.9701 3.56685 12.1018 3.50702C10.9407 3.42694 9.58331 3.49714 9.09311 2.23465ZM8.58958 3.43323C8.83803 3.51979 9.21083 3.81035 9.55713 3.91916C10.9723 4.36368 12.5387 4.41287 13.9977 4.18624C14.4335 4.11847 14.8304 3.93299 15.3358 3.86478C15.4794 4.06998 15.4109 4.14477 15.643 4.30034C16.0701 4.38519 16.2077 3.98402 16.3273 3.63548C16.348 3.57501 16.3682 3.51612 16.3893 3.46163C18.3495 4.27993 20.139 5.68319 17.0994 6.81403C14.3249 7.66456 10.3278 7.54225 7.55119 6.71067C6.8322 6.49538 6.00024 6.06129 6.36263 5.19266C6.7397 4.28883 7.76276 3.81883 8.58958 3.43323ZM6.30161 6.74667C7.19734 7.24579 8.22985 7.55493 9.24427 7.68215C12.3011 8.06559 15.8018 8.15113 18.6189 6.78102L18.6243 13.6732C18.6244 13.929 18.6254 14.1873 18.6263 14.4469C18.6297 15.3502 18.6331 16.27 18.6016 17.1604C18.5951 17.3381 18.5282 17.4542 18.4369 17.601C16.4438 19.4165 7.74748 19.6805 6.3156 17.2441C6.26742 16.3847 6.27668 15.3153 6.28509 14.3434C6.28794 14.0145 6.29069 13.6968 6.29108 13.4021L6.30161 6.74667ZM18.8441 18.0071C18.7669 18.4596 18.7334 18.6437 18.5768 19.0687L18.5428 19.1168C16.8564 21.4916 8.41971 21.3491 6.50886 19.0547C6.25367 18.7479 6.21403 18.4196 6.16192 18.0411C6.535 18.3035 6.99831 18.6076 7.42538 18.7685C10.296 19.8506 16.432 19.9748 18.8441 18.0071ZM7.87995 23.9157C7.59797 23.8179 7.16636 23.7078 6.86899 23.6219C6.84382 23.074 6.85301 22.3054 6.86149 21.5964C6.86579 21.2363 6.86991 20.8917 6.86926 20.5991C7.23661 20.8302 7.53685 20.9717 7.93185 21.1445C7.93221 21.2595 7.93382 21.4057 7.93564 21.5713C7.94382 22.3144 7.9563 23.4485 7.87995 23.9157ZM16.8968 21.5807C16.8982 21.4621 16.8994 21.3709 16.8996 21.3194C17.3581 21.1099 17.6561 20.9749 18.0811 20.7125L18.14 20.7368C18.208 21.2595 18.188 23.0096 18.1659 23.5663L18.1119 23.5906C17.7117 23.7764 17.4455 23.8293 17.0162 23.9367L16.9385 23.9427C16.8696 23.8063 16.8886 22.2537 16.8968 21.5807Z" fill="rgb(67,69,75)" fill-rule="evenodd" />
		<path id="Вектор 80" d="M7.78198 8.43378C7.95991 8.41974 8.07476 8.39306 8.23989 8.45889C8.30507 8.69956 8.28806 10.4775 8.28887 10.8504L8.27915 17.842L7.79537 17.7718C7.70865 14.8294 7.76422 11.3952 7.78198 8.43378Z" fill="rgb(67,69,75)" fill-rule="nonzero" />
	</g>
</svg>
