<svg viewBox="0 0 31.9999 18.1382" xmlns="http://www.w3.org/2000/svg" xmlns:xlink="http://www.w3.org/1999/xlink" width="31.999878" height="18.138184" fill="none" customFrame="#000000">
	<g id="Группа 3">
		<path id="Убрать верхний слой" d="M6.80774 0.0774231C5.5907 0.245003 5.62456 0.839963 5.7489 1.8155C5.56378 1.81962 5.35464 1.81129 5.13469 1.80252C4.36315 1.77176 3.45839 1.73569 2.9894 2.21338C2.41686 2.7968 2.5047 3.87268 3.14392 4.37536C3.54919 4.70036 3.85676 4.69296 4.3451 4.68122C4.35472 4.68099 4.36441 4.68076 4.37418 4.68052C4.39006 5.56706 4.39534 6.45376 4.39112 7.34044C3.21428 7.3059 2.86664 7.80868 2.56714 8.8519C2.91638 10.051 3.26508 10.0994 4.39746 10.4267L4.38794 12.7207C2.78674 12.7679 1.9655 14.3939 3.15396 15.5771C3.4905 15.9123 4.20802 15.7356 4.28634 16.1258C4.28846 16.2899 4.29482 16.7365 4.4382 16.8256C4.81496 17.0598 5.86796 17.12 6.28652 17.0175C6.96806 16.8505 7.63902 16.2788 8.23644 15.902C9.39666 15.8773 10.5587 15.9392 11.7199 16.0011C12.3365 16.034 12.9529 16.0669 13.5687 16.0867C16.1509 16.17 18.7665 16.3813 21.3461 16.4355C21.3442 16.5176 21.3408 16.6015 21.3373 16.6863C21.3201 17.1043 21.3021 17.5443 21.4662 17.9008C21.7779 18.1218 22.9849 18.1939 23.3256 18.0942C24.4479 17.7656 25.5994 16.8783 26.7138 16.3635C26.9826 16.4518 27.2371 16.5389 27.5122 16.6083C29.1218 16.1958 29.0672 15.2371 28.9984 14.0275C28.9737 13.5936 28.9471 13.1274 28.9949 12.6426L28.9981 12.5493C29.6982 12.4078 29.7234 12.7317 29.7471 13.0373C29.7617 13.2242 29.7757 13.4043 29.9431 13.467C30.4538 13.3786 31.429 12.6188 31.8941 12.2833C31.9993 12.2073 31.9992 12.1792 31.9991 12.1031C31.9991 12.0873 31.999 12.0694 31.9999 12.0486C31.9026 11.8894 30.1098 10.6961 29.822 10.4998L29.786 11.3463L28.9632 11.3051C28.9018 10.4797 28.9277 8.24648 28.9738 7.39901C28.7938 7.50578 28.56 7.62294 28.3716 7.72406C28.3647 8.8674 28.3668 10.0107 28.379 11.154C27.608 11.6219 27.1773 11.7816 26.3936 12.3425C26.1687 12.2178 25.4634 11.8717 25.3591 11.6829C25.4332 11.4673 25.3708 11.5481 25.5285 11.4149C25.7203 11.4025 25.9759 11.5662 26.1882 11.7022C26.2388 11.7346 26.2869 11.7655 26.3312 11.792C26.8725 11.466 27.4122 11.1057 27.9435 10.761C27.9433 10.5821 27.944 10.3969 27.9448 10.2082C27.9476 9.50534 27.9506 8.75434 27.9043 8.09854C27.3244 8.33656 26.7926 8.6888 26.2402 9.0002C26.0036 8.83978 24.6855 8.09262 24.6474 8.0361C24.6454 7.984 24.6413 7.94292 24.6379 7.90842C24.6279 7.8077 24.6234 7.76324 24.6924 7.665C25.0051 7.76174 25.8687 8.3011 26.1497 8.49926C26.9757 8.08282 27.7604 7.62198 28.5721 7.18058C28.7884 7.06274 28.8341 7.07758 28.9925 7.1291C29.013 7.1358 29.0355 7.14312 29.0605 7.15084L29.0605 7.1508C29.2233 7.1149 29.4698 7.18588 29.6699 7.24352C29.7131 7.25598 29.7542 7.26781 29.7918 7.2778C29.7928 7.31087 29.7937 7.34367 29.7947 7.37624C29.8049 7.72268 29.8144 8.04343 29.796 8.39478C30.2125 8.1656 31.7714 7.32394 31.9243 6.9885C31.9095 6.8594 31.8999 6.76728 31.765 6.67678C31.0782 6.21654 30.4744 5.86136 29.8172 5.3436L29.7833 6.17378C29.7451 6.17477 29.7072 6.17581 29.6696 6.17685C29.3879 6.1846 29.1223 6.19192 28.8356 6.17076C28.8361 5.96488 28.8353 5.75004 28.8344 5.53201C28.8324 5.04029 28.8304 4.53231 28.8436 4.07406C28.898 2.14311 28.6775 2.14323 27.6176 2.14382C27.358 2.14396 27.048 2.14413 26.6794 2.11596C26.6503 1.74878 26.6788 1.03924 26.3709 0.807323C25.5486 0.188063 23.5304 0.0900031 22.7578 0.837483C22.5639 1.02484 22.6098 1.36928 22.6454 1.63645C22.6482 1.65791 22.651 1.67886 22.6536 1.6992C22.3223 1.70296 22.0416 1.68272 21.7526 1.66189C21.5782 1.64932 21.4008 1.63653 21.2074 1.62866L18.4564 1.53628C16.5663 1.4824 14.6767 1.40684 12.7882 1.30964C12.3839 1.29228 9.81752 1.28684 9.58788 1.0894C9.54978 0.761283 9.5609 0.583023 9.26828 0.374803C8.60418 -0.0982169 7.57818 -0.0286369 6.80774 0.0774231ZM7.15228 0.567943C7.53538 0.546923 8.7175 0.540843 8.88206 0.917183C8.6995 1.10972 8.4524 1.12254 8.19312 1.16318C7.81424 1.19466 6.69616 1.2334 6.47656 0.880723L6.52366 0.777223C6.74008 0.637843 6.90146 0.622603 7.15228 0.567943ZM23.8759 0.887823C24.3485 0.853903 25.3999 0.819083 25.7761 1.13382L25.783 1.23796C25.647 1.38004 25.5269 1.39242 25.3369 1.44718C24.9639 1.48904 23.5267 1.58212 23.4637 1.11784C23.5828 0.962323 23.6881 0.950583 23.8759 0.887823ZM8.48524 1.75186C8.50706 1.74772 8.52754 1.74344 8.54704 1.73936C8.65054 1.71772 8.72708 1.70172 8.8366 1.74254L8.84084 1.8379C8.43286 2.14358 7.86086 2.15332 7.3788 2.12084C7.17508 2.0278 7.1735 2.06426 7.06078 1.90812L7.11688 1.836C7.42008 1.78186 8.07516 1.79462 8.48524 1.75186ZM9.53658 1.77246C12.7337 1.91908 15.9319 2.0427 19.1311 2.14334C19.9656 2.1733 20.8016 2.19362 21.6361 2.22558C21.6783 2.22718 21.7298 2.22794 21.7872 2.2288C22.0739 2.233 22.5064 2.23936 22.6536 2.36554C22.8166 3.05126 23.0156 2.98538 23.6654 3.19592C22.3892 3.80452 22.3446 3.80144 21.3261 3.73096C21.1524 3.71896 20.9503 3.70498 20.709 3.69174L18.1389 3.56728L11.9294 3.32578C11.5914 3.31174 11.2512 3.29676 10.9096 3.2817C9.45038 3.21742 7.96562 3.15202 6.5215 3.15502C6.35588 3.18106 6.31936 3.17422 6.17438 3.26042C6.08698 3.57032 6.1026 5.70272 6.11026 6.74628C6.11174 6.94734 6.1129 7.108 6.113 7.2074L6.10136 16.3448L5.01554 16.3119C4.97154 15.1493 4.9845 13.9262 4.99744 12.7053L4.99746 12.7043C5.00756 11.7525 5.01764 10.8021 5.00072 9.88282C4.97824 8.6556 4.9917 7.39436 5.0051 6.1402C5.01314 5.38744 5.02116 4.63722 5.02136 3.89848C5.02136 3.77164 5.06052 3.386 5.12878 3.32096C5.68046 2.79402 6.54772 2.79708 7.39394 2.80008L7.39406 2.80008C8.1508 2.80274 8.8907 2.80534 9.37308 2.42876C9.55322 2.28793 9.54628 2.08007 9.53914 1.86613L9.53914 1.86612L9.53914 1.86608C9.5381 1.83494 9.53704 1.80366 9.53658 1.77246ZM23.3225 2.03272C24.3319 2.19226 24.5609 2.17074 25.0705 2.12284C25.2664 2.10442 25.5037 2.0821 25.8428 2.06468L25.873 2.14246L25.8005 2.30624C25.0004 2.6243 23.9326 2.7723 23.3225 2.03272ZM3.86042 2.36854C3.88064 2.36742 3.90136 2.3662 3.92248 2.36496L3.9226 2.36496C4.24664 2.34586 4.66512 2.3212 4.8822 2.57152C4.82188 2.72444 4.58482 2.80196 4.38056 2.95568C4.25112 3.21044 4.2738 3.58216 4.29302 3.89684C4.29626 3.95008 4.29942 4.00168 4.30172 4.0508C3.86042 4.05578 3.55668 4.02884 3.32862 3.59658C3.21802 3.38896 3.2032 3.14342 3.2884 2.92404C3.41064 2.61004 3.56674 2.4904 3.86042 2.36854ZM27.9292 2.8298C27.5926 2.83098 27.2241 2.83226 26.9127 2.78198C26.427 3.1128 26.2047 3.25912 25.619 3.38928C25.3936 3.4393 25.374 3.40914 25.2655 3.5466C25.3581 3.90468 25.6158 3.93262 25.9312 3.81694C26.5831 3.57756 27.0138 3.12116 27.6975 2.94396C27.7763 3.71598 27.7594 5.03568 27.7271 5.8259C27.2641 6.22976 26.9397 6.40596 26.3746 6.66572L26.2688 6.66102C26.0772 6.53978 25.7719 6.32224 25.5661 6.2723C25.4026 6.37966 25.4708 6.30944 25.384 6.5147C25.4401 6.71266 26.1238 7.09872 26.3645 7.2581C26.9339 6.93018 27.6308 6.55402 28.1753 6.21066C28.1437 5.6923 28.1482 5.1323 28.1527 4.57902L28.1527 4.5775L28.1527 4.57726C28.1577 3.96442 28.1626 3.35991 28.1181 2.8295C28.0656 2.82937 28.0117 2.82954 27.957 2.82971L27.9456 2.82974L27.9337 2.82978L27.9314 2.8298L27.9292 2.8298ZM21.4313 4.28272C16.5833 4.1532 11.6638 3.78544 6.83374 3.65796L6.83214 4.7698C8.51748 4.79108 10.252 4.90246 11.9405 4.98268L18.2633 5.2562C19.2729 5.30076 20.4302 5.39198 21.4255 5.4069C21.4265 5.31888 21.4279 5.22972 21.4293 5.14C21.4337 4.85384 21.4382 4.56194 21.4313 4.28272ZM23.232 3.9961C23.2527 4.03116 23.2445 8.3165 23.2373 12.0699C23.2324 14.6322 23.228 16.9465 23.2336 17.4918C22.9129 17.4507 22.5198 17.4307 22.1917 17.406L22.061 17.3568C21.999 17.243 22.0099 9.8914 22.0153 6.25854L22.0154 6.21674C22.0167 5.3106 22.0177 4.64222 22.0171 4.38566C22.5309 4.34364 22.7653 4.20792 23.232 3.9961ZM24.7903 5.66242C25.6364 5.16412 25.3348 4.1362 24.2686 4.16134C23.5373 4.64668 23.7347 5.84314 24.7903 5.66242ZM8.05862 5.26364L8.05788 5.2636C7.63972 5.23822 7.20512 5.21186 6.84322 5.22002L6.8374 6.00098L14.6783 6.33932C16.0361 6.38706 17.3934 6.4514 18.7496 6.53226C19.6052 6.57544 20.5905 6.59982 21.4302 6.69454C21.4302 6.61416 21.4307 6.53244 21.4311 6.45022L21.4311 6.44916C21.4322 6.26522 21.4332 6.07892 21.4292 5.90014C18.9554 5.69948 16.179 5.65662 13.674 5.5284C12.0183 5.4392 10.3621 5.36246 8.70476 5.29818C8.50338 5.29062 8.28338 5.27728 8.05862 5.26364ZM6.84166 6.47934C7.5155 6.4768 8.36994 6.52448 9.16508 6.56888C9.5257 6.589 9.87414 6.60844 10.188 6.62222L17.4432 6.93728C18.8046 6.99924 20.0582 7.1157 21.4324 7.12782C21.438 7.33472 21.4342 7.54876 21.4304 7.75951L21.4304 7.75964L21.4304 7.76012C21.4292 7.82648 21.428 7.89252 21.4271 7.9579C18.7136 7.80206 15.9996 7.66184 13.2851 7.53728C11.1585 7.43288 9.00642 7.29746 6.88188 7.21714C6.85436 6.97204 6.85066 6.72594 6.84166 6.47934ZM6.8612 7.70728C11.6928 7.87528 16.6197 8.286 21.4308 8.4022L21.4355 9.22C20.2047 9.09518 18.5776 9.06136 17.3177 9.00358L12.2897 8.75616C10.5234 8.6799 8.64496 8.62492 6.88872 8.48406L6.8612 7.70728ZM3.86092 7.97482C3.884 7.97334 3.90518 7.9719 3.92492 7.97054L3.92508 7.97052L3.92528 7.9705L3.92534 7.9705L3.92537 7.9705C4.07283 7.96044 4.13993 7.95586 4.31386 7.98928C4.398 8.153 4.40646 9.33812 4.26148 9.56476C4.13998 9.65238 4.04208 9.6482 3.90574 9.64238C3.87996 9.64128 3.85282 9.64012 3.82388 9.63952C3.11906 9.17806 3.01058 8.3066 3.86092 7.97482ZM6.89192 8.9786C7.7046 8.9629 8.90874 9.04068 9.98774 9.11038C10.4916 9.14292 10.9681 9.1737 11.3648 9.19238L21.434 9.66412L21.4297 10.4732L6.87976 9.76296L6.89192 8.9786ZM24.8565 10.7756C25.5978 10.181 25.2798 9.25076 24.2099 9.34644C23.5204 9.80748 23.7527 10.9927 24.8565 10.7756ZM6.9248 10.2476C11.7348 10.3869 16.6103 10.7771 21.4224 10.9562L21.4377 11.7319L11.3014 11.2293C9.85998 11.1609 8.3715 11.0395 6.93644 11.0286L6.9248 10.2476ZM9.8848 11.6336L9.88516 11.6336C10.2232 11.6539 10.5525 11.6737 10.8636 11.6901L17.7769 12.0102C18.9792 12.0691 20.238 12.1905 21.4344 12.2026L21.4265 13.0108C18.7077 12.9277 15.826 12.7264 13.104 12.5684L6.91724 12.2461L6.94052 11.5151C7.84064 11.5107 8.89972 11.5743 9.8848 11.6336ZM28.6626 12.4118C27.8414 12.6795 26.9265 13.333 26.1428 13.6209C25.6941 13.3133 25.1676 13.1156 24.6876 12.8449L24.6241 12.8863C24.6223 12.9094 24.6203 12.9304 24.6185 12.9499C24.6065 13.0801 24.6011 13.1388 24.6733 13.2773C25.0718 13.4654 26.0174 13.9416 26.3566 14.1614C26.8159 13.8914 27.4202 13.5167 27.8953 13.3069C27.8966 13.3842 27.8982 13.4623 27.8998 13.5409L27.8998 13.5413L27.8998 13.5414C27.906 13.8485 27.9123 14.1623 27.9022 14.4632C27.6345 14.5773 27.1942 14.7212 27.1122 15.0201C27.3913 15.1575 27.9143 14.9217 28.2587 14.7664C28.3125 14.7421 28.362 14.7198 28.4054 14.7012C28.3643 14.2784 28.3663 13.7911 28.3682 13.3377L28.3682 13.3333C28.3687 13.2224 28.3691 13.1136 28.3689 13.0082C28.5954 12.8622 28.7488 12.7605 28.9949 12.6426L28.9981 12.5493C28.9789 12.5351 28.9605 12.5205 28.9425 12.5063C28.8545 12.4365 28.7764 12.3746 28.6626 12.4118ZM6.87768 12.7261C8.3413 12.7623 9.87636 12.8957 11.3469 12.964C14.6911 13.1194 18.066 13.3593 21.4091 13.4795C21.4274 13.6726 21.4268 13.8893 21.4262 14.0944L21.4262 14.0987L21.4262 14.0998C21.426 14.1541 21.4259 14.2075 21.4261 14.2595C19.3905 14.2216 17.0289 14.0209 14.9699 13.906L6.8888 13.5309L6.87768 12.7261ZM3.80486 13.4759C3.83738 13.4737 3.86842 13.4711 3.89842 13.4686C4.0476 13.4563 4.17126 13.4461 4.325 13.4959C4.37104 13.8685 4.36152 14.7472 4.32024 15.1184C4.1864 15.1737 4.05326 15.1673 3.90748 15.1602L3.90738 15.1602C3.87106 15.1584 3.83396 15.1566 3.79586 15.1557C3.5641 15.0309 3.42598 14.9374 3.31646 14.6845C3.21486 14.4541 3.2101 14.1923 3.30428 13.9585C3.41382 13.6879 3.54928 13.5845 3.80486 13.4759ZM10.6161 14.1528C9.36128 14.0736 7.8288 13.9769 6.89034 14.0028L6.88832 14.024L6.88826 14.0246L6.88822 14.025C6.85926 14.3287 6.84024 14.5282 6.84748 14.8394L15.4186 15.2872C17.3601 15.3707 19.4878 15.4167 21.4075 15.5861C21.4374 15.2315 21.4247 15.1131 21.3884 14.7756L21.3853 14.7465L11.7167 14.2193C11.3985 14.2021 11.0218 14.1784 10.6161 14.1528ZM24.3745 14.6809C24.4618 14.6838 24.5814 14.6883 24.666 14.7051C24.8703 14.7475 25.0449 14.8799 25.1407 15.0654C25.3994 15.5549 25.1793 16.1125 24.7084 16.3786C24.2251 16.4005 24.1497 16.2941 23.8762 15.9087L23.8728 15.9039C23.8711 15.836 23.8685 15.7724 23.8662 15.7125C23.8461 15.2038 23.8367 14.9652 24.3745 14.6809Z" fill="rgb(254,254,254)" fill-rule="evenodd" />
		<path id="Вектор 160" d="M1.50625 9.63916C1.91845 9.7734 3.47574 11.198 3.84297 11.5616C3.30218 12.1115 2.5492 12.5214 1.92851 13.1115C1.75971 13.2346 1.72002 13.2872 1.55017 13.1782C1.39036 12.8554 1.46392 12.4253 1.48932 12.0572C0.960696 12.0456 0.530498 12.0182 0.00558086 11.9747C-0.0023512 11.5563 -0.00182799 11.1377 0.00716986 10.7192C0.502982 10.7194 0.998264 10.7158 1.49408 10.7084C1.49037 10.3919 1.43375 9.92183 1.50625 9.63916Z" fill="rgb(255,255,255)" fill-rule="nonzero" />
		<path id="Вектор 161" d="M1.56079 4.11816C2.04391 4.30887 3.32286 5.4721 3.92873 5.90462C3.21385 6.42837 2.74979 6.66786 2.03915 7.26845L1.43169 7.68605C1.53593 7.11166 1.54333 6.91154 1.56026 6.32683C1.25548 6.28899 0.321535 6.34942 0.236336 6.19491C-0.592305 4.69282 1.17293 5.09682 1.55497 5.09428C1.54545 4.74441 1.53752 4.46804 1.56079 4.11816Z" fill="rgb(255,255,255)" fill-rule="nonzero" />
	</g>
</svg>
