<svg viewBox="0 0 32 27.8425" xmlns="http://www.w3.org/2000/svg" xmlns:xlink="http://www.w3.org/1999/xlink" width="32.000000" height="27.842529" fill="none" customFrame="#000000">
	<g id="Группа 6">
		<path id="Убрать верхний слой" d="M11.9418 1.82076C11.8776 2.07122 11.8181 2.30292 11.7525 2.48048C11.1481 2.62496 10.5051 2.68246 9.88688 2.754L9.82184 2.66004C9.4689 2.14326 8.8887 0.786858 8.51528 0.603578C7.92996 0.665778 4.9544 1.94786 5.17362 2.7307C5.18924 2.78628 5.20928 2.85068 5.23282 2.92172C5.39758 3.41906 5.73318 4.24212 5.91606 4.64544C5.58576 5.15638 5.20796 5.6109 4.82872 6.08464L4.71984 6.08866C4.70224 6.08916 4.68544 6.0896 4.66934 6.08998C4.52708 6.09322 4.43978 6.09106 4.35508 6.08426C4.296 6.0795 4.23818 6.07248 4.16384 6.06346C4.14914 6.06168 4.1338 6.05982 4.11766 6.05788C4.10798 6.05672 4.09802 6.05554 4.08776 6.05432C3.91294 6.03358 3.64548 5.90846 3.35504 5.7726C2.9353 5.57624 2.46758 5.35744 2.16214 5.3988C2.05162 5.41376 1.96236 5.46278 1.9043 5.55924C1.55574 6.13748 1.01234 7.25482 0.62586 8.11912C0.49704 8.40722 0.38564 8.66722 0.30472 8.86976C0.3287 8.89006 0.35276 8.91022 0.37692 8.9302C0.5278 9.0552 0.68142 9.17438 0.83288 9.29102C0.85104 9.30502 0.86918 9.31898 0.88728 9.3329C1.0655 9.47006 1.23984 9.60424 1.4022 9.74086C2.1058 10.3328 2.58446 10.9704 2.17834 12.0938C1.61506 12.6369 0.81304 12.9189 0.125 13.3929C0.08288 13.422 0.04118 13.4517 0 13.4823C0.0495 13.6776 0.122 13.9763 0.213 14.3224C0.48604 15.361 0.92584 16.8273 1.41252 17.2153C1.43964 17.237 1.48588 17.252 1.54724 17.262C1.73128 17.2919 2.05124 17.2767 2.3986 17.2601L2.39886 17.2601L2.39892 17.2601C2.46896 17.2568 2.5401 17.2534 2.61148 17.2503C3.11122 17.2287 3.62186 17.2222 3.83784 17.3541C3.84816 17.3604 3.85832 17.367 3.86832 17.3736C4.01844 17.474 4.13456 17.6142 4.25582 17.6896L4.50426 17.9592C2.52324 18.9274 1.3833 22.2355 2.35444 24.1792C2.41144 24.2918 2.4721 24.4028 2.53492 24.5124C2.55644 24.5187 2.57752 24.5253 2.59828 24.5319L2.59832 24.5319L2.59837 24.5319C2.73047 24.5736 2.8492 24.611 2.98432 24.5132C3.98762 23.7868 4.96096 22.8778 5.97742 22.1748C6.46556 22.3034 7.25768 22.5541 7.46448 23.0363C7.90546 24.0653 6.78476 25.0013 5.76126 25.8561C5.29398 26.2463 4.84696 26.6197 4.57808 26.9772C8.63366 29.2827 12.2457 26.7317 12.5058 22.2662C12.6622 22.1653 12.7411 22.1207 12.9077 22.0382C13.0779 22.0882 13.1649 22.1335 13.2284 22.1666C13.3438 22.2266 13.3815 22.2462 13.6991 22.1807C14.1595 22.3948 14.1975 22.9443 14.8135 23.0269C15.1613 22.9224 15.3557 22.728 15.6429 22.5007C16.1902 22.7652 16.4701 22.8778 16.907 23.3052C16.6579 23.9431 16.3765 24.4247 16.1463 25.1174L16.1464 25.1174L16.1464 25.1175C16.8333 25.4573 17.6795 25.9337 18.3656 26.2165C18.7069 25.7145 19.1534 25.1007 19.412 24.5665C19.8088 24.6257 20.2283 24.7054 20.6258 24.7741C20.6273 24.8334 20.6281 24.9063 20.6291 24.9891C20.6343 25.4165 20.6425 26.1043 20.7572 26.5134C20.78 26.5948 20.8071 26.6651 20.8392 26.7202C20.8564 26.7499 20.8751 26.7751 20.8954 26.7953C21.4486 26.9882 22.3167 27.0313 22.8757 26.8669C23.1629 26.6579 23.171 25.7218 23.2974 25.2395L23.3193 25.1577L24.3664 24.983C24.7523 25.3674 25.2484 25.9725 25.6087 26.3912C26.2817 26.1376 27.0461 25.6867 27.6043 25.2344C27.6006 25.2249 27.5969 25.2155 27.5932 25.2062C27.5376 25.0656 27.4849 24.9359 27.4359 24.8155C27.4166 24.768 27.3979 24.722 27.3798 24.6774C27.3401 24.5792 27.3035 24.4876 27.2708 24.4016C26.9376 23.526 27.0029 23.2343 28.178 22.5051C28.7121 22.8595 29.1645 23.032 29.7491 23.2804C30.1977 22.7083 30.9248 21.8372 31.2683 21.2336L31.2682 21.2336L31.2682 21.2335C30.954 20.8711 30.0911 20.1916 29.6329 19.7385C29.7439 19.3088 29.8864 18.8521 30.0114 18.4225C30.5302 18.2975 31.6767 18.2449 31.9296 17.797C32.1224 17.4572 31.8708 16.0119 31.7519 15.3289C31.7342 15.2275 31.7195 15.143 31.7096 15.0813L31.7096 15.0812C31.5455 15.0965 31.3939 15.113 31.2532 15.1283C30.2485 15.2375 29.7979 15.2865 29.3063 14.4182C29.2361 14.2942 29.165 14.1514 29.0914 13.9874C29.7995 13.4341 29.9003 13.2739 30.3665 12.5102L30.3665 12.5101C30.1158 12.1507 29.084 10.9855 28.6946 10.9578C28.5689 11.0367 28.4432 11.1106 28.3117 11.1788L28.3117 11.1789C26.2605 13.0626 25.0629 13.922 22.1224 13.8019C22.023 13.7983 21.9229 13.7926 21.8235 13.785C21.3303 14.4103 20.5944 15.1338 20.0222 15.7209L15.8592 19.9095C15.2016 20.5752 14.2684 21.4791 13.6992 22.1806C13.3815 22.2461 13.3438 22.2265 13.2285 22.1665C13.165 22.1335 13.078 22.0882 12.9078 22.0381C12.7412 22.1207 12.6622 22.1653 12.5059 22.2661C12.5417 22.0177 12.6045 21.8101 12.7675 21.6143C15.439 18.4086 18.6726 15.4936 21.4026 12.3599C24.2992 12.7339 25.4458 12.4506 27.5393 10.3066C28.718 8.92188 29.1849 6.33044 28.1129 4.78156C27.7638 5.00252 27.3906 5.32584 27.0028 5.66182L27.0027 5.66188C25.8476 6.66264 24.563 7.77558 23.3983 6.63006C22.8741 6.11488 22.895 5.43058 22.9154 4.7612C22.9161 4.73908 22.9168 4.717 22.9174 4.69492C23.5225 3.99446 25.0007 2.8726 25.7965 2.07624C24.1626 0.434138 20.6287 0.821638 19.1936 2.48664C18.8377 2.90008 17.8749 4.31036 17.6964 4.40906C17.731 4.49636 17.7517 4.5138 17.7545 4.53378C17.7564 4.54686 17.7507 4.56104 17.7363 4.59664C17.731 4.60974 17.7245 4.62574 17.7168 4.64564C17.2959 5.73604 17.2104 6.95316 17.3521 8.09202C16.7208 8.80346 15.8446 9.60076 15.1409 10.2747C13.8694 11.4984 12.5892 12.7122 11.2994 13.9161C10.3224 14.8355 9.11454 16.0386 8.0557 16.86C7.71298 17.126 6.59934 17.0851 6.15066 17.2115C5.70492 17.3379 4.92814 17.8706 4.50432 17.959L4.25586 17.6894C4.98806 17.4365 5.74218 16.7957 6.48826 16.3711C5.91756 15.655 5.5617 14.9972 5.37974 14.0904C4.09146 7.69106 10.5431 2.69536 16.2845 6.42336C16.6806 5.56392 16.9415 5.16624 17.523 4.41762C17.2658 4.02712 16.7704 3.68136 16.416 3.25258C16.4241 3.21302 16.4352 3.16154 16.4482 3.1007C16.4626 3.03346 16.4795 2.9548 16.4976 2.86824C16.6239 2.26224 16.8074 1.26852 16.6075 1.08924C16.0359 0.576278 14.872 0.290558 13.94 0.124998C13.6673 0.0765778 13.4146 0.0384378 13.2022 0.00789781C12.9146 -0.0335222 12.6962 0.0911178 12.524 0.308078C12.2371 0.669678 12.0786 1.2877 11.9418 1.82076ZM22.1684 2.0315C23.0285 1.98066 23.2309 1.98576 24.0632 2.24138C23.3727 2.92278 22.5674 3.54442 21.9477 4.28986C21.9309 4.37476 21.9156 4.4599 21.9002 4.5451C21.6123 6.18992 22.4943 7.97438 24.2481 8.23714C25.3673 8.40476 26.215 7.66716 27.0391 6.9501C27.2803 6.74022 27.5195 6.53208 27.7629 6.34892C27.7754 6.95946 27.7483 7.42516 27.5817 8.01552C27.2134 9.27384 26.3621 10.3351 25.2134 10.9668C23.7497 11.7622 22.4176 11.6281 20.8925 11.1773C18.9254 13.5477 16.6988 15.7195 14.5534 17.9359C13.5018 19.0232 12.31 20.1295 11.4353 21.3659C11.4295 23.9871 11.0933 25.4201 8.46852 26.6097C7.81736 26.7288 7.19512 26.7158 6.54568 26.7022C6.4656 26.7005 6.3851 26.6989 6.30408 26.6974C7.02458 25.9835 7.83352 25.5158 8.48972 24.8538C9.03778 22.7112 8.13824 21.4332 6.03372 20.9757C4.98728 21.29 3.93504 22.3554 3.09102 23.0876C2.88424 20.728 3.699 19.203 5.9621 18.3195C6.64196 18.0541 7.2687 18.0684 7.9591 18.0842C8.0538 18.0864 8.14972 18.0886 8.24712 18.0901C9.37904 17.2745 11.99 14.751 13.0693 13.6971C14.72 12.0854 16.8764 10.1867 18.427 8.55728C17.9192 5.67438 19.0343 2.66388 22.1684 2.0315ZM18.8545 10.1743L18.9912 10.2285C19.0645 10.4467 19.0499 10.7287 19.0367 10.983L19.0367 10.9831C19.0338 11.0381 19.031 11.0918 19.0292 11.1432C18.9824 11.2163 18.9364 11.2899 18.8845 11.3599C18.3262 12.119 11.9863 18.4603 11.5793 18.5202L11.4485 18.4186C11.2688 18.2338 11.1029 18.0233 10.9363 17.8246L15.7964 13.0639C16.5659 12.3077 18.058 10.7653 18.8545 10.1743ZM26.406 14.3371C26.2927 14.1789 26.2313 14.0958 26.0757 13.9817C25.8835 14.1228 25.6475 14.2856 25.4648 14.4326C29.2653 18.9735 22.9247 24.3349 18.9218 20.5124C18.5827 20.1887 18.468 19.5742 17.9426 19.4806C17.7014 19.6297 17.7891 19.5333 17.6554 19.7686C17.6498 19.9809 17.7121 20.09 17.8047 20.2523L17.8047 20.2523C17.8217 20.2821 17.8397 20.3137 17.8585 20.348C18.6813 21.5106 19.8184 22.3276 21.2411 22.5388C25.7651 23.2103 29.136 18.139 26.406 14.3371ZM25.027 17.2884C24.9605 15.9036 23.8776 15.0856 22.579 14.9263C22.0953 15.4024 19.5289 17.7159 19.5056 18.128C19.4822 18.5467 19.8592 18.9428 20.1376 19.2102C20.6828 19.7342 21.2316 20.0681 21.993 20.1697C22.932 20.1317 23.6488 19.9578 24.3226 19.2212C24.8056 18.6965 25.0592 18.0009 25.027 17.2884Z" fill="rgb(255,255,255)" fill-rule="evenodd" />
	</g>
</svg>
