<svg viewBox="0 0 32 30.1245" xmlns="http://www.w3.org/2000/svg" xmlns:xlink="http://www.w3.org/1999/xlink" width="32.000000" height="30.124512" fill="none" customFrame="#000000">
	<g id="Группа 7">
		<path id="Вектор 1" d="M0.56718 0.0393993C7.33106 -0.069846 14.2091 0.0883984 20.9969 0.0361928C23.4399 0.016905 26.744 -0.0714541 29.1567 0.148645C29.7214 0.243436 31.6786 1.67649 31.7916 2.16729C32.0879 3.45496 31.9781 5.74512 31.9828 7.06331L31.9885 14.9564C31.9843 19.0049 32.0239 23.0543 31.9764 27.1028C31.9612 28.3945 31.874 28.3905 30.7654 28.8548L30.7287 29.9625C30.3733 30.1962 25.7042 30.1079 25.0185 30.1087L14.5328 30.1047L6.93569 30.1087C5.35691 30.1087 3.5586 30.1368 1.99389 30.0468L1.94674 28.1013L1.04561 27.8362C0.910503 25.9043 1.0167 22.4574 1.0179 20.4412L1.03999 3.98914C1.03204 3.03002 0.733459 3.69836 0.140235 3.10795C-0.0316675 2.45166 -0.0279732 1.34393 0.0573364 0.655521C0.0985448 0.323765 0.306193 0.208891 0.56718 0.0393993ZM3.59949 27.8547C3.57612 28.0587 3.55081 28.2017 3.56985 28.4097C3.88851 28.5559 26.6275 28.466 28.559 28.4612L28.5932 27.9663C28.4409 27.8057 28.3911 27.8274 28.087 27.8274C23.5925 27.8298 19.0866 27.8354 14.5925 27.8314L7.57036 27.8298C6.33861 27.8306 4.80739 27.7928 3.59949 27.8547ZM2.00658 1.49094C1.99429 1.79698 1.92931 2.00905 2.07221 2.22674C2.45554 2.31912 4.03511 2.28217 4.56672 2.28217L9.841 2.28056L21.8249 2.27976C24.0245 2.28056 26.4609 2.32956 28.6461 2.25807C28.6434 1.88053 28.7067 1.79859 28.5428 1.52547C28.1645 1.41061 25.1829 1.46442 24.6167 1.46523L16.5444 1.46764L7.13522 1.46281C5.56456 1.46202 3.55338 1.409 2.00658 1.49094ZM28.5691 26.6843L28.5713 10.9922L28.5647 6.39417C28.564 5.49128 28.5331 4.28475 28.6283 3.40757C25.1053 3.44452 21.5819 3.44452 18.0588 3.40757L18.0437 11.2516C18.0511 13.7828 18.149 17.0192 18.0363 19.4869C18.0881 19.9632 18.0574 21.3874 18.0573 21.9064L18.0527 26.6891C21.5251 26.7228 25.0965 26.714 28.5691 26.6843ZM2.31625 3.41077L2.30797 26.6883L12.4649 26.6891C13.2125 26.6907 16.353 26.7566 16.9187 26.669C16.9235 19.0218 16.8002 11.054 16.9332 3.43729C12.1851 3.3931 6.99995 3.55376 2.31625 3.41077Z" fill="rgb(255,255,255)" fill-rule="nonzero" />
		<path id="Вектор 2" d="M5.46223 11.9183C6.60546 11.8436 6.89826 12.2388 7.62483 13.0204C10.1015 13.2381 8.47992 11.0106 12.1774 13.1417C12.7517 12.2854 12.8878 12.1191 13.8699 11.8621C14.5155 12.0115 15.1091 12.3312 15.5884 12.789C15.8387 13.0276 15.9488 13.1778 15.9568 13.5224C15.8271 13.8189 15.8926 13.7176 15.5813 13.9128C14.6798 14.4639 14.2204 14.3587 13.1675 14.3129C12.5292 13.8952 12.1589 13.7441 11.4468 14.0454C9.84823 14.7209 9.19428 14.0863 7.78677 13.9233C7.23042 13.859 5.88251 14.6543 4.94234 14.1835C4.19674 13.8108 4.16099 13.4453 4.37049 12.6629C4.50697 12.2902 5.11007 12.0709 5.46223 11.9183Z" fill="rgb(255,255,255)" fill-rule="nonzero" />
		<path id="Вектор 3" d="M12.3715 5.48156C13.3542 5.48397 14.3369 5.48076 15.3196 5.47192C15.3079 6.15713 15.4333 10.0723 15.216 10.3792C14.6445 10.4812 12.9318 10.5631 12.4058 10.3438C12.1416 9.79679 12.3368 6.26396 12.3715 5.48156Z" fill="rgb(255,255,255)" fill-rule="nonzero" />
		<path id="Вектор 4" d="M13.1819 6.37482L14.4953 6.34912L14.5112 8.29387L13.1783 8.3019C13.1609 7.66329 13.1748 7.01424 13.1819 6.37482Z" fill="rgb(255,255,255)" fill-rule="nonzero" />
		<path id="Вектор 5" d="M8.4193 5.48643C9.38059 5.47197 10.342 5.47197 11.3032 5.48643C11.2751 6.53471 11.4132 9.66993 11.2219 10.4676C10.3163 10.478 9.20933 10.5029 8.32403 10.4186C8.31503 9.42653 8.23776 6.28891 8.4193 5.48643Z" fill="rgb(255,255,255)" fill-rule="nonzero" />
		<path id="Вектор 6" d="M9.2202 6.36694L10.4883 6.39666L10.4916 8.29643L9.2157 8.3141L9.2202 6.36694Z" fill="rgb(255,255,255)" fill-rule="nonzero" />
		<path id="Вектор 7" d="M4.463 5.49217C5.43859 5.47852 6.41426 5.47852 7.38984 5.49217C7.36269 6.44727 7.46937 9.76403 7.28003 10.45C6.57459 10.4613 5.1233 10.5689 4.52068 10.3577C4.305 9.92549 4.35801 5.96611 4.463 5.49217Z" fill="rgb(255,255,255)" fill-rule="nonzero" />
		<path id="Вектор 8" d="M5.24321 6.29535C5.69185 6.29134 6.17671 6.31624 6.62791 6.3307L6.63763 8.30356L5.21582 8.31561C5.21558 7.64728 5.23333 6.96449 5.24321 6.29535Z" fill="rgb(255,255,255)" fill-rule="nonzero" />
		<path id="Вектор 9" d="M12.6423 15.248C13.4425 15.309 14.8548 14.8929 15.4522 15.4657C15.5577 15.705 15.5087 15.8207 15.463 16.0802C14.7925 16.0914 12.7141 16.3139 12.4414 15.7564C12.4911 15.4713 12.4824 15.489 12.6423 15.248Z" fill="rgb(255,255,255)" fill-rule="nonzero" />
		<path id="Вектор 10" d="M4.65582 15.2095C5.33861 15.1967 6.65985 15.1019 7.26263 15.3477C7.384 15.3975 7.37228 15.4698 7.42682 15.62C7.34625 15.8851 7.34103 15.8674 7.14977 16.0747C6.51718 16.0891 4.65798 16.3213 4.37097 15.7052C4.41106 15.4224 4.45684 15.416 4.65582 15.2095Z" fill="rgb(255,255,255)" fill-rule="nonzero" />
		<path id="Вектор 11" d="M9.40349 15.2217C9.94852 15.204 11.1857 15.0546 11.524 15.5253C11.4648 15.8771 11.5057 15.9864 11.1567 16.0852C10.4959 16.0852 9.2291 16.2675 8.77717 15.89C8.66664 15.592 8.68263 15.7422 8.73645 15.4217C8.98249 15.2184 9.02587 15.2763 9.40349 15.2217Z" fill="rgb(255,255,255)" fill-rule="nonzero" />
		<path id="Вектор 12" d="M22.5517 5.49206C23.6268 5.49126 24.7019 5.47841 25.7757 5.52821C25.0475 6.88897 24.1649 8.3421 23.3735 9.67556L26.177 9.66512C25.4081 10.8146 24.5472 12.4782 23.7874 13.7225C23.4725 14.2551 23.0991 14.9282 22.7156 15.4142C22.5468 15.6279 22.4117 15.5749 22.1438 15.5789C21.469 15.1363 23.0412 12.5706 22.7568 11.7834C22.286 11.5127 21.3747 11.5842 20.7976 11.585C21.4248 9.6868 21.8598 7.49785 22.5517 5.49206Z" fill="rgb(255,255,255)" fill-rule="nonzero" />
		<path id="Вектор 13" d="M19.0572 15.4594C19.4693 15.4465 19.8624 15.461 20.2736 15.4722C20.3354 16.5768 20.3334 18.356 20.2671 19.4437C19.8652 19.4742 19.461 19.4549 19.0574 19.4453C18.9584 18.4066 19.0267 16.5334 19.0572 15.4594Z" fill="rgb(255,255,255)" fill-rule="nonzero" />
		<path id="Вектор 14" d="M18.0363 19.4869C18.0364 19.4878 17.9582 19.3215 17.9557 19.2837C17.7963 16.8176 17.7164 14.2905 17.8332 11.8188C17.8438 11.5947 17.9517 11.4091 18.0437 11.2517C18.0511 13.7829 18.149 17.0193 18.0363 19.4869Z" fill="rgb(255,255,255)" fill-rule="nonzero" />
	</g>
</svg>
