<svg viewBox="0 0 25 25" xmlns="http://www.w3.org/2000/svg" xmlns:xlink="http://www.w3.org/1999/xlink" width="25.000000" height="25.000000" fill="none" customFrame="url(#clipPath_2)">
	<defs>
		<clipPath id="clipPath_2">
			<rect width="25.000000" height="25.000000" x="0.000000" y="0.000000" rx="3.000000" fill="rgb(255,255,255)" />
		</clipPath>
	</defs>
	<rect id="Frame 32" width="25.000000" height="25.000000" x="0.000000" y="0.000000" rx="3.000000" />
	<g id="Группа 3">
		<path id="Убрать верхний слой" d="M5.31883 5.47527C4.36801 5.6062 4.39447 6.07102 4.49162 6.83316C4.347 6.83638 4.18361 6.82986 4.01178 6.82301C3.409 6.79898 2.70215 6.7708 2.33575 7.14399C1.88846 7.59981 1.95708 8.44033 2.45646 8.83305C2.77307 9.08695 3.01335 9.08117 3.39483 9.07201C3.40237 9.07183 3.40996 9.07164 3.41761 9.07146C3.43001 9.76407 3.43415 10.4568 3.43084 11.1495C2.51144 11.1225 2.23984 11.5153 2.00586 12.3304C2.2787 13.2671 2.55113 13.305 3.4358 13.5607L3.42836 15.3529C2.17742 15.3897 1.53583 16.66 2.46432 17.5844C2.72724 17.8463 3.28781 17.7082 3.34899 18.0131C3.35064 18.1413 3.3556 18.4902 3.46763 18.5598C3.76197 18.7428 4.58463 18.7898 4.91163 18.7097C5.44409 18.5792 5.96828 18.1326 6.435 17.8383C7.34139 17.8189 8.24919 17.8673 9.15633 17.9157C9.63811 17.9414 10.1197 17.9671 10.6008 17.9826C12.6182 18.0476 14.6616 18.2127 16.6769 18.255C16.6755 18.3192 16.6728 18.3847 16.6701 18.451C16.6567 18.7775 16.6426 19.1213 16.7708 19.3998C17.0143 19.5725 17.9572 19.6288 18.2235 19.5509C19.1003 19.2942 19.9998 18.601 20.8704 18.1988C21.0804 18.2678 21.2793 18.3359 21.4943 18.3901C22.7517 18.0678 22.7091 17.3188 22.6553 16.3738C22.636 16.0348 22.6153 15.6706 22.6526 15.2919L22.6551 15.2189C23.202 15.1084 23.2217 15.3614 23.2403 15.6002C23.2516 15.7463 23.2626 15.887 23.3934 15.9359C23.7923 15.8668 24.5542 15.2733 24.9176 15.0111C24.9997 14.9518 24.9997 14.9298 24.9996 14.8704C24.9996 14.858 24.9996 14.8441 25.0003 14.8278C24.9242 14.7034 23.5236 13.7712 23.2987 13.6178L23.2706 14.2791L22.6278 14.247C22.5798 13.6021 22.6001 11.8573 22.6361 11.1952C22.4955 11.2787 22.3128 11.3702 22.1656 11.4492C22.1602 12.3425 22.1619 13.2357 22.1714 14.1289C21.5691 14.4944 21.2326 14.6192 20.6203 15.0574C20.4446 14.96 19.8936 14.6896 19.8121 14.5421C19.87 14.3736 19.8212 14.4368 19.9444 14.3327C20.0943 14.323 20.294 14.4509 20.4598 14.5571C20.4994 14.5825 20.537 14.6066 20.5715 14.6273C20.9945 14.3727 21.4161 14.0912 21.8312 13.8218C21.831 13.6821 21.8316 13.5375 21.8322 13.3901L21.8322 13.3899C21.8344 12.8408 21.8368 12.2541 21.8006 11.7418C21.3475 11.9277 20.932 12.2029 20.5004 12.4462C20.3157 12.3209 19.2859 11.7372 19.2561 11.693C19.2545 11.6523 19.2513 11.6202 19.2487 11.5933C19.2408 11.5146 19.2374 11.4798 19.2913 11.4031C19.5356 11.4787 20.2102 11.9 20.4298 12.0549C21.0751 11.7295 21.6881 11.3695 22.3223 11.0246C22.4913 10.9326 22.5269 10.9442 22.6507 10.9844C22.6667 10.9896 22.6843 10.9954 22.7039 11.0014C22.831 10.9733 23.0235 11.0288 23.1799 11.0738C23.2137 11.0835 23.2458 11.0928 23.2752 11.1006C23.2759 11.1263 23.2767 11.1517 23.2774 11.177C23.2854 11.4479 23.2928 11.6986 23.2785 11.9732C23.6038 11.7942 24.8217 11.1366 24.9412 10.8746C24.9296 10.7737 24.9221 10.7017 24.8167 10.631C24.2801 10.2715 23.8085 9.994 23.295 9.58949L23.2686 10.2381C23.2387 10.2388 23.2091 10.2397 23.1797 10.2405C22.9596 10.2465 22.7521 10.2522 22.5282 10.2357C22.5285 10.0748 22.5279 9.9069 22.5272 9.73649C22.5256 9.3524 22.5241 8.95561 22.5344 8.59767C22.5769 7.0891 22.4047 7.0892 21.5766 7.08965C21.3737 7.08976 21.1316 7.0899 20.8436 7.06789C20.8208 6.78103 20.8432 6.22671 20.6026 6.04551C19.9601 5.56171 18.3834 5.48511 17.7799 6.06908C17.6283 6.21545 17.6642 6.48456 17.692 6.69328C17.6942 6.71004 17.6964 6.72641 17.6984 6.74229C17.4396 6.74523 17.2203 6.72942 16.9945 6.71315C16.8583 6.70333 16.7197 6.69333 16.5686 6.68719L14.4194 6.61501C12.9427 6.57293 11.4665 6.51389 9.99105 6.43795C9.67521 6.42439 7.67024 6.42013 7.49082 6.26589C7.46105 6.00955 7.46974 5.87027 7.24113 5.7076C6.72231 5.33807 5.92073 5.39243 5.31883 5.47527ZM5.58801 5.85849C5.88731 5.84208 6.81084 5.83733 6.9394 6.13134C6.79678 6.28177 6.60373 6.29178 6.40116 6.32352C6.10517 6.34812 5.23166 6.37838 5.0601 6.10285L5.09689 6.02199C5.26597 5.9131 5.39206 5.9012 5.58801 5.85849ZM18.6534 6.10841C19.0226 6.08191 19.844 6.05471 20.1379 6.3006L20.1433 6.38195C20.037 6.49295 19.9432 6.50262 19.7948 6.54541C19.5033 6.57811 18.3805 6.65083 18.3314 6.28811C18.4244 6.16661 18.5066 6.15744 18.6534 6.10841ZM6.62939 6.78344C6.64643 6.78021 6.6624 6.77686 6.67763 6.77368C6.7585 6.75677 6.81831 6.74426 6.90389 6.77616L6.9072 6.85065C6.58847 7.08947 6.14159 7.09708 5.76498 7.0717C5.60582 6.99902 5.60458 7.02751 5.51653 6.90551L5.56035 6.84917C5.79722 6.80687 6.30901 6.81684 6.62939 6.78344ZM7.45075 6.79953C9.9485 6.91408 12.4471 7.01065 14.9465 7.08928C15.5984 7.11268 16.2516 7.12856 16.9035 7.15353C16.9365 7.15479 16.9768 7.15538 17.0216 7.15604C17.2456 7.15934 17.5834 7.16431 17.6985 7.26287C17.8258 7.79859 17.9812 7.74712 18.4889 7.91161C17.4919 8.38708 17.4571 8.38467 16.6613 8.32962C16.5256 8.32023 16.3678 8.30931 16.1792 8.29897L14.1714 8.20174L9.32014 8.01306C9.05603 8.0021 8.79017 7.99038 8.52321 7.97862L8.5232 7.97862C7.38323 7.92841 6.22334 7.87731 5.09521 7.87966C4.96582 7.9 4.93729 7.89466 4.82402 7.96201C4.75575 8.20408 4.76795 9.86949 4.77393 10.6849C4.77508 10.8422 4.776 10.9679 4.77607 11.0456L4.76697 18.1842L3.91868 18.1585C3.8843 17.2499 3.89444 16.294 3.90456 15.3399C3.91245 14.5963 3.92032 13.8539 3.90711 13.1358C3.88954 12.1769 3.90007 11.1915 3.91053 10.2116C3.91681 9.62355 3.92307 9.03754 3.92323 8.46048C3.92323 8.36139 3.95382 8.06011 4.00715 8.0093C4.43816 7.59763 5.11569 7.60002 5.77681 7.60236C6.36805 7.60444 6.94614 7.60648 7.32301 7.31227C7.46374 7.20225 7.45832 7.03988 7.45274 6.87272C7.45193 6.84838 7.45112 6.82393 7.45075 6.79953ZM18.221 7.00286C19.0096 7.1275 19.1885 7.11068 19.5866 7.07326C19.7397 7.05887 19.9251 7.04144 20.19 7.02783L20.2136 7.0886L20.157 7.21654C19.5319 7.46504 18.6977 7.58066 18.221 7.00286ZM3.01623 7.26522C3.03202 7.26435 3.04819 7.26339 3.06466 7.26242C3.31785 7.2475 3.64489 7.22822 3.8145 7.4238C3.76737 7.54327 3.58217 7.60384 3.4226 7.72393C3.32148 7.92296 3.3392 8.21336 3.35421 8.45921C3.35675 8.5008 3.35921 8.54111 3.36101 8.57949C3.01623 8.58338 2.77894 8.56234 2.60077 8.22463C2.51437 8.06242 2.50279 7.8706 2.56935 7.69921C2.66484 7.4539 2.7868 7.36043 3.01623 7.26522ZM21.82 7.62558C21.557 7.6265 21.2692 7.62751 21.0259 7.58822C20.6464 7.84668 20.4728 7.96098 20.0151 8.06268C19.839 8.10175 19.8237 8.07818 19.739 8.18558C19.8113 8.46533 20.0127 8.48716 20.259 8.39679C20.7683 8.20977 21.1049 7.85321 21.639 7.71476C21.7006 8.31791 21.6873 9.34892 21.6621 9.96629C21.3004 10.2818 21.047 10.4195 20.6055 10.6224L20.5228 10.6187C20.3731 10.524 20.1346 10.3541 19.9738 10.315C19.8461 10.3989 19.8994 10.3441 19.8316 10.5044C19.8754 10.6591 20.4095 10.9607 20.5976 11.0852C21.0424 10.829 21.5869 10.5351 22.0123 10.2669C21.9876 9.86208 21.9911 9.42476 21.9946 8.99269L21.9946 8.99254L21.9946 8.9924L21.9946 8.99226L21.9946 8.99212C21.9985 8.51289 22.0024 8.04012 21.9676 7.62535C21.9196 7.62523 21.8703 7.62541 21.82 7.62558L21.82 7.62558ZM16.7435 8.76068C12.956 8.65948 9.11264 8.37217 5.33915 8.27258L5.33791 9.14121C6.65458 9.15783 8.0097 9.24485 9.32885 9.30752L14.2685 9.52121C15.0573 9.55602 15.9614 9.62729 16.739 9.63894C16.7398 9.57004 16.7409 9.50025 16.7419 9.43002L16.7419 9.42996C16.7454 9.20655 16.7489 8.97866 16.7435 8.76068ZM18.1503 8.53675C18.1665 8.56414 18.1601 11.9116 18.1545 14.8438L18.1545 14.8447L18.1545 14.8451C18.1506 16.8466 18.1472 18.6543 18.1515 19.0802C17.901 19.0482 17.5939 19.0325 17.3376 19.0132L17.2355 18.9748C17.187 18.8859 17.1956 13.1418 17.1998 10.3038C17.2008 9.57956 17.2016 9.04456 17.2011 8.84109C17.6026 8.80827 17.7857 8.70223 18.1503 8.53675ZM19.3677 9.83857C20.0288 9.44928 19.7931 8.64621 18.9601 8.66585C18.3888 9.04502 18.543 9.97975 19.3677 9.83857ZM6.80089 9.554C6.64352 9.5481 6.4716 9.53767 6.29596 9.52701L6.29595 9.52701L6.29593 9.52701C5.96911 9.50718 5.62942 9.48657 5.34656 9.49294L5.34201 10.1031L11.4677 10.3674C12.5285 10.4047 13.5889 10.455 14.6484 10.5181C15.3169 10.5519 16.0866 10.5709 16.7427 10.6449C16.7427 10.5821 16.743 10.5183 16.7434 10.454L16.7434 10.4539L16.7434 10.4538L16.7434 10.4536C16.7442 10.3098 16.745 10.1641 16.7419 10.0243C14.8092 9.86752 12.6401 9.83403 10.6831 9.73387C9.38958 9.66417 8.09565 9.60423 6.80089 9.554ZM5.34534 10.4768C5.87174 10.4748 6.53918 10.5121 7.16035 10.5467C7.44214 10.5625 7.71442 10.5777 7.95967 10.5884L13.6278 10.8345C14.6914 10.883 15.6708 10.9739 16.7444 10.9834C16.7488 11.1452 16.7458 11.3125 16.7428 11.4773L16.7428 11.4774C16.7419 11.5292 16.7409 11.5808 16.7402 11.6319C14.6203 11.5102 12.5 11.4006 10.3793 11.3033C8.71784 11.2217 7.03656 11.1159 5.37676 11.0532C5.35527 10.8617 5.35237 10.6694 5.34534 10.4768ZM5.3606 11.4361C9.13533 11.5674 12.9845 11.8882 16.7431 11.979L16.7468 12.6179C15.7852 12.5204 14.5141 12.494 13.5298 12.4489L9.60165 12.2556C8.22173 12.196 6.75417 12.153 5.3821 12.043L5.3606 11.4361ZM3.01662 11.6451C3.03464 11.644 3.05117 11.6429 3.06659 11.6418C3.18208 11.6339 3.23446 11.6303 3.37049 11.6564C3.43622 11.7843 3.44284 12.7102 3.32957 12.8873C3.23467 12.9557 3.15818 12.9525 3.05168 12.9479C3.03153 12.9471 3.01031 12.9462 2.98769 12.9457C2.43705 12.5852 2.3523 11.9043 3.01662 11.6451ZM7.80329 12.5323L7.8033 12.5323C8.1969 12.5577 8.56918 12.5818 8.87906 12.5964L16.7456 12.9649L16.7423 13.597L5.3751 13.0421L5.38461 12.4293C6.01954 12.4171 6.96031 12.4778 7.80329 12.5323ZM19.4195 13.8332C19.9986 13.3687 19.7502 12.642 18.9143 12.7167C18.3756 13.0769 18.5571 14.0028 19.4195 13.8332ZM5.41029 13.4207C9.16808 13.5296 12.9771 13.8344 16.7366 13.9744L16.7485 14.5803L8.8295 14.1877C7.70341 14.1342 6.54052 14.0394 5.41938 14.0309L5.41029 13.4207ZM7.72289 14.5035L7.72293 14.5035C7.98705 14.5194 8.24436 14.5349 8.4875 14.5477L13.8885 14.7978C14.8278 14.8438 15.8112 14.9386 16.7459 14.9481L16.7397 15.5795C14.6157 15.5146 12.3643 15.3573 10.2378 15.2339L5.40438 14.9821L5.42257 14.411C6.12582 14.4075 6.95326 14.4573 7.72287 14.5035L7.72289 14.5035ZM22.393 15.1115C21.7514 15.3207 21.0366 15.8312 20.4244 16.0562C20.0738 15.8159 19.6625 15.6614 19.2875 15.4499L19.2379 15.4822C19.2365 15.5003 19.2349 15.5167 19.2335 15.5319C19.2241 15.6336 19.2199 15.6795 19.2764 15.7877C19.5877 15.9346 20.3264 16.3067 20.5914 16.4784C20.9502 16.2675 21.4223 15.9748 21.7935 15.8108C21.7945 15.8711 21.7958 15.932 21.797 15.9932L21.797 15.9932L21.797 15.9934C21.8019 16.2336 21.8068 16.4789 21.7989 16.7142C21.5897 16.8033 21.2458 16.9157 21.1817 17.1493C21.3998 17.2566 21.8084 17.0724 22.0774 16.9511C22.1194 16.9321 22.1581 16.9147 22.1921 16.9002C22.1599 16.5699 22.1615 16.1892 22.163 15.8349C22.1633 15.7471 22.1637 15.6609 22.1635 15.5775C22.3405 15.4634 22.4604 15.384 22.6526 15.2918L22.6551 15.2189C22.6401 15.2079 22.6257 15.1965 22.6116 15.1853C22.5428 15.1308 22.4819 15.0825 22.393 15.1115ZM5.37348 15.3571C6.51694 15.3854 7.7162 15.4896 8.86504 15.543C11.4777 15.6643 14.1144 15.8517 16.7262 15.9457C16.7405 16.0965 16.74 16.2658 16.7395 16.4261L16.7395 16.4261C16.7394 16.4699 16.7393 16.5131 16.7394 16.555C15.1491 16.5254 13.3041 16.3686 11.6956 16.2789L5.38216 15.9858L5.37348 15.3571ZM2.97283 15.9428C2.99824 15.9411 3.02248 15.9391 3.04592 15.9372C3.16247 15.9275 3.25909 15.9196 3.3792 15.9585C3.41516 16.2496 3.40773 16.9361 3.37548 17.2261C3.27091 17.2693 3.16687 17.2642 3.05297 17.2587C3.02458 17.2573 2.99558 17.2559 2.9658 17.2552C2.78473 17.1577 2.67684 17.0847 2.59127 16.8871C2.51189 16.7071 2.50817 16.5025 2.58176 16.3199C2.66733 16.1085 2.77316 16.0277 2.97283 15.9428ZM8.29403 16.4716L8.29398 16.4716C7.3137 16.4098 6.11651 16.3343 5.38337 16.3545L5.38178 16.3712C5.35911 16.6089 5.34423 16.7648 5.34989 17.0081L12.0461 17.3579C13.5629 17.4232 15.2251 17.4591 16.7249 17.5915C16.7483 17.3143 16.7383 17.2219 16.71 16.9581L16.7076 16.9355L9.15397 16.5237C8.90537 16.5102 8.61104 16.4916 8.29403 16.4716ZM19.0429 16.8843C19.1111 16.8865 19.2045 16.89 19.2706 16.9032C19.4302 16.9363 19.5666 17.0398 19.6415 17.1846C19.8436 17.5671 19.6716 18.0027 19.3037 18.2106C18.9262 18.2277 18.8672 18.1446 18.6536 17.8435L18.651 17.8398C18.6496 17.7867 18.6476 17.737 18.6458 17.6902C18.6301 17.2928 18.6227 17.1064 19.0429 16.8843Z" fill="rgb(67,69,75)" fill-rule="evenodd" />
		<path id="Вектор 160" d="M1.17676 12.9453C1.49879 13.0502 2.71543 14.1631 3.00232 14.4472C2.57983 14.8768 1.99157 15.1971 1.50665 15.6581C1.37478 15.7542 1.34377 15.7954 1.21107 15.7102C1.08622 15.458 1.14369 15.122 1.16353 14.8344C0.750545 14.8253 0.414453 14.8039 0.00436006 14.77C-0.00183688 14.4431 -0.00142812 14.116 0.00560146 13.7891C0.392955 13.7893 0.779895 13.7865 1.16725 13.7806C1.16436 13.5334 1.12012 13.1662 1.17676 12.9453Z" fill="rgb(67,69,75)" fill-rule="nonzero" />
		<path id="Вектор 161" d="M1.21931 8.63214C1.59674 8.78113 2.59593 9.6899 3.06927 10.0278C2.51076 10.437 2.14821 10.6241 1.59302 11.0933L1.11845 11.4196C1.19988 10.9708 1.20567 10.8145 1.2189 10.3577C0.980781 10.3281 0.251138 10.3753 0.184577 10.2546C-0.4628 9.08109 0.916293 9.39672 1.21476 9.39474C1.20733 9.1214 1.20112 8.90548 1.21931 8.63214Z" fill="rgb(67,69,75)" fill-rule="nonzero" />
	</g>
</svg>
