<svg viewBox="0 0 18.1667 32" xmlns="http://www.w3.org/2000/svg" xmlns:xlink="http://www.w3.org/1999/xlink" width="18.166718" height="32.000000" fill="none" customFrame="#000000">
	<g id="Группа 5">
		<path id="Убрать верхний слой" d="M12.189 0.454416C10.9573 0.0825561 8.52294 -0.122104 7.2511 0.0786161C6.35588 0.197356 4.96792 0.370356 4.37772 1.12188C3.95693 1.65766 3.98271 2.39483 4.00651 3.0753C4.01075 3.19657 4.01492 3.31603 4.0165 3.43224C2.07326 4.076 0.0479594 5.20546 0.0274794 7.52382C-0.0126708 12.0867 -0.000394338 16.6533 0.0118761 21.2177C0.0139634 21.9942 0.0160505 22.7705 0.0178794 23.5468C0.0198794 24.3963 0.163159 24.811 0.738159 25.4275C0.736858 25.6141 0.722798 25.9425 0.705274 26.3518C0.636312 27.9626 0.513701 30.8266 0.903839 31.23C1.33348 31.6744 3.15246 32.0566 3.7634 31.9931C4.16732 31.9516 4.94822 31.7836 5.17154 31.391C5.4119 30.9689 5.39302 29.8005 5.38036 29.0172C5.37723 28.8232 5.37448 28.6529 5.37614 28.5233C6.01908 28.5517 7.10078 28.5579 7.6327 28.9235C7.81727 29.1744 7.84433 29.4447 7.86854 29.6866C7.92637 30.2646 7.96797 30.6803 10.1023 30.2803C10.1452 29.8767 10.1839 29.4571 10.2329 29.0555C10.3269 28.8675 10.3352 28.7639 10.5612 28.6982C11.204 28.5109 11.8752 28.4908 12.5346 28.3526C12.7108 29.3769 12.5657 30.3266 12.7309 31.3178C13.9425 32.5197 16.363 31.9191 17.4689 30.883C17.4703 30.7001 17.4732 30.48 17.4765 30.2343C17.495 28.8608 17.5241 26.6882 17.3459 25.7531C18.1908 24.1901 18.1832 23.7838 18.1586 22.4593C18.1538 22.203 18.1484 21.9123 18.1484 21.5721L18.1463 17.4872L18.1477 11.0754C18.1478 10.9215 18.1509 10.7122 18.1546 10.4656C18.1748 9.1203 18.2117 6.66536 17.8636 6.05264L17.8014 5.94156C16.8628 4.28688 15.5585 4.26152 14.5632 3.31922C14.4851 3.24544 14.4756 2.99255 14.4631 2.66041C14.4325 1.84528 14.3839 0.552819 13.2603 0.259156C13.1048 0.219536 12.9479 0.183456 12.791 0.151056C12.5926 0.248156 12.3797 0.347136 12.189 0.454416ZM7.60884 0.840396C9.05166 0.719076 10.5972 0.882416 12.0085 1.20408L11.9968 2.3923C11.099 2.7976 10.5833 2.84102 9.5984 2.95312C8.85608 2.98028 4.6344 2.91608 4.97466 1.64188C5.50364 1.074 6.87688 0.912556 7.60884 0.840396ZM12.9251 0.979016C13.6957 1.10792 13.666 1.5482 13.5706 2.22598C13.4794 2.24072 13.4128 2.25552 13.36 2.26722C13.2033 2.30202 13.1693 2.30956 12.979 2.20738C12.8561 1.97242 12.8847 1.57484 12.9093 1.232L12.9094 1.23172C12.9158 1.1425 12.9219 1.05698 12.9251 0.979016ZM4.72292 2.86036C8.00866 4.0248 10.0698 3.78772 13.3633 2.93514L12.9064 3.46168C12.0859 4.32782 9.68548 4.56558 8.57406 4.489C7.0879 4.3865 5.35038 4.47634 4.72292 2.86036ZM4.0784 4.39454C4.39642 4.50534 4.87362 4.87726 5.31688 5.01654C7.12826 5.58552 9.13322 5.64848 11.0008 5.3584C11.5586 5.27164 12.0666 5.03422 12.7136 4.94694C12.8974 5.20958 12.8096 5.3053 13.1068 5.50444C13.6534 5.61303 13.8295 5.09969 13.9826 4.65361L13.9826 4.6536L13.9826 4.65356L13.9827 4.65346C14.0092 4.57604 14.0351 4.50066 14.0621 4.4309C16.571 5.47832 18.8616 7.27448 14.971 8.72196C11.4197 9.81064 6.30332 9.65408 2.74926 8.58966C1.82896 8.3141 0.764039 7.75846 1.2279 6.64662C1.71056 5.48972 3.02006 4.88812 4.0784 4.39454ZM1.1498 8.63576C2.29634 9.27462 3.61794 9.67032 4.9164 9.83316C8.82912 10.324 13.3101 10.4334 16.9159 8.6797L16.9229 17.5018C16.923 17.829 16.9243 18.1593 16.9255 18.4914L16.9255 18.4918C16.9297 19.6481 16.9341 20.8255 16.8938 21.9653C16.8856 22.1927 16.7998 22.3413 16.683 22.5293C14.1319 24.8531 3.00052 25.1911 1.1677 22.0725C1.10604 20.9725 1.11788 19.6037 1.12866 18.3596C1.1323 17.9386 1.13582 17.5319 1.13632 17.1547L1.1498 8.63576ZM17.2042 23.0491C17.1054 23.6283 17.0625 23.864 16.8621 24.4079L16.8185 24.4695C14.66 27.5093 3.86098 27.3268 1.41508 24.39C1.08844 23.9974 1.0377 23.5771 0.970999 23.0926C1.44854 23.4285 2.04158 23.8177 2.58822 24.0236C6.26262 25.4088 14.1167 25.5678 17.2042 23.0491ZM3.1701 30.6121C2.80916 30.487 2.2567 30.346 1.87606 30.2361C1.84383 29.5348 1.8556 28.5511 1.86645 27.6436C1.87196 27.1827 1.87724 26.7414 1.8764 26.3668C2.34662 26.6627 2.73092 26.8437 3.23652 27.0649C3.23698 27.2123 3.23904 27.3996 3.24138 27.6118C3.25184 28.5629 3.2678 30.0142 3.1701 30.6121ZM14.7116 27.6239C14.7135 27.4719 14.7149 27.3548 14.7152 27.2889C15.3021 27.0207 15.6836 26.8479 16.2276 26.512L16.3029 26.5431C16.39 27.2121 16.3644 29.4523 16.3361 30.1649L16.267 30.196C15.7548 30.4338 15.414 30.5015 14.8645 30.639L14.765 30.6466C14.6769 30.4721 14.7011 28.4858 14.7116 27.6239Z" fill="rgb(254,254,254)" fill-rule="evenodd" />
		<path id="Вектор 80" d="M3.04429 10.7952C3.27203 10.7772 3.41905 10.7431 3.63041 10.8274C3.71384 11.1354 3.69207 13.4112 3.6931 13.8885L3.68066 22.8378L3.06143 22.7479C2.95042 18.9816 3.02155 14.5858 3.04429 10.7952Z" fill="rgb(255,255,255)" fill-rule="nonzero" />
	</g>
</svg>
