<svg viewBox="0 0 25 25" xmlns="http://www.w3.org/2000/svg" xmlns:xlink="http://www.w3.org/1999/xlink" width="25.000000" height="25.000000" fill="none" customFrame="url(#clipPath_5)">
	<defs>
		<clipPath id="clipPath_5">
			<rect width="25.000000" height="25.000000" x="0.000000" y="0.000000" rx="3.000000" fill="rgb(255,255,255)" />
		</clipPath>
	</defs>
	<rect id="Frame 32" width="25.000000" height="25.000000" x="0.000000" y="0.000000" rx="3.000000" />
	<g id="Группа 8">
		<path id="Убрать верхний слой" d="M3.43905 6.95245C3.18416 6.44828 2.81191 5.71197 2.9066 5.61283C3.24127 5.26094 4.62408 4.20634 5.08308 4.09171C5.37275 4.20741 6.00674 5.09939 6.31358 5.38623C6.92794 5.25347 7.27807 5.21509 7.748 4.77842C7.85991 4.29964 7.87148 3.68757 8.10815 3.27756C8.55574 3.00352 9.87426 3.09629 10.4074 3.16241C10.5983 3.18479 10.8222 3.60706 10.8308 3.77127C10.8931 5.02954 11.1992 5.12711 12.4516 5.43795C12.8493 5.18576 13.6715 4.17222 13.929 4.17115C14.3059 4.36682 15.827 5.45981 16.1128 5.76531C16.1395 6.01736 15.9102 6.50945 15.7124 6.93411C15.6294 7.1122 15.552 7.27843 15.5013 7.41012C15.6778 7.68684 15.9998 8.06752 16.2424 8.28771C16.5905 8.37568 18.5483 8.26479 18.9487 8.20614C19.0991 7.61806 19.4862 7.04811 20.1574 7.05397C20.5338 7.05504 20.8942 7.20592 21.1592 7.47357C21.6183 7.93956 21.7494 8.96803 21.2221 9.35084C20.2331 10.069 19.5293 9.6862 18.9002 8.93604C18.7973 8.93388 18.7014 8.92875 18.6115 8.92394C18.125 8.89791 17.8151 8.88134 17.5262 9.39616L17.5262 9.3962C17.4782 9.36531 17.4413 9.33849 17.4101 9.31573C17.3188 9.2493 17.275 9.21738 17.1392 9.21977C16.4695 9.71881 15.6933 10.7329 15.0391 11.225C15.0021 11.225 14.9622 11.225 14.92 11.2251C14.5227 11.2255 13.9153 11.2262 13.5457 11.1925C13.519 11.2154 13.4918 11.2389 13.4652 11.2618C13.4182 11.3587 13.4005 11.3912 13.397 11.4253C13.395 11.4451 13.3978 11.4654 13.4025 11.4993C13.4052 11.5189 13.4085 11.5431 13.4118 11.5742C13.661 11.891 14.5567 11.8472 15.2236 11.8145L15.2236 11.8145L15.2236 11.8145C15.4502 11.8035 15.6504 11.7937 15.7898 11.7998C16.179 11.8163 16.9041 11.8349 17.2661 11.7816C17.3893 11.6729 17.3989 11.683 17.4468 11.53C17.2853 11.2287 16.7735 11.2554 16.4466 11.2245C16.3943 10.9966 16.8277 10.5884 17.1526 10.2823C17.2747 10.1673 17.3815 10.0667 17.4415 9.99552L17.4415 9.99544C17.8936 9.93092 18.246 10.0461 18.6187 10.2929C18.4555 10.7813 18.3462 11.1231 18.1095 11.5773C19.4989 11.5987 20.8894 11.6045 22.2794 11.5949C22.4543 10.7717 23.0695 10.2546 23.9285 10.4529C24.3129 10.5393 24.6424 10.7851 24.8349 11.1284C25.5781 12.4832 23.6528 14.2048 22.2426 12.2417C22.1766 12.2414 22.0723 12.2405 21.939 12.2393L21.939 12.2393C20.9018 12.2305 18.1039 12.2068 17.8243 12.3254C17.6731 12.5008 17.675 12.5542 17.6825 12.7581C17.6836 12.7872 17.6848 12.8193 17.6857 12.8553L17.6856 12.8554C17.6713 12.8282 17.6582 12.8023 17.6457 12.7778C17.5195 12.5301 17.4624 12.418 17.0986 12.4471C16.9232 12.4614 16.4593 12.4534 15.9192 12.444L15.9192 12.444L15.9191 12.444L15.9191 12.444L15.919 12.444C14.914 12.4265 13.6455 12.4045 13.4821 12.5137C13.4791 12.5368 13.4762 12.5571 13.4736 12.5753C13.4561 12.6983 13.452 12.7271 13.5109 12.8752C13.6847 12.9779 13.9757 12.9608 14.2371 12.9456L14.2371 12.9456C14.3341 12.9399 14.4271 12.9344 14.5085 12.9355C14.8519 12.9399 15.1962 12.9379 15.5408 12.936L15.5408 12.936C16.1811 12.9323 16.822 12.9286 17.4596 12.9663C16.9839 13.0064 16.8889 13.1115 16.5719 13.4807C16.9115 13.8076 17.2042 14.096 17.4825 14.4799C17.5313 14.4801 17.5816 14.4802 17.633 14.4802C17.7082 14.4802 17.7859 14.48 17.8653 14.4798C18.3563 14.4786 18.9123 14.4773 19.3406 14.5188C19.7431 13.887 20.4426 13.2963 21.1965 13.7857C21.5159 13.9899 21.7372 14.3167 21.8081 14.6894C22.112 16.3273 19.9393 16.7592 19.3534 15.1271C19.3128 15.1267 19.2532 15.1256 19.1796 15.1243L19.1795 15.1243C18.6698 15.1153 17.4886 15.0943 17.3018 15.1735C16.8241 14.6526 16.3096 14.2085 15.8015 13.6359C15.0204 13.6193 14.2398 13.6135 13.4587 13.6183L13.4742 14.3183C13.5911 14.3183 13.7103 14.3176 13.8304 14.317L13.8305 14.317C14.1218 14.3153 14.4183 14.3136 14.6999 14.3215C15.0961 14.6206 16.2824 16.0095 16.8155 16.5192C17.0128 16.4339 17.5406 16.1951 17.7347 16.1514C19.1396 16.0559 20.0518 17.2913 19.1145 18.2685C18.8911 18.5042 18.5803 18.637 18.2551 18.6359C17.9272 18.6343 17.6569 18.5453 17.426 18.3107C17.1648 18.0446 17.1845 17.4928 16.9051 17.4208C16.8145 17.3979 16.5996 17.3643 16.5052 17.335L16.5051 17.335C16.0913 16.7356 14.9462 15.3677 14.4211 14.914L13.4854 14.9028C13.1884 15.7559 12.9368 15.8572 12.0741 15.8673C12.0706 15.9896 12.0792 16.1287 12.0882 16.2734L12.0882 16.2734C12.1147 16.7002 12.1442 17.1763 11.8747 17.4188C11.8235 17.4263 11.7898 17.433 11.7657 17.4377C11.737 17.4434 11.7219 17.4464 11.7073 17.4449C11.6819 17.4423 11.658 17.4262 11.566 17.3874C11.3714 17.1323 11.3982 16.5902 11.4199 16.1519C11.4253 16.0414 11.4305 15.9375 11.4316 15.8465L10.6932 15.855L10.69 17.4631C10.6577 17.4643 10.6254 17.4662 10.5932 17.4682C10.4299 17.478 10.2694 17.4876 10.1376 17.4039C9.969 17.1696 9.99363 16.6671 10.0149 16.2334L10.0149 16.2334L10.0149 16.2334C10.0216 16.0967 10.0279 15.9669 10.0278 15.8545L9.30004 15.8556C9.29726 15.9763 9.30611 16.1166 9.31542 16.2641L9.31542 16.2641C9.34361 16.7111 9.376 17.2247 9.10224 17.462C9.05352 17.4676 9.02003 17.4729 8.9955 17.4768C8.96237 17.482 8.94558 17.4846 8.92966 17.482C8.90242 17.4775 8.87772 17.4576 8.77808 17.4087C8.59801 17.1596 8.62652 16.5734 8.64792 16.1331C8.65313 16.0259 8.65793 15.9273 8.65918 15.8444L7.90518 15.8513L7.91451 17.4567L7.27898 17.4311C7.27209 17.0788 7.27466 16.7135 7.2772 16.3525C7.27832 16.1933 7.27943 16.035 7.27972 15.879C6.58341 15.7975 6.35436 15.7633 6.1178 15.0281L6.09466 14.954C5.99994 14.9039 5.81737 14.9066 5.612 14.9095C5.39951 14.9126 5.16263 14.916 4.97341 14.8618C4.87782 14.6709 4.90613 14.5856 5.0117 14.4123C5.25421 14.2741 5.60807 14.2971 5.92755 14.3178C6.00006 14.3225 6.0708 14.3271 6.13806 14.3297L6.13006 13.5678C6.0913 13.5684 6.03725 13.5699 5.97332 13.5716L5.97329 13.5716C5.65687 13.5802 5.09867 13.5954 4.95657 13.5475C4.90115 13.3852 4.90164 13.3532 4.90365 13.2216C4.90395 13.2019 4.90429 13.18 4.90448 13.1551C5.02685 12.9309 5.19047 12.9598 5.39121 12.9953C5.58388 13.0293 5.81074 13.0694 6.06816 12.8976C6.16007 12.7659 6.15107 12.6493 6.13945 12.4988C6.1371 12.4684 6.13464 12.4365 6.13289 12.4028C5.65539 12.3948 5.37265 12.4065 4.89733 12.4535L4.92474 11.8094C4.97905 11.8094 5.05216 11.8107 5.13602 11.8122C5.47515 11.8183 5.9902 11.8277 6.1499 11.7657L6.13123 11.1061C6.05711 11.1066 5.97442 11.1093 5.88748 11.1121C5.57944 11.122 5.21787 11.1337 4.99346 11.0555C4.91948 10.9816 4.89256 10.9655 4.88182 10.9421C4.87072 10.9178 4.8769 10.8856 4.86625 10.7735C5.03558 10.456 5.44238 10.4866 5.81679 10.5146C5.92914 10.5231 6.03857 10.5313 6.13779 10.5298C6.15896 9.60582 6.26229 9.14943 7.28074 9.13291L7.27397 7.76054L7.91435 7.74934L7.91355 9.15157L8.66025 9.15157L8.65811 7.72268C8.72321 7.72285 8.78948 7.72256 8.85616 7.72226L8.85619 7.72226C9.00519 7.7216 9.15619 7.72093 9.30058 7.72535L9.30217 9.1553L10.0427 9.14624C10.0418 9.06443 10.0369 8.9705 10.0317 8.87054C10.0113 8.47932 9.98619 7.99581 10.1718 7.7856C10.3104 7.72107 10.3179 7.72254 10.4409 7.74658C10.4551 7.74935 10.4708 7.75243 10.4885 7.75574C10.77 7.99177 10.7279 8.43761 10.6903 8.83526C10.6799 8.94512 10.6698 9.0513 10.6671 9.14837L11.4311 9.14997L11.4338 7.77281C11.6412 7.784 11.864 7.79146 12.0693 7.81012L12.0746 9.1425C13.1159 9.14997 13.4262 9.40535 13.479 10.5287L14.9271 10.525C15.3269 10.1075 16.5255 8.87112 16.7238 8.41154L16.687 8.37262C16.5068 8.43286 16.4652 8.44246 16.276 8.43979C15.8734 8.66265 15.5429 9.13451 15.0881 9.42988C13.5691 7.75308 12.4505 6.56465 9.94677 6.43243C8.29716 6.34446 6.68119 6.92134 5.46025 8.03406C4.26015 9.13024 3.60222 10.5229 3.53286 12.1479C3.44841 13.8018 4.04107 15.4189 5.17437 16.6271C7.51714 19.1265 11.3709 19.2342 13.8474 16.9011C14.1316 16.634 14.3923 16.3109 14.6509 16.0166C15.1467 16.3706 15.4277 16.795 15.842 17.1314L15.842 17.1314L15.8424 17.1349C15.8482 17.1816 15.8517 17.2102 15.8522 17.234C15.8524 17.2419 15.8522 17.2494 15.8517 17.2568C15.8496 17.2871 15.8415 17.317 15.8254 17.3808C15.2885 17.341 15.1619 17.4745 14.8685 17.7837C14.8202 17.8346 14.7674 17.8903 14.7074 17.9508C14.7885 18.2458 14.9228 18.5198 15.0481 18.7755C15.3856 19.4643 15.6584 20.021 14.6541 20.502C14.2563 20.6928 13.8 21.0447 13.3771 21.2708C13.1495 21.0469 12.5715 20.1314 12.2719 19.7598C11.8742 19.8142 11.6454 19.8963 11.2935 20.0658C11.1309 20.5409 11.0462 21.5011 10.6996 21.7736C10.3931 22.0143 8.91265 21.8669 8.458 21.8216L8.45797 21.8216L8.43056 21.8189C8.35003 21.5974 8.31174 21.331 8.27362 21.0659C8.18236 20.431 8.09211 19.8032 7.42544 19.8163C6.78916 19.8286 6.33447 20.7904 5.83789 21.2569C5.27007 20.9669 4.00881 20.2994 3.58996 19.8771C3.7465 19.401 4.03824 18.7329 4.2505 18.2909C3.98237 17.8372 3.69702 17.3744 3.28024 17.0503C3.18388 17.0751 3.05845 17.1129 2.91798 17.1552C2.44367 17.298 1.79796 17.4924 1.52117 17.4155C1.33728 17.1596 0.562917 15.4438 0.363566 15.0312C0.537555 14.9165 0.696669 14.8156 0.841294 14.7238C1.96528 14.0104 2.21417 13.8524 1.76947 12.1585C1.11773 11.8839 0.600985 11.6509 0 11.2809C0.233315 10.5403 0.429734 9.46494 0.728945 8.78089C0.837238 8.53334 1.3162 8.60449 1.7824 8.67375C2.09637 8.72039 2.40455 8.76617 2.58985 8.71318C3.02203 8.58948 3.40756 7.77107 3.64311 7.37013C3.60991 7.29042 3.53234 7.13699 3.43905 6.95245L3.43905 6.95245ZM20.0801 7.87562C20.2752 7.80685 20.4917 7.8495 20.6458 7.98759C20.7994 8.12515 20.866 8.33628 20.8185 8.53728C20.7716 8.73828 20.6181 8.8977 20.4192 8.95262C20.126 9.03366 19.821 8.86785 19.7298 8.5778C19.6381 8.28723 19.7933 7.97692 20.0801 7.87562ZM10.8086 9.81952L10.8084 9.81952C9.50729 9.8161 8.19536 9.81266 6.9156 9.83509C6.89859 11.5961 6.89449 13.3572 6.90328 15.1188C8.67035 15.1481 10.7774 15.1763 12.5438 15.1252C12.5598 13.3572 12.563 11.5892 12.5523 9.82176C11.9759 9.82259 11.3933 9.82106 10.8086 9.81952ZM24.2142 11.6265C24.1401 11.3114 23.824 11.1163 23.5094 11.1925C23.198 11.2677 23.0056 11.5801 23.0786 11.892C23.1511 12.2039 23.462 12.3985 23.7744 12.3282C24.0906 12.2567 24.2878 11.9422 24.2142 11.6265ZM21.1347 14.7422C21.0472 14.4639 20.7503 14.3093 20.472 14.3983C20.1963 14.4863 20.0433 14.7806 20.1297 15.0573C20.2166 15.3335 20.5103 15.4881 20.787 15.4033C21.0659 15.3175 21.2221 15.021 21.1347 14.7422ZM18.0994 16.8583C18.3863 16.7709 18.6907 16.9303 18.7824 17.216C18.8741 17.5018 18.7195 17.8079 18.4353 17.9038C18.2471 17.9673 18.0402 17.9246 17.8926 17.7924C17.7454 17.6596 17.6804 17.4586 17.7235 17.2651C17.7662 17.0716 17.9102 16.9164 18.0994 16.8583Z" fill="rgb(67,69,75)" fill-rule="evenodd" />
	</g>
</svg>
