<svg viewBox="0 0 36 35.9924" xmlns="http://www.w3.org/2000/svg" xmlns:xlink="http://www.w3.org/1999/xlink" width="36.000000" height="35.992432" fill="none" customFrame="#000000">
	<path id="Vector" d="M24.7452 6.74856C24.7452 7.75383 24.5272 8.7099 24.1265 9.57457L27.8383 15.9858C26.1722 17.7644 24.0281 19.086 21.6169 19.7538L17.9965 13.4972L13.2162 21.7573C14.7276 22.2354 16.3304 22.4955 18.0035 22.4955C22.9736 22.4955 27.4095 20.1967 30.2988 16.5904C31.0791 15.6203 32.4921 15.4656 33.4622 16.2389C34.4323 17.0122 34.587 18.4322 33.8137 19.4023C30.0949 24.028 24.3937 26.9946 17.9965 26.9946C15.5079 26.9946 13.1178 26.5447 10.9174 25.7222L6.93849 32.5974C6.60808 33.1668 6.11599 33.6308 5.52548 33.9261L1.63093 35.8733C1.27944 36.0491 0.864675 36.028 0.534271 35.8241C0.203866 35.6203 0 35.2547 0 34.8681L0 30.9735C0 30.383 0.154657 29.7995 0.456942 29.2793L4.67487 21.9893C3.77504 21.202 2.93849 20.3373 2.19332 19.4023C1.41301 18.4322 1.57469 17.0192 2.54482 16.2389C3.51494 15.4586 4.92794 15.6203 5.70826 16.5904C6.10896 17.0895 6.53779 17.5605 6.9877 18.0034L11.8664 9.57457C11.4728 8.71692 11.2478 7.76086 11.2478 6.74856C11.2478 3.02273 14.2707 -0.00012207 17.9965 -0.00012207C21.7223 -0.00012207 24.7452 3.02273 24.7452 6.74856ZM26.2214 27.6906C28.5132 26.7907 30.6151 25.5254 32.471 23.9718L35.5431 29.2793C35.8383 29.7925 36 30.376 36 30.9735L36 34.8681C36 35.2547 35.7961 35.6203 35.4657 35.8241C35.1353 36.028 34.7206 36.0491 34.3691 35.8733L30.4745 33.9261C29.884 33.6308 29.3919 33.1668 29.0615 32.5974L26.2214 27.6906ZM17.9965 8.99812C18.5931 8.99812 19.1653 8.76111 19.5872 8.33924C20.009 7.91736 20.246 7.34518 20.246 6.74856C20.246 6.15194 20.009 5.57975 19.5872 5.15788C19.1653 4.73601 18.5931 4.499 17.9965 4.499C17.3999 4.499 16.8277 4.73601 16.4058 5.15788C15.9839 5.57975 15.7469 6.15194 15.7469 6.74856C15.7469 7.34518 15.9839 7.91736 16.4058 8.33924C16.8277 8.76111 17.3999 8.99812 17.9965 8.99812Z" fill="rgb(255,255,255)" fill-rule="nonzero" />
</svg>
