<svg viewBox="0 0 26 18" xmlns="http://www.w3.org/2000/svg" xmlns:xlink="http://www.w3.org/1999/xlink" width="26.000000" height="18.000000" fill="none" customFrame="#000000">
	<path id="Union" d="M9.70711 1.70711C10.0976 1.31658 10.0976 0.683417 9.70711 0.292893C9.31658 -0.0976311 8.68342 -0.0976311 8.29289 0.292893L0.292893 8.29289C-0.0976311 8.68342 -0.0976311 9.31658 0.292893 9.70711L8.29289 17.7071C8.68342 18.0976 9.31658 18.0976 9.70711 17.7071C10.0976 17.3166 10.0976 16.6834 9.70711 16.2929L3.41421 10L25 10C25.5523 10 26 9.55229 26 9C26 8.44771 25.5523 8 25 8L3.41421 8L9.70711 1.70711Z" fill="rgb(255,46,23)" fill-rule="nonzero" transform="matrix(-1,0,0,1,26,0)" />
</svg>
