<svg viewBox="0 0 20 20" xmlns="http://www.w3.org/2000/svg" xmlns:xlink="http://www.w3.org/1999/xlink" width="20.000000" height="20.000000" fill="none" customFrame="#000000">
	<path id="Vector" d="M16.8109 12.4938C16.111 11.7677 15.2011 11.7677 14.472 12.4938C13.9237 13.0397 13.3812 13.5799 12.833 14.1259C12.6813 14.2769 12.5588 14.306 12.378 14.2188C12.0455 14.0097 11.6489 13.8587 11.3164 13.6438C9.73574 12.6448 8.40003 11.3727 7.21598 9.92647C6.63853 9.20042 6.12525 8.44534 5.75778 7.56828C5.69945 7.38822 5.69945 7.29529 5.85111 7.14427C6.42855 6.62733 6.94184 6.08715 7.49012 5.54116C8.24838 4.78608 8.24838 3.90902 7.49012 3.15393C7.03516 2.70088 6.60937 2.27687 6.18357 1.85286C5.72862 1.39981 5.30282 0.946761 4.84786 0.522751C4.14793 -0.17425 3.23801 -0.17425 2.50891 0.522751C1.96063 1.06874 1.41818 1.60891 0.8699 2.1549C0.350782 2.67184 0.0824733 3.27591 0.0183126 3.9671C-0.0750121 5.08811 0.199129 6.17427 0.595759 7.23139C1.41818 9.43857 2.66057 11.3437 4.14793 13.1269C6.18357 15.5489 8.61002 17.4541 11.4389 18.8132C12.7163 19.4173 14.0228 19.8994 15.4169 19.9923C16.4201 20.0504 17.2717 19.7832 17.9658 19.0223C18.4208 18.4764 18.9691 18.0233 19.4532 17.5122C20.1823 16.7571 20.1823 15.851 19.4532 15.1249C18.5724 14.2479 17.6917 13.3708 16.8109 12.4938Z" fill="rgb(255,255,255)" fill-rule="nonzero" />
</svg>
