<svg viewBox="0 0 10 10" xmlns="http://www.w3.org/2000/svg" xmlns:xlink="http://www.w3.org/1999/xlink" width="10.000000" height="10.000000" fill="none" customFrame="#000000">
	<path id="Vector" d="M9.67939 8.11614L6.55933 4.99861L9.67939 1.88108C10.1069 1.45318 10.1069 0.752987 9.67939 0.32509C9.24636 -0.108363 8.55239 -0.108363 8.11936 0.32509L5.00486 3.44262L1.8848 0.32509C1.45177 -0.102806 0.757807 -0.108363 0.324774 0.32509C-0.102706 0.758544 -0.102706 1.45318 0.324774 1.88108L3.44483 4.99861L0.324774 8.11614C-0.108258 8.54404 -0.108258 9.24424 0.324774 9.67213C0.541291 9.88886 0.824427 9.99444 1.10201 9.99444C1.3796 9.99444 1.66829 9.88886 1.87925 9.67213L5.00486 6.56016L8.12491 9.67769C8.34143 9.89442 8.61902 10 8.90215 10C9.18529 10 9.46843 9.89442 9.67939 9.67769C10.1069 9.24424 10.1069 8.54404 9.67939 8.11614Z" fill="rgb(255,46,23)" fill-rule="nonzero" />
</svg>
