<svg viewBox="0 0 13.334 10" xmlns="http://www.w3.org/2000/svg" xmlns:xlink="http://www.w3.org/1999/xlink" width="13.333984" height="10.000000" fill="none" customFrame="#000000">
	<g id="eye">
		<path id="Shape" d="M6.71667 0C2.5 0 0 5 0 5C0 5 2.5 10 6.71667 10C10.8333 10 13.3333 5 13.3333 5C13.3333 5 10.8333 0 6.71667 0ZM6.66667 8.33333C4.83333 8.33333 3.33333 6.85 3.33333 5C3.33333 3.16667 4.83333 1.66667 6.66667 1.66667C8.51667 1.66667 10 3.16667 10 5C10 6.85 8.51667 8.33333 6.66667 8.33333ZM8.33333 5C8.33333 5.925 7.59167 6.66667 6.66667 6.66667C5.74167 6.66667 5 5.925 5 5C5 4.075 5.74167 3.33333 6.66667 3.33333C7.59167 3.33333 8.33333 4.075 8.33333 5Z" fill="rgb(133,135,139)" fill-rule="evenodd" />
	</g>
</svg>
