<svg viewBox="0 0 16.6667 20" xmlns="http://www.w3.org/2000/svg" xmlns:xlink="http://www.w3.org/1999/xlink" width="16.666656" height="20.000000" fill="none" customFrame="#000000">
	<path id="Vector" d="M16.6316 9.36564C16.351 11.2546 15.5092 12.8638 14.1764 14.1931C13.4048 14.8927 12.7033 15.6623 11.9317 16.3619C10.8093 17.5513 9.68694 18.8106 8.56458 20C6.17955 17.5513 3.86466 15.4524 1.69008 13.1436C0.427414 11.7444 -0.0636221 9.92534 0.00652587 8.03634C0.0766738 3.97849 3.23333 0.480348 7.16162 0.0605707C11.5809 -0.42917 15.3689 2.08949 16.4913 6.21731C16.7719 7.05686 16.6316 9.22571 16.6316 9.36564ZM8.35413 11.0447C9.82724 11.0447 11.0899 9.85538 11.0899 8.38616C11.0899 6.91693 9.82724 5.6576 8.42428 5.6576C7.02132 5.6576 5.68851 6.91694 5.68851 8.31619C5.68851 9.78541 6.88102 11.0447 8.35413 11.0447Z" fill="rgb(67,69,75)" fill-rule="nonzero" />
</svg>
