<svg viewBox="0 0 213.013 90" xmlns="http://www.w3.org/2000/svg" xmlns:xlink="http://www.w3.org/1999/xlink" width="213.013184" height="90.000000" fill="none">
	<rect id="Ресурс 1 1" width="213.013153" height="90.000000" x="0.000000" y="0.000000" fill="rgb(255,255,255)" fill-opacity="0" />
	<g id="Слой 1">
		<g id="Group">
			<g id="Group">
				<path id="Vector" d="M123.261 18.9979L128.927 2.33293L122.784 2.33293L123.461 0.341919L138.135 0.341919L137.458 2.33293L131.316 2.33293L125.65 18.9979L123.261 18.9979Z" fill="rgb(255,255,255)" fill-rule="nonzero" />
				<path id="Vector" d="M136.232 18.9979L142.575 0.341919L154.123 0.341919L153.446 2.33293L144.287 2.33293L142.296 8.19309L150.032 8.19309L149.345 10.2123L141.61 10.2123L139.308 16.9818L148.752 16.9818L148.066 19.001L136.236 19.001L136.232 18.9979Z" fill="rgb(255,255,255)" fill-rule="nonzero" />
				<path id="Vector" d="M151.59 18.9979L160.441 9.35634L158.303 0.341919L160.921 0.341919L161.912 5.12035C162.015 5.53736 162.112 5.95438 162.197 6.37139C162.282 6.78841 162.385 7.27127 162.501 7.81997L162.614 7.81997C163.066 7.27127 163.464 6.78841 163.802 6.37139C164.141 5.95438 164.499 5.53736 164.868 5.12035L169.051 0.341919L171.553 0.341919L163.244 9.47235L165.58 19.001L162.962 19.001L161.858 13.9655C161.768 13.5108 161.67 13.0405 161.57 12.5576C161.47 12.0748 161.354 11.548 161.225 10.9805L161.112 10.9805C160.654 11.548 160.219 12.0748 159.808 12.5576C159.397 13.0405 158.99 13.5108 158.591 13.9655L154.092 19.001L151.59 19.001L151.59 18.9979Z" fill="rgb(255,255,255)" fill-rule="nonzero" />
				<path id="Vector" d="M169.365 18.9979L175.708 0.341919L178.097 0.341919L175.438 8.16487L183.23 8.16487L185.889 0.341919L188.278 0.341919L181.935 18.9979L179.546 18.9979L182.534 10.2092L174.742 10.2092L171.754 18.9979L169.365 18.9979Z" fill="rgb(255,255,255)" fill-rule="nonzero" />
				<path id="Vector" d="M192.598 19.3395C191.194 19.3395 190.087 18.9507 189.269 18.1731C188.453 17.3955 187.986 16.2824 187.873 14.8307C187.76 13.3821 188.052 11.6325 188.748 9.58507C189.432 7.57525 190.319 5.85389 191.413 4.42412C192.507 2.99122 193.724 1.89695 195.06 1.13817C196.399 0.37939 197.769 0 199.173 0C200.578 0 201.688 0.37939 202.513 1.13817C203.334 1.89695 203.808 2.99122 203.927 4.42412C204.046 5.85702 203.764 7.57525 203.08 9.58507C202.384 11.6325 201.487 13.3821 200.387 14.8307C199.286 16.2824 198.063 17.3955 196.718 18.1731C195.373 18.9507 194 19.3395 192.595 19.3395L192.598 19.3395ZM193.304 17.2638C194.727 17.2638 196.101 16.5803 197.427 15.2163C198.753 13.8524 199.822 11.9743 200.635 9.58507C201.434 7.23349 201.628 5.39611 201.218 4.06668C200.807 2.74038 199.888 2.07567 198.468 2.07567C197.048 2.07567 195.677 2.74038 194.364 4.06668C193.05 5.39298 191.993 7.23349 191.194 9.58507C190.382 11.9743 190.175 13.8524 190.573 15.2163C190.971 16.5803 191.88 17.2638 193.304 17.2638Z" fill="rgb(255,255,255)" fill-rule="nonzero" />
				<path id="Vector" d="M116.103 47.8374C114.566 47.8374 113.319 47.4549 112.356 46.6867C111.393 45.9185 110.798 44.8148 110.566 43.3725C110.334 41.9302 110.566 40.1963 111.255 38.1677C111.939 36.1578 112.886 34.4333 114.096 32.991C115.306 31.5487 116.673 30.4419 118.2 29.6643C119.724 28.8867 121.295 28.4979 122.907 28.4979C124.026 28.4979 124.945 28.7268 125.66 29.1815C126.375 29.6361 126.898 30.166 127.224 30.7743L125.374 32.2824C125.073 31.7713 124.666 31.3575 124.145 31.0439C123.625 30.7304 122.979 30.5736 122.201 30.5736C121.007 30.5736 119.862 30.8809 118.774 31.4986C117.683 32.1162 116.702 32.9816 115.827 34.101C114.952 35.2203 114.253 36.556 113.723 38.1112C113.193 39.6664 112.98 41.0178 113.083 42.1654C113.187 43.3129 113.573 44.2003 114.24 44.8242C114.908 45.4513 115.839 45.7617 117.034 45.7617C117.887 45.7617 118.718 45.583 119.52 45.2224C120.326 44.8618 121.135 44.3508 121.947 43.6861L122.791 45.1378C121.762 45.9906 120.696 46.6553 119.596 47.1288C118.495 47.6022 117.329 47.8405 116.097 47.8405L116.103 47.8374Z" fill="rgb(255,255,255)" fill-rule="nonzero" />
				<path id="Vector" d="M126.541 47.4958L132.884 28.8398L144.431 28.8398L143.754 30.8309L134.596 30.8309L132.604 36.691L140.34 36.691L139.653 38.7102L131.918 38.7102L129.616 45.4797L139.06 45.4797L138.374 47.4989L126.544 47.4989L126.541 47.4958Z" fill="rgb(255,255,255)" fill-rule="nonzero" />
				<path id="Vector" d="M143.265 47.4958L149.608 28.8398L155.239 28.8398C156.622 28.8398 157.773 29.0092 158.692 29.3509C159.607 29.6927 160.219 30.2665 160.523 31.0723C160.827 31.8781 160.748 32.963 160.284 34.33C159.839 35.6375 159.184 36.7192 158.315 37.5721C157.447 38.4249 156.421 39.0614 155.236 39.4784C154.051 39.8954 152.778 40.1055 151.411 40.1055L148.141 40.1055L145.626 47.4989L143.265 47.4989L143.265 47.4958ZM148.796 38.1678L151.781 38.1678C153.411 38.1678 154.725 37.8605 155.722 37.2429C156.719 36.6283 157.444 35.6563 157.895 34.3269C158.353 32.9818 158.271 32.0474 157.654 31.5269C157.036 31.0064 155.92 30.7431 154.308 30.7431L151.323 30.7431L148.799 38.1647L148.796 38.1678Z" fill="rgb(255,255,255)" fill-rule="nonzero" />
				<path id="Vector" d="M160.244 47.4958L166.587 28.8398L171.876 28.8398C173.146 28.8398 174.209 28.9935 175.065 29.2945C175.918 29.5986 176.504 30.0815 176.818 30.7431C177.131 31.4078 177.103 32.2888 176.73 33.3894C176.413 34.3175 175.864 35.1578 175.077 35.9072C174.29 36.6565 173.29 37.1739 172.077 37.4561L172.039 37.5689C173.334 37.779 174.234 38.2525 174.742 38.9924C175.25 39.7324 175.284 40.7452 174.845 42.037C174.221 43.8775 173.105 45.2477 171.5 46.1475C169.895 47.0474 168.051 47.4989 165.963 47.4989L160.247 47.4989L160.244 47.4958ZM163.282 45.5048L166.298 45.5048C167.891 45.5048 169.224 45.2257 170.296 44.6645C171.368 44.1064 172.121 43.1908 172.55 41.9209C172.942 40.764 172.795 39.9362 172.102 39.4314C171.409 38.9297 170.249 38.6789 168.618 38.6789L165.602 38.6789L163.282 45.5048ZM166.279 36.6879L168.81 36.6879C170.403 36.6879 171.632 36.4308 172.497 35.9197C173.362 35.4086 173.974 34.631 174.328 33.5869C174.67 32.5836 174.548 31.8718 173.958 31.4548C173.369 31.0378 172.356 30.8277 170.914 30.8277L168.267 30.8277L166.276 36.6879L166.279 36.6879Z" fill="rgb(255,255,255)" fill-rule="nonzero" />
				<path id="Vector" d="M176.711 47.4958L183.054 28.8398L185.331 28.8398L182.041 38.5096C181.706 39.4972 181.323 40.4975 180.894 41.5102C180.464 42.523 180.072 43.4949 179.718 44.4262L179.774 44.4262L182.882 40.557L193.066 28.8398L195.681 28.8398L189.338 47.4958L187.061 47.4958L190.379 37.7414C190.708 36.7757 191.081 35.7974 191.501 34.8129C191.921 33.8283 192.313 32.8595 192.671 31.9126L192.614 31.9126L189.507 35.7817L179.323 47.4989L176.708 47.4989L176.711 47.4958Z" fill="rgb(255,255,255)" fill-rule="nonzero" />
				<path id="Vector" d="M201.421 47.8374C199.885 47.8374 198.637 47.4549 197.674 46.6867C196.712 45.9185 196.116 44.8148 195.884 43.3725C195.652 41.9302 195.884 40.1963 196.574 38.1677C197.257 36.1578 198.204 34.4333 199.415 32.991C200.625 31.5487 201.992 30.4419 203.519 29.6643C205.043 28.8867 206.613 28.4979 208.225 28.4979C209.344 28.4979 210.263 28.7268 210.978 29.1815C211.693 29.6361 212.217 30.166 212.543 30.7743L210.693 32.2824C210.392 31.7713 209.984 31.3575 209.464 31.0439C208.943 30.7304 208.297 30.5736 207.52 30.5736C206.325 30.5736 205.181 30.8809 204.093 31.4986C203.001 32.1162 202.02 32.9816 201.145 34.101C200.27 35.2203 199.571 36.556 199.041 38.1112C198.511 39.6664 198.298 41.0178 198.402 42.1654C198.505 43.3129 198.891 44.2003 199.559 44.8242C200.227 45.4513 201.158 45.7617 202.352 45.7617C203.205 45.7617 204.036 45.583 204.839 45.2224C205.645 44.8618 206.454 44.3508 207.266 43.6861L208.109 45.1378C207.081 45.9906 206.015 46.6553 204.914 47.1288C203.814 47.6022 202.647 47.8405 201.415 47.8405L201.421 47.8374Z" fill="rgb(255,255,255)" fill-rule="nonzero" />
			</g>
			<g id="Group">
				<path id="Vector" d="M110.976 73.6237C110.465 73.6237 110.042 73.5265 109.709 73.3383C109.377 73.1471 109.114 72.8806 108.916 72.5357L109.647 71.9399C109.819 72.2002 110.029 72.4071 110.277 72.5576C110.524 72.7113 110.844 72.7865 111.236 72.7865C111.895 72.7865 112.5 72.5513 113.058 72.0779C113.616 71.6044 114.071 70.8927 114.422 69.9489L111.271 69.9489L111.547 69.1368L114.685 69.1368C114.886 68.3436 114.867 67.7353 114.632 67.3089C114.394 66.8856 113.945 66.6724 113.29 66.6724C112.961 66.6724 112.632 66.7351 112.302 66.8605C111.973 66.9859 111.663 67.1615 111.374 67.381L111.058 66.7633C111.377 66.5187 111.766 66.3024 112.227 66.1174C112.688 65.9324 113.152 65.8352 113.616 65.8352C114.249 65.8352 114.751 65.9857 115.124 66.2804C115.497 66.5783 115.717 67.0141 115.783 67.5911C115.848 68.168 115.739 68.8797 115.45 69.7263C115.162 70.5729 114.786 71.2878 114.315 71.8678C113.848 72.4479 113.324 72.8868 112.748 73.1784C112.171 73.47 111.575 73.6205 110.967 73.6205L110.976 73.6237Z" fill="rgb(255,255,255)" fill-rule="nonzero" />
				<path id="Vector" d="M115.846 73.4852L118.401 65.9727L119.364 65.9727L118.291 69.1238L121.43 69.1238L122.502 65.9727L123.465 65.9727L120.909 73.4852L119.947 73.4852L121.151 69.9453L118.012 69.9453L116.808 73.4852L115.846 73.4852Z" fill="rgb(255,255,255)" fill-rule="nonzero" />
				<path id="Vector" d="M123.12 73.4852L125.675 65.9727L130.325 65.9727L130.052 66.7753L126.365 66.7753L125.562 69.1332L128.679 69.1332L128.403 69.9453L125.286 69.9453L124.358 72.67L128.161 72.67L127.886 73.4821L123.12 73.4821L123.12 73.4852Z" fill="rgb(255,255,255)" fill-rule="nonzero" />
				<path id="Vector" d="M129.855 73.4852L132.41 65.9727L134.677 65.9727C135.235 65.9727 135.696 66.0416 136.066 66.1796C136.436 66.3176 136.681 66.5496 136.803 66.8725C136.925 67.1986 136.894 67.6344 136.706 68.1832C136.527 68.7099 136.264 69.1457 135.912 69.4875C135.561 69.8324 135.147 70.0864 134.671 70.2557C134.194 70.425 133.68 70.5065 133.131 70.5065L131.814 70.5065L130.802 73.4852L129.852 73.4852L129.855 73.4852ZM132.084 69.7289L133.288 69.7289C133.946 69.7289 134.473 69.6035 134.875 69.3558C135.276 69.1081 135.567 68.7162 135.749 68.1832C135.934 67.6407 135.9 67.2645 135.652 67.0544C135.401 66.8443 134.953 66.7408 134.304 66.7408L133.1 66.7408L132.084 69.7321L132.084 69.7289Z" fill="rgb(255,255,255)" fill-rule="nonzero" />
				<path id="Vector" d="M137.104 73.4852L139.659 65.9727L144.24 65.9727L143.968 66.7753L140.337 66.7753L138.054 73.4883L137.104 73.4883L137.104 73.4852Z" fill="rgb(255,255,255)" fill-rule="nonzero" />
				<path id="Vector" d="M143.325 73.4856L145.88 65.9731L146.796 65.9731L145.472 69.8673C145.338 70.2655 145.184 70.6669 145.012 71.0745C144.839 71.4821 144.679 71.874 144.538 72.2471L144.56 72.2471L145.811 70.6888L149.912 65.97L150.966 65.97L148.41 73.4825L147.495 73.4825L148.831 69.5538C148.962 69.165 149.113 68.7699 149.282 68.3749C149.451 67.9798 149.608 67.5879 149.752 67.2053L149.73 67.2053L148.479 68.7637L144.378 73.4825L143.325 73.4825L143.325 73.4856Z" fill="rgb(255,255,255)" fill-rule="nonzero" />
				<path id="Vector" d="M154.082 73.4856L155.161 70.3126L153.775 70.3126L150.749 73.4856L149.649 73.4856L152.869 70.2091C152.414 70.0868 152.085 69.8517 151.881 69.5036C151.681 69.1556 151.681 68.6821 151.885 68.077C152.06 67.5565 152.314 67.1426 152.646 66.8354C152.976 66.5249 153.364 66.3055 153.807 66.1706C154.249 66.0358 154.725 65.97 155.239 65.97L157.6 65.97L155.045 73.4825L154.082 73.4825L154.082 73.4856ZM154.164 69.535L155.424 69.535L156.374 66.7413L155.114 66.7413C154.534 66.7413 154.054 66.8416 153.672 67.0392C153.289 67.2367 153.016 67.5847 152.847 68.0801C152.681 68.5693 152.712 68.933 152.944 69.1744C153.176 69.4158 153.581 69.535 154.161 69.535L154.164 69.535Z" fill="rgb(255,255,255)" fill-rule="nonzero" />
				<path id="Vector" d="M167.022 73.6234C166.405 73.6234 165.9 73.4697 165.514 73.1593C165.126 72.8489 164.887 72.4068 164.793 71.8236C164.699 71.2436 164.793 70.5444 165.069 69.726C165.345 68.9171 165.724 68.221 166.214 67.6409C166.7 67.0609 167.251 66.6125 167.866 66.3021C168.48 65.9886 169.111 65.8318 169.76 65.8318C170.211 65.8318 170.581 65.9227 170.87 66.1077C171.158 66.2896 171.368 66.5059 171.5 66.7505L170.754 67.3587C170.631 67.1518 170.468 66.9856 170.258 66.8602C170.048 66.7348 169.788 66.6721 169.474 66.6721C168.992 66.6721 168.534 66.7975 168.095 67.0452C167.656 67.2929 167.261 67.6441 166.91 68.0924C166.558 68.544 166.276 69.0801 166.063 69.7072C165.85 70.3343 165.765 70.8767 165.806 71.3408C165.847 71.8017 166.003 72.1591 166.273 72.4131C166.543 72.6639 166.919 72.7925 167.399 72.7925C167.744 72.7925 168.076 72.7204 168.399 72.5761C168.725 72.4319 169.048 72.225 169.377 71.9585L169.716 72.5416C169.302 72.8866 168.872 73.1531 168.43 73.3443C167.988 73.5356 167.518 73.6297 167.022 73.6297L167.022 73.6234Z" fill="rgb(255,255,255)" fill-rule="nonzero" />
				<path id="Vector" d="M169.944 73.4853L172.904 69.4656L173.026 67.6565C173.042 67.252 173.008 67.0011 172.92 66.9071C172.832 66.813 172.729 66.7628 172.606 66.7628C172.569 66.7628 172.528 66.766 172.481 66.7754C172.437 66.7817 172.393 66.7942 172.349 66.8099L172.512 65.8943C172.572 65.8787 172.647 65.8661 172.744 65.8536C172.841 65.841 172.923 65.8379 172.992 65.8379C173.183 65.8379 173.353 65.8692 173.497 65.9351C173.641 66.0009 173.754 66.1295 173.829 66.3239C173.904 66.5183 173.933 66.8162 173.911 67.2112L173.795 69.1364L174.403 69.1364L175.478 65.9759L176.35 65.9759L175.275 69.1364L175.883 69.1364L177.074 67.2112C177.325 66.813 177.548 66.5183 177.748 66.3239C177.949 66.1295 178.14 65.9978 178.322 65.9351C178.504 65.8692 178.692 65.8379 178.884 65.8379C178.952 65.8379 179.037 65.8442 179.141 65.8536C179.244 65.8661 179.319 65.8787 179.366 65.8943L178.905 66.8099C178.88 66.7942 178.846 66.7848 178.802 66.7754C178.758 66.7691 178.717 66.7628 178.68 66.7628C178.557 66.7628 178.419 66.8099 178.269 66.9071C178.118 67.0043 177.912 67.252 177.654 67.6565L176.548 69.4656L176.773 73.4853L175.742 73.4853L175.685 69.9453L174.999 69.9453L173.795 73.4853L172.923 73.4853L174.127 69.9453L173.44 69.9453L170.976 73.4853L169.944 73.4853Z" fill="rgb(255,255,255)" fill-rule="nonzero" />
				<path id="Vector" d="M177.159 73.4852L182.245 65.9727L183.32 65.9727L183.298 73.4852L182.292 73.4852L182.361 71.1932L179.636 71.1932L178.134 73.4852L177.162 73.4852L177.159 73.4852ZM180.881 69.2837L180.138 70.4281L182.383 70.4281L182.417 69.2837C182.43 68.8635 182.446 68.4465 182.461 68.0295C182.477 67.6125 182.502 67.1861 182.533 66.7534L182.486 66.7534C182.217 67.1892 181.95 67.6156 181.687 68.0295C181.423 68.4465 181.154 68.8635 180.881 69.2837Z" fill="rgb(255,255,255)" fill-rule="nonzero" />
				<path id="Vector" d="M186.622 73.4856L188.905 66.7727L186.431 66.7727L186.703 65.97L192.614 65.97L192.341 66.7727L189.867 66.7727L187.585 73.4856L186.622 73.4856Z" fill="rgb(255,255,255)" fill-rule="nonzero" />
				<path id="Vector" d="M191.432 73.4856L193.987 65.9731L194.903 65.9731L193.579 69.8673C193.445 70.2655 193.291 70.6669 193.119 71.0745C192.946 71.4821 192.786 71.874 192.645 72.2471L192.667 72.2471L193.918 70.6888L198.019 65.97L199.073 65.97L196.517 73.4825L195.602 73.4825L196.938 69.5538C197.069 69.165 197.22 68.7699 197.389 68.3749C197.558 67.9798 197.715 67.5879 197.859 67.2053L197.837 67.2053L196.586 68.7637L192.485 73.4825L191.432 73.4825L191.432 73.4856Z" fill="rgb(255,255,255)" fill-rule="nonzero" />
				<path id="Vector" d="M202.189 73.4856L203.268 70.3126L201.882 70.3126L198.856 73.4856L197.756 73.4856L200.976 70.2091C200.521 70.0868 200.192 69.8517 199.988 69.5036C199.788 69.1556 199.788 68.6821 199.991 68.077C200.167 67.5565 200.421 67.1426 200.753 66.8354C201.083 66.5249 201.471 66.3055 201.913 66.1706C202.356 66.0358 202.832 65.97 203.346 65.97L205.707 65.97L203.152 73.4825L202.189 73.4825L202.189 73.4856ZM202.271 69.535L203.531 69.535L204.481 66.7413L203.221 66.7413C202.641 66.7413 202.161 66.8416 201.779 67.0392C201.396 67.2367 201.123 67.5847 200.954 68.0801C200.788 68.5693 200.819 68.933 201.051 69.1744C201.283 69.4158 201.688 69.535 202.268 69.535L202.271 69.535Z" fill="rgb(255,255,255)" fill-rule="nonzero" />
				<path id="Vector" d="M104.301 87.2315L106.856 79.719L111.92 79.719L109.365 87.2315L108.402 87.2315L110.685 80.5185L107.546 80.5185L105.263 87.2315L104.301 87.2315Z" fill="rgb(255,255,255)" fill-rule="nonzero" />
				<path id="Vector" d="M113.657 87.3693C113.092 87.3693 112.644 87.2125 112.315 86.899C111.986 86.5854 111.798 86.137 111.754 85.5538C111.71 84.9706 111.826 84.2652 112.105 83.4406C112.381 82.6316 112.738 81.9387 113.177 81.3617C113.616 80.7848 114.108 80.3427 114.648 80.0386C115.187 79.7345 115.739 79.5808 116.303 79.5808C116.868 79.5808 117.316 79.7345 117.648 80.0386C117.978 80.3427 118.169 80.7848 118.216 81.3617C118.263 81.9387 118.15 82.6316 117.877 83.4406C117.598 84.2652 117.234 84.9706 116.792 85.5538C116.35 86.137 115.858 86.5854 115.316 86.899C114.773 87.2125 114.221 87.3693 113.654 87.3693L113.657 87.3693ZM113.942 86.5321C114.516 86.5321 115.068 86.2562 115.604 85.7075C116.137 85.1588 116.57 84.4031 116.896 83.4406C117.219 82.4936 117.297 81.7537 117.131 81.2175C116.965 80.6845 116.595 80.4148 116.024 80.4148C115.453 80.4148 114.902 80.6814 114.372 81.2175C113.842 81.7505 113.415 82.4936 113.096 83.4406C112.77 84.4031 112.685 85.1588 112.845 85.7075C113.005 86.2562 113.372 86.5321 113.945 86.5321L113.942 86.5321Z" fill="rgb(255,255,255)" fill-rule="nonzero" />
				<path id="Vector" d="M120.097 87.2312L122.38 80.5182L119.906 80.5182L120.179 79.7156L126.089 79.7156L125.816 80.5182L123.342 80.5182L121.06 87.2312L120.097 87.2312Z" fill="rgb(255,255,255)" fill-rule="nonzero" />
				<path id="Vector" d="M125.318 87.2315L127.873 79.719L132.523 79.719L132.25 80.5217L128.563 80.5217L127.76 82.8827L130.877 82.8827L130.601 83.6947L127.484 83.6947L126.556 86.4226L130.36 86.4226L130.084 87.2347L125.318 87.2347L125.318 87.2315Z" fill="rgb(255,255,255)" fill-rule="nonzero" />
				<path id="Vector" d="M131.789 87.2315L134.344 79.719L135.307 79.719L134.235 82.8701L137.373 82.8701L138.446 79.719L139.408 79.719L136.853 87.2315L135.89 87.2315L137.094 83.6916L133.956 83.6916L132.752 87.2315L131.789 87.2315Z" fill="rgb(255,255,255)" fill-rule="nonzero" />
				<path id="Vector" d="M138.662 87.2315L141.218 79.719L142.168 79.719L139.888 86.4194L143.014 86.4194L145.294 79.719L146.244 79.719L143.964 86.4194L144.776 86.4194L144.582 86.9932L143.666 89.3887L142.889 89.3887L143.619 87.2347L138.659 87.2347L138.662 87.2315Z" fill="rgb(255,255,255)" fill-rule="nonzero" />
				<path id="Vector" d="M145.526 87.2312L148.081 79.7187L148.997 79.7187L147.674 83.6129C147.539 84.0111 147.385 84.4125 147.213 84.8201C147.04 85.2277 146.88 85.6196 146.739 85.9928L146.761 85.9928L148.012 84.4344L152.113 79.7156L153.167 79.7156L150.612 87.2281L149.696 87.2281L151.032 83.2994C151.163 82.9106 151.314 82.5155 151.483 82.1205C151.653 81.7223 151.809 81.3335 151.957 80.9509L151.935 80.9509L150.684 82.5093L146.583 87.2281L145.529 87.2281L145.526 87.2312Z" fill="rgb(255,255,255)" fill-rule="nonzero" />
				<path id="Vector" d="M151.869 87.2315L156.954 79.719L158.03 79.719L158.008 87.2315L157.001 87.2315L157.07 84.9395L154.346 84.9395L152.844 87.2315L151.872 87.2315L151.869 87.2315ZM155.59 83.0269L154.847 84.1713L157.092 84.1713L157.127 83.0269C157.139 82.6067 157.155 82.1897 157.168 81.7727C157.183 81.3557 157.208 80.9293 157.243 80.4966L157.196 80.4966C156.926 80.9324 156.66 81.3588 156.396 81.7727C156.133 82.1897 155.863 82.6067 155.59 83.0269Z" fill="rgb(255,255,255)" fill-rule="nonzero" />
				<path id="Vector" d="M158.993 87.3688C158.87 87.3688 158.761 87.3625 158.666 87.3468C158.572 87.3312 158.478 87.3061 158.384 87.2685L158.88 86.3874C158.98 86.4344 159.077 86.4564 159.178 86.4564C159.306 86.4564 159.438 86.4125 159.573 86.3247C159.704 86.2369 159.87 86.0488 160.071 85.7635C160.272 85.4781 160.529 85.036 160.849 84.4403C161.285 83.6313 161.692 82.8506 162.078 82.1044C162.463 81.355 162.871 80.5617 163.301 79.7214L166.897 79.7214L164.342 87.234L163.379 87.234L165.662 80.521L163.771 80.521C163.414 81.2076 163.075 81.8786 162.749 82.5308C162.423 83.183 162.078 83.854 161.717 84.5406C161.313 85.3025 160.958 85.8889 160.654 86.2996C160.35 86.7072 160.071 86.9894 159.814 87.1399C159.557 87.2936 159.281 87.3688 158.993 87.3688Z" fill="rgb(255,255,255)" fill-rule="nonzero" />
				<path id="Vector" d="M172.738 87.2315L176.303 83.3498L175.441 79.719L176.495 79.719L176.893 81.6442C176.934 81.8135 176.974 81.9797 177.009 82.149C177.043 82.3183 177.084 82.5127 177.131 82.7322L177.178 82.7322C177.36 82.5095 177.52 82.3151 177.658 82.149C177.796 81.9797 177.937 81.8135 178.087 81.6442L179.771 79.719L180.778 79.719L177.432 83.3969L178.373 87.2347L177.319 87.2347L176.874 85.206C176.836 85.0242 176.799 84.8329 176.758 84.6385C176.717 84.4441 176.67 84.2309 176.62 84.002L176.573 84.002C176.388 84.2309 176.212 84.4441 176.046 84.6385C175.88 84.8329 175.717 85.021 175.557 85.206L173.745 87.2347L172.738 87.2347L172.738 87.2315Z" fill="rgb(255,255,255)" fill-rule="nonzero" />
				<path id="Vector" d="M182.383 87.3693C181.819 87.3693 181.37 87.2125 181.041 86.899C180.712 86.5854 180.524 86.137 180.48 85.5538C180.436 84.9706 180.552 84.2652 180.831 83.4406C181.107 82.6316 181.464 81.9387 181.903 81.3617C182.342 80.7848 182.834 80.3427 183.374 80.0386C183.913 79.7345 184.465 79.5808 185.029 79.5808C185.594 79.5808 186.042 79.7345 186.374 80.0386C186.704 80.3427 186.895 80.7848 186.942 81.3617C186.989 81.9387 186.876 82.6316 186.603 83.4406C186.324 84.2652 185.961 84.9706 185.518 85.5538C185.076 86.137 184.584 86.5854 184.042 86.899C183.499 87.2125 182.947 87.3693 182.38 87.3693L182.383 87.3693ZM182.668 86.5321C183.242 86.5321 183.794 86.2562 184.33 85.7075C184.863 85.1588 185.296 84.4031 185.622 83.4406C185.945 82.4936 186.023 81.7537 185.857 81.2175C185.691 80.6845 185.321 80.4148 184.75 80.4148C184.18 80.4148 183.628 80.6814 183.098 81.2175C182.568 81.7505 182.142 82.4936 181.822 83.4406C181.496 84.4031 181.411 85.1588 181.571 85.7075C181.731 86.2562 182.098 86.5321 182.671 86.5321L182.668 86.5321Z" fill="rgb(255,255,255)" fill-rule="nonzero" />
				<path id="Vector" d="M186.484 87.3688C186.362 87.3688 186.252 87.3625 186.158 87.3468C186.064 87.3312 185.97 87.3061 185.876 87.2685L186.371 86.3874C186.472 86.4344 186.569 86.4564 186.669 86.4564C186.798 86.4564 186.929 86.4125 187.064 86.3247C187.196 86.2369 187.362 86.0488 187.563 85.7635C187.764 85.4781 188.021 85.036 188.34 84.4403C188.776 83.6313 189.184 82.8506 189.57 82.1044C189.955 81.355 190.363 80.5617 190.792 79.7214L194.389 79.7214L191.833 87.234L190.871 87.234L193.153 80.521L191.263 80.521C190.905 81.2076 190.567 81.8786 190.241 82.5308C189.914 83.183 189.57 83.854 189.209 84.5406C188.804 85.3025 188.45 85.8889 188.146 86.2996C187.842 86.7072 187.563 86.9894 187.306 87.1399C187.049 87.2936 186.773 87.3688 186.484 87.3688Z" fill="rgb(255,255,255)" fill-rule="nonzero" />
				<path id="Vector" d="M196.129 87.3693C195.564 87.3693 195.116 87.2125 194.787 86.899C194.457 86.5854 194.269 86.137 194.225 85.5538C194.181 84.9706 194.297 84.2652 194.577 83.4406C194.852 82.6316 195.21 81.9387 195.649 81.3617C196.088 80.7848 196.58 80.3427 197.119 80.0386C197.659 79.7345 198.21 79.5808 198.775 79.5808C199.339 79.5808 199.788 79.7345 200.12 80.0386C200.449 80.3427 200.64 80.7848 200.688 81.3617C200.735 81.9387 200.622 82.6316 200.349 83.4406C200.07 84.2652 199.706 84.9706 199.264 85.5538C198.822 86.137 198.33 86.5854 197.787 86.899C197.245 87.2125 196.693 87.3693 196.125 87.3693L196.129 87.3693ZM196.411 86.5321C196.985 86.5321 197.536 86.2562 198.073 85.7075C198.606 85.1588 199.038 84.4031 199.364 83.4406C199.687 82.4936 199.766 81.7537 199.6 81.2175C199.433 80.6845 199.063 80.4148 198.493 80.4148C197.922 80.4148 197.37 80.6814 196.84 81.2175C196.31 81.7505 195.884 82.4936 195.564 83.4406C195.238 84.4031 195.153 85.1588 195.313 85.7075C195.473 86.2562 195.84 86.5321 196.414 86.5321L196.411 86.5321Z" fill="rgb(255,255,255)" fill-rule="nonzero" />
				<path id="Vector" d="M199.233 89.385L199.945 86.9895L200.139 86.4157L200.484 86.4157C200.597 86.3781 200.732 86.2715 200.888 86.0991C201.045 85.9266 201.243 85.6538 201.484 85.2745C201.722 84.8951 202.014 84.3746 202.353 83.7099C202.613 83.2145 202.845 82.7661 203.046 82.3648C203.246 81.9634 203.453 81.5558 203.663 81.1388C203.873 80.7218 204.109 80.2483 204.366 79.7122L207.953 79.7122L205.673 86.4126L206.51 86.4126L206.316 86.9864L205.4 89.3819L204.563 89.3819L205.294 87.2278L200.804 87.2278L200.073 89.3819L199.236 89.3819L199.233 89.385ZM203.159 83.876C202.832 84.5188 202.538 85.0424 202.268 85.45C201.998 85.8576 201.748 86.1806 201.516 86.4189L204.723 86.4189L206.73 80.5211L204.839 80.5211C204.626 80.9475 204.432 81.3332 204.262 81.6781C204.093 82.023 203.92 82.3648 203.751 82.7097C203.582 83.0546 203.384 83.4433 203.159 83.8792L203.159 83.876Z" fill="rgb(255,255,255)" fill-rule="nonzero" />
				<path id="Vector" d="M206.849 87.2315L211.934 79.719L213.01 79.719L212.988 87.2315L211.981 87.2315L212.05 84.9395L209.326 84.9395L207.824 87.2315L206.852 87.2315L206.849 87.2315ZM210.57 83.0269L209.827 84.1713L212.072 84.1713L212.107 83.0269C212.119 82.6067 212.135 82.1897 212.148 81.7727C212.163 81.3557 212.188 80.9293 212.223 80.4966L212.176 80.4966C211.906 80.9324 211.64 81.3588 211.376 81.7727C211.113 82.1897 210.843 82.6067 210.57 83.0269Z" fill="rgb(255,255,255)" fill-rule="nonzero" />
			</g>
			<g id="Group">
				<path id="Vector" d="M94.4992 35.2301C88.6484 35.4214 59.9685 34.8695 54.6946 35.4308C54.3121 35.7976 54.1647 36.3181 53.9829 36.7759C53.5816 37.9235 51.0387 46.0066 50.8443 46.9692C50.7785 47.3267 50.7095 47.7343 50.9352 47.9444C51.6031 48.2673 52.4653 48.0384 53.3746 48.1043C60.8903 48.1105 79.841 48.0948 85.1242 48.1074C86.9616 48.1199 87.8458 48.8787 88.9902 50.2897C92.4235 54.88 91.4892 63.4366 88.8867 70.0744C86.5257 76.502 82.967 83.0457 75.7116 87.3727C74.1658 88.2851 72.1528 89.4703 70.7137 89.8904C66.3209 90.1287 47.7998 89.8842 32.69 89.9719C27.5228 89.9719 22.9545 89.9751 19.8754 89.9719C18.7122 90.0096 17.0786 89.7148 18.1572 88.1753C18.6275 87.4542 19.4177 86.6609 20.1137 86.015C22.2615 84.0397 24.0707 82.3528 26.0868 80.5907C27.874 79.164 29.912 76.8846 31.8341 76.8846C35.1357 76.8595 38.6819 76.8156 44.1877 76.7686C54.6382 76.6714 67.9576 76.5553 71.1432 76.5177C71.5007 76.502 71.8111 76.4926 72.0744 76.1572C72.3253 75.9032 73.3537 72.6172 73.5606 71.9901C74.0623 70.4036 75.2412 66.6442 75.7711 64.9165C76.0878 63.8975 76.4609 62.4615 75.9718 62.358C75.0469 62.0539 74.1094 62.264 72.5385 62.195C66.7379 62.1699 58.8585 62.1417 53.4655 62.2452C50.8474 62.264 48.3704 62.5367 45.8683 62.2577C41.0962 61.7435 37.2991 59.0125 36.44 54.5539C35.3364 48.5526 40.328 33.167 45.9122 27.6454C48.3798 25.2123 53.707 21.8699 56.6637 21.8888C63.5993 21.9201 92.9471 21.9044 104.489 21.9295C105.442 21.9515 106.383 21.9515 105.508 22.9329C103.235 25.482 100.711 28.4136 94.5023 35.227L94.4992 35.2301Z" fill="rgb(255,255,255)" fill-rule="nonzero" />
				<path id="Vector" d="M102.874 0.736769C103.141 0.539236 103.109 0.194336 102.827 0.194336L10.5884 0.194336C10.5351 0.194336 9.88608 0.677195 9.77007 0.824562C5.96363 13.0685 3.74059 19.8473 0 32.292C0.0376254 32.4863 0.0689799 32.7278 0.222617 32.8407C0.570652 33.0915 1.36706 33.1542 5.78491 33.126L20.8413 33.126C16.2542 47.8751 12.2502 62.6086 7.45297 77.3453C6.39632 80.5904 5.49645 83.9893 4.4398 87.3662C3.94126 88.9621 3.81898 89.1565 4.64047 89.3979C5.10452 89.5328 5.90719 89.7522 8.14904 87.9776C10.0523 86.4757 22.5564 74.8871 23.0769 73.2315C23.9737 70.3751 37.6066 26.9554 38.8921 22.7978C38.9737 22.5313 38.9674 22.3055 38.9517 22.1143C38.936 21.5593 38.541 21.158 37.9233 21.158L17.176 21.158L19.2548 14.5108C50.9762 13.8963 53.3121 14.3352 84.3625 14.1847C84.9739 14.1847 85.5916 13.9652 86.1152 13.5733C89.6739 10.8956 101.633 1.66486 102.877 0.74304L102.874 0.736769Z" fill="rgb(228,35,31)" fill-rule="nonzero" />
			</g>
			<path id="Vector" d="M105.574 62.6936L96.7818 89.8905L94.4961 89.8905L103.291 62.6936L105.574 62.6936Z" fill="rgb(228,35,31)" fill-rule="nonzero" />
		</g>
	</g>
</svg>
