<svg viewBox="0 0 213.013 90" xmlns="http://www.w3.org/2000/svg" xmlns:xlink="http://www.w3.org/1999/xlink" width="213.013153" height="90.000000" fill="none">
	<rect id="Ресурс 1 1" width="213.013153" height="90.000000" x="0.000000" y="0.000000" fill="rgb(255,255,255)" fill-opacity="0" />
	<g id="Слой 1">
		<g id="Group">
			<g id="Group">
				<path id="Vector" d="M123.261 18.9977L128.927 2.33277L122.784 2.33277L123.462 0.341763L138.135 0.341763L137.458 2.33277L131.316 2.33277L125.65 18.9977L123.261 18.9977Z" fill="rgb(71,74,81)" fill-rule="nonzero" />
				<path id="Vector" d="M136.232 18.9977L142.575 0.341763L154.123 0.341763L153.446 2.33277L144.287 2.33277L142.296 8.19293L150.031 8.19293L149.345 10.2122L141.61 10.2122L139.308 16.9816L148.752 16.9816L148.065 19.0008L136.235 19.0008L136.232 18.9977Z" fill="rgb(71,74,81)" fill-rule="nonzero" />
				<path id="Vector" d="M151.59 18.9977L160.441 9.35618L158.303 0.341763L160.921 0.341763L161.912 5.12019C162.015 5.53721 162.112 5.95422 162.197 6.37124C162.282 6.78825 162.385 7.27111 162.501 7.81981L162.614 7.81981C163.065 7.27111 163.464 6.78825 163.802 6.37124C164.141 5.95422 164.498 5.53721 164.868 5.12019L169.051 0.341763L171.553 0.341763L163.244 9.4722L165.58 19.0008L162.962 19.0008L161.858 13.9653C161.767 13.5107 161.67 13.0403 161.57 12.5575C161.469 12.0746 161.353 11.5479 161.225 10.9803L161.112 10.9803C160.654 11.5479 160.218 12.0746 159.808 12.5575C159.397 13.0403 158.989 13.5107 158.591 13.9653L154.092 19.0008L151.59 19.0008L151.59 18.9977Z" fill="rgb(71,74,81)" fill-rule="nonzero" />
				<path id="Vector" d="M169.365 18.9977L175.708 0.341763L178.097 0.341763L175.438 8.16471L183.23 8.16471L185.888 0.341763L188.278 0.341763L181.935 18.9977L179.545 18.9977L182.533 10.209L174.742 10.209L171.754 18.9977L169.365 18.9977Z" fill="rgb(71,74,81)" fill-rule="nonzero" />
				<path id="Vector" d="M192.598 19.3395C191.194 19.3395 190.087 18.9507 189.268 18.1731C188.453 17.3955 187.986 16.2824 187.873 14.8307C187.76 13.3821 188.052 11.6325 188.748 9.58507C189.431 7.57525 190.319 5.85389 191.413 4.42412C192.507 2.99122 193.724 1.89695 195.06 1.13817C196.398 0.37939 197.769 0 199.173 0C200.578 0 201.688 0.37939 202.513 1.13817C203.334 1.89695 203.807 2.99122 203.927 4.42412C204.046 5.85702 203.764 7.57525 203.08 9.58507C202.384 11.6325 201.487 13.3821 200.387 14.8307C199.286 16.2824 198.063 17.3955 196.718 18.1731C195.373 18.9507 194 19.3395 192.595 19.3395L192.598 19.3395ZM193.304 17.2638C194.727 17.2638 196.101 16.5803 197.427 15.2163C198.753 13.8524 199.822 11.9743 200.634 9.58507C201.434 7.23349 201.628 5.39611 201.218 4.06668C200.807 2.74038 199.888 2.07567 198.468 2.07567C197.047 2.07567 195.677 2.74038 194.363 4.06668C193.05 5.39298 191.993 7.23349 191.194 9.58507C190.381 11.9743 190.175 13.8524 190.573 15.2163C190.971 16.5803 191.88 17.2638 193.304 17.2638Z" fill="rgb(71,74,81)" fill-rule="nonzero" />
				<path id="Vector" d="M116.103 47.8376C114.566 47.8376 113.318 47.4551 112.356 46.6869C111.393 45.9187 110.797 44.815 110.565 43.3727C110.333 41.9304 110.565 40.1965 111.255 38.1679C111.939 36.158 112.886 34.4335 114.096 32.9912C115.306 31.5489 116.673 30.4421 118.2 29.6645C119.724 28.8869 121.295 28.4981 122.907 28.4981C124.026 28.4981 124.945 28.727 125.66 29.1816C126.374 29.6363 126.898 30.1662 127.224 30.7745L125.374 32.2826C125.073 31.7715 124.666 31.3576 124.145 31.0441C123.625 30.7306 122.979 30.5738 122.201 30.5738C121.006 30.5738 119.862 30.8811 118.774 31.4987C117.683 32.1164 116.702 32.9818 115.827 34.1012C114.952 35.2205 114.253 36.5562 113.723 38.1114C113.193 39.6666 112.98 41.018 113.083 42.1656C113.187 43.3131 113.572 44.2005 114.24 44.8244C114.908 45.4515 115.839 45.7619 117.034 45.7619C117.887 45.7619 118.718 45.5832 119.52 45.2226C120.326 44.862 121.135 44.351 121.947 43.6862L122.791 45.138C121.762 45.9908 120.696 46.6555 119.596 47.129C118.495 47.6024 117.329 47.8407 116.096 47.8407L116.103 47.8376Z" fill="rgb(71,74,81)" fill-rule="nonzero" />
				<path id="Vector" d="M126.541 47.4958L132.884 28.8399L144.431 28.8399L143.754 30.8309L134.596 30.8309L132.604 36.6911L140.34 36.6911L139.653 38.7103L131.918 38.7103L129.616 45.4797L139.06 45.4797L138.374 47.499L126.544 47.499L126.541 47.4958Z" fill="rgb(71,74,81)" fill-rule="nonzero" />
				<path id="Vector" d="M143.265 47.4958L149.608 28.8399L155.239 28.8399C156.622 28.8399 157.773 29.0092 158.691 29.351C159.607 29.6927 160.218 30.2665 160.523 31.0723C160.827 31.8781 160.748 32.963 160.284 34.3301C159.839 35.6375 159.184 36.7193 158.315 37.5721C157.447 38.425 156.421 39.0615 155.236 39.4785C154.051 39.8955 152.778 40.1056 151.411 40.1056L148.141 40.1056L145.626 47.499L143.265 47.499L143.265 47.4958ZM148.796 38.1679L151.781 38.1679C153.411 38.1679 154.725 37.8606 155.722 37.2429C156.719 36.6283 157.444 35.6564 157.895 34.3269C158.353 32.9818 158.271 32.0474 157.654 31.527C157.036 31.0065 155.92 30.7431 154.308 30.7431L151.323 30.7431L148.799 38.1647L148.796 38.1679Z" fill="rgb(71,74,81)" fill-rule="nonzero" />
				<path id="Vector" d="M160.243 47.4958L166.587 28.8399L171.876 28.8399C173.146 28.8399 174.209 28.9935 175.065 29.2945C175.918 29.5987 176.504 30.0815 176.817 30.7431C177.131 31.4078 177.103 32.2889 176.73 33.3894C176.413 34.3175 175.864 35.1578 175.077 35.9072C174.29 36.6566 173.29 37.1739 172.077 37.4561L172.039 37.569C173.334 37.7791 174.234 38.2525 174.742 38.9925C175.25 39.7324 175.284 40.7452 174.845 42.037C174.221 43.8775 173.105 45.2477 171.5 46.1476C169.894 47.0474 168.051 47.499 165.963 47.499L160.247 47.499L160.243 47.4958ZM163.282 45.5048L166.298 45.5048C167.891 45.5048 169.223 45.2257 170.296 44.6645C171.368 44.1064 172.121 43.1908 172.55 41.921C172.942 40.764 172.795 39.9362 172.102 39.4314C171.409 38.9298 170.249 38.6789 168.618 38.6789L165.602 38.6789L163.282 45.5048ZM166.279 36.6879L168.81 36.6879C170.402 36.6879 171.631 36.4308 172.497 35.9197C173.362 35.4087 173.974 34.6311 174.328 33.587C174.67 32.5836 174.547 31.8719 173.958 31.4548C173.368 31.0378 172.356 30.8278 170.913 30.8278L168.267 30.8278L166.276 36.6879L166.279 36.6879Z" fill="rgb(71,74,81)" fill-rule="nonzero" />
				<path id="Vector" d="M176.711 47.4958L183.054 28.8399L185.33 28.8399L182.041 38.5096C181.706 39.4973 181.323 40.4975 180.894 41.5102C180.464 42.523 180.072 43.495 179.718 44.4262L179.774 44.4262L182.881 40.5571L193.065 28.8399L195.68 28.8399L189.337 47.4958L187.061 47.4958L190.378 37.7414C190.708 36.7757 191.081 35.7974 191.501 34.8129C191.921 33.8284 192.313 32.8595 192.67 31.9126L192.614 31.9126L189.507 35.7818L179.323 47.499L176.708 47.499L176.711 47.4958Z" fill="rgb(71,74,81)" fill-rule="nonzero" />
				<path id="Vector" d="M201.421 47.8376C199.885 47.8376 198.637 47.4551 197.675 46.6869C196.712 45.9187 196.116 44.815 195.884 43.3727C195.652 41.9304 195.884 40.1965 196.574 38.1679C197.257 36.158 198.204 34.4335 199.415 32.9912C200.625 31.5489 201.992 30.4421 203.519 29.6645C205.043 28.8869 206.614 28.4981 208.225 28.4981C209.345 28.4981 210.263 28.727 210.978 29.1816C211.693 29.6363 212.217 30.1662 212.543 30.7745L210.693 32.2826C210.392 31.7715 209.984 31.3576 209.464 31.0441C208.943 30.7306 208.297 30.5738 207.52 30.5738C206.325 30.5738 205.181 30.8811 204.093 31.4987C203.002 32.1164 202.02 32.9818 201.145 34.1012C200.271 35.2205 199.571 36.5562 199.042 38.1114C198.512 39.6666 198.298 41.018 198.402 42.1656C198.505 43.3131 198.891 44.2005 199.559 44.8244C200.227 45.4515 201.158 45.7619 202.353 45.7619C203.205 45.7619 204.036 45.5832 204.839 45.2226C205.645 44.862 206.454 44.351 207.266 43.6862L208.109 45.138C207.081 45.9908 206.015 46.6555 204.914 47.129C203.814 47.6024 202.647 47.8407 201.415 47.8407L201.421 47.8376Z" fill="rgb(71,74,81)" fill-rule="nonzero" />
			</g>
			<g id="Group">
				<path id="Vector" d="M110.976 73.6235C110.465 73.6235 110.042 73.5263 109.709 73.3382C109.377 73.1469 109.114 72.8804 108.916 72.5355L109.647 71.9398C109.819 72.2 110.029 72.407 110.277 72.5575C110.525 72.7111 110.844 72.7864 111.236 72.7864C111.895 72.7864 112.5 72.5512 113.058 72.0778C113.616 71.6043 114.071 70.8926 114.422 69.9488L111.271 69.9488L111.547 69.1367L114.685 69.1367C114.886 68.3434 114.867 67.7352 114.632 67.3087C114.394 66.8855 113.945 66.6722 113.29 66.6722C112.961 66.6722 112.632 66.735 112.302 66.8604C111.973 66.9858 111.663 67.1614 111.374 67.3809L111.058 66.7632C111.378 66.5186 111.766 66.3023 112.227 66.1173C112.688 65.9323 113.152 65.8351 113.616 65.8351C114.25 65.8351 114.751 65.9856 115.124 66.2803C115.497 66.5782 115.717 67.014 115.783 67.5909C115.849 68.1679 115.739 68.8796 115.45 69.7262C115.162 70.5727 114.786 71.2876 114.315 71.8677C113.848 72.4477 113.325 72.8867 112.748 73.1783C112.171 73.4699 111.575 73.6204 110.967 73.6204L110.976 73.6235Z" fill="rgb(71,74,81)" fill-rule="nonzero" />
				<path id="Vector" d="M115.846 73.4856L118.401 65.973L119.363 65.973L118.291 69.1242L121.43 69.1242L122.502 65.973L123.465 65.973L120.909 73.4856L119.947 73.4856L121.151 69.9457L118.012 69.9457L116.808 73.4856L115.846 73.4856Z" fill="rgb(71,74,81)" fill-rule="nonzero" />
				<path id="Vector" d="M123.12 73.4856L125.675 65.973L130.325 65.973L130.052 66.7757L126.365 66.7757L125.562 69.1336L128.679 69.1336L128.403 69.9457L125.286 69.9457L124.358 72.6704L128.162 72.6704L127.886 73.4824L123.12 73.4824L123.12 73.4856Z" fill="rgb(71,74,81)" fill-rule="nonzero" />
				<path id="Vector" d="M129.855 73.4856L132.41 65.973L134.677 65.973C135.235 65.973 135.696 66.042 136.066 66.18C136.436 66.3179 136.681 66.55 136.803 66.8729C136.925 67.199 136.894 67.6348 136.706 68.1835C136.527 68.7103 136.264 69.1461 135.912 69.4879C135.561 69.8328 135.147 70.0868 134.671 70.2561C134.194 70.4254 133.68 70.5069 133.131 70.5069L131.814 70.5069L130.802 73.4856L129.852 73.4856L129.855 73.4856ZM132.084 69.7293L133.288 69.7293C133.946 69.7293 134.473 69.6039 134.875 69.3562C135.276 69.1085 135.567 68.7166 135.749 68.1835C135.934 67.6411 135.9 67.2648 135.652 67.0548C135.401 66.8447 134.953 66.7412 134.304 66.7412L133.1 66.7412L132.084 69.7324L132.084 69.7293Z" fill="rgb(71,74,81)" fill-rule="nonzero" />
				<path id="Vector" d="M137.104 73.4856L139.659 65.973L144.24 65.973L143.967 66.7757L140.337 66.7757L138.054 73.4887L137.104 73.4887L137.104 73.4856Z" fill="rgb(71,74,81)" fill-rule="nonzero" />
				<path id="Vector" d="M143.325 73.4856L145.88 65.973L146.796 65.973L145.472 69.8673C145.338 70.2655 145.184 70.6668 145.011 71.0744C144.839 71.482 144.679 71.8739 144.538 72.2471L144.56 72.2471L145.811 70.6888L149.912 65.9699L150.966 65.9699L148.41 73.4824L147.495 73.4824L148.83 69.5537C148.962 69.1649 149.113 68.7699 149.282 68.3748C149.451 67.9797 149.608 67.5878 149.752 67.2053L149.73 67.2053L148.479 68.7636L144.378 73.4824L143.325 73.4824L143.325 73.4856Z" fill="rgb(71,74,81)" fill-rule="nonzero" />
				<path id="Vector" d="M154.082 73.4856L155.161 70.3125L153.775 70.3125L150.749 73.4856L149.649 73.4856L152.869 70.209C152.414 70.0867 152.085 69.8516 151.881 69.5035C151.681 69.1555 151.681 68.6821 151.884 68.0769C152.06 67.5564 152.314 67.1426 152.646 66.8353C152.976 66.5249 153.364 66.3054 153.806 66.1706C154.249 66.0357 154.725 65.9699 155.239 65.9699L157.6 65.9699L155.045 73.4824L154.082 73.4824L154.082 73.4856ZM154.164 69.5349L155.424 69.5349L156.374 66.7412L155.114 66.7412C154.534 66.7412 154.054 66.8416 153.672 67.0391C153.289 67.2366 153.016 67.5847 152.847 68.0801C152.681 68.5692 152.712 68.9329 152.944 69.1743C153.176 69.4158 153.581 69.5349 154.161 69.5349L154.164 69.5349Z" fill="rgb(71,74,81)" fill-rule="nonzero" />
				<path id="Vector" d="M167.022 73.6235C166.405 73.6235 165.9 73.4699 165.514 73.1595C165.125 72.8491 164.887 72.407 164.793 71.8238C164.699 71.2437 164.793 70.5445 165.069 69.7262C165.345 68.9172 165.724 68.2212 166.213 67.6411C166.699 67.061 167.251 66.6127 167.866 66.3023C168.48 65.9887 169.111 65.8319 169.76 65.8319C170.211 65.8319 170.581 65.9229 170.87 66.1079C171.158 66.2897 171.368 66.5061 171.5 66.7506L170.754 67.3589C170.631 67.152 170.468 66.9858 170.258 66.8604C170.048 66.7349 169.788 66.6722 169.474 66.6722C168.991 66.6722 168.534 66.7977 168.095 67.0454C167.656 67.2931 167.261 67.6442 166.909 68.0926C166.558 68.5441 166.276 69.0803 166.063 69.7074C165.85 70.3344 165.765 70.8769 165.806 71.3409C165.847 71.8018 166.003 72.1593 166.273 72.4132C166.543 72.6641 166.919 72.7926 167.399 72.7926C167.744 72.7926 168.076 72.7205 168.399 72.5763C168.725 72.4321 169.048 72.2251 169.377 71.9586L169.716 72.5418C169.302 72.8867 168.872 73.1532 168.43 73.3445C167.988 73.5357 167.518 73.6298 167.022 73.6298L167.022 73.6235Z" fill="rgb(71,74,81)" fill-rule="nonzero" />
				<path id="Vector" d="M169.945 73.4856L172.904 69.4659L173.027 67.6568C173.042 67.2523 173.008 67.0015 172.92 66.9074C172.832 66.8133 172.729 66.7632 172.607 66.7632C172.569 66.7632 172.528 66.7663 172.481 66.7757C172.437 66.782 172.393 66.7945 172.349 66.8102L172.513 65.8946C172.572 65.879 172.647 65.8664 172.745 65.8539C172.842 65.8413 172.923 65.8382 172.992 65.8382C173.183 65.8382 173.353 65.8696 173.497 65.9354C173.641 66.0012 173.754 66.1298 173.829 66.3242C173.905 66.5186 173.933 66.8165 173.911 67.2115L173.795 69.1367L174.403 69.1367L175.479 65.9762L176.35 65.9762L175.275 69.1367L175.883 69.1367L177.075 67.2115C177.325 66.8133 177.548 66.5186 177.749 66.3242C177.949 66.1298 178.141 65.9981 178.322 65.9354C178.504 65.8696 178.692 65.8382 178.884 65.8382C178.953 65.8382 179.037 65.8445 179.141 65.8539C179.244 65.8664 179.32 65.879 179.367 65.8946L178.906 66.8102C178.881 66.7945 178.846 66.7851 178.802 66.7757C178.758 66.7694 178.718 66.7632 178.68 66.7632C178.558 66.7632 178.42 66.8102 178.269 66.9074C178.119 67.0046 177.912 67.2523 177.655 67.6568L176.548 69.4659L176.774 73.4856L175.742 73.4856L175.686 69.9456L174.999 69.9456L173.795 73.4856L172.923 73.4856L174.127 69.9456L173.441 69.9456L170.976 73.4856L169.945 73.4856Z" fill="rgb(71,74,81)" fill-rule="nonzero" />
				<path id="Vector" d="M177.159 73.4856L182.245 65.973L183.32 65.973L183.298 73.4856L182.292 73.4856L182.361 71.1936L179.636 71.1936L178.134 73.4856L177.162 73.4856L177.159 73.4856ZM180.881 69.2841L180.138 70.4285L182.383 70.4285L182.417 69.2841C182.43 68.8639 182.446 68.4469 182.461 68.0299C182.477 67.6129 182.502 67.1865 182.533 66.7538L182.486 66.7538C182.217 67.1896 181.95 67.616 181.687 68.0299C181.423 68.4469 181.154 68.8639 180.881 69.2841Z" fill="rgb(71,74,81)" fill-rule="nonzero" />
				<path id="Vector" d="M186.622 73.4856L188.905 66.7726L186.431 66.7726L186.704 65.9699L192.614 65.9699L192.341 66.7726L189.867 66.7726L187.585 73.4856L186.622 73.4856Z" fill="rgb(71,74,81)" fill-rule="nonzero" />
				<path id="Vector" d="M191.432 73.4856L193.987 65.973L194.903 65.973L193.58 69.8673C193.445 70.2655 193.291 70.6668 193.119 71.0744C192.946 71.482 192.786 71.8739 192.645 72.2471L192.667 72.2471L193.918 70.6888L198.019 65.9699L199.073 65.9699L196.518 73.4824L195.602 73.4824L196.938 69.5537C197.069 69.1649 197.22 68.7699 197.389 68.3748C197.559 67.9797 197.715 67.5878 197.859 67.2053L197.838 67.2053L196.587 68.7636L192.485 73.4824L191.432 73.4824L191.432 73.4856Z" fill="rgb(71,74,81)" fill-rule="nonzero" />
				<path id="Vector" d="M202.19 73.4856L203.268 70.3125L201.882 70.3125L198.857 73.4856L197.756 73.4856L200.976 70.209C200.521 70.0867 200.192 69.8516 199.988 69.5035C199.788 69.1555 199.788 68.6821 199.992 68.0769C200.167 67.5564 200.421 67.1426 200.754 66.8353C201.083 66.5249 201.472 66.3054 201.914 66.1706C202.356 66.0357 202.832 65.9699 203.347 65.9699L205.708 65.9699L203.152 73.4824L202.19 73.4824L202.19 73.4856ZM202.271 69.5349L203.532 69.5349L204.482 66.7412L203.221 66.7412C202.641 66.7412 202.161 66.8416 201.779 67.0391C201.396 67.2366 201.124 67.5847 200.954 68.0801C200.788 68.5692 200.819 68.9329 201.051 69.1743C201.283 69.4158 201.688 69.5349 202.268 69.5349L202.271 69.5349Z" fill="rgb(71,74,81)" fill-rule="nonzero" />
				<path id="Vector" d="M104.301 87.2314L106.856 79.7188L111.92 79.7188L109.365 87.2314L108.402 87.2314L110.685 80.5184L107.546 80.5184L105.263 87.2314L104.301 87.2314Z" fill="rgb(71,74,81)" fill-rule="nonzero" />
				<path id="Vector" d="M113.657 87.3693C113.093 87.3693 112.644 87.2126 112.315 86.899C111.986 86.5855 111.798 86.1371 111.754 85.5539C111.71 84.9707 111.826 84.2653 112.105 83.4406C112.381 82.6317 112.738 81.9387 113.177 81.3618C113.616 80.7849 114.108 80.3428 114.648 80.0387C115.187 79.7345 115.739 79.5809 116.303 79.5809C116.868 79.5809 117.316 79.7345 117.648 80.0387C117.978 80.3428 118.169 80.7849 118.216 81.3618C118.263 81.9387 118.15 82.6317 117.877 83.4406C117.598 84.2653 117.235 84.9707 116.792 85.5539C116.35 86.1371 115.858 86.5855 115.316 86.899C114.773 87.2126 114.221 87.3693 113.654 87.3693L113.657 87.3693ZM113.942 86.5322C114.516 86.5322 115.068 86.2563 115.604 85.7076C116.137 85.1589 116.57 84.4032 116.896 83.4406C117.219 82.4937 117.297 81.7538 117.131 81.2176C116.965 80.6846 116.595 80.4149 116.024 80.4149C115.454 80.4149 114.902 80.6814 114.372 81.2176C113.842 81.7506 113.416 82.4937 113.096 83.4406C112.77 84.4032 112.685 85.1589 112.845 85.7076C113.005 86.2563 113.372 86.5322 113.945 86.5322L113.942 86.5322Z" fill="rgb(71,74,81)" fill-rule="nonzero" />
				<path id="Vector" d="M120.097 87.2314L122.38 80.5184L119.906 80.5184L120.179 79.7157L126.089 79.7157L125.816 80.5184L123.342 80.5184L121.06 87.2314L120.097 87.2314Z" fill="rgb(71,74,81)" fill-rule="nonzero" />
				<path id="Vector" d="M125.318 87.2314L127.873 79.7188L132.523 79.7188L132.25 80.5215L128.563 80.5215L127.76 82.8825L130.877 82.8825L130.601 83.6946L127.484 83.6946L126.556 86.4224L130.36 86.4224L130.084 87.2345L125.318 87.2345L125.318 87.2314Z" fill="rgb(71,74,81)" fill-rule="nonzero" />
				<path id="Vector" d="M131.789 87.2314L134.345 79.7188L135.307 79.7188L134.235 82.87L137.374 82.87L138.446 79.7188L139.408 79.7188L136.853 87.2314L135.89 87.2314L137.094 83.6915L133.956 83.6915L132.752 87.2314L131.789 87.2314Z" fill="rgb(71,74,81)" fill-rule="nonzero" />
				<path id="Vector" d="M138.662 87.2314L141.218 79.7188L142.168 79.7188L139.888 86.4193L143.014 86.4193L145.294 79.7188L146.244 79.7188L143.964 86.4193L144.776 86.4193L144.582 86.9931L143.666 89.3886L142.889 89.3886L143.619 87.2345L138.659 87.2345L138.662 87.2314Z" fill="rgb(71,74,81)" fill-rule="nonzero" />
				<path id="Vector" d="M145.526 87.2314L148.081 79.7189L148.997 79.7189L147.673 83.6131C147.539 84.0113 147.385 84.4126 147.213 84.8202C147.04 85.2278 146.88 85.6198 146.739 85.9929L146.761 85.9929L148.012 84.4346L152.113 79.7157L153.167 79.7157L150.611 87.2283L149.696 87.2283L151.032 83.2995C151.163 82.9108 151.314 82.5157 151.483 82.1206C151.652 81.7224 151.809 81.3336 151.957 80.9511L151.935 80.9511L150.684 82.5094L146.582 87.2283L145.529 87.2283L145.526 87.2314Z" fill="rgb(71,74,81)" fill-rule="nonzero" />
				<path id="Vector" d="M151.869 87.2314L156.954 79.7188L158.03 79.7188L158.008 87.2314L157.001 87.2314L157.07 84.9394L154.346 84.9394L152.844 87.2314L151.872 87.2314L151.869 87.2314ZM155.59 83.0267L154.847 84.1712L157.092 84.1712L157.127 83.0267C157.139 82.6066 157.155 82.1896 157.168 81.7726C157.183 81.3556 157.208 80.9291 157.243 80.4964L157.196 80.4964C156.926 80.9323 156.66 81.3587 156.396 81.7726C156.133 82.1896 155.863 82.6066 155.59 83.0267Z" fill="rgb(71,74,81)" fill-rule="nonzero" />
				<path id="Vector" d="M158.992 87.3694C158.87 87.3694 158.76 87.3631 158.666 87.3474C158.572 87.3317 158.478 87.3066 158.384 87.269L158.88 86.388C158.98 86.435 159.077 86.4569 159.177 86.4569C159.306 86.4569 159.438 86.413 159.573 86.3252C159.704 86.2375 159.87 86.0493 160.071 85.764C160.272 85.4787 160.529 85.0366 160.849 84.4408C161.284 83.6319 161.692 82.8512 162.078 82.1049C162.463 81.3556 162.871 80.5623 163.301 79.722L166.897 79.722L164.342 87.2345L163.379 87.2345L165.662 80.5215L163.771 80.5215C163.413 81.2082 163.075 81.8792 162.749 82.5313C162.423 83.1835 162.078 83.8545 161.717 84.5412C161.313 85.3031 160.958 85.8894 160.654 86.3002C160.35 86.7078 160.071 86.99 159.814 87.1405C159.557 87.2941 159.281 87.3694 158.992 87.3694Z" fill="rgb(71,74,81)" fill-rule="nonzero" />
				<path id="Vector" d="M172.738 87.2314L176.303 83.3497L175.441 79.7188L176.495 79.7188L176.893 81.644C176.934 81.8133 176.974 81.9795 177.009 82.1488C177.043 82.3181 177.084 82.5125 177.131 82.732L177.178 82.732C177.36 82.5094 177.52 82.315 177.658 82.1488C177.796 81.9795 177.937 81.8133 178.087 81.644L179.771 79.7188L180.778 79.7188L177.432 83.3967L178.373 87.2345L177.319 87.2345L176.874 85.2059C176.836 85.024 176.799 84.8328 176.758 84.6384C176.717 84.444 176.67 84.2308 176.62 84.0019L176.573 84.0019C176.388 84.2308 176.212 84.444 176.046 84.6384C175.88 84.8328 175.717 85.0209 175.557 85.2059L173.745 87.2345L172.738 87.2345L172.738 87.2314Z" fill="rgb(71,74,81)" fill-rule="nonzero" />
				<path id="Vector" d="M182.383 87.3693C181.819 87.3693 181.37 87.2126 181.041 86.899C180.712 86.5855 180.524 86.1371 180.48 85.5539C180.436 84.9707 180.552 84.2653 180.831 83.4406C181.107 82.6317 181.464 81.9387 181.903 81.3618C182.342 80.7849 182.834 80.3428 183.374 80.0387C183.913 79.7345 184.465 79.5809 185.029 79.5809C185.594 79.5809 186.042 79.7345 186.374 80.0387C186.704 80.3428 186.895 80.7849 186.942 81.3618C186.989 81.9387 186.876 82.6317 186.603 83.4406C186.324 84.2653 185.96 84.9707 185.518 85.5539C185.076 86.1371 184.584 86.5855 184.042 86.899C183.499 87.2126 182.947 87.3693 182.38 87.3693L182.383 87.3693ZM182.668 86.5322C183.242 86.5322 183.794 86.2563 184.33 85.7076C184.863 85.1589 185.296 84.4032 185.622 83.4406C185.945 82.4937 186.023 81.7538 185.857 81.2176C185.691 80.6846 185.321 80.4149 184.75 80.4149C184.18 80.4149 183.628 80.6814 183.098 81.2176C182.568 81.7506 182.141 82.4937 181.822 83.4406C181.496 84.4032 181.411 85.1589 181.571 85.7076C181.731 86.2563 182.098 86.5322 182.671 86.5322L182.668 86.5322Z" fill="rgb(71,74,81)" fill-rule="nonzero" />
				<path id="Vector" d="M186.484 87.3694C186.362 87.3694 186.252 87.3631 186.158 87.3474C186.064 87.3317 185.97 87.3066 185.876 87.269L186.371 86.388C186.472 86.435 186.569 86.4569 186.669 86.4569C186.798 86.4569 186.929 86.413 187.064 86.3252C187.196 86.2375 187.362 86.0493 187.563 85.764C187.763 85.4787 188.02 85.0366 188.34 84.4408C188.776 83.6319 189.184 82.8512 189.569 82.1049C189.955 81.3556 190.363 80.5623 190.792 79.722L194.389 79.722L191.833 87.2345L190.871 87.2345L193.153 80.5215L191.263 80.5215C190.905 81.2082 190.566 81.8792 190.24 82.5313C189.914 83.1835 189.569 83.8545 189.209 84.5412C188.804 85.3031 188.45 85.8894 188.146 86.3002C187.842 86.7078 187.563 86.99 187.306 87.1405C187.049 87.2941 186.773 87.3694 186.484 87.3694Z" fill="rgb(71,74,81)" fill-rule="nonzero" />
				<path id="Vector" d="M196.129 87.3693C195.564 87.3693 195.116 87.2126 194.787 86.899C194.458 86.5855 194.269 86.1371 194.226 85.5539C194.182 84.9707 194.298 84.2653 194.577 83.4406C194.853 82.6317 195.21 81.9387 195.649 81.3618C196.088 80.7849 196.58 80.3428 197.12 80.0387C197.659 79.7345 198.211 79.5809 198.775 79.5809C199.339 79.5809 199.788 79.7345 200.12 80.0387C200.449 80.3428 200.641 80.7849 200.688 81.3618C200.735 81.9387 200.622 82.6317 200.349 83.4406C200.07 84.2653 199.706 84.9707 199.264 85.5539C198.822 86.1371 198.33 86.5855 197.787 86.899C197.245 87.2126 196.693 87.3693 196.126 87.3693L196.129 87.3693ZM196.411 86.5322C196.985 86.5322 197.537 86.2563 198.073 85.7076C198.606 85.1589 199.038 84.4032 199.365 83.4406C199.687 82.4937 199.766 81.7538 199.6 81.2176C199.434 80.6846 199.064 80.4149 198.493 80.4149C197.922 80.4149 197.37 80.6814 196.84 81.2176C196.311 81.7506 195.884 82.4937 195.564 83.4406C195.238 84.4032 195.154 85.1589 195.314 85.7076C195.473 86.2563 195.84 86.5322 196.414 86.5322L196.411 86.5322Z" fill="rgb(71,74,81)" fill-rule="nonzero" />
				<path id="Vector" d="M199.233 89.3855L199.945 86.99L200.139 86.4162L200.484 86.4162C200.597 86.3786 200.732 86.2719 200.888 86.0995C201.045 85.9271 201.243 85.6543 201.484 85.2749C201.722 84.8955 202.014 84.375 202.353 83.7103C202.613 83.2149 202.845 82.7665 203.046 82.3652C203.246 81.9638 203.453 81.5562 203.663 81.1392C203.873 80.7222 204.108 80.2487 204.366 79.7126L207.953 79.7126L205.673 86.413L206.51 86.413L206.316 86.9868L205.4 89.3823L204.563 89.3823L205.294 87.2283L200.804 87.2283L200.073 89.3823L199.236 89.3823L199.233 89.3855ZM203.158 83.8765C202.832 84.5192 202.538 85.0429 202.268 85.4505C201.998 85.8581 201.747 86.181 201.515 86.4193L204.723 86.4193L206.73 80.5215L204.839 80.5215C204.626 80.948 204.431 81.3336 204.262 81.6785C204.093 82.0234 203.92 82.3652 203.751 82.7101C203.582 83.055 203.384 83.4438 203.158 83.8796L203.158 83.8765Z" fill="rgb(71,74,81)" fill-rule="nonzero" />
				<path id="Vector" d="M206.849 87.2314L211.935 79.7188L213.01 79.7188L212.988 87.2314L211.982 87.2314L212.051 84.9394L209.326 84.9394L207.824 87.2314L206.852 87.2314L206.849 87.2314ZM210.571 83.0267L209.828 84.1712L212.072 84.1712L212.107 83.0267C212.12 82.6066 212.135 82.1896 212.148 81.7726C212.163 81.3556 212.189 80.9291 212.223 80.4964L212.176 80.4964C211.906 80.9323 211.64 81.3587 211.376 81.7726C211.113 82.1896 210.843 82.6066 210.571 83.0267Z" fill="rgb(71,74,81)" fill-rule="nonzero" />
			</g>
			<g id="Group">
				<path id="Vector" d="M94.4994 35.2299C88.6486 35.4212 59.9686 34.8694 54.6948 35.4306C54.3123 35.7974 54.1649 36.3179 53.9831 36.7757C53.5817 37.9233 51.0389 46.0065 50.8445 46.9691C50.7786 47.3265 50.7097 47.7341 50.9354 47.9442C51.6033 48.2671 52.4655 48.0382 53.3748 48.1041C60.8905 48.1104 79.8411 48.0947 85.1244 48.1072C86.9617 48.1198 87.8459 48.8785 88.9904 50.2895C92.4237 54.8798 91.4893 63.4365 88.8869 70.0742C86.5259 76.5019 82.9672 83.0456 75.7117 87.3725C74.166 88.2849 72.153 89.4701 70.7138 89.8903C66.3211 90.1286 47.8 89.884 32.6902 89.9718C27.523 89.9718 22.9546 89.9749 19.8756 89.9718C18.7124 90.0094 17.0788 89.7147 18.1574 88.1752C18.6277 87.454 19.4179 86.6607 20.1139 86.0148C22.2617 84.0395 24.0709 82.3526 26.087 80.5905C27.8742 79.1639 29.9122 76.8844 31.8342 76.8844C35.1359 76.8593 38.6821 76.8154 44.1879 76.7684C54.6384 76.6712 67.9578 76.5552 71.1434 76.5176C71.5008 76.5019 71.8112 76.4925 72.0746 76.157C72.3255 75.903 73.3539 72.6171 73.5608 71.99C74.0625 70.4034 75.2414 66.644 75.7713 64.9164C76.088 63.8974 76.4611 62.4613 75.972 62.3579C75.047 62.0537 74.1095 62.2638 72.5387 62.1948C66.7381 62.1697 58.8587 62.1415 53.4657 62.245C50.8476 62.2638 48.3706 62.5366 45.8685 62.2575C41.0964 61.7433 37.2993 59.0123 36.4402 54.5537C35.3365 48.5525 40.3282 33.1668 45.9124 27.6453C48.38 25.2122 53.7071 21.8698 56.6639 21.8886C63.5995 21.9199 92.9473 21.9043 104.489 21.9293C105.442 21.9513 106.383 21.9513 105.508 22.9327C103.235 25.4818 100.711 28.4135 94.5025 35.2268L94.4994 35.2299Z" fill="rgb(71,74,81)" fill-rule="nonzero" />
				<path id="Vector" d="M102.874 0.736832C103.141 0.539299 103.109 0.194399 102.827 0.194399L10.5884 0.194399C10.5351 0.194399 9.88608 0.677258 9.77007 0.824625C5.96363 13.0686 3.74059 19.8474 0 32.292C0.0376254 32.4864 0.0689799 32.7278 0.222617 32.8407C0.570652 33.0916 1.36706 33.1543 5.78491 33.126L20.8413 33.126C16.2542 47.8752 12.2502 62.6087 7.45297 77.3453C6.39632 80.5905 5.49645 83.9893 4.4398 87.3662C3.94126 88.9622 3.81898 89.1566 4.64047 89.398C5.10452 89.5328 5.90719 89.7523 8.14904 87.9776C10.0523 86.4757 22.5564 74.8871 23.0769 73.2316C23.9737 70.3752 37.6066 26.9555 38.8921 22.7979C38.9737 22.5314 38.9674 22.3056 38.9517 22.1143C38.936 21.5594 38.541 21.158 37.9233 21.158L17.176 21.158L19.2548 14.5109C50.9762 13.8963 53.3121 14.3353 84.3625 14.1848C84.9739 14.1848 85.5916 13.9653 86.1152 13.5734C89.6739 10.8957 101.633 1.66493 102.877 0.743103L102.874 0.736832Z" fill="rgb(228,35,31)" fill-rule="nonzero" />
			</g>
			<path id="Vector" d="M105.574 62.6934L96.782 89.8903L94.4962 89.8903L103.291 62.6934L105.574 62.6934Z" fill="rgb(228,35,31)" fill-rule="nonzero" />
		</g>
	</g>
</svg>
