<svg viewBox="0 0 20 20" xmlns="http://www.w3.org/2000/svg" xmlns:xlink="http://www.w3.org/1999/xlink" width="20.000000" height="20.000000" fill="none">
	<rect id="mail-8 1" width="20.000000" height="20.000000" x="0.000000" y="0.000000" />
	<g id="Group">
		<g id="Group">
			<path id="Vector" d="M19.8234 3.97266L13.7578 9.99918L19.8234 16.0257C19.933 15.7965 19.9996 15.5432 19.9996 15.2726L19.9996 4.72574C19.9996 4.45516 19.933 4.20184 19.8234 3.97266Z" fill="rgb(67,69,75)" fill-rule="nonzero" />
		</g>
	</g>
	<g id="Group">
		<g id="Group">
			<path id="Vector" d="M18.2423 2.96875L1.75797 2.96875C1.48738 2.96875 1.23406 3.03527 1.00488 3.14492L8.75734 10.8583C9.44281 11.5438 10.5575 11.5438 11.243 10.8583L18.9954 3.14492C18.7662 3.03527 18.5129 2.96875 18.2423 2.96875Z" fill="rgb(67,69,75)" fill-rule="nonzero" />
		</g>
	</g>
	<g id="Group">
		<g id="Group">
			<path id="Vector" d="M0.176172 3.97266C0.0665234 4.20184 0 4.45516 0 4.72574L0 15.2726C0 15.5432 0.0665234 15.7966 0.176172 16.0257L6.24176 9.99918L0.176172 3.97266Z" fill="rgb(67,69,75)" fill-rule="nonzero" />
		</g>
	</g>
	<g id="Group">
		<g id="Group">
			<path id="Vector" d="M12.9298 10.8281L12.0715 11.6864C10.9294 12.8286 9.0709 12.8286 7.92875 11.6864L7.07047 10.8281L1.00488 16.8546C1.23406 16.9643 1.48738 17.0308 1.75797 17.0308L18.2423 17.0308C18.5129 17.0308 18.7662 16.9643 18.9954 16.8546L12.9298 10.8281Z" fill="rgb(67,69,75)" fill-rule="nonzero" />
		</g>
	</g>
</svg>
