<svg viewBox="0 0 20 20" xmlns="http://www.w3.org/2000/svg" xmlns:xlink="http://www.w3.org/1999/xlink" width="20.000000" height="20.000000" fill="none">
	<rect id="mail-8 1" width="20.000000" height="20.000000" x="0.000000" y="0.000000" fill="rgb(255,255,255)" fill-opacity="0" />
	<g id="Group">
		<g id="Group">
			<path id="Vector" d="M19.8234 3.97266L13.7578 9.99918L19.8234 16.0257C19.933 15.7965 19.9996 15.5432 19.9996 15.2726L19.9996 4.72574C19.9996 4.45516 19.933 4.20184 19.8234 3.97266Z" fill="rgb(133,135,139)" fill-rule="nonzero" />
		</g>
	</g>
	<g id="Group">
		<g id="Group">
			<path id="Vector" d="M18.2414 2.96875L1.75699 2.96875C1.48641 2.96875 1.23309 3.03527 1.00391 3.14492L8.75637 10.8583C9.44184 11.5438 10.5565 11.5438 11.242 10.8583L18.9945 3.14492C18.7653 3.03527 18.512 2.96875 18.2414 2.96875Z" fill="rgb(133,135,139)" fill-rule="nonzero" />
		</g>
	</g>
	<g id="Group">
		<g id="Group">
			<path id="Vector" d="M0.176172 3.97266C0.0665234 4.20184 0 4.45516 0 4.72574L0 15.2726C0 15.5432 0.0665234 15.7966 0.176172 16.0257L6.24176 9.99918L0.176172 3.97266Z" fill="rgb(133,135,139)" fill-rule="nonzero" />
		</g>
	</g>
	<g id="Group">
		<g id="Group">
			<path id="Vector" d="M12.9289 10.8281L12.0705 11.6864C10.9284 12.8286 9.06992 12.8286 7.92777 11.6864L7.06949 10.8281L1.00391 16.8546C1.23309 16.9643 1.48641 17.0308 1.75699 17.0308L18.2414 17.0308C18.512 17.0308 18.7653 16.9643 18.9945 16.8546L12.9289 10.8281Z" fill="rgb(133,135,139)" fill-rule="nonzero" />
		</g>
	</g>
</svg>
