<svg viewBox="0 0 24 24.1653" xmlns="http://www.w3.org/2000/svg" xmlns:xlink="http://www.w3.org/1999/xlink" width="24.000000" height="24.165283" fill="none" customFrame="#000000">
	<rect id="24 / basic / printer" width="24.000000" height="24.165365" x="0.000000" y="0.000000" fill="rgb(255,255,255)" fill-opacity="0" />
	<path id="icon" d="M8 7.04837L8 4.0277L16 4.0277L16 7.04837L8 7.04837ZM6 7.04837L6 2.01392L18 2.01392L18 7.04837L20 7.04837C21.1046 7.04837 22 7.94997 22 9.06215L22 17.1173C22 18.2294 21.1046 19.131 20 19.131L18 19.131L18 22.1517L6 22.1517L6 19.131L4 19.131C2.89543 19.131 2 18.2294 2 17.1173L2 9.06215C2 7.94997 2.89543 7.04837 4 7.04837L6 7.04837ZM6 17.1173L6 15.1035L18 15.1035L18 17.1173L20 17.1173L20 9.06215L4 9.06215L4 17.1173L6 17.1173ZM19 11.0759C19 10.5198 18.5523 10.069 18 10.069C17.4477 10.069 17 10.5198 17 11.0759C17 11.632 17.4477 12.0828 18 12.0828C18.5523 12.0828 19 11.632 19 11.0759ZM8 17.1173L16 17.1173L16 20.1379L8 20.1379L8 17.1173Z" fill="rgb(67,69,75)" fill-rule="evenodd" />
</svg>
