<svg viewBox="0 0 20 20" xmlns="http://www.w3.org/2000/svg" xmlns:xlink="http://www.w3.org/1999/xlink" width="20.000000" height="20.000000" fill="none" customFrame="#000000">
	<path id="icon" d="M12.5738 14.6373C11.281 15.5283 9.71394 16.0501 8.02503 16.0501C3.59293 16.0501 0 12.4571 0 8.02503C0 3.59293 3.59293 0 8.02503 0C12.4571 0 16.0501 3.59293 16.0501 8.02503C16.0501 9.71394 15.5283 11.281 14.6373 12.5738L20 17.9365L17.9365 20L12.5738 14.6373ZM13.1319 8.02503C13.1319 10.8455 10.8455 13.1319 8.02503 13.1319C5.2046 13.1319 2.91819 10.8455 2.91819 8.02503C2.91819 5.2046 5.2046 2.91819 8.02503 2.91819C10.8455 2.91819 13.1319 5.2046 13.1319 8.02503Z" fill="rgb(67,69,75)" fill-rule="evenodd" />
</svg>
