<svg viewBox="0 0 28 28" xmlns="http://www.w3.org/2000/svg" xmlns:xlink="http://www.w3.org/1999/xlink" width="28.000000" height="28.000000" fill="none" customFrame="url(#clipPath_0)">
	<defs>
		<clipPath id="clipPath_0">
			<rect width="28.000000" height="28.000000" x="0.000000" y="0.000000" rx="8.000000" fill="rgb(255,255,255)" />
		</clipPath>
	</defs>
	<rect id="Телеграм" width="28.000000" height="28.000000" x="0.000000" y="0.000000" rx="8.000000" fill="rgb(28,160,233)" />
	<path id="Exclude" d="M22.9531 5.14197C22.9531 5.14197 24.4735 4.46062 24.5 5.58728L21.1709 22.3109C21.1606 22.3355 20.6856 23.4576 19.4414 22.9135L14.7236 19.2963L11.6826 22.0482C11.6826 22.0482 11.4467 22.2322 11.1846 22.1273C11.1791 22.1266 10.9455 22.0904 10.6865 21.2357C10.3995 20.3484 8.99685 15.7496 8.98339 15.7054L4.29101 14.1322C4.27456 14.126 3.58257 13.8636 3.50487 13.3197C3.42724 12.7741 4.30242 12.4608 4.31737 12.4554L22.9531 5.14197ZM20.8828 8.54919C20.9084 8.16053 20.2669 8.54141 20.2539 8.54919L9.95312 15.1019C9.79585 15.2068 9.74347 15.3909 9.79589 15.5482L11.0273 19.5843C11.1059 19.8201 11.4462 19.7942 11.499 19.5326L11.7881 17.0677C11.7882 16.9631 11.8404 16.8847 11.9189 16.8324C12.9153 15.9409 20.3329 9.28364 20.6475 8.96911C20.9881 8.60226 20.8828 8.54919 20.8828 8.54919Z" fill="rgb(255,255,255)" fill-rule="evenodd" />
</svg>
