<svg viewBox="0 0 18.0488 17.9991" xmlns="http://www.w3.org/2000/svg" xmlns:xlink="http://www.w3.org/1999/xlink" width="18.048828" height="17.999146" fill="none" customFrame="#000000">
	<path id="Union" d="M12.7898 0.394971C12.4142 0.23659 12.0205 0.082736 11.9074 0.0465346C11.6675 -0.0213422 11.2422 0.00128463 10.9526 0.100837C10.5363 0.245641 10.3779 0.417596 9.92537 1.20044L9.50453 1.92446L9.2466 1.95162C8.73978 2.00592 8.72621 1.99234 8.28727 1.24117C8.07459 0.879159 7.83928 0.512624 7.76688 0.435697C7.49085 0.150613 6.89353 -0.0484934 6.48174 0.0103331C6.36861 0.0284338 5.92063 0.182288 5.49074 0.358768C4.97958 0.567551 4.76336 0.667519 4.6143 0.779404C4.34431 0.937061 4.07311 1.26422 3.94715 1.62597C3.83854 1.94273 3.86569 2.23233 4.07838 3.02876L4.27748 3.7754L4.1372 3.94736C4.06028 4.04239 3.92905 4.17362 3.84307 4.24149C3.83617 4.24662 3.82969 4.25157 3.82353 4.25633C3.803 4.26729 3.78797 4.2718 3.78024 4.26848C3.74856 4.25491 3.40465 4.16441 3.01097 4.06033C2.17382 3.8386 1.90683 3.83407 1.49052 4.02412C1.37679 4.07604 1.27894 4.13269 1.19123 4.20062C1.00522 4.31137 0.848329 4.45279 0.747878 4.60803C0.684526 4.69853 0.494471 5.11032 0.327041 5.52211C0.0283819 6.23708 0.0148065 6.28685 0.0148065 6.63076C0.0148065 6.92942 0.0374322 7.04255 0.14151 7.26881C0.313465 7.64892 0.46732 7.78467 1.24112 8.23718C1.87916 8.60825 1.91084 8.6354 1.94251 8.7983C1.96514 8.89333 1.96514 9.06076 1.94704 9.17389L1.91084 9.37752L1.16872 9.85718C0.336091 10.3957 0.186762 10.5586 0.0510076 11.088C-0.0530705 11.5043 -0.0123443 11.7487 0.30894 12.5225C0.670951 13.4049 0.716202 13.4818 0.960559 13.7081C1.45832 14.1651 1.92894 14.2104 3.0376 13.9072L3.71184 13.7171L4.28201 14.2873L4.07838 15.052C3.83402 15.9616 3.82949 16.2376 4.03765 16.6675C4.24581 17.0929 4.48111 17.2739 5.25944 17.6042C5.63502 17.7626 6.02871 17.9164 6.14184 17.9526C6.38167 18.0205 6.80703 17.9979 7.09664 17.8983C7.51295 17.7535 7.67133 17.5816 8.12385 16.7987L8.54468 16.0747L8.80262 16.0476C9.30943 15.9933 9.323 16.0068 9.76194 16.758C9.97462 17.12 10.2099 17.4866 10.2823 17.5635C10.5584 17.8486 11.1557 18.0477 11.5675 17.9888C11.6806 17.9707 12.1286 17.8169 12.5585 17.6404C13.0696 17.4316 13.2858 17.3317 13.4349 17.2198C13.7049 17.0621 13.9761 16.735 14.1021 16.3732C14.2107 16.0565 14.1835 15.7668 13.9708 14.9704L13.7717 14.2238L13.912 14.0518C13.9889 13.9568 14.1202 13.8256 14.2061 13.7577C14.213 13.7526 14.2195 13.7476 14.2257 13.7428C14.2462 13.7319 14.2612 13.7274 14.269 13.7307C14.3007 13.7443 14.6446 13.8348 15.0382 13.9389C15.8754 14.1606 16.1424 14.1651 16.5587 13.9751C16.6724 13.9231 16.7703 13.8665 16.858 13.7986C17.044 13.6878 17.2009 13.5464 17.3013 13.3912C17.3647 13.3006 17.5547 12.8889 17.7222 12.4771C18.0208 11.7621 18.0344 11.7123 18.0344 11.3684C18.0344 11.0698 18.0118 10.9566 17.9077 10.7304C17.7357 10.3503 17.5819 10.2145 16.8081 9.76199C16.1701 9.39093 16.1384 9.36378 16.1067 9.20088C16.0841 9.10585 16.0841 8.93842 16.1022 8.82529L16.1384 8.62166L16.8805 8.142C17.7131 7.60351 17.8625 7.4406 17.9982 6.91116C18.1023 6.49485 18.0616 6.25049 17.7403 5.47669C17.3783 4.59429 17.333 4.51737 17.0887 4.29111C16.5909 3.83407 16.1203 3.78882 15.0116 4.092L14.3374 4.28206L14.0523 3.99698L13.7672 3.71189L13.9708 2.94715C14.2152 2.03759 14.2197 1.76156 14.0116 1.33167C13.8034 0.90631 13.5681 0.725307 12.7898 0.394971ZM16.9531 11.8613C17.0463 11.6125 17.1113 11.4089 17.1113 11.3594C17.1113 11.0743 16.9891 10.9612 16.1836 10.4951C15.6643 10.1917 15.43 10.0615 15.3243 9.86278C15.233 9.69102 15.2379 9.46811 15.2379 9.03797C15.2379 8.55694 15.2285 8.32181 15.3226 8.14031C15.4251 7.94276 15.65 7.80875 16.1429 7.49038C16.5818 7.20982 16.971 6.93379 17.0072 6.87948C17.1611 6.6487 17.1339 6.47222 16.8579 5.8025C16.5366 5.02418 16.514 4.99251 16.2832 4.87938L16.0931 4.78887L15.256 5.0106C14.7944 5.13278 14.3555 5.23686 14.2831 5.23686C14.084 5.23686 13.7582 5.02871 13.3961 4.67122C13.0341 4.31826 12.8124 3.96982 12.8124 3.76619C12.8124 3.68927 12.912 3.25485 13.0387 2.79329L13.2604 1.95614L13.1789 1.77514C13.1337 1.67558 13.0703 1.57151 13.0341 1.54435C12.9979 1.51268 12.6676 1.36335 12.292 1.20949C11.577 0.91536 11.4051 0.888209 11.1698 1.04206C11.1155 1.07827 10.8711 1.45385 10.6222 1.87469C10.3779 2.29553 10.1381 2.66659 10.0837 2.69826C9.81676 2.87022 8.35515 2.86569 8.09721 2.69374C8.03839 2.65753 7.78951 2.2729 7.54062 1.84301C6.92973 0.779605 6.92521 0.779605 5.88895 1.21402C5.17398 1.51268 5.11515 1.54888 5.00655 1.78418C4.93031 1.94114 4.93407 1.95589 5.15877 2.837L5.16493 2.86117L5.40476 3.77977L5.29163 4.02413C5.13077 4.37212 4.69362 4.82253 4.3275 5.05914C4.1525 5.19742 3.98532 5.29626 3.86117 5.31847C3.76614 5.33657 3.43128 5.2687 2.84754 5.11484L2.82274 5.10827C2.27834 4.96402 1.98564 4.88647 1.78631 4.94602C1.6539 5.03579 1.58906 5.16806 1.43622 5.55362C1.31756 5.84889 1.21068 6.03646 1.09608 6.13788C1.00294 6.38669 0.937934 6.5903 0.937934 6.63981C0.937934 6.9249 1.06011 7.03802 1.86559 7.50411C2.38494 7.80747 2.61925 7.93773 2.72488 8.1364C2.8117 8.2997 2.81158 8.50923 2.81136 8.89912L2.81134 8.96121C2.81134 9.00275 2.81141 9.04246 2.81147 9.08046C2.81218 9.48245 2.81255 9.69305 2.72657 9.85887C2.62415 10.0564 2.3992 10.1904 1.90631 10.5088C1.46737 10.7894 1.07821 11.0654 1.04201 11.1197C0.888157 11.3505 0.915308 11.527 1.19134 12.1967C1.51263 12.975 1.53525 13.0067 1.76603 13.1198L1.95609 13.2103L2.79324 12.9886C3.2548 12.8664 3.69374 12.7623 3.76614 12.7623C3.96525 12.7623 4.29106 12.9705 4.65307 13.328C5.01508 13.6809 5.23681 14.0294 5.23681 14.233C5.23681 14.3099 5.13726 14.7443 5.01055 15.2059L4.78882 16.043L4.87027 16.224C4.91553 16.3236 4.97888 16.4277 5.01508 16.4548C5.05128 16.4865 5.38161 16.6358 5.7572 16.7897C6.47217 17.0838 6.64413 17.111 6.87943 16.9571C6.93374 16.9209 7.17809 16.5453 7.42697 16.1245C7.67133 15.7037 7.91116 15.3326 7.96547 15.3009C8.23245 15.129 9.69407 15.1335 9.952 15.3054C10.0108 15.3416 10.2597 15.7263 10.5086 16.1562C11.1195 17.2196 11.124 17.2196 12.1603 16.7852C12.8752 16.4865 12.9341 16.4503 13.0427 16.215C13.1189 16.058 13.1151 16.0433 12.8904 15.1622L12.8843 15.138L12.6445 14.2194L12.7576 13.9751C12.9184 13.6271 13.3556 13.1767 13.7217 12.94C13.8967 12.8018 14.0639 12.7029 14.188 12.6807C14.2831 12.6626 14.6179 12.7305 15.2017 12.8843C15.762 13.0328 16.0606 13.1136 16.2629 13.0532C16.3953 12.9634 16.4602 12.8311 16.613 12.4456C16.7317 12.1503 16.8385 11.9627 16.9531 11.8613ZM11.2742 9.04619C11.2742 7.66548 10.1549 6.54619 8.77419 6.54619C7.39348 6.54619 6.27419 7.66548 6.27419 9.04619C6.27419 10.4269 7.39348 11.5462 8.77419 11.5462C10.1549 11.5462 11.2742 10.4269 11.2742 9.04619ZM8.19837 7.65603C8.37514 7.58281 8.56708 7.54619 8.77419 7.54619C8.98125 7.54619 9.17315 7.58279 9.3499 7.65598L9.35002 7.65603L9.3501 7.65606C9.52684 7.72929 9.68843 7.83911 9.83485 7.98553C9.9813 8.13198 10.0911 8.29359 10.1644 8.47037L10.1644 8.47046C10.2376 8.64722 10.2742 8.83913 10.2742 9.04619C10.2742 9.2533 10.2376 9.44524 10.1644 9.62202C10.0911 9.79879 9.9813 9.96041 9.83485 10.1069C9.68843 10.2533 9.52684 10.3631 9.3501 10.4363L9.35002 10.4364L9.34992 10.4364C9.17317 10.5096 8.98126 10.5462 8.77419 10.5462C8.56708 10.5462 8.37514 10.5096 8.19837 10.4364L8.19827 10.4363C8.02153 10.3631 7.85995 10.2533 7.71353 10.1069C7.56708 9.96041 7.45725 9.79879 7.38403 9.62202C7.3108 9.44524 7.27419 9.2533 7.27419 9.04619C7.27419 8.83914 7.31079 8.64723 7.38398 8.47048L7.38403 8.47037C7.45725 8.29359 7.56708 8.13198 7.71353 7.98553C7.85994 7.83912 8.02152 7.7293 8.19826 7.65607L8.19837 7.65603Z" fill="rgb(67,69,75)" fill-rule="evenodd" />
</svg>
