<svg viewBox="0 0 13.2617 18" xmlns="http://www.w3.org/2000/svg" xmlns:xlink="http://www.w3.org/1999/xlink" width="13.261719" height="18.000000" fill="none" customFrame="#000000">
	<g id="Black">
		<path id="Vector" d="M0.922569 17.9572C0.832562 17.9032 0.762807 17.8222 0.733555 17.7457C0.717804 17.703 0.708803 17.3159 0.708803 16.6116C0.708803 15.5676 0.711053 15.5361 0.756056 15.4416C0.816811 15.3133 0.951821 15.2323 1.10258 15.2323L1.21059 15.2323L1.19484 14.969C1.14309 14.123 0.990074 13.4817 0.618796 12.5793C0.303773 11.8098 0.141761 11.2247 0.040503 10.4844C0.00225017 10.1987 0 9.91965 0 5.71408L0 1.2475L0.0607545 1.06749C0.202515 0.646706 0.477036 0.333932 0.866315 0.142668C1.17684 -0.0103433 0.753807 -0.0013426 6.62675 0.000907566C12.4727 0.000907566 12.0587 -0.0103433 12.3714 0.140418C12.7652 0.327182 13.051 0.651206 13.1927 1.06749L13.2535 1.2475L13.2602 6.87292C13.2647 10.5204 13.258 12.5793 13.2445 12.7279C13.1747 13.4322 12.9497 14.0127 12.5244 14.5797C12.3804 14.7733 11.8224 15.3538 11.5119 15.6306C10.6613 16.3911 9.62622 16.6994 8.49888 16.5239C8.12311 16.4654 7.80808 16.3641 7.45481 16.1864C7.03853 15.9771 6.84276 15.8128 5.98095 14.9533L5.18664 14.1657L5.18664 14.699L5.18664 15.2323L5.28789 15.2323C5.46341 15.2323 5.60967 15.3471 5.65917 15.5203C5.69067 15.6328 5.69067 17.5995 5.65917 17.712C5.62767 17.82 5.53541 17.9302 5.44091 17.9685C5.38015 17.9955 4.97737 18 3.17949 18C1.08233 18 0.987824 17.9977 0.922569 17.9572ZM4.87161 16.6049L4.87161 16.0199L3.19524 16.0199L1.51886 16.0199L1.51886 16.6049L1.51886 17.1899L3.19524 17.1899L4.87161 17.1899L4.87161 16.6049ZM9.61947 15.7138C10.0155 15.6328 10.353 15.4866 10.704 15.239C10.8976 15.104 11.7211 14.2917 11.8831 14.078C12.1892 13.6684 12.3782 13.1891 12.4322 12.6851C12.4457 12.5546 12.4547 10.651 12.4547 7.64473L12.4547 2.81137L11.4714 2.81137C10.362 2.81137 10.3643 2.81137 10.236 2.64035C10.1798 2.5661 10.1708 2.53685 10.1708 2.40409C10.1708 2.26908 10.1775 2.24432 10.2383 2.16782C10.3778 1.99681 10.3418 2.00131 11.4579 2.00131L12.4547 2.00131L12.4547 1.73354C12.4547 1.52877 12.4434 1.43201 12.4097 1.31951C12.3512 1.12824 12.2049 0.961729 12.0159 0.873973L11.8809 0.808718L6.638 0.808718C1.69663 0.808718 1.38835 0.810968 1.28485 0.846971C1.13408 0.900975 0.951821 1.07199 0.873065 1.23175C0.816811 1.34876 0.812311 1.38701 0.80331 1.68178L0.794309 2.00131L1.77988 2.00131C2.89147 2.00131 10.8892 2.00131 11.0175 2.17232C11.0737 2.24657 11.0827 2.27583 11.0827 2.40634C11.0827 2.53685 11.0737 2.5661 11.0175 2.64035C10.8892 2.81137 2.89147 2.81137 1.78438 2.81137L0.79881 2.81137L0.79881 6.32838C0.79881 9.93315 0.80331 10.0952 0.891067 10.642C0.978823 11.1865 1.10258 11.5983 1.3906 12.3071C1.48286 12.5366 1.59537 12.8314 1.63812 12.9641C1.84064 13.5649 1.97565 14.2895 2.00715 14.9465L2.02065 15.2323L3.19974 15.2323L4.37658 15.2323L4.37658 14.1477L4.37658 13.0654L4.43508 12.9641C4.53184 12.8021 4.75686 12.7324 4.94137 12.8111C4.98862 12.8314 5.44316 13.2701 6.10921 13.9384C7.10603 14.9398 7.41655 15.2278 7.63932 15.3606C7.9791 15.5676 8.37963 15.7026 8.77566 15.7498C8.98267 15.7746 9.40795 15.7566 9.61947 15.7138Z" fill="rgb(67,69,75)" fill-rule="nonzero" transform="matrix(1,0,0,-1,0,18)" />
		<path id="Vector" d="M1.37485 3.68881C0.974323 3.63931 0.627797 3.4773 0.344276 3.20728C0.108008 2.98001 0 2.73474 0 2.41747C0 1.97868 0.13276 1.76042 0.625547 1.39364C1.12058 1.02461 2.10391 0.31356 2.27267 0.201052C2.7452 -0.116222 3.319 -0.0532173 3.70153 0.356313C3.92429 0.592581 3.99855 0.8491 3.98055 1.30363C3.9603 1.77842 3.84554 2.10919 3.58452 2.43322C3.38425 2.68524 2.75871 3.28603 2.58094 3.40079C2.21416 3.63931 1.78663 3.74057 1.37485 3.68881ZM1.82489 2.854C2.05665 2.80225 2.18716 2.70324 2.6507 2.23295C3.02198 1.85718 3.10748 1.72892 3.15249 1.47465C3.18849 1.28338 3.18399 1.04261 3.14348 0.966109C3.04898 0.781595 2.88922 0.759093 2.6822 0.905354C2.32217 1.15737 0.93607 2.1767 0.882066 2.2307C0.708803 2.40172 0.828062 2.63573 1.17234 2.79324C1.3861 2.89225 1.57737 2.91025 1.82489 2.854Z" fill="rgb(67,69,75)" fill-rule="nonzero" transform="matrix(1,0,0,-1,7.5,6.90649)" />
	</g>
</svg>
