<svg viewBox="0 0 20.3457 18" xmlns="http://www.w3.org/2000/svg" xmlns:xlink="http://www.w3.org/1999/xlink" width="20.345703" height="18.000000" fill="none" customFrame="#000000">
	<g id="Group 42">
		<g id="Group 43">
			<path id="Ellipse 24" d="M18.4394 9L19.1016 9C19.1016 9.33542 19.0828 9.66924 19.0458 10C18.8618 11.6459 18.2262 13.2162 17.2002 14.5326C15.9679 16.1136 14.2432 17.238 12.2994 17.7275C10.3556 18.217 8.30399 18.0436 6.46994 17.2348C4.94279 16.5613 3.63924 15.4793 2.69767 14.1169C2.50845 13.8431 2.33385 13.558 2.175 13.2626L2.17498 13.2625L2.75817 12.9489C3.63768 14.5845 5.03801 15.8796 6.73713 16.6289C8.43624 17.3782 10.3369 17.5389 12.1377 17.0854C13.9385 16.6319 15.5363 15.5902 16.6779 14.1256C17.8195 12.6609 18.4394 10.857 18.4394 9Z" fill="rgb(67,69,75)" fill-rule="evenodd" />
			<path id="Line 1" d="M0 0.645295L1.6641 2.25468L2.33419 0" stroke="rgb(67,69,75)" stroke-linecap="round" stroke-width="1.000000" transform="matrix(-0.968646,-0.248447,0.248447,-0.968646,19.6836,11.626)" />
		</g>
		<g id="Group 44">
			<path id="Ellipse 24" d="M17.3378 9L18 9C18 9.33542 17.9813 9.66924 17.9443 10C17.7603 11.6459 17.1246 13.2162 16.0986 14.5326C14.8664 16.1136 13.1416 17.238 11.1978 17.7275C9.25401 18.217 7.20243 18.0436 5.36837 17.2348C3.84122 16.5613 2.53768 15.4793 1.5961 14.1169C1.40689 13.8431 1.23229 13.558 1.07343 13.2626L1.07342 13.2625L1.65661 12.9489C2.53612 14.5845 3.93645 15.8796 5.63557 16.6289C7.33468 17.3782 9.23532 17.5389 11.0361 17.0854C12.8369 16.6319 14.4348 15.5902 15.5763 14.1256C16.7179 12.6609 17.3378 10.857 17.3378 9Z" fill="rgb(67,69,75)" fill-rule="evenodd" transform="matrix(-1,0,0,-1,19.2432,18)" />
			<path id="Line 1" d="M0 0.645295L1.6641 2.25468L2.33419 0" stroke="rgb(67,69,75)" stroke-linecap="round" stroke-width="1.000000" transform="matrix(0.968646,0.248447,-0.248447,0.968646,0.662109,6.37402)" />
		</g>
		<g id="Group 41">
			<path id="Union" d="M12.6287 3.26356C12.3783 3.15798 12.1158 3.0554 12.0404 3.03127C11.8805 2.98602 11.5969 3.0011 11.4038 3.06747C11.1263 3.16401 11.0207 3.27865 10.719 3.80056L10.4384 4.28326L10.2664 4.30136C9.9285 4.33756 9.91945 4.32851 9.6268 3.82771C9.485 3.58637 9.32812 3.342 9.27985 3.29071C9.09581 3.10065 8.69756 2.96791 8.42301 3.00713C8.34759 3.0192 8.0489 3.12177 7.76229 3.23943C7.42118 3.37875 7.27707 3.44539 7.17768 3.52006C6.99779 3.62524 6.81715 3.84324 6.73322 4.08425C6.66081 4.29543 6.67891 4.48851 6.82071 5.01947L6.95346 5.51725L6.85993 5.63189C6.80864 5.69524 6.72115 5.78273 6.66383 5.82798C6.65929 5.83135 6.65503 5.83461 6.65097 5.83774C6.63715 5.84514 6.62705 5.8482 6.62186 5.84598C6.60074 5.83693 6.37144 5.77659 6.10896 5.7072C5.55082 5.55938 5.37281 5.55636 5.09525 5.68307C5.01931 5.71773 4.95399 5.75556 4.89545 5.80093C4.77158 5.87474 4.6671 5.96894 4.60019 6.07235C4.55795 6.13268 4.43124 6.40722 4.31961 6.68175C4.12049 7.15841 4.11143 7.19159 4.11143 7.42087C4.11143 7.61999 4.12652 7.69541 4.19591 7.84625C4.31056 8.09966 4.41314 8.19017 4.92904 8.49185C5.35444 8.73923 5.37556 8.75733 5.39668 8.86594C5.41177 8.92929 5.41177 9.04092 5.3997 9.11634L5.37556 9.25209L4.88077 9.57188C4.32564 9.93088 4.22608 10.0395 4.13557 10.3925C4.06618 10.67 4.09333 10.8329 4.30754 11.3488C4.5489 11.9371 4.57907 11.9884 4.74199 12.1392C5.07386 12.4439 5.38763 12.4741 6.1268 12.272L6.57633 12.1452L6.76641 12.3353L6.95648 12.5254L6.82071 13.0352C6.65779 13.6416 6.65478 13.8256 6.79356 14.1122C6.93234 14.3958 7.08923 14.5165 7.60815 14.7367C7.85856 14.8423 8.12104 14.9449 8.19647 14.969C8.35637 15.0143 8.63997 14.9992 8.83306 14.9328C9.11062 14.8363 9.21622 14.7216 9.51792 14.1997L9.7985 13.717L9.97047 13.6989C10.3084 13.6627 10.3174 13.6718 10.6101 14.1726C10.7519 14.4139 10.9088 14.6583 10.957 14.7096C11.1411 14.8996 11.5393 15.0324 11.8139 14.9931C11.8893 14.9811 12.188 14.8785 12.4746 14.7608C12.8157 14.6215 12.9598 14.5549 13.0592 14.4802C13.2391 14.375 13.4197 14.157 13.5037 13.916C13.5761 13.7048 13.558 13.5118 13.4162 12.9808L13.2834 12.483L13.3769 12.3684C13.4282 12.305 13.5157 12.2175 13.5731 12.1723C13.5776 12.1689 13.5819 12.1657 13.5859 12.1625C13.5997 12.1551 13.6098 12.1521 13.615 12.1543C13.6361 12.1633 13.8654 12.2237 14.1279 12.2931C14.6861 12.4409 14.8641 12.4439 15.1416 12.3172C15.2176 12.2825 15.2829 12.2447 15.3414 12.1993C15.4653 12.1255 15.5698 12.0313 15.6367 11.9279C15.6789 11.8676 15.8056 11.5931 15.9173 11.3185C16.1164 10.8419 16.1254 10.8087 16.1254 10.5794C16.1254 10.3803 16.1104 10.3049 16.041 10.154C15.9263 9.90061 15.8237 9.81011 15.3078 9.50842C14.8824 9.26104 14.8613 9.24294 14.8402 9.13433C14.8251 9.07098 14.8251 8.95936 14.8372 8.88394L14.8613 8.74818L15.3561 8.42839C15.9112 8.06939 16.0108 7.96078 16.1013 7.60781C16.1707 7.33026 16.1435 7.16736 15.9293 6.65148C15.688 6.06319 15.6578 6.01191 15.4949 5.86106C15.163 5.55636 14.8493 5.52619 14.1101 5.72832L13.6605 5.85503L13.4705 5.66497L13.2804 5.47491L13.4162 4.96506C13.5791 4.35868 13.5821 4.17465 13.4433 3.88805C13.3045 3.60447 13.1477 3.48379 12.6287 3.26356ZM15.4045 10.9081C15.4666 10.7422 15.51 10.6064 15.51 10.5734C15.51 10.3833 15.4285 10.3079 14.8915 9.99715C14.5452 9.7949 14.389 9.70806 14.3186 9.57561C14.2577 9.4611 14.2609 9.31249 14.2609 9.02573C14.2609 8.70504 14.2547 8.54828 14.3174 8.42727C14.3857 8.29557 14.5357 8.20623 14.8643 7.99397C15.157 7.80692 15.4164 7.6229 15.4406 7.58669C15.5432 7.43284 15.5251 7.31518 15.341 6.86869C15.1268 6.34979 15.1117 6.32867 14.9579 6.25325L14.8311 6.19292L14.273 6.34074C13.9653 6.4222 13.6726 6.49158 13.6243 6.49158C13.4916 6.49158 13.2744 6.35281 13.033 6.11448C12.7916 5.87916 12.6438 5.64687 12.6438 5.51111C12.6438 5.45982 12.7102 5.17021 12.7947 4.86249L12.9425 4.30437L12.8882 4.1837C12.858 4.11733 12.8158 4.04794 12.7916 4.02984C12.7675 4.00872 12.5473 3.90917 12.2969 3.8066C11.8202 3.6105 11.7055 3.5924 11.5486 3.69497C11.5124 3.71911 11.3495 3.96951 11.1836 4.25007C11.0207 4.53064 10.8608 4.77802 10.8246 4.79914C10.6466 4.91378 9.67206 4.91076 9.50009 4.79612C9.46087 4.77198 9.29493 4.51555 9.12899 4.22895C8.7217 3.52 8.71868 3.52 8.02778 3.80961C7.5511 4.00872 7.51188 4.03286 7.43947 4.18973C7.38864 4.29437 7.39115 4.3042 7.54095 4.89162L7.54506 4.90774L7.70496 5.52016L7.62954 5.68307C7.52235 5.91494 7.23117 6.21501 6.98715 6.37282C6.87035 6.46516 6.75875 6.53116 6.6759 6.54599C6.61254 6.55806 6.38928 6.5128 6.00008 6.41023L5.98355 6.40585C5.62046 6.30965 5.4253 6.25794 5.2924 6.29772C5.20416 6.35757 5.16092 6.44577 5.05904 6.70276C4.97997 6.89951 4.90874 7.02453 4.83238 7.09217C4.77027 7.2581 4.7269 7.39389 4.7269 7.42691C4.7269 7.61697 4.80836 7.69239 5.34539 8.00312C5.69166 8.20537 5.84788 8.29221 5.91831 8.42466C5.97619 8.53353 5.97611 8.67322 5.97596 8.93316L5.97595 8.97455C5.97595 9.00224 5.97599 9.02872 5.97604 9.05405C5.97651 9.32205 5.97676 9.46245 5.91944 9.573C5.85115 9.7047 5.70117 9.79405 5.37255 10.0063C5.0799 10.1933 4.82043 10.3774 4.7963 10.4136C4.69372 10.5674 4.71182 10.6851 4.89586 11.1316C5.11007 11.6505 5.12515 11.6716 5.27902 11.747L5.40573 11.8074L5.96388 11.6595C6.27162 11.5781 6.56427 11.5087 6.61254 11.5087C6.74529 11.5087 6.96251 11.6475 7.20387 11.8858C7.44523 12.1211 7.59307 12.3534 7.59307 12.4892C7.59307 12.5405 7.52669 12.8301 7.44222 13.1378L7.29438 13.6959L7.34869 13.8166C7.37886 13.8829 7.4211 13.9523 7.44523 13.9704C7.46937 13.9915 7.68961 14.0911 7.94002 14.1937C8.41671 14.3898 8.53136 14.4079 8.68824 14.3053C8.72445 14.2812 8.88737 14.0308 9.0533 13.7502C9.21622 13.4696 9.37612 13.2223 9.41233 13.2011C9.59033 13.0865 10.5648 13.0895 10.7368 13.2042C10.776 13.2283 10.942 13.4847 11.1079 13.7713C11.5152 14.4803 11.5182 14.4803 12.2091 14.1907C12.6858 13.9915 12.725 13.9674 12.7974 13.8105C12.8482 13.7059 12.8457 13.6961 12.6959 13.1087L12.6918 13.0925L12.5319 12.4801L12.6073 12.3172C12.7145 12.0853 13.0057 11.7853 13.2497 11.6274C13.3665 11.5351 13.4781 11.4691 13.561 11.4543C13.6243 11.4422 13.8476 11.4875 14.2368 11.59C14.6105 11.689 14.8096 11.7429 14.9445 11.7025C15.0327 11.6427 15.076 11.5545 15.1778 11.2975C15.2569 11.1008 15.3281 10.9757 15.4045 10.9081ZM11.6186 9.03114C11.6186 8.11064 10.8723 7.36443 9.95177 7.36443C9.03121 7.36443 8.28496 8.11064 8.28496 9.03114C8.28496 9.95164 9.03121 10.6979 9.95177 10.6979C10.8723 10.6979 11.6186 9.95164 11.6186 9.03114ZM9.54217 8.04256C9.66791 7.99047 9.80445 7.96443 9.95177 7.96443C10.0991 7.96443 10.2356 7.99047 10.3614 8.04256L10.3614 8.04257C10.4871 8.09464 10.602 8.17274 10.7061 8.27687C10.8103 8.38103 10.8884 8.49598 10.9405 8.62171C10.9925 8.74741 11.0186 8.88389 11.0186 9.03114C11.0186 9.1784 10.9925 9.31487 10.9405 9.44057L10.9405 9.44064C10.8884 9.56635 10.8103 9.68127 10.7061 9.78541C10.602 9.88954 10.4871 9.96765 10.3614 10.0197L10.3613 10.0197C10.2356 10.0718 10.0991 10.0979 9.95177 10.0979C9.80445 10.0979 9.66791 10.0718 9.54217 10.0197L9.54214 10.0197C9.41645 9.96763 9.30154 9.88953 9.19741 9.78541C9.09327 9.68127 9.01516 9.56635 8.96308 9.44065L8.96305 9.44057C8.91099 9.31487 8.88496 9.1784 8.88496 9.03114C8.88496 8.88389 8.91098 8.74742 8.96304 8.62173L8.96305 8.62171C9.01512 8.49598 9.09324 8.38103 9.19741 8.27687C9.30154 8.17274 9.41646 8.09464 9.54216 8.04257L9.54217 8.04256Z" fill="rgb(67,69,75)" fill-rule="evenodd" />
		</g>
	</g>
</svg>
