<svg viewBox="0 0 15.4004 18.4" xmlns="http://www.w3.org/2000/svg" xmlns:xlink="http://www.w3.org/1999/xlink" width="15.400391" height="18.400024" fill="none" customFrame="#000000">
	<path id="Union" d="M4.97292 0.892312C4.21982 0.892312 3.6093 1.51223 3.6093 2.27693L2.24566 2.27693C1.11598 2.27693 0.200195 3.20681 0.200195 4.35385L0.200195 15.4308C0.200195 16.5778 1.11598 17.5077 2.24566 17.5077L4.97292 17.5077C5.34948 17.5077 5.65474 17.1978 5.65474 16.8154C5.65474 16.4331 5.34948 16.1231 4.97292 16.1231L2.24566 16.1231C1.8691 16.1231 1.56384 15.8131 1.56384 15.4308L1.56384 4.35385C1.56384 3.97151 1.8691 3.66155 2.24566 3.66155L3.6093 3.66155C3.6093 4.42625 4.21982 5.04617 4.97292 5.04617L9.06384 5.04617C9.81695 5.04617 10.4275 4.42625 10.4275 3.66155L11.7911 3.66155C12.1677 3.66155 12.4729 3.97151 12.4729 4.35385L12.4729 7.81539C12.4729 8.19775 12.7782 8.50771 13.1547 8.50771C13.5313 8.50771 13.8366 8.19775 13.8366 7.81539L13.8366 4.35385C13.8366 3.20681 12.9208 2.27693 11.7911 2.27693L10.4275 2.27693C10.4275 1.51223 9.81695 0.892312 9.06384 0.892312L8.5429 0.892312C8.16891 0.468152 7.62474 0.200012 7.01837 0.200012C6.41201 0.200012 5.86784 0.468152 5.49388 0.892312L4.97292 0.892312ZM7.01837 1.58463C6.76688 1.58463 6.54628 1.72255 6.42736 1.93129L6.23044 2.27693L4.97292 2.27693L4.97292 3.66155L9.06384 3.66155L9.06384 2.27693L7.80631 2.27693L7.6094 1.93129C7.49048 1.72255 7.2699 1.58463 7.01837 1.58463ZM5.65474 13.3539C5.65474 10.6774 7.79155 8.50771 10.4275 8.50771C13.0634 8.50771 15.2002 10.6774 15.2002 13.3539C15.2002 16.0303 13.0634 18.2 10.4275 18.2C7.79155 18.2 5.65474 16.0303 5.65474 13.3539ZM10.4275 9.89231C8.54467 9.89231 7.01837 11.4421 7.01837 13.3539C7.01837 15.2656 8.54467 16.8154 10.4275 16.8154C12.3103 16.8154 13.8366 15.2656 13.8366 13.3539C13.8366 11.4421 12.3103 9.89231 10.4275 9.89231ZM12.955 12.4588C13.2213 12.1884 13.2213 11.7501 12.955 11.4797C12.6888 11.2094 12.2571 11.2094 11.9908 11.4797L9.74566 13.7594L8.86413 12.8643C8.59787 12.594 8.16615 12.594 7.8999 12.8643C7.63364 13.1347 7.63364 13.573 7.8999 13.8434L9.26354 15.228C9.52979 15.4984 9.9615 15.4984 10.2278 15.228L12.955 12.4588Z" fill="rgb(67,69,75)" fill-rule="evenodd" />
	<path id="Union" d="M6.42736 1.93128L6.23044 2.27694L4.97292 2.27694L4.97292 3.66155L9.06383 3.66155L9.06383 2.27694L7.80632 2.27694L7.6094 1.93128C7.49048 1.72255 7.26989 1.58463 7.01838 1.58463C6.76687 1.58463 6.54628 1.72255 6.42736 1.93128ZM3.60929 2.27694L2.24565 2.27694C1.11598 2.27694 0.200195 3.20681 0.200195 4.35386L0.200195 15.4308C0.200195 16.5778 1.11598 17.5077 2.24565 17.5077L4.97292 17.5077C5.34948 17.5077 5.65474 17.1977 5.65474 16.8154C5.65474 16.433 5.34948 16.1231 4.97292 16.1231L2.24565 16.1231C1.86909 16.1231 1.56383 15.8131 1.56383 15.4308L1.56383 4.35386C1.56383 3.97151 1.86909 3.66155 2.24565 3.66155L3.60929 3.66155C3.60929 4.42625 4.21981 5.04617 4.97292 5.04617L9.06383 5.04617C9.81695 5.04617 10.4275 4.42625 10.4275 3.66155L11.7911 3.66155C12.1677 3.66155 12.4729 3.97151 12.4729 4.35386L12.4729 7.8154C12.4729 8.19775 12.7782 8.5077 13.1547 8.5077C13.5313 8.5077 13.8366 8.19775 13.8366 7.8154L13.8366 4.35386C13.8366 3.20681 12.9208 2.27694 11.7911 2.27694L10.4275 2.27694C10.4275 1.51223 9.81695 0.89232 9.06383 0.89232L8.54288 0.89232C8.16892 0.468149 7.62474 0.200012 7.01838 0.200012C6.41201 0.200012 5.86784 0.468149 5.49387 0.89232L4.97292 0.89232C4.21981 0.89232 3.60929 1.51223 3.60929 2.27694ZM10.4275 9.89232C12.3103 9.89232 13.8366 11.4421 13.8366 13.3539C13.8366 15.2656 12.3103 16.8154 10.4275 16.8154C8.54468 16.8154 7.01838 15.2656 7.01838 13.3539C7.01838 11.4421 8.54468 9.89232 10.4275 9.89232ZM5.65474 13.3539C5.65474 16.0303 7.79156 18.2 10.4275 18.2C13.0634 18.2 15.2002 16.0303 15.2002 13.3539C15.2002 10.6774 13.0634 8.5077 10.4275 8.5077C7.79156 8.5077 5.65474 10.6774 5.65474 13.3539ZM12.955 12.4588L10.2278 15.228C9.9615 15.4984 9.5298 15.4984 9.26353 15.228L7.8999 13.8434C7.63363 13.573 7.63363 13.1347 7.8999 12.8643C8.16616 12.594 8.59787 12.594 8.86413 12.8643L9.74565 13.7594L11.9908 11.4797C12.2571 11.2093 12.6888 11.2093 12.955 11.4797C13.2213 11.7501 13.2213 12.1884 12.955 12.4588Z" fill-rule="evenodd" stroke="rgb(242,242,242)" stroke-linecap="round" stroke-linejoin="round" stroke-width="0.400000" />
</svg>
