<svg viewBox="0 0 33.131 32" xmlns="http://www.w3.org/2000/svg" xmlns:xlink="http://www.w3.org/1999/xlink" width="33.130981" height="32.000000" fill="none" customFrame="#000000">
	<g id="Black">
		<path id="Vector" d="M8.0699 31.9366C7.80197 31.8688 7.5662 31.758 7.31971 31.5901C7.15538 31.4794 6.8303 31.1686 3.9117 28.2964C0.0392954 24.4883 0.278642 24.7348 0.132176 24.4383L0 24.1704L0 13.4891L0 2.80428L0.0821636 2.52207C0.446541 1.26103 1.45394 0.314365 2.70425 0.0571573C2.94717 0.00714466 3.57233 0 8.23065 0L13.4856 0L13.3641 0.185761C13.014 0.7359 12.7639 1.39678 12.6496 2.0791C12.5889 2.42204 12.5675 3.16151 12.6103 3.33299L12.6353 3.42944L8.15563 3.43658C3.13651 3.4473 3.52589 3.42587 3.45087 3.70451C3.42229 3.79739 3.41158 6.68026 3.41158 12.7818L3.41158 21.7198L5.86934 21.7198C8.62361 21.7198 8.56288 21.7162 9.06658 21.977C9.45596 22.1806 9.80962 22.5343 10.0097 22.9201C10.2776 23.4345 10.2705 23.3416 10.2705 26.1102L10.2705 28.5787L16.9257 28.5787C21.4376 28.5787 23.6203 28.5679 23.7131 28.5394C23.9918 28.4643 23.9703 28.8251 23.9811 24.0882L23.9882 19.8622L24.1775 19.9408C25.0635 20.298 26.1566 20.5302 27.0533 20.5445L27.4176 20.5516L27.4105 24.8956L27.3998 29.2395L27.3176 29.5039C26.9497 30.697 26.1102 31.5365 24.9134 31.9081L24.6491 31.9902L16.4863 31.9974C8.60217 32.0045 8.31639 32.0009 8.0699 31.9366Z" fill="rgb(255,255,255)" fill-rule="nonzero" transform="matrix(1,0,0,-1,0,32)" />
		<path id="Vector" d="M0.0714466 2.21485C0.00357233 2.14697 0 2.09696 0 1.14315C0 0.189334 0.00357233 0.139321 0.0714466 0.0714466C0.142893 0 0.189334 0 3.42944 0C6.66954 0 6.71598 0 6.78743 0.0714466C6.8553 0.139321 6.85888 0.189334 6.85888 1.14315C6.85888 2.09696 6.8553 2.14697 6.78743 2.21485C6.71598 2.28629 6.66954 2.28629 3.42944 2.28629C0.189334 2.28629 0.142893 2.28629 0.0714466 2.21485Z" fill="rgb(255,255,255)" fill-rule="nonzero" transform="matrix(1,0,0,-1,13.7,9.13708)" />
		<path id="Vector" d="M12.0209 18.2903C11.235 18.2368 10.5027 18.0403 9.80605 17.7009C9.22019 17.4151 8.88796 17.1793 8.42713 16.7185C7.8377 16.1291 7.49475 15.6611 7.20182 15.0395C6.94818 14.4965 6.89103 14.2465 6.86959 13.6284C6.8553 13.1426 6.86245 13.0604 6.94461 12.7461C7.09465 12.1602 7.3983 11.5994 7.85556 11.0564L8.03775 10.842L7.95558 10.7706C7.90914 10.7313 7.43045 10.3419 6.89103 9.90607C2.06481 6.00152 0.893083 5.05128 0.775196 4.93696C0.589435 4.75835 0.335799 4.36539 0.21434 4.07246C0.0607296 3.70094 0 3.37228 0 2.92217C0 2.06481 0.289359 1.38249 0.900228 0.800202C1.46823 0.253636 2.11482 0 2.92931 0C3.51875 0 3.97958 0.125032 4.46899 0.417963C4.79764 0.614441 4.9584 0.775196 5.63357 1.59683C5.98366 2.02194 6.39805 2.52564 6.55523 2.71497C6.71241 2.90788 7.27684 3.59019 7.81269 4.23678C8.34497 4.88338 9.22019 5.94436 9.75604 6.59095C10.2883 7.24112 10.7634 7.81269 10.8099 7.86985L10.892 7.9663L11.26 7.68766C11.6958 7.359 12.1566 7.11251 12.596 6.98034C12.889 6.88745 12.9604 6.88031 13.5213 6.88031C14.0786 6.88031 14.1536 6.88745 14.4501 6.97676C15.2074 7.20896 16.0183 7.72338 16.7185 8.42713C17.4651 9.17375 17.9331 10.074 18.1832 11.2386C18.2832 11.6922 18.3189 12.7782 18.2582 13.2641C18.1796 13.8535 17.9581 14.6287 17.8509 14.6966C17.8009 14.7287 17.5437 14.4894 16.247 13.1926C15.2181 12.1709 14.6466 11.6244 14.5394 11.5708C14.4036 11.4993 14.325 11.485 14.0393 11.485C13.4998 11.485 13.432 11.5279 12.4996 12.4567C11.6637 13.2855 11.5315 13.4605 11.4779 13.8285C11.4386 14.0821 11.4743 14.3501 11.5744 14.5501C11.6279 14.6573 12.1281 15.1824 13.1855 16.2398C14.0285 17.0829 14.718 17.8009 14.718 17.8331C14.718 17.9545 13.7142 18.226 13.0926 18.2725C12.5174 18.3153 12.4067 18.3153 12.0209 18.2903ZM3.45087 4.08317C3.69736 4.00101 4.00458 3.69022 4.09032 3.43301C4.17248 3.18295 4.15105 2.79356 4.04388 2.5828C3.77953 2.07195 3.1508 1.84332 2.64353 2.07552C2.36846 2.20413 2.247 2.31844 2.10768 2.57565C2.00765 2.76856 1.98979 2.83643 1.98622 3.05077C1.98264 3.51875 2.27558 3.94028 2.70425 4.09389C2.89359 4.15819 3.2401 4.15462 3.45087 4.08317Z" fill="rgb(255,255,255)" fill-rule="nonzero" transform="matrix(1,0,0,-1,14.8431,32)" />
		<path id="Vector" d="M0.0714466 2.21485C0.00357233 2.14697 0 2.09696 0 1.14315C0 0.189333 0.00357233 0.139321 0.0714466 0.0714466C0.142893 0 0.189334 0 7.2304 0L14.3179 0L14.4894 0.314365C14.7287 0.75019 15.0645 1.23603 15.4432 1.69329C15.7576 2.07552 15.7647 2.08624 15.7147 2.17555L15.6611 2.26843L7.902 2.27915C0.182189 2.28629 0.142893 2.28629 0.0714466 2.21485Z" fill="rgb(255,255,255)" fill-rule="nonzero" transform="matrix(1,0,0,-1,5.69788,15.996)" />
		<path id="Vector" d="M0.0714466 2.21485C0.00357233 2.14697 0 2.09696 0 1.14315C0 0.189334 0.00357233 0.139321 0.0714466 0.0714466C0.142893 0 0.189333 0 7.09465 0C13.6963 0 14.0428 0.00357233 14.025 0.064302C14.0143 0.0964529 13.9893 0.239346 13.9678 0.375095C13.95 0.514416 13.8999 0.778768 13.8571 0.964529C13.8142 1.16101 13.7749 1.5111 13.7642 1.79688L13.7428 2.28629L6.94461 2.28629C0.189333 2.28629 0.142893 2.28629 0.0714466 2.21485Z" fill="rgb(255,255,255)" fill-rule="nonzero" transform="matrix(1,0,0,-1,5.69788,20.5686)" />
		<path id="Vector" d="M0.0714466 2.21485C0.00357233 2.14697 0 2.09696 0 1.14315C0 0.189334 0.00357233 0.139321 0.0714466 0.0714466C0.142893 0 0.189333 0 4.42612 0L8.71292 0L9.86678 0.932378C11.485 2.24342 11.5029 2.25771 11.5029 2.272C11.5029 2.27915 8.94869 2.28629 5.8229 2.28629C0.189333 2.28629 0.142893 2.28629 0.0714466 2.21485Z" fill="rgb(255,255,255)" fill-rule="nonzero" transform="matrix(1,0,0,-1,5.69788,25.1411)" />
	</g>
</svg>
