<svg viewBox="0 0 19 18" xmlns="http://www.w3.org/2000/svg" xmlns:xlink="http://www.w3.org/1999/xlink" width="19.000000" height="18.000000" fill="none" customFrame="#000000">
	<path id="Vector" d="M14.6977 17.1263C14.0262 16.6421 13.4464 16.1978 13.4158 16.1379C13.3344 15.9931 13.3497 15.7135 13.4514 15.5637L13.5328 15.4389L12.0017 13.9362C10.4807 12.4435 10.4706 12.4335 10.3739 12.5334C10.2773 12.6282 10.2773 12.6482 10.3536 12.9577C10.4655 13.412 10.4655 14.2807 10.3536 14.765C10.1857 15.4639 9.87033 16.0879 9.41252 16.6121C9.02592 17.0564 8.6851 17.316 8.17134 17.5457C7.46427 17.8702 7.16415 17.9251 6.13661 17.9251L5.23625 17.9251L5.08365 17.7803C4.95139 17.6555 4.92595 17.5906 4.92595 17.4059L4.92595 17.1763L5.86701 16.2527L6.80807 15.3291L6.73177 14.4305C6.68599 13.9362 6.64529 13.5319 6.64021 13.5269C6.63512 13.5219 6.218 13.4819 5.7195 13.437L4.80387 13.3571L3.85773 14.2807C2.92684 15.1843 2.90649 15.2043 2.69793 15.2043C2.41307 15.2043 2.24012 15.0895 2.18417 14.8598C2.05191 14.3406 2.08243 13.3671 2.26047 12.6881C2.30116 12.5234 2.44359 12.1689 2.57076 11.9093C3.12523 10.7811 4.47832 9.90741 5.89245 9.76763C6.32482 9.7227 6.93015 9.75265 7.28114 9.83752C7.35745 9.85749 7.45918 9.85749 7.50496 9.83253C7.56601 9.80757 7.49479 9.7826 7.28114 9.76263C6.82333 9.71271 6.45708 9.51302 5.97384 9.05372C5.58215 8.6743 5.51094 8.62937 4.54444 8.16509L3.52708 7.67584L1.82809 5.89357C0.825991 4.83519 0.103665 4.03642 0.0578837 3.92659C-0.0438524 3.69195 -0.00824481 3.19271 0.139272 2.81329C0.393613 2.16928 1.11594 1.27066 1.78231 0.77642C2.58094 0.182331 3.35413 -0.092248 3.89842 0.0275682C4.1375 0.0774916 4.23924 0.147384 4.81404 0.661596C6.01962 1.73994 7.56601 3.17774 7.73896 3.38741C7.83561 3.50224 8.13064 4.03642 8.39515 4.5706C8.83262 5.43927 8.90892 5.56907 9.14291 5.75878C9.47864 6.03835 9.82455 6.5226 9.94663 6.87207L10.0382 7.15663L12.4036 4.6355C14.8554 2.01951 15.0945 1.79486 15.7202 1.53526C16.0101 1.41544 16.1017 1.40545 16.7019 1.40046C17.3428 1.40046 17.3734 1.40545 17.7091 1.56022C18.6502 1.99954 19.169 3.04794 18.9503 4.08135C18.8536 4.55063 18.6145 5.03489 18.3093 5.37437C18.1873 5.51415 16.8952 6.69734 15.4404 8.00533L12.8003 10.3767L14.2704 11.8195L15.7405 13.2623L15.9236 13.1774C16.1474 13.0726 16.412 13.1125 16.5646 13.2723C16.6205 13.3322 17.058 13.8763 17.5361 14.4804C18.3653 15.5288 18.406 15.5887 18.406 15.8034L18.406 16.023L17.3988 17.0115L16.3916 18L16.1576 18C15.9389 18 15.8677 17.9551 14.6977 17.1263ZM7.40323 16.7469C8.2222 16.4823 8.89366 15.7934 9.23956 14.8448C9.35656 14.5253 9.37182 14.4055 9.37182 13.8564C9.37182 13.3421 9.35147 13.1774 9.25991 12.9228C9.10731 12.4984 9.11239 12.2987 9.29043 12.114C9.36673 12.0342 10.9182 10.6363 12.7342 9.00879C14.5553 7.38129 16.3662 5.75878 16.768 5.39933C17.1699 5.03988 17.5667 4.64049 17.6481 4.51069C18.1516 3.74187 17.9889 2.88319 17.2665 2.50876C16.8036 2.26913 16.0711 2.40892 15.5879 2.82328C15.4862 2.91314 13.716 4.78028 11.6558 6.97192C7.47444 11.4251 7.83052 11.1056 7.25571 10.9159C5.79071 10.4216 3.9442 11.2454 3.38974 12.6432C3.31852 12.8329 3.24222 13.0975 3.22188 13.2323L3.18627 13.4819L3.7916 12.8978C4.3308 12.3736 4.42236 12.3087 4.57497 12.3087C4.67161 12.3137 5.32272 12.3636 6.02979 12.4285C7.37779 12.5484 7.52531 12.5833 7.61687 12.8229C7.67792 12.9877 7.88647 15.5687 7.84578 15.6836C7.82543 15.7335 7.55583 16.033 7.24554 16.3475L6.6809 16.9117L6.88437 16.8817C6.99628 16.8617 7.23028 16.8018 7.40323 16.7469ZM16.6561 16.2876L17.2055 15.7734L16.6714 15.0945C16.1474 14.4305 16.1322 14.4205 16.0101 14.4854C15.8575 14.5653 15.6896 14.5753 15.5421 14.5004C15.4811 14.4704 14.6621 13.6916 13.716 12.768L12.0068 11.0956L11.6456 11.4101C11.4472 11.5848 11.2845 11.7396 11.2845 11.7546C11.2845 11.7696 12.0729 12.5583 13.0394 13.5069L14.7944 15.2342L14.7944 15.4439C14.7944 15.5637 14.774 15.6985 14.7486 15.7485C14.7028 15.8233 14.7994 15.9082 15.3692 16.3176C15.7405 16.5822 16.0559 16.7968 16.0711 16.8018C16.0915 16.8018 16.3509 16.5722 16.6561 16.2876ZM8.92418 8.06025C8.74614 7.85556 8.7258 7.52107 8.8784 7.35633C9.01066 7.21155 8.91401 7.04181 8.38498 6.49265C7.85087 5.94349 7.77456 5.81369 7.26588 4.66046C7.05733 4.18619 7.04206 4.16622 6.32991 3.48726C5.14977 2.354 3.64917 1.02604 3.5576 1.02604C3.42026 1.02604 2.84545 1.31559 2.50464 1.55023C2.08243 1.84478 1.58392 2.39394 1.31941 2.84325C0.932814 3.50723 0.820904 3.30754 2.62672 5.19464L4.20363 6.84211L4.68179 7.03182C5.54146 7.3763 6.08066 7.7008 6.56899 8.16509C6.81316 8.39973 7.09802 8.62937 7.19467 8.6793C7.37271 8.76916 7.38288 8.76916 7.47953 8.6793C7.54566 8.61939 7.66265 8.58943 7.80509 8.58943C7.98821 8.58943 8.05434 8.61939 8.19168 8.75418L8.35955 8.91893L8.71054 8.56447L9.05644 8.21501L8.92418 8.06025Z" fill="rgb(67,69,75)" fill-rule="nonzero" />
</svg>
