<svg viewBox="0 0 30.358 32" xmlns="http://www.w3.org/2000/svg" xmlns:xlink="http://www.w3.org/1999/xlink" width="30.358002" height="32.000000" fill="none" customFrame="#000000">
	<g id="Black">
		<path id="Vector" d="M7.08742 10.6425C7.07215 10.631 7.0607 10.4478 7.0607 10.2417C7.0607 9.90958 7.05306 9.86759 6.9958 9.86759C6.95763 9.86759 6.80876 9.84087 6.65988 9.80651C5.85445 9.62329 5.02228 9.2721 4.31228 8.82166C3.73969 8.45521 2.98387 7.77955 2.54871 7.24132C1.69746 6.19158 1.16686 4.97388 0.995087 3.66456C0.972183 3.4966 0.953097 3.25611 0.94928 3.13014L0.94928 2.90111L0.655352 2.66062C0.49121 2.53084 0.288896 2.36288 0.208733 2.29035C0.124754 2.21782 0.0445918 2.15675 0.0293228 2.15675C-0.0241187 2.15675 -0.00121521 2.02314 0.0713125 1.90481C0.376692 1.40093 1.27756 0.889419 2.42274 0.572587C2.82355 0.45807 3.18237 0.370273 3.33888 0.34737C3.42286 0.332101 3.63662 0.297745 3.81603 0.267207C4.93067 0.076345 6.09875 0 7.86232 0C9.87401 0 10.8665 0.0801622 12.5003 0.366456C12.8591 0.431349 13.6493 0.648932 14.0463 0.790171C14.3707 0.908505 14.4089 0.931409 14.4051 1.01539C14.3974 1.13754 14.3211 1.87045 14.2562 2.48121C14.2257 2.75605 14.1913 3.09961 14.1799 3.24466C14.157 3.52714 14.0844 4.2715 13.989 5.15329C13.9585 5.44721 13.9203 5.82512 13.9088 5.99308C13.8859 6.25265 13.8592 6.33282 13.7371 6.53513C13.508 6.91686 13.1759 7.34057 12.8057 7.72611C12.1567 8.40177 11.5498 8.84838 10.7443 9.23774C10.0763 9.56221 9.6297 9.71108 8.86625 9.85232L8.74029 9.87904L8.74029 10.2722L8.74029 10.6692L7.92721 10.6692C7.47678 10.6692 7.09887 10.6578 7.08742 10.6425Z" fill="rgb(255,255,255)" fill-rule="nonzero" transform="matrix(1,0,0,-1,4.26593,10.6692)" />
		<path id="Vector" d="M6.35565 30.706C5.10741 30.3662 4.15691 29.4081 3.82863 28.1713C3.69121 27.656 3.69502 27.0567 3.84771 25.671C3.87062 25.484 3.90497 25.129 3.92788 24.8885C3.94696 24.648 3.99277 24.1823 4.02331 23.8578C4.12637 22.7966 4.15691 22.4721 4.1989 22.0446C4.21799 21.8156 4.25998 21.3919 4.29051 21.1094C4.32105 20.8269 4.36304 20.3803 4.38595 20.1169C4.43557 19.5443 4.48519 19.0175 4.55772 18.3228C4.58826 18.0403 4.62262 17.6777 4.63407 17.5212C4.66461 17.1394 4.75622 16.1699 4.82493 15.5553C4.85547 15.2843 4.88982 14.9064 4.90128 14.7155C4.91273 14.5285 4.94708 14.1658 4.97762 13.9139C5.00816 13.6619 5.04251 13.2802 5.05397 13.0664L5.08069 12.6771L4.88982 12.6236C4.78676 12.5931 4.66842 12.5473 4.63025 12.5282C4.58826 12.5091 4.4203 12.4251 4.25234 12.3488C2.16431 11.3792 0.74429 9.61183 0.125896 7.2146C0.00756137 6.75653 -0.0344284 5.89002 0.0304649 5.31743C0.248048 3.44316 1.53446 1.5269 3.46981 0.19468C3.74465 0.00763451 3.76373 0 4.01949 0L4.28288 0L4.26761 3.31719C4.25234 6.62674 4.25234 6.6382 4.3325 6.74508C4.51573 6.99702 4.39358 6.98557 7.34431 6.98557C9.95531 6.98557 10.0202 6.98175 10.1424 6.90922C10.3828 6.76035 10.379 6.79852 10.379 4.34403C10.379 3.11869 10.3905 1.64142 10.4057 1.05738L10.4287 0L10.6462 0C10.902 0 11.07 0.0954312 11.696 0.599308C12.8144 1.49636 13.6466 2.54992 14.1428 3.71037C14.6429 4.87463 14.7689 6.14577 14.4978 7.23369C14.1581 8.57736 13.513 9.78361 12.6541 10.6845C12.4251 10.925 11.8219 11.4327 11.5776 11.5968C11.2265 11.8297 11.0738 11.9251 11.0089 11.9518C10.9669 11.9709 10.8562 12.032 10.7608 12.0854C10.6653 12.1389 10.3752 12.2763 10.1118 12.387L9.63466 12.5931L9.62321 12.7763C9.61558 12.8756 9.63466 13.2 9.66902 13.494C9.70337 13.7879 9.76445 14.4597 9.80644 14.9827C9.84843 15.5095 9.90187 16.0935 9.92096 16.2806C9.94386 16.4714 9.97822 16.8379 9.9973 17.1013C10.0507 17.7578 10.1385 18.7541 10.2073 19.4871C10.2912 20.3688 10.3752 21.2888 10.4172 21.8385C10.4363 22.0981 10.4821 22.5867 10.5126 22.9226C10.5699 23.5181 10.6042 23.8998 10.6844 24.8312C10.7035 25.0831 10.7493 25.5641 10.7837 25.9C10.9134 27.1941 10.8905 27.7209 10.6806 28.3736C10.3027 29.5417 9.39036 30.4006 8.18793 30.7174C7.89782 30.7899 7.75658 30.8052 7.27179 30.8014C6.78318 30.8014 6.64194 30.7861 6.35565 30.706ZM7.8711 27.9117L8.43223 27.3506L7.85964 26.778L7.28706 26.2054L6.71447 26.778L6.14188 27.3506L6.70302 27.9117C7.01221 28.2247 7.2756 28.4767 7.28706 28.4767C7.29851 28.4767 7.5619 28.2247 7.8711 27.9117Z" fill="rgb(255,255,255)" fill-rule="nonzero" transform="matrix(1,0,0,-1,15.7204,31.9885)" />
		<path id="Vector" d="M11.6374 8.23415C11.5228 8.21506 11.4007 8.18834 11.3702 8.17689C11.3396 8.16162 11.2862 8.14635 11.2556 8.14253C11.2251 8.13871 11.0113 8.10054 10.7785 8.05474C10.5494 8.00893 10.1868 7.95549 9.97686 7.92877C9.76691 7.90586 9.5875 7.88296 9.57605 7.87532C9.5646 7.86769 9.18288 7.82952 8.73244 7.79516C7.73996 7.715 5.35036 7.70355 4.48002 7.77226C3.30431 7.87151 2.35 8.00511 1.61709 8.1807C1.47203 8.21506 1.24681 8.23033 1.00633 8.22269C0.685679 8.21124 0.590248 8.19216 0.403203 8.10436C0.0481984 7.93258 0.0176604 7.86387 0.00239136 7.18822C-0.00524314 6.87521 0.00620861 6.49348 0.0252949 6.34079C0.0711018 6.02778 0.235244 5.65369 0.422289 5.44755C0.563527 5.29105 0.876541 5.10782 1.00633 5.10782C1.10176 5.10782 1.11703 5.07346 1.25445 4.63066C1.84994 2.70677 3.09818 1.15315 4.61745 0.435506C7.43839 -0.900532 10.5876 0.935565 11.7633 4.60012C11.874 4.95131 11.9427 5.10782 11.9809 5.10782C12.2329 5.10782 12.6413 5.40175 12.7825 5.68422C12.9887 6.08885 13.0116 6.20719 13.023 6.94392C13.0345 7.81807 13.0078 7.90205 12.668 8.08146C12.5344 8.15398 12.3474 8.21506 12.1871 8.23796C11.8931 8.27995 11.9237 8.27995 11.6374 8.23415Z" fill="rgb(255,255,255)" fill-rule="nonzero" transform="matrix(1,0,0,-1,5.68234,19.308)" />
		<path id="Vector" d="M1.37421 7.97805C0.76345 7.85208 0.339735 7.74138 0.145055 7.6574L0 7.59633L0 3.79816L0 0L3.718 0L7.436 0L7.46272 0.52678C7.48563 1.00775 7.55052 1.59943 7.63068 2.0804C7.81773 3.20267 8.31779 4.50817 8.90182 5.38232C9.19575 5.82512 9.2721 5.91292 9.73399 6.37862C10.2379 6.8825 10.5394 7.10772 11.1387 7.42837C11.2876 7.50853 11.4136 7.58869 11.4136 7.60014C11.4136 7.64595 11.1235 7.73375 10.2302 7.96278C9.79888 8.07348 9.69581 8.0773 9.59657 7.98569C9.35226 7.76047 8.6079 7.35966 8.01241 7.1268C7.2375 6.82142 6.80997 6.74126 5.99308 6.74126C5.3327 6.74126 5.0464 6.77562 4.51199 6.93212C3.79816 7.13826 2.79423 7.60778 2.34379 7.9437C2.11094 8.12311 2.07277 8.12311 1.37421 7.97805Z" fill="rgb(255,255,255)" fill-rule="nonzero" transform="matrix(1,0,0,-1,6.55505,27.1406)" />
		<path id="Vector" d="M4.15019 11.6922C4.01277 11.6121 3.89061 11.5434 3.87535 11.5395C3.86389 11.5395 3.70357 11.4556 3.52034 11.3487C3.33711 11.2456 3.18061 11.1578 3.17297 11.1578C3.1577 11.1578 2.84851 10.9822 2.20339 10.6043C1.55446 10.2226 0.733749 9.6271 0.271862 9.19957L0.0390098 8.9858L0.0122891 8.51628C-0.0411524 7.55815 0.0848168 5.91292 0.290948 4.83645C0.436004 4.08446 0.714663 3.27138 0.962784 2.87057C1.32542 2.29035 2.09269 1.39711 2.50877 1.06883C3.03173 0.660384 4.08529 0.0725277 4.39831 0.0229035L4.53191 0L4.53191 5.92437C4.53191 11.5357 4.5281 11.8449 4.46702 11.8449C4.42885 11.8449 4.28761 11.7762 4.15019 11.6922Z" fill="rgb(255,255,255)" fill-rule="nonzero" transform="matrix(1,0,0,-1,0,32)" />
	</g>
</svg>
