<svg viewBox="0 0 30.165 32" xmlns="http://www.w3.org/2000/svg" xmlns:xlink="http://www.w3.org/1999/xlink" width="30.165039" height="32.000000" fill="none" customFrame="#000000">
	<path id="Vector" d="M15.0825 0C15.3716 0 15.6607 0.0628437 15.9246 0.182247L27.7581 5.20346C29.1406 5.7879 30.1713 7.15161 30.165 8.79811C30.1336 15.0322 27.5695 26.4383 16.7416 31.6229C15.6921 32.1257 14.4729 32.1257 13.4234 31.6229C2.59547 26.4383 0.0314504 15.0322 2.85844e-05 8.79811C-0.00625578 7.15161 1.02438 5.7879 2.40694 5.20346L14.2467 0.182247C14.5043 0.0628437 14.7934 0 15.0825 0ZM15.0825 4.19796L15.0825 27.9529C23.7549 23.7549 26.0864 14.4603 26.143 8.8861L15.0825 4.19796Z" fill="rgb(255,255,255)" fill-rule="nonzero" />
</svg>
