<svg viewBox="0 0 17.999 18" xmlns="http://www.w3.org/2000/svg" xmlns:xlink="http://www.w3.org/1999/xlink" width="17.999023" height="18.000000" fill="none" customFrame="#000000">
	<g id="Black">
		<path id="Vector" d="M6.99832 17.8807C6.93077 17.8019 6.81817 17.2502 6.73935 16.6647L6.59297 15.595L5.97367 15.3473L5.35438 15.0995L4.36351 15.7864L3.37263 16.4732L2.8772 16.0341C2.60696 15.7864 2.2016 15.381 1.96515 15.1221L1.53727 14.6491L2.22412 13.647L2.91098 12.6449L2.62948 12.0256L2.34798 11.395L1.27829 11.2486C0.681517 11.1698 0.152301 11.046 0.0847416 10.9671C0.0284421 10.8883 -0.0165975 10.3366 0.00592227 9.67226L0.039702 8.50123L0.602697 8.37737C0.917975 8.30981 1.44719 8.18595 1.78499 8.11839C2.38176 7.99453 2.41554 7.97201 2.66326 7.39776L2.92224 6.8235L2.56192 6.30555C2.3705 6.02405 2.05523 5.58491 1.87507 5.3372C1.61609 4.96562 1.55979 4.81924 1.64987 4.6616C1.79625 4.39136 3.19248 3.04017 3.32759 3.04017C3.39515 3.04017 3.85681 3.33293 4.36351 3.70451L5.29808 4.36884L5.92863 4.12113L6.57045 3.87341L6.73935 2.80372C6.82943 2.2182 6.95328 1.67773 6.99832 1.61017C7.06588 1.50883 7.43746 1.46379 8.21439 1.46379L9.32913 1.46379L9.32913 0.867013C9.32913 0.540476 9.38542 0.213938 9.46424 0.135119C9.56558 0.0337797 10.6465 0 13.6192 0C15.8374 0 17.7178 0.0337797 17.8191 0.0675594C17.9767 0.123859 17.9993 0.540476 17.9993 3.49057L17.9993 6.84602L17.7065 7.19508L17.4137 7.54414L15.691 7.54414C14.047 7.54414 13.9682 7.5554 14.0245 7.75808C14.0808 7.98327 14.5312 8.12965 15.5784 8.28729C16.5467 8.42241 16.5355 8.41115 16.5355 9.72856C16.5355 10.528 16.4904 10.9334 16.4003 11.0009C16.3215 11.0685 15.7811 11.1811 15.2068 11.2599L14.1484 11.4063L13.8781 12.0256L13.6079 12.6336L14.2947 13.6245C14.8465 14.4239 14.9591 14.6491 14.869 14.818C14.7226 15.0883 13.3264 16.4395 13.1913 16.4395C13.135 16.4395 12.6621 16.1354 12.1554 15.7526L11.2208 15.077L10.6128 15.3247C10.016 15.5725 10.0047 15.5837 9.88086 16.203C9.8133 16.5521 9.68944 17.0925 9.62188 17.3966L9.49802 17.9596L8.30447 17.9933C7.43746 18.0159 7.07714 17.9821 6.99832 17.8807ZM9.05889 16.6084C9.13771 16.2368 9.22779 15.7413 9.26157 15.5049C9.31786 15.1784 9.4192 15.0545 9.6444 14.9644C9.8133 14.8969 10.2187 14.7167 10.5452 14.5703C10.8717 14.4239 11.187 14.3001 11.2546 14.3001C11.3109 14.3001 11.75 14.5816 12.2004 14.9194C12.6621 15.2572 13.0787 15.5387 13.135 15.5387C13.18 15.5387 13.4165 15.336 13.6642 15.0883L14.1033 14.6379L13.439 13.6808L12.7859 12.7237L13.0899 12.0256C13.6642 10.6744 13.5403 10.7757 14.7677 10.5956L15.8599 10.4379L15.8599 9.73982L15.8599 9.05297L14.7114 8.82777L13.5516 8.61383L13.3714 8.10713L13.18 7.60044L11.75 7.56666L10.3313 7.53288L10.6578 7.96075C11.0857 8.51249 11.2433 8.99667 11.2433 9.78486C11.2433 11.913 8.95755 13.3542 7.02084 12.4422C4.7013 11.3387 4.7013 8.11839 7.02084 7.02618C7.61762 6.74468 8.61975 6.66586 9.12645 6.85728L9.38542 6.95862L9.35164 5.52861C9.34038 4.75168 9.25031 3.67073 9.14897 3.13025L8.96881 2.13938L8.25943 2.13938L7.56132 2.13938L7.41494 3.13025C7.33612 3.67073 7.23478 4.18869 7.17848 4.29002C7.13344 4.3801 6.87447 4.52648 6.60423 4.6053C6.33399 4.68412 5.92863 4.85302 5.68092 4.97688L5.25304 5.20208L4.30721 4.549L3.36137 3.89593L2.91098 4.33506C2.66326 4.58278 2.46058 4.81924 2.46058 4.86428C2.46058 4.92058 2.74208 5.3372 3.07988 5.79885C3.71043 6.6546 3.78925 6.84602 3.57531 7.05996C3.50775 7.12752 3.33885 7.4991 3.19248 7.89319L2.9335 8.61383L1.83003 8.83903L0.715296 9.06423L0.681517 9.75108L0.647737 10.4379L1.63861 10.5843C2.17908 10.6631 2.7083 10.7645 2.80964 10.8208C2.89972 10.8658 3.0461 11.1248 3.12492 11.395C3.20374 11.6653 3.36137 12.0481 3.48523 12.2508C3.59783 12.4535 3.69917 12.6674 3.69917 12.735C3.69917 12.7913 3.44019 13.1966 3.12492 13.6357C2.80964 14.0749 2.5394 14.4915 2.51688 14.5703C2.49436 14.6379 2.69704 14.8856 2.96728 15.1221L3.45145 15.5499L4.26217 14.9757C4.71256 14.6604 5.14044 14.3676 5.208 14.3451C5.28682 14.3113 5.6021 14.4239 5.91737 14.5816C6.23265 14.7392 6.57045 14.8631 6.67179 14.8631C7.05462 14.8631 7.2573 15.2572 7.41494 16.3156L7.56132 17.3515L8.24817 17.3177L8.93503 17.284L9.05889 16.6084ZM9.49802 11.6202C10.0723 11.2149 10.4213 10.6857 10.5114 10.0889C10.7366 8.60257 9.40794 7.26264 7.92164 7.47658C6.60423 7.67926 5.71469 9.05297 6.06375 10.3479C6.22139 10.9221 6.96454 11.7216 7.52754 11.9017C8.13557 12.1157 8.98007 11.9918 9.49802 11.6202ZM17.2111 6.69964C17.3349 6.55327 16.9408 6.53075 13.7317 6.53075C11.75 6.53075 10.1173 6.57579 10.1173 6.62083C10.1173 6.67712 10.1511 6.75594 10.1961 6.78972C10.2299 6.83476 11.795 6.86854 13.6642 6.86854C16.558 6.86854 17.0872 6.84602 17.2111 6.69964ZM17.3011 3.24285L17.2674 0.731894L13.698 0.698114L10.1173 0.675594L10.1173 3.20907L10.1173 5.74255L13.7205 5.74255L17.3237 5.74255L17.3011 3.24285Z" fill="rgb(67,69,75)" fill-rule="nonzero" transform="matrix(1,0,0,-1,0,18)" />
		<path id="Vector" d="M1.95922 1.6561C1.58765 1.28452 1.23859 0.980507 1.18229 0.980507C1.11473 0.980507 0.934572 1.11563 0.754414 1.28452L0.450396 1.57728L0.225198 1.30704C0.101339 1.16067 0 1.01429 0 0.980507C0 0.912947 1.05843 0.0459344 1.19355 0.000894771C1.24985 -0.021625 1.71151 0.383732 2.2182 0.901687L3.15277 1.83626L2.88254 2.08398L2.62356 2.3317L1.95922 1.6561Z" fill="rgb(67,69,75)" fill-rule="nonzero" transform="matrix(1,0,0,-1,10.6924,14.8143)" />
		<path id="Vector" d="M1.95922 1.6561C1.58765 1.28452 1.23859 0.980507 1.18229 0.980507C1.11473 0.980507 0.934572 1.11563 0.754414 1.28452L0.450396 1.57728L0.225198 1.30704C0.101339 1.16067 0 1.01429 0 0.980507C0 0.912947 1.05843 0.0459344 1.19355 0.000894771C1.24985 -0.021625 1.71151 0.383732 2.2182 0.901687L3.15277 1.83626L2.88254 2.08398L2.62356 2.3317L1.95922 1.6561Z" fill="rgb(67,69,75)" fill-rule="nonzero" transform="matrix(1,0,0,-1,10.6924,16.616)" />
	</g>
</svg>
