<svg viewBox="0 0 18 18.6307" xmlns="http://www.w3.org/2000/svg" xmlns:xlink="http://www.w3.org/1999/xlink" width="18.000000" height="18.630737" fill="none" customFrame="#000000">
	<g id="Group 40">
		<path id="Union" d="M10.4609 0.403988C10.2712 0.323983 10.0723 0.246262 10.0151 0.227975C9.89398 0.193687 9.67911 0.205117 9.53281 0.255406C9.32251 0.328555 9.2425 0.415417 9.01391 0.810875L8.80132 1.17662L8.67103 1.19033C8.415 1.21776 8.40815 1.2109 8.18642 0.831449C8.07898 0.648578 7.96011 0.463421 7.92354 0.424561C7.7841 0.28055 7.48236 0.179971 7.27434 0.209688C7.2172 0.218831 6.99089 0.296551 6.77373 0.385701C6.51567 0.491104 6.40643 0.541606 6.33113 0.598083C6.19468 0.677681 6.05759 0.843017 5.99392 1.02584C5.93906 1.18585 5.95278 1.33215 6.06021 1.73446L6.16079 2.11163L6.08993 2.1985C6.05107 2.2465 5.98478 2.31279 5.94135 2.34708C5.93783 2.34969 5.93453 2.35221 5.9314 2.35464C5.92109 2.36012 5.91355 2.36237 5.90966 2.3607C5.89366 2.35385 5.71993 2.30813 5.52106 2.25555C5.09817 2.14355 4.9633 2.14126 4.753 2.23727C4.6956 2.26347 4.64621 2.29205 4.60194 2.32632C4.50789 2.38228 4.42857 2.45376 4.37779 2.53224C4.34579 2.57795 4.24978 2.78597 4.16521 2.99398C4.01434 3.35515 4.00748 3.3803 4.00748 3.55403C4.00748 3.70489 4.01891 3.76204 4.07148 3.87633C4.15835 4.06835 4.23607 4.13693 4.62696 4.36551C4.94927 4.55296 4.96527 4.56667 4.98127 4.64896C4.9927 4.69697 4.9927 4.78154 4.98356 4.83869L4.96527 4.94156L4.59038 5.18386C4.16978 5.45588 4.09434 5.53817 4.02577 5.80562C3.97319 6.01592 3.99376 6.13936 4.15606 6.53024C4.33893 6.97599 4.36179 7.01485 4.48523 7.12915C4.73668 7.36002 4.97441 7.38288 5.53446 7.22973L5.87506 7.13372L6.01907 7.27773L6.16308 7.42174L6.06021 7.80805C5.93678 8.26752 5.93449 8.40695 6.03964 8.62411C6.14479 8.83899 6.26366 8.93042 6.65683 9.09729C6.84656 9.1773 7.04544 9.25502 7.10258 9.2733C7.22374 9.30759 7.43861 9.29616 7.58491 9.24587C7.79521 9.17273 7.87522 9.08586 8.10381 8.6904L8.3164 8.32466L8.44669 8.31095C8.70271 8.28352 8.70957 8.29037 8.9313 8.66983C9.03874 8.8527 9.15761 9.03786 9.19418 9.07672C9.33362 9.22073 9.63536 9.32131 9.84338 9.29159C9.90052 9.28245 10.1268 9.20473 10.344 9.11558C10.602 9.01018 10.7113 8.95967 10.7866 8.9032C10.923 8.8236 11.0601 8.65826 11.1238 8.47544C11.1787 8.31543 11.1649 8.16913 11.0575 7.76682L10.9569 7.38965L11.0278 7.30278C11.0666 7.25478 11.1329 7.18849 11.1764 7.1542C11.1799 7.15159 11.1832 7.14907 11.1863 7.14664C11.1966 7.14116 11.2042 7.13891 11.2081 7.14058C11.2241 7.14743 11.3978 7.19315 11.5967 7.24573C12.0195 7.35773 12.1544 7.36002 12.3647 7.26401C12.4221 7.23781 12.4715 7.20923 12.5158 7.17496C12.6098 7.119 12.6891 7.04752 12.7399 6.96905C12.7719 6.92333 12.8679 6.71531 12.9525 6.5073C13.1034 6.14613 13.1102 6.12098 13.1102 5.94726C13.1102 5.79639 13.0988 5.73924 13.0462 5.62495C12.9594 5.43293 12.8816 5.36436 12.4908 5.13577C12.1684 4.94832 12.1524 4.93461 12.1364 4.85232C12.125 4.80431 12.125 4.71974 12.1342 4.66259L12.1524 4.55972L12.5273 4.31742C12.9479 4.0454 13.0234 3.96311 13.092 3.69566C13.1445 3.48536 13.124 3.36192 12.9617 2.97104C12.7788 2.52529 12.7559 2.48643 12.6325 2.37213C12.381 2.14126 12.1433 2.1184 11.5833 2.27156L11.2427 2.36756L11.0986 2.22355L10.9546 2.07954L11.0575 1.69323C11.1809 1.23376 11.1832 1.09432 11.0781 0.877166C10.9729 0.662293 10.8541 0.570857 10.4609 0.403988ZM12.564 6.19618C12.6111 6.07052 12.6439 5.96769 12.6439 5.94268C12.6439 5.79867 12.5822 5.74153 12.1753 5.50608C11.913 5.35284 11.7946 5.28704 11.7412 5.18668C11.6951 5.09991 11.6976 4.98731 11.6976 4.77003C11.6976 4.52703 11.6928 4.40825 11.7404 4.31657C11.7921 4.21678 11.9057 4.14908 12.1547 3.98825C12.3765 3.84653 12.5731 3.70709 12.5913 3.67966C12.6691 3.56308 12.6553 3.47393 12.5159 3.13562C12.3536 2.74245 12.3422 2.72645 12.2256 2.6693L12.1296 2.62358L11.7067 2.73559C11.4735 2.79731 11.2518 2.84988 11.2152 2.84988C11.1147 2.84988 10.9501 2.74473 10.7672 2.56415C10.5843 2.38585 10.4723 2.20984 10.4723 2.10697C10.4723 2.06811 10.5226 1.84867 10.5866 1.61551L10.6986 1.19262L10.6575 1.10118C10.6346 1.05089 10.6026 0.998318 10.5843 0.984603C10.566 0.968602 10.3992 0.893167 10.2094 0.815447C9.84826 0.666865 9.7614 0.65315 9.64253 0.73087C9.6151 0.749156 9.49166 0.938885 9.36594 1.15147C9.2425 1.36406 9.12135 1.5515 9.09392 1.5675C8.95905 1.65437 8.2207 1.65208 8.09041 1.56522C8.06069 1.54693 7.93497 1.35263 7.80924 1.13547C7.50065 0.598287 7.49836 0.598287 6.97489 0.817732C6.61372 0.968601 6.584 0.986888 6.52914 1.10575C6.49063 1.18504 6.49253 1.19249 6.60603 1.63758L6.60915 1.64979L6.7303 2.11383L6.67315 2.23727C6.59186 2.41313 6.37088 2.64077 6.18589 2.76025C6.09755 2.83004 6.01317 2.8799 5.95049 2.89112C5.90249 2.90026 5.73333 2.86597 5.43845 2.78825L5.42592 2.78493C5.15098 2.71208 5.00313 2.67291 4.90244 2.70295C4.83554 2.7483 4.80278 2.81511 4.72557 3.00989C4.6656 3.15912 4.61159 3.25388 4.55367 3.3051C4.50663 3.43076 4.4738 3.53359 4.4738 3.5586C4.4738 3.70261 4.53552 3.75975 4.94241 3.9952C5.20477 4.14844 5.32313 4.21424 5.37649 4.3146C5.42035 4.39709 5.42029 4.50294 5.42018 4.69989L5.42016 4.73126C5.42016 4.75224 5.4202 4.7723 5.42023 4.7915C5.42059 4.99456 5.42078 5.10094 5.37735 5.18471C5.32561 5.2845 5.21197 5.3522 4.96298 5.51303C4.74125 5.65475 4.54467 5.79419 4.52638 5.82162C4.44866 5.9382 4.46237 6.02735 4.60181 6.36566C4.76411 6.75883 4.77554 6.77484 4.89212 6.83198L4.98813 6.8777L5.41102 6.76569C5.64418 6.70397 5.86591 6.6514 5.90249 6.6514C6.00307 6.6514 6.16765 6.75655 6.35052 6.93713C6.5334 7.11543 6.6454 7.29144 6.6454 7.39431C6.6454 7.43317 6.59512 7.65261 6.53111 7.88577L6.4191 8.30866L6.46025 8.4001C6.48311 8.45039 6.51511 8.50296 6.5334 8.51668C6.55168 8.53268 6.71855 8.60811 6.90828 8.68583C7.26945 8.83442 7.35632 8.84813 7.47519 8.77041C7.50262 8.75212 7.62605 8.5624 7.75178 8.34981C7.87522 8.13722 7.99637 7.94978 8.0238 7.93378C8.15867 7.84691 8.89701 7.8492 9.02731 7.93606C9.05703 7.95435 9.18275 8.14865 9.30848 8.36581C9.61707 8.90299 9.61936 8.90299 10.1428 8.68355C10.504 8.53268 10.5337 8.51439 10.5886 8.39553C10.6271 8.31624 10.6252 8.30879 10.5117 7.8637L10.5086 7.85149L10.3874 7.38745L10.4446 7.26401C10.5259 7.08815 10.7468 6.86051 10.9318 6.74103C11.0202 6.67125 11.1046 6.62138 11.1672 6.61016C11.2152 6.60102 11.3844 6.63531 11.6793 6.71303C11.9623 6.788 12.1131 6.82883 12.2153 6.79833C12.2822 6.75298 12.3149 6.68617 12.3922 6.49138C12.4521 6.34216 12.5061 6.2474 12.564 6.19618ZM8.43245 3.2113C8.64824 3.2113 8.84823 3.24945 9.03242 3.32574C9.21661 3.40203 9.38499 3.51647 9.53758 3.66906C9.69016 3.82164 9.8046 3.99003 9.8809 4.17422C9.95719 4.3584 9.99534 4.55839 9.99534 4.77418C9.99534 4.98997 9.95719 5.18995 9.8809 5.37414C9.8046 5.55833 9.69016 5.72672 9.53757 5.87931C9.38499 6.03189 9.21661 6.14633 9.03242 6.22262C8.84823 6.29891 8.64824 6.33706 8.43245 6.33706C8.21665 6.33706 8.01666 6.29891 7.83247 6.22262C7.64829 6.14633 7.4799 6.03189 7.32732 5.87931C7.17473 5.72672 7.06029 5.55833 6.984 5.37414C6.9077 5.18996 6.86956 4.98997 6.86956 4.77418C6.86956 4.55839 6.9077 4.35841 6.984 4.17422C7.06029 3.99003 7.17473 3.82164 7.32732 3.66906C7.4799 3.51647 7.64829 3.40203 7.83248 3.32574C8.01667 3.24945 8.21666 3.2113 8.43245 3.2113ZM8.43245 3.8113C8.2995 3.8113 8.17628 3.8348 8.0628 3.88181C7.94933 3.92881 7.84559 3.99931 7.75158 4.09332C7.65757 4.18733 7.58707 4.29107 7.54006 4.40455C7.49306 4.51803 7.46956 4.64124 7.46956 4.77418C7.46956 4.90712 7.49306 5.03033 7.54006 5.14381C7.58706 5.25729 7.65757 5.36103 7.75158 5.45504C7.84559 5.54905 7.94933 5.61955 8.0628 5.66656L8.06281 5.66656C8.17629 5.71356 8.2995 5.73706 8.43245 5.73706C8.5654 5.73706 8.68861 5.71356 8.80209 5.66655C8.91557 5.61955 9.01931 5.54905 9.11331 5.45504C9.20732 5.36103 9.27783 5.25729 9.32483 5.14381C9.37183 5.03033 9.39534 4.90712 9.39534 4.77418C9.39534 4.64124 9.37183 4.51803 9.32483 4.40455C9.27783 4.29107 9.20732 4.18733 9.11331 4.09332C9.01931 3.99932 8.91557 3.92881 8.80209 3.88181C8.68861 3.8348 8.56539 3.8113 8.43245 3.8113Z" fill="rgb(67,69,75)" fill-rule="evenodd" />
		<path id="Union" d="M10.4609 0.403988C10.2712 0.323983 10.0723 0.246262 10.0151 0.227975C9.89398 0.193687 9.67911 0.205117 9.53281 0.255406C9.32251 0.328555 9.2425 0.415417 9.01391 0.810875L8.80132 1.17662L8.67103 1.19033C8.415 1.21776 8.40815 1.2109 8.18642 0.831449C8.07898 0.648578 7.96011 0.463421 7.92354 0.424561C7.7841 0.28055 7.48236 0.179971 7.27434 0.209688C7.2172 0.218831 6.99089 0.296551 6.77373 0.385701C6.51567 0.491104 6.40643 0.541606 6.33113 0.598083C6.19468 0.677681 6.05759 0.843017 5.99392 1.02584C5.93906 1.18585 5.95278 1.33215 6.06021 1.73446L6.16079 2.11163L6.08993 2.1985C6.05107 2.2465 5.98478 2.31279 5.94135 2.34708C5.93783 2.34969 5.93453 2.35221 5.9314 2.35464C5.92109 2.36012 5.91355 2.36237 5.90966 2.3607C5.89366 2.35385 5.71993 2.30813 5.52106 2.25555C5.09817 2.14355 4.9633 2.14126 4.753 2.23727C4.6956 2.26347 4.64621 2.29205 4.60194 2.32632C4.50789 2.38228 4.42857 2.45376 4.37779 2.53224C4.34579 2.57795 4.24978 2.78597 4.16521 2.99398C4.01434 3.35515 4.00748 3.3803 4.00748 3.55403C4.00748 3.70489 4.01891 3.76204 4.07148 3.87633C4.15835 4.06835 4.23607 4.13693 4.62696 4.36551C4.94927 4.55296 4.96527 4.56667 4.98127 4.64896C4.9927 4.69697 4.9927 4.78154 4.98356 4.83869L4.96527 4.94156L4.59038 5.18386C4.16978 5.45588 4.09434 5.53817 4.02577 5.80562C3.97319 6.01592 3.99376 6.13936 4.15606 6.53024C4.33893 6.97599 4.36179 7.01485 4.48523 7.12915C4.73668 7.36002 4.97441 7.38288 5.53446 7.22973L5.87506 7.13372L6.01907 7.27773L6.16308 7.42174L6.06021 7.80805C5.93678 8.26752 5.93449 8.40695 6.03964 8.62411C6.14479 8.83899 6.26366 8.93042 6.65683 9.09729C6.84656 9.1773 7.04544 9.25502 7.10258 9.2733C7.22374 9.30759 7.43861 9.29616 7.58491 9.24587C7.79521 9.17273 7.87522 9.08586 8.10381 8.6904L8.3164 8.32466L8.44669 8.31095C8.70271 8.28352 8.70957 8.29037 8.9313 8.66983C9.03874 8.8527 9.15761 9.03786 9.19418 9.07672C9.33362 9.22073 9.63536 9.32131 9.84338 9.29159C9.90052 9.28245 10.1268 9.20473 10.344 9.11558C10.602 9.01018 10.7113 8.95967 10.7866 8.9032C10.923 8.8236 11.0601 8.65826 11.1238 8.47544C11.1787 8.31543 11.1649 8.16913 11.0575 7.76682L10.9569 7.38965L11.0278 7.30278C11.0666 7.25478 11.1329 7.18849 11.1764 7.1542C11.1799 7.15159 11.1832 7.14907 11.1863 7.14664C11.1966 7.14116 11.2042 7.13891 11.2081 7.14058C11.2241 7.14743 11.3978 7.19315 11.5967 7.24573C12.0195 7.35773 12.1544 7.36002 12.3647 7.26401C12.4221 7.23781 12.4715 7.20923 12.5158 7.17496C12.6098 7.119 12.6891 7.04752 12.7399 6.96905C12.7719 6.92333 12.8679 6.71531 12.9525 6.5073C13.1034 6.14613 13.1102 6.12098 13.1102 5.94726C13.1102 5.79639 13.0988 5.73924 13.0462 5.62495C12.9594 5.43293 12.8816 5.36436 12.4908 5.13577C12.1684 4.94832 12.1524 4.93461 12.1364 4.85232C12.125 4.80431 12.125 4.71974 12.1342 4.66259L12.1524 4.55972L12.5273 4.31742C12.9479 4.0454 13.0234 3.96311 13.092 3.69566C13.1445 3.48536 13.124 3.36192 12.9617 2.97104C12.7788 2.52529 12.7559 2.48643 12.6325 2.37213C12.381 2.14126 12.1433 2.1184 11.5833 2.27156L11.2427 2.36756L11.0986 2.22355L10.9546 2.07954L11.0575 1.69323C11.1809 1.23376 11.1832 1.09432 11.0781 0.877166C10.9729 0.662293 10.8541 0.570857 10.4609 0.403988ZM12.564 6.19618C12.6111 6.07052 12.6439 5.96769 12.6439 5.94268C12.6439 5.79867 12.5822 5.74153 12.1753 5.50608C11.913 5.35284 11.7946 5.28704 11.7412 5.18668C11.6951 5.09991 11.6976 4.98731 11.6976 4.77003C11.6976 4.52703 11.6928 4.40825 11.7404 4.31657C11.7921 4.21678 11.9057 4.14908 12.1547 3.98825C12.3765 3.84653 12.5731 3.70709 12.5913 3.67966C12.6691 3.56308 12.6553 3.47393 12.5159 3.13562C12.3536 2.74245 12.3422 2.72645 12.2256 2.6693L12.1296 2.62358L11.7067 2.73559C11.4735 2.79731 11.2518 2.84988 11.2152 2.84988C11.1147 2.84988 10.9501 2.74473 10.7672 2.56415C10.5843 2.38585 10.4723 2.20984 10.4723 2.10697C10.4723 2.06811 10.5226 1.84867 10.5866 1.61551L10.6986 1.19262L10.6575 1.10118C10.6346 1.05089 10.6026 0.998318 10.5843 0.984603C10.566 0.968602 10.3992 0.893167 10.2094 0.815447C9.84826 0.666865 9.7614 0.65315 9.64253 0.73087C9.6151 0.749156 9.49166 0.938885 9.36594 1.15147C9.2425 1.36406 9.12135 1.5515 9.09392 1.5675C8.95905 1.65437 8.2207 1.65208 8.09041 1.56522C8.06069 1.54693 7.93497 1.35263 7.80924 1.13547C7.50065 0.598287 7.49836 0.598287 6.97489 0.817732C6.61372 0.968601 6.584 0.986888 6.52914 1.10575C6.49063 1.18504 6.49253 1.19249 6.60603 1.63758L6.60915 1.64979L6.7303 2.11383L6.67315 2.23727C6.59186 2.41313 6.37088 2.64077 6.18589 2.76025C6.09755 2.83004 6.01317 2.8799 5.95049 2.89112C5.90249 2.90026 5.73333 2.86597 5.43845 2.78825L5.42592 2.78493C5.15098 2.71208 5.00313 2.67291 4.90244 2.70295C4.83554 2.7483 4.80278 2.81511 4.72557 3.00989C4.6656 3.15912 4.61159 3.25388 4.55367 3.3051C4.50663 3.43076 4.4738 3.53359 4.4738 3.5586C4.4738 3.70261 4.53552 3.75975 4.94241 3.9952C5.20477 4.14844 5.32313 4.21424 5.37649 4.3146C5.42035 4.39709 5.42029 4.50294 5.42018 4.69989L5.42016 4.73126C5.42016 4.75224 5.4202 4.7723 5.42023 4.7915C5.42059 4.99456 5.42078 5.10094 5.37735 5.18471C5.32561 5.2845 5.21197 5.3522 4.96298 5.51303C4.74125 5.65475 4.54467 5.79419 4.52638 5.82162C4.44866 5.9382 4.46237 6.02735 4.60181 6.36566C4.76411 6.75883 4.77554 6.77484 4.89212 6.83198L4.98813 6.8777L5.41102 6.76569C5.64418 6.70397 5.86591 6.6514 5.90249 6.6514C6.00307 6.6514 6.16765 6.75655 6.35052 6.93713C6.5334 7.11543 6.6454 7.29144 6.6454 7.39431C6.6454 7.43317 6.59512 7.65261 6.53111 7.88577L6.4191 8.30866L6.46025 8.4001C6.48311 8.45039 6.51511 8.50296 6.5334 8.51668C6.55168 8.53268 6.71855 8.60811 6.90828 8.68583C7.26945 8.83442 7.35632 8.84813 7.47519 8.77041C7.50262 8.75212 7.62605 8.5624 7.75178 8.34981C7.87522 8.13722 7.99637 7.94978 8.0238 7.93378C8.15867 7.84691 8.89701 7.8492 9.02731 7.93606C9.05703 7.95435 9.18275 8.14865 9.30848 8.36581C9.61707 8.90299 9.61936 8.90299 10.1428 8.68355C10.504 8.53268 10.5337 8.51439 10.5886 8.39553C10.6271 8.31624 10.6252 8.30879 10.5117 7.8637L10.5086 7.85149L10.3874 7.38745L10.4446 7.26401C10.5259 7.08815 10.7468 6.86051 10.9318 6.74103C11.0202 6.67125 11.1046 6.62138 11.1672 6.61016C11.2152 6.60102 11.3844 6.63531 11.6793 6.71303C11.9623 6.788 12.1131 6.82883 12.2153 6.79833C12.2822 6.75298 12.3149 6.68617 12.3922 6.49138C12.4521 6.34216 12.5061 6.2474 12.564 6.19618ZM8.43245 3.2113C8.64824 3.2113 8.84823 3.24945 9.03242 3.32574C9.21661 3.40203 9.38499 3.51647 9.53758 3.66906C9.69016 3.82164 9.8046 3.99003 9.8809 4.17422C9.95719 4.3584 9.99534 4.55839 9.99534 4.77418C9.99534 4.98997 9.95719 5.18995 9.8809 5.37414C9.8046 5.55833 9.69016 5.72672 9.53757 5.87931C9.38499 6.03189 9.21661 6.14633 9.03242 6.22262C8.84823 6.29891 8.64824 6.33706 8.43245 6.33706C8.21665 6.33706 8.01666 6.29891 7.83247 6.22262C7.64829 6.14633 7.4799 6.03189 7.32732 5.87931C7.17473 5.72672 7.06029 5.55833 6.984 5.37414C6.9077 5.18996 6.86956 4.98997 6.86956 4.77418C6.86956 4.55839 6.9077 4.35841 6.984 4.17422C7.06029 3.99003 7.17473 3.82164 7.32732 3.66906C7.4799 3.51647 7.64829 3.40203 7.83248 3.32574C8.01667 3.24945 8.21666 3.2113 8.43245 3.2113ZM8.43245 3.8113C8.2995 3.8113 8.17628 3.8348 8.0628 3.88181C7.94933 3.92881 7.84559 3.99931 7.75158 4.09332C7.65757 4.18733 7.58707 4.29107 7.54006 4.40455C7.49306 4.51803 7.46956 4.64124 7.46956 4.77418C7.46956 4.90712 7.49306 5.03033 7.54006 5.14381C7.58706 5.25729 7.65757 5.36103 7.75158 5.45504C7.84559 5.54905 7.94933 5.61955 8.0628 5.66656L8.06281 5.66656C8.17629 5.71356 8.2995 5.73706 8.43245 5.73706C8.5654 5.73706 8.68861 5.71356 8.80209 5.66655C8.91557 5.61955 9.01931 5.54905 9.11331 5.45504C9.20732 5.36103 9.27783 5.25729 9.32483 5.14381C9.37183 5.03033 9.39534 4.90712 9.39534 4.77418C9.39534 4.64124 9.37183 4.51803 9.32483 4.40455C9.27783 4.29107 9.20732 4.18733 9.11331 4.09332C9.01931 3.99932 8.91557 3.92881 8.80209 3.88181C8.68861 3.8348 8.56539 3.8113 8.43245 3.8113Z" fill-rule="evenodd" stroke="rgb(67,69,75)" stroke-width="0.400000" />
		<path id="image 22 (Traced)" d="M6.89548 10.6727C6.77896 10.6943 6.59424 10.7375 6.48501 10.7686C6.37577 10.7997 6.17456 10.8796 6.03786 10.946C5.82576 11.0492 5.75286 11.1039 5.54105 11.3189C5.40451 11.4574 5.22687 11.6598 5.14631 11.7687C5.06575 11.8775 4.9406 12.0694 4.86817 12.195C4.79574 12.3207 4.72233 12.4635 4.70504 12.5125C4.68775 12.5615 4.66704 12.602 4.65904 12.6024C4.65104 12.6029 4.37041 12.6324 4.03542 12.6681C3.70042 12.7038 3.42439 12.7312 3.42201 12.7289C3.41963 12.7267 3.39148 12.5708 3.35946 12.3823C3.32744 12.1939 3.28618 12.0018 3.26775 11.9554C3.24659 11.9022 3.19638 11.8523 3.13166 11.8201L3.0291 11.7691L1.71834 11.9968C0.997419 12.122 0.350224 12.2399 0.280153 12.2587C0.210055 12.2775 0.116467 12.3285 0.0721889 12.3719C-0.00696598 12.4495 -0.00805172 12.4543 0.00852605 12.6484C0.0177948 12.7571 0.107754 13.3429 0.208386 13.9502C0.309045 14.5575 0.516955 15.8056 0.670419 16.7238C0.823856 17.6419 0.956213 18.4153 0.964502 18.4423C0.972791 18.4693 1.01559 18.5228 1.05963 18.5612C1.11749 18.6116 1.17035 18.6308 1.25022 18.6307C1.31099 18.6307 1.70632 18.569 2.12871 18.4937C2.5511 18.4184 3.14337 18.3135 3.44486 18.2607C3.74634 18.2079 4.02043 18.1538 4.05395 18.1406C4.08745 18.1273 4.13419 18.0934 4.15781 18.0654C4.18141 18.0372 4.21557 17.9846 4.23374 17.9484C4.26096 17.894 4.25628 17.8163 4.20681 17.5025C4.17384 17.2934 4.15249 17.1166 4.15935 17.1095C4.16621 17.1024 4.54631 16.9662 5.004 16.8067L5.83619 16.5169L7.25299 16.4115C8.03222 16.3535 9.24775 16.2677 9.95416 16.2208C10.6606 16.1738 11.3696 16.1183 11.5298 16.0974C11.7064 16.0744 11.9255 16.0225 12.086 15.9659C12.2316 15.9145 12.4878 15.8121 12.6553 15.7384C12.8228 15.6647 13.4127 15.3685 13.9662 15.0801C14.5197 14.7917 15.5862 14.2324 16.3363 13.8372C17.5121 13.2176 17.7172 13.1005 17.8238 12.9878C17.9054 12.9015 17.9581 12.8159 17.979 12.7362C17.9965 12.6692 18.0047 12.5378 17.9973 12.4416C17.9877 12.3172 17.9572 12.2121 17.8896 12.0716C17.8378 11.9636 17.7382 11.8128 17.6683 11.7364C17.5984 11.6599 17.4936 11.5598 17.4353 11.5139C17.3771 11.468 17.2764 11.4026 17.2115 11.3686C17.1467 11.3346 17.0275 11.2829 16.9467 11.2537C16.8659 11.2246 16.6985 11.1939 16.5747 11.1855C16.4509 11.1771 16.2821 11.1833 16.1996 11.1994C16.1171 11.2154 15.8311 11.3085 15.564 11.4061C15.297 11.5037 14.7209 11.7151 14.284 11.8759C13.847 12.0367 13.3763 12.2101 13.2379 12.2613C13.0996 12.3125 12.9715 12.3545 12.9532 12.3546C12.9351 12.3548 12.9201 12.3408 12.9201 12.3236C12.9201 12.3063 12.8791 12.2038 12.8289 12.0958C12.7787 11.9878 12.6833 11.8261 12.6171 11.7366C12.5507 11.6471 12.422 11.5082 12.3309 11.428C12.2399 11.3478 12.0582 11.2286 11.9271 11.1631C11.796 11.0976 11.603 11.0246 11.4981 11.0007C11.341 10.9649 11.1128 10.9572 10.1997 10.9572L9.09185 10.9572L8.65206 10.8221C8.4102 10.7478 8.12072 10.6738 8.00878 10.6577C7.89684 10.6416 7.64823 10.6295 7.45632 10.6308C7.26437 10.6322 7.012 10.651 6.89548 10.6727ZM8.11365 11.3546C8.20104 11.3791 8.42151 11.4492 8.60357 11.5104L8.9346 11.6216L10.0496 11.6171C10.9394 11.6135 11.2021 11.6207 11.3505 11.6527C11.4528 11.6748 11.6002 11.7263 11.6781 11.7671C11.7559 11.8079 11.8946 11.9189 11.9862 12.0137C12.1012 12.1327 12.1812 12.2481 12.2447 12.387C12.2953 12.4975 12.3482 12.651 12.3623 12.7281C12.3763 12.8053 12.3786 12.9039 12.3674 12.9474L12.347 13.0264L11.0645 13.0437C10.3591 13.0533 9.63306 13.0755 9.451 13.0932C9.26893 13.1109 9.0008 13.1434 8.85515 13.1655C8.7095 13.1876 8.44235 13.2427 8.26148 13.2879C8.08063 13.3332 7.85143 13.3957 7.75217 13.4269C7.65292 13.4581 7.54212 13.5077 7.50594 13.5371C7.46977 13.5666 7.42883 13.6333 7.41492 13.6854C7.39941 13.7435 7.39898 13.815 7.41384 13.8707C7.42713 13.9205 7.47088 13.9929 7.51103 14.0316C7.55117 14.0702 7.61481 14.1093 7.65244 14.1185C7.69542 14.1289 7.85794 14.0942 8.0891 14.0251C8.29161 13.9647 8.58853 13.8911 8.74893 13.8618C8.90931 13.8324 9.14778 13.7942 9.27886 13.7768C9.41609 13.7587 10.1408 13.7381 10.987 13.7284L12.4567 13.7115L12.6079 13.6347C12.6977 13.5891 12.7939 13.5123 12.845 13.4455C12.8923 13.3837 12.9515 13.2703 12.9766 13.1935C13.0199 13.0605 13.0295 13.0509 13.1763 12.9936C13.2612 12.9605 13.6047 12.833 13.9397 12.7103C14.2747 12.5875 14.9147 12.3522 15.362 12.1874C15.8092 12.0225 16.2412 11.875 16.3219 11.8595C16.4211 11.8406 16.5155 11.8404 16.6128 11.859C16.692 11.8742 16.8263 11.9228 16.9111 11.9672C16.996 12.0115 17.1193 12.1077 17.1852 12.1808C17.251 12.254 17.3211 12.3548 17.341 12.4048C17.3736 12.4871 17.3723 12.5006 17.3268 12.545C17.2991 12.572 16.7998 12.8443 16.2172 13.1501C15.6346 13.4559 14.562 14.0164 13.8338 14.3957C13.1055 14.775 12.3667 15.1431 12.1919 15.2139C12.0171 15.2846 11.7788 15.3675 11.6622 15.3982C11.5181 15.4361 11.2938 15.4621 10.9605 15.4797C10.691 15.4939 9.95217 15.5428 9.31859 15.5884C8.685 15.634 7.66611 15.7082 7.05437 15.7532C6.44263 15.7982 5.8858 15.8424 5.81697 15.8514C5.74814 15.8604 5.32003 15.9961 4.8656 16.1529C4.41117 16.3097 4.03682 16.435 4.03367 16.4313C4.03054 16.4277 3.91529 15.7464 3.77756 14.9174C3.63985 14.0884 3.53006 13.4062 3.53358 13.4015C3.5371 13.3968 3.86908 13.358 4.27129 13.3154C4.80374 13.2589 5.0206 13.2256 5.06869 13.193C5.11035 13.1648 5.19917 13.0112 5.30907 12.7775C5.40494 12.5735 5.55334 12.3106 5.63885 12.1931C5.72439 12.0757 5.87285 11.9036 5.96876 11.8107C6.06468 11.7179 6.21356 11.6051 6.2996 11.5602C6.38567 11.5152 6.56088 11.4468 6.689 11.4082C6.81714 11.3696 6.9875 11.327 7.06761 11.3136C7.14772 11.3002 7.3801 11.2939 7.58401 11.2996C7.81337 11.306 8.01535 11.327 8.11365 11.3546ZM2.76075 12.7318C2.78369 12.8637 2.9107 13.6252 3.04297 14.4241C3.17525 15.223 3.3248 16.1232 3.37527 16.4247C3.42577 16.7262 3.48702 17.0989 3.51144 17.253C3.53583 17.407 3.54801 17.5412 3.53853 17.551C3.52902 17.5608 3.07793 17.648 2.53611 17.7448C1.99428 17.8415 1.54284 17.9109 1.53291 17.8989C1.52298 17.887 1.45233 17.4949 1.37593 17.0276C1.29953 16.5604 1.15369 15.6786 1.05181 15.0681C0.949963 14.4577 0.827007 13.7177 0.778571 13.4238C0.730136 13.1298 0.698304 12.8812 0.707838 12.8712C0.717371 12.8612 0.975413 12.8082 1.28128 12.7534C1.58715 12.6986 2.02807 12.6187 2.26112 12.5759C2.49416 12.5331 2.69254 12.4966 2.70194 12.495C2.71134 12.4933 2.73782 12.5999 2.76075 12.7318Z" fill="rgb(67,69,75)" fill-rule="evenodd" />
	</g>
</svg>
