<svg viewBox="0 0 32.001 32" xmlns="http://www.w3.org/2000/svg" xmlns:xlink="http://www.w3.org/1999/xlink" width="32.001038" height="32.000000" fill="none" customFrame="#000000">
	<path id="Vector" d="M4.91416 0.313244C4.32042 -0.149245 3.47669 -0.0929965 2.9392 0.438241L0.439261 2.93818C-0.0919767 3.46942 -0.148225 4.31315 0.308014 4.91314L5.3079 11.413C5.58914 11.7817 6.03288 12.0005 6.49537 12.0005L9.87654 12.0005L16.6889 18.8128C15.7702 20.6253 16.0639 22.9002 17.5826 24.4127L24.5824 31.4125C25.3637 32.1937 26.6324 32.1937 27.4136 31.4125L31.4135 27.4126C32.1948 26.6314 32.1948 25.3627 31.4135 24.5814L24.4137 17.5816C22.9012 16.0691 20.6263 15.7691 18.8138 16.6879L12.0015 9.87552L12.0015 6.5006C12.0015 6.03186 11.7827 5.59437 11.414 5.31313L4.91416 0.313244ZM1.24549 24.7564C0.451761 25.5502 0.00177108 26.6314 0.00177108 27.7563C0.00177108 30.1 1.90173 32 4.24542 32C5.37039 32 6.45162 31.55 7.24535 30.7563L14.6077 23.394C14.1202 22.0877 14.0452 20.669 14.3827 19.3253L10.5265 15.4691L1.24549 24.7564ZM32.001 9.00054C32.001 8.34431 31.9323 7.70682 31.801 7.09434C31.651 6.39435 30.7948 6.21311 30.2886 6.71934L26.2949 10.713C26.1074 10.9005 25.8512 11.0067 25.5887 11.0067L22.0013 11.0067C21.4513 11.0067 21.0013 10.5568 21.0013 10.0068L21.0013 6.4131C21.0013 6.15061 21.1075 5.89436 21.295 5.70687L25.2887 1.71321C25.7949 1.20697 25.6137 0.350743 24.9137 0.200747C24.295 0.0694997 23.6575 0.000751304 23.0012 0.000751304C18.0326 0.000751304 14.0014 4.03191 14.0014 9.00054L14.0014 9.05054L19.3326 14.3817C21.5825 13.8129 24.07 14.4129 25.8324 16.1754L26.8136 17.1566C29.8761 15.7191 32.001 12.6067 32.001 9.00054ZM3.50169 27.0001C3.50169 26.6023 3.65972 26.2208 3.94102 25.9395C4.22232 25.6582 4.60384 25.5002 5.00165 25.5002C5.39947 25.5002 5.78099 25.6582 6.06229 25.9395C6.34359 26.2208 6.50162 26.6023 6.50162 27.0001C6.50162 27.3979 6.34359 27.7795 6.06229 28.0608C5.78099 28.342 5.39947 28.5001 5.00165 28.5001C4.60384 28.5001 4.22232 28.342 3.94102 28.0608C3.65972 27.7795 3.50169 27.3979 3.50169 27.0001Z" fill="rgb(255,255,255)" fill-rule="nonzero" />
</svg>
