<svg viewBox="0 0 18.8662 18.4" xmlns="http://www.w3.org/2000/svg" xmlns:xlink="http://www.w3.org/1999/xlink" width="18.866211" height="18.400024" fill="none" customFrame="#000000">
	<path id="Vector" d="M9.03778 12.1269C8.93217 12.2302 8.93217 12.252 9.01555 12.5891C9.13782 13.084 9.13782 14.0302 9.01555 14.5577C8.83213 15.319 8.48752 15.9988 7.98729 16.5698C7.56488 17.0538 7.19248 17.3366 6.63111 17.5867C5.85854 17.9402 5.53061 18 4.40787 18L3.42408 18L3.25734 17.8423C3.11283 17.7063 3.08504 17.6356 3.08504 17.4344L3.08504 17.1843L4.11329 16.1782L5.14154 15.1722L5.05817 14.1934C5.00814 13.655 4.96368 13.2145 4.95812 13.2091C4.95256 13.2036 4.4968 13.1601 3.9521 13.1112L2.95164 13.0242L1.91783 14.0302L1.91457 14.0334C0.900649 15.0145 0.878221 15.0363 0.650582 15.0363C0.339328 15.0363 0.150352 14.9112 0.0892126 14.661C-0.0552984 14.0955 -0.0219498 13.035 0.172584 12.2955C0.217049 12.116 0.372676 11.7299 0.511629 11.4471C1.11746 10.2181 2.59592 9.26646 4.14108 9.1142C4.61352 9.06526 5.27493 9.09788 5.65844 9.19033C5.74182 9.21208 5.903 9.18489 5.903 9.18489L8.67094 6.27009L11.2555 3.52387C13.9345 0.67432 14.1957 0.429607 14.8794 0.146828C15.1962 0.0163141 15.2962 0.00543807 15.9521 0C16.6524 0 16.6857 0.00543803 17.0526 0.174018C18.0808 0.652568 18.6478 1.79456 18.4088 2.92024C18.3032 3.43142 18.0419 3.95891 17.7084 4.3287C17.575 4.48097 16.1633 5.76979 14.5737 7.19456L9.03778 12.1269ZM7.79832 14.6447C7.42037 15.6779 6.68669 16.4284 5.79184 16.7166C5.60286 16.7764 5.34719 16.8417 5.22491 16.8634L5.00259 16.8961L5.61954 16.2816C5.95858 15.939 6.25316 15.6127 6.27539 15.5583C6.31986 15.4332 6.09198 12.6217 6.02528 12.4423C5.92523 12.1813 5.76405 12.1432 4.29115 12.0127C3.51857 11.942 2.80713 11.8876 2.70153 11.8822C2.53478 11.8822 2.43474 11.9529 1.84558 12.5239L1.18416 13.1601L1.22307 12.8882C1.2453 12.7414 1.32867 12.4532 1.40649 12.2465C2.01232 10.7239 4.02992 9.82659 5.63065 10.365C6.25872 10.5716 5.86965 10.9196 10.4384 6.06888C12.6895 3.68157 14.6237 1.64773 14.7348 1.54985C15.2629 1.09849 16.0632 0.946223 16.569 1.20725C17.3583 1.61511 17.5361 2.55045 16.9859 3.38791C16.897 3.5293 16.4634 3.96435 16.0243 4.35589C15.5852 4.74743 13.6065 6.5148 11.6167 8.28761C9.6325 10.0604 7.93727 11.5831 7.8539 11.6701C7.65937 11.8713 7.65381 12.0888 7.82055 12.5511C7.9206 12.8284 7.94283 13.0079 7.94283 13.568C7.94283 14.1662 7.92615 14.2967 7.79832 14.6447Z" fill="rgb(67,69,75)" fill-rule="evenodd" transform="matrix(-1,0,0,-1,18.666,18.2)" />
	<path id="Vector" d="M1.91783 14.0302C1.91674 14.0313 1.91565 14.0323 1.91457 14.0334C0.900649 15.0145 0.878221 15.0363 0.650582 15.0363C0.339328 15.0363 0.150352 14.9112 0.0892126 14.661C-0.0552984 14.0955 -0.0219498 13.035 0.172584 12.2955C0.217049 12.116 0.372676 11.7299 0.511629 11.4471C1.11746 10.2181 2.59592 9.26646 4.14108 9.1142C4.61352 9.06526 5.27493 9.09788 5.65844 9.19033C5.74182 9.21208 5.903 9.18489 5.903 9.18489L8.67094 6.27009L11.2555 3.52387C13.9345 0.67432 14.1957 0.429607 14.8794 0.146828C15.1962 0.0163141 15.2962 0.00543807 15.9521 0C16.6524 0 16.6857 0.00543803 17.0526 0.174018C18.0808 0.652568 18.6478 1.79456 18.4088 2.92024C18.3032 3.43142 18.0419 3.95891 17.7084 4.3287C17.575 4.48097 16.1633 5.76979 14.5737 7.19456L9.03778 12.1269C8.93217 12.2302 8.93217 12.252 9.01555 12.5891C9.13782 13.084 9.13782 14.0302 9.01555 14.5577C8.83213 15.319 8.48752 15.9988 7.98729 16.5698C7.56488 17.0538 7.19248 17.3366 6.63111 17.5867C5.85854 17.9402 5.53061 18 4.40787 18L3.42408 18L3.25734 17.8423C3.11283 17.7063 3.08504 17.6356 3.08504 17.4344L3.08504 17.1843L4.11329 16.1782L5.14154 15.1722L5.05817 14.1934C5.00814 13.655 4.96368 13.2145 4.95812 13.2091C4.95256 13.2036 4.4968 13.1601 3.9521 13.1112L2.95164 13.0242L1.91783 14.0302L1.91457 14.0334M7.79832 14.6447C7.92615 14.2967 7.94283 14.1662 7.94283 13.568C7.94283 13.0079 7.9206 12.8284 7.82055 12.5511C7.65381 12.0888 7.65937 11.8713 7.8539 11.6701C7.93727 11.5831 9.6325 10.0604 11.6167 8.28761C13.6065 6.5148 15.5852 4.74743 16.0243 4.35589C16.4634 3.96435 16.897 3.5293 16.9859 3.38791C17.5361 2.55045 17.3583 1.61511 16.569 1.20725C16.0632 0.946223 15.2629 1.09849 14.7348 1.54985C14.6237 1.64773 12.6895 3.68157 10.4384 6.06888C5.86965 10.9196 6.25872 10.5716 5.63065 10.365C4.02992 9.82659 2.01232 10.7239 1.40649 12.2465C1.32867 12.4532 1.2453 12.7414 1.22307 12.8882L1.18416 13.1601L1.84558 12.5239C2.43474 11.9529 2.53478 11.8822 2.70153 11.8822C2.80713 11.8876 3.51857 11.942 4.29115 12.0127C5.76405 12.1432 5.92523 12.1813 6.02528 12.4423C6.09198 12.6217 6.31986 15.4332 6.27539 15.5583C6.25316 15.6127 5.95858 15.939 5.61954 16.2816L5.00259 16.8961L5.22491 16.8634C5.34719 16.8417 5.60286 16.7764 5.79184 16.7166C6.68669 16.4284 7.42037 15.6779 7.79832 14.6447Z" fill-rule="evenodd" stroke="rgb(242,242,242)" stroke-linecap="round" stroke-linejoin="round" stroke-width="0.400000" transform="matrix(-1,0,0,-1,18.666,18.2)" />
</svg>
