<svg viewBox="0 0 1410 509" xmlns="http://www.w3.org/2000/svg" width="1410" height="509" fill="none">
	<defs>
		<mask id="outside-mask" x="0" y="0" width="1410" height="509" maskUnits="userSpaceOnUse" mask-type="luminance">
			<rect width="1410" height="509" fill="white" />
			<path d="M938.206 0H1360C1387.61 0 1410 22.3858 1410 50V364C1410 391.614 1387.61 414 1360 414C1346.59 414 842.559 414.598 842 414.598C816.043 414.598 795 435.64 795 461.598C795 487.555 773.957 508.598 748 508.598H50C22.3858 508.598 0 486.212 0 458.598V108.597C0 80.9829 22.3858 58.5972 50 58.5972H879.609C895.79 58.5972 908.908 45.4798 908.908 29.2986C908.908 13.1174 922.025 0 938.206 0Z" fill="black" />
		</mask>
	</defs>
	<path d="M938.206 0H1360C1387.61 0 1410 22.3858 1410 50V364C1410 391.614 1387.61 414 1360 414C1346.59 414 842.559 414.598 842 414.598C816.043 414.598 795 435.64 795 461.598C795 487.555 773.957 508.598 748 508.598H50C22.3858 508.598 0 486.212 0 458.598V108.597C0 80.9829 22.3858 58.5972 50 58.5972H879.609C895.79 58.5972 908.908 45.4798 908.908 29.2986C908.908 13.1174 922.025 0 938.206 0Z" stroke="white" stroke-width="8" mask="url(#outside-mask)" />
</svg>
