<svg viewBox="0 0 36 25.2043" xmlns="http://www.w3.org/2000/svg" xmlns:xlink="http://www.w3.org/1999/xlink" width="36.000000" height="25.204346" fill="none" customFrame="#000000">
	<path id="Vector" d="M18.0004 -0.00012207C17.5448 -0.00012207 17.0948 0.0786259 16.6673 0.230497L0.889594 5.92848C0.355232 6.12536 0.000865794 6.63159 0.000865794 7.1997C0.000865794 7.76782 0.355232 8.27405 0.889594 8.47092L4.14639 9.64652C3.22391 11.0977 2.7008 12.8133 2.7008 14.6189L2.7008 16.1995C2.7008 17.7969 2.09332 19.445 1.44646 20.7444C1.08084 21.4756 0.6646 22.1956 0.180861 22.8593C0.000865787 23.1012 -0.049758 23.4162 0.0514896 23.7031C0.152737 23.9899 0.388982 24.2037 0.681475 24.2768L4.28139 25.1768C4.51763 25.2386 4.77075 25.1936 4.97887 25.0643C5.18699 24.9349 5.33324 24.7212 5.37824 24.4793C5.86197 22.0718 5.62011 19.9119 5.26011 18.3651C5.08012 17.5663 4.83825 16.7507 4.50076 16.0026L4.50076 14.6189C4.50076 12.9202 5.07449 11.3171 6.0701 10.0346C6.7957 9.16278 7.73506 8.45967 8.83753 8.02656L17.6686 4.55602C18.1298 4.37602 18.6529 4.60102 18.8329 5.06226C19.0129 5.52349 18.7879 6.04661 18.3267 6.2266L9.49564 9.69714C8.79815 9.97276 8.18505 10.3946 7.68443 10.9121L16.6617 14.152C17.0892 14.3039 17.5392 14.3827 17.9948 14.3827C18.4504 14.3827 18.9004 14.3039 19.3279 14.152L35.1113 8.47092C35.6456 8.27968 36 7.76782 36 7.1997C36 6.63159 35.6456 6.12536 35.1113 5.92848L19.3335 0.230497C18.906 0.0786259 18.456 -0.00012207 18.0004 -0.00012207ZM7.20069 21.1494C7.20069 23.1349 12.0381 25.1993 18.0004 25.1993C23.9628 25.1993 28.8002 23.1349 28.8002 21.1494L27.9396 12.9708L19.941 15.862C19.3167 16.087 18.6585 16.1995 18.0004 16.1995C17.3423 16.1995 16.6786 16.087 16.0599 15.862L8.0613 12.9708L7.20069 21.1494Z" fill="rgb(255,255,255)" fill-rule="nonzero" />
</svg>
