<svg viewBox="0 0 17.1882 18" xmlns="http://www.w3.org/2000/svg" xmlns:xlink="http://www.w3.org/1999/xlink" width="17.188232" height="18.000000" fill="none" customFrame="#000000">
	<g id="Black">
		<path id="Vector" d="M7.35125 11.9769C7.3127 11.8612 7.44122 11.617 7.71111 11.3343L8.13522 10.8973L7.80107 10.8973C6.78577 10.8973 3.71418 9.8306 3.71418 9.4836C3.71418 9.41934 3.61137 9.34223 3.47 9.29082C3.09729 9.17515 2.01774 8.0699 1.46511 7.22167C0.501222 5.76942 0 4.13723 0 2.47934C0 0.70579 0.449814 -0.386617 0.963888 0.127457C1.14381 0.294531 1.14381 0.371642 1.00244 0.628679C0.732555 1.11705 0.771111 3.71312 1.0667 4.65131C1.95348 7.53012 4.511 9.71493 7.37696 10.0748L8.14807 10.1647L7.72396 9.72778C7.26129 9.25226 7.23559 8.93097 7.6597 8.86671C7.85248 8.84101 8.16092 9.05949 8.71355 9.62497C9.15051 10.0619 9.49751 10.4603 9.49751 10.5246C9.49751 10.5889 9.15051 10.9873 8.73925 11.4114C7.96814 12.1825 7.50548 12.3753 7.35125 11.9769Z" fill="rgb(67,69,75)" fill-rule="nonzero" transform="matrix(1,0,0,-1,0,12.1787)" />
		<path id="Vector" d="M0.0387018 12.8282C-0.0769647 12.5197 0.0772574 12.237 0.359998 12.237C0.706998 12.237 1.96648 11.6587 2.67333 11.1703C3.63722 10.5148 4.43403 9.62807 4.9224 8.66418C5.77062 7.03199 5.95055 6.35085 5.95055 4.78292C5.95055 3.69051 5.89914 3.27926 5.65496 2.59811C5.15374 1.21011 5.10233 1.1587 4.94811 1.827C4.83244 2.27681 4.74248 2.41818 4.51114 2.44389C4.15129 2.49529 4.02277 2.18685 4.18985 1.64707C4.26696 1.42859 4.39548 0.991627 4.49829 0.670331C4.58825 0.349035 4.71677 0.0534429 4.78103 0.0148874C4.84529 -0.0236682 5.21799 0.0148874 5.6164 0.10485C6.91444 0.387591 7.12007 0.477554 7.15862 0.760294C7.21003 1.10729 6.87588 1.22296 6.2847 1.05589C6.05336 0.991627 5.83488 0.94022 5.82203 0.965924C5.80918 0.978776 5.88629 1.19726 6.01481 1.44144C6.50318 2.48244 6.60599 3.03507 6.60599 4.84718C6.60599 6.62073 6.49033 7.27618 6.06622 8.1244C5.97625 8.30433 5.89914 8.4971 5.89914 8.54851C5.89914 8.8184 4.66537 10.4634 4.06133 11.0289C3.07174 11.9285 2.85326 12.0828 1.95363 12.5069C0.899775 12.9952 0.154368 13.1238 0.0387018 12.8282Z" fill="rgb(67,69,75)" fill-rule="nonzero" transform="matrix(1,0,0,-1,10.0242,14.5466)" />
		<path id="Vector" d="M4.25396 10.5315C4.12544 10.403 3.97122 10.1074 3.91981 9.87606C3.817 9.42625 3.88126 9.42625 2.49326 9.69614C2.15911 9.7604 2.03059 9.69614 1.50367 9.16921C0.848222 8.53947 0.783962 8.25673 1.10526 7.69125C1.40085 7.20288 1.27233 6.9587 0.578333 6.6631L0 6.41892L0 5.40362C0 4.31122 0.0514074 4.22125 0.693999 4.00277C1.25948 3.82285 1.388 3.54011 1.11811 3.07744C1.00244 2.87181 0.899629 2.58907 0.899629 2.43485C0.899629 2.16496 2.1077 0.879774 2.37759 0.879774C2.46755 0.879774 2.71174 0.969737 2.93022 1.0854C3.45715 1.34244 3.8427 1.21392 3.94552 0.751256C4.07403 0.108664 4.35677 -0.0327065 5.41063 0.00584905C6.32311 0.0444046 6.36166 0.0572564 6.52874 0.42996C6.92714 1.32959 7.05566 1.4067 7.77536 1.07255C8.18662 0.866922 8.25088 0.866922 8.53362 1.0597C9.02199 1.36814 9.7674 2.17781 9.7674 2.39629C9.7674 2.48625 9.66459 2.78185 9.54892 3.02603C9.30473 3.56581 9.40755 3.82285 9.97303 4.01562C10.5771 4.2084 10.667 4.38833 10.667 5.35221C10.667 6.2647 10.4614 6.6631 9.99873 6.6631C9.78025 6.6631 9.38184 7.06151 9.38184 7.29284C9.38184 7.36995 9.47181 7.58844 9.58747 7.75551C9.88307 8.20532 9.7417 8.59088 9.06055 9.22062C8.45651 9.77325 8.12236 9.86321 7.59544 9.56762C7.15848 9.32343 6.86288 9.4391 6.67011 9.91462C6.37451 10.66 6.20744 10.7757 5.30781 10.7757C4.67807 10.7757 4.44674 10.7243 4.25396 10.5315ZM5.91185 9.8118C5.91185 9.4134 6.22029 9.00214 6.67011 8.80936C7.26129 8.53947 7.3127 8.53947 7.82677 8.79651C8.22518 9.00214 8.25088 8.98929 8.59788 8.62943C8.95773 8.24388 8.95773 8.24388 8.73925 7.81977C8.55933 7.47277 8.54647 7.30569 8.64929 6.99725C8.82922 6.44462 9.20192 6.05907 9.65173 5.9691C10.0116 5.90484 10.0373 5.86629 9.99873 5.36507C9.96018 4.8767 9.92162 4.81244 9.51036 4.68392C9.18907 4.5811 8.98344 4.38833 8.76496 4.00277C8.46936 3.46299 8.46936 3.46299 8.71355 2.98748L8.95773 2.51196L8.58503 2.1264L8.22518 1.74085L7.76251 1.95933C7.32555 2.16496 7.26129 2.16496 6.74722 1.95933C6.22029 1.76655 5.91185 1.381 5.91185 0.931182C5.91185 0.77696 5.78333 0.751256 5.30781 0.776959C4.74233 0.815515 4.69092 0.841219 4.62666 1.20107C4.57526 1.48381 4.42103 1.66374 3.99692 1.89507C3.47 2.19066 3.43144 2.19066 3.00733 1.98503C2.429 1.71514 2.37759 1.71514 2.00489 2.1264C1.7093 2.4477 1.69644 2.48625 1.88922 2.84611C2.27478 3.59151 1.69644 4.73533 0.938184 4.73533C0.642592 4.73533 0.62974 4.77388 0.668296 5.35221C0.706851 5.89199 0.745407 5.95625 1.041 5.99481C1.79926 6.08477 2.30048 7.22858 1.87637 7.88403C1.67074 8.20532 1.67074 8.21818 2.03059 8.61658C2.40329 9.00214 2.41615 9.01499 2.82741 8.79651C3.35433 8.53947 3.39289 8.53947 4.00977 8.80936C4.34392 8.96358 4.52385 9.13066 4.57526 9.36199C4.71663 9.97888 4.74233 10.0046 5.33351 10.0046C5.75763 10.0046 5.91185 9.95317 5.91185 9.8118Z" fill="rgb(67,69,75)" fill-rule="nonzero" transform="matrix(1,0,0,-1,3.07153,15.0131)" />
		<path id="Vector" d="M1.96551 5.81684C1.5157 5.72687 0.5004 4.75013 0.243363 4.13324C-0.0136736 3.52921 -0.0907846 2.12836 0.127697 1.98699C0.204808 1.94843 0.256215 1.79421 0.256215 1.65284C0.256215 1.51147 0.538956 1.11306 0.885955 0.766062C1.59281 0.059211 1.97836 -0.0564556 3.31495 0.0206554C4.03466 0.059211 4.27884 0.136322 4.78006 0.483322C6.63073 1.75565 6.34799 4.73728 4.30455 5.66261C3.81618 5.89395 2.69807 5.95821 1.96551 5.81684ZM4.22743 4.81439C5.58973 3.90191 5.57688 1.97414 4.20173 0.997395C3.88043 0.766062 3.6234 0.701803 2.99366 0.701803C2.31251 0.701803 2.14544 0.75321 1.70847 1.10021C0.975918 1.69139 0.744585 2.21832 0.821696 3.1308C0.885955 3.96617 1.13014 4.39028 1.79844 4.85295C2.41532 5.26421 3.55914 5.25136 4.22743 4.81439Z" fill="rgb(67,69,75)" fill-rule="nonzero" transform="matrix(1,0,0,-1,5.38574,12.586)" />
		<path id="Vector" d="M0.553857 5.15192C0.463894 5.01055 0.15545 3.87959 0.0140799 3.2113C-0.0244756 2.97996 0.0140799 2.85144 0.15545 2.80004C0.50245 2.65867 0.733783 2.83859 0.823746 3.30126C0.926561 3.82818 1.02938 3.85389 1.32497 3.39122C1.64626 2.89 2.76437 1.81045 3.38126 1.41204C5.81026 -0.18159 9.08748 -0.451479 11.6578 0.730891C12.9687 1.33493 14.2925 2.41448 14.2154 2.82574C14.1383 3.22415 13.6756 3.10848 13.0458 2.53015C12.1334 1.70763 10.8096 1.10359 9.39592 0.859409C8.32922 0.666631 8.11074 0.666631 6.97978 0.846557C6.29863 0.962224 5.64319 1.10359 5.52752 1.16785C5.41185 1.24496 5.052 1.39919 4.73071 1.54056C4.011 1.83615 2.67441 2.89 2.276 3.46833C2.10893 3.71252 1.89045 3.99526 1.78763 4.08522C1.64626 4.23944 1.71052 4.2523 2.2503 4.17518C2.64871 4.12378 2.93145 4.14948 2.98286 4.22659C3.12423 4.45792 2.9186 4.76637 2.55874 4.84348C2.37882 4.88204 2.08323 4.972 1.9033 5.02341C1.27356 5.25474 0.64382 5.30615 0.553857 5.15192Z" fill="rgb(67,69,75)" fill-rule="nonzero" transform="matrix(1,0,0,-1,0.268555,18)" />
	</g>
</svg>
