<svg viewBox="0 0 17.1392 18" xmlns="http://www.w3.org/2000/svg" xmlns:xlink="http://www.w3.org/1999/xlink" width="17.139160" height="18.000000" fill="none" customFrame="#000000">
	<g id="Black">
		<path id="Vector" d="M4.89347 17.9629C4.80334 17.9341 4.48969 17.8115 4.19046 17.6853C3.57037 17.4221 3.38289 17.2779 3.21706 16.939C3.05122 16.5966 3.05482 16.3766 3.2495 15.652L3.41174 15.0427L3.18461 14.8156L2.95748 14.5885L2.42031 14.7399C1.53704 14.9814 1.1621 14.9454 0.765526 14.5813C0.570845 14.401 0.534793 14.3397 0.246378 13.6367C-0.00959058 13.0202 -0.0420373 12.8255 0.0408821 12.4938C0.149038 12.072 0.268009 11.9423 0.931365 11.5132L1.52262 11.1311L1.55146 10.9688C1.56588 10.8787 1.56588 10.7453 1.54785 10.6696C1.52262 10.5398 1.49738 10.5182 0.989048 10.2226C0.37256 9.86205 0.249983 9.7539 0.112986 9.45106C0.0300665 9.2708 0.0120406 9.18067 0.0120406 8.94273C0.0120406 8.66874 0.0228561 8.62908 0.260799 8.05946C0.394191 7.73139 0.545609 7.40331 0.596082 7.33121C0.75471 7.08606 1.08999 6.88417 1.43249 6.83009C1.61635 6.80125 1.69206 6.81206 2.12108 6.92382C2.99714 7.15456 2.92143 7.14374 3.06203 7.03919C3.13053 6.98511 3.23508 6.88056 3.29637 6.80485L3.40813 6.66786L3.2495 6.073C3.08006 5.43849 3.05843 5.20775 3.14495 4.95539C3.28555 4.55161 3.65328 4.2019 3.92728 4.2019C4.13278 4.2019 4.28059 4.35693 4.28059 4.56603C4.28059 4.70303 4.26256 4.73547 4.10033 4.88689C3.79028 5.1717 3.79028 5.19333 3.99578 5.96845C4.09312 6.33618 4.17243 6.68588 4.17243 6.74717C4.17243 7.0428 3.41895 7.83594 3.07645 7.89723C3.00074 7.91165 2.73396 7.85757 2.26889 7.73499C1.3027 7.47902 1.31351 7.47542 0.963811 8.31903C0.84484 8.61105 0.7475 8.89586 0.7475 8.94994C0.7475 9.17707 0.84484 9.2672 1.48656 9.63853C2.25808 10.0892 2.24005 10.0603 2.24005 10.7994C2.24005 11.5998 2.2725 11.5457 1.51901 12.0324C1.16931 12.2559 0.859261 12.4758 0.830419 12.5191C0.707843 12.7029 0.729474 12.8435 0.949391 13.3771C1.20536 13.9972 1.22338 14.0224 1.40725 14.1126L1.55867 14.1847L2.22563 14.008C2.59336 13.9107 2.94306 13.8278 3.00074 13.8278C3.15937 13.8278 3.41895 13.9936 3.70736 14.2784C3.99578 14.5596 4.17243 14.8372 4.17243 14.9995C4.17243 15.0607 4.09312 15.4068 3.99217 15.7746L3.81552 16.4415L3.88041 16.5857C3.91646 16.6651 3.96694 16.748 3.99578 16.7696C4.02462 16.7948 4.2878 16.9138 4.58703 17.0364C5.15665 17.2707 5.29365 17.2924 5.48112 17.1698C5.52438 17.1409 5.71906 16.8417 5.91735 16.5064C6.11203 16.1711 6.3031 15.8755 6.34636 15.8503C6.55907 15.7133 7.72355 15.7169 7.92904 15.8539C7.97591 15.8827 8.1742 16.1892 8.37248 16.5317C8.85918 17.3789 8.86279 17.3789 9.68838 17.0328C10.258 16.7948 10.3049 16.766 10.3914 16.5785C10.4527 16.4523 10.4491 16.4415 10.2652 15.7205L10.0741 14.9886L10.1643 14.794C10.3409 14.4118 10.9358 13.8746 11.2242 13.8422C11.3215 13.8314 11.5703 13.8818 12.0318 14.0044L12.6987 14.1811L12.8429 14.1198C13.0376 14.0333 13.0773 13.9756 13.2359 13.5754C13.3909 13.1896 13.5207 13.0346 13.6937 13.0346C13.9173 13.0346 14.0867 13.1969 14.0867 13.4096C14.0867 13.4564 14.0038 13.6908 13.9028 13.9323C13.6865 14.4406 13.5243 14.6425 13.1926 14.794C12.8609 14.9454 12.6482 14.9418 11.9813 14.7651C11.6676 14.6822 11.3936 14.6101 11.3684 14.5993C11.3432 14.5885 11.2206 14.6822 11.098 14.8048C10.8348 15.0643 10.8384 14.9706 11.0547 15.7998C11.1953 16.3334 11.2026 16.3983 11.1701 16.5821C11.1196 16.8489 10.979 17.1193 10.788 17.3068C10.6582 17.433 10.5176 17.5051 10.0056 17.7142C9.66314 17.8548 9.30623 17.9773 9.2161 17.9918C8.88802 18.0386 8.41214 17.88 8.19222 17.6529C8.13454 17.5916 7.94707 17.2996 7.77762 17.0112C7.42792 16.4127 7.41711 16.4019 7.01332 16.4451L6.80783 16.4668L6.47255 17.0436C6.11203 17.6673 5.98584 17.8043 5.65417 17.9197C5.42343 17.999 5.08455 18.017 4.89347 17.9629Z" fill="rgb(67,69,75)" fill-rule="nonzero" />
		<path id="Vector" d="M14.0901 12.3677C13.6142 12.018 13.2032 11.6971 13.1816 11.6539C13.1239 11.5493 13.1347 11.3474 13.2068 11.2393L13.2645 11.1491L12.1794 10.064C11.1014 8.98602 11.0942 8.97881 11.0257 9.05091C10.9572 9.11941 10.9572 9.13383 11.0113 9.35736C11.0906 9.68543 11.0906 10.3127 11.0113 10.6624C10.8923 11.1672 10.6688 11.6178 10.3443 11.9964C10.0703 12.3172 9.82877 12.5047 9.46465 12.6705C8.96352 12.9049 8.75082 12.9445 8.02257 12.9445L7.38445 12.9445L7.27629 12.84C7.18256 12.7498 7.16453 12.703 7.16453 12.5696L7.16453 12.4037L7.83149 11.7368L8.49845 11.0698L8.44438 10.4209C8.41193 10.064 8.38309 9.77195 8.37948 9.76835C8.37588 9.76474 8.08025 9.7359 7.72694 9.70345L7.07801 9.64577L6.40744 10.3127C5.74769 10.9653 5.73327 10.9797 5.58546 10.9797C5.38357 10.9797 5.26099 10.8968 5.22133 10.7309C5.1276 10.356 5.14923 9.65298 5.27541 9.16267C5.30425 9.0437 5.4052 8.78773 5.49533 8.60026C5.8883 7.78549 6.84728 7.15458 7.84952 7.05364C8.15596 7.02119 8.58498 7.04282 8.83374 7.10411C8.88781 7.11853 8.95992 7.11853 8.99236 7.1005C9.03563 7.08248 8.98516 7.06445 8.83374 7.05003C8.50927 7.01398 8.2497 6.86977 7.9072 6.53809C7.6296 6.2641 7.57913 6.23165 6.89414 5.89637L6.17311 5.54306L4.96897 4.25601C4.25875 3.49171 3.74681 2.91488 3.71436 2.83556C3.64226 2.66612 3.6675 2.3056 3.77205 2.03161C3.95231 1.56654 4.46424 0.917601 4.93652 0.560687C5.50254 0.131669 6.05053 -0.0666164 6.43628 0.0199082C6.60573 0.0559601 6.67783 0.106433 7.08522 0.477768C7.93965 1.25649 9.03563 2.29478 9.1582 2.4462C9.2267 2.52912 9.4358 2.91488 9.62327 3.30063C9.93332 3.92794 9.9874 4.02167 10.1532 4.15867C10.3912 4.36056 10.6363 4.71026 10.7229 4.96263L10.7878 5.16812L12.4642 3.3475C14.2019 1.45838 14.3713 1.29615 14.8147 1.10868C15.0202 1.02215 15.0851 1.01494 15.5106 1.01134C15.9648 1.01134 15.9864 1.01494 16.2244 1.1267C16.8913 1.44396 17.2591 2.20105 17.104 2.94732C17.0355 3.28621 16.8661 3.63592 16.6498 3.88107C16.5633 3.98201 15.6475 4.83644 14.6165 5.781L12.7454 7.49347L13.7873 8.53537L14.8292 9.57727L14.959 9.51598C15.1176 9.44027 15.3051 9.46912 15.4132 9.58448C15.4529 9.62774 15.7629 10.0207 16.1018 10.4569C16.6894 11.214 16.7183 11.2573 16.7183 11.4123L16.7183 11.5709L16.0045 12.2848L15.2906 12.9986L15.1248 12.9986C14.9698 12.9986 14.9193 12.9662 14.0901 12.3677ZM8.92026 12.0937C9.5007 11.9026 9.97658 11.4051 10.2217 10.7201C10.3047 10.4894 10.3155 10.4029 10.3155 10.0063C10.3155 9.63495 10.3011 9.51598 10.2362 9.33212C10.128 9.02568 10.1316 8.88147 10.2578 8.74808C10.3119 8.69039 11.4114 7.68094 12.6985 6.50565C13.9892 5.33036 15.2726 4.15867 15.5574 3.89909C15.8422 3.63952 16.1234 3.3511 16.1811 3.25737C16.538 2.70217 16.4227 2.08208 15.9107 1.81169C15.5827 1.63864 15.0635 1.73958 14.721 2.03882C14.6489 2.10371 13.3943 3.45205 11.9342 5.03473C8.97073 8.25056 9.2231 8.01983 8.81571 7.88283C7.77742 7.52592 6.46873 8.12077 6.07576 9.13023C6.02529 9.26722 5.97121 9.4583 5.95679 9.55564L5.93156 9.7359L6.36057 9.31409C6.74273 8.93555 6.80762 8.88868 6.91577 8.88868C6.98427 8.89228 7.44574 8.92834 7.94686 8.9752C8.90224 9.06173 9.00679 9.08697 9.07168 9.26001C9.11494 9.37899 9.26275 11.2429 9.23391 11.3258C9.21949 11.3618 9.02842 11.5782 8.8085 11.8053L8.40832 12.2127L8.55253 12.191C8.63185 12.1766 8.79768 12.1334 8.92026 12.0937ZM15.4781 11.762L15.8675 11.3907L15.4889 10.9004C15.1176 10.4209 15.1068 10.4137 15.0202 10.4605C14.9121 10.5182 14.7931 10.5254 14.6886 10.4714C14.6453 10.4497 14.0649 9.88732 13.3943 9.22036L12.183 8.01262L11.927 8.23975C11.7864 8.36593 11.671 8.47769 11.671 8.4885C11.671 8.49932 12.2298 9.06894 12.9148 9.75393L14.1586 11.0013L14.1586 11.1527C14.1586 11.2393 14.1442 11.3366 14.1262 11.3727C14.0937 11.4267 14.1622 11.488 14.566 11.7836C14.8292 11.9747 15.0527 12.1297 15.0635 12.1334C15.0779 12.1334 15.2618 11.9675 15.4781 11.762ZM9.99821 5.82066C9.87203 5.67285 9.85761 5.4313 9.96577 5.31233C10.0595 5.20778 9.991 5.0852 9.61606 4.68863C9.23752 4.29206 9.18344 4.19833 8.82292 3.36553C8.67511 3.02303 8.66429 3.00861 8.15956 2.51831C7.32316 1.69993 6.25963 0.740947 6.19474 0.740947C6.0974 0.740947 5.69001 0.950048 5.44846 1.11949C5.14923 1.3322 4.79592 1.72877 4.60845 2.05324C4.33446 2.53273 4.25514 2.38852 5.53499 3.75128L6.6526 4.94099L6.99148 5.07799C7.60076 5.32675 7.98291 5.56109 8.32901 5.89637C8.50206 6.06581 8.70395 6.23165 8.77245 6.2677C8.89863 6.3326 8.90584 6.3326 8.97434 6.2677C9.02121 6.22444 9.10413 6.20281 9.20507 6.20281C9.33486 6.20281 9.38173 6.22444 9.47907 6.32178L9.59804 6.44075L9.8468 6.18479L10.0919 5.93242L9.99821 5.82066Z" fill="rgb(67,69,75)" fill-rule="nonzero" />
	</g>
</svg>
