<svg viewBox="0 0 25.5 18" xmlns="http://www.w3.org/2000/svg" xmlns:xlink="http://www.w3.org/1999/xlink" width="25.500000" height="18.000000" fill="none" customFrame="#000000">
	<rect id="Frame 1077237550" width="25.500000" height="18.000000" x="0.000000" y="0.000000" />
	<path id="Vector" d="M13.2103 7.54873L12.7482 6.7501L12.286 7.5487L10.7691 10.1698L10.3575 10.881C10.6174 10.9632 10.8826 11.0325 11.1528 11.0881C11.1555 11.0886 11.1583 11.0892 11.161 11.0898C11.6743 11.1947 12.2055 11.2502 12.7517 11.2502C15.2373 11.2502 17.4557 10.1005 18.9006 8.297C19.2909 7.81184 19.9975 7.73449 20.4827 8.12121C20.7603 8.34252 20.9044 8.66973 20.9044 9.00009C20.9044 9.24704 20.8239 9.49574 20.6585 9.70327C18.7987 12.0166 15.9474 13.5002 12.7482 13.5002C11.5036 13.5002 10.3083 13.2752 9.2079 12.8639L7.21802 16.3022C7.05278 16.587 6.80669 16.819 6.51137 16.9667L4.56368 17.9405C4.3879 18.0284 4.18048 18.0178 4.01524 17.9159C3.85 17.8139 3.74805 17.6311 3.74805 17.4378L3.74805 15.4901C3.74805 15.1948 3.82539 14.903 3.97657 14.6428L6.08597 10.997C5.63597 10.6033 5.2176 10.1709 4.84494 9.70327C4.67826 9.49605 4.59753 9.24843 4.59753 9.00231C4.59753 8.67219 4.74278 8.34478 5.02072 8.12121C5.50589 7.73097 6.21254 7.81184 6.60278 8.297C6.62685 8.32698 6.65112 8.35676 6.67559 8.38634C6.85484 8.603 7.04465 8.80877 7.24263 9.00365L7.65799 8.28605L9.68251 4.78835C9.48563 4.35944 9.37313 3.88131 9.37313 3.37505C9.37313 1.51174 10.8849 0 12.7482 0C14.6115 0 16.1232 1.51174 16.1232 3.37505C16.1232 3.87779 16.0142 4.35592 15.8139 4.78835L17.6701 7.99465C16.8369 8.88412 15.7646 9.54506 14.5588 9.87905L13.2103 7.54873ZM16.6658 7.85652L15.1215 5.18918L14.9132 4.82929L15.088 4.45198Q15.1834 4.24608 15.2401 4.03002L15.2401 4.03Q15.3232 3.71343 15.3232 3.37505Q15.3232 2.84348 15.1357 2.38938C15.0099 2.08496 14.821 1.80666 14.5688 1.55447C14.3166 1.30228 14.0383 1.11331 13.7339 0.98757Q13.2798 0.8 12.7482 0.8C12.3938 0.8 12.0652 0.862523 11.7625 0.987568C11.4581 1.11331 11.1798 1.30228 10.9276 1.55447Q10.5493 1.93274 10.3607 2.38936L10.3607 2.38939L10.3607 2.38947Q10.1731 2.84353 10.1731 3.37505Q10.1731 3.64456 10.227 3.90281L10.227 3.90282L10.227 3.90284C10.2664 4.09126 10.3272 4.27519 10.4096 4.45462L10.5823 4.83084L7.41755 10.2984L6.68142 9.57377Q6.3022 9.20048 5.97941 8.79841C5.90951 8.71151 5.83569 8.66421 5.75794 8.6565C5.68299 8.64906 5.60438 8.67842 5.52213 8.74459C5.43618 8.81372 5.38915 8.88693 5.38105 8.96423L5.38104 8.96438Q5.37979 8.97636 5.37979 8.98848Q5.37979 9.09182 5.47055 9.20466Q5.9732 9.83535 6.61278 10.395L7.10791 10.8282L4.66827 15.0447C4.62717 15.1155 4.59661 15.1889 4.57659 15.2652Q4.54805 15.3739 4.54805 15.4901L4.54805 17.0539L6.1536 16.2511C6.23283 16.2115 6.30339 16.1627 6.36528 16.1046C6.42748 16.0462 6.48092 15.9785 6.52562 15.9015L8.85434 11.8776L9.48801 12.1145C9.90962 12.2721 10.3381 12.3979 10.7734 12.4919Q11.7383 12.7002 12.7482 12.7002Q13.9119 12.7002 15.0077 12.4274L15.0078 12.4274C15.6399 12.27 16.255 12.0446 16.8532 11.751Q17.7575 11.3073 18.5307 10.6974C19.0813 10.263 19.582 9.76542 20.0329 9.20462Q20.1241 9.09024 20.1241 8.98671Q20.1241 8.97327 20.1225 8.96002L20.1224 8.95929C20.1135 8.88403 20.0673 8.8132 19.984 8.74679C19.8989 8.67892 19.818 8.64925 19.7414 8.6578C19.665 8.66632 19.5929 8.71278 19.525 8.7972C19.1064 9.3196 18.6413 9.78297 18.1295 10.1873Q17.4104 10.7554 16.5686 11.1682Q15.7348 11.5771 14.8538 11.7964L14.8537 11.7964L14.8536 11.7964L14.8536 11.7964Q13.8342 12.0502 12.7517 12.0502C12.2808 12.0502 11.8159 12.0131 11.357 11.939L11.357 11.939Q10.7292 11.8376 10.1163 11.6438L9.16576 11.3432L12.664 5.29847C12.4302 5.28953 12.2119 5.24308 12.0092 5.15911L12.0091 5.15906Q11.6688 5.0181 11.387 4.73624Q11.1051 4.45433 10.9641 4.11403L10.9641 4.11402Q10.8232 3.77373 10.8232 3.37505Q10.8232 2.97637 10.9641 2.63608C11.0581 2.40921 11.199 2.2018 11.387 2.01386Q11.6689 1.73195 12.0092 1.59099C12.2361 1.49702 12.4824 1.45003 12.7482 1.45003C13.014 1.45003 13.2603 1.49702 13.4872 1.59099L13.4873 1.59105Q13.8275 1.73201 14.1094 2.01386C14.2973 2.2018 14.4383 2.40921 14.5322 2.63608Q14.6732 2.97637 14.6732 3.37505Q14.6732 3.77366 14.5323 4.11392L14.5322 4.11403L14.5322 4.11407Q14.3913 4.45435 14.1094 4.73624C13.9214 4.92419 13.714 5.06514 13.4872 5.15911C13.2845 5.24307 13.0662 5.28952 12.8325 5.29847L14.9258 8.91601C15.2302 8.79796 15.5207 8.65648 15.7972 8.49159C16.1039 8.30871 16.3934 8.09702 16.6658 7.85652ZM13.8732 3.37505C13.8732 3.07668 13.7547 2.79052 13.5437 2.57954C13.3327 2.36856 13.0466 2.25003 12.7482 2.25003C12.4498 2.25003 12.1637 2.36856 11.9527 2.57954C11.7417 2.79052 11.6232 3.07668 11.6232 3.37505C11.6232 3.67342 11.7417 3.95958 11.9527 4.17056C12.1637 4.38154 12.4498 4.50007 12.7482 4.50007C13.0466 4.50007 13.3327 4.38154 13.5437 4.17056C13.7547 3.95958 13.8732 3.67342 13.8732 3.37505ZM19.987 11.9885L20.3934 12.6906L21.5233 14.6428C21.671 14.8994 21.7518 15.1912 21.7518 15.4901L21.7518 17.4378C21.7518 17.6311 21.6499 17.8139 21.4846 17.9159C21.3194 18.0178 21.112 18.0284 20.9362 17.9405L18.9885 16.9667C18.6932 16.819 18.4471 16.587 18.2819 16.3022L17.2666 14.548L16.8615 13.8483C17.1122 13.7498 17.3584 13.6426 17.5997 13.5271L17.5999 13.527C18.2165 13.2318 18.8015 12.8822 19.35 12.4849C19.5682 12.3268 19.7806 12.1612 19.987 11.9885ZM19.7529 13.1811Q19.1229 13.6318 18.446 13.9952C18.2997 14.0738 18.1517 14.1493 18.0021 14.2218L18.9738 15.9007C19.0196 15.9796 19.0744 16.0487 19.1384 16.108C19.1994 16.1646 19.2687 16.2123 19.3463 16.2511L20.9518 17.0539L20.9518 15.4901C20.9518 15.4262 20.9452 15.3638 20.932 15.3028C20.9125 15.2133 20.8789 15.1269 20.8309 15.0436L19.7529 13.1811Z" fill="rgb(255,46,23)" fill-rule="evenodd" />
</svg>
