<svg viewBox="0 0 34.2793 36" xmlns="http://www.w3.org/2000/svg" xmlns:xlink="http://www.w3.org/1999/xlink" width="34.279297" height="36.000000" fill="none" customFrame="#000000">
	<g id="Black">
		<path id="Vector" d="M9.78644 27.522C9.60618 27.4643 8.97888 27.2192 8.38042 26.9668C7.14023 26.4404 6.76529 26.152 6.43362 25.4743C6.10194 24.7893 6.10915 24.3494 6.49851 22.9001L6.82298 21.6816L6.36872 21.2273L5.91447 20.7731L4.84012 21.0759C3.07358 21.559 2.3237 21.4869 1.53056 20.7587C1.1412 20.3981 1.0691 20.2756 0.492267 18.8695C-0.0196694 17.6366 -0.0845628 17.2472 0.0812758 16.5839C0.297587 15.7402 0.535529 15.4807 1.86224 14.6226L3.04474 13.8583L3.10242 13.5339C3.13126 13.3536 3.13126 13.0868 3.09521 12.9354C3.04474 12.6758 2.99427 12.6326 1.9776 12.0413C0.74463 11.3203 0.499478 11.104 0.225483 10.4983C0.0596447 10.1378 0.0235928 9.95753 0.0235928 9.48164C0.0235928 8.93365 0.045224 8.85434 0.521109 7.7151C0.787893 7.05896 1.09073 6.40281 1.19167 6.25861C1.50893 5.7683 2.17949 5.36452 2.86448 5.25636C3.23221 5.19868 3.38363 5.22031 4.24166 5.44383C5.99378 5.9053 5.84236 5.88367 6.12357 5.67456C6.26057 5.56641 6.46967 5.35731 6.59224 5.20589L6.81577 4.9319L6.49851 3.74218C6.15962 2.47316 6.11636 2.01169 6.28941 1.50697C6.57061 0.699406 7.30607 0 7.85406 0C8.26505 0 8.56068 0.310046 8.56068 0.728248C8.56068 1.00224 8.52462 1.06714 8.20016 1.36997C7.58007 1.93959 7.58007 1.98285 7.99106 3.53308C8.18574 4.26854 8.34437 4.96795 8.34437 5.09052C8.34437 5.68178 6.8374 7.26806 6.15241 7.39063C6.00099 7.41948 5.46743 7.31132 4.53729 7.06617C2.60491 6.55423 2.62654 6.54702 1.92713 8.23425C1.68919 8.81829 1.49451 9.38791 1.49451 9.49606C1.49451 9.95032 1.68919 10.1306 2.97264 10.8732C4.51566 11.7745 4.4796 11.7169 4.4796 13.195C4.4796 14.7957 4.5445 14.6875 3.03753 15.6609C2.33812 16.108 1.71803 16.5478 1.66035 16.6343C1.4152 17.0021 1.45846 17.2833 1.89829 18.3504C2.41023 19.5906 2.44628 19.6411 2.81401 19.8213L3.11684 19.9655L4.45076 19.6122C5.18622 19.4175 5.88563 19.2517 6.00099 19.2517C6.31825 19.2517 6.8374 19.5834 7.41423 20.153C7.99106 20.7154 8.34437 21.2706 8.34437 21.5951C8.34437 21.7176 8.18574 22.4098 7.98385 23.1453L7.63054 24.4792L7.76033 24.7676C7.83243 24.9263 7.93337 25.0921 7.99106 25.1354C8.04874 25.1858 8.5751 25.4238 9.17356 25.6689C10.3128 26.1376 10.5868 26.1809 10.9617 25.9357C11.0483 25.878 11.4376 25.2796 11.8342 24.609C12.2235 23.9384 12.6057 23.3472 12.6922 23.2967C13.1176 23.0227 15.4466 23.0299 15.8576 23.3039C15.9513 23.3616 16.3479 23.9745 16.7445 24.6595C17.7179 26.3539 17.7251 26.3539 19.3762 25.6617C20.5155 25.1858 20.6092 25.1282 20.7823 24.7532C20.9048 24.5009 20.8976 24.4792 20.5299 23.0371L20.1477 21.5734L20.328 21.1841C20.6813 20.4198 21.871 19.3454 22.4479 19.2805C22.6425 19.2589 23.1401 19.3599 24.063 19.605L25.3969 19.9583L25.6853 19.8357C26.0747 19.6627 26.154 19.5473 26.4712 18.747C26.7813 17.9755 27.0409 17.6654 27.387 17.6654C27.834 17.6654 28.1729 17.9899 28.1729 18.4153C28.1729 18.509 28.0071 18.9777 27.8052 19.4608C27.3725 20.4775 27.0481 20.8812 26.3847 21.1841C25.7214 21.4869 25.296 21.4797 23.962 21.1264C23.3347 20.9606 22.7867 20.8164 22.7363 20.7947C22.6858 20.7731 22.4406 20.9606 22.1955 21.2057C21.6691 21.7249 21.6763 21.5374 22.109 23.1958C22.3902 24.2629 22.4046 24.3927 22.3397 24.7604C22.2388 25.294 21.9576 25.8348 21.5754 26.2097C21.3158 26.4621 21.0346 26.6063 20.0108 27.0245C19.3258 27.3057 18.6119 27.5508 18.4317 27.5797C17.7755 27.6734 16.8238 27.3562 16.3839 26.9019C16.2686 26.7793 15.8936 26.1953 15.5547 25.6185C14.8553 24.4215 14.8337 24.3999 14.0261 24.4864L13.6151 24.5297L12.9446 25.6834C12.2235 26.9307 11.9712 27.2047 11.3078 27.4355C10.8464 27.5941 10.1686 27.6302 9.78644 27.522Z" fill="rgb(255,255,255)" fill-rule="nonzero" transform="matrix(1,0,0,-1,0,27.5961)" />
		<path id="Vector" d="M20.8335 24.7353C19.8817 24.0359 19.0598 23.3942 19.0165 23.3077C18.9011 23.0986 18.9228 22.6948 19.067 22.4785L19.1823 22.2982L17.012 20.1279C14.8561 17.972 14.8417 17.9576 14.7047 18.1018C14.5677 18.2388 14.5677 18.2676 14.6758 18.7147C14.8345 19.3708 14.8345 20.6254 14.6758 21.3248C14.4379 22.3343 13.9909 23.2356 13.3419 23.9927C12.7939 24.6344 12.3108 25.0093 11.5826 25.341C10.5804 25.8097 10.1549 25.889 8.69845 25.889L7.42221 25.889L7.2059 25.6799C7.01843 25.4996 6.98238 25.4059 6.98238 25.1391L6.98238 24.8075L8.3163 23.4735L9.65022 22.1396L9.54206 20.8417C9.47717 20.1279 9.41948 19.5439 9.41227 19.5367C9.40506 19.5295 8.81381 19.4718 8.10719 19.4069L6.80933 19.2915L5.4682 20.6254C4.1487 21.9305 4.11986 21.9594 3.82423 21.9594C3.42045 21.9594 3.1753 21.7935 3.09598 21.4618C2.90852 20.712 2.95178 19.3059 3.20414 18.3253C3.26182 18.0874 3.46371 17.5754 3.64397 17.2005C4.4299 15.571 6.34786 14.3091 8.35235 14.1073C8.96523 14.0424 9.82326 14.0856 10.3208 14.2082C10.4289 14.237 10.5731 14.237 10.638 14.201C10.7246 14.1649 10.6236 14.1289 10.3208 14.1C9.67185 14.0279 9.1527 13.7395 8.46771 13.0762C7.91252 12.5282 7.81157 12.4633 6.4416 11.7927L4.99952 11.0861L2.59126 8.51201C1.17081 6.98341 0.146942 5.82975 0.0820482 5.67112C-0.0621593 5.33223 -0.0116867 4.61119 0.197414 4.06321C0.557933 3.13307 1.58181 1.8352 2.52637 1.12137C3.65839 0.263338 4.75437 -0.133233 5.52588 0.0398164C5.86477 0.11192 6.00898 0.212865 6.82375 0.955534C8.53261 2.51297 10.7246 4.58956 10.9697 4.8924C11.1067 5.05824 11.5249 5.82975 11.8999 6.60126C12.5199 7.85586 12.6281 8.04333 12.9598 8.31733C13.4357 8.72111 13.926 9.42051 14.099 9.92524L14.2288 10.3362L17.5816 6.69499C21.057 2.91676 21.3959 2.59229 22.2828 2.21735C22.6938 2.0443 22.8236 2.02988 23.6744 2.02267C24.5829 2.02267 24.6262 2.02988 25.102 2.2534C26.436 2.88791 27.1714 4.40209 26.8614 5.89464C26.7244 6.57242 26.3855 7.27182 25.9529 7.76213C25.7798 7.96402 23.9484 9.67288 21.8862 11.562L18.144 14.9869L20.2278 17.0707L22.3116 19.1545L22.5712 19.0319C22.8885 18.8805 23.2634 18.9382 23.4797 19.1689C23.559 19.2555 24.1791 20.0414 24.8569 20.9139C26.0322 22.428 26.0899 22.5146 26.0899 22.8246L26.0899 23.1419L24.6622 24.5695L23.2346 25.9972L22.9029 25.9972C22.5928 25.9972 22.4919 25.9323 20.8335 24.7353ZM10.4938 24.1874C11.6547 23.8052 12.6065 22.8102 13.0968 21.4402C13.2626 20.9787 13.2842 20.8057 13.2842 20.0126C13.2842 19.2699 13.2554 19.0319 13.1256 18.6642C12.9093 18.0513 12.9165 17.7629 13.1689 17.4961C13.277 17.3808 15.4762 15.3619 18.0503 13.0113C20.6316 10.6607 23.1985 8.31733 23.7681 7.79818C24.3377 7.27903 24.9002 6.7022 25.0155 6.51473C25.7294 5.40433 25.4986 4.16415 24.4747 3.62337C23.8186 3.27727 22.7803 3.47917 22.0953 4.07763C21.9511 4.20741 19.4419 6.90409 16.5217 10.0694C10.5948 16.5011 11.0995 16.0396 10.2847 15.7656C8.20814 15.0518 5.59077 16.2415 4.80484 18.2604C4.7039 18.5344 4.59574 18.9166 4.5669 19.1113L4.51643 19.4718L5.37446 18.6282C6.13876 17.8711 6.26855 17.7773 6.48486 17.7773C6.62186 17.7845 7.54479 17.8567 8.54703 17.9504C10.4578 18.1234 10.6669 18.1739 10.7967 18.52C10.8832 18.7579 11.1788 22.4857 11.1211 22.6516C11.0923 22.7237 10.7101 23.1563 10.2703 23.6105L9.46996 24.4253L9.75837 24.382C9.917 24.3532 10.2487 24.2667 10.4938 24.1874ZM23.6095 23.524L24.3882 22.7813L23.6311 21.8007C22.8885 20.8417 22.8668 20.8273 22.6938 20.9211C22.4775 21.0364 22.2395 21.0508 22.0304 20.9427C21.9439 20.8994 20.783 19.7746 19.4419 18.4407L17.0192 16.0252L16.5073 16.4795C16.2261 16.7318 15.9953 16.9554 15.9953 16.977C15.9953 16.9986 17.113 18.1379 18.4829 19.5078L20.9705 22.0026L20.9705 22.3055C20.9705 22.4785 20.9417 22.6732 20.9056 22.7453C20.8407 22.8534 20.9777 22.976 21.7853 23.5673C22.3116 23.9494 22.7587 24.2595 22.7803 24.2667C22.8091 24.2667 23.1769 23.935 23.6095 23.524ZM12.6497 11.6413C12.3974 11.3457 12.3685 10.8626 12.5848 10.6246C12.7723 10.4155 12.6353 10.1704 11.8854 9.37725C11.1283 8.58411 11.0202 8.39664 10.2991 6.73104C10.0035 6.04606 9.98189 6.01722 8.97244 5.03661C7.29963 3.39985 5.17257 1.48189 5.04279 1.48189C4.84811 1.48189 4.03333 1.90009 3.55024 2.23898C2.95178 2.66439 2.24516 3.45753 1.87022 4.10647C1.32223 5.06545 1.1636 4.77703 3.72329 7.50255L5.9585 9.88198L6.63628 10.156C7.85483 10.6535 8.61913 11.1222 9.31133 11.7927C9.65743 12.1316 10.0612 12.4633 10.1982 12.5354C10.4506 12.6652 10.465 12.6652 10.602 12.5354C10.6957 12.4489 10.8616 12.4056 11.0634 12.4056C11.323 12.4056 11.4168 12.4489 11.6114 12.6436L11.8494 12.8815L12.3469 12.3696L12.8372 11.8648L12.6497 11.6413Z" fill="rgb(255,255,255)" fill-rule="nonzero" transform="matrix(1,0,0,-1,7.3457,36)" />
	</g>
</svg>
