<svg viewBox="0 0 18 12.6022" xmlns="http://www.w3.org/2000/svg" xmlns:xlink="http://www.w3.org/1999/xlink" width="18.000000" height="12.602173" fill="none" customFrame="#000000">
	<path id="Vector" d="M4.70733 5.76834L3.84222 5.45612C4.06123 5.22972 4.32332 5.03992 4.61905 4.90369C4.62626 4.90036 4.6335 4.89707 4.64076 4.89381C4.66388 4.88342 4.68719 4.87336 4.71071 4.86364C4.72302 4.85855 4.73539 4.85354 4.74782 4.84863L9.16334 3.11336C9.34009 3.04439 9.44745 2.87464 9.44745 2.69528C9.44745 2.64062 9.43748 2.58506 9.41646 2.53119C9.32646 2.30057 9.0649 2.18807 8.83428 2.27807L4.41876 4.01334C3.86753 4.2299 3.39785 4.58145 3.03505 5.01738C2.93465 5.1467 2.84284 5.28255 2.76022 5.42399C2.68192 5.55805 2.61188 5.69715 2.55064 5.84049C2.35613 6.29575 2.25038 6.79382 2.25038 7.30951L2.25038 8.00137C2.41912 8.37542 2.54006 8.78323 2.63006 9.18259C2.71099 9.53036 2.77999 9.94011 2.80942 10.3952C2.81012 10.4059 2.81079 10.4166 2.81143 10.4274C2.81973 10.565 2.82438 10.7067 2.82464 10.852L2.82466 10.8648C2.82466 11.2955 2.78598 11.7577 2.68912 12.2397C2.66662 12.3606 2.5935 12.4675 2.48944 12.5322C2.38538 12.5969 2.25882 12.6194 2.14069 12.5884L0.340737 12.1385C0.194491 12.1019 0.0763686 11.995 0.0257448 11.8516C0.0084316 11.8025 0 11.7518 0 11.7015C0 11.6047 0.0312119 11.5093 0.0904307 11.4297C0.3323 11.0979 0.54042 10.7379 0.723228 10.3722C1.04666 9.72258 1.3504 8.89854 1.3504 8.0998L1.3504 7.30951C1.3504 6.68881 1.47404 6.08939 1.7012 5.53957C1.80445 5.28969 1.92907 5.05005 2.0732 4.82332L1.30479 4.54595L0.444797 4.23552C0.177616 4.13709 0.000432897 3.88397 0.000432897 3.59991C0.000432897 3.31586 0.177616 3.06274 0.444797 2.9643L8.33367 0.11531C8.54741 0.039374 8.77241 0 9.00022 0C9.22802 0 9.45302 0.039374 9.66676 0.11531L17.5556 2.9643C17.8228 3.06274 18 3.31586 18 3.59991C18 3.88397 17.8228 4.1399 17.5556 4.23552L9.66395 7.07608C9.45021 7.15202 9.22521 7.19139 8.9974 7.19139C8.7696 7.19139 8.5446 7.15202 8.33086 7.07608L4.70733 5.76834ZM5.7768 5.30381L8.60244 6.32359C8.65782 6.34326 8.71405 6.35865 8.7711 6.36977C8.84513 6.38418 8.92057 6.39139 8.9974 6.39139Q9.07802 6.39139 9.15717 6.3806L9.15738 6.38057C9.23812 6.36955 9.3177 6.3501 9.39614 6.32224L16.9599 3.59971L9.39503 0.867746C9.3406 0.848414 9.28537 0.83322 9.22931 0.822163L9.22922 0.822145L9.22916 0.822134Q9.11687 0.8 9.00022 0.8Q8.91957 0.8 8.84039 0.810799L8.84026 0.810817C8.7601 0.821759 8.68108 0.841002 8.60319 0.868546L8.60149 0.869161L1.04008 3.59989L2.70014 4.19911Q2.97669 3.92363 3.29369 3.70747L3.2937 3.70746Q3.67994 3.44407 4.12624 3.26874L8.54167 1.5335Q8.78565 1.43829 9.02732 1.44384C9.18434 1.44744 9.34063 1.48295 9.49619 1.55035C9.65611 1.61965 9.79172 1.71228 9.90301 1.82825L9.90306 1.8283Q10.068 2.00017 10.1617 2.24035Q10.2512 2.46961 10.2512 2.69722Q10.2512 2.70788 10.251 2.71854L10.251 2.71858C10.2481 2.87736 10.2125 3.03553 10.1442 3.19309Q10.0402 3.43297 9.86628 3.59992C9.75169 3.70989 9.61432 3.79613 9.45417 3.85862L5.7768 5.30381ZM4.03065 6.48547L4.80559 6.76558L8.02993 7.93106C8.33929 8.04356 8.67116 8.0998 9.00022 8.0998C9.32927 8.0998 9.65833 8.04356 9.97051 7.93106L13.1948 6.76558L13.9698 6.48547L14.056 7.30496L14.4001 10.5747C14.4001 11.5675 11.9814 12.5997 9.00022 12.5997C6.20102 12.5997 3.89773 11.6897 3.62696 10.7567C3.60936 10.6961 3.60035 10.6353 3.60035 10.5747L3.6157 10.4289L3.94442 7.30496L4.03065 6.48547ZM4.71936 7.58507L4.40702 10.5533C4.43491 10.5971 4.48195 10.6476 4.54814 10.7049C4.75597 10.8846 5.06448 11.0545 5.47367 11.2144Q6.97044 11.7997 9.00022 11.7997C10.3534 11.7997 11.5289 11.6046 12.5268 11.2144C12.936 11.0545 13.2445 10.8846 13.4523 10.7049C13.5185 10.6476 13.5655 10.5971 13.5934 10.5533L13.2811 7.58507L10.2425 8.68342Q9.96996 8.78161 9.68897 8.83525L9.68883 8.83527Q9.35068 8.89981 9.00022 8.89981C8.71506 8.89981 8.43729 8.86822 8.16689 8.80506C8.02816 8.77265 7.89138 8.73193 7.75653 8.68289L4.71936 7.58507ZM2.01309 11.2584L2.0131 11.2582Q2.02596 11.0581 2.02596 10.8573Q2.02596 10.2327 1.90158 9.60007Q1.72979 10.1455 1.43939 10.7288C1.30396 10.9996 1.16366 11.2511 1.0185 11.4833L1.96609 11.7202C1.9875 11.5666 2.00316 11.4127 2.01309 11.2584ZM2.33472 11.8123C2.33174 11.8116 2.32874 11.8108 2.32574 11.8101L2.33472 11.8123ZM0.742015 11.8939C0.740326 11.8963 0.738636 11.8986 0.736946 11.9009C0.738673 11.8986 0.740363 11.8963 0.742015 11.8939ZM1.90485 12.0822C1.90406 12.0859 1.90331 12.0896 1.90261 12.0934C1.90336 12.0897 1.90411 12.0859 1.90485 12.0822Z" fill="rgb(67,69,75)" fill-rule="evenodd" />
</svg>
