<svg viewBox="0 0 235.774 100.028" xmlns="http://www.w3.org/2000/svg" xmlns:xlink="http://www.w3.org/1999/xlink" width="235.774414" height="100.028320" fill="none" customFrame="#000000">
	<g id="Group 231">
		<path id="Polygon 52" d="M34.6509 0L69.3018 20.0057L69.3018 60.0171L34.6509 80.0228L0 60.0171L0 20.0057L34.6509 0ZM68.3018 59.4397L68.3018 20.583L34.6509 1.1547L1 20.583L1 59.4397L34.6509 78.8681L68.3018 59.4397Z" fill="rgb(255,46,23)" fill-rule="evenodd" transform="matrix(-0.5,0.866025,-0.866025,-0.5,103.953,40.0117)" />
		<path id="Polygon 51" d="M20.4575 0L40.9149 11.8111L40.9149 35.4334L20.4575 47.2445L0 35.4334L0 11.8111L20.4575 0ZM39.9149 34.856L39.9149 12.3885L20.4575 1.1547L1 12.3885L1 34.856L20.4575 46.0898L39.9149 34.856Z" fill="rgb(255,46,23)" fill-rule="evenodd" transform="matrix(0.5,-0.866025,-0.866025,-0.5,165.093,79.542)" />
		<path id="Polygon 50" d="M10 0L20 5.7735L20 17.3205L10 23.094L0 17.3205L0 5.7735L10 0ZM19 16.7432L19 6.35085L10 1.1547L1 6.35085L1 16.7432L10 21.9393L19 16.7432Z" fill="rgb(255,46,23)" fill-rule="evenodd" transform="matrix(0.5,-0.866025,-0.866025,-0.5,225.775,64.4482)" />
	</g>
</svg>
