<svg viewBox="0 0 150 47.2765" xmlns="http://www.w3.org/2000/svg" xmlns:xlink="http://www.w3.org/1999/xlink" width="150.000000" height="47.276489" fill="none" customFrame="#000000">
	<g id="logo-1753113104-www.pridelogo.com">
		<path id="Vector" d="M75.3348 47.2765C70.6877 47.2569 66.3969 46.6981 62.1633 45.6719C56.9182 44.4007 51.9215 42.4579 47.0915 40.0707C43.5441 38.3174 40.134 36.3223 36.7729 34.2374C36.0523 33.7896 35.335 33.3354 34.6177 32.8795C34.4951 32.8011 34.3726 32.7178 34.268 32.6181C34.0147 32.373 33.9755 32.0037 34.1585 31.7063C34.3187 31.4449 34.683 31.3093 34.9968 31.4187C35.1455 31.4694 35.286 31.5511 35.4216 31.6344C39.6193 34.2014 44.0964 36.1524 48.75 37.7194C52.5539 39.0004 56.4378 39.9612 60.3904 40.6523C63.0309 41.1148 65.6894 41.4416 68.3626 41.6523C71.7269 41.9187 75.0929 41.9873 78.4638 41.8582C81.7007 41.734 84.9197 41.4268 88.1223 40.9301C92.4834 40.2553 96.7644 39.252 100.96 37.886C104.701 36.6687 108.326 35.1736 111.808 33.3354C112.782 32.8207 113.735 32.27 114.684 31.7112C114.856 31.6099 115.031 31.5135 115.214 31.4383C115.55 31.3011 115.877 31.4171 116.073 31.7243C116.25 32.0004 116.215 32.3632 115.975 32.6017C115.862 32.7128 115.732 32.806 115.598 32.891C112.122 35.0919 108.612 37.2341 104.965 39.1409C100.594 41.4268 96.0797 43.3647 91.3494 44.783C88.2318 45.7177 85.0618 46.4105 81.8315 46.8271C79.5782 47.118 77.3168 47.2585 75.3364 47.2765L75.3348 47.2765Z" fill="rgb(133,135,139)" fill-rule="nonzero" />
		<path id="Vector" d="M149.909 11.0869C149.704 8.94317 149.071 6.93991 147.976 5.07718C146.754 2.99876 145.032 1.54942 142.73 0.809227C140.45 0.0772048 138.124 -0.0502455 135.769 0.30106C132.738 0.752037 130.233 2.18013 128.303 4.5494C126.169 7.1703 125.379 10.2667 125.285 13.5837C125.256 13.9137 125.148 14.2176 125.601 14.4317C125.932 14.5886 126.308 14.5804 126.601 14.7634C127.026 15.0265 127.517 15.1163 127.964 15.2421C128.691 15.4464 129.351 15.8026 130.06 16.0363C130.416 16.1539 130.874 16.1768 131.142 16.5412C131.173 16.582 131.217 16.5101 131.197 16.4513C131.316 16.3222 131.472 16.3778 131.611 16.3778C133.839 16.3745 136.07 16.3778 138.298 16.3778C141.975 16.3778 145.65 16.3778 149.326 16.3778C149.687 16.3778 149.7 16.4333 149.767 16.0052C150.021 14.3696 150.066 12.7307 149.908 11.0853L149.909 11.0869ZM144.501 11.7209C144.421 11.7177 144.343 11.7209 144.262 11.7209L131.968 11.7209C131.875 11.7209 131.782 11.7242 131.689 11.7209C131.432 11.7095 131.416 11.6964 131.447 11.4415C131.818 8.4252 134.272 5.80266 136.988 5.24711C139.364 4.76018 142.315 5.72096 143.793 8.35984C144.343 9.33859 144.604 10.3974 144.697 11.5069C144.71 11.6637 144.655 11.7291 144.501 11.7226L144.501 11.7209Z" fill="rgb(133,135,139)" fill-rule="nonzero" />
		<path id="Vector" d="M23.4411 11.6609C23.1421 11.4452 22.8659 11.5449 22.5849 11.6756C22.4264 11.7491 22.2646 11.8014 22.0898 11.7981C21.7009 11.7883 21.3267 11.8324 20.9868 12.0481C20.8725 12.12 20.7336 12.1216 20.6012 12.1184C20.2777 12.1086 19.9819 12.2638 19.6846 12.2998C19.0882 12.3733 18.4493 12.7442 17.8741 12.2491C17.8594 12.236 17.8463 12.223 17.8316 12.2099C17.8284 12.2082 17.8251 12.205 17.8218 12.2017C17.7287 12.0824 17.7025 11.9386 17.6699 11.7965C16.964 8.75075 15.0245 6.86187 12.1078 5.9109C11.0032 5.54979 9.86435 5.39456 8.69933 5.42724C8.00979 5.44685 7.32025 5.42888 6.63071 5.43214C6.47712 5.43214 6.31535 5.40437 6.18627 5.51711C6.183 5.51874 6.18137 5.52201 6.1781 5.52528C6.06699 5.68214 6.11274 5.86188 6.11274 6.03018C6.10947 9.01546 6.10784 11.9991 6.11274 14.9844C6.11274 15.1756 6.10784 15.3602 6.05228 15.5269C6.00817 15.6592 5.93464 15.7818 5.80719 15.888C5.75653 15.9304 5.71242 15.9925 5.70425 16.0563C5.64052 16.6233 5.18138 16.7474 4.75654 16.8798C4.10949 17.0791 3.50328 17.3749 2.89871 17.6674C2.4461 17.8863 1.99348 18.1069 1.54578 18.3357C1.35297 18.4337 1.22225 18.388 1.1046 18.2229C1.03107 18.12 0.975517 17.9697 0.799047 18.0448C0.457546 18.1919 0.462448 17.9762 0.462448 17.7376C0.464082 14.9778 0.465716 12.2197 0.462448 9.4599C0.462448 9.22297 0.498396 8.98441 0.431402 8.74912C0.397089 7.29161 0.377481 5.83247 0.32356 4.37496C0.28271 3.25078 0.276175 2.12171 0.029444 1.01387C-0.0310132 0.742628 -0.0179414 0.73936 0.258201 0.696877C1.91342 0.448512 3.57517 0.304722 5.24347 0.203415C6.52941 0.124985 7.81371 0.102109 9.09965 0.159298C11.3186 0.257337 13.513 0.538381 15.6143 1.29491C18.4607 2.31942 20.7123 4.08738 22.2156 6.74096C22.9901 8.1086 23.3986 9.59879 23.5947 11.1527C23.6094 11.2703 23.6045 11.3896 23.6094 11.5089C23.6126 11.5187 23.6159 11.5285 23.6175 11.54C23.6568 11.6952 23.5767 11.7556 23.4427 11.6592L23.4411 11.6609Z" fill="rgb(133,135,139)" fill-rule="nonzero" />
		<path id="Vector" d="M117.985 13.2535C118.093 13.4006 118.201 13.5476 118.366 13.7699C118.369 13.5329 118.374 13.3712 118.374 13.2078C118.374 9.25354 118.374 5.29932 118.377 1.34509C118.377 1.21111 118.3 1.05424 118.444 0.939866C118.609 1.13104 118.57 1.3647 118.57 1.58692C118.573 4.95618 118.572 8.32544 118.57 11.6947C118.57 11.9757 118.578 12.2405 118.789 12.4741C118.996 12.7078 119.233 12.7911 119.537 12.8516C120.227 12.9905 120.933 13.0378 121.594 13.3565C121.995 13.5476 122.457 13.6996 122.924 13.7078C123.286 13.7143 123.607 13.778 123.841 14.095C123.929 13.9202 123.893 13.7584 123.893 13.6032C123.895 9.60975 123.893 5.61794 123.897 1.6245C123.897 1.39084 123.851 1.14248 124.024 0.938232C124.083 0.95784 124.101 1.00196 124.101 1.05915C124.101 1.16536 124.101 1.27156 124.101 1.37777C124.099 9.88263 124.096 18.3891 124.094 26.894C124.094 26.961 124.088 27.028 124.094 27.0933C124.114 27.2812 124.039 27.3597 123.846 27.3515C123.501 27.3384 123.156 27.3368 122.812 27.3335C121.658 27.3253 120.503 27.3172 119.349 27.3106C118.892 27.3074 118.983 27.3368 118.854 26.9593C117.853 24.0378 116.56 21.2535 114.947 18.6179C113.558 16.3466 111.957 14.2372 110.145 12.2878C110.065 12.2012 109.967 12.1277 109.924 12.0117C109.92 11.9643 109.893 11.9382 109.846 11.93C109.769 11.9006 109.717 11.8483 109.692 11.7699C109.657 11.698 109.598 11.6441 109.547 11.582C109.503 11.528 109.475 11.4676 109.513 11.4006C109.558 11.3205 109.645 11.2944 109.719 11.3238C110.335 11.5754 111.023 11.4594 111.619 11.6424C112.134 11.8009 112.625 11.9006 113.152 11.912C113.274 11.9137 113.382 11.9692 113.483 12.0346C113.55 12.0771 113.619 12.1522 113.689 12.1473C114.375 12.1081 114.957 12.5836 115.643 12.5362C115.941 12.515 116.225 12.5558 116.472 12.7437C116.524 12.7829 116.594 12.8238 116.655 12.8123C117.147 12.7208 117.524 12.9284 117.866 13.2486C117.892 13.2731 117.942 13.2584 117.982 13.2535L117.985 13.2535Z" fill="rgb(133,135,139)" fill-rule="nonzero" />
		<path id="Vector" />
		<path id="Vector" d="M47.109 20.6878C46.9096 20.7565 46.7691 20.5702 46.5828 20.5686C46.2005 20.5653 45.8132 20.5081 45.4783 20.7646C45.4652 20.7744 45.4619 20.7793 45.4619 20.7826C45.4587 20.7826 45.4538 20.7826 45.444 20.7826C44.8051 20.7892 44.2593 21.2074 43.6188 21.1993C43.3868 21.196 43.1744 21.2418 42.9816 21.3757C42.895 21.4362 42.7953 21.4901 42.6891 21.4901C42.2463 21.4934 41.8263 21.5767 41.4423 21.8088C41.3966 21.8365 41.3394 21.8235 41.2888 21.8022C41.2593 21.6584 41.1973 21.5571 41.024 21.5735C40.9325 21.5833 40.8394 21.5735 40.7463 21.5735C37.0469 21.5735 33.3493 21.5735 29.6499 21.5767C29.5976 21.5767 29.5437 21.5816 29.4914 21.5767C29.2823 21.5506 29.1957 21.6307 29.1581 21.8496C28.9326 23.1421 28.7512 24.4395 28.6156 25.745C28.5715 26.1666 28.5388 26.5898 28.4931 27.0113C28.462 27.3071 28.4555 27.312 28.1646 27.312C27.4228 27.3136 26.6794 27.312 25.9375 27.312C24.9163 27.312 23.8951 27.3136 22.8755 27.312C22.5617 27.312 22.5503 27.3055 22.5764 27.0146C22.7496 25.1813 22.9882 23.3561 23.315 21.5424C23.3199 21.5179 23.3411 21.4967 23.3542 21.4754C23.7709 21.2483 24.2333 21.1192 24.6238 20.8333C24.8656 20.6568 25.1434 20.5506 25.4637 20.5097C25.8395 20.4607 26.1303 20.1519 26.498 20.0343C26.5846 20.0065 26.6565 19.9133 26.7447 19.9117C27.4081 19.8986 27.9179 19.4558 28.5225 19.2843C28.6793 19.2401 28.8346 19.2205 28.9931 19.2189C29.1695 19.2156 29.3248 19.1584 29.48 19.0702C29.9424 18.8055 30.4244 18.5915 30.9702 18.5816C31.0764 18.58 31.1989 18.5898 31.2774 18.5196C31.5731 18.2581 31.944 18.2401 32.2986 18.1372C32.6989 18.0228 33.0878 17.9264 33.5028 17.9379C33.5682 17.9379 33.6499 17.9411 33.6957 17.9019C34.1254 17.5392 34.7038 17.6094 35.1809 17.3888C35.3427 17.3137 35.5159 17.3071 35.6875 17.3104C35.9195 17.3153 36.1336 17.2679 36.3313 17.1388C36.4424 17.0653 36.5698 16.9967 36.7022 17.0081C37.3623 17.0686 37.9914 16.8349 38.6384 16.781C36.0028 16.866 33.3656 16.8071 30.73 16.8202C30.4457 16.8202 30.3967 16.8088 30.3493 16.6748C30.3444 16.6601 30.3395 16.6438 30.3329 16.6258C30.3297 16.616 30.3264 16.6045 30.3231 16.5931C30.3231 16.5931 30.3231 16.5915 30.3231 16.5898C30.3248 16.5898 30.3264 16.5882 30.3297 16.5866C30.5372 16.4706 30.7643 16.5081 30.9849 16.5065C33.7153 16.5049 36.4473 16.5065 39.1777 16.5065C39.2839 16.5065 39.3901 16.5098 39.4963 16.5065C39.8688 16.4918 39.9031 16.4362 39.8067 16.0686C39.7005 15.6617 39.4277 15.3023 39.4718 14.8545C39.4832 14.8366 39.4946 14.8186 39.5061 14.8006C39.5094 14.7957 39.5143 14.7908 39.5175 14.7843C39.6842 14.5686 39.9375 14.5278 40.1907 14.5327C40.7659 14.5474 41.3231 14.4869 41.8639 14.281C42.0894 14.1961 42.3312 14.2157 42.5698 14.2271C42.993 14.2467 43.4097 14.2206 43.8149 14.0588C44.109 13.9412 44.4293 13.8709 44.7463 13.9215C44.9701 13.9575 45.1629 13.9215 45.3525 13.8186C45.627 14.464 45.7904 15.1454 45.9864 15.8153C46.2806 16.817 46.5208 17.8333 46.7544 18.8496C46.7724 18.9264 46.7708 19.0065 46.7789 19.0849C46.8328 19.1601 46.7855 19.2614 46.841 19.3365C46.8475 19.3839 46.8541 19.4313 46.8606 19.4787C46.9113 19.5571 46.8639 19.6601 46.9243 19.7352C46.9407 19.7581 46.9439 19.7843 46.9358 19.8104C46.939 19.8153 46.9423 19.8202 46.9456 19.8251C47.0044 19.9199 46.9325 20.0424 47.006 20.1339C47.0126 20.178 47.0175 20.2222 47.024 20.2663C47.0681 20.3496 47.0257 20.4526 47.0861 20.5326C47.0943 20.5849 47.1024 20.6388 47.1106 20.6911L47.109 20.6878Z" fill="rgb(133,135,139)" fill-rule="nonzero" />
		<path id="Vector" d="M117.984 13.2534C117.916 13.371 117.821 13.3841 117.721 13.3024C117.63 13.2272 117.551 13.1341 117.462 13.0589C117.303 12.9266 117.136 12.8367 116.919 12.9282C116.715 13.0132 116.514 12.9641 116.367 12.8187C116.207 12.6602 116.027 12.6374 115.824 12.6439C115.627 12.6504 115.427 12.639 115.23 12.6472C115.048 12.6537 114.878 12.6145 114.756 12.487C114.609 12.3351 114.439 12.3187 114.249 12.3269C113.929 12.3416 113.612 12.353 113.37 12.0785C113.305 12.005 113.203 12.0083 113.11 12.0083C112.913 12.0083 112.713 12.0034 112.516 12.0083C112.249 12.0148 111.984 12.0311 111.8 11.7779C111.731 11.6847 111.615 11.688 111.507 11.688C111.349 11.688 111.19 11.6847 111.032 11.688C110.574 11.6994 110.135 11.6292 109.731 11.3972C109.684 11.3694 109.627 11.3628 109.584 11.4053C109.538 11.4511 109.568 11.4952 109.592 11.5459C109.627 11.6177 109.779 11.6374 109.695 11.7648C109.135 11.224 108.578 10.6798 108.012 10.1423C107.738 9.88246 107.45 9.63573 107.109 9.32691C107.096 10.3024 107.083 11.1945 107.071 12.0867C106.921 12.1439 106.8 12.0573 106.715 11.9674C106.288 11.5197 105.748 11.5164 105.197 11.5704C104.939 11.5949 104.7 11.6341 104.506 11.4037C104.426 11.3089 104.288 11.3187 104.169 11.3171C103.878 11.3155 103.584 11.2991 103.295 11.322C102.989 11.3465 102.744 11.2534 102.478 11.1014C102.083 10.8743 101.641 10.7256 101.164 10.8122C101.158 10.6929 101.146 10.5753 101.146 10.456C101.143 7.42006 101.14 4.38413 101.14 1.34656C101.14 0.848201 101.094 0.908658 101.591 0.907024C102.97 0.90539 104.349 0.916828 105.728 0.898854C106.068 0.893952 106.334 0.993625 106.602 1.18807C107.934 2.15865 109.158 3.25505 110.334 4.40537C111.623 5.66517 112.944 6.89719 114.141 8.24685C115.071 9.29423 115.976 10.3661 116.788 11.5115C117.022 11.8416 117.257 12.17 117.491 12.4985C117.475 12.6864 117.656 12.7501 117.734 12.8775C117.815 13.005 117.878 13.1422 117.991 13.2468L117.984 13.2534Z" fill="rgb(133,135,139)" fill-rule="nonzero" />
		<path id="Vector" d="M96.06 24.0312C95.743 24.4315 95.3754 24.7795 94.9587 25.0769C94.9081 25.0753 94.8803 25.1014 94.8689 25.1488C94.2529 25.7419 93.5355 26.1929 92.7953 26.608C90.498 27.8939 88.029 28.4445 85.4065 28.2305C82.7676 28.0148 80.418 27.041 78.3575 25.3808C76.5994 23.9642 75.2824 22.2077 74.3592 20.1521C74.3118 20.0443 74.2464 19.9413 74.2432 19.8171C74.3445 19.7567 74.4539 19.7681 74.552 19.8057C75.3069 20.1064 76.0618 19.9854 76.8183 19.8204C77.0961 19.76 77.3494 19.7714 77.4882 20.0818C77.5356 20.1864 77.6353 20.2452 77.7464 20.2436C78.1435 20.2371 78.534 20.3073 78.9327 20.3024C79.5013 20.2959 80.0748 20.1456 80.6435 20.2959C80.6614 20.3008 80.6778 20.3057 80.6957 20.3106C80.9261 20.3743 81.0667 20.559 81.2252 20.7158C82.3314 21.8041 83.6336 22.5377 85.1647 22.8171C87.0176 23.157 88.7398 22.8024 90.3329 21.791C90.5797 21.6341 90.7709 21.3531 91.1173 21.3825C91.2251 21.5655 91.413 21.5867 91.5878 21.6684C92.0192 21.8711 92.511 21.8809 92.9195 22.1276C93.011 22.1831 93.1058 22.2469 93.212 22.242C93.6826 22.2207 94.0176 22.5459 94.4179 22.7044C94.8542 22.8776 95.2218 23.2125 95.7234 23.2305C95.8934 23.2371 95.9849 23.3514 95.9979 23.5181C96.011 23.6897 96.0551 23.858 96.0568 24.0312L96.06 24.0312Z" fill="rgb(133,135,139)" fill-rule="nonzero" />
		<path id="Vector" d="M125.284 13.5831C125.289 13.6746 125.301 13.7677 125.299 13.8592C125.296 14.0651 125.317 14.1697 125.575 14.2743C125.899 14.4034 126.178 14.6207 126.554 14.5668C126.823 14.8347 127.152 14.923 127.521 14.8903C127.784 15.1746 128.126 15.2253 128.488 15.2154C128.521 15.2154 128.557 15.2514 128.59 15.2726C128.611 15.2873 128.626 15.3135 128.649 15.3249C129.044 15.5373 129.452 15.722 129.889 15.8217C130.034 15.856 130.171 15.8707 130.271 15.9916C130.382 16.1288 130.531 16.1664 130.698 16.1468C130.943 16.119 131.108 16.1926 131.127 16.4671C131.127 16.4703 131.152 16.4752 131.163 16.472C131.175 16.4687 131.184 16.4573 131.196 16.4491C131.325 16.9328 131.443 17.4197 131.588 17.8984C131.871 18.8265 132.26 19.7073 132.833 20.4981C133.949 22.0406 135.495 22.8281 137.351 23.0716C137.48 23.0879 137.617 23.0618 137.735 23.1435C138.374 23.4997 138.814 24.0357 139.103 24.6974C139.209 24.9392 139.332 25.1811 139.467 25.3968C139.707 25.7824 139.748 26.1843 139.745 26.6092C139.745 26.8526 139.776 27.0814 139.933 27.2807C140.01 27.3771 140.046 27.4997 140.015 27.619C139.959 27.8314 140.052 27.9735 140.199 28.101C139.698 28.2431 139.18 28.2497 138.666 28.2938C136.964 28.4376 135.276 28.3559 133.617 27.9033C131.039 27.199 129.104 25.6255 127.608 23.4589C126.407 21.7203 125.756 19.7742 125.456 17.6991C125.281 16.4899 125.216 15.2726 125.232 14.0504C125.234 13.8936 125.216 13.7318 125.281 13.5798L125.284 13.5831Z" fill="rgb(133,135,139)" fill-rule="nonzero" />
		<path id="Vector" d="M98.2135 7.24159C98.1547 7.47198 97.9619 7.49159 97.8099 7.41969C97.3262 7.19584 96.8213 7.28244 96.323 7.271C96.0158 7.26447 95.7249 7.23996 95.4374 7.1027C95.1498 6.96381 94.823 6.95401 94.5044 6.94911C93.9096 6.94094 93.3132 6.94257 92.7184 6.93114C92.2184 6.92133 91.7756 6.68931 91.2838 6.65172C91.0583 6.63539 90.8312 6.59617 90.6024 6.59944C90.5812 6.59944 90.5583 6.59944 90.5371 6.59944C90.5224 6.59944 90.5077 6.59617 90.4946 6.5929C90.3508 6.56676 90.225 6.4965 90.0992 6.42624C87.4358 4.95239 84.8394 5.10762 82.3035 6.74323C82.1695 6.82983 82.0535 6.95238 81.8835 6.96545C81.8721 6.96545 81.8606 6.96545 81.8492 6.96545C81.8443 6.96545 81.8394 6.96218 81.8345 6.96055C81.2561 6.79225 80.6597 6.71055 80.0665 6.64029C78.9228 6.50467 77.7708 6.54878 76.6205 6.55205C76.3166 6.55205 76.0143 6.51447 75.7087 6.51284C75.5894 6.51284 75.4244 6.54061 75.4293 6.32983C75.6319 5.85108 75.9685 5.45892 76.2937 5.07003C77.292 3.87233 78.4293 2.82168 79.761 1.99489C81.9113 0.664831 84.2479 -0.0361454 86.7806 0.00143606C89.9864 0.0520894 92.8001 1.173 95.1743 3.31678C96.0877 4.14194 96.9096 5.07657 97.573 6.13049C97.8001 6.49323 98.0109 6.86414 98.2151 7.23832L98.2135 7.24159Z" fill="rgb(133,135,139)" fill-rule="nonzero" />
		<path id="Vector" d="M42.2911 7.99527C41.8418 8.15703 41.399 8.42337 40.8843 8.2469C40.1245 8.55409 39.2715 8.17011 38.5232 8.57207C38.4545 8.60965 38.3679 8.62272 38.2911 8.61128C37.7977 8.53448 37.3026 8.54592 36.8075 8.5835C36.801 8.58024 36.7944 8.5786 36.7895 8.57533C36.7715 8.56716 36.7536 8.55736 36.7356 8.54592C36.5477 8.43154 36.4676 8.2273 36.3614 8.04593C35.9546 7.34985 35.5542 6.65051 35.0886 5.97731C35.0886 6.13254 35.0036 6.23875 34.935 6.34822C34.6065 6.876 34.2748 7.40214 33.9758 7.94625C33.9121 8.06063 33.8402 8.16847 33.7209 8.22566C33.7062 8.2322 33.6915 8.23873 33.6752 8.24364C33.6621 8.24854 33.649 8.25181 33.6343 8.25507C33.2275 8.21586 32.8271 8.09985 32.4121 8.14233C32.252 8.15867 32.0869 8.15704 31.9758 8.29266C31.7765 8.53775 31.5347 8.52141 31.2552 8.46259C30.6866 8.34167 30.1245 8.33187 29.6392 8.7371C29.5559 8.80736 29.4497 8.84984 29.3435 8.83514C28.8696 8.76978 28.386 8.8237 27.9187 8.72893C27.7291 8.68971 27.4366 8.67991 27.4987 8.33514C27.5396 8.08351 27.6899 7.87926 27.8059 7.66031C29.0445 5.30901 30.515 3.11785 32.3108 1.15054C32.4644 0.98224 32.6229 0.903809 32.8565 0.903809C34.5281 0.913612 36.1997 0.911978 37.8712 0.903809C38.0918 0.903809 38.2356 0.972436 38.3794 1.13747C39.5542 2.47733 40.6179 3.89889 41.5379 5.42339C41.9267 6.06881 42.2699 6.74201 42.6326 7.40214C42.7993 7.75834 42.533 7.90377 42.2928 7.99037L42.2911 7.99527Z" fill="rgb(133,135,139)" fill-rule="nonzero" />
		<path id="Vector" d="M10.2858 23.3637C10.2221 23.5352 10.2401 23.7525 10.0963 23.8784C9.59791 24.3114 9.3283 24.9143 8.91981 25.4127C8.81523 25.5401 8.7417 25.6725 8.73353 25.8391C8.72536 26.0123 8.70085 26.1904 8.59955 26.331C8.43125 26.5613 8.4002 26.8162 8.41817 27.0859C8.43942 27.4159 8.3087 27.7068 8.19922 28.0058C8.14693 28.1479 8.03909 28.2051 7.91164 28.2492C6.65021 28.3015 5.39205 28.259 4.13552 28.1708C2.87899 28.0809 1.62736 27.9551 0.388809 27.7182C0.0963272 27.6626 0.0963272 27.6577 0.125739 27.3571C0.320182 25.3881 0.398613 23.4143 0.408417 21.4388C0.429659 17.313 0.460704 13.1872 0.418221 9.06145C0.418221 8.95524 0.428025 8.85066 0.434561 8.74445C0.558743 8.88171 0.501554 9.04837 0.503188 9.20197C0.50809 11.9601 0.508089 14.7199 0.509723 17.4781C0.509723 17.5712 0.504822 17.6643 0.509723 17.7558C0.516259 17.8424 0.46724 17.9617 0.571815 18.0058C0.691095 18.0565 0.710703 17.9225 0.769526 17.8604C0.895342 17.7297 1.00972 17.7493 1.10449 17.9241C1.17802 18.0598 1.17802 18.2362 1.32508 18.331C1.71887 18.0728 2.14043 17.8882 2.57507 17.7248C2.64533 17.6987 2.70416 17.6366 2.76625 17.5875C2.81853 17.5467 2.86755 17.4634 2.91657 17.4634C3.18781 17.4666 3.36592 17.2607 3.59467 17.179C3.82506 17.0973 4.08323 17.0859 4.2499 16.867C4.27114 16.8392 4.32343 16.813 4.35611 16.8179C4.71885 16.8702 4.98029 16.5777 5.31689 16.5385C5.45904 16.5222 5.52277 16.4258 5.5195 16.2885C5.51296 16.014 5.60937 15.7967 5.8561 15.6594C5.96231 15.599 5.99335 15.5059 5.99335 15.3931C5.99335 15.2869 5.99335 15.1807 5.99335 15.0745C5.99499 11.9699 5.99662 8.867 6.00316 5.76244C6.00316 5.61702 5.92636 5.44055 6.09793 5.32617C6.14531 5.38499 6.17309 5.44709 6.1878 5.51081C6.21557 5.62356 6.20577 5.74284 6.20577 5.85885C6.2074 9.83758 6.24662 13.8163 6.18616 17.7951C6.16329 19.2918 6.14858 20.7901 6.12897 22.2869C6.12244 22.8849 6.14531 22.88 6.74171 22.9617C7.6453 23.0842 8.54072 23.0107 9.43778 22.911C9.60935 22.8931 9.77928 22.8653 9.95248 22.8735C10.0048 22.8735 10.0522 22.88 10.0946 22.8882C10.142 22.898 10.1829 22.911 10.2172 22.9323C10.3397 23.0025 10.3659 23.1398 10.2842 23.3587L10.2858 23.3637Z" fill="rgb(133,135,139)" fill-rule="nonzero" />
		<path id="Vector" d="M23.3499 17.0263C23.1686 18.0933 22.814 19.1063 22.3271 20.0671C20.9202 22.8481 18.8107 24.9282 16.0068 26.2909C13.5265 27.4968 10.8974 28.1161 8.14904 28.2566C8.07061 28.2615 7.99054 28.2517 7.91211 28.2501C8.14904 27.956 8.26832 27.6145 8.30753 27.2452C8.32224 27.1014 8.30917 26.9543 8.30917 26.8089C8.30917 26.639 8.29446 26.4772 8.47093 26.3514C8.58531 26.2697 8.63433 26.0883 8.61635 25.956C8.56407 25.5851 8.78629 25.371 9.01504 25.1553C9.09674 25.0785 9.1572 24.9952 9.17844 24.8906C9.2389 24.5867 9.45949 24.3988 9.66047 24.1945C9.89576 23.956 10.1997 23.7566 10.1523 23.3498C10.1474 23.3057 10.1866 23.2517 10.2144 23.2092C10.3614 22.9805 10.167 23.0181 10.0494 22.9936C10.0592 22.9511 10.0755 22.9184 10.0951 22.8939C10.1735 22.7942 10.319 22.8187 10.4317 22.7975C11.7634 22.5393 13.0461 22.1406 14.2242 21.4544C14.9398 21.0377 15.5477 20.4936 16.0836 19.8661C16.1604 19.7746 16.2323 19.6799 16.3353 19.6161C16.3761 19.5949 16.417 19.5736 16.4513 19.5475C16.4856 19.5214 16.5134 19.4903 16.5281 19.4495C16.5395 19.4217 16.5444 19.389 16.5428 19.3498C16.5575 19.2795 16.5967 19.237 16.6555 19.2142C16.6686 19.2093 16.6833 19.2044 16.698 19.2011C16.6996 19.2011 16.7029 19.2011 16.7045 19.1995C17.43 18.9952 18.1522 18.8024 18.8353 18.4429C19.1702 18.2665 19.6081 18.2174 19.966 18.0344C20.4578 17.7828 21.0035 17.6946 21.5133 17.4969C21.9267 17.3367 22.3385 17.2044 22.7176 16.9609C22.9039 16.8416 23.1539 16.8563 23.3483 17.0263L23.3499 17.0263Z" fill="rgb(133,135,139)" fill-rule="nonzero" />
		<path id="Vector" d="M124.024 0.93784C124.022 5.27605 124.021 9.61589 124.016 13.9541C124.016 14.1093 124.04 14.2678 123.976 14.4557C123.823 14.3789 123.749 14.258 123.694 14.1338C123.591 13.9084 123.418 13.8299 123.182 13.8397C123.024 13.8463 122.864 13.8414 122.705 13.8397C122.614 13.8397 122.504 13.861 122.439 13.7891C122.254 13.5848 122.019 13.5897 121.779 13.6028C121.65 13.6093 121.544 13.5669 121.462 13.4704C121.272 13.2499 121.03 13.1861 120.748 13.2008C120.486 13.2139 120.23 13.2303 120.006 13.0113C119.887 12.8937 119.673 12.959 119.503 12.9688C119.192 12.9868 118.993 12.8871 118.759 12.6469C118.478 12.3593 118.447 12.0767 118.447 11.7286C118.45 8.13224 118.447 4.53749 118.444 0.941108C118.522 0.931304 118.599 0.91333 118.678 0.91333C120.382 0.91333 122.086 0.91333 123.79 0.91333C123.869 0.91333 123.947 0.92967 124.026 0.93784L124.024 0.93784Z" fill="rgb(133,135,139)" fill-rule="nonzero" />
		<path id="Vector" d="M49.0916 5.24405C49.0867 3.87804 49.085 2.51367 49.0703 1.14767C49.0687 0.938516 49.1586 0.905837 49.3318 0.909105C49.6373 0.917275 49.9412 0.909105 50.2468 0.909105C51.3742 0.909105 52.5001 0.910739 53.6275 0.907471C53.8334 0.907471 54.0082 0.94015 54.1782 1.07414C56.2206 2.66563 58.1602 4.3715 59.9445 6.24894C60.335 6.65907 60.7026 7.09371 61.1029 7.49567C61.1699 7.55613 61.2059 7.64109 61.2663 7.70809C61.3775 7.8388 61.4886 7.96952 61.5997 8.10187C61.4886 8.25547 61.3252 8.2424 61.1667 8.23749C59.5768 8.18684 57.9886 8.2571 56.402 8.30776C55.9151 8.32246 55.4134 8.32573 54.9412 8.4205C54.1242 8.58553 53.3056 8.48749 52.4903 8.53488C51.5262 8.5888 50.5589 8.55449 49.6014 8.71461C49.1537 8.78978 49.1292 8.74403 49.121 8.29795C49.1046 7.27998 49.1602 6.26038 49.0899 5.24241L49.0916 5.24405Z" fill="rgb(133,135,139)" fill-rule="nonzero" />
		<path id="Vector" d="M107.067 19.4969C107.075 19.6293 107.09 19.76 107.09 19.8924C107.09 22.2273 107.088 24.5623 107.086 26.8989C107.086 26.9659 107.083 27.0312 107.086 27.0982C107.096 27.2469 107.037 27.3221 106.88 27.3123C106.8 27.3074 106.722 27.3123 106.642 27.3123C104.944 27.3123 103.245 27.3123 101.547 27.3123C101.48 27.3123 101.415 27.3074 101.348 27.3123C101.191 27.3237 101.134 27.2453 101.142 27.0982C101.145 27.0459 101.142 26.992 101.142 26.9397C101.142 23.9414 101.139 20.943 101.139 17.943C101.139 17.8515 101.152 17.7584 101.16 17.6669C101.214 17.6064 101.237 17.528 101.268 17.4561C101.428 17.0999 101.557 17.0443 101.867 17.2715C102.15 17.479 102.444 17.5852 102.791 17.5574C102.843 17.5525 102.782 17.5411 102.83 17.559C103.428 17.7894 104.081 17.8172 104.67 18.0786C104.717 18.0999 104.764 18.1473 104.813 18.144C105.361 18.1048 105.81 18.4643 106.335 18.5149C106.58 18.5378 106.714 18.6652 106.784 18.894C106.849 19.1064 106.902 19.3303 107.067 19.4986L107.067 19.4969Z" fill="rgb(133,135,139)" fill-rule="nonzero" />
		<path id="Vector" d="M39.3935 16.751C39.3886 16.8703 39.3085 16.872 39.2529 16.8622C38.7709 16.7723 38.3118 16.8671 37.8657 17.037C37.5667 17.1497 37.2611 17.1007 36.9605 17.1023C36.7154 17.1023 36.4817 17.1171 36.2954 17.2935C36.1566 17.4259 35.9883 17.4308 35.8134 17.4259C35.5356 17.4193 35.2579 17.3981 35.0209 17.5991C34.9147 17.6906 34.7677 17.6693 34.6353 17.6612C34.3984 17.6465 34.1892 17.6987 34.0177 17.8736C33.8559 18.037 33.6533 18.068 33.4311 18.0648C33.0912 18.0582 32.7432 18.0092 32.4425 18.2494C32.3232 18.3442 32.1598 18.3001 32.0161 18.2984C31.7922 18.2984 31.5929 18.3442 31.4736 18.555C31.3837 18.7135 31.235 18.6971 31.088 18.6971C30.7857 18.6971 30.5079 18.7282 30.2121 18.8654C29.9311 18.9961 29.6223 19.0533 29.3854 19.2886C29.2808 19.3916 29.1043 19.3327 28.9605 19.3327C28.7595 19.3327 28.5667 19.3327 28.4001 19.4765C28.3216 19.5435 28.2138 19.5746 28.1027 19.5746C27.9344 19.5746 27.7841 19.6383 27.6778 19.7625C27.5226 19.9438 27.3347 19.9961 27.1109 19.9716C26.8903 19.9471 26.6958 19.988 26.5324 20.1628C26.4638 20.238 26.3543 20.2837 26.2449 20.2837C26.0864 20.2837 25.9818 20.3393 25.8821 20.4749C25.7596 20.6432 25.5635 20.7134 25.356 20.6448C25.2203 20.6007 25.1337 20.6399 25.0324 20.7216C24.8217 20.8915 24.5047 20.9161 24.3772 21.2004C24.0422 21.1971 23.7988 21.4128 23.5194 21.5468C23.4524 21.5794 23.3936 21.5304 23.3511 21.4732C23.3576 21.4226 23.3641 21.3719 23.3707 21.3213C23.4197 21.2396 23.3854 21.1415 23.4246 21.0582C23.4311 21.0141 23.4377 20.97 23.4442 20.9259C23.5651 20.854 23.4573 20.7363 23.4802 20.6448C23.4851 20.6268 23.4949 20.6105 23.5112 20.5942C23.5177 20.5435 23.5243 20.4945 23.5308 20.4438C23.5782 20.3654 23.5373 20.269 23.5864 20.1906C23.5749 20.1661 23.5782 20.1448 23.5978 20.1268C23.6795 20.0321 23.5978 19.8997 23.6681 19.8017C23.6762 19.7494 23.6844 19.6971 23.6909 19.6448C23.7367 19.5697 23.6909 19.4749 23.7465 19.4014C23.7351 19.3752 23.74 19.3507 23.7579 19.3295C23.8217 19.2543 23.7743 19.1514 23.8217 19.0713C23.8282 19.0239 23.8364 18.9782 23.8429 18.9308C23.9001 18.8572 23.8478 18.7559 23.9066 18.6824C23.8952 18.6563 23.9001 18.6334 23.9164 18.6121C23.9818 18.537 23.9311 18.434 23.9818 18.3556C23.9704 18.3327 23.9753 18.3115 23.9932 18.2935C24.0619 18.2167 24.0128 18.1121 24.0586 18.0304C24.0439 17.8687 24.1011 17.72 24.1403 17.568C24.472 16.2903 24.8184 15.0174 25.2449 13.7674C25.2661 13.7053 25.2726 13.6383 25.3282 13.5926C25.5422 13.4324 25.7906 13.3981 26.0455 13.4275C26.3494 13.4635 26.6239 13.4047 26.8739 13.2282C26.9066 13.2053 26.9409 13.171 26.9769 13.171C27.7252 13.14 28.4376 12.8605 29.1746 12.8132C29.5782 12.787 29.9491 12.7478 30.3233 12.5926C30.7383 12.421 31.1713 12.2772 31.6174 12.5174C31.6223 12.5239 31.6272 12.5305 31.6304 12.537C31.6353 12.5436 31.6386 12.5501 31.6419 12.555C31.7121 12.6824 31.6468 12.8083 31.601 12.9292C31.1729 14.055 30.7873 15.1939 30.4393 16.3475C30.4131 16.4341 30.3755 16.5125 30.32 16.5795C30.32 16.5811 30.3167 16.5844 30.3151 16.586C30.3053 16.5975 30.2955 16.6089 30.284 16.6187C30.302 16.6399 30.32 16.6563 30.3396 16.6677C30.4589 16.7478 30.6027 16.6988 30.7334 16.6988C33.4801 16.7037 36.2285 16.702 38.9752 16.7053C39.1124 16.7053 39.2595 16.6677 39.3886 16.7445L39.3935 16.751Z" fill="rgb(133,135,139)" fill-rule="nonzero" />
		<path id="Vector" d="M140.202 28.1042C139.846 28.0552 139.816 28.0356 139.903 27.7284C139.957 27.5372 139.931 27.4033 139.797 27.2627C139.666 27.1255 139.624 26.9604 139.645 26.7546C139.673 26.4964 139.635 26.2301 139.625 25.967C139.625 25.9278 139.627 25.8722 139.604 25.8526C139.344 25.6255 139.351 25.2546 139.133 25.0013C138.947 24.784 138.952 24.4621 138.745 24.2382C138.632 24.1157 138.565 23.9556 138.415 23.8526C138.32 23.7873 138.23 23.6925 138.179 23.5912C138.088 23.4049 137.968 23.3101 137.753 23.3052C137.63 23.302 137.658 23.2121 137.735 23.1484C137.942 23.1222 138.148 23.1484 138.354 23.1696C138.566 23.2203 138.777 23.2252 138.988 23.1664C139.088 23.132 139.191 23.1369 139.292 23.1549C139.421 23.0814 139.573 23.1631 139.704 23.0945C139.754 23.0879 139.803 23.083 139.854 23.0765C139.952 23.003 140.086 23.0863 140.182 23.0046C140.2 22.985 140.22 22.9817 140.245 22.9932C140.321 22.9392 140.428 22.9932 140.501 22.9229C140.867 22.7709 141.248 22.6533 141.606 22.4735C142.287 22.1304 142.895 21.6843 143.444 21.1598C143.581 21.0291 143.707 20.9687 143.901 21.016C145.707 21.449 147.512 21.8739 149.305 22.2971C149.352 22.3624 149.338 22.4098 149.305 22.4539C148.179 23.9964 146.916 25.4016 145.269 26.4147C143.905 27.2529 142.413 27.7431 140.846 28.0225C140.795 28.0323 140.74 28.0258 140.687 28.0274C140.58 28.0846 140.45 28.0225 140.344 28.0879L140.199 28.1059L140.202 28.1042Z" fill="rgb(133,135,139)" fill-rule="nonzero" />
		<path id="Vector" d="M66.1208 0.934836C67.9949 0.889085 69.8707 0.916862 71.7449 0.921764C71.7694 0.921764 71.7939 0.941372 71.8184 0.951176C71.8152 3.2943 71.8184 5.63579 71.8168 7.97891C71.8168 8.12434 71.8315 8.26976 71.8005 8.41355C71.5635 8.53937 71.3348 8.39394 71.0995 8.39721C69.6273 8.41355 68.1551 8.35309 66.6828 8.43316C66.2008 8.4593 66.0848 8.358 66.0848 7.89231C66.0848 5.68971 66.0848 3.48874 66.0848 1.28614C66.0848 1.16849 66.057 1.04758 66.1191 0.934836L66.1208 0.934836Z" fill="rgb(133,135,139)" fill-rule="nonzero" />
		<path id="Vector" d="M65.0133 12.2432C65.2944 12.5356 65.5068 12.8771 65.7274 13.2154C65.8042 13.333 65.8597 13.4686 65.9758 13.5585C66.1588 13.4948 66.064 13.3379 66.0852 13.2203C66.1146 13.0585 66.0215 12.8755 66.1718 12.735C66.3728 12.6092 66.5999 12.601 66.8254 12.6043C68.0558 12.6239 69.2878 12.5585 70.5182 12.5994C70.8826 12.6108 71.2225 12.717 71.5705 12.7922C71.6783 12.8151 71.7649 12.8755 71.8074 12.985C71.8205 14.0324 71.8205 15.0797 71.8074 16.1255C71.3336 16.3052 70.8401 16.2137 70.3712 16.1565C69.7061 16.0748 69.0574 16.1239 68.3957 16.1631C67.5133 16.2154 66.6244 16.2693 65.747 16.0846C65.5248 16.0373 65.2993 16.0144 65.0771 16.0585C64.0673 16.2546 63.046 16.1909 62.0297 16.186C61.7372 16.186 61.4578 16.1941 61.1882 16.3101C60.613 15.5732 60.0755 14.8052 59.4742 14.0879C59.0934 13.6337 58.716 13.1778 58.3369 12.7219C58.5412 12.4572 58.814 12.3804 59.1408 12.3788C60.2013 12.3739 61.2601 12.3526 62.3206 12.333C62.7176 12.3265 63.1147 12.3739 63.5134 12.3706C64.0166 12.3673 64.5215 12.3837 65.0133 12.2432Z" fill="rgb(133,135,139)" fill-rule="nonzero" />
		<path id="Vector" d="M107.067 19.4967C106.802 19.4754 106.782 19.2548 106.722 19.0702C106.578 18.6372 106.58 18.6323 106.142 18.6209C106.005 18.6176 105.88 18.6029 105.779 18.4967C105.609 18.3186 105.39 18.281 105.156 18.3006C104.908 18.3202 104.678 18.2826 104.5 18.0915C104.372 17.9558 104.209 17.9754 104.052 17.9836C103.766 17.9983 103.501 17.9656 103.271 17.7679C103.158 17.6699 103.006 17.647 102.856 17.6633C102.441 17.7124 102.081 17.6127 101.758 17.3284C101.549 17.1454 101.519 17.1666 101.4 17.4117C101.344 17.5261 101.271 17.6094 101.16 17.665C101.153 17.4673 101.142 17.2696 101.142 17.0718C101.139 15.1176 101.135 13.1634 101.135 11.2091C101.135 11.0784 101.15 10.9477 101.158 10.8154C101.22 10.768 101.29 10.7271 101.344 10.6716C101.436 10.5784 101.534 10.5768 101.627 10.6503C101.79 10.781 101.977 10.8023 102.176 10.8301C102.369 10.8578 102.55 10.9591 102.691 11.1078C102.787 11.2091 102.882 11.2369 103.036 11.2255C103.469 11.1944 103.906 11.214 104.341 11.2108C104.48 11.2108 104.611 11.2238 104.66 11.3823C104.707 11.5376 104.82 11.5474 104.942 11.5065C105.266 11.3987 105.598 11.4477 105.924 11.4608C106.183 11.4706 106.441 11.5408 106.624 11.768C106.74 11.9134 106.916 11.9885 107.068 12.0915C107.076 12.183 107.093 12.2745 107.093 12.366C107.093 14.6634 107.089 16.9624 107.086 19.2597C107.086 19.3382 107.075 19.4166 107.068 19.495L107.067 19.4967Z" fill="rgb(133,135,139)" fill-rule="nonzero" />
		<path id="Vector" d="M99.6455 17.184C99.6144 17.5957 99.4804 17.9846 99.3612 18.3735C98.7337 20.4405 97.6896 22.2738 96.2337 23.8718C96.1814 23.9307 96.1177 23.9781 96.0589 24.0303C95.8759 23.9405 95.9135 23.7705 95.9069 23.6153C95.8922 23.3294 95.8906 23.3179 95.6161 23.3196C95.3824 23.3212 95.17 23.3098 95.0148 23.1039C94.9559 23.0271 94.8677 22.9928 94.7697 22.9977C94.6406 23.0042 94.5409 22.9519 94.456 22.8571C94.3563 22.7444 94.2435 22.6611 94.0801 22.6741C93.9805 22.6823 93.8971 22.6317 93.8399 22.5565C93.7027 22.38 93.5213 22.3359 93.3122 22.3588C93.1177 22.38 92.9445 22.3408 92.8171 22.1774C92.706 22.0336 92.5442 22.032 92.3841 22.0418C92.1782 22.0549 91.9903 22.0336 91.8514 21.8522C91.7632 21.7379 91.6439 21.7134 91.4968 21.7395C91.1521 21.8016 91.1063 21.7542 91.1177 21.3817L91.1177 21.3784C91.121 21.1823 91.2713 21.1039 91.4102 21.0173C91.5148 20.9781 91.5883 20.9045 91.6471 20.8114C92.9249 19.4242 93.7991 17.831 94.139 15.9618C94.1569 15.8637 94.1635 15.7297 94.3073 15.7379C94.3203 15.7379 94.3334 15.7412 94.3481 15.7428C94.4216 15.7722 94.4952 15.8147 94.5752 15.8065C95.3138 15.7297 95.9984 15.952 96.7076 16.1105C97.3269 16.2493 97.9543 16.4242 98.6046 16.4422C99.103 16.4569 99.4249 16.7542 99.6406 17.1823L99.6455 17.184Z" fill="rgb(133,135,139)" fill-rule="nonzero" />
		<path id="Vector" d="M45.3529 13.8153C45.1748 14.1176 45.1585 14.1192 44.8415 14.0359C44.4788 13.9411 44.1258 14.044 43.8056 14.1797C43.3889 14.3561 42.9673 14.3594 42.5392 14.3234C42.2549 14.3006 41.9722 14.3202 41.7222 14.4296C41.3088 14.611 40.884 14.6666 40.4445 14.6323C40.1177 14.6078 39.817 14.6796 39.5213 14.7973C39.5147 14.7973 39.5082 14.7973 39.5017 14.7973C39.3383 14.7859 39.3285 14.6339 39.2893 14.5244C38.6193 12.6143 37.8023 10.7712 36.8628 8.9787C36.7925 8.84635 36.6765 8.71399 36.7353 8.5457C36.7402 8.53262 36.7468 8.51792 36.7533 8.50321C36.951 8.50321 37.1536 8.52772 37.3301 8.40844C37.4592 8.32184 37.5785 8.3774 37.7076 8.41661C38.0654 8.52445 38.4249 8.61922 38.7468 8.31367C38.8268 8.23687 38.9494 8.26792 39.054 8.26792C39.4118 8.26792 39.768 8.26792 40.1259 8.26792C40.3219 8.26792 40.5245 8.29896 40.6765 8.12086C40.7566 8.02772 40.8432 8.10779 40.9298 8.13066C41.2402 8.2091 41.549 8.28099 41.8186 8.01792C41.902 7.93622 42.0164 7.96237 42.1193 7.94766C42.402 7.91171 42.5964 7.70093 42.6307 7.40845C42.8219 7.58001 42.8987 7.82511 43.0082 8.04243C43.8415 9.70909 44.5539 11.428 45.1699 13.1862C45.2435 13.3953 45.232 13.6257 45.3546 13.8169L45.3529 13.8153Z" fill="rgb(133,135,139)" fill-rule="nonzero" />
		<path id="Vector" d="M41.2875 21.8023C41.3888 21.7402 41.4918 21.6814 41.5914 21.6176C41.8186 21.4706 42.0571 21.3758 42.3365 21.4052C42.6078 21.433 42.8643 21.3938 43.0637 21.1797C43.178 21.0572 43.3333 21.0899 43.4754 21.0899C43.83 21.0899 44.1911 21.134 44.4705 20.8268C44.5653 20.7239 44.7238 20.768 44.8529 20.7729C45.1372 20.7843 45.4084 20.7663 45.6192 20.5376C45.6862 20.4641 45.7777 20.451 45.8741 20.4526C46.0195 20.4543 46.1666 20.4641 46.3104 20.451C46.6127 20.4216 46.8839 20.4722 47.1094 20.6912C47.2989 21.3415 47.3708 22.0147 47.4819 22.6781C47.7123 24.0506 47.8741 25.4346 48.0244 26.817C48.0898 27.4101 48.0832 27.3104 47.5767 27.3121C45.8251 27.317 44.0735 27.3137 42.3218 27.3121C41.9722 27.3121 41.9624 27.3088 41.9379 26.9689C41.8137 25.2614 41.5735 23.5686 41.2843 21.8823C41.2794 21.8578 41.2875 21.8301 41.2892 21.8039L41.2875 21.8023Z" fill="rgb(133,135,139)" fill-rule="nonzero" />
		<path id="Vector" d="M54.9618 9.38932C54.8278 9.53638 54.8882 9.71775 54.8882 9.88278C54.8801 15.4775 54.8768 21.0739 54.8735 26.6686C54.8735 27.0967 54.6546 27.3108 54.2167 27.3108C52.6791 27.3108 51.1399 27.3108 49.6023 27.3108C49.4961 27.3108 49.3899 27.3059 49.2837 27.3108C49.1285 27.3173 49.068 27.2422 49.0794 27.0951C49.0827 27.0428 49.0794 26.9889 49.0794 26.9366C49.0794 24.1654 49.0762 21.3942 49.0762 18.6229C49.0762 18.5167 49.0876 18.4121 49.0941 18.3059C49.3441 18.3844 49.2723 18.605 49.2772 18.77C49.2919 19.3925 49.2788 20.0134 49.2853 20.636C49.2902 21.1066 49.3621 21.1768 49.8409 21.2046C50.1579 21.2226 50.465 21.2438 50.7396 21.0069C50.916 20.8533 51.166 20.8925 51.3915 20.8893C51.849 20.8811 52.3213 20.9579 52.7265 20.6409C52.8082 20.5772 52.9324 20.5674 53.0337 20.5902C53.4438 20.6817 53.8507 20.5527 54.2591 20.5935C54.5827 20.6262 54.7036 20.4824 54.702 20.1572C54.6938 18.886 54.6922 17.6164 54.702 16.3452C54.6791 15.0069 54.6873 13.6687 54.6954 12.3321C54.6905 11.4988 54.6856 10.6638 54.6905 9.8305C54.6905 9.672 54.6791 9.50533 54.7706 9.36808C54.8294 9.27821 54.9225 9.19815 54.965 9.39096L54.9618 9.38932Z" fill="rgb(133,135,139)" fill-rule="nonzero" />
		<path id="Vector" d="M61.1895 16.3088C61.3545 16.018 61.3545 16.0441 61.7287 16.0604C62.3234 16.085 62.9215 16.0604 63.5179 16.0735C64.0228 16.0833 64.5162 16.031 65.0097 15.9281C65.3398 15.8595 65.6715 15.9183 65.9901 16.0016C66.2401 16.067 66.4868 16.0686 66.7368 16.0703C67.0554 16.0703 67.3724 16.0686 67.6911 16.0703C68.2858 16.0752 68.874 16.0098 69.4606 15.9281C69.6861 15.8971 69.91 15.9689 70.1224 16.0082C70.4672 16.0735 70.807 16.0637 71.1485 16.067C71.361 16.0686 71.5717 16.0752 71.7727 16.147C71.8593 16.3088 71.8152 16.482 71.8152 16.6503C71.8168 17.7712 71.8234 18.8905 71.8136 20.0114C71.7172 20.1503 71.5734 20.1094 71.4525 20.0866C70.9263 19.9902 70.4002 20.0751 69.8757 20.0719C67.9231 20.0637 65.9639 20.2353 64.0179 19.9608C63.7956 19.9297 63.7401 20.1389 63.5702 20.1356C63.013 19.2091 62.477 18.2696 61.8823 17.3644C61.6502 17.0131 61.379 16.6863 61.1895 16.3072L61.1895 16.3088Z" fill="rgb(133,135,139)" fill-rule="nonzero" />
		<path id="Vector" d="M54.9619 9.38898C54.9276 9.33506 54.8623 9.31545 54.8459 9.37264C54.8165 9.47068 54.8165 9.57852 54.8165 9.68146C54.8116 10.5605 54.8083 11.4396 54.8034 12.3187C54.6662 12.3465 54.5845 12.2468 54.4913 12.1765C54.3623 12.0785 54.2266 12.0671 54.0812 12.1259C53.3606 12.42 52.6057 12.402 51.8541 12.3367C51.0714 12.268 50.2986 12.3661 49.524 12.4265C49.1401 12.456 49.1319 12.4788 49.1237 12.0769C49.1058 11.152 49.1646 10.2272 49.0927 9.30401C49.0682 7.94944 49.0616 6.59651 49.0927 5.24194C49.2087 5.36613 49.1597 5.51972 49.1597 5.66024C49.1646 6.54913 49.1597 7.43801 49.1646 8.32689C49.1646 8.64552 49.1711 8.64388 49.493 8.59487C50.4603 8.44781 51.4325 8.40042 52.408 8.4233C52.6319 8.4282 52.8557 8.438 53.0763 8.36284C53.1842 8.32689 53.323 8.31872 53.4309 8.3514C53.9113 8.50336 54.3704 8.36774 54.8361 8.27951C54.9897 8.2501 55.1531 8.26644 55.3116 8.2648C55.6024 8.26153 55.8933 8.28441 56.176 8.18637C56.3966 8.10957 56.6204 8.20434 56.8443 8.18637C58.1923 8.07363 59.5436 8.11448 60.8933 8.1014C61.1286 8.09977 61.3655 8.17003 61.6008 8.1014C62.0469 8.50336 62.3916 8.99519 62.7887 9.44127C62.9194 9.58832 63.0468 9.73702 63.1743 9.88571C63.2266 10.1145 63.037 10.1161 62.9145 10.1226C62.2299 10.1651 61.5436 10.2779 60.859 10.1815C60.1416 10.0818 59.3884 10.0932 58.7364 10.2762C58.0093 10.4805 57.3296 10.5491 56.6057 10.4462C56.4587 10.4249 56.323 10.5197 56.176 10.4903C55.7707 10.1226 55.3655 9.75499 54.9603 9.38571L54.9619 9.38898Z" fill="rgb(133,135,139)" fill-rule="nonzero" />
		<path id="Vector" d="M23.41 16.8379C23.3969 16.9017 23.3691 16.9638 23.3495 17.0275C23.258 17.0193 23.1665 17.0095 23.075 17.0046C22.861 16.9964 22.6551 17.016 22.5064 17.2023C22.3185 17.436 22.0718 17.5373 21.7727 17.5046C21.6469 17.4915 21.5309 17.5226 21.4525 17.6239C21.3152 17.8004 21.1322 17.8412 20.9231 17.8232C20.7466 17.8069 20.5848 17.8298 20.4541 17.9752C20.2777 18.1745 19.995 18.0798 19.7956 18.1925C19.6061 18.3004 19.4754 18.5062 19.2123 18.4621C18.9917 18.4262 18.7956 18.4785 18.6486 18.668C18.5898 18.7448 18.5032 18.7791 18.4035 18.7775C18.3087 18.7775 18.2074 18.7807 18.1486 18.8608C17.9754 19.0928 17.7368 19.119 17.4754 19.0977C17.3283 19.0847 17.1976 19.1173 17.0636 19.199C16.9558 19.2644 16.8234 19.3771 16.6715 19.2611C16.6649 19.2448 16.66 19.2301 16.6551 19.2137C16.6175 19.0634 16.7107 18.9425 16.7777 18.8183C17.4166 17.6337 17.7466 16.3723 17.8463 15.0275C17.9084 14.1893 17.8104 13.3657 17.7826 12.5357C17.7793 12.4197 17.7581 12.3037 17.8316 12.2073C17.8414 12.1925 17.8545 12.1795 17.8692 12.1664C17.9558 12.1991 18.0571 12.2138 18.1241 12.2693C18.3953 12.4883 18.6698 12.405 18.9443 12.2939C19.026 12.2612 19.0947 12.1713 19.1943 12.2383C19.3969 12.3706 19.5652 12.2906 19.7368 12.1697C19.9639 12.0079 20.2286 11.9997 20.4966 12.0079C20.7188 12.0144 20.9231 12.0079 21.1241 11.8445C21.3022 11.7024 21.562 11.6827 21.8038 11.6893C22.1077 11.6974 22.4002 11.7056 22.6714 11.4997C22.794 11.4066 22.9966 11.4131 23.1633 11.3805C23.3365 11.3461 23.3691 11.5177 23.4655 11.5945C23.5865 11.6925 23.5816 11.5733 23.6077 11.5112C23.611 11.521 23.6142 11.5308 23.6159 11.5422C23.7352 11.9573 23.7057 12.387 23.7237 12.8086C23.7793 14.1631 23.6665 15.5079 23.4084 16.8396L23.41 16.8379Z" fill="rgb(133,135,139)" fill-rule="nonzero" />
		<path id="Vector" d="M99.9013 15.3791C99.916 15.4787 99.9177 15.5768 99.885 15.6748C99.7967 15.8284 99.8997 16.0081 99.8164 16.1617C99.8115 16.2124 99.8066 16.263 99.8017 16.3137C99.7347 16.4183 99.8017 16.5457 99.7412 16.6503C99.733 16.7206 99.7232 16.7925 99.715 16.8627C99.6105 16.9101 99.702 17.0049 99.684 17.0735C99.6807 17.0882 99.6709 17.1013 99.6546 17.1127C99.6644 17.1389 99.6611 17.1617 99.6432 17.1846C99.4226 17.0572 99.2935 16.8268 99.0745 16.6911C98.9226 16.5964 98.7772 16.531 98.5941 16.5457C98.287 16.5702 97.9896 16.5425 97.7069 16.3954C97.5664 16.3219 97.4062 16.2892 97.2445 16.3088C96.8899 16.3513 96.5549 16.2532 96.2429 16.1094C95.7004 15.8611 95.135 15.8644 94.5713 15.9526C94.3474 15.9869 94.3164 15.9085 94.3066 15.7402C94.1906 15.6242 94.1987 15.4755 94.2151 15.3317C94.4046 13.7124 94.2102 12.1438 93.6089 10.6258C93.5648 10.5163 93.5206 10.4036 93.5631 10.2811C93.5778 10.2729 93.5925 10.2647 93.6089 10.2582C93.6089 10.2582 93.6121 10.2582 93.6138 10.2565C93.9046 10.116 94.2396 10.1846 94.4716 10.286C95.0974 10.5605 95.7461 10.4543 96.3801 10.5327C96.7183 10.5752 97.0468 10.5899 97.3801 10.7124C97.8801 10.8971 98.4226 10.8448 98.9422 10.7941C99.1775 10.7712 99.3785 10.7663 99.5827 10.8742C99.7837 11.5212 99.8686 12.1879 99.8997 12.8644C99.9471 13.7026 99.9454 14.5392 99.8997 15.3774L99.9013 15.3791Z" fill="rgb(133,135,139)" fill-rule="nonzero" />
		<path id="Vector" d="M63.5685 20.1377C63.647 20.0854 63.6437 20.0152 63.6355 19.9302C63.6175 19.7505 63.696 19.6851 63.8479 19.7652C64.1992 19.9482 64.5816 19.9678 64.959 19.9694C66.5244 19.9809 68.0914 19.9743 69.6567 19.9743C69.843 19.9743 70.0227 19.9351 70.2057 19.9139C70.7319 19.8551 71.2597 19.8877 71.7711 20.0511C71.8479 20.1443 71.8152 20.2537 71.8152 20.3567C71.8168 21.5479 71.8168 22.739 71.8152 23.9318C71.8152 24.3501 71.8136 24.3436 71.3838 24.2831C70.7384 24.1933 70.0881 24.2554 69.441 24.2439C69.16 24.239 68.8871 24.2243 68.629 24.0969C68.459 24.0135 68.2711 23.9972 68.0848 24.0054C67.3643 24.0397 66.629 23.8844 65.9296 24.2014C65.7842 24.2684 65.6159 24.2292 65.4803 24.1181C65.026 23.1688 64.6192 22.1982 64.1372 21.2619C63.9443 20.8894 63.7156 20.5332 63.5669 20.1377L63.5685 20.1377Z" fill="rgb(133,135,139)" fill-rule="nonzero" />
		<path id="Vector" d="M33.6192 8.59387C32.9558 9.79811 32.3905 11.0497 31.8496 12.3128C31.8055 12.4141 31.7712 12.5285 31.6487 12.5628C31.6421 12.5644 31.6339 12.5661 31.6274 12.5677C31.1389 12.4909 30.6846 12.5285 30.2255 12.772C29.9248 12.9321 29.5686 13.0514 29.1944 12.9108C28.9706 12.8275 28.7304 12.8912 28.549 13.0203C28.3121 13.1886 28.067 13.2164 27.7974 13.2066C27.6258 13.2001 27.4526 13.2066 27.281 13.205C27.1568 13.2017 27.0523 13.2295 26.9526 13.3128C26.6863 13.5334 26.3889 13.6347 26.0392 13.5334C25.799 13.4648 25.5768 13.6412 25.335 13.5971C25.3644 13.3046 25.5033 13.0448 25.5997 12.7736C26.1062 11.3406 26.6895 9.93864 27.3546 8.571C27.3938 8.4893 27.4493 8.41413 27.4967 8.33734C27.5882 8.62655 27.8595 8.63145 28.0768 8.65433C28.482 8.69518 28.8938 8.63636 29.299 8.7393C29.4477 8.77688 29.5833 8.72622 29.6617 8.56773C29.7483 8.39453 29.8987 8.3308 30.0898 8.34551C30.1813 8.35204 30.281 8.35695 30.366 8.32917C30.7107 8.21806 31.0408 8.25727 31.3758 8.37329C31.6732 8.47459 31.7075 8.46642 31.8611 8.21806C31.9509 8.071 32.0604 8.03015 32.2189 8.02688C32.7222 8.01381 33.2222 8.02525 33.7042 8.18865C33.7107 8.20172 33.7156 8.21479 33.7205 8.22786C33.7647 8.36675 33.6813 8.48276 33.6192 8.59387Z" fill="rgb(133,135,139)" fill-rule="nonzero" />
		<path id="Vector" d="M78.6257 13.3107C78.5505 13.93 78.5522 14.5509 78.6257 15.1702C78.6469 15.2633 78.6567 15.3564 78.6486 15.4512C78.6486 15.4512 78.6486 15.4545 78.6486 15.4561C78.6404 15.5019 78.6306 15.546 78.6159 15.5836C78.5799 15.6767 78.5129 15.7372 78.3741 15.6979C77.7809 15.5296 77.1698 15.6261 76.5669 15.5705C75.611 15.4839 74.6453 15.5084 73.6845 15.5378C73.2172 15.5509 73.178 15.5068 73.1715 15.0297C73.1715 14.9251 73.196 14.8172 73.1388 14.7192C73.0457 13.1097 73.2646 11.5362 73.7172 9.99373C73.7238 9.97086 73.7483 9.95125 73.763 9.93164C74.1796 10.1424 74.6322 10.131 75.0783 10.1375C75.66 10.1457 76.2254 10.149 76.7826 10.3957C77.1796 10.5705 77.6437 10.448 78.0783 10.4594C78.4394 10.4676 78.7907 10.4888 79.1012 10.7029C79.1061 10.7094 79.111 10.716 79.1143 10.7209C79.1191 10.7274 79.1224 10.7323 79.1257 10.7388C79.1878 10.8499 79.1551 10.9676 79.1175 11.0787C78.8741 11.8058 78.7564 12.5607 78.6241 13.3123L78.6257 13.3107Z" fill="rgb(133,135,139)" fill-rule="nonzero" />
		<path id="Vector" d="M80.7007 20.3612C80.6697 20.4102 80.6125 20.4527 80.5732 20.4151C80.3984 20.255 80.2154 20.2877 80.0226 20.3694C79.8608 20.438 79.7023 20.4691 79.5259 20.3955C79.4327 20.3579 79.3102 20.3498 79.2138 20.3743C78.7546 20.4936 78.3004 20.3661 77.8445 20.3694C77.5978 20.371 77.3527 20.371 77.3445 20.0213C77.3429 19.9266 77.2579 19.8972 77.1713 19.8955C77.1059 19.8955 77.0341 19.8776 76.9736 19.8955C76.5814 20.0246 76.168 20.0099 75.771 20.0802C75.3952 20.1472 75.07 20.0687 74.7318 19.9723C74.5684 19.9249 74.4083 19.8661 74.2465 19.8122C73.8135 18.9021 73.5602 17.9348 73.3707 16.9511C73.2285 16.2142 73.1109 15.4724 73.1403 14.7158C73.2677 14.8498 73.2024 15.0165 73.2122 15.1701C73.222 15.3155 73.2204 15.4119 73.4279 15.4054C73.5945 15.3988 73.7645 15.4544 73.9328 15.3907C74.0619 15.3416 74.1926 15.3384 74.32 15.3907C74.4605 15.4478 74.6109 15.4527 74.7498 15.4282C75.2465 15.3367 75.7416 15.4576 76.235 15.4282C76.7007 15.4005 77.1501 15.5541 77.6125 15.5132C77.7301 15.5034 77.8527 15.5328 77.9638 15.4805C78.1076 15.4119 78.2056 15.4691 78.32 15.559C78.4769 15.6831 78.4867 15.6733 78.5586 15.4152C78.5978 15.4233 78.6255 15.4364 78.6468 15.456C78.7122 15.5116 78.7105 15.6096 78.7269 15.6946C79.0357 17.2714 79.5242 18.7714 80.5569 20.0426C80.6206 20.121 80.6844 20.2043 80.6958 20.3073C80.6974 20.3253 80.6991 20.3432 80.6958 20.3612L80.7007 20.3612Z" fill="rgb(133,135,139)" fill-rule="nonzero" />
		<path id="Vector" d="M71.7728 12.9641C71.3365 12.884 70.9199 12.7092 70.4624 12.7206C70.1486 12.7288 69.8333 12.7451 69.5163 12.6651C69.3186 12.6144 69.1094 12.737 68.8937 12.7304C68.3643 12.7157 67.8349 12.7239 67.3055 12.7255C66.9101 12.7255 66.513 12.701 66.1258 12.804C66.0359 12.2304 66.1078 11.6536 66.0849 11.0785C66.067 10.6193 66.1209 10.1602 66.0555 9.70266C66.0506 9.58338 66.0425 9.46574 66.0425 9.34645C66.0408 6.67327 66.0376 4.00172 66.0425 1.32853C66.0425 1.19781 65.9591 1.03768 66.1209 0.933105C66.1225 3.22558 66.1242 5.51968 66.1274 7.81215C66.1274 8.29581 66.2451 8.39221 66.7189 8.28927C66.8513 8.25986 66.982 8.26476 67.1143 8.26476C68.4134 8.26476 69.7124 8.26803 71.0114 8.25986C71.2843 8.25986 71.5359 8.30398 71.7777 8.42326C71.8529 8.56051 71.8153 8.70757 71.8153 8.85136C71.8186 10.0932 71.8186 11.335 71.8153 12.5768C71.8153 12.7059 71.8545 12.8415 71.7728 12.9624L71.7728 12.9641Z" fill="rgb(133,135,139)" fill-rule="nonzero" />
		<path id="Vector" d="M54.8022 16.3819C54.8055 17.7594 54.8088 19.1352 54.812 20.5126C54.812 20.6613 54.8022 20.7218 54.5947 20.7218C54.2614 20.7218 53.9199 20.6238 53.5865 20.7561C53.4673 20.8035 53.3284 20.7643 53.1976 20.7234C52.9542 20.6483 52.714 20.6711 52.5441 20.877C52.4428 20.9996 52.3284 21.0094 52.1944 21.0094C51.8627 21.0094 51.5326 21.0143 51.2009 21.0077C50.9656 21.0028 50.7549 21.0257 50.616 21.2545C50.5506 21.3639 50.4526 21.3999 50.3104 21.3574C50.0196 21.2692 49.7091 21.3672 49.4068 21.2757C49.2124 21.2169 49.1568 21.1352 49.1585 20.9489C49.165 20.194 49.1617 19.4391 49.1585 18.6859C49.1585 18.5584 49.2009 18.4179 49.0915 18.3084C49.0653 16.9538 49.0588 15.6009 49.0915 14.2463C49.3447 14.3248 49.2663 14.547 49.2712 14.712C49.2924 15.3068 49.2647 15.9032 49.2859 16.4767C50.1274 16.6123 50.9281 16.2594 51.7467 16.3623C52.5294 16.462 53.2695 16.2578 54.0195 16.1156C54.3512 16.0535 54.5849 16.1663 54.8022 16.3852L54.8022 16.3819Z" fill="rgb(133,135,139)" fill-rule="nonzero" />
		<path id="Vector" d="M54.8016 16.3825C54.7886 16.3825 54.7755 16.3825 54.7624 16.3858C54.5124 16.4201 54.3588 16.0132 54.0827 16.2175C53.8703 16.3743 53.6219 16.2828 53.3964 16.3613C53.1333 16.4511 52.8196 16.3351 52.568 16.5394C52.5206 16.5786 52.4111 16.5574 52.336 16.5426C51.6399 16.407 50.952 16.4413 50.2641 16.6096C50.0909 16.6521 49.8817 16.6587 49.7167 16.6015C49.4634 16.5165 49.3409 16.5933 49.2837 16.8319C49.117 16.773 49.166 16.6521 49.166 16.5606C49.1611 15.9136 49.166 15.2649 49.1611 14.6178C49.1611 14.4904 49.2036 14.3515 49.0941 14.2404C49.0876 12.8972 49.0811 11.5525 49.0762 10.2093C49.0762 9.90706 49.0876 9.60478 49.0941 9.30249C49.2036 9.4136 49.1611 9.55249 49.1611 9.68157C49.166 10.4773 49.1611 11.2731 49.166 12.0704C49.166 12.3923 49.1726 12.3956 49.4667 12.2763C49.5696 12.2338 49.6758 12.2518 49.7804 12.2469C50.2151 12.2273 50.6497 12.2731 51.086 12.1799C51.3229 12.1293 51.5811 12.1669 51.8343 12.211C52.2788 12.2861 52.733 12.2731 53.1791 12.2142C53.3229 12.1963 53.465 12.1652 53.6105 12.1669C53.7183 12.1669 53.8131 12.1456 53.9078 12.0819C54.2804 11.8335 54.4225 11.8629 54.6873 12.2159C54.7183 12.2567 54.7657 12.2845 54.8065 12.3172C54.8065 13.6717 54.8065 15.0263 54.8065 16.3809L54.8016 16.3825Z" fill="rgb(133,135,139)" fill-rule="nonzero" />
		<path id="Vector" d="M81.884 6.96724C81.8775 7.10939 81.737 7.12737 81.6324 7.17965C81.603 7.17965 81.5769 7.17965 81.5556 7.18782C81.5082 7.20253 81.4804 7.23684 81.4641 7.27933C81.4494 7.31527 81.4429 7.35612 81.4347 7.39861C81.1095 7.86919 80.6504 8.2205 80.3301 8.69762C79.951 9.25971 79.5965 9.8316 79.3367 10.459C79.2925 10.5653 79.2975 10.7254 79.1292 10.7352C79.1226 10.7352 79.1161 10.7352 79.1096 10.7352C78.4413 10.513 77.7484 10.5783 77.0638 10.5767C76.8873 10.5767 76.719 10.562 76.572 10.4541C76.3579 10.2989 76.1096 10.2728 75.8596 10.2564C75.3596 10.2254 74.853 10.3202 74.3563 10.1845C74.3089 10.1715 74.2517 10.1943 74.2011 10.2041C73.9674 10.2515 73.8138 10.1747 73.7681 9.92964C73.7501 9.75153 73.8351 9.59794 73.8923 9.43944C74.2664 8.40677 74.7272 7.41658 75.3105 6.48358C75.3449 6.42966 75.3922 6.38391 75.4347 6.33325C75.4723 6.39208 75.5262 6.43292 75.5965 6.42802C76.1717 6.37737 76.7452 6.4558 77.3203 6.43783C77.9004 6.41985 78.4903 6.37083 79.0605 6.45253C79.6308 6.5326 80.2125 6.43946 80.7795 6.64044C81.0099 6.72214 81.3007 6.82835 81.5834 6.68946C81.7893 6.58815 81.7255 6.91331 81.884 6.91005C81.8873 6.93129 81.8889 6.9509 81.8873 6.96887L81.884 6.96724Z" fill="rgb(133,135,139)" fill-rule="nonzero" />
		<path id="Vector" d="M99.5846 10.8764C99.5667 10.8961 99.5372 10.9336 99.5323 10.9304C99.2954 10.7931 99.0781 10.8748 98.851 10.9663C98.7595 11.0039 98.6418 10.981 98.5405 10.9353C98.4539 10.8961 98.3608 10.8863 98.2693 10.901C97.8591 10.9663 97.4637 10.9467 97.1042 10.7098C97.0716 10.6885 97.0323 10.6673 96.9964 10.6657C96.5258 10.6477 96.0536 10.6461 95.5846 10.615C95.2644 10.5938 94.9229 10.6412 94.6369 10.4418C94.5324 10.3699 94.4278 10.3111 94.3069 10.3421C94.0634 10.4026 93.8445 10.3127 93.619 10.2572C93.6173 10.2572 93.6157 10.2572 93.6124 10.2572C93.4311 10.2098 93.3902 10.0415 93.3216 9.90423C92.6974 8.66731 91.8298 7.63464 90.7219 6.80458C90.6419 6.74412 90.5242 6.7049 90.4997 6.59543C90.4948 6.57255 90.4932 6.54477 90.4981 6.51536C90.7857 6.4353 91.0651 6.43366 91.3428 6.56602C91.4327 6.6085 91.5504 6.58889 91.6566 6.59543C91.735 6.60033 91.8298 6.57418 91.8935 6.60686C92.5177 6.93366 93.1925 6.80784 93.8494 6.83235C94.3232 6.85033 94.802 6.79804 95.2726 6.91078C95.3477 6.92876 95.4474 6.89771 95.4997 6.9598C95.7039 7.19837 95.9752 7.14935 96.2366 7.15098C96.5275 7.15098 96.8199 7.15425 97.1124 7.15098C97.3526 7.14771 97.5879 7.14281 97.7905 7.31274C97.9523 7.44673 98.083 7.30294 98.2203 7.24248C98.2431 7.25392 98.2758 7.26046 98.2856 7.27843C98.7252 8.12646 99.1189 8.99411 99.3428 9.92874C99.4065 9.999 99.3428 10.1085 99.4163 10.1771C99.4474 10.3013 99.4784 10.4238 99.5095 10.548C99.5552 10.6314 99.5046 10.7376 99.5781 10.8144C99.5977 10.8323 99.601 10.8519 99.5912 10.8764L99.5846 10.8764Z" fill="rgb(133,135,139)" fill-rule="nonzero" />
		<path id="Vector" d="M71.7726 12.9639C71.7726 11.4508 71.7758 9.93773 71.7775 8.4263C71.7824 6.10605 71.7873 3.7858 71.7922 1.46392C71.7922 1.29235 71.7709 1.11915 71.8183 0.949219C71.8984 1.07177 71.8559 1.20739 71.8559 1.33647C71.8543 9.84132 71.8494 18.3462 71.8445 26.851C71.8445 26.8902 71.8445 26.9311 71.8445 26.9703C71.8379 27.3053 71.8379 27.3102 71.4817 27.3102C70.5128 27.3118 69.5438 27.3102 68.5765 27.3102C68.0193 27.3102 67.4622 27.3085 66.905 27.3102C66.7661 27.3102 66.6484 27.3036 66.5961 27.1353C66.2742 26.1108 65.8429 25.1272 65.4834 24.1158C65.7448 24.1059 66.0144 24.1501 66.235 23.9442C66.3249 23.8609 66.4573 23.8723 66.5782 23.8723C67.1484 23.8723 67.717 23.8739 68.2873 23.8723C68.4213 23.8723 68.5634 23.8674 68.668 23.9556C68.8576 24.1158 69.0765 24.1141 69.3036 24.1125C69.8069 24.1092 70.3102 24.1108 70.8134 24.1125C71.1141 24.1125 71.4213 24.0782 71.6729 24.2432C71.7138 24.2236 71.7285 24.222 71.7366 24.2122C71.7464 24.204 71.7562 24.1893 71.7562 24.1778C71.7955 22.8004 71.7742 21.4246 71.7709 20.0471C71.7709 18.7465 71.7709 17.4459 71.7709 16.1452C71.7709 15.0831 71.7709 14.0227 71.7709 12.9606L71.7726 12.9639Z" fill="rgb(133,135,139)" fill-rule="nonzero" />
		<path id="Vector" d="M56.1779 10.4923C56.2808 10.3501 56.374 10.2782 56.5946 10.3142C57.008 10.3828 57.4279 10.4498 57.8544 10.4204C58.0472 10.4073 58.2285 10.3828 58.3642 10.2439C58.4883 10.1181 58.6321 10.0968 58.7972 10.0936C59.2318 10.087 59.6648 10.1165 60.1011 10.0299C60.3396 9.98247 60.5945 10.0168 60.8478 10.0658C61.1289 10.1197 61.4311 10.1197 61.7171 10.0903C62.1468 10.0446 62.5766 10.0511 63.0047 10.0184C63.0945 10.0119 63.1566 9.98083 63.1746 9.8877C63.8396 10.6312 64.4491 11.4187 65.0112 12.2439C64.8805 12.4498 64.6648 12.489 64.4573 12.4825C63.7971 12.4645 63.1354 12.5462 62.4769 12.4334C62.2873 12.4008 62.0929 12.507 61.8903 12.489C61.2204 12.4302 60.5504 12.5135 59.8805 12.489C59.5798 12.4775 59.2808 12.5543 58.9785 12.4906C58.8593 12.4661 58.74 12.4939 58.6517 12.5936C58.5668 12.6883 58.4638 12.7374 58.3348 12.7226C57.6158 11.9792 56.8952 11.2357 56.1763 10.4923L56.1779 10.4923Z" fill="rgb(133,135,139)" fill-rule="nonzero" />
		<path id="Vector" d="M66.0568 9.70459C66.1679 9.82877 66.1189 9.98073 66.1205 10.1213C66.1271 11.0167 66.1254 11.9105 66.1271 12.8059C66.1271 13.0232 66.1271 13.2422 66.1205 13.4595C66.1172 13.5461 66.0813 13.6098 65.9751 13.5591C66.0846 13.4333 66.0372 13.2814 66.0372 13.1425C66.0405 12.1409 66.0372 11.1392 66.0372 10.1376C66.0372 9.9938 66.0486 9.84838 66.0552 9.70459L66.0568 9.70459Z" fill="rgb(133,135,139)" fill-rule="nonzero" />
		<path id="Vector" d="M99.9019 15.3788C99.9019 14.5405 99.9019 13.7023 99.9019 12.8657C100.018 13.4131 99.9787 13.9687 99.9754 14.5209C99.9738 14.8069 100.008 15.101 99.9035 15.3804L99.9019 15.3788Z" fill="rgb(133,135,139)" fill-rule="nonzero" />
		<path id="Vector" d="M117.726 12.8859C117.679 12.8647 117.635 12.832 117.584 12.8222C117.359 12.7764 117.403 12.649 117.483 12.5068C117.607 12.6065 117.7 12.7242 117.726 12.8859Z" fill="rgb(133,135,139)" fill-rule="nonzero" />
		<path id="Vector" d="M23.5127 20.5986C23.5225 20.6999 23.5274 20.798 23.6189 20.8748C23.6778 20.9238 23.6614 21.0039 23.5895 21.0284C23.5176 21.0545 23.5013 20.9516 23.4441 20.9303C23.431 20.8127 23.4359 20.6983 23.5111 20.5986L23.5127 20.5986Z" fill="rgb(133,135,139)" fill-rule="nonzero" />
		<path id="Vector" d="M99.656 17.1148C99.6413 17.0527 99.625 16.9906 99.571 16.9465C99.504 16.8926 99.4616 16.8076 99.5416 16.7553C99.6331 16.6949 99.6511 16.8337 99.7148 16.8632C99.7263 16.9547 99.7214 17.0413 99.656 17.1132L99.656 17.1148Z" fill="rgb(133,135,139)" fill-rule="nonzero" />
		<path id="Vector" d="M138.991 23.1634C138.781 23.2794 138.57 23.2745 138.357 23.1666C138.568 23.1389 138.781 23.1405 138.991 23.1634Z" fill="rgb(133,135,139)" fill-rule="nonzero" />
		<path id="Vector" d="M99.8165 16.1615C99.8197 15.9965 99.7511 15.8216 99.8851 15.6746C99.8916 15.8412 99.9063 16.0095 99.8165 16.1615Z" fill="rgb(133,135,139)" fill-rule="nonzero" />
		<path id="Vector" d="M139.705 23.0913C139.583 23.2073 139.434 23.1502 139.293 23.1518C139.423 23.0734 139.563 23.0832 139.705 23.0913Z" fill="rgb(133,135,139)" fill-rule="nonzero" />
		<path id="Vector" d="M61.2694 7.70949C61.173 7.67191 61.1125 7.60491 61.106 7.49707C61.1942 7.54119 61.2759 7.59021 61.2694 7.70949Z" fill="rgb(133,135,139)" fill-rule="nonzero" />
		<path id="Vector" d="M99.7409 16.6506C99.7311 16.5329 99.6935 16.4104 99.8014 16.314C99.8128 16.4316 99.8193 16.5493 99.7409 16.6506Z" fill="rgb(133,135,139)" fill-rule="nonzero" />
		<path id="Vector" d="M23.673 19.804C23.6762 19.9183 23.7155 20.0409 23.6027 20.1291C23.5962 20.0147 23.5962 19.9004 23.673 19.804Z" fill="rgb(133,135,139)" fill-rule="nonzero" />
		<path id="Vector" d="M140.186 23.0035C140.096 23.1163 139.972 23.0754 139.857 23.0754C139.957 23.0035 140.07 22.9954 140.186 23.0035Z" fill="rgb(133,135,139)" fill-rule="nonzero" />
		<path id="Vector" d="M140.347 28.0864C140.445 27.9785 140.571 28.0194 140.69 28.0259C140.586 28.0995 140.466 28.0929 140.347 28.0864Z" fill="rgb(133,135,139)" fill-rule="nonzero" />
		<path id="Vector" d="M47.0048 20.1311C46.8954 20.0413 46.9346 19.9204 46.9346 19.8076C47.0081 19.904 47.0146 20.0151 47.0048 20.1311Z" fill="rgb(133,135,139)" fill-rule="nonzero" />
		<path id="Vector" d="M99.4097 10.1763C99.3165 10.1143 99.3263 10.0211 99.3361 9.92798C99.4031 9.99824 99.4211 10.0832 99.4097 10.1763Z" fill="rgb(133,135,139)" fill-rule="nonzero" />
		<path id="Vector" d="M24.0654 18.0359C24.0785 18.1323 24.0964 18.2303 24 18.299C23.9935 18.2042 24 18.1127 24.0654 18.0359Z" fill="rgb(133,135,139)" fill-rule="nonzero" />
		<path id="Vector" d="M23.9885 18.3611C24 18.4559 24.0147 18.5506 23.9232 18.6176C23.9134 18.5245 23.9232 18.4346 23.9885 18.3611Z" fill="rgb(133,135,139)" fill-rule="nonzero" />
		<path id="Vector" d="M23.9115 18.6877C23.9213 18.7776 23.9344 18.8691 23.8478 18.9361C23.8347 18.8446 23.8527 18.7613 23.9115 18.6877Z" fill="rgb(133,135,139)" fill-rule="nonzero" />
		<path id="Vector" d="M23.8271 19.0752C23.8402 19.17 23.8565 19.2647 23.7634 19.3334C23.7503 19.2386 23.7634 19.1504 23.8271 19.0752Z" fill="rgb(133,135,139)" fill-rule="nonzero" />
		<path id="Vector" d="M46.8411 19.3342C46.7545 19.2672 46.7692 19.174 46.779 19.0825C46.8395 19.156 46.8526 19.2426 46.8411 19.3342Z" fill="rgb(133,135,139)" fill-rule="nonzero" />
		<path id="Vector" d="M23.7516 19.4055C23.7614 19.4938 23.7777 19.582 23.696 19.649C23.6813 19.5607 23.6944 19.4774 23.7516 19.4055Z" fill="rgb(133,135,139)" fill-rule="nonzero" />
		<path id="Vector" d="M46.9245 19.7324C46.833 19.6637 46.851 19.569 46.8608 19.4758C46.9311 19.5494 46.9327 19.6392 46.9245 19.7324Z" fill="rgb(133,135,139)" fill-rule="nonzero" />
		<path id="Vector" d="M23.5896 20.1943C23.6027 20.2858 23.6191 20.379 23.5325 20.4476C23.521 20.3561 23.5276 20.2695 23.5896 20.1943Z" fill="rgb(133,135,139)" fill-rule="nonzero" />
		<path id="Vector" d="M47.0849 20.5295C46.9901 20.4576 47.0098 20.3596 47.0228 20.2632C47.0898 20.3416 47.0947 20.4331 47.0849 20.5295Z" fill="rgb(133,135,139)" fill-rule="nonzero" />
		<path id="Vector" d="M109.844 11.9279C109.88 11.8724 109.918 11.8789 109.952 11.9279C109.98 11.9671 109.952 11.9917 109.923 12.0113C109.882 11.9982 109.854 11.972 109.844 11.9296L109.844 11.9279Z" fill="rgb(133,135,139)" fill-rule="nonzero" />
		<path id="Vector" d="M99.5714 10.8139C99.4717 10.7453 99.488 10.6456 99.5027 10.5476C99.5746 10.6244 99.5795 10.7175 99.5714 10.8139Z" fill="rgb(133,135,139)" fill-rule="nonzero" />
		<path id="Vector" d="M23.4264 21.0623C23.4412 21.157 23.4608 21.2518 23.3725 21.3237C23.3627 21.2306 23.3595 21.1391 23.4264 21.0623Z" fill="rgb(133,135,139)" fill-rule="nonzero" />
		<path id="Vector" d="M140.505 22.9211C140.439 23.0159 140.343 22.9995 140.248 22.9914C140.322 22.926 140.41 22.9129 140.505 22.9211Z" fill="rgb(133,135,139)" fill-rule="nonzero" />
		<path id="Vector" d="M94.8704 25.1484C94.8394 25.1256 94.8181 25.0978 94.8492 25.0618C94.8917 25.0145 94.9293 25.0243 94.9587 25.0765C94.944 25.119 94.9129 25.1419 94.8688 25.1484L94.8704 25.1484Z" fill="rgb(133,135,139)" fill-rule="nonzero" />
		<path id="Vector" d="M17.9853 14.0262C17.9673 13.433 17.9151 12.8399 17.8742 12.2468C17.8742 12.2206 17.8709 12.1945 17.8693 12.1683C17.8448 12.0654 17.8154 11.9641 17.7941 11.8595C17.3971 9.82358 16.3268 8.21901 14.6455 7.02621C13.0409 5.88733 11.2157 5.39877 9.27295 5.3138C8.21413 5.26805 7.15368 5.31707 6.09486 5.33014C6.08833 5.48864 6.07689 5.64713 6.07526 5.80563C6.06545 9.02947 6.06055 12.2517 6.05075 15.4755L6.05075 15.5229C6.04258 17.8938 6.02787 20.2663 6.01807 22.6372C6.01807 23.0359 6.01807 23.0359 6.39878 23.0702C7.21904 23.1454 8.0393 23.1813 8.86119 23.0947C9.25661 23.0539 9.65203 23.0261 10.0475 22.9918C10.103 22.9689 10.1586 22.9493 10.2158 22.9346C10.4004 22.8856 10.5916 22.8709 10.7778 22.83C12.2174 22.5065 13.6014 22.0457 14.8236 21.1846C15.4347 20.7549 15.9265 20.2059 16.4069 19.6438C16.5066 19.5948 16.5474 19.5033 16.5752 19.4052C16.5801 19.3399 16.6111 19.2908 16.67 19.2598C16.6814 19.2386 16.6912 19.219 16.7026 19.1977C16.7974 19.0212 16.8938 18.8448 16.9853 18.6667C17.7337 17.2092 18.0343 15.652 17.9837 14.0245L17.9853 14.0262ZM17.8464 15.0278C17.7468 16.3709 17.4167 17.634 16.7778 18.8186C16.7108 18.9428 16.6177 19.0637 16.6553 19.2141C16.5964 19.2353 16.5556 19.2794 16.5425 19.3497C16.5442 19.3889 16.5392 19.4216 16.5278 19.4493C16.4968 19.4771 16.4723 19.5114 16.451 19.5474C16.4167 19.5735 16.3759 19.5948 16.335 19.616C16.2321 19.6797 16.1602 19.7745 16.0834 19.866C15.5474 20.4935 14.9396 21.0376 14.2239 21.4542C13.0458 22.1421 11.7631 22.5392 10.4314 22.7974C10.3187 22.8186 10.1733 22.7957 10.0948 22.8938C10.0524 22.884 10.005 22.8791 9.95268 22.8791C9.77948 22.8693 9.60955 22.897 9.43798 22.9166C8.54093 23.0163 7.64551 23.0898 6.74192 22.9673C6.14552 22.8856 6.12264 22.8921 6.12918 22.2925C6.14715 20.7941 6.16349 19.2974 6.18637 17.8007C6.24682 13.8236 6.20761 9.84319 6.20597 5.86445C6.20597 5.74844 6.21414 5.62916 6.188 5.51641C6.31872 5.40367 6.48048 5.43145 6.63244 5.43145C7.32198 5.42818 8.01152 5.44615 8.70106 5.42655C9.86608 5.39387 11.005 5.54909 12.1095 5.9102C15.0262 6.86281 16.9657 8.75006 17.6716 11.7958C17.7043 11.9379 17.7304 12.0817 17.8236 12.201C17.8268 12.2043 17.8301 12.2076 17.8334 12.2092C17.7615 12.3056 17.7811 12.4216 17.7843 12.5376C17.8121 13.3677 17.9102 14.1912 17.8481 15.0294L17.8464 15.0278Z" fill="rgb(133,135,139)" fill-rule="nonzero" />
		<path id="Vector" d="M39.941 16.1206C39.8119 15.6761 39.6125 15.2546 39.5227 14.7987C39.521 14.7938 39.5178 14.7873 39.5145 14.7824C39.4851 14.717 39.4524 14.6516 39.4279 14.583C38.838 12.9425 38.173 11.333 37.392 9.77258C37.1926 9.37226 36.99 8.97357 36.789 8.57324C36.7776 8.55037 36.7662 8.52586 36.7531 8.50298C36.222 7.63534 35.7449 6.73338 35.1273 5.88208C35.0292 6.03241 34.9622 6.13044 34.9001 6.23012C34.5015 6.88207 34.1028 7.53403 33.7057 8.18599C33.6959 8.2056 33.6861 8.2252 33.6747 8.24481C32.9377 9.65003 32.2466 11.0765 31.6371 12.5422C31.6338 12.5503 31.6306 12.5585 31.6273 12.5667C31.6044 12.6418 31.5864 12.7186 31.557 12.7922C31.1649 13.7889 30.807 14.7987 30.4933 15.8216C30.4132 16.0846 30.294 16.3412 30.2891 16.6238L40.057 16.6238C40.057 16.4163 39.9835 16.2725 39.941 16.1206ZM39.4933 16.5013C39.3871 16.5062 39.2808 16.5013 39.1746 16.5013C36.4443 16.5013 33.7122 16.5013 30.9819 16.5013C30.7613 16.5013 30.5342 16.4654 30.3266 16.5814C30.3838 16.5144 30.4214 16.4359 30.4459 16.3493C30.794 15.1974 31.1812 14.0569 31.6077 12.9311C31.6534 12.8118 31.7188 12.686 31.6485 12.5569C31.7727 12.5226 31.807 12.4082 31.8495 12.3069C32.3904 11.0438 32.9557 9.79382 33.6191 8.58795C33.6812 8.47684 33.7645 8.36082 33.7204 8.22194C33.8397 8.16475 33.9132 8.0569 33.9753 7.94253C34.276 7.39841 34.6077 6.87227 34.9345 6.3445C35.0031 6.23502 35.0881 6.12881 35.0881 5.97358C35.5521 6.64678 35.9541 7.34612 36.3609 8.0422C36.4671 8.22357 36.5472 8.42782 36.7351 8.5422C36.6763 8.71049 36.7939 8.84285 36.8626 8.9752C37.8021 10.766 38.6191 12.6108 39.289 14.5209C39.3266 14.6304 39.3364 14.7824 39.5014 14.7938C39.49 14.8101 39.4769 14.8281 39.4671 14.8477C39.423 15.2938 39.6959 15.6549 39.8021 16.0618C39.8985 16.4294 39.8658 16.485 39.4916 16.4997L39.4933 16.5013Z" fill="rgb(133,135,139)" fill-rule="nonzero" />
		<path id="Vector" d="M94.3312 15.3875C94.3149 15.5051 94.3165 15.6244 94.31 15.7421C94.207 15.9626 94.2054 16.2061 94.1482 16.4365C93.743 18.095 92.9799 19.5541 91.774 20.7731C91.7365 20.8106 91.707 20.8548 91.6744 20.8956C91.6351 21.0002 91.5175 21.0149 91.4538 21.0901C91.3083 21.1472 91.2168 21.2682 91.1221 21.3842C91.1221 21.3842 91.1221 21.3842 91.1221 21.3858C90.6809 21.675 90.2642 22.0035 89.7838 22.2338C86.9963 23.5655 84.3737 23.2682 81.9048 21.4414C81.5421 21.1734 81.2234 20.8548 80.9113 20.5296C80.8493 20.4659 80.8133 20.3678 80.7022 20.3629C80.6842 20.3401 80.6663 20.3172 80.6483 20.2943C80.2071 19.7339 79.7986 19.1538 79.498 18.4986C79.0846 17.595 78.7757 16.6636 78.6287 15.68C78.6238 15.6489 78.6221 15.6162 78.6189 15.5836C78.6123 15.5247 78.6025 15.4659 78.5633 15.4153C78.5568 15.3417 78.5502 15.2666 78.5437 15.193C78.4865 14.5591 78.5029 13.9251 78.5355 13.2911C78.6352 12.4185 78.8427 11.5705 79.1123 10.7372C79.1156 10.7306 79.1189 10.7241 79.1205 10.7192C79.3051 10.332 79.4751 9.93816 79.6777 9.56235C80.0731 8.82379 80.5764 8.16203 81.1695 7.57053C81.2528 7.4872 81.3296 7.39733 81.4081 7.30909C81.4473 7.23883 81.4996 7.18328 81.578 7.1555C81.6793 7.11138 81.7659 7.04766 81.8362 6.96596C81.8525 6.94799 81.8672 6.93001 81.8819 6.9104C82.511 6.47086 83.1581 6.06074 83.8852 5.7944C85.9963 5.02479 88.0371 5.17839 90.011 6.25191C90.1727 6.34015 90.3345 6.42838 90.4963 6.51662C90.5322 6.54603 90.5698 6.5738 90.6057 6.60158C91.1531 7.02805 91.6923 7.46432 92.1531 7.99046C92.7528 8.6751 93.2087 9.44797 93.6106 10.2568C93.4293 10.2094 93.3884 10.0411 93.3198 9.90385C92.6956 8.66693 91.828 7.63426 90.7201 6.8042C90.6401 6.74374 90.5224 6.70452 90.4979 6.59505C90.3541 6.5689 90.2283 6.49864 90.1025 6.42838C87.4391 4.95453 84.8427 5.10976 82.3068 6.74537C82.1728 6.83197 82.0568 6.95452 81.8868 6.96759C81.8803 7.10975 81.7398 7.12772 81.6352 7.18001C81.6058 7.18001 81.5796 7.18001 81.5584 7.18818C81.5339 7.22576 81.5045 7.25681 81.4669 7.27968C81.4522 7.31563 81.4457 7.35648 81.4375 7.39896C81.1123 7.86955 80.6532 8.22085 80.3329 8.69798C79.9538 9.26006 79.5993 9.83196 79.3395 10.4594C79.2953 10.5656 79.3002 10.7257 79.1319 10.7355C79.194 10.8467 79.1614 10.9643 79.1238 11.0754C78.8803 11.8025 78.7627 12.5574 78.6303 13.3091C78.5552 13.9283 78.5568 14.5492 78.6303 15.1685C78.6516 15.2617 78.6614 15.3548 78.6532 15.4496C78.6532 15.4496 78.6532 15.4528 78.6532 15.4545C78.7186 15.51 78.7169 15.6081 78.7333 15.693C79.0421 17.2698 79.5306 18.7698 80.5633 20.041C80.627 20.1195 80.6908 20.2028 80.7022 20.3058C80.9326 20.3695 81.0731 20.5541 81.2316 20.711C82.3378 21.7992 83.6401 22.5329 85.1711 22.8123C87.0241 23.1521 88.7463 22.7976 90.3394 21.7861C90.5861 21.6293 90.7773 21.3482 91.1237 21.3776C91.127 21.1816 91.2773 21.1031 91.4162 21.0165C91.5208 20.9773 91.5943 20.9038 91.6531 20.8106C92.9309 19.4234 93.8051 17.8303 94.1449 15.961C94.1629 15.863 94.1694 15.729 94.3132 15.7372C94.1972 15.6211 94.2054 15.4724 94.2217 15.3287C94.4113 13.7094 94.2168 12.1408 93.6155 10.6228C93.5714 10.5133 93.5273 10.4006 93.5698 10.278C93.5845 10.2699 93.5992 10.2617 93.6155 10.2552C93.8524 10.9136 94.1008 11.5672 94.2299 12.2584C94.4227 13.2944 94.4783 14.3336 94.3377 15.3809L94.3312 15.3875Z" fill="rgb(133,135,139)" fill-rule="nonzero" />
		<path id="Vector" d="M8.48039 28.1715C8.40359 28.1683 8.35294 28.1487 8.36928 28.0817C8.38725 28.0082 8.41176 27.9183 8.50326 27.9101C8.57843 27.9036 8.61111 27.9706 8.61438 28.0408C8.62091 28.1503 8.53921 28.1601 8.48039 28.1715Z" fill="rgb(133,135,139)" fill-rule="nonzero" />
		<path id="Vector" d="M16.4082 19.647C16.4196 19.6111 16.4343 19.5784 16.4523 19.5473C16.4736 19.5114 16.4981 19.4787 16.5291 19.4493C16.5438 19.4346 16.5602 19.4199 16.5765 19.4084C16.6451 19.5767 16.5716 19.6437 16.4082 19.647Z" fill="rgb(133,135,139)" fill-rule="nonzero" />
		<path id="Vector" d="M91.4541 21.0882C91.5162 21.0098 91.5783 20.933 91.6747 20.8938C91.66 21.0262 91.5799 21.0833 91.4541 21.0882Z" fill="rgb(133,135,139)" fill-rule="nonzero" />
		<path id="Vector" d="M78.5325 13.2905C78.5358 13.9245 78.5374 14.5585 78.5407 15.1925C78.5194 15.1598 78.4818 15.1271 78.4802 15.0944C78.4573 14.5144 78.4426 13.9343 78.4884 13.3543C78.49 13.3314 78.5178 13.3118 78.5325 13.2905Z" fill="rgb(133,135,139)" fill-rule="nonzero" />
		<path id="Vector" d="M81.5749 7.15375C81.5683 7.16519 81.5618 7.17663 81.5552 7.18807C81.5307 7.22565 81.5013 7.2567 81.4637 7.27957C81.4458 7.29101 81.4278 7.29918 81.4066 7.30735C81.3918 7.16846 81.449 7.11781 81.5765 7.15375L81.5749 7.15375Z" fill="rgb(133,135,139)" fill-rule="nonzero" />
	</g>
</svg>
