<svg viewBox="0 0 150 70.3207" xmlns="http://www.w3.org/2000/svg" xmlns:xlink="http://www.w3.org/1999/xlink" width="150.000000" height="70.320679" fill="none" customFrame="#000000">
	<g id="gazprom-neft-logo-eng">
		<path id="Fill-20_00000085237022320856420790000016374724763305728133_" d="M76.3801 42.7045L81.8551 24.3445L76.4701 24.3445L76.4701 21.2695L86.8801 21.2695L86.8801 24.3295L81.4051 42.6445L87.1651 42.6445L87.1651 45.7945L76.3801 45.7945L76.3801 42.7045Z" fill="rgb(133,135,139)" fill-rule="evenodd" />
		<path id="Fill-22_00000064340441805321856840000009023294580507408553_" d="M62.145 45.7945L66.735 45.7945L67.17 39.2695L69.39 39.2695L69.825 45.7945L74.4 45.7945L71.955 21.2695L64.59 21.2695L62.145 45.7945ZM67.335 36.5845L68.145 24.3145L68.415 24.3145L69.225 36.5845L67.335 36.5845Z" fill="rgb(133,135,139)" fill-rule="evenodd" />
		<path id="Fill-24_00000049212803303148923710000003018774516268548226_" d="M89.8049 45.7945L94.4999 45.7945L94.4999 37.4545L97.1849 37.4545C100.47 37.4545 100.995 34.7845 100.995 33.0745L100.995 25.6495C100.995 23.9245 100.47 21.2695 97.1849 21.2695L89.8199 21.2695L89.8199 45.7945L89.8049 45.7945ZM94.4999 34.7545L94.4999 24.3145L95.7299 24.3145C96.2399 24.3145 96.5999 24.7645 96.5999 25.5295L96.5999 33.5245C96.5999 34.2895 96.2399 34.7395 95.7299 34.7395L94.4999 34.7395L94.4999 34.7545Z" fill="rgb(133,135,139)" fill-rule="evenodd" />
		<path id="Fill-26_00000099646415609988120480000016398917329924319658_" d="M108.33 24.3145L109.56 24.3145C110.07 24.3145 110.43 24.7645 110.43 25.5295L110.43 33.5245C110.43 34.2895 110.07 34.7395 109.56 34.7395L108.33 34.7395L108.33 24.3145ZM115.65 45.7945L113.385 36.7495C114.57 35.8345 114.81 34.2445 114.81 33.0745L114.81 25.6495C114.81 23.9245 114.285 21.2695 111 21.2695L103.635 21.2695L103.635 45.7945L108.33 45.7945L108.33 37.4545L109.11 37.4545L110.64 45.7945L115.65 45.7945Z" fill="rgb(133,135,139)" fill-rule="evenodd" />
		<path id="Fill-28_00000038383103218169695990000012911382960862421432_" d="M143.895 21.2695L150 21.2695L150 45.7945L145.305 45.7945L145.305 30.4045L145.14 30.4045L142.725 45.7945L138.975 45.7945L136.56 30.4045L136.395 30.4045L136.395 45.7945L131.7 45.7945L131.7 21.2695L137.805 21.2695L140.85 38.5045L143.895 21.2695Z" fill="rgb(133,135,139)" fill-rule="evenodd" />
		<path id="Fill-30_00000145768208591825020850000000727136404374876831_" d="M123.3 42.7645C122.73 42.7645 122.265 42.3295 122.265 41.7895C122.265 41.7745 122.265 41.7595 122.265 41.7595L122.265 25.3045C122.265 25.2895 122.265 25.2445 122.265 25.2295L122.265 25.1695C122.325 24.6745 122.76 24.2995 123.3 24.2995C123.84 24.2995 124.275 24.6745 124.335 25.1695L124.335 25.2295L124.335 25.3045L124.335 41.7445C124.335 41.7595 124.335 41.7745 124.335 41.7745C124.335 42.3295 123.87 42.7645 123.3 42.7645ZM125.235 21.2695L121.35 21.2695C118.065 21.2695 117.87 23.9395 117.87 25.6495L117.87 41.4145C117.87 43.1395 118.065 45.7945 121.35 45.7945L125.235 45.7945C128.52 45.7945 128.715 43.1245 128.715 41.4145L128.715 25.6495C128.715 23.9245 128.52 21.2695 125.235 21.2695Z" fill="rgb(133,135,139)" fill-rule="evenodd" />
		<path id="Fill-32_00000104705481415547985070000013063256643112821378_" d="M55.1847 29.0545L59.5797 29.0545L59.5797 25.6495C59.5797 23.9245 59.3847 21.2695 56.0997 21.2695L52.1997 21.2695C48.9147 21.2695 48.7197 23.9395 48.7197 25.6495L48.7197 41.4145C48.7197 43.1395 48.9147 45.7945 52.1997 45.7945L56.0847 45.7945C59.3697 45.7945 59.5647 43.1245 59.5647 41.4145L59.5647 33.7045L53.9547 33.7045L53.9547 36.4645L55.1847 36.4645L55.1847 41.7445C55.1847 41.7595 55.1847 41.7745 55.1847 41.7745C55.1847 42.3145 54.7197 42.7495 54.1497 42.7495C53.5797 42.7495 53.1147 42.3145 53.1147 41.7745C53.1147 41.7595 53.1147 41.7445 53.1147 41.7445L53.1147 25.3045C53.1147 25.2895 53.1147 25.2445 53.1147 25.2295L53.1147 25.1695C53.1747 24.6745 53.6097 24.2995 54.1497 24.2995C54.6897 24.2995 55.1247 24.6745 55.1847 25.1695L55.1847 25.2295L55.1847 25.3045L55.1847 29.0545Z" fill="rgb(133,135,139)" fill-rule="evenodd" />
		<path id="Fill-34_00000084510142860100422680000007093540689866289594_" d="M145.74 58.6357L143.865 58.6357L143.865 67.2907L141.51 67.2907L141.51 58.6357L139.5 58.6357L139.5 56.6107L145.755 56.6107L145.755 58.6357L145.74 58.6357ZM117.135 58.6357L113.745 58.6357L113.745 60.7357L116.775 60.7357L116.775 62.7607L113.745 62.7607L113.745 67.2907L111.18 67.2907L111.18 56.6257L117.135 56.6257L117.135 58.6357ZM88.5897 58.6357L85.1997 58.6357L85.1997 60.7357L88.2297 60.7357L88.2297 62.7607L85.1997 62.7607L85.1997 65.2657L88.5897 65.2657L88.5897 67.2907L82.6347 67.2907L82.6347 56.6257L88.5897 56.6257L88.5897 58.6357ZM59.6847 67.2907L57.2097 67.2907L55.0047 60.7957L54.9897 60.7957C55.1097 61.9207 55.4247 63.6157 55.4247 64.7707L55.4247 67.2907L52.9797 67.2907L52.9797 56.6257L55.4547 56.6257L57.6297 63.3307L57.6447 63.3307C57.5697 62.1457 57.2397 60.4657 57.2397 59.2957L57.2397 56.6407L59.6847 56.6407L59.6847 67.2907ZM48.7197 70.3207L150 70.3207L150 53.9707L48.7197 53.9707L48.7197 70.3207Z" fill="rgb(133,135,139)" fill-rule="evenodd" />
		<g id="Group-38_00000072241172909128544820000008799262071673729436_">
			<path id="Fill-36_00000134935138406390122190000015790144800161732994_" d="M38.7294 23.76C38.6694 26.25 38.3844 28.875 38.0094 30.435C38.1444 27.735 37.8144 23.91 37.1994 20.94C36.5844 17.955 34.8294 12.99 33.4344 10.68C32.1444 12.87 30.5544 17.175 29.7294 20.91C28.8894 24.645 28.8744 29.16 28.8744 30.525C28.6494 29.385 28.0944 25.305 28.2594 21.21C28.3944 17.835 29.1744 14.37 29.6094 12.765C31.2444 7.44 33.1044 4.035 33.4494 3.495C33.7944 4.035 36.1344 8.235 37.3494 12.645C38.5494 17.055 38.7894 21.27 38.7294 23.76ZM33.4644 42.795C32.7444 41.415 31.6044 38.79 31.4994 34.74C31.4694 30.825 33.0294 27.45 33.4794 26.76C33.8844 27.465 35.2344 30.39 35.3844 34.395C35.5044 38.31 34.2144 41.385 33.4644 42.795ZM39.1644 12.69C37.6944 6.165 33.9744 0.87 33.4644 0C32.6544 1.215 29.6994 5.895 28.1994 11.1C26.5644 16.89 26.3244 22.035 26.8794 27.09C27.4344 32.145 29.5644 37.335 29.5644 37.335C30.6894 40.065 32.3844 42.99 33.4794 44.415C35.0994 42.3 38.8044 36.015 39.9594 27.78C40.6194 23.22 40.6344 19.215 39.1644 12.69Z" fill="rgb(133,135,139)" fill-rule="evenodd" />
		</g>
		<path id="Fill-39_00000051380248934194189350000001441465150025227434_" d="M24.405 45.7954L24.405 53.5054C24.42 53.4904 24.42 53.4754 24.435 53.4754C27.105 50.7904 31.455 50.7904 34.14 53.4754C36.81 56.1604 36.81 60.5254 34.14 63.2104C34.125 63.2254 34.11 63.2254 34.11 63.2404C34.095 63.2554 34.08 63.2704 34.065 63.2854C31.395 65.9404 27.9 67.2754 24.405 67.2754C20.895 67.2754 17.4 65.9254 14.715 63.2554C10.005 58.5304 9.45 51.2104 13.035 45.8704C13.515 45.1504 14.07 44.4604 14.715 43.8304C17.4 41.1454 20.895 39.8104 24.405 39.8104L24.405 21.3904C10.92 21.3904 0 32.3554 0 45.8554C0 59.3704 10.92 70.3204 24.405 70.3204C31.425 70.3204 37.755 67.3354 42.21 62.5804L42.21 45.7954L24.405 45.7954Z" fill="rgb(133,135,139)" fill-rule="evenodd" />
	</g>
</svg>
