<svg viewBox="0 0 149.415 32.2111" xmlns="http://www.w3.org/2000/svg" xmlns:xlink="http://www.w3.org/1999/xlink" width="149.415039" height="32.211060" fill="none" customFrame="#000000">
	<g id="lukoil-logo-eng">
		<path id="_x3C_Path_x3E__00000106114050023613225870000012605691497849001118_" d="M0 1.15002L8.34525 1.15002L8.34525 23.8265L17.2949 23.8265L17.2949 30.9628L0 30.9628L0 1.15002Z" fill="rgb(133,135,139)" fill-rule="nonzero" />
		<path id="_x3C_Path_x3E__00000088842051460174355320000004089083010865943711_" d="M20.6685 18.9324L20.6685 1.15002L29.0137 1.15002L29.0137 18.7179C29.0137 20.5703 29.3257 24.6649 33.7908 24.6649C38.1974 24.6649 38.5678 20.5703 38.5678 18.7179L38.5678 1.15002L46.9131 1.15002L46.9131 18.9324C46.9131 22.1106 46.2307 31.8013 33.7908 31.8013C21.3509 31.8013 20.6685 22.0911 20.6685 18.9324Z" fill="rgb(133,135,139)" fill-rule="nonzero" />
		<path id="_x3C_Path_x3E__00000110431211735419067980000006168534137321370291_" d="M52.3135 1.15002L60.6587 1.15002L60.6587 13.6679L69.6474 1.15002L79.4355 1.15002L68.1266 15.5982L79.767 30.9628L69.3354 30.9628L60.6587 18.172L60.6587 30.9628L52.3135 30.9628L52.3135 1.15002Z" fill="rgb(133,135,139)" fill-rule="nonzero" />
		<path id="_x3C_Path_x3E__00000096020899095084994770000001516972219915448763_" d="M117.633 1.15002L125.978 1.15002L125.978 30.9628L117.633 30.9628L117.633 1.15002Z" fill="rgb(133,135,139)" fill-rule="nonzero" />
		<path id="_x3C_Path_x3E__00000119075875344102037410000013647278862633448608_" d="M132.12 1.15002L140.465 1.15002L140.465 23.8265L149.415 23.8265L149.415 30.9628L132.12 30.9628L132.12 1.15002Z" fill="rgb(133,135,139)" fill-rule="nonzero" />
		<path id="_x3C_Compound_Path_x3E_" d="M80.0405 16.0862C80.0405 7.93591 85.3051 0.00012207 96.4581 0.00012207C107.611 0.00012207 112.837 7.93591 112.837 16.0862C112.837 24.2364 107.631 32.2112 96.4581 32.2112C85.2856 32.2112 80.0405 24.2364 80.0405 16.0862ZM104.023 16.0862C104.023 10.2367 100.416 7.29247 96.4386 7.29247C92.4609 7.29247 88.8537 10.2172 88.8537 16.0862C88.8537 21.9746 92.4609 24.8799 96.4386 24.8799C100.416 24.8604 104.023 21.9746 104.023 16.0862Z" fill="rgb(133,135,139)" fill-rule="evenodd" />
	</g>
</svg>
