<svg viewBox="0 0 150 30.3727" xmlns="http://www.w3.org/2000/svg" xmlns:xlink="http://www.w3.org/1999/xlink" width="150.000488" height="30.372681" fill="none" customFrame="#000000">
	<mask id="mask_6" width="13.013188" height="16.817747" x="17.361328" y="13.338867" maskUnits="userSpaceOnUse">
		<g filter="url(#pixso_custom_mask_type_outline)">
			<g id="SVGID_00000147942022637102556940000013192186573825440641_">
				<path id="Vector" d="M19.5955 21.7369C16.8263 25.0169 17.2121 28.5539 17.7253 30.1566C22.0276 29.4241 25.9857 26.8518 28.337 22.7769C30.0518 19.8076 30.6491 16.498 30.2608 13.3389C29.7332 19.5241 25.6847 22.1893 19.5955 21.7369Z" fill="rgb(255,255,255)" fill-rule="nonzero" />
			</g>
		</g>
	</mask>
	<mask id="mask_5" width="11.697981" height="15.252613" x="18.562744" y="6.123047" maskUnits="userSpaceOnUse">
		<g filter="url(#pixso_custom_mask_type_outline)">
			<g id="SVGID_00000047059519590164143310000011281273620073556917_">
				<path id="Vector" d="M18.6027 8.87865C18.4906 9.41583 18.4938 10.7168 20.2943 12.655C22.7041 15.2553 24.5318 18.6017 24.1924 21.3757C27.6725 20.423 29.8804 17.7947 30.2607 13.3387C29.9405 10.7432 28.9558 8.24699 27.3771 6.12305C26.4764 7.05973 23.5223 9.71685 18.6027 8.87865Z" fill="rgb(255,255,255)" fill-rule="nonzero" />
			</g>
		</g>
	</mask>
	<mask id="mask_4" width="9.248556" height="19.265911" x="0.000000" y="9.896484" maskUnits="userSpaceOnUse">
		<g filter="url(#pixso_custom_mask_type_outline)">
			<g id="SVGID_00000040549995346578816530000006704267755617064076_">
				<path id="Vector" d="M0.952161 9.89648C-0.564926 13.989 -0.315942 18.7028 2.03695 22.7778C3.7502 25.7471 6.31766 27.9199 9.24856 29.1624C4.15447 25.6126 3.87348 20.7739 7.30875 15.7263C5.8525 11.6882 2.59656 10.2551 0.953773 9.89648L0.952161 9.89648Z" fill="rgb(255,255,255)" fill-rule="nonzero" />
			</g>
		</g>
	</mask>
	<mask id="mask_3" width="13.913660" height="10.484485" x="5.025879" y="19.888184" maskUnits="userSpaceOnUse">
		<g filter="url(#pixso_custom_mask_type_outline)">
			<g id="SVGID_00000152265736761949505030000011202033200497806239_">
				<path id="Vector" d="M9.24853 29.1621C11.6559 30.1828 14.3082 30.5767 16.9397 30.2725C16.5778 29.0244 15.7532 25.1368 18.9395 21.2948C18.532 20.9289 17.4024 20.2829 14.823 20.8721C11.3677 21.6599 7.55532 21.5694 5.32251 19.8882C4.40744 23.3787 5.58029 26.605 9.24853 29.1621Z" fill="rgb(255,255,255)" fill-rule="nonzero" />
			</g>
		</g>
	</mask>
	<mask id="mask_2" width="20.831055" height="8.250112" x="6.052979" y="0.000000" maskUnits="userSpaceOnUse">
		<g filter="url(#pixso_custom_mask_type_outline)">
			<g id="SVGID_00000011724620007726745450000013102170316734895280_">
				<path id="Vector" d="M6.05298 3.05421C11.6731 0.416292 16.005 2.59147 18.6589 8.08904C22.8827 8.84799 25.7528 6.74647 26.8832 5.50158C26.8832 5.50077 26.884 5.50077 26.884 5.50077C24.0988 2.13914 19.8934 0 15.1876 0C11.7587 2.39917e-07 8.59483 1.13603 6.05298 3.05421Z" fill="rgb(255,255,255)" fill-rule="nonzero" />
			</g>
		</g>
	</mask>
	<mask id="mask_1" width="14.800285" height="13.442493" x="1.246094" y="1.936523" maskUnits="userSpaceOnUse">
		<g filter="url(#pixso_custom_mask_type_outline)">
			<g id="SVGID_00000032610437516334450790000005649016274686216322_">
				<path id="Vector" d="M6.05276 3.05413C3.96485 4.62807 2.29646 6.72797 1.24609 9.15854C2.50782 9.46916 6.28733 10.6988 8.019 15.379C8.54015 15.2093 9.66577 14.5536 10.4455 12.0254C11.4895 8.63975 13.4733 5.38301 16.0464 4.28861C14.5029 2.7619 12.6623 1.93652 10.56 1.93652C9.16942 1.93652 7.66433 2.29677 6.05276 3.05413Z" fill="rgb(255,255,255)" fill-rule="nonzero" />
			</g>
		</g>
	</mask>
	<defs>
		<filter id="pixso_custom_mask_type_outline">
			<feColorMatrix type="matrix" values="0 0 0 0 1 0 0 0 0 1 0 0 0 0 1 0 0 0 1 0 " />
		</filter>
	</defs>
	<mask id="mask_0" width="6.379643" height="6.380581" x="11.997070" y="11.995605" maskUnits="userSpaceOnUse">
		<g filter="url(#pixso_custom_mask_type_outline)">
			<g id="SVGID_00000145760530676592442880000012544893010264714125_">
				<path id="Vector" d="M12.8167 13.0491C11.6382 14.3557 11.7431 16.3748 13.0504 17.5548C14.3594 18.7341 16.3761 18.6316 17.5577 17.3243C18.7354 16.0161 18.6305 13.9994 17.3239 12.8186C16.7131 12.2686 15.9486 11.9956 15.1856 11.9956C14.3138 11.9956 13.4459 12.3511 12.8167 13.0491Z" fill="rgb(255,255,255)" fill-rule="nonzero" />
			</g>
		</g>
	</mask>
	<g id="rosatom-logo-eng">
		<g id="Слой_1">
			<path id="Vector" d="M40.1969 16.8334L40.1969 23.1411L36.7695 23.1411L36.7695 7.14453L42.2079 7.14453C44.234 7.14453 45.7685 7.51397 46.8127 8.2529C47.8554 8.99183 48.3775 10.161 48.3775 11.7604C48.3775 12.355 48.2981 12.8805 48.1379 13.337C47.9784 13.7948 47.7567 14.1947 47.4749 14.5372C47.1931 14.8797 46.8658 15.1656 46.4922 15.3935C46.1186 15.6228 45.7195 15.8051 45.2934 15.9425C45.6428 16.0793 45.9397 16.2781 46.1842 16.5364C46.4273 16.7961 46.6828 17.1883 46.9494 17.7139C47.216 18.2394 47.5322 18.9362 47.8976 19.8043C48.2635 20.673 48.7435 21.7848 49.3381 23.1411L45.6815 23.1411C45.1332 21.9526 44.7174 20.9548 44.4357 20.1475C44.1539 19.3395 43.8949 18.6924 43.6594 18.2049C43.4226 17.7173 43.156 17.3672 42.8584 17.1538C42.5621 16.9404 42.1236 16.8334 41.5449 16.8334L40.1969 16.8334ZM40.1278 13.9999L42.116 13.9999C42.4972 13.9999 42.8549 13.9695 43.1906 13.9088C43.5255 13.848 43.8114 13.7451 44.0476 13.6001C44.2831 13.4557 44.4702 13.2575 44.6076 13.0062C44.7444 12.7548 44.8134 12.4316 44.8134 12.0352C44.8134 11.3343 44.5731 10.846 44.0931 10.5719C43.6132 10.2984 42.8929 10.161 41.9337 10.161L40.1278 10.161L40.1278 13.9999Z" fill="rgb(133,135,139)" fill-rule="nonzero" />
			<path id="Vector" d="M59.6442 23.4148C58.4854 23.4148 57.4309 23.236 56.4793 22.8783C55.5263 22.5206 54.7079 21.9909 54.0222 21.2906C53.3365 20.5897 52.8068 19.7251 52.4345 18.6961C52.0609 17.6678 51.8738 16.4835 51.8738 15.1431C51.8738 13.8027 52.0686 12.6176 52.4566 11.5893C52.8461 10.5611 53.3827 9.69716 54.0678 8.99552C54.7535 8.29529 55.5642 7.76561 56.5014 7.40789C57.4385 7.05016 58.4557 6.87061 59.5524 6.87061C60.7871 6.87061 61.8872 7.06121 62.8547 7.44171C63.8222 7.82291 64.637 8.36711 65.2994 9.07565C65.9623 9.78418 66.4692 10.6522 66.8193 11.6805C67.1695 12.7088 67.3448 13.8634 67.3448 15.1431C67.3448 16.5601 67.1508 17.7901 66.762 18.8335C66.3739 19.8777 65.8332 20.7382 65.1398 21.4156C64.4458 22.0938 63.6316 22.5965 62.6945 22.9238C61.7574 23.2512 60.7409 23.4148 59.6442 23.4148ZM59.7582 20.3991C60.3376 20.3991 60.87 20.2927 61.3575 20.0793C61.8451 19.866 62.2643 19.5421 62.6144 19.1077C62.9652 18.6733 63.2352 18.1291 63.4258 17.4738C63.6164 16.8184 63.7117 16.0422 63.7117 15.1431C63.7117 13.3303 63.3298 12.0009 62.5688 11.155C61.8071 10.3097 60.8016 9.88707 59.5524 9.88707C58.9889 9.88707 58.4592 9.99411 57.964 10.2068C57.4689 10.4202 57.0386 10.7441 56.6726 11.1785C56.3073 11.6128 56.0221 12.1605 55.8163 12.8234C55.6105 13.4864 55.5076 14.2598 55.5076 15.1431C55.5076 16.0422 55.6181 16.8184 55.8398 17.4738C56.0601 18.1291 56.3605 18.6733 56.7417 19.1077C57.1222 19.5421 57.5718 19.866 58.0897 20.0793C58.6077 20.2927 59.1642 20.3991 59.7582 20.3991Z" fill="rgb(133,135,139)" fill-rule="nonzero" />
			<path id="Vector" d="M70.9334 19.3473C71.1156 19.4695 71.3484 19.5952 71.6301 19.7243C71.9119 19.8535 72.2275 19.9757 72.5783 20.0897C72.9284 20.2043 73.2986 20.2955 73.6867 20.3638C74.0748 20.4329 74.4753 20.4667 74.8869 20.4667C75.7847 20.4667 76.4435 20.3065 76.8627 19.9868C77.2819 19.667 77.4911 19.2105 77.4911 18.616C77.4911 18.281 77.4421 18.0027 77.3426 17.7817C77.2439 17.5614 77.092 17.3667 76.8862 17.1989C76.6803 17.0318 76.4097 16.8833 76.0747 16.7535C75.7391 16.6243 75.3351 16.4752 74.8634 16.3081L74.3151 16.125C73.0507 15.6989 72.1246 15.112 71.5383 14.3654C70.9513 13.6196 70.6585 12.6818 70.6585 11.5548C70.6585 10.8235 70.7994 10.1688 71.0812 9.58939C71.3629 9.01068 71.7558 8.51898 72.2586 8.11569C72.7607 7.71169 73.3511 7.403 74.0292 7.18962C74.7067 6.97691 75.4497 6.86987 76.2577 6.86987C77.3088 6.86987 78.2114 6.95828 78.9655 7.13436C79.7203 7.31046 80.3253 7.49761 80.7824 7.69651L79.9827 10.6356C79.4178 10.3787 78.8357 10.1895 78.2341 10.068C77.632 9.9471 77.0795 9.88634 76.5775 9.88634C75.8006 9.88634 75.2067 10.0113 74.7951 10.2613C74.3835 10.5113 74.1777 10.9015 74.1777 11.4312C74.1777 11.7039 74.2198 11.9346 74.3041 12.1238C74.387 12.313 74.5402 12.4871 74.7606 12.6466C74.9815 12.8054 75.2826 12.9684 75.6632 13.1348C76.0443 13.3013 76.5319 13.4829 77.1258 13.6797L77.7203 13.8855C78.4206 14.1293 79 14.411 79.4572 14.7307C79.9136 15.0505 80.2714 15.402 80.531 15.7818C80.79 16.1637 80.9724 16.5746 81.0787 17.0159C81.1857 17.4586 81.2396 17.9233 81.2396 18.4102C81.2396 19.2182 81.0911 19.9336 80.7935 20.5586C80.4965 21.1829 80.0815 21.7084 79.5477 22.1352C79.0145 22.562 78.3861 22.8817 77.6631 23.0951C76.9386 23.3078 76.1507 23.4148 75.2978 23.4148C74.8096 23.4148 74.3227 23.3837 73.8351 23.3237C73.3476 23.2622 72.8829 23.1828 72.4409 23.0833C71.9989 22.9846 71.5881 22.8665 71.2075 22.7291C70.8263 22.5923 70.4983 22.448 70.2249 22.2954L70.9334 19.3473Z" fill="rgb(133,135,139)" fill-rule="nonzero" />
			<path id="Vector" d="M94.2418 19.644L88.0943 19.644L86.9513 23.1404L83.5696 23.1404L89.0314 7.14453L93.4876 7.14453L98.8805 23.1404L95.3847 23.1404L94.2418 19.644ZM89.0314 16.6276L93.3047 16.6276L91.1798 9.90961L89.0314 16.6276Z" fill="rgb(133,135,139)" fill-rule="nonzero" />
			<path id="Vector" d="M106.788 23.1411L103.359 23.1411L103.359 10.2984L98.8123 10.2984L98.8123 7.14453L111.312 7.14453L111.312 10.2984L106.788 10.2984L106.788 23.1411Z" fill="rgb(133,135,139)" fill-rule="nonzero" />
			<path id="Vector" d="M120.796 23.4148C119.637 23.4148 118.582 23.236 117.631 22.8783C116.678 22.5206 115.859 21.9909 115.174 21.2906C114.488 20.5897 113.958 19.7251 113.586 18.6961C113.212 17.6678 113.026 16.4835 113.026 15.1431C113.026 13.8027 113.22 12.6176 113.608 11.5893C113.998 10.5611 114.534 9.69716 115.22 8.99552C115.905 8.29529 116.716 7.76561 117.653 7.40789C118.59 7.05016 119.607 6.87061 120.704 6.87061C121.939 6.87061 123.039 7.06121 124.006 7.44171C124.974 7.82291 125.788 8.36711 126.451 9.07565C127.114 9.78418 127.621 10.6522 127.971 11.6805C128.321 12.7088 128.496 13.8634 128.496 15.1431C128.496 16.5601 128.303 17.7901 127.913 18.8335C127.525 19.8777 126.985 20.7382 126.291 21.4156C125.598 22.0938 124.783 22.5965 123.846 22.9238C122.909 23.2512 121.892 23.4148 120.796 23.4148ZM120.91 20.3991C121.489 20.3991 122.021 20.2927 122.509 20.0793C122.996 19.866 123.416 19.5421 123.766 19.1077C124.117 18.6733 124.387 18.1291 124.578 17.4738C124.768 16.8184 124.863 16.0422 124.863 15.1431C124.863 13.3303 124.482 12.0009 123.72 11.155C122.958 10.3097 121.953 9.88707 120.704 9.88707C120.14 9.88707 119.61 9.99411 119.116 10.2068C118.62 10.4202 118.19 10.7441 117.824 11.1785C117.459 11.6128 117.173 12.1605 116.968 12.8234C116.762 13.4864 116.659 14.2598 116.659 15.1431C116.659 16.0422 116.769 16.8184 116.991 17.4738C117.211 18.1291 117.512 18.6733 117.894 19.1077C118.274 19.5421 118.723 19.866 119.241 20.0793C119.759 20.2927 120.316 20.3991 120.91 20.3991Z" fill="rgb(133,135,139)" fill-rule="nonzero" />
			<path id="Vector" d="M150 23.1411L146.55 23.1411L145.681 12.5152L142.392 23.1411L139.123 23.1411L135.878 12.5607L135.009 23.1411L131.56 23.1411L133.158 7.14453L137.249 7.14453L140.859 19.211L144.425 7.14453L148.377 7.14453L150 23.1411Z" fill="rgb(133,135,139)" fill-rule="nonzero" />
		</g>
		<g id="Слой_2">
			<g id="Group">
				<g id="Clip path group" mask="url(#mask_0)">
					<path id="Vector" d="M18.7348 11.9956L11.6377 11.9956L11.6377 18.7341L18.7348 18.7341L18.7348 11.9956Z" fill="rgb(133,135,139)" fill-rule="evenodd" />
				</g>
			</g>
			<g id="Group">
				<g id="Clip path group" mask="url(#mask_1)">
					<path id="Vector" d="M-4.89478 11.3917L5.63563 -4.82373L22.1858 5.92412L11.6554 22.1395L-4.89478 11.3917Z" fill="rgb(133,135,139)" fill-rule="nonzero" />
				</g>
			</g>
			<g id="Group">
				<g id="Clip path group" mask="url(#mask_2)">
					<path id="Vector" d="M8.97662 -7.23486L29.9576 1.24201L23.9612 16.0836L2.98022 7.60676L8.97662 -7.23486Z" fill="rgb(133,135,139)" fill-rule="nonzero" />
				</g>
			</g>
			<g id="Group">
				<g id="Clip path group" mask="url(#mask_3)">
					<path id="Vector" d="M18.8997 31.3359L3.84888 30.5473L4.44716 19.1287L19.498 19.9172L18.8997 31.3359Z" fill="rgb(133,135,139)" fill-rule="nonzero" />
				</g>
			</g>
			<g id="Group">
				<g id="Clip path group" mask="url(#mask_4)">
					<path id="Vector" d="M-0.374679 30.5146L-3.22021 10.2693L9.0586 8.54346L11.9041 28.7887L-0.374679 30.5146Z" fill="rgb(133,135,139)" fill-rule="nonzero" />
				</g>
			</g>
			<g id="Group">
				<g id="Clip path group" mask="url(#mask_5)">
					<path id="Vector" d="M27.8345 1.36255L36.43 18.2327L20.916 26.1372L12.3206 9.26708L27.8345 1.36255Z" fill="rgb(133,135,139)" fill-rule="nonzero" />
				</g>
			</g>
			<g id="Group">
				<g id="Clip path group" mask="url(#mask_6)">
					<path id="Vector" d="M38.8077 23.783L22.065 36.8634L8.66675 19.714L25.4094 6.63354L38.8077 23.783Z" fill="rgb(133,135,139)" fill-rule="nonzero" />
				</g>
			</g>
		</g>
	</g>
</svg>
