<svg viewBox="0 0 150 28.3809" xmlns="http://www.w3.org/2000/svg" xmlns:xlink="http://www.w3.org/1999/xlink" width="149.999512" height="28.380859" fill="none" customFrame="#000000">
	<g id="Group 7">
		<path id="Vector" d="M25.6866 0.052002L18.5002 0.052002L14.178 0.052002L13.501 0.052002L5.63769 0.052002C3.19016 0.052002 2.04451 1.71841 1.88828 3.28066C1.78413 4.21801 0.11773 23.4337 0.0135801 24.5794C-0.142645 26.3499 1.05508 28.3809 3.29431 28.3809L11.7305 28.3809L15.2716 28.3809L23.2912 28.3809C25.947 28.3809 26.9885 26.9748 27.1968 24.8398C27.353 23.5379 27.9779 15.7266 27.9779 15.7266L15.8965 15.7266L15.3757 21.7673L12.3033 21.7673L13.6052 6.71762L16.6776 6.71762L16.2089 12.3417L28.2904 12.3417C28.2904 12.3417 29.0194 4.37424 29.0715 3.59311C29.1236 2.29123 28.1341 0.052002 25.6866 0.052002Z" fill="rgb(133,135,139)" fill-rule="nonzero" />
		<path id="Vector" d="M46.8811 2.44753C46.4645 3.69733 42.9234 14.6852 42.9234 14.6852L44.4856 0L32.4042 0L29.8525 28.3289L38.9657 28.3289C41.257 28.3289 42.0381 27.027 42.4026 25.9855C42.8713 24.7357 46.2041 15.5184 46.2041 15.5184L44.9543 28.3289L57.0357 28.3289L59.5353 0C59.5353 0 50.8909 0 50.0577 0C48.0268 0.0520751 47.1936 1.56225 46.8811 2.44753Z" fill="rgb(133,135,139)" fill-rule="nonzero" />
		<path id="Vector" d="M106.924 12.9666L103.851 12.9666L104.997 0.052002L92.9153 0.052002C92.9153 0.052002 91.7697 13.6957 91.6134 15.0496C91.4572 16.6119 92.3425 18.8511 95.0504 18.8511L106.403 18.8511L106.142 21.7153L91.0406 21.7153L90.4678 28.3809L106.038 28.3809L106.715 28.3809L114.474 28.3809C116.089 28.3809 117.651 27.3394 117.911 25.0481C118.068 23.59 120.151 0.052002 120.151 0.052002L108.069 0.052002L106.924 12.9666Z" fill="rgb(133,135,139)" fill-rule="nonzero" />
		<path id="Vector" d="M146.396 0.052002L139.522 0.052002L135.2 0.052002L123.119 0.052002L120.619 28.3809L132.701 28.3809L133.482 19.6322L137.804 19.6322L137.023 19.6322L145.199 19.6322C147.282 19.6322 148.636 18.5907 148.896 16.1432C149 15.2059 149.937 4.47839 149.99 3.54103C150.146 1.40596 148.479 0.052002 146.396 0.052002ZM137.023 13.6957L134.002 13.6957L134.627 6.66554L137.648 6.66554L137.023 13.6957Z" fill="rgb(133,135,139)" fill-rule="nonzero" />
		<path id="Vector" d="M74.0642 0.052002L62.6598 0.052002L60.1602 28.3809L64.6907 28.3809C64.6907 28.3809 82.7608 28.3809 84.2709 28.3809C85.7811 28.3809 87.4475 27.4956 87.6558 25.1001C87.812 23.3296 88.5411 14.8934 88.6973 13.3832C88.8535 11.3523 87.6037 9.58175 85.0521 9.58175L73.908 9.58175L74.1684 6.71762L89.2701 6.71762L89.843 0.104077L74.7412 0.104077L74.0642 0.052002ZM76.4597 15.4142L75.8348 22.4443L72.7623 22.4443L73.3872 15.4142L76.4597 15.4142Z" fill="rgb(133,135,139)" fill-rule="nonzero" />
	</g>
</svg>
