<svg viewBox="0 0 50 63.9984" xmlns="http://www.w3.org/2000/svg" xmlns:xlink="http://www.w3.org/1999/xlink" width="50.000000" height="63.998413" fill="none" customFrame="#000000">
	<g id="Black">
		<path id="Vector" d="M14.5116 33.9834C14.4095 33.8643 14.2053 33.2006 14.0521 32.5029C13.882 31.8052 13.6778 31.1415 13.5586 31.0394C13.4565 30.9203 12.946 30.6991 12.4355 30.5459C11.925 30.3757 11.1422 30.0694 10.6997 29.8482C10.2573 29.627 9.81485 29.4398 9.71274 29.4398C9.61064 29.4398 9.03206 29.7801 8.45347 30.2056C7.85787 30.631 7.1942 30.9713 6.97297 30.9713C6.7007 30.9713 6.05404 30.4438 4.89687 29.2866C2.97393 27.3467 2.99094 27.4998 4.19917 25.662L4.93091 24.5218L4.48846 23.739C4.25022 23.2966 3.87584 22.3947 3.67163 21.731L3.28024 20.5057L1.86781 20.1994C1.01695 20.0293 0.353275 19.791 0.234155 19.6209C-0.0891725 19.1954 -0.0721553 14.9071 0.251172 14.6518C0.38731 14.5327 1.11905 14.3115 1.86781 14.1583L3.2462 13.869L3.51848 12.9501C3.67163 12.4396 4.04601 11.5036 4.35232 10.891L4.93091 9.75087L4.19917 8.66176C3.00796 6.89197 2.97393 7.02811 4.87985 5.08815C6.03703 3.91396 6.66666 3.40344 6.93894 3.40344C7.16016 3.40344 7.85787 3.74379 8.4875 4.16922L9.64468 4.93499L10.989 4.37343C11.7378 4.0501 12.6567 3.69274 13.0311 3.5566C13.6948 3.31836 13.7118 3.28432 14.0011 1.95698C14.4265 0.0510516 14.5116 0 17.1152 0C19.7189 0 19.804 0.0510516 20.2294 1.95698L20.5357 3.31836L21.7099 3.76081C22.3736 3.99905 23.2755 4.37343 23.7179 4.59465L24.5347 4.98604L25.6919 4.18624C26.3215 3.7608 27.0363 3.40344 27.2745 3.40344C27.5808 3.40344 28.1254 3.86291 29.3336 5.08815C30.2355 6.00708 30.9843 6.80689 30.9843 6.87496C30.9843 7.09618 30.4567 8.03213 29.8611 8.84895L29.2825 9.64876L29.691 10.3975C29.9122 10.8059 30.3036 11.7419 30.5588 12.4566C31.0694 13.9031 31.0183 13.852 32.8562 14.2094C33.1795 14.2774 33.6219 14.4306 33.8432 14.5667C34.2005 14.805 34.2175 14.9071 34.2175 17.0683C34.2175 18.2935 34.1495 19.4166 34.0644 19.5528C33.9793 19.6889 33.2476 19.9612 32.4307 20.1484L30.9502 20.5057L30.5588 21.731C30.3546 22.3947 29.9803 23.2966 29.742 23.722L29.2996 24.5048L30.1504 25.8492C30.729 26.7681 30.9843 27.3126 30.9162 27.5339C30.8481 27.704 30.0994 28.5549 29.2145 29.4058C28.1084 30.4949 27.4957 30.9713 27.2235 30.9713C27.0022 30.9713 26.2875 30.614 25.6409 30.1885L24.4837 29.4058L23.3435 29.9163C22.7309 30.1885 21.829 30.5459 21.3525 30.6991L20.4846 30.9884L20.1954 32.3667C20.0592 33.1155 19.838 33.8472 19.7359 33.9664C19.4636 34.2897 14.7839 34.3067 14.5116 33.9834ZM19.821 27.9082C21.9141 27.3807 23.3776 26.5298 25.0282 24.8622C27.3085 22.5818 28.2615 20.2845 28.2615 17.1023C28.2615 14.4646 27.4957 12.2524 25.8961 10.2614C23.7179 7.55564 20.6548 6.09216 17.2003 6.07515C14.0692 6.07515 11.3464 7.18127 9.20223 9.34245C3.12708 15.4857 6.02001 25.8662 14.3584 27.9253C16.0431 28.3337 18.1873 28.3337 19.821 27.9082Z" fill="rgb(255,46,23)" fill-rule="nonzero" transform="matrix(1,0,0,-1,7.92578,34.2174)" />
		<path id="Vector" d="M8.75917 19.8912C6.37676 19.5849 4.24961 18.4788 2.58192 16.6749C0.573892 14.4967 -0.311003 11.6378 0.09741 8.65982C0.914236 2.72081 6.73412 -1.17613 12.571 0.321386C15.9234 1.17225 18.5781 3.67378 19.6502 6.97512C20.2118 8.67684 20.2288 11.1103 19.6842 12.829C18.2378 17.4747 13.558 20.5038 8.75917 19.8912ZM12.8603 18.7C15.549 17.8832 17.8804 15.6369 18.8163 12.9822C20.5691 7.99615 17.5401 2.43152 12.3328 1.08716C10.8523 0.695765 8.41883 0.814885 6.9043 1.34242C1.85018 3.11221 -0.617313 9.0342 1.68001 13.8671C3.65401 18.0363 8.40181 20.0784 12.8603 18.7Z" fill="rgb(255,46,23)" fill-rule="nonzero" transform="matrix(1,0,0,-1,15.0049,27.0513)" />
		<path id="Vector" d="M9.66578 7.97482C8.57668 7.8557 8.35545 7.71956 8.61071 7.31115C8.74685 7.12396 8.96807 7.03887 9.2914 7.08993L9.7849 7.14098L9.44456 6.74958C9.25737 6.52836 8.67878 5.8817 8.16826 5.32014C7.65775 4.75857 6.94302 3.97578 6.58566 3.56736L5.93901 2.83562L5.00306 3.68648C4.47553 4.16296 3.94799 4.55436 3.82887 4.55436C3.48853 4.55436 0 0.776539 0 0.419177C0 0.249005 0.136138 0.0618155 0.289293 0.0107638C0.510517 -0.0743223 1.00402 0.334091 2.21224 1.6274L3.84589 3.34614L4.91798 2.39317L5.97304 1.44021L6.60268 2.06985C6.94302 2.41019 7.93002 3.48228 8.76387 4.45226C9.61473 5.43926 10.3465 6.23907 10.4316 6.23907C10.4996 6.25608 10.5507 6.11995 10.5507 5.93276C10.5507 5.50733 11.0101 5.11593 11.2484 5.35417C11.3335 5.43926 11.4015 6.08591 11.3675 6.78362C11.3164 8.21306 11.3675 8.16201 9.66578 7.97482Z" fill="rgb(255,46,23)" fill-rule="nonzero" transform="matrix(1,0,0,-1,19,20.053)" />
		<path id="Vector" d="M0.544551 6.24532L0 5.68375L0 2.84188L0 0L0.782792 0L1.5826 0L1.46348 0.901913C1.41243 1.37839 1.36138 2.90994 1.36138 4.30536C1.36138 5.68375 1.29331 6.80689 1.22524 6.80689C1.15717 6.80689 0.850861 6.55163 0.544551 6.24532Z" fill="rgb(255,46,23)" fill-rule="nonzero" transform="matrix(1,0,0,-1,28.1895,22.1353)" />
		<path id="Vector" d="M0.646654 3.82887C0 3.09713 0 3.08012 0 1.54857L0 0L0.765775 0L1.53155 0L1.53155 2.29732C1.53155 3.5566 1.4805 4.59465 1.41243 4.59465C1.32734 4.57763 0.986999 4.2543 0.646654 3.82887Z" fill="rgb(255,46,23)" fill-rule="nonzero" transform="matrix(1,0,0,-1,25.9766,22.1353)" />
		<path id="Vector" d="M0.629637 3.43748C0 2.80784 0 2.77381 0 1.39541L0 0L0.680689 0L1.36138 0L1.36138 2.04207C1.36138 3.1652 1.34436 4.08413 1.31033 4.08413C1.27629 4.08413 0.969981 3.79484 0.629637 3.43748Z" fill="rgb(255,46,23)" fill-rule="nonzero" transform="matrix(1,0,0,-1,21.5527,22.1353)" />
		<path id="Vector" d="M0 1.63365L0 0L0.680689 0L1.36138 0L1.36138 1.25927C1.36138 2.29732 1.31033 2.53557 1.07208 2.60363C0.901913 2.6717 0.595603 2.84188 0.391396 2.99503L0 3.26731L0 1.63365Z" fill="rgb(255,46,23)" fill-rule="nonzero" transform="matrix(1,0,0,-1,23.7646,22.1353)" />
		<path id="Vector" d="M0.646654 1.29331C0.272275 0.969981 0 0.578585 0 0.357362C0 0.0510516 0.102103 0 0.680689 0L1.36138 0L1.36138 0.935947C1.36138 1.44646 1.34436 1.87189 1.32734 1.87189C1.29331 1.85488 0.986999 1.59962 0.646654 1.29331Z" fill="rgb(255,46,23)" fill-rule="nonzero" transform="matrix(1,0,0,-1,19.3398,22.1353)" />
		<path id="Vector" d="M3.92281 52.0563C3.71861 51.9542 3.46335 51.6649 3.34423 51.4097C3.03792 50.763 0.315162 43.0032 0.076921 42.1523C-0.0592167 41.5907 -0.0251823 40.5527 0.26411 37.2684C0.4513 34.971 0.672524 32.5206 0.723575 31.8229C0.791644 31.1252 0.927782 30.2913 1.06392 29.985C1.18304 29.6957 2.61249 27.7047 4.24614 25.5605C8.10905 20.5234 8.61956 19.7066 8.89184 18.175C8.99394 17.5624 8.97692 17.5454 8.43237 17.4944C7.81975 17.4433 7.85379 17.5284 7.53046 15.4863C7.42836 14.9248 7.39432 14.8907 6.79872 14.8907L6.16908 14.8907L5.36928 9.70047C4.94385 6.84158 4.6035 4.45917 4.65455 4.3911C4.82472 4.08479 5.1991 4.289 5.28419 4.73145C5.33524 4.98671 5.6926 7.21596 6.06698 9.70047C6.45838 12.168 6.7817 14.21 6.79872 14.2271C6.81574 14.2441 9.50446 13.8016 12.7718 13.2571C16.0391 12.7125 19.1192 12.219 19.6297 12.151C20.1402 12.0999 20.5997 11.9467 20.6337 11.8276C20.6848 11.7085 20.3785 9.22399 19.953 6.29703C19.5276 3.38709 19.1702 0.783453 19.1702 0.49416C19.1702 -0.101442 19.6297 -0.186528 19.7658 0.392057C20.0041 1.41309 21.5186 12.3211 21.4505 12.4402C21.3995 12.5253 20.9911 12.6274 20.5316 12.6955C19.5957 12.8146 19.6127 12.7636 19.8339 14.2951C19.9871 15.3672 19.936 15.6565 19.5276 15.6565C18.8639 15.6735 18.8299 15.8267 19.0852 17.9538C19.5276 21.5104 19.3574 23.1611 18.3364 25.4244C17.4004 27.4835 15.7498 29.4745 13.5546 31.1932C10.8658 33.2863 10.3043 34.0691 9.21517 37.2514C8.78974 38.4936 8.31325 39.7529 8.1601 40.0592C7.64958 41.0802 6.69662 42.0672 5.91383 42.4246C5.4884 42.6118 5.11402 42.7819 5.07998 42.799C5.04595 42.833 5.38629 44.1774 5.82874 45.811C6.69662 48.9762 6.81574 50.1334 6.35627 51.0013C5.86277 51.9372 4.68859 52.4477 3.92281 52.0563ZM5.43734 51.1204C6.20312 50.3546 6.1861 49.8101 5.30121 46.3726L4.5014 43.2754L3.83773 42.9862C2.37425 42.3395 2.01688 40.9611 2.71459 38.5276C2.95283 37.6938 3.31019 36.4175 3.5144 35.6687C3.76966 34.7158 4.19509 33.7798 5.04595 32.3674C6.22014 30.4445 7.08801 28.2492 7.08801 27.2452C7.08801 26.9729 7.20713 26.6496 7.36029 26.5305C7.83677 26.1391 8.09203 26.7177 7.92186 27.7557C7.63257 29.5426 7.00293 31.0571 5.53945 33.3714C4.97788 34.2904 4.6035 35.1242 4.36526 36.1112C4.16105 36.894 3.80369 38.1873 3.58247 39.0041C3.19107 40.3655 3.17405 40.5187 3.4123 41.0632C3.70159 41.7609 4.11 42.0332 4.92683 42.0332C6.33926 42.0332 7.49643 40.4336 8.68763 36.8429C9.02798 35.8219 9.52148 34.5796 9.79375 34.1032C10.2873 33.2693 11.8358 31.7208 14.0651 29.8999C15.4775 28.7427 16.6006 27.3473 17.4685 25.6967C18.3364 23.9949 18.6597 22.7357 18.6597 20.9318C18.6427 19.5364 18.2853 16.0649 18.1322 15.9458C18.0641 15.8777 10.6786 17.0689 9.91287 17.2561C9.57253 17.3412 9.50446 17.4944 9.41937 18.3793C9.30025 19.7236 8.68763 20.8127 6.06698 24.2502C1.31918 30.4785 1.64251 30.002 1.47233 31.0741C1.20006 32.7588 0.57042 40.859 0.655506 41.5907C0.740592 42.3225 3.76966 50.9842 4.05895 51.3586C4.34824 51.699 4.96086 51.5969 5.43734 51.1204ZM19.1022 14.9248C19.1532 14.8737 19.1362 14.4313 19.0511 13.9207C18.932 13.172 18.8469 13.0188 18.5746 13.0529C18.3874 13.0529 15.988 13.4443 13.2312 13.8867L8.24518 14.7035L8.34729 15.6225C8.41536 16.133 8.48343 16.6095 8.53448 16.6605C8.60255 16.7796 18.949 15.0949 19.1022 14.9248Z" fill="rgb(255,46,23)" fill-rule="nonzero" transform="matrix(1,0,0,-1,0,63.9983)" />
		<path id="Vector" d="M16.195 51.9879C15.5824 51.7326 15.0038 50.9158 14.8506 50.0819C14.7655 49.6225 15.6675 45.5554 16.4162 43.0368C16.4673 42.8326 16.2801 42.6795 15.7355 42.4753C14.255 41.9137 13.4212 40.6034 12.247 37.0468C11.311 34.2559 10.6814 33.3881 8.00971 31.2609C5.01468 28.8445 3.48313 26.8705 2.63227 24.3009C2.05368 22.5481 1.95158 21.2037 2.25789 18.8043C2.63227 15.9114 2.63227 15.8773 2.00263 15.7412L1.45808 15.6221L1.5772 14.567C1.64527 14.0054 1.71334 13.3758 1.73035 13.1886C1.76439 12.9163 1.62825 12.8483 0.947563 12.7462C0.488098 12.6781 0.0626673 12.559 0.0116156 12.5079C-0.0564532 12.4399 0.181788 10.3978 0.539149 7.94732C1.73035 -0.169896 1.69632 0.000275572 2.03666 0.000275572C2.22385 0.000275572 2.35999 0.0172928 2.35999 0.0513272C2.35999 0.204482 1.62825 5.27561 1.16879 8.3217C0.879494 10.2446 0.709322 11.8443 0.77739 11.9123C0.913528 12.0314 13.9317 14.1416 14.4933 14.1246C14.6464 14.1246 14.7826 14.0565 14.7826 13.9884C14.7826 13.7842 16.1269 5.07141 16.229 4.64598C16.3481 4.11844 16.8246 4.13546 16.8246 4.68001C16.8246 5.08842 15.5483 13.8012 15.3611 14.6181C15.2931 14.9584 15.208 14.9924 14.6975 14.9074C14.1359 14.7882 14.1189 14.8053 14.0168 15.4349C13.6594 17.545 13.7105 17.4429 13.0979 17.494C12.5363 17.545 12.5363 17.562 12.6384 18.2598C12.8596 19.5701 13.5233 20.6592 16.7906 24.9305C18.5944 27.2789 20.177 29.423 20.3132 29.7123C20.6535 30.4441 21.6235 41.0628 21.4193 41.9647C21.2491 42.6965 18.5093 50.7116 18.186 51.4093C17.9818 51.8517 17.3692 52.2431 16.9437 52.2431C16.8246 52.2261 16.4843 52.124 16.195 51.9879ZM17.4883 51.3242C17.5904 51.2051 18.4072 48.9588 19.3091 46.3552C20.8747 41.8116 20.9428 41.5563 20.8577 40.5013C20.3642 34.4772 20.0239 30.9546 19.8877 30.4271C19.7686 30.0357 18.5774 28.3339 16.8076 26.0196C12.5023 20.4209 12.4001 20.2508 11.9917 18.2938L11.7875 17.2898L7.58428 16.575C5.26994 16.2007 3.34699 15.9284 3.31296 15.9794C3.10875 16.3198 2.6663 20.8634 2.75139 21.8674C2.97261 24.8965 4.98064 28.0617 8.38409 30.6993C10.0858 32.0437 11.3961 33.4051 11.8896 34.3751C12.0938 34.7665 12.6044 36.1108 13.0298 37.336C14.0849 40.4332 14.9017 41.6244 16.195 41.9477C17.2501 42.22 18.186 41.5393 18.186 40.5183C18.186 40.1779 18.0669 39.5313 17.9137 39.0548C17.7776 38.5953 17.4372 37.3871 17.165 36.3831C16.7906 34.9536 16.4843 34.2389 15.6675 32.8946C14.4592 30.9376 13.9828 29.8144 13.6594 28.0957C13.4722 27.1598 13.4722 26.7854 13.6084 26.6152C13.8977 26.2578 14.255 26.3259 14.3401 26.7684C14.7145 28.7424 14.8847 29.338 15.3782 30.376C15.6675 31.0397 16.3141 32.1969 16.7906 32.9796C17.2501 33.7454 17.7436 34.7835 17.8457 35.277C17.9648 35.7534 18.3221 37.0808 18.6455 38.2039C19.3091 40.5183 19.3091 41.216 18.6285 42.1179C18.3902 42.4242 17.9307 42.7816 17.6074 42.9007L17.0288 43.1049L16.229 46.3211C15.6504 48.5844 15.4632 49.6905 15.5313 50.099C15.7355 51.171 16.9608 51.9538 17.4883 51.3242ZM13.1659 15.7412C13.234 15.2137 13.268 14.7712 13.234 14.7372C13.2 14.7032 10.8005 14.2947 7.89059 13.8353C2.68332 13.0184 2.61525 13.0014 2.49613 13.3588C2.39403 13.6821 2.30894 14.9584 2.41104 14.9924C3.00665 15.1456 12.1449 16.6431 12.5193 16.6601C13.0468 16.6771 13.0638 16.6601 13.1659 15.7412Z" fill="rgb(255,46,23)" fill-rule="nonzero" transform="matrix(1,0,0,-1,28.5527,63.998)" />
		<path id="Vector" d="M0.398477 1.77411C-0.112039 1.28061 -0.129056 1.00833 0.330408 0.429745C0.755839 -0.0977887 1.36846 -0.14884 1.84494 0.327642C2.32142 0.804124 2.27037 1.41674 1.74284 1.84217C1.16425 2.30164 0.891977 2.28462 0.398477 1.77411Z" fill="rgb(255,46,23)" fill-rule="nonzero" transform="matrix(1,0,0,-1,17.1553,54.7958)" />
		<path id="Vector" d="M0.350417 1.89744C-0.262203 1.2678 -0.0409791 0.280806 0.775847 0.0255477C1.26935 -0.127607 2.0181 0.433961 2.08617 1.01255C2.18828 1.88042 0.963037 2.51006 0.350417 1.89744Z" fill="rgb(255,46,23)" fill-rule="nonzero" transform="matrix(1,0,0,-1,30.6631,54.749)" />
	</g>
</svg>
