<svg viewBox="0 0 34.8193 52.3755" xmlns="http://www.w3.org/2000/svg" xmlns:xlink="http://www.w3.org/1999/xlink" width="34.819336" height="52.375488" fill="none" customFrame="#000000">
	<g id="Black">
		<path id="Vector" d="M11.5736 24.9688C7.68296 24.3438 4.3939 22.2422 2.22202 18.9922C-0.0904775 15.5234 -0.62954 11.1797 0.753272 7.16406C1.58921 4.73438 3.11265 2.5625 5.03452 1.03906C5.79234 0.4375 6.49546 -0.046875 6.44077 0.0546875C6.42515 0.09375 6.24546 0.46875 6.04234 0.882812C5.82359 1.32031 5.57359 2.00781 5.44077 2.52344C5.32359 3.00781 5.18296 3.41406 5.13609 3.42969C5.08921 3.44531 4.79234 3.78125 4.47984 4.17188C3.23765 5.70312 2.49546 7.23438 2.06577 9.15625C1.90952 9.85938 1.88608 10.1797 1.88608 11.5703C1.88608 12.9609 1.90952 13.2812 2.06577 13.9844C2.69859 16.7969 4.27671 19.2344 6.57359 20.9688C7.35484 21.5547 8.96421 22.3906 9.92515 22.7031C11.2611 23.1328 11.9955 23.2422 13.6439 23.2422C14.9251 23.2422 15.2923 23.2109 15.9486 23.0703C18.4408 22.5156 20.2376 21.5469 22.0111 19.7812C23.7455 18.0469 24.6908 16.3203 25.222 13.9297C25.4564 12.8984 25.472 10.4844 25.2611 9.42188C24.8314 7.29688 24.0033 5.60156 22.5814 3.89844C22.0501 3.26562 21.933 3.07812 21.8861 2.77344C21.808 2.23438 21.4955 1.32031 21.1439 0.625L20.8314 0L21.2064 0.25C25.3392 3.05469 27.6361 7.75 27.2455 12.6094C26.8548 17.4219 24.0267 21.5703 19.6986 23.6875C17.597 24.7109 16.2923 25.0156 13.8783 25.0547C12.7533 25.0703 12.0658 25.0469 11.5736 24.9688Z" fill="rgb(255,46,23)" fill-rule="nonzero" transform="matrix(1,0,0,-1,3.76758,25.0592)" />
		<path id="Vector" d="M0 1.07921L0 0.0713941L0.273438 0.0245191C0.429688 -0.00673095 0.585938 -0.00673095 0.625 0.0167066C0.671875 0.0479566 0.703125 0.501082 0.703125 1.07921L0.703125 2.08702L0.351562 2.08702L0 2.08702L0 1.07921Z" fill="rgb(255,46,23)" fill-rule="nonzero" transform="matrix(1,0,0,-1,16.5518,4.8728)" />
		<path id="Vector" d="M0 1.07921C0 0.0713941 0 0.0635816 0.1875 0.0167066C0.296875 -0.00673095 0.453125 -0.00673095 0.539062 0.0245191C0.695312 0.0713941 0.703125 0.133894 0.703125 1.08702L0.703125 2.09483L0.351562 2.09483L0 2.09483L0 1.07921Z" fill="rgb(255,46,23)" fill-rule="nonzero" transform="matrix(1,0,0,-1,17.5674,4.88062)" />
		<path id="Vector" d="M0.297146 1.55377C0.148709 1.46002 0.0158963 1.3819 0.000271326 1.36627C-0.0153537 1.35846 0.648709 0.124086 0.742459 0.00689863C0.773709 -0.0399764 1.22683 0.163149 1.32058 0.280336C1.38308 0.358461 1.32058 0.538149 1.03933 1.05377C0.844021 1.42096 0.656521 1.71784 0.625271 1.71784C0.594021 1.71784 0.445584 1.63971 0.297146 1.55377Z" fill="rgb(255,46,23)" fill-rule="nonzero" transform="matrix(1,0,0,-1,11.7236,5.83179)" />
		<path id="Vector" d="M0.523731 1.43686C-0.124706 0.327487 -0.132519 0.296237 0.289356 0.0774868C0.578419 -0.0709507 0.554981 -0.0943882 1.07842 0.835299L1.36748 1.36655L1.06279 1.53061C0.890918 1.61655 0.734669 1.68686 0.711231 1.68686C0.695606 1.68686 0.609669 1.56967 0.523731 1.43686Z" fill="rgb(255,46,23)" fill-rule="nonzero" transform="matrix(1,0,0,-1,21.7471,5.80078)" />
		<path id="Vector" d="M0.164062 1.14844C0.078125 1 0 0.851562 0 0.8125C0.0078125 0.734375 1.1875 0 1.30469 0C1.34375 0 1.45312 0.140625 1.54688 0.304688L1.71875 0.609375L1.14844 0.96875C0.351562 1.46094 0.359375 1.46094 0.164062 1.14844Z" fill="rgb(255,46,23)" fill-rule="nonzero" transform="matrix(1,0,0,-1,7.95801,9.19202)" />
		<path id="Vector" d="M0.682826 1.03201C0.362514 0.836699 0.0656388 0.672637 0.0187637 0.657012C-0.0749862 0.625762 0.206264 0.0554494 0.339076 0.000761863C0.401576 -0.0226756 1.37814 0.500762 1.68283 0.727324C1.7297 0.758574 1.38595 1.38357 1.32345 1.38357C1.2922 1.38357 1.00314 1.22732 0.682826 1.03201Z" fill="rgb(255,46,23)" fill-rule="nonzero" transform="matrix(1,0,0,-1,25.166,9.16931)" />
		<path id="Vector" d="M7.89456 5.76562C4.94143 2.625 5.01956 2.70312 4.58206 2.64844C4.3555 2.61719 4.12112 2.57812 4.05862 2.54688C3.9805 2.51562 3.49612 2.85938 2.69143 3.48438C0.910184 4.89062 0.863309 4.92188 0.574246 4.92188C0.183621 4.92188 -0.0898161 4.53906 0.0273714 4.15625C0.0586214 4.07031 0.800809 3.44531 1.67581 2.76562L3.27737 1.52344L3.27737 1.20312C3.27737 0.570312 3.87112 0 4.543 0C4.9805 0 5.168 0.078125 5.51956 0.414062C5.83206 0.710938 5.96487 1.08594 5.90237 1.50781L5.8555 1.83594L7.65237 3.77344C9.61331 5.88281 9.668 5.96094 9.25393 6.36719C8.90237 6.72656 8.72268 6.64062 7.89456 5.76562Z" fill="rgb(255,46,23)" fill-rule="nonzero" transform="matrix(1,0,0,-1,12.8057,14.5826)" />
		<path id="Vector" d="M0 0.375L0 0L1.01562 0L2.03125 0L2.03125 0.398438L2.03125 0.796875L1.01562 0.765625L0 0.742188L0 0.375Z" fill="rgb(255,46,23)" fill-rule="nonzero" transform="matrix(1,0,0,-1,6.62988,13.4108)" />
		<path id="Vector" d="M0.282592 0.734375C-0.0142833 0.703125 -0.0142833 0.703125 0.00915417 0.375L0.0325917 0.046875L1.07165 0.0234375L2.1029 0L2.1029 0.398438L2.1029 0.789062L1.34509 0.773438C0.923217 0.765625 0.446654 0.75 0.282592 0.734375Z" fill="rgb(255,46,23)" fill-rule="nonzero" transform="matrix(1,0,0,-1,26.0898,13.4186)" />
		<path id="Vector" d="M0 0.351562L0 0L1.01562 0L2.03125 0L2.03125 0.351562L2.03125 0.703125L1.01562 0.703125L0 0.703125L0 0.351562Z" fill="rgb(255,46,23)" fill-rule="nonzero" transform="matrix(1,0,0,-1,6.62988,14.3483)" />
		<path id="Vector" d="M0.0546875 0.648438C0.0234375 0.625 0 0.460938 0 0.296875L0 0L1.05469 0L2.10938 0L2.10938 0.351562L2.10938 0.703125L1.10938 0.703125C0.554688 0.703125 0.078125 0.679688 0.0546875 0.648438Z" fill="rgb(255,46,23)" fill-rule="nonzero" transform="matrix(1,0,0,-1,26.083,14.3483)" />
		<path id="Vector" d="M8.65625 26.5781L0 26.5625L0 25.9531C0 25.1016 0.265625 24.7109 0.921875 24.5703L1.17188 24.5156L1.17188 22.9688C1.17188 20.6328 1.35938 19.5859 2.03125 18.2344C2.67188 16.9297 3.39062 16.0859 5.40625 14.25C5.72656 13.9531 5.85938 13.7734 5.89844 13.5703C6.01562 12.9688 5.92188 12.8359 4.53125 11.6094C2.88281 10.1484 1.89062 8.64844 1.4375 6.91406C1.24219 6.19531 1.22656 5.97656 1.19531 4.125C1.16406 2.77344 1.125 2.10938 1.07031 2.10938C0.851562 2.10938 0.304688 1.75781 0.15625 1.53125C0.03125 1.32812 0 1.14062 0 0.632812L0 0L2.29688 0L4.59375 0L4.8125 0.296875C4.9375 0.453125 5.3125 0.914062 5.64062 1.3125C5.97656 1.70312 6.25 2.04688 6.25 2.07031C6.25 2.09375 5.39062 2.10938 4.33594 2.10938L2.42188 2.10938L2.42188 3.92969C2.42188 5.89062 2.48438 6.375 2.86719 7.41406C3.28125 8.57031 4.35156 9.89844 5.96094 11.25C6.85938 12 7.14062 12.5078 7.13281 13.3672C7.125 14.1719 6.91406 14.4922 5.64062 15.6484C4.32031 16.8438 3.64844 17.6484 3.16406 18.6328C2.5625 19.8438 2.48438 20.2891 2.4375 22.5625L2.40625 24.5312L8.67188 24.5312L14.9375 24.5312L14.8984 22.5625C14.8672 20.8516 14.8359 20.5 14.6875 19.9688C14.25 18.3672 13.4766 17.25 11.6797 15.625C10.8594 14.8906 10.5938 14.5938 10.4297 14.2578C10.0312 13.4453 10.1875 12.4219 10.8047 11.7812C10.9844 11.5938 11.5312 11.1016 12.0156 10.6719C13.4766 9.39062 14.2266 8.32031 14.6562 6.91406C14.8594 6.24219 14.875 6.11719 14.9062 4.16406L14.9375 2.10938L13.0078 2.10938C11.9453 2.10938 11.0938 2.07812 11.1094 2.04688C11.125 2.00781 11.5 1.53906 11.9531 0.992188L12.7734 0L15.0625 0L17.3438 0L17.3438 0.632812C17.3438 1.14062 17.3125 1.32812 17.1875 1.53125C17.0391 1.76562 16.4922 2.10938 16.2656 2.10938C16.1953 2.10938 16.1719 2.53906 16.1719 3.77344C16.1719 6.70312 15.8672 7.89062 14.6953 9.53906C14.1484 10.3047 13.2578 11.2344 12.3047 12.0391C11.0625 13.0859 11.1016 13.5234 12.5391 14.8203C13.9375 16.0781 14.7188 17.0312 15.3125 18.2109C15.9844 19.5312 16.1719 20.5547 16.1719 22.8516L16.1719 24.5156L16.4453 24.5625C16.7969 24.6328 17.2422 25.0703 17.3047 25.4062C17.3281 25.5469 17.3438 25.875 17.3281 26.1328L17.3047 26.6016L8.65625 26.5781Z" fill="rgb(255,46,23)" fill-rule="nonzero" transform="matrix(1,0,0,-1,8.73926,42.1608)" />
		<path id="Vector" d="M3.26331 25.9609C0.0523729 21.625 -0.869502 15.75 0.85706 10.5859C1.77112 7.85156 3.02894 5.8125 5.09925 3.74219C6.56019 2.27344 8.23987 1.05469 9.93519 0.226562L10.3883 0L10.5211 0.171875C10.5914 0.265625 10.8571 0.585938 11.1149 0.890625C11.3649 1.20312 11.5602 1.46094 11.5446 1.46875C11.5289 1.48438 11.1071 1.6875 10.6149 1.92969C3.6305 5.32031 0.161748 13.4375 2.57581 20.7031C2.95081 21.8203 3.64612 23.2734 4.23206 24.1641L4.66175 24.8125L4.23206 25.7109C3.99769 26.1953 3.78675 26.6016 3.77112 26.6016C3.7555 26.6016 3.52894 26.3125 3.26331 25.9609Z" fill="rgb(255,46,23)" fill-rule="nonzero" transform="matrix(1,0,0,-1,0,45.6373)" />
		<path id="Vector" d="M7.55484 26.2344C7.48453 26.0547 7.28921 25.6484 7.12515 25.3359L6.83609 24.7812L7.21109 24.2031C8.38296 22.4062 9.14859 20.4141 9.53921 18.1641C9.7189 17.0625 9.7189 14.7109 9.5314 13.5625C9.26578 11.9297 8.74234 10.2969 8.02359 8.88281C6.5314 5.90625 3.71109 3.17969 0.734526 1.82031C0.289213 1.61719 -0.00766193 1.4375 0.000150571 1.375C0.0157756 1.23438 1.04703 0 1.14859 0C1.28921 0 2.66421 0.765625 3.45328 1.27344C6.17203 3.04688 8.2814 5.40625 9.71109 8.28906C10.9767 10.8359 11.5861 13.6328 11.4923 16.4453C11.383 19.6797 10.4142 22.6484 8.58609 25.3984C7.75015 26.6562 7.72671 26.6719 7.55484 26.2344Z" fill="rgb(255,46,23)" fill-rule="nonzero" transform="matrix(1,0,0,-1,23.3174,45.5983)" />
		<path id="Vector" d="M0.0215548 7.64063C0.154367 7.1875 0.654367 6.30469 1.06062 5.80469C1.3028 5.5 1.96687 4.82813 2.52937 4.3125C3.97468 2.98438 4.38874 2.3125 4.59187 0.976563C4.72468 0.0703125 4.74812 0 4.91218 0C5.07624 0 5.08405 0.03125 5.21687 1.04688C5.29499 1.57813 5.38874 1.88281 5.62312 2.35938C5.95124 3.00781 6.20124 3.28906 7.88874 4.90625C8.31062 5.30469 8.79499 5.84375 8.97468 6.10938C9.3028 6.58594 9.8653 7.71875 9.8028 7.78125C9.78718 7.79688 9.28718 7.71094 8.68562 7.58594C7.06843 7.24219 5.99812 7.10156 4.98249 7.10156C3.89655 7.10156 3.25593 7.17969 1.49812 7.53906C-0.0721953 7.86719 -0.0409452 7.86719 0.0215548 7.64063Z" fill="rgb(255,46,23)" fill-rule="nonzero" transform="matrix(1,0,0,-1,12.5068,30.2858)" />
		<path id="Vector" d="M0.343618 1C-0.211069 0.703125 -0.0626319 0 0.562368 0C0.882681 0 1.08581 0.203125 1.08581 0.523438C1.08581 0.898438 0.656118 1.17188 0.343618 1Z" fill="rgb(255,46,23)" fill-rule="nonzero" transform="matrix(1,0,0,-1,16.8721,32.5514)" />
		<path id="Vector" d="M4.82812 5.26562C4.70312 5.20312 4.1875 4.75 3.6875 4.27344C3.19531 3.78906 2.23438 2.875 1.5625 2.23438C0.882812 1.60156 0.28125 0.976562 0.21875 0.859375C0.15625 0.742188 0.0859375 0.5 0.0546875 0.320312L0 0L1.91406 0L3.82031 0L3.98438 0.21875C4.24219 0.5625 5.34375 1.83594 5.40625 1.85938C5.4375 1.86719 5.8125 1.45312 6.23438 0.9375L7.00781 0L8.86719 0L10.7266 0L10.7266 0.359375C10.7266 0.648438 10.6719 0.796875 10.4453 1.10156C10.1172 1.55469 6.36719 5.05469 6.01562 5.25C5.70312 5.42188 5.13281 5.42969 4.82812 5.26562Z" fill="rgb(255,46,23)" fill-rule="nonzero" transform="matrix(1,0,0,-1,11.9971,39.192)" />
		<path id="Vector" d="M2.94818 10.0898C1.35443 8.17569 0.0263035 6.5585 0.00286605 6.496C-0.028384 6.40225 0.182554 6.38662 1.29974 6.38662L2.63568 6.38662L2.63568 3.246C2.63568 1.51162 2.63568 0.0584999 2.63568 0.00381241C2.63568 -0.0430626 3.36224 0.347562 4.24505 0.886625C5.12787 1.41787 5.88568 1.83194 5.92474 1.8085C7.44037 0.871 9.01068 -0.00400009 9.05755 0.0428749C9.09662 0.0819374 9.12005 1.496 9.10443 3.246L9.08099 6.38662L10.4326 6.40225L11.7841 6.42569L9.50287 9.16006C8.24505 10.6679 6.90912 12.2773 6.53412 12.7382L5.84662 13.5819L2.94818 10.0898Z" fill="rgb(255,46,23)" fill-rule="nonzero" transform="matrix(1,0,0,-1,11.5723,52.3755)" />
	</g>
</svg>
