<svg viewBox="0 0 50 48.6998" xmlns="http://www.w3.org/2000/svg" xmlns:xlink="http://www.w3.org/1999/xlink" width="50.000000" height="48.699829" fill="none" customFrame="#000000">
	<g id="Black">
		<path id="Vector" d="M2.52769 12.8634C0.669804 12.5201 0.437569 12.4494 0.235625 12.2172C-0.0975821 11.8335 -0.0773878 11.3185 0.296208 10.9449C0.629416 10.6218 0.851554 10.5915 1.7603 10.7632C2.07331 10.8136 2.37623 10.854 2.42672 10.8338C2.4772 10.8136 2.32574 10.5208 2.09351 10.1775C0.205333 7.47147 -0.269234 4.40193 0.72029 1.30209C0.881845 0.797229 1.10398 0.302467 1.22515 0.191398C1.52807 -0.0812262 2.14399 -0.0610318 2.4671 0.241884C2.8306 0.585188 2.87099 0.93859 2.63876 1.54442C1.87137 3.47298 1.98244 6.04777 2.91138 7.87536C3.24459 8.55187 4.14324 9.8746 4.21392 9.80392C4.24421 9.77363 4.33508 9.37984 4.40576 8.92547C4.47644 8.47109 4.60771 8.02682 4.69858 7.92585C5.10247 7.48157 5.94054 7.60274 6.22326 8.13789C6.35452 8.40041 6.34442 8.62255 6.10209 10.4299C5.96073 11.5204 5.79918 12.5504 5.73859 12.7018C5.61743 13.0148 5.18325 13.2875 4.82985 13.2673C4.69858 13.2572 3.66867 13.0754 2.52769 12.8634Z" fill="rgb(255,46,23)" fill-rule="nonzero" transform="matrix(1,0,0,-1,13.6211,13.2684)" />
		<path id="Vector" d="M8.95687 24.829C8.13899 24.6876 6.65471 24.1626 5.958 23.7789C4.34245 22.8701 3.06011 21.5575 2.33311 20.0429C1.79796 18.9322 1.58592 18.1043 1.51524 16.8017C1.46475 15.9637 1.35368 15.5093 0.869016 13.9846C-0.181092 10.7434 -0.211383 10.4607 0.414642 9.90534C0.606489 9.74379 1.08106 9.50146 1.47485 9.38029L2.18165 9.14805L2.18165 8.54222C2.19175 6.97716 2.56534 5.7453 3.27215 5.00821C4.11021 4.13985 4.89779 3.83693 6.54364 3.76625L7.71491 3.70567L7.7553 2.1507L7.78559 0.585637L8.1188 0.292819L8.44191 0L13.5511 0L18.6502 0L18.8925 0.242333C19.256 0.605831 19.2863 0.89865 19.0541 1.69633C18.4179 3.82683 18.2463 5.87656 18.5795 7.32046C18.6805 7.75464 19.0743 8.68358 19.5993 9.74379C20.6595 11.8844 20.8715 12.6013 20.9321 14.4895C20.9927 16.1252 20.8312 17.2359 20.3465 18.4779C19.468 20.7598 17.4486 22.9105 15.1868 23.9808C13.7732 24.6472 12.814 24.8593 11.0672 24.8997C10.2089 24.9098 9.25978 24.8896 8.95687 24.829ZM13.0361 22.7692C15.3484 22.0927 17.2063 20.5882 18.2261 18.5384C18.8218 17.3672 19.044 16.3776 19.044 14.9539C19.044 13.1566 18.7309 12.056 17.7313 10.2991C17.1457 9.24903 16.7822 8.2797 16.6206 7.24978C16.4086 5.92705 16.5903 3.34217 16.974 2.11031C17.0346 1.92856 16.9034 1.91847 13.3491 1.91847L9.66367 1.91847L9.63338 3.48353C9.60309 5.0385 9.60309 5.04859 9.32036 5.32122C9.04774 5.60394 9.03764 5.60394 7.30093 5.66452C5.52382 5.71501 5.37236 5.7453 4.8776 6.07851C4.32225 6.4723 4.18089 6.95696 4.11021 8.65329C4.03953 10.4203 4.01934 10.4607 3.12069 10.7434C2.79758 10.8444 2.41389 10.9958 2.26243 11.0665L1.9999 11.2079L2.25233 12.0359C2.38359 12.5003 2.67641 13.399 2.88845 14.0351C3.20147 14.9842 3.29234 15.4386 3.37312 16.5089C3.53467 18.5687 4.05973 19.7501 5.36227 20.982C6.50325 22.0624 7.84617 22.7187 9.49202 23.0216C10.3705 23.1831 12.0163 23.062 13.0361 22.7692Z" fill="rgb(255,46,23)" fill-rule="nonzero" transform="matrix(1,0,0,-1,19.0156,26.0417)" />
		<path id="Vector" d="M3.62631 13.1327C3.3133 12.7591 3.3032 12.6077 3.56573 11.911C4.3735 9.71989 4.28263 7.28647 3.32339 5.31752C2.9498 4.57032 2.19251 3.44954 2.06124 3.44954C2.01076 3.44954 1.94008 3.80294 1.89969 4.22702C1.83911 4.89344 1.78862 5.0348 1.52609 5.29732C1.27366 5.55985 1.18279 5.59014 0.81929 5.53966C0.597151 5.50936 0.31443 5.3882 0.193264 5.26703C-0.0692632 5.0045 -0.0692632 4.74198 0.223555 2.29846C0.526471 -0.316715 0.425499 -0.246034 3.40417 0.319408C4.57544 0.551644 5.63565 0.773782 5.76691 0.824268C5.88808 0.874754 6.06983 1.0767 6.1607 1.26854C6.30206 1.57146 6.30206 1.66233 6.19099 1.93496C5.93856 2.55089 5.39332 2.66196 3.95952 2.36914L3.6465 2.30855L4.13117 3.00526C4.75719 3.9241 5.43371 5.35791 5.69623 6.33733C5.95876 7.32686 6.06983 9.61892 5.89818 10.5479C5.69623 11.6182 5.26205 12.9409 5.01972 13.1933C4.83797 13.3852 4.68651 13.4458 4.33311 13.4458C3.95952 13.4458 3.84845 13.3953 3.62631 13.1327Z" fill="rgb(255,46,23)" fill-rule="nonzero" transform="matrix(1,0,0,-1,39.6445,25.3516)" />
		<path id="Vector" d="M16.654 20.5882C16.5732 20.568 16.1593 20.4973 15.7453 20.4367C13.6552 20.0934 11.8781 19.225 8.88928 17.0643L7.96034 16.3877L7.60694 16.6907C6.86985 17.3369 6.05197 17.5893 5.224 17.4177C4.61817 17.2864 1.21542 15.5194 0.771142 15.1054C0.619684 14.9539 0.377351 14.6005 0.235991 14.3077C0.0138526 13.8533 -0.0265362 13.6716 0.0138525 13.0961C0.0542413 12.4296 0.124922 12.2782 2.96223 6.75502C4.56769 3.64509 6.02168 0.949136 6.19333 0.757289C6.64771 0.262527 7.28383 0.0100972 8.07141 0C8.70753 0 8.77821 0.0302916 10.6866 0.999622C11.7569 1.55497 12.807 2.1507 13.019 2.33245C13.534 2.77673 13.8571 3.55421 13.8672 4.38218L13.8773 5.0385L14.7356 5.28083C15.4727 5.49287 15.816 5.52316 17.2599 5.52316L18.9259 5.53326L23.5201 4.61442C26.0444 4.09946 28.5283 3.65518 29.0231 3.62489C30.154 3.53402 31.5373 3.69557 32.6379 4.03888C34.0111 4.47306 37.7975 6.44201 40.3723 8.05756C42.7755 9.56204 48.7227 13.51 49.0458 13.813C50.3685 15.0448 50.308 17.2157 48.9145 18.5081C48.1674 19.1948 47.6726 19.3765 46.5417 19.3765L45.5825 19.3765L44.4718 18.8212C43.8559 18.5182 41.7859 17.458 39.8574 16.4685L36.3637 14.6813L36.1012 15.2266C35.7478 15.9536 34.8996 16.7209 34.1424 17.0037C33.3447 17.3066 30.8406 17.9225 27.7912 18.5687C26.1959 18.912 24.7419 19.2856 23.9038 19.5785C21.4906 20.4165 20.7939 20.5579 18.6735 20.5983C17.6435 20.6084 16.7348 20.6084 16.654 20.5882ZM19.562 18.7101C20.7939 18.5788 21.642 18.3668 23.6716 17.6701C24.7924 17.2864 25.9333 16.9936 27.4075 16.7008C29.7198 16.2464 32.8398 15.4891 33.5062 15.2266C34.5563 14.8126 34.8492 13.5605 34.1121 12.7124C33.6072 12.1469 33.486 12.1368 29.8712 12.5609C24.3683 13.2071 22.369 13.4091 22.0863 13.3384C21.5209 13.197 21.3088 12.2378 21.743 11.8036C22.0257 11.5209 21.9248 11.5411 25.4891 11.1473C27.044 10.9756 29.3967 10.7131 30.7194 10.5516C33.3447 10.2386 33.7587 10.2587 34.627 10.6929C35.1521 10.9655 35.8892 11.7127 36.0911 12.1974C36.1921 12.4397 36.3637 12.5811 36.7676 12.7628C37.0604 12.9042 39.2313 14.0048 41.5941 15.2266C45.532 17.246 45.9359 17.4378 46.4912 17.4782C47.2081 17.5287 47.6423 17.3167 47.9149 16.7815C48.127 16.3776 48.1371 15.6809 47.9452 15.3982C47.7938 15.1761 40.5743 10.3698 38.7669 9.27932C37.1513 8.30999 33.6274 6.44201 32.759 6.08861C30.7598 5.29093 29.427 5.30102 25.4386 6.12899C19.9861 7.26998 18.8855 7.45173 17.2094 7.45173C15.6544 7.46182 14.8264 7.34066 13.5643 6.90648L13.0291 6.71463L12.6858 7.34066C12.494 7.68396 11.6862 9.21873 10.8986 10.7434C10.1009 12.2681 9.31336 13.7827 9.14171 14.1058L8.8287 14.6914L9.12152 14.9135C10.1211 15.6708 12.7666 17.3773 13.4633 17.7105C15.3313 18.6091 17.3911 18.9524 19.562 18.7101ZM6.27411 15.3073C6.57703 15.0044 12.0093 4.58412 12.0093 4.3115C12.0093 3.92781 11.6761 3.67538 10.0505 2.82721C8.39452 1.95885 7.98054 1.83769 7.63723 2.09012C7.405 2.25167 1.91212 12.9345 1.91212 13.2172C1.91212 13.3384 1.97271 13.51 2.04339 13.6009C2.14436 13.7423 4.81002 15.2468 5.39566 15.4992C5.65818 15.6103 6.06207 15.5194 6.27411 15.3073Z" fill="rgb(255,46,23)" fill-rule="nonzero" transform="matrix(1,0,0,-1,0,48.6998)" />
		<path id="Vector" d="M0.535231 1.78709C-0.0100176 1.56495 -0.18167 0.787466 0.222218 0.322995C0.888632 -0.444391 2.12049 0.272509 1.79738 1.25194C1.63582 1.76689 1.07038 1.99913 0.535231 1.78709Z" fill="rgb(255,46,23)" fill-rule="nonzero" transform="matrix(1,0,0,-1,7.98047,44.7921)" />
	</g>
</svg>
