<svg viewBox="0 0 50.1865 53.4248" xmlns="http://www.w3.org/2000/svg" xmlns:xlink="http://www.w3.org/1999/xlink" width="50.186523" height="53.424805" fill="none" customFrame="#000000">
	<g id="Black">
		<path id="Vector" d="M15.3322 35.9592C15.275 35.8258 15.2179 32.1118 15.1988 27.7122L15.1417 19.7128L7.61847 19.6175L0.0952308 19.5223L0.0380923 9.86591L0 0.190462L0.419016 0.0952308C0.666616 0.0380923 3.00929 0.0190462 5.61862 0.0380923L10.3802 0.0952308L10.3802 0.666616L10.3802 1.238L5.86622 1.29514L1.33323 1.33323L1.33323 9.80877L1.33323 18.2843L8.72314 18.2843C14.2084 18.2843 16.1702 18.3415 16.3416 18.5129C16.513 18.6843 16.5702 20.7794 16.5702 26.798L16.5702 34.8545L25.1409 34.8545L33.7117 34.8545L33.7117 26.798C33.7117 20.7794 33.7688 18.6843 33.9403 18.5129C34.1117 18.3415 36.0734 18.2843 41.5587 18.2843L48.9486 18.2843L48.9486 9.80877L48.9486 1.33323L43.9205 1.33323C40.5874 1.33323 38.8351 1.25705 38.7589 1.12372C38.6828 1.02849 38.6828 0.723754 38.7399 0.457108L38.8542 0L44.5299 0.0380923L50.1866 0.0952308L50.1866 9.80877L50.1866 19.5223L42.7205 19.5795L35.2545 19.6175L35.1783 22.8173C35.1402 24.5696 35.1402 28.1121 35.1783 30.7024C35.2354 33.8831 35.1973 35.5401 35.0449 35.8068C34.8354 36.1877 34.7212 36.1877 25.1219 36.1877C17.5415 36.1877 15.3893 36.1306 15.3322 35.9592Z" fill="rgb(255,46,23)" fill-rule="nonzero" transform="matrix(1,0,0,-1,0.000976562,36.188)" />
		<path id="Vector" d="M4.952 14.018C3.23785 13.5799 1.35228 12.0753 0.514246 10.4944C0.0380923 9.58022 0 9.37071 0 7.04708C0 4.79963 0.0380923 4.47585 0.476154 3.61877C1.10468 2.34268 2.36172 1.12372 3.67591 0.514246C4.59013 0.0761847 5.02819 0 6.38047 0C7.73274 0 8.1708 0.0761846 9.06597 0.4952C10.5135 1.18086 11.5991 2.20936 12.2276 3.48545C12.7228 4.49489 12.7609 4.72345 12.7609 7.04708C12.7609 9.25644 12.7038 9.61831 12.3229 10.4373C11.7134 11.6372 10.4563 12.9133 9.23739 13.5228C8.15176 14.0751 6.05668 14.3227 4.952 14.018ZM7.40896 12.7419C8.78028 12.5514 8.07557 12.2848 6.20905 12.2848C4.57108 12.2848 4.34253 12.3991 5.46625 12.6657C6.32333 12.8752 6.39951 12.8752 7.40896 12.7419ZM3.714 9.80877L3.714 8.66601L2.57123 8.66601C1.238 8.66601 1.16182 8.83742 1.90462 10.1326C2.34268 10.8563 2.476 10.9515 3.04739 10.9515L3.714 10.9515L3.714 9.80877ZM7.7137 9.80877L7.7137 8.66601L6.38047 8.66601L5.04723 8.66601L5.04723 9.80877L5.04723 10.9515L6.38047 10.9515L7.7137 10.9515L7.7137 9.80877ZM10.742 10.2849C10.9515 9.90401 11.1991 9.38976 11.2563 9.14216C11.3706 8.66601 11.3515 8.66601 10.2087 8.66601L9.04693 8.66601L9.04693 9.80877L9.04693 10.9515L9.6945 10.9515C10.2278 10.9515 10.4183 10.8373 10.742 10.2849ZM11.4658 6.07573C11.0468 1.59988 5.88527 -0.342831 2.76169 2.79979C1.94271 3.61877 1.40942 4.83773 1.29514 6.20905L1.18086 7.33277L6.38047 7.33277L11.5801 7.33277L11.4658 6.07573Z" fill="rgb(255,46,23)" fill-rule="nonzero" transform="matrix(1,0,0,-1,18.7607,23.522)" />
		<path id="Vector" d="M7.81859 19.003C5.68542 18.7364 3.95222 17.4412 3.01896 15.4414C2.48566 14.3367 0.181078 5.9183 0.0287083 4.62317C-0.104615 3.34707 0.21917 2.39476 1.15243 1.38532C2.42852 0.0139931 2.77136 -0.0431454 9.98985 0.0139931C15.7037 0.0711316 16.3132 0.109224 16.9798 0.433009C19.2653 1.57578 19.3415 5.11836 17.0941 6.28018C16.6941 6.47064 16.3513 6.71824 16.3513 6.81347C16.3513 7.1944 18.7892 17.5174 18.9035 17.6317C18.9606 17.7079 19.5129 17.6126 20.1034 17.4222C20.9033 17.1746 21.4366 16.8318 22.1604 16.089C23.7412 14.5081 23.7793 14.3367 23.7793 6.81347C23.7793 0.642516 23.7983 0.356824 24.1412 0.166362C24.3507 0.0711316 24.6554 0.0330393 24.8268 0.0901778C25.0935 0.204455 25.1125 0.928209 25.0744 7.1944L25.0173 14.1653L24.5221 15.2128C23.5888 17.2127 21.4556 18.7935 19.5129 18.9459C17.3988 19.0982 8.94231 19.1554 7.81859 19.003ZM16.5417 17.5936C16.5417 17.5365 15.2847 15.4795 13.761 13.0225L10.9803 8.54667L9.18991 8.54667L7.39957 8.54667L7.39957 10.0513C7.39957 11.6893 7.11388 12.2416 6.48536 11.8417C6.23776 11.6893 6.14253 11.2893 6.10443 10.0894L6.0473 8.54667L4.25696 8.54667C2.86659 8.54667 2.44757 8.60381 2.44757 8.79428C2.44757 9.27043 3.99031 14.3558 4.37123 15.1557C4.8093 16.089 5.62828 16.8318 6.73296 17.327C7.39957 17.6317 8.04714 17.6888 12.0278 17.6888C14.5038 17.6888 16.5417 17.6507 16.5417 17.5936ZM16.0275 11.6322L15.3228 8.54667L14.0276 8.54667C13.3229 8.54667 12.7325 8.60381 12.7325 8.68C12.7325 8.87046 16.5798 14.87 16.656 14.7748C16.6941 14.7367 16.4084 13.3273 16.0275 11.6322ZM7.2472 4.56603C8.16142 3.11852 8.96136 1.80433 9.03754 1.63292C9.13278 1.34722 8.99945 1.30913 8.10428 1.30913L7.0377 1.30913L5.47591 3.84227C4.61883 5.2136 3.7808 6.54683 3.62843 6.79443C3.36179 7.21344 3.36179 7.21344 4.46646 7.21344L5.59019 7.21344L7.2472 4.56603ZM14.8847 6.6992C14.8276 6.39446 14.5419 5.09932 14.2752 3.78513L13.78 1.40436L12.3325 1.34722L10.885 1.29009L9.30419 3.82323C8.42807 5.2136 7.59004 6.54683 7.43767 6.79443L7.17102 7.21344L11.0945 7.21344L15.018 7.21344L14.8847 6.6992ZM3.66653 4.20415C4.5617 2.6995 5.3045 1.44246 5.3045 1.38532C5.3045 1.19486 3.89508 1.32818 3.26656 1.59482C2.2952 2.01384 1.93332 2.35667 1.57145 3.32803C1.28576 4.08987 1.28576 4.24224 1.59049 5.59452C1.76191 6.39446 1.93332 7.02298 1.97142 6.98489C2.00951 6.9468 2.77136 5.7088 3.66653 4.20415ZM16.6941 4.88981C17.2274 4.29938 17.5131 3.4804 17.3798 2.90901C17.2274 2.31858 16.256 1.49959 15.7037 1.49959C15.2847 1.49959 15.2656 1.53769 15.418 2.41381C15.818 4.50889 16.0084 5.30883 16.1418 5.30883C16.2179 5.30883 16.4655 5.11836 16.6941 4.88981Z" fill="rgb(255,46,23)" fill-rule="nonzero" transform="matrix(1,0,0,-1,11.6465,43.9722)" />
		<path id="Vector" d="M0.2476 11.847C0.0571385 11.7708 0 10.4185 0 5.98073C0 0.324021 0 0.190698 0.380923 0.0764211C1.29514 -0.209271 1.33323 0.0192823 1.33323 5.96169C1.33323 12.0565 1.29514 12.285 0.2476 11.847Z" fill="rgb(255,46,23)" fill-rule="nonzero" transform="matrix(1,0,0,-1,31.4268,43.978)" />
		<path id="Vector" d="M18.7033 7.69465C18.4176 7.52324 18.3795 7.14231 18.3795 4.38062L18.3795 1.238L9.80877 1.238L1.238 1.238L1.238 4.24729C1.238 5.88527 1.16182 7.35182 1.06659 7.48514C0.990401 7.63751 0.704708 7.7137 0.457108 7.6756L0 7.61847L0 3.80923L0 0L9.80877 0L19.6175 0L19.6747 3.75209C19.7128 7.19945 19.6937 7.52324 19.3699 7.69465C19.1604 7.80893 18.9128 7.80893 18.7033 7.69465Z" fill="rgb(255,46,23)" fill-rule="nonzero" transform="matrix(1,0,0,-1,15.332,53.4248)" />
	</g>
</svg>
