<svg viewBox="0 0 70.5928 41.8445" xmlns="http://www.w3.org/2000/svg" xmlns:xlink="http://www.w3.org/1999/xlink" width="70.592773" height="41.844482" fill="none" customFrame="#000000">
	<g id="Black">
		<path id="Vector" d="M34.0428 41.3594C31.7225 40.3906 22.5037 36.625 20.1756 35.6953C18.8866 35.1797 17.8084 34.7344 17.7772 34.7109C17.7537 34.6797 17.8084 33.2656 17.91 31.5703C18.0116 29.875 18.0819 28.4766 18.0662 28.4609C18.0506 28.4453 16.535 29.25 14.6912 30.2422C4.55062 35.75 2.12094 37.0703 1.26937 37.5312C0.75375 37.8125 0.331875 38.0391 0.324062 38.0312C0.277187 37.9844 0.0584372 36.1953 0.0193747 35.4766C-0.1525 32.7969 0.824062 30.2734 2.75375 28.4531C3.66781 27.5859 4.33969 27.2031 6.24594 26.4375C7.18344 26.0625 7.94125 25.75 7.92562 25.7422C7.91781 25.7344 7.01156 25.9453 5.91781 26.2188C4.82406 26.4844 3.69125 26.7578 3.39437 26.8281L2.87094 26.9453L2.87094 26.6484C2.87094 26.1797 3.16781 24.5625 3.38656 23.8516C3.80844 22.4688 4.75375 21.0078 5.76937 20.1953C7.21469 19.0312 8.37875 18.5703 10.1522 18.4766C10.6678 18.4453 11.0428 18.3984 10.9803 18.3672C10.9256 18.3359 10.285 18.25 9.55062 18.1719C8.82406 18.0938 8.19906 18.0156 8.16781 17.9844C8.08969 17.9219 8.96469 16.4531 9.44125 15.8281C10.4725 14.4922 11.7459 13.5703 13.1834 13.125C13.66 12.9688 13.9412 12.9375 14.7069 12.9375C15.6366 12.9375 15.6678 12.9453 18.0506 13.5859C19.3787 13.9453 20.4725 14.2266 20.4881 14.2109C20.5037 14.1953 20.6053 13.9609 20.7225 13.6797C21.4491 11.9219 22.8709 9.54688 24.16 7.9375C25.4178 6.35156 27.4412 4.46875 29.3553 3.10156C30.8319 2.03906 33.3241 0.703125 34.7459 0.203125L35.3397 0L36.1912 0.34375C40.4959 2.07031 44.5506 5.25781 47.2225 8.97656C48.1444 10.2656 49.3241 12.3672 49.9022 13.7578C50.0037 13.9922 50.0975 14.1953 50.1053 14.2109C50.1131 14.2266 51.2069 13.9453 52.535 13.5859C54.9334 12.9375 54.9412 12.9375 55.8787 12.9453C56.9569 12.9453 57.5272 13.0703 58.3787 13.5C59.8553 14.2422 60.9022 15.2812 61.9959 17.1172C62.5662 18.0859 62.6991 17.9688 60.8631 18.1719C60.1678 18.25 59.6131 18.3359 59.6287 18.3672C59.6444 18.3984 60.0506 18.4453 60.5272 18.4766C61.6287 18.5469 62.4178 18.75 63.3006 19.1875C65.8241 20.4375 67.41 23.0234 67.6834 26.3359C67.7303 26.8594 67.7147 26.9609 67.6287 26.9297C67.3709 26.8438 62.6912 25.7109 62.6678 25.7344C62.6522 25.7422 63.16 25.9609 63.7928 26.2109C66.2538 27.1953 67.1756 27.7422 68.2303 28.8516C69.8787 30.5859 70.6991 32.8828 70.5819 35.4375C70.5506 36.2188 70.3319 37.9609 70.2537 38.0391C70.2459 38.0469 69.8709 37.8516 69.4256 37.6016C68.9803 37.3516 67.2616 36.4062 65.6053 35.5156C63.9491 34.625 61.4569 33.2656 60.0584 32.5078C55.1756 29.8438 52.5428 28.4375 52.5116 28.4609C52.4959 28.4766 52.5194 29 52.5584 29.6172C52.7616 32.5703 52.8631 34.6562 52.8084 34.7109C52.7772 34.7344 51.6053 35.2188 50.2069 35.7812C48.8006 36.3359 46.535 37.2578 45.1678 37.8203C41.7303 39.2422 35.4256 41.8203 35.3319 41.8438C35.2928 41.8594 34.7069 41.6406 34.0428 41.3594ZM40.785 37.3438C43.7616 36.1328 47.1912 34.7422 48.4178 34.2422C49.6444 33.75 50.6522 33.3359 50.66 33.3281C50.6834 33.3125 50.41 28.5391 50.2537 26.2188C50.1912 25.2734 50.1209 24.1641 50.0897 23.7578C49.7459 18.125 47.9569 13.2422 44.7772 9.22656C44.0506 8.30469 42.0584 6.34375 41.0741 5.58594C39.9569 4.71875 38.785 3.94531 37.7147 3.375C36.5506 2.75 35.4491 2.25 35.2616 2.25781C35.035 2.27344 32.3709 3.60938 31.5819 4.10938C25.7928 7.77344 22.035 13.5312 20.8787 20.5078C20.6366 22.0078 20.5741 22.6562 20.3319 26.4141C19.9569 32.3125 19.91 33.25 19.9725 33.3125C20.0272 33.3672 21.8162 34.1016 30.0975 37.4688C32.4647 38.4297 34.5506 39.2891 34.7459 39.375C34.9412 39.4609 35.16 39.5312 35.2381 39.5312C35.3162 39.5391 37.8162 38.5469 40.785 37.3438ZM4.99594 33.6484C11.3553 30.2031 12.0897 29.8047 15.0584 28.1875C16.7147 27.2891 18.1053 26.5156 18.1522 26.4609C18.2225 26.3906 18.4569 23.4531 18.3944 23.3984C18.3397 23.3516 5.18344 28.6328 4.8475 28.8359C3.67562 29.5312 2.62875 30.875 2.08187 32.3516C1.73031 33.3203 1.46469 35.3984 1.69906 35.3984C1.73812 35.3984 3.2225 34.6094 4.99594 33.6484ZM68.9647 34.9375C68.9647 32.2656 67.4959 29.7188 65.3241 28.6172C65.0272 28.4688 61.4803 27.0469 54.8241 24.4219C53.3866 23.8516 52.1991 23.3906 52.1991 23.3984C52.1912 23.3984 52.2225 24.0859 52.2694 24.9219L52.3553 26.4297L52.6287 26.6094C52.785 26.7031 54.7225 27.7656 56.9334 28.9609C59.1444 30.1562 62.7147 32.0938 64.8631 33.2656C67.0116 34.4297 68.8162 35.3906 68.8709 35.3906C68.9334 35.3984 68.9647 35.2578 68.9647 34.9375ZM6.79281 24.3359C7.79281 24.1016 9.66781 23.6562 10.9569 23.3594C12.2459 23.0547 14.4881 22.5312 15.9412 22.1875C17.3866 21.8516 18.5897 21.5703 18.6053 21.5703C18.6209 21.5703 18.6756 21.1953 18.7303 20.7344C18.785 20.2812 18.8553 19.8047 18.8866 19.6797C18.9256 19.5625 18.9256 19.4531 18.9022 19.4375C18.8709 19.4219 18.535 19.4375 18.1444 19.4688C17.7616 19.5078 15.6131 19.6797 13.3787 19.8516C11.0506 20.0391 9.11312 20.2188 8.8475 20.2891C7.99594 20.5078 7.35531 20.9141 6.54281 21.7266C5.98031 22.2891 5.7225 22.6172 5.4725 23.0938C5.2225 23.5859 4.82406 24.5859 4.82406 24.75C4.82406 24.8047 5.01937 24.7578 6.79281 24.3359ZM65.7616 24.75C65.7616 24.6484 65.3553 23.5703 65.2147 23.2891C64.5428 21.9609 63.3084 20.8359 62.0506 20.3906C61.5584 20.2188 61.0428 20.1484 58.7694 19.9688C57.9569 19.9062 56.41 19.7812 55.3319 19.6953C52.7381 19.4844 51.6912 19.4141 51.6756 19.4375C51.6444 19.4688 51.9959 21.5 52.035 21.5469C52.0584 21.5625 53.7928 21.9844 55.8944 22.4766C57.9881 22.9688 61.0116 23.6875 62.5975 24.0625C65.3163 24.7109 65.7616 24.8125 65.7616 24.75ZM19.6209 16.6875C19.7694 16.1719 19.8866 15.75 19.8787 15.75C19.8709 15.7422 18.8241 15.4688 17.5428 15.1406C15.5975 14.6328 15.1287 14.5391 14.6131 14.5391C13.5037 14.5469 12.4803 15.0234 11.4881 16.0078C11.1756 16.3203 10.9178 16.6016 10.9178 16.6328C10.9178 16.6641 12.0897 16.8281 13.5194 16.9922C16.4178 17.3203 19.3084 17.6406 19.3319 17.625C19.3397 17.6172 19.4725 17.1953 19.6209 16.6875ZM54.5116 17.2734C56.035 17.1016 57.8241 16.8984 58.4803 16.8281C59.1287 16.7578 59.6678 16.6719 59.6678 16.6328C59.6678 16.6016 59.41 16.3203 59.0975 16.0078C58.4334 15.3438 57.7459 14.9141 56.9725 14.6797C56.0272 14.3828 55.6287 14.4297 53.0662 15.1172C51.8241 15.4531 50.7772 15.7422 50.7537 15.7578C50.7303 15.7734 50.8241 16.2031 50.9803 16.7109L51.2459 17.6328L51.4959 17.6094C51.6287 17.5938 52.9881 17.4453 54.5116 17.2734Z" fill="rgb(255,46,23)" fill-rule="nonzero" transform="matrix(1,0,0,-1,0,41.8446)" />
		<path id="Vector" d="M7.66199 22.9188C5.13856 22.3406 3.06824 20.3875 2.32606 17.8797C2.17762 17.3719 2.14637 17.0438 2.10731 15.3797L2.06043 13.4734L1.74793 13.4422C1.13074 13.3875 0.474493 12.9422 0.161993 12.3797C0.0448052 12.1609 0.0291802 11.6766 0.00574269 6.90313C-0.00988231 3.41875 0.00574269 1.575 0.0604302 1.3875C0.193243 0.934375 0.576055 0.48125 1.02137 0.246875L1.43543 0.028125L8.89637 0.0046875C14.0761 -0.0109375 16.4823 0.0125 16.7714 0.075C17.3104 0.184375 17.7792 0.551563 18.0526 1.075L18.2714 1.48906L18.2714 6.7L18.2714 11.9031L18.0839 12.2938C17.7714 12.9734 17.2089 13.3797 16.4745 13.45L16.2011 13.4734L16.1542 15.3875C16.0995 17.5672 16.0604 17.7938 15.4589 19.0203C14.5839 20.825 13.1386 22.0984 11.2636 22.7234C10.5604 22.9578 10.4042 22.9813 9.32606 23.0047C8.50574 23.0203 8.00574 22.9969 7.66199 22.9188ZM10.6854 20.4578C11.787 20.0672 12.8495 19.1141 13.3495 18.0672C13.7401 17.2625 13.8182 16.7547 13.8182 15.0516L13.8182 13.5047L9.12293 13.5047L4.42762 13.5047L4.45887 15.2469C4.48231 16.8953 4.49793 17.0125 4.69324 17.5594C5.23231 19.0438 6.44324 20.1609 7.95887 20.575C8.59949 20.7469 10.0292 20.6844 10.6854 20.4578ZM10.0761 9.87188C10.7167 9.54375 11.1073 8.8875 11.1073 8.14531C11.1073 7.55156 10.8886 7.05156 10.4667 6.69219L10.1698 6.43438L10.3886 5.14531C10.5057 4.43438 10.6073 3.7625 10.6073 3.64531L10.6151 3.42656L9.13074 3.42656C7.77137 3.42656 7.64637 3.43438 7.64637 3.56719C7.64637 3.6375 7.74793 4.31719 7.87293 5.06719L8.09168 6.43438L7.80262 6.68438C7.13856 7.2625 6.97449 8.40313 7.45887 9.17656C7.70106 9.575 8.32606 10.0281 8.73231 10.0906C9.10731 10.1609 9.69324 10.0594 10.0761 9.87188Z" fill="rgb(255,46,23)" fill-rule="nonzero" transform="matrix(1,0,0,-1,26.1621,30.6539)" />
	</g>
</svg>
