<svg viewBox="0 0 51.3545 60.4463" xmlns="http://www.w3.org/2000/svg" xmlns:xlink="http://www.w3.org/1999/xlink" width="51.354492" height="60.446289" fill="none" customFrame="#000000">
	<g id="Black">
		<path id="Vector" d="M23.9007 59.8301C16.0057 58.165 7.43717 54.9472 1.73105 51.4861L0.234361 50.5881L0.0846918 49.0914C-0.177229 46.3412 0.196943 37.9598 0.814327 32.6465C2.46068 18.5776 7.81134 9.65364 18.4378 3.274C20.7016 1.92699 24.7987 0 25.4161 0C26.3141 0 30.4862 1.94569 33.255 3.66689C41.5804 8.81175 46.8749 16.37 49.0451 26.192C50.1676 31.2434 50.654 36.3321 50.785 44.2458L50.8972 50.4384L50.1115 50.9435C48.8393 51.7854 44.555 53.9743 42.2352 54.9846C37.7077 56.9116 32.7873 58.5205 28.3347 59.4933C25.7155 60.0733 25.229 60.1107 23.9007 59.8301ZM28.4843 58.6515C35.631 56.9864 42.0668 54.5169 48.3903 51.0184L50.1489 50.0455L50.0366 44.3394C49.8309 34.2367 49.0451 28.1752 47.1929 22.5064C45.8646 18.4467 44.2931 15.472 41.7674 12.2541C39.9527 9.93427 36.7161 6.94089 34.1343 5.20099C31.5151 3.46109 26.3516 0.860596 25.4723 0.860596C24.6117 0.860596 19.4855 3.44238 16.885 5.20099C11.8524 8.58725 8.20422 12.6844 5.56631 17.9603C2.46068 24.1341 0.889161 33.451 0.889161 45.4993L0.889161 50.0642L2.34843 50.9248C6.76366 53.544 13.0498 56.1632 18.6062 57.6973C21.3377 58.4644 24.7426 59.2688 25.3039 59.2876C25.5097 59.3063 26.9502 59.0069 28.4843 58.6515Z" fill="rgb(255,46,23)" fill-rule="nonzero" transform="matrix(1,0,0,-1,0.231445,60.2212)" />
		<path id="Vector" d="M1.73105 51.4861L0.234361 50.5881L0.0846918 49.0914C-0.177229 46.3412 0.196943 37.9598 0.814327 32.6465C2.46068 18.5776 7.81134 9.65364 18.4378 3.274C20.7016 1.92699 24.7987 0 25.4161 0C26.3141 0 30.4862 1.94569 33.255 3.66689C41.5804 8.81175 46.8749 16.37 49.0451 26.192C50.1676 31.2434 50.654 36.3321 50.785 44.2458L50.8972 50.4384L50.1115 50.9435C48.8393 51.7854 44.555 53.9743 42.2352 54.9846C37.7077 56.9116 32.7873 58.5205 28.3347 59.4933C25.7155 60.0733 25.229 60.1107 23.9007 59.8301C16.0057 58.165 7.43717 54.9472 1.73105 51.4861ZM48.3903 51.0184L50.1489 50.0455L50.0366 44.3394C49.8309 34.2367 49.0451 28.1752 47.1929 22.5064C45.8646 18.4467 44.2931 15.472 41.7674 12.2541C39.9527 9.93427 36.7161 6.94089 34.1343 5.20099C31.5151 3.46109 26.3516 0.860596 25.4723 0.860596C24.6117 0.860596 19.4855 3.44238 16.885 5.20099C11.8524 8.58725 8.20422 12.6844 5.56631 17.9603C2.46068 24.1341 0.889161 33.451 0.889161 45.4993L0.889161 50.0642L2.34843 50.9248C6.76366 53.544 13.0498 56.1632 18.6062 57.6973C21.3377 58.4644 24.7426 59.2688 25.3039 59.2876C25.5097 59.3063 26.9502 59.0069 28.4843 58.6515C35.631 56.9864 42.0668 54.5169 48.3903 51.0184Z" fill-rule="nonzero" stroke="rgb(255,46,23)" stroke-width="0.450000" transform="matrix(1,0,0,-1,0.231445,60.2212)" />
		<path id="Vector" d="M19.8872 53.6024C13.4515 52.087 6.92218 49.6549 1.92699 46.9234L0 45.857L0.093543 40.5251C0.374172 26.9239 2.18891 18.8792 6.37963 12.537C8.6995 9.0385 11.5245 6.26963 15.4533 3.63172C17.5487 2.24728 21.253 0.282877 22.3568 0.0209565C22.7309 -0.0725865 23.3483 0.133208 24.9573 0.918969C32.1975 4.4549 37.1927 9.15075 40.4293 15.4556C43.5349 21.5546 45.1064 30.7779 45.1251 42.9946C45.1251 46.0441 45.2935 45.7635 42.375 47.2976C37.9223 49.6175 31.973 51.8625 26.5849 53.2282C22.5813 54.2385 22.5626 54.2385 19.8872 53.6024ZM28.0068 52.0309C32.4407 50.8335 37.8288 48.7382 41.8511 46.6428C44.04 45.5016 44.0962 45.4641 44.2271 44.7345C44.4329 43.7055 44.2271 36.3718 43.8904 32.8171C43.1982 25.2402 42.0008 20.3572 39.6996 15.8484C36.5753 9.71201 32.1227 5.46516 25.1069 1.89182L22.6561 0.657049L20.2801 1.79827C12.067 5.7645 6.28609 12.0506 3.68559 19.8334C1.92699 25.0905 0.954139 32.4804 0.898013 41.1799L0.879304 45.4829L3.68559 46.9234C8.40016 49.3368 13.4141 51.189 18.8396 52.4986C20.4859 52.8915 22.0013 53.2469 22.2071 53.2843C22.6 53.3592 25.1631 52.7979 28.0068 52.0309Z" fill="rgb(255,46,23)" fill-rule="nonzero" transform="matrix(1,0,0,-1,3.1416,57.1553)" />
		<path id="Vector" d="M1.92699 46.9234L0 45.857L0.093543 40.5251C0.374172 26.9239 2.18891 18.8792 6.37963 12.537C8.6995 9.0385 11.5245 6.26963 15.4533 3.63172C17.5487 2.24728 21.253 0.282877 22.3568 0.0209565C22.7309 -0.0725865 23.3483 0.133208 24.9573 0.918969C32.1975 4.4549 37.1927 9.15075 40.4293 15.4556C43.5349 21.5546 45.1064 30.7779 45.1251 42.9946C45.1251 46.0441 45.2935 45.7635 42.375 47.2976C37.9223 49.6175 31.973 51.8625 26.5849 53.2282C22.5813 54.2385 22.5626 54.2385 19.8872 53.6024C13.4515 52.087 6.92218 49.6549 1.92699 46.9234ZM41.8511 46.6428C44.04 45.5016 44.0962 45.4641 44.2271 44.7345C44.4329 43.7055 44.2271 36.3718 43.8904 32.8171C43.1982 25.2402 42.0008 20.3572 39.6996 15.8484C36.5753 9.71201 32.1227 5.46516 25.1069 1.89182L22.6561 0.657049L20.2801 1.79827C12.067 5.7645 6.28609 12.0506 3.68559 19.8334C1.92699 25.0905 0.954139 32.4804 0.898013 41.1799L0.879304 45.4829L3.68559 46.9234C8.40016 49.3368 13.4141 51.189 18.8396 52.4986C20.4859 52.8915 22.0013 53.2469 22.2071 53.2843C22.6 53.3592 25.1631 52.7979 28.0068 52.0309C32.4407 50.8335 37.8288 48.7382 41.8511 46.6428Z" fill-rule="nonzero" stroke="rgb(255,46,23)" stroke-width="0.450000" transform="matrix(1,0,0,-1,3.1416,57.1553)" />
		<path id="Vector" d="M13.457 18.4972C5.41226 16.8134 -0.200317 9.92865 0.00547806 2.03362C0.0616039 0.200181 0.0803125 0.0692211 0.454484 0.0130953C0.847365 -0.0430305 0.847365 0.0130954 0.772531 1.60333C0.417067 7.81458 4.1775 13.8013 10.1455 16.5328C12.4093 17.5805 13.7563 17.8424 16.7123 17.8237C19.0134 17.8237 19.5373 17.7488 21.0152 17.2998C22.8113 16.7573 25.0189 15.6535 26.1975 14.7181C26.8523 14.2129 26.9646 14.1755 27.2265 14.4187C27.4697 14.6806 27.4136 14.7742 26.6839 15.3729C25.5053 16.3457 23.6906 17.2811 21.67 17.9546C20.0237 18.5159 19.6869 18.572 17.0864 18.6094C15.5523 18.6469 13.906 18.5907 13.457 18.4972Z" fill="rgb(255,46,23)" fill-rule="nonzero" transform="matrix(1,0,0,-1,9.00977,31.0112)" />
		<path id="Vector" d="M0.00547806 2.03362C0.0616039 0.200181 0.0803125 0.0692211 0.454484 0.0130953C0.847365 -0.0430305 0.847365 0.0130954 0.772531 1.60333C0.417067 7.81458 4.1775 13.8013 10.1455 16.5328C12.4093 17.5805 13.7563 17.8424 16.7123 17.8237C19.0134 17.8237 19.5373 17.7488 21.0152 17.2998C22.8113 16.7573 25.0189 15.6535 26.1975 14.7181C26.8523 14.2129 26.9646 14.1755 27.2265 14.4187C27.4697 14.6806 27.4136 14.7742 26.6839 15.3729C25.5053 16.3457 23.6906 17.2811 21.67 17.9546C20.0237 18.5159 19.6869 18.572 17.0864 18.6094C15.5523 18.6469 13.906 18.5907 13.457 18.4972C5.41226 16.8134 -0.200317 9.92865 0.00547806 2.03362Z" fill-rule="nonzero" stroke="rgb(255,46,23)" stroke-width="0.450000" transform="matrix(1,0,0,-1,9.00977,31.0112)" />
		<path id="Vector" d="M13.4436 14.2935C0.64689 1.40332 -0.662712 -0.018529 0.216592 0.00017957C0.553347 0.0188882 27.6247 27.3147 27.6247 27.6515C27.6247 27.8386 27.4937 27.9508 27.3066 27.9508C27.1196 27.9321 20.8896 21.7957 13.4436 14.2935Z" fill="rgb(255,46,23)" fill-rule="nonzero" transform="matrix(1,0,0,-1,12.4092,42.5415)" />
		<path id="Vector" d="M0.216592 0.00017957C0.553347 0.0188882 27.6247 27.3147 27.6247 27.6515C27.6247 27.8386 27.4937 27.9508 27.3066 27.9508C27.1196 27.9321 20.8896 21.7957 13.4436 14.2935C0.64689 1.40332 -0.662712 -0.018529 0.216592 0.00017957Z" fill-rule="nonzero" stroke="rgb(255,46,23)" stroke-width="0.450000" transform="matrix(1,0,0,-1,12.4092,42.5415)" />
		<path id="Vector" d="M11.4425 21.9598C11.3302 21.9037 11.0309 21.305 10.8064 20.6128C10.3387 19.1348 10.2826 19.0787 8.99167 18.5549L8.01882 18.162L6.72793 18.8542L5.43704 19.5464L4.53902 18.7794C4.0526 18.3678 3.3978 17.713 3.07975 17.3388L2.5185 16.6466L3.11717 15.2809L3.71585 13.9338L3.30426 12.7926L2.89267 11.6514L1.47081 11.1837L0.0676698 10.7347L0.011544 8.78898C-0.0258732 7.66647 0.0302526 6.78716 0.142504 6.67491C0.254756 6.56266 0.890848 6.30074 1.58307 6.09494L2.81783 5.70206L3.28555 4.54213L3.75326 3.3822L3.13588 2.14743C2.63075 1.09975 2.57462 0.856534 2.743 0.463654C2.9675 -0.0227697 3.41651 -0.15373 3.64101 0.201733C3.69714 0.313985 3.65972 0.501071 3.54747 0.613323C3.3978 0.762991 3.52876 1.13716 3.99648 1.97905C4.35194 2.61514 4.65128 3.25124 4.65128 3.4009C4.65128 3.53186 4.37065 4.2615 4.0526 4.99114L3.43522 6.35686L2.12562 6.78716L0.816014 7.23617L0.759888 8.6206L0.703762 10.0237L2.14432 10.4728C2.94879 10.7347 3.6223 11.0527 3.65972 11.2211C3.71585 11.3708 3.97777 12.0443 4.22098 12.6804L4.68869 13.8777L4.09002 15.1499C3.41651 16.6466 3.45393 16.815 4.74482 17.8627L5.58671 18.5549L6.76535 17.9001L7.94399 17.2266L9.47809 17.8252L11.0122 18.4239L11.4238 19.7896L11.8167 21.1367L13.3508 21.1367L14.9036 21.1367L15.2216 19.9206C15.4087 19.2471 15.6519 18.6297 15.7642 18.5362C15.8764 18.4426 16.5687 18.1246 17.317 17.8252L18.6453 17.264L19.8052 17.9001C20.4413 18.2742 21.0774 18.4987 21.2458 18.4426C21.3955 18.3678 21.6574 18.4239 21.8071 18.5362C22.0129 18.7232 22.0129 18.8168 21.7509 19.0974C21.3019 19.5838 21.0026 19.5464 19.7304 18.8168L18.6453 18.1994L17.6163 18.611C16.3629 19.1348 16.3816 19.1161 15.97 20.3883C15.4461 21.9973 15.3526 22.0721 13.3695 22.0534C12.4341 22.0534 11.5735 21.9973 11.4425 21.9598Z" fill="rgb(255,46,23)" fill-rule="nonzero" transform="matrix(1,0,0,-1,12.1846,37.5796)" />
		<path id="Vector" d="M10.8064 20.6128C10.3387 19.1348 10.2826 19.0787 8.99167 18.5549L8.01882 18.162L6.72793 18.8542L5.43704 19.5464L4.53902 18.7794C4.0526 18.3678 3.3978 17.713 3.07975 17.3388L2.5185 16.6466L3.11717 15.2809L3.71585 13.9338L3.30426 12.7926L2.89267 11.6514L1.47081 11.1837L0.0676698 10.7347L0.011544 8.78898C-0.0258732 7.66647 0.0302526 6.78716 0.142504 6.67491C0.254756 6.56266 0.890848 6.30074 1.58307 6.09494L2.81783 5.70206L3.28555 4.54213L3.75326 3.3822L3.13588 2.14743C2.63075 1.09975 2.57462 0.856534 2.743 0.463654C2.9675 -0.0227697 3.41651 -0.15373 3.64101 0.201733C3.69714 0.313985 3.65972 0.501071 3.54747 0.613323C3.3978 0.762991 3.52876 1.13716 3.99648 1.97905C4.35194 2.61514 4.65128 3.25124 4.65128 3.4009C4.65128 3.53186 4.37065 4.2615 4.0526 4.99114L3.43522 6.35686L2.12562 6.78716L0.816014 7.23617L0.759888 8.6206L0.703762 10.0237L2.14432 10.4728C2.94879 10.7347 3.6223 11.0527 3.65972 11.2211C3.71585 11.3708 3.97777 12.0443 4.22098 12.6804L4.68869 13.8777L4.09002 15.1499C3.41651 16.6466 3.45393 16.815 4.74482 17.8627L5.58671 18.5549L6.76535 17.9001L7.94399 17.2266L9.47809 17.8252L11.0122 18.4239L11.4238 19.7896L11.8167 21.1367L13.3508 21.1367L14.9036 21.1367L15.2216 19.9206C15.4087 19.2471 15.6519 18.6297 15.7642 18.5362C15.8764 18.4426 16.5687 18.1246 17.317 17.8252L18.6453 17.264L19.8052 17.9001C20.4413 18.2742 21.0774 18.4987 21.2458 18.4426C21.3955 18.3678 21.6574 18.4239 21.8071 18.5362C22.0129 18.7232 22.0129 18.8168 21.7509 19.0974C21.3019 19.5838 21.0026 19.5464 19.7304 18.8168L18.6453 18.1994L17.6163 18.611C16.3629 19.1348 16.3816 19.1161 15.97 20.3883C15.4461 21.9973 15.3526 22.0721 13.3695 22.0534C12.4341 22.0534 11.5735 21.9973 11.4425 21.9598C11.3302 21.9037 11.0309 21.305 10.8064 20.6128Z" fill-rule="nonzero" stroke="rgb(255,46,23)" stroke-width="0.450000" transform="matrix(1,0,0,-1,12.1846,37.5796)" />
		<path id="Vector" d="M0.189796 8.10466C-0.109542 7.82403 -0.0908331 7.74919 0.507842 7.05698C1.53682 5.85962 3.50122 1.70632 3.18317 1.38827C3.12705 1.35085 2.75287 1.57536 2.32258 1.8934C1.53682 2.47337 0.975557 2.51079 0.975557 1.98694C0.975557 1.57536 3.80056 -0.22067 4.08118 0.0225419C4.39923 0.284462 5.83979 2.69787 5.83979 2.95979C5.83979 3.48363 5.09145 3.14688 4.67986 2.43595C4.43665 2.02436 4.19344 1.68761 4.13731 1.68761C4.08118 1.68761 3.8941 2.17403 3.70701 2.77271C3.2393 4.21327 2.41612 5.84092 1.40585 7.26277C0.956849 7.89886 0.563968 8.4227 0.545259 8.4227C0.507842 8.4227 0.358173 8.29174 0.189796 8.10466Z" fill="rgb(255,46,23)" fill-rule="nonzero" transform="matrix(1,0,0,-1,37.749,26.5493)" />
		<path id="Vector" d="M0.507842 7.05698C1.53682 5.85962 3.50122 1.70632 3.18317 1.38827C3.12705 1.35085 2.75287 1.57536 2.32258 1.8934C1.53682 2.47337 0.975557 2.51079 0.975557 1.98694C0.975557 1.57536 3.80056 -0.22067 4.08118 0.0225419C4.39923 0.284462 5.83979 2.69787 5.83979 2.95979C5.83979 3.48363 5.09145 3.14688 4.67986 2.43595C4.43665 2.02436 4.19344 1.68761 4.13731 1.68761C4.08118 1.68761 3.8941 2.17403 3.70701 2.77271C3.2393 4.21327 2.41612 5.84092 1.40585 7.26277C0.956849 7.89886 0.563968 8.4227 0.545259 8.4227C0.507842 8.4227 0.358173 8.29174 0.189796 8.10466C-0.109542 7.82403 -0.0908331 7.74919 0.507842 7.05698Z" fill-rule="nonzero" stroke="rgb(255,46,23)" stroke-width="0.450000" transform="matrix(1,0,0,-1,37.749,26.5493)" />
		<path id="Vector" d="M18.2223 21.2343C18.2223 21.0285 17.9604 20.3362 17.6423 19.6814L17.0436 18.4841L17.6236 17.0061L18.1849 15.5281L19.6254 15.0604L21.0473 14.6114L20.9911 13.1896L20.935 11.7864L19.5506 11.3187L18.1849 10.851L17.6236 9.41043L17.081 7.96986L17.661 6.7351L18.241 5.51904L17.8668 4.9952C17.6797 4.71457 17.2494 4.24685 16.9314 3.94752L16.3514 3.38626L15.0418 4.02235L13.7509 4.63973L12.46 4.1346C10.6827 3.42367 10.7201 3.46109 10.2898 2.02053L9.87824 0.748344L8.41896 0.748344L6.94098 0.748344L6.45456 2.13278L5.96814 3.51722L4.75208 3.96622C4.07857 4.22814 3.36764 4.47136 3.16185 4.50877C2.75026 4.60232 -0.0186142 3.10563 9.43661e-05 2.80629C0.018803 2.3947 0.748438 2.50695 1.85225 3.10563L3.01218 3.72301L4.19082 3.27401L5.36946 2.80629L5.85589 1.40315L6.34231 0L8.40026 0L10.4582 0L10.9446 1.38444L11.431 2.76887L12.591 3.23659L13.7509 3.72301L14.967 3.12434C15.6218 2.78758 16.2766 2.52566 16.4262 2.52566C16.7069 2.52566 19.1577 5.01391 19.1577 5.29453C19.1577 5.38808 18.8958 6.04288 18.5777 6.71639L17.9978 7.96986L18.4094 9.07367L18.8209 10.1775L20.0744 10.5891C20.7479 10.8136 21.4214 11.0755 21.5524 11.1877C21.7208 11.3187 21.7769 11.8987 21.7395 13.2457C21.6834 15.3223 21.7769 15.1727 20.0183 15.8462C18.9706 16.2578 18.8958 16.3326 18.4468 17.3616L17.9791 18.4467L18.5964 19.7376C18.9332 20.4298 19.1577 21.1407 19.1016 21.3091C18.9332 21.7581 18.2223 21.702 18.2223 21.2343Z" fill="rgb(255,46,23)" fill-rule="nonzero" transform="matrix(1,0,0,-1,17.1348,42.1675)" />
		<path id="Vector" d="M17.6423 19.6814L17.0436 18.4841L17.6236 17.0061L18.1849 15.5281L19.6254 15.0604L21.0473 14.6114L20.9911 13.1896L20.935 11.7864L19.5506 11.3187L18.1849 10.851L17.6236 9.41043L17.081 7.96986L17.661 6.7351L18.241 5.51904L17.8668 4.9952C17.6797 4.71457 17.2494 4.24685 16.9314 3.94752L16.3514 3.38626L15.0418 4.02235L13.7509 4.63973L12.46 4.1346C10.6827 3.42367 10.7201 3.46109 10.2898 2.02053L9.87824 0.748344L8.41896 0.748344L6.94098 0.748344L6.45456 2.13278L5.96814 3.51722L4.75208 3.96622C4.07857 4.22814 3.36764 4.47136 3.16185 4.50877C2.75026 4.60232 -0.0186142 3.10563 9.43661e-05 2.80629C0.018803 2.3947 0.748438 2.50695 1.85225 3.10563L3.01218 3.72301L4.19082 3.27401L5.36946 2.80629L5.85589 1.40315L6.34231 0L8.40026 0L10.4582 0L10.9446 1.38444L11.431 2.76887L12.591 3.23659L13.7509 3.72301L14.967 3.12434C15.6218 2.78758 16.2766 2.52566 16.4262 2.52566C16.7069 2.52566 19.1577 5.01391 19.1577 5.29453C19.1577 5.38808 18.8958 6.04288 18.5777 6.71639L17.9978 7.96986L18.4094 9.07367L18.8209 10.1775L20.0744 10.5891C20.7479 10.8136 21.4214 11.0755 21.5524 11.1877C21.7208 11.3187 21.7769 11.8987 21.7395 13.2457C21.6834 15.3223 21.7769 15.1727 20.0183 15.8462C18.9706 16.2578 18.8958 16.3326 18.4468 17.3616L17.9791 18.4467L18.5964 19.7376C18.9332 20.4298 19.1577 21.1407 19.1016 21.3091C18.9332 21.7581 18.2223 21.702 18.2223 21.2343C18.2223 21.0285 17.9604 20.3362 17.6423 19.6814Z" fill-rule="nonzero" stroke="rgb(255,46,23)" stroke-width="0.450000" transform="matrix(1,0,0,-1,17.1348,42.1675)" />
		<path id="Vector" d="M5.39356 11.5704C3.33561 11.084 1.22154 9.26929 0.454488 7.30489C-0.368691 5.24694 -0.0319359 1.80456 1.128 0.251747C1.37121 -0.0662991 1.44604 -0.0662991 1.68926 0.158204C1.93247 0.401416 1.89505 0.569793 1.44604 1.46781C1.05316 2.27228 0.922203 2.81483 0.866077 4.04959C0.735117 7.36102 2.2318 9.58734 5.30001 10.6163C5.93611 10.8408 6.81541 11.0092 7.26442 11.0092C8.23726 11.0092 9.88362 10.5602 10.6881 10.0551C11.2306 9.73701 11.3055 9.7183 11.53 9.99893C11.7358 10.2608 11.6984 10.3544 11.3242 10.6537C10.183 11.533 7.18958 12.0007 5.39356 11.5704Z" fill="rgb(255,46,23)" fill-rule="nonzero" transform="matrix(1,0,0,-1,18.2334,33.252)" />
		<path id="Vector" d="M0.454488 7.30489C-0.368691 5.24694 -0.0319359 1.80456 1.128 0.251747C1.37121 -0.0662991 1.44604 -0.0662991 1.68926 0.158204C1.93247 0.401416 1.89505 0.569793 1.44604 1.46781C1.05316 2.27228 0.922203 2.81483 0.866077 4.04959C0.735117 7.36102 2.2318 9.58734 5.30001 10.6163C5.93611 10.8408 6.81541 11.0092 7.26442 11.0092C8.23726 11.0092 9.88362 10.5602 10.6881 10.0551C11.2306 9.73701 11.3055 9.7183 11.53 9.99893C11.7358 10.2608 11.6984 10.3544 11.3242 10.6537C10.183 11.533 7.18958 12.0007 5.39356 11.5704C3.33561 11.084 1.22154 9.26929 0.454488 7.30489Z" fill-rule="nonzero" stroke="rgb(255,46,23)" stroke-width="0.450000" transform="matrix(1,0,0,-1,18.2334,33.252)" />
		<path id="Vector" d="M1.6733 4.92442C1.6733 4.77475 1.93522 4.36316 2.25326 4.0077C2.72098 3.46515 2.7771 3.27806 2.62744 2.97873C2.29068 2.36134 1.99134 2.41747 1.14946 3.22194C0.494655 3.85803 0.326278 3.93286 0.176609 3.70836C-0.122728 3.24065 -0.0291854 1.96846 0.363695 1.33237C0.887536 0.471774 1.56105 0.0976015 2.73969 0.0227671C3.95575 -0.0520673 4.18025 0.0414757 3.91833 0.546608C3.76866 0.827237 3.52545 0.902071 2.7771 0.902071C2.02876 0.902071 1.74813 0.995614 1.39267 1.36979C1.13075 1.613 0.924953 1.94975 0.924953 2.11813C0.924953 2.38005 0.999788 2.36134 1.41138 2.0433C2.08489 1.51946 2.34681 1.55687 3.00161 2.19296C3.61899 2.81035 3.71253 3.5774 3.24482 4.10124C2.96419 4.40058 2.9829 4.41929 3.31965 4.32575C4.01187 4.15737 4.38604 3.53998 4.38604 2.60455C4.38604 2.13684 4.4983 1.57558 4.61055 1.36979C4.83505 0.995614 4.83505 0.995614 5.09697 1.35108C5.41502 1.78138 5.32147 3.12839 4.90988 4.02641C4.57313 4.75604 3.67512 5.20505 2.53389 5.20505C1.8978 5.20505 1.6733 5.13021 1.6733 4.92442Z" fill="rgb(255,46,23)" fill-rule="nonzero" transform="matrix(1,0,0,-1,20.4004,28.9448)" />
		<path id="Vector" d="M2.25326 4.0077C2.72098 3.46515 2.7771 3.27806 2.62744 2.97873C2.29068 2.36134 1.99134 2.41747 1.14946 3.22194C0.494655 3.85803 0.326278 3.93286 0.176609 3.70836C-0.122728 3.24065 -0.0291854 1.96846 0.363695 1.33237C0.887536 0.471774 1.56105 0.0976015 2.73969 0.0227671C3.95575 -0.0520673 4.18025 0.0414757 3.91833 0.546608C3.76866 0.827237 3.52545 0.902071 2.7771 0.902071C2.02876 0.902071 1.74813 0.995614 1.39267 1.36979C1.13075 1.613 0.924953 1.94975 0.924953 2.11813C0.924953 2.38005 0.999788 2.36134 1.41138 2.0433C2.08489 1.51946 2.34681 1.55687 3.00161 2.19296C3.61899 2.81035 3.71253 3.5774 3.24482 4.10124C2.96419 4.40058 2.9829 4.41929 3.31965 4.32575C4.01187 4.15737 4.38604 3.53998 4.38604 2.60455C4.38604 2.13684 4.4983 1.57558 4.61055 1.36979C4.83505 0.995614 4.83505 0.995614 5.09697 1.35108C5.41502 1.78138 5.32147 3.12839 4.90988 4.02641C4.57313 4.75604 3.67512 5.20505 2.53389 5.20505C1.8978 5.20505 1.6733 5.13021 1.6733 4.92442C1.6733 4.77475 1.93522 4.36316 2.25326 4.0077Z" fill-rule="nonzero" stroke="rgb(255,46,23)" stroke-width="0.450000" transform="matrix(1,0,0,-1,20.4004,28.9448)" />
		<path id="Vector" d="M9.81566 11.1129C9.66599 10.9632 9.70341 10.7013 9.96533 10.1026C11.144 7.42731 10.5827 4.43394 8.52477 2.43212C7.36483 1.3096 5.96169 0.785761 4.05341 0.767053C2.81865 0.767053 2.36964 0.841887 1.49033 1.25348C0.48007 1.72119 0.423944 1.72119 0.143315 1.42185C-0.137314 1.10381 -0.0811881 1.04768 1.00391 0.542549C2.0703 0.0561258 2.36964 0 4.14696 0C5.99911 0 6.2049 0.0374172 7.36483 0.617384C10.8072 2.30116 12.3226 6.43576 10.8633 10.0839C10.3956 11.2439 10.1711 11.4684 9.81566 11.1129Z" fill="rgb(255,46,23)" fill-rule="nonzero" transform="matrix(1,0,0,-1,21.4824,36.1807)" />
		<path id="Vector" d="M9.96533 10.1026C11.144 7.42731 10.5827 4.43394 8.52477 2.43212C7.36483 1.3096 5.96169 0.785761 4.05341 0.767053C2.81865 0.767053 2.36964 0.841887 1.49033 1.25348C0.48007 1.72119 0.423944 1.72119 0.143315 1.42185C-0.137314 1.10381 -0.0811881 1.04768 1.00391 0.542549C2.0703 0.0561258 2.36964 0 4.14696 0C5.99911 0 6.2049 0.0374172 7.36483 0.617384C10.8072 2.30116 12.3226 6.43576 10.8633 10.0839C10.3956 11.2439 10.1711 11.4684 9.81566 11.1129C9.66599 10.9632 9.70341 10.7013 9.96533 10.1026Z" fill-rule="nonzero" stroke="rgb(255,46,23)" stroke-width="0.450000" transform="matrix(1,0,0,-1,21.4824,36.1807)" />
		<path id="Vector" d="M26.5849 17.2385C26.4727 17.1263 26.3791 16.434 26.3791 15.7044C26.3791 13.8523 25.7992 11.7382 24.6766 9.43703C23.7973 7.69713 23.498 7.26683 21.8142 5.60177C19.8311 3.63736 18.6712 2.83289 16.4636 1.93488C14.3495 1.07429 12.4225 0.756239 10.0278 0.8872C6.69768 1.05558 3.59205 2.08455 1.38444 3.76832C0.710927 4.29216 0.486424 4.367 0.280629 4.19862C0.13096 4.06766 0 3.89928 0 3.82445C0 3.54382 2.52566 1.9723 3.89139 1.39233C8.475 -0.553362 13.5263 -0.45982 17.9041 1.67296C23.2361 4.27346 26.8281 9.56799 27.2397 15.4986C27.352 16.9579 27.3146 17.2572 27.0901 17.3508C26.9217 17.4069 26.6972 17.3508 26.5849 17.2385Z" fill="rgb(255,46,23)" fill-rule="nonzero" transform="matrix(1,0,0,-1,14.9648,45.5239)" />
		<path id="Vector" d="M26.3791 15.7044C26.3791 13.8523 25.7992 11.7382 24.6766 9.43703C23.7973 7.69713 23.498 7.26683 21.8142 5.60177C19.8311 3.63736 18.6712 2.83289 16.4636 1.93488C14.3495 1.07429 12.4225 0.756239 10.0278 0.8872C6.69768 1.05558 3.59205 2.08455 1.38444 3.76832C0.710927 4.29216 0.486424 4.367 0.280629 4.19862C0.13096 4.06766 0 3.89928 0 3.82445C0 3.54382 2.52566 1.9723 3.89139 1.39233C8.475 -0.553362 13.5263 -0.45982 17.9041 1.67296C23.2361 4.27346 26.8281 9.56799 27.2397 15.4986C27.352 16.9579 27.3146 17.2572 27.0901 17.3508C26.9217 17.4069 26.6972 17.3508 26.5849 17.2385C26.4727 17.1263 26.3791 16.434 26.3791 15.7044Z" fill-rule="nonzero" stroke="rgb(255,46,23)" stroke-width="0.450000" transform="matrix(1,0,0,-1,14.9648,45.5239)" />
		<path id="Vector" d="M1.56101 4.98547C1.37393 4.53647 1.63585 4.36809 2.4029 4.46163C3.2822 4.57388 3.82475 4.31196 4.21763 3.54491L4.51697 2.96494L3.82475 3.39524C3.26349 3.732 3.0577 3.78812 2.70224 3.61975C1.65456 3.13332 1.29909 1.73018 2.06614 1.11279L2.51515 0.757329L2.04744 0.869581C1.78552 0.944415 1.37393 1.20634 1.13071 1.48696C0.79396 1.86114 0.719125 2.10435 0.79396 2.66561C0.906211 3.54491 0.700417 3.93779 0.288828 3.60104C-0.0666357 3.3017 -0.104053 2.01081 0.232702 1.3373C0.79396 0.233489 2.92674 -0.421313 3.54412 0.308323C3.74992 0.551535 3.65638 0.719912 3.00157 1.31859L2.21581 2.04822L2.66482 2.55335L3.11383 3.0772L3.88088 2.36627C4.81631 1.52438 5.2279 1.58051 5.2279 2.57206C5.2279 3.45137 4.76018 4.42422 4.10538 4.89193C3.45058 5.35964 1.72939 5.41577 1.56101 4.98547Z" fill="rgb(255,46,23)" fill-rule="nonzero" transform="matrix(1,0,0,-1,25.4521,34.2441)" />
		<path id="Vector" d="M2.4029 4.46163C3.2822 4.57388 3.82475 4.31196 4.21763 3.54491L4.51697 2.96494L3.82475 3.39524C3.26349 3.732 3.0577 3.78812 2.70224 3.61975C1.65456 3.13332 1.29909 1.73018 2.06614 1.11279L2.51515 0.757329L2.04744 0.869581C1.78552 0.944415 1.37393 1.20634 1.13071 1.48696C0.79396 1.86114 0.719125 2.10435 0.79396 2.66561C0.906211 3.54491 0.700417 3.93779 0.288828 3.60104C-0.0666357 3.3017 -0.104053 2.01081 0.232702 1.3373C0.79396 0.233489 2.92674 -0.421313 3.54412 0.308323C3.74992 0.551535 3.65638 0.719912 3.00157 1.31859L2.21581 2.04822L2.66482 2.55335L3.11383 3.0772L3.88088 2.36627C4.81631 1.52438 5.2279 1.58051 5.2279 2.57206C5.2279 3.45137 4.76018 4.42422 4.10538 4.89193C3.45058 5.35964 1.72939 5.41577 1.56101 4.98547C1.37393 4.53647 1.63585 4.36809 2.4029 4.46163Z" fill-rule="nonzero" stroke="rgb(255,46,23)" stroke-width="0.450000" transform="matrix(1,0,0,-1,25.4521,34.2441)" />
		<path id="Vector" d="M0.680271 5.74671C0.249973 4.92353 -0.0493645 4.15648 0.00676129 4.06293C0.249973 3.65135 0.680271 3.91327 1.07315 4.71774C1.29765 5.18545 1.54087 5.55962 1.59699 5.55962C1.65312 5.55962 1.89633 5.01707 2.13954 4.34356C2.56984 3.1275 4.06653 0.639261 4.64649 0.152837C4.88971 -0.034249 5.02067 -0.0529576 5.22646 0.11542C5.45096 0.321214 5.39484 0.489592 4.75875 1.31277C3.97298 2.34174 2.83176 4.56807 2.60726 5.42866L2.4763 5.97121L3.37431 5.40995C4.27232 4.8487 4.77745 4.81128 4.77745 5.27899C4.77745 5.57833 2.17696 7.2434 1.74666 7.2434C1.55957 7.2434 1.12928 6.64472 0.680271 5.74671Z" fill="rgb(255,46,23)" fill-rule="nonzero" transform="matrix(1,0,0,-1,8.12988,39.7759)" />
		<path id="Vector" d="M0.00676129 4.06293C0.249973 3.65135 0.680271 3.91327 1.07315 4.71774C1.29765 5.18545 1.54087 5.55962 1.59699 5.55962C1.65312 5.55962 1.89633 5.01707 2.13954 4.34356C2.56984 3.1275 4.06653 0.639261 4.64649 0.152837C4.88971 -0.034249 5.02067 -0.0529576 5.22646 0.11542C5.45096 0.321214 5.39484 0.489592 4.75875 1.31277C3.97298 2.34174 2.83176 4.56807 2.60726 5.42866L2.4763 5.97121L3.37431 5.40995C4.27232 4.8487 4.77745 4.81128 4.77745 5.27899C4.77745 5.57833 2.17696 7.2434 1.74666 7.2434C1.55957 7.2434 1.12928 6.64472 0.680271 5.74671C0.249973 4.92353 -0.0493645 4.15648 0.00676129 4.06293Z" fill-rule="nonzero" stroke="rgb(255,46,23)" stroke-width="0.450000" transform="matrix(1,0,0,-1,8.12988,39.7759)" />
	</g>
</svg>
