<svg viewBox="0 0 50.4434 60" xmlns="http://www.w3.org/2000/svg" xmlns:xlink="http://www.w3.org/1999/xlink" width="50.443359" height="60.000000" fill="none" customFrame="#000000">
	<g id="Black">
		<path id="Vector" d="M12.6976 55.0396C5.84849 52.3035 0.199784 49.9911 0.129176 49.8852C-0.0649988 49.6204 -0.0296944 37.2109 0.16448 32.8331C0.464568 25.8075 2.05327 20.6707 5.54841 15.4457C9.25537 9.90289 15.2571 4.99558 23.3065 0.95322L25.2306 0L27.1547 0.95322C32.4504 3.61871 37.3577 7.02558 40.7646 10.4325C45.0011 14.6866 47.7725 19.4351 49.22 24.9249C50.2438 28.7908 50.3321 29.8146 50.4204 39.6292C50.4557 44.5895 50.4557 48.9496 50.3851 49.338L50.2791 50.0617L37.799 55.0396C30.9146 57.7757 25.2659 60.0176 25.213 59.9999C25.1777 59.9999 19.5466 57.7757 12.6976 55.0396ZM37.3224 54.0511L49.1494 49.3203L49.2024 40.6001C49.2377 34.8631 49.1847 31.2091 49.0611 29.9558C48.3727 23.4775 45.7072 17.5463 41.2412 12.5331C38.0638 8.94968 33.6684 5.68402 27.7019 2.47131L25.3189 1.1827L23.0241 2.34775C11.6561 8.13767 4.80701 15.7105 2.3004 25.278C1.32953 29.0203 1.31187 29.1791 1.31187 39.6116L1.31187 49.3027L13.1389 54.0334C19.6525 56.6283 25.0894 58.7642 25.2306 58.7642C25.3719 58.7642 30.8264 56.646 37.3224 54.0511Z" fill="rgb(255,46,23)" fill-rule="nonzero" transform="matrix(1,0,0,-1,0,60)" />
		<path id="Vector" d="M11.24 28.7095C6.31914 27.6293 2.2384 23.8606 0.486088 18.7477C-0.162029 16.8754 -0.162029 11.9785 0.486088 10.1061C1.27823 7.75371 2.38243 5.95338 4.11074 4.20106C6.84724 1.44057 10.3279 0.000305125 14.4326 0.000305125C18.5373 -0.0236992 21.946 1.36855 24.7785 4.20106C27.731 7.1776 29.1233 10.9223 28.9072 15.2431C28.4031 24.2447 20.0496 30.6058 11.24 28.7095ZM17.3851 27.0292C21.994 25.949 25.7386 22.2043 26.9389 17.4755C27.2269 16.3953 27.2989 15.3631 27.2029 13.7068C27.0589 11.0663 26.4828 9.16996 25.2106 7.24961L24.3464 5.95338L23.0022 7.29762L21.6819 8.61786L21.6339 11.5944C21.6099 14.0188 21.4899 14.835 21.0098 16.2272C20.5537 17.5715 20.3137 17.9315 19.9056 17.9796C19.4975 18.0516 19.2815 17.8835 19.0894 17.3794C18.8254 16.7313 18.8254 16.7553 18.4173 18.2676C17.9132 20.308 17.0731 21.7002 15.4168 23.2605C13.6165 24.9648 13.2804 24.8928 13.1124 22.7084C12.9923 21.0041 12.1042 18.7477 11.5761 18.7477C11.4321 18.7477 10.1118 19.9479 8.67157 21.3882C5.62301 24.4367 5.62301 24.3647 8.21548 25.757C11.072 27.3172 14.2886 27.7493 17.3851 27.0292ZM7.1833 20.716C9.07964 18.8197 9.4397 18.3396 9.00763 18.3636C8.52754 18.3876 8.43152 18.2196 8.26349 17.3314C8.16747 16.7313 7.80741 15.4351 7.49535 14.4509C6.6552 11.8344 6.55918 11.2343 6.87124 9.81808C7.25531 7.94574 8.43152 6.48148 10.2559 5.56931C11.7921 4.80117 13.1124 4.58513 13.1124 5.13723C13.1124 5.28126 12.8963 5.68933 12.6323 6.02539C11.8401 7.05758 12.0082 8.32981 13.1844 10.1781L14.2406 11.7864L15.3448 10.1301C16.785 7.96974 16.9051 7.48966 16.2569 6.26544C15.6088 4.99321 15.6088 4.82518 16.425 4.82518C17.3131 4.84918 18.8494 5.56931 19.8576 6.45747L20.7217 7.20161L21.8259 6.0734C22.4501 5.44929 22.9541 4.87319 22.9541 4.77717C22.9541 4.44111 20.1216 2.78481 18.6574 2.28072C13.9765 0.672426 8.81559 1.87264 5.28695 5.40128C1.51827 9.16996 0.486088 15.027 2.71849 19.9479C3.15057 20.8841 4.59083 23.0685 4.78286 23.0685C4.80687 23.0685 5.88706 22.0123 7.1833 20.716ZM16.593 19.4438C16.9771 18.5797 17.1931 17.7155 17.1931 16.8994C17.1931 16.2272 17.2651 15.5071 17.3371 15.2911C17.5292 14.763 18.4413 14.811 19.1855 15.3871L19.7856 15.8672L20.0736 14.715C20.5297 12.9146 20.6737 10.4422 20.3377 10.2262C20.1456 10.1301 18.7054 11.3784 16.3049 13.7548L12.5843 17.4515L13.4484 19.0838C13.9285 19.9719 14.3126 20.9081 14.3126 21.1481C14.3126 21.3882 14.3846 21.7482 14.4566 21.9643C14.6486 22.4684 15.8009 21.1001 16.593 19.4438ZM10.7599 15.147C10.976 15.147 11.288 15.3631 11.4561 15.6511C11.7921 16.1312 11.7921 16.1312 12.5603 15.3391C13.2564 14.5949 13.3044 14.4749 13.1364 13.4187C13.0404 12.7946 12.5123 11.5944 11.9122 10.6102C11.144 9.31399 10.88 8.61786 10.856 7.82572C10.856 7.22561 10.7599 6.74552 10.6639 6.74552C10.2559 6.74552 9.00763 8.06576 8.57555 8.97793C7.90343 10.3702 7.92743 11.2583 8.71957 13.8748L9.3917 16.0832L9.89579 15.6031C10.1598 15.3631 10.5439 15.147 10.7599 15.147ZM18.0333 9.84208L19.6896 8.13777L18.8734 7.39364L18.0333 6.64951L17.9132 7.75371C17.8172 8.47384 17.5052 9.26598 17.0491 9.9141C15.4408 12.1705 15.8249 12.1465 18.0333 9.84208Z" fill="rgb(255,46,23)" fill-rule="nonzero" transform="matrix(1,0,0,-1,10.7578,44.5225)" />
	</g>
</svg>
