<svg viewBox="0 0 39.3525 60" xmlns="http://www.w3.org/2000/svg" xmlns:xlink="http://www.w3.org/1999/xlink" width="39.352539" height="60.000000" fill="none" customFrame="#000000">
	<g id="Black">
		<path id="Vector" d="M0.789585 11.3554C-0.0368614 10.7934 -0.119506 10.3967 0.111899 7.71901C0.227601 6.42975 0.392891 4.29752 0.508593 2.97521C0.690411 0.495868 0.855701 0 1.4838 0C1.9962 0 2.27719 0.61157 2.19454 1.55372C2.16149 2.01653 1.97967 4.06612 1.78132 6.08264C1.53339 8.92562 1.50033 9.83471 1.64909 10.0165C1.79785 10.1983 2.44248 10.2479 4.77306 10.2479C8.26066 10.2479 8.17801 10.281 8.01273 8.6281C7.96314 8.01653 7.79785 6.21488 7.66562 4.6281C7.53339 3.04132 7.38463 1.4876 7.35157 1.20661C7.2524 0.46281 7.69868 -0.0826446 8.29372 0.0661157C8.55818 0.132231 8.77306 0.31405 8.82264 0.545455C8.92182 1.02479 9.5995 8.47934 9.61603 9.42149C9.61603 9.83471 9.50033 10.4132 9.35157 10.6942C8.83917 11.6529 8.47554 11.7355 4.72347 11.7355C1.4838 11.7355 1.33504 11.719 0.789585 11.3554Z" fill="rgb(255,46,23)" fill-rule="nonzero" transform="matrix(1,0,0,-1,14.8936,11.7354)" />
		<path id="Vector" d="M8.91233 14.6591C5.85448 12.5269 3.85448 9.55165 3.04456 5.94835C2.79663 4.84091 2.7801 4.80785 1.97018 4.44422C1.54043 4.22934 1.02803 3.89876 0.846213 3.71694C0.0693535 2.8905 -0.261225 1.07231 0.234643 0.378099C0.466048 0.0640496 0.862743 0.0640496 17.5735 0.0144628C34.0032 -0.018595 34.6809 -0.0185951 35.0446 0.278926C35.3421 0.52686 35.4247 0.741736 35.4247 1.35331C35.4082 1.76653 35.3256 2.3781 35.2098 2.69215C34.995 3.35331 33.9371 4.34504 33.1603 4.6095C32.6809 4.77479 32.6313 4.87397 32.2842 6.29545C31.4082 9.8657 29.4247 12.6922 26.2842 14.7913C25.1603 15.5517 24.7966 15.6674 24.4826 15.3037C24.3834 15.1715 24.1851 13.7004 24.0363 12.031C23.7718 9.0062 23.7718 9.0062 24.1189 8.72521C24.5487 8.3781 25.1107 8.4938 25.276 8.97314C25.3586 9.15496 25.4743 10.1963 25.5404 11.2707C25.6065 12.3285 25.7057 13.2045 25.7718 13.2045C26.0032 13.2045 27.6892 11.7004 28.3669 10.874C29.3256 9.70041 30.3173 7.78306 30.7305 6.2624C30.9289 5.58471 31.0776 5.0062 31.0776 4.98967C31.0776 4.95661 30.747 4.94008 30.3669 4.94008C29.6065 4.94008 29.0941 4.59298 29.0941 4.08058C29.0941 3.6343 29.4743 3.50207 30.8297 3.41942C32.3669 3.33678 33.2925 2.95661 33.6396 2.27893C33.7718 2.03099 33.8875 1.78306 33.8875 1.71694C33.8875 1.66736 26.6313 1.6343 17.7718 1.6343C0.565222 1.6343 1.32555 1.60124 1.92059 2.42769C2.35035 3.05579 3.1272 3.33678 4.71398 3.43595L6.20158 3.53512L6.25117 4.03099C6.33382 4.64256 5.93712 4.94008 5.09415 4.94008C4.35035 4.94008 4.33382 4.98967 4.81316 6.52686C5.44125 8.6095 6.3834 10.1798 7.95365 11.7665C8.73051 12.5599 9.45778 13.2045 9.55696 13.2045C9.67266 13.2045 9.7553 13.0393 9.77183 12.8409C9.77183 12.626 9.83795 11.6508 9.90406 10.6591C10.0032 9.18802 10.0859 8.82438 10.3338 8.64256C10.7305 8.34504 10.7966 8.34504 11.2264 8.70868C11.59 8.98967 11.59 9.0062 11.3917 11.9649C11.2925 13.6012 11.1272 15.0723 11.0446 15.2376C10.7966 15.7169 10.1851 15.5517 8.91233 14.6591Z" fill="rgb(255,46,23)" fill-rule="nonzero" transform="matrix(1,0,0,-1,1.97754,18.3281)" />
		<path id="Vector" d="M6.27802 38.4959C4.04661 37.5868 1.84827 36.6942 1.38546 36.5124C-0.135205 35.9339 -0.0525603 36.4628 0.0466132 28.8926C0.129258 21.6364 0.211902 20.9091 1.17058 17.7686C3.33587 10.7107 8.50942 5.2562 16.9392 1.12397C18.2119 0.512397 19.435 0 19.6664 0C20.245 0 23.5342 1.55372 25.6995 2.84298C28.3772 4.44628 30.1127 5.78512 32.1458 7.85124C35.683 11.405 37.8648 15.438 38.8731 20.281C39.2036 21.9339 39.2367 22.595 39.3028 28.9752L39.3524 35.8843L38.3111 36.3471C37.7326 36.6116 35.402 37.5868 33.1375 38.4959L29.0218 40.1818L26.9722 40.1322L24.9226 40.0826L29.4516 38.281C31.9309 37.2893 34.8235 36.1157 35.8813 35.6694L37.7987 34.8595L37.8317 30.3636C37.8813 22.3306 37.402 19.2727 35.5177 15.2231C33.0383 9.91736 28.0962 5.43802 21.1045 2.18182L19.6499 1.50413L17.2202 2.72727C9.71603 6.47934 4.97223 11.405 2.87306 17.6364C1.84827 20.6942 1.76562 21.3388 1.69951 28.3802C1.63339 34.5455 1.63339 34.8595 1.93091 35.0083C2.24496 35.1901 11.6995 39.0248 13.5507 39.7355L14.6251 40.1488L12.4764 40.1488L10.3276 40.1488L6.27802 38.4959Z" fill="rgb(255,46,23)" fill-rule="nonzero" transform="matrix(1,0,0,-1,0,60)" />
		<path id="Vector" d="M10.8858 26.1008C10.423 26.0181 9.4313 25.7206 8.68749 25.4396C-0.915812 21.9355 -3.06457 9.52226 4.8032 2.99333C6.68749 1.43961 8.81973 0.513993 11.3652 0.133827C16.7701 -0.659561 22.2743 2.13383 24.8032 6.94374C25.4313 8.13383 25.5305 8.7454 25.1338 9.07598C24.6379 9.4892 24.1586 9.14209 23.5801 7.96854C22.4065 5.57184 20.7701 3.98507 18.1916 2.69581C14.9024 1.07598 11.3652 1.10903 7.94369 2.79498C3.96022 4.76193 1.58006 8.58011 1.58006 13.0264C1.58006 15.0925 1.91064 16.5636 2.75361 18.2991C3.29906 19.4396 3.71229 19.9851 4.86931 21.1421C6.43956 22.7289 7.6627 23.5057 9.76188 24.2165C10.9024 24.6132 11.3487 24.6793 13.0677 24.6793C15.2495 24.6958 16.6048 24.3818 18.4396 23.4561C21.8776 21.7206 24.3239 18.1834 24.7867 14.2826L24.8858 13.4727L24.3404 14.0016C23.5635 14.7619 22.7371 14.6462 22.7371 13.8032C22.7371 13.3735 25.1172 10.8942 25.5305 10.8942C25.828 10.8942 28.0263 12.9272 28.3239 13.4727C28.423 13.6545 28.423 13.9355 28.3404 14.1669C28.1255 14.7289 27.3321 14.6628 26.8197 14.0512L26.4065 13.5553L26.2908 14.4975C25.8941 17.8694 24.142 21.1256 21.6296 23.2082C20.3239 24.2826 17.9602 25.4892 16.4561 25.8528C15.1338 26.1669 12.0429 26.2991 10.8858 26.1008Z" fill="rgb(255,46,23)" fill-rule="nonzero" transform="matrix(1,0,0,-1,6.5166,50.894)" />
		<path id="Vector" d="M2.67965 17.3388C2.21684 17.0744 2.31601 16.7107 3.12593 15.6859C3.80362 14.8264 3.8532 14.6942 3.68791 14.314C3.57221 14.0826 3.39039 13.8843 3.27469 13.8843C3.15899 13.8843 2.71271 14.2975 2.26643 14.7934C1.65486 15.5207 1.39039 15.7025 1.07634 15.6694C0.448245 15.6033 0.0350215 14.7438 0.00196367 13.5041C-0.0145653 12.6612 0.0680794 12.3471 0.448245 11.686C0.960641 10.8264 2.03502 9.95041 2.76229 9.80165L3.24163 9.70248L3.12593 8.36364L3.01023 7.02479L1.95238 5.95041C1.37386 5.35537 0.894526 4.82645 0.894526 4.76033C0.894526 4.33058 5.14246 0 5.57221 0C5.75403 0 6.34907 0.429752 6.91105 0.958678C7.83667 1.81818 8.05155 1.93388 9.2251 2.19835L10.5309 2.5124L11.3077 1.73554C12.4482 0.61157 13.6714 0.495868 14.7623 1.40496C15.7871 2.28099 15.8201 3.60331 14.8449 4.87603L14.283 5.61983L14.6466 6.13223C15.1425 6.79339 15.1425 7.78512 14.6466 8.31405C14.4482 8.52892 14.283 8.89256 14.283 9.1405C14.283 9.68595 13.9524 10.4132 13.7044 10.4132C13.4896 10.4132 11.8036 8.49587 11.8036 8.26446C11.8036 7.95041 12.3656 7.60331 12.878 7.60331C13.9028 7.60331 13.7044 7.20661 11.9028 5.63636C9.93585 3.93388 9.60527 3.73554 8.21684 3.47107C7.40692 3.30579 7.04329 3.12397 6.39866 2.56198L5.60527 1.85124L4.2499 3.19008L2.878 4.52893L3.75403 5.42149L4.61353 6.29752L4.71271 8.2314C4.82841 10.5455 4.72924 10.8099 3.68791 10.9587C3.30775 11.0083 2.79535 11.1901 2.56395 11.3719C2.00196 11.7851 1.39039 12.6942 1.39039 13.124C1.39039 13.405 1.47304 13.3719 2.03502 12.8264L2.67965 12.1983L3.68791 12.4959C4.597 12.7438 4.74577 12.843 4.96064 13.3719C5.42345 14.4463 5.42345 14.9091 4.96064 15.5207C4.72924 15.8347 4.58048 16.1322 4.63006 16.1818C4.82841 16.3802 5.83667 15.6198 6.18378 15.0248C6.4813 14.4628 6.53089 14.2149 6.43172 13.405C6.33254 12.4793 6.34907 12.4298 6.84494 11.9339C7.45651 11.3058 7.98543 11.2562 8.66312 11.7686C9.07634 12.0661 9.2251 12.0992 9.55568 11.9339C9.91932 11.7686 10.0185 11.8017 10.4152 12.281L10.8449 12.7934L10.4152 13.1736C9.90279 13.6198 9.12593 13.6694 8.43172 13.3058C8.18378 13.1736 7.95238 13.0579 7.93585 13.0579C7.91932 13.0579 7.90279 13.4545 7.90279 13.9504C7.86973 15.2397 7.19205 16.4132 6.10114 17.0413C5.40692 17.438 5.09287 17.5207 4.11767 17.5207C3.48957 17.5041 2.82841 17.438 2.67965 17.3388ZM14.1177 3.23967C14.1177 2.79339 13.9524 2.57851 13.4896 2.33058C13.159 2.16529 13.0433 2.21488 12.4152 2.80992L11.721 3.47107L12.3821 4.03306L13.0433 4.59504L13.5887 4.08264C13.8697 3.80165 14.1177 3.42149 14.1177 3.23967Z" fill="rgb(255,46,23)" fill-rule="nonzero" transform="matrix(1,0,0,-1,10.8379,47.2725)" />
		<path id="Vector" d="M6.52893 5.42149L2.94215 1.75207L1.98347 2.77686C1.47107 3.33884 0.991736 3.80165 0.942149 3.80165C0.892562 3.80165 0.661157 3.73554 0.429752 3.63636C0.0991736 3.52066 0 3.35537 0 3.00826C0 2.64463 0.280992 2.26446 1.30579 1.27273C2.01653 0.578512 2.7438 0 2.89256 0C3.2562 0 4.61157 1.2562 8.31405 5.05785C9.91736 6.72727 11.2397 8.18182 11.2397 8.33058C11.2397 8.66116 10.7769 9.09091 10.4132 9.09091C10.2479 9.09091 8.59504 7.53719 6.52893 5.42149Z" fill="rgb(255,46,23)" fill-rule="nonzero" transform="matrix(1,0,0,-1,16.3604,40.165)" />
	</g>
</svg>
