<svg viewBox="0 0 43.6455 60.4775" xmlns="http://www.w3.org/2000/svg" xmlns:xlink="http://www.w3.org/1999/xlink" width="43.645508" height="60.477539" fill="none" customFrame="#000000">
	<g id="Black">
		<path id="Vector" d="M13.3426 40.8761C13.2482 40.8407 13.0474 40.6754 12.9175 40.5101C12.7404 40.3094 12.2917 40.085 11.5006 39.8371C10.7213 39.5891 10.2962 39.3884 10.2135 39.2349C10.1427 39.105 9.58773 38.491 8.96192 37.877C8.14718 37.0622 7.72209 36.5309 7.41509 35.9287C6.94278 35.0313 6.49408 33.6261 6.41143 32.835C6.36419 32.4217 6.26973 32.2564 5.90369 31.973C5.39595 31.5716 5.18341 31.0993 5.32511 30.7096C5.44318 30.3908 5.58488 30.3081 6.31696 30.1428L6.90735 30.0129L6.94278 29.3989C6.9782 28.7849 6.9782 28.7849 6.62397 28.7849C6.376 28.7849 6.16346 28.6787 5.95092 28.4425C5.78561 28.2536 5.51403 28.0765 5.33691 28.041C4.73471 27.9112 4.23879 27.4979 3.99082 26.9311C3.74286 26.3761 3.74286 26.3525 3.94359 24.4869C4.1089 22.9401 4.19155 22.5032 4.4159 22.1135C4.77014 21.5231 5.4668 21.1098 6.15165 21.1098C6.45866 21.1098 6.74204 21.0272 6.87193 20.9091C7.1317 20.6848 7.82837 20.6611 8.08814 20.8737C8.22983 20.9918 8.26525 20.98 8.26525 20.8265C8.26525 20.7202 8.1826 20.6021 8.08814 20.5549C7.7221 20.425 7.43871 19.6339 7.43871 18.7601C7.43871 16.8 8.71395 15.0642 9.91835 15.4067C10.1427 15.4775 10.4379 15.572 10.556 15.6192C10.7685 15.7137 10.7803 15.6664 10.7213 14.8989C10.6386 13.9071 10.4615 13.5056 9.96558 13.1868C9.75304 13.0569 8.32429 12.5374 6.78928 12.0178C3.63659 10.9551 3.06981 10.6835 2.10157 9.79795C1.28683 9.03044 0.708245 8.12124 0.35401 6.9995C0.117853 6.2556 0.0824297 5.86594 0.0233905 3.15014C-0.0238408 0.35169 -0.0120329 0.127341 0.176892 0.0446865C0.661013 -0.132431 0.708245 0.115534 0.708245 2.67783C0.720052 4.23646 0.779092 5.45267 0.885362 6.04306C1.20417 7.84966 2.21965 9.29021 3.76647 10.1168C4.16794 10.3293 5.59669 10.8725 6.93097 11.3212L9.36338 12.1359L10.1191 11.4274C11.7604 9.89241 14.1337 9.23118 16.4835 9.66807C17.7587 9.90422 19.1166 10.6127 20.1675 11.5927L20.7225 12.1123L23.0841 11.3094C24.3829 10.8725 25.7881 10.3411 26.2013 10.1286C27.7246 9.36106 28.8817 7.74339 29.1651 5.99583C29.2242 5.57075 29.2832 4.10658 29.2832 2.73687C29.2832 0.670501 29.3186 0.209996 29.4603 0.0919178C29.5548 0.00926301 29.7201 -0.0143526 29.8263 0.0210708C29.9917 0.08011 30.0035 0.422537 29.968 3.19738C29.9208 5.96041 29.8854 6.37368 29.661 7.07034C29.1769 8.54632 27.9489 10.0223 26.6146 10.7426C26.2958 10.9079 24.7136 11.5101 23.0959 12.0651C21.4782 12.62 20.0495 13.175 19.9196 13.2931C19.5535 13.6237 19.3646 14.1078 19.282 14.9107C19.2111 15.7255 19.2465 15.7727 19.7188 15.5011C20.9941 14.769 22.5527 16.5284 22.5527 18.7011C22.5527 19.5748 22.352 20.1416 21.9387 20.4722C21.5254 20.791 21.6317 21.0154 22.0922 20.791C22.4819 20.6021 23.0368 20.673 23.273 20.9445C23.3557 21.039 23.6272 21.1098 23.9697 21.1098C24.8671 21.1098 25.6464 21.7711 25.8589 22.6921C25.918 22.9401 26.0242 23.8965 26.1069 24.8175C26.2486 26.4352 26.2486 26.4942 26.0006 26.9783C25.7172 27.5215 25.2685 27.8993 24.7254 28.0292C24.5364 28.0765 24.2412 28.2654 24.0641 28.4543C23.8516 28.6787 23.639 28.7849 23.3911 28.7849C23.0368 28.7849 23.025 28.8085 23.025 29.2927C23.025 29.9421 23.1077 30.0366 23.7217 30.1192C24.3593 30.2019 24.7136 30.5325 24.7136 31.0402C24.7136 31.3472 24.6073 31.5244 24.2412 31.8432C23.8162 32.2328 23.7453 32.3745 23.5092 33.39C22.9542 35.6807 21.797 37.5582 20.2856 38.55C20.0495 38.7153 19.8251 38.9633 19.7897 39.1168C19.7188 39.4002 19.1757 39.6599 17.9477 40.0024C17.6289 40.0968 17.2864 40.2976 17.0975 40.5219L16.7787 40.888L15.1492 40.9116C14.2518 40.9234 13.4371 40.9116 13.3426 40.8761ZM16.5307 36.9323C16.5898 33.8741 16.6016 33.6852 16.8141 33.6498C16.9322 33.6261 17.0739 33.6734 17.1329 33.7678C17.192 33.8505 17.2392 35.1612 17.2392 36.6726C17.2392 39.8134 17.1329 39.5891 18.3964 39.164C18.8451 39.0105 19.1285 38.857 19.1285 38.7507C19.1285 38.6563 19.0458 38.0541 18.9395 37.4046C18.727 36.1412 18.7624 35.8696 19.1166 35.8696C19.3764 35.8696 19.3882 35.8932 19.6362 37.2866L19.7897 38.1722L20.6753 37.2866C21.5963 36.3656 22.2103 35.3619 22.6118 34.1221C22.8361 33.4254 22.8007 33.3428 22.2103 33.1893C21.7144 33.0594 21.5018 32.776 21.7144 32.528C21.8206 32.3863 21.9387 32.3745 22.2339 32.4572C22.8597 32.6343 23.025 32.5989 23.025 32.2564C23.025 31.973 23.1431 31.8195 23.8516 31.2764C24.2649 30.9576 24.0877 30.8277 22.966 30.686C19.034 30.1665 10.7567 30.1901 7.04905 30.7096C5.88007 30.8749 5.73838 31.0993 6.48227 31.5244C6.78928 31.7015 6.96639 31.8786 6.96639 32.0321C6.9782 32.5044 7.1199 32.5989 7.68667 32.4454C8.13537 32.3273 8.20622 32.3273 8.34791 32.5162C8.56045 32.7996 8.35972 33.0121 7.7221 33.1656C7.43871 33.2365 7.20255 33.3428 7.20255 33.3782C7.20255 33.6498 7.84017 35.2792 8.17079 35.846C8.37153 36.2121 8.91469 36.8969 9.36338 37.3456L10.1899 38.1722L10.3907 37.0622C10.5914 35.9877 10.7449 35.7161 11.0637 35.8342C11.2644 35.9169 11.2526 36.2829 11.0401 37.5227C10.9456 38.0777 10.863 38.609 10.863 38.7153C10.863 38.8334 11.1227 38.9869 11.6659 39.1522C12.1028 39.2939 12.5279 39.412 12.6105 39.412C12.7168 39.412 12.7522 38.7862 12.7522 36.6489C12.7522 34.3582 12.7758 33.8623 12.9293 33.7442C13.0238 33.6616 13.1891 33.6261 13.2836 33.6734C13.4371 33.7324 13.4607 34.1811 13.4607 36.9087C13.4607 38.6563 13.4961 40.1204 13.5434 40.1677C13.5906 40.2031 14.2636 40.2267 15.0429 40.2149L16.4717 40.1795L16.5307 36.9323ZM8.08814 29.8476C8.12356 29.7886 8.06452 29.5997 7.95825 29.4344C7.7339 29.0801 7.55679 29.2218 7.65125 29.6823C7.69848 29.9657 7.95825 30.0602 8.08814 29.8476ZM22.3402 29.4226C22.2575 29.2691 22.2103 29.2809 22.045 29.5406C21.8679 29.8122 21.8679 29.8358 22.0568 29.8713C22.3166 29.9303 22.4819 29.6705 22.3402 29.4226ZM13.7559 29.6469C16.1647 29.6233 18.786 29.6351 19.589 29.6941L21.0413 29.7886L21.4074 29.2572C21.5963 28.9621 21.8679 28.6078 21.9978 28.4661C22.3284 28.0883 22.1867 28.0174 21.5845 28.2418C19.7425 28.9266 14.5234 29.1982 11.1582 28.7731C9.82389 28.6196 8.4896 28.3244 8.1826 28.1237C7.85198 27.923 7.79294 27.9112 7.79294 28.1119C7.79294 28.2064 7.93464 28.3953 8.09995 28.5606C8.26525 28.7141 8.53683 29.0683 8.70214 29.3517C8.92649 29.7296 9.05638 29.8358 9.19807 29.7886C9.30434 29.7414 11.3589 29.6823 13.7559 29.6469ZM19.0104 28.0765C20.2738 27.9112 21.3956 27.6396 21.5254 27.4507C21.6553 27.2617 21.5373 25.7031 21.3483 25.3016C21.183 24.9238 20.6162 24.6168 19.6362 24.3688C18.0067 23.9437 17.192 24.2271 16.3536 25.4787C15.7632 26.3879 15.5625 26.5414 14.9367 26.5414C14.4526 26.5414 14.1574 26.2817 13.5434 25.3016C12.8349 24.1917 12.0792 23.9673 10.4143 24.357C8.85565 24.723 8.50141 25.1363 8.50141 26.5651C8.50141 27.3208 8.53683 27.4979 8.71395 27.5923C9.02096 27.7577 10.7449 28.0647 12.0556 28.1945C13.4135 28.3244 17.6289 28.2536 19.0104 28.0765ZM7.09628 27.7813C7.26159 27.0492 7.82837 21.7357 7.75752 21.5467C7.67486 21.3224 7.56859 21.2988 7.33244 21.4523C7.10809 21.594 6.34058 27.8285 6.5295 28.0529C6.73024 28.3008 7.00182 28.1591 7.09628 27.7813ZM23.4737 28.0883C23.6036 28.0174 23.5564 27.4034 23.2612 24.8765C23.0605 23.1644 22.8715 21.6648 22.8361 21.5585C22.7535 21.2988 22.3284 21.287 22.2339 21.5349C22.1395 21.7947 22.8952 27.8639 23.0487 28.0529C23.1903 28.2182 23.2612 28.23 23.4737 28.0883ZM5.78561 27.2263C5.78561 27.1436 5.92731 25.9392 6.09261 24.5695C6.25792 23.188 6.376 21.9836 6.34058 21.8892C6.19888 21.5349 5.24245 22.0072 4.94725 22.5622C4.82918 22.7748 4.49856 25.4433 4.48675 26.1754C4.48675 26.4588 4.59302 26.6713 4.88822 26.9665C5.28968 27.368 5.78561 27.5097 5.78561 27.2263ZM25.1386 26.9547C25.4338 26.6241 25.5047 26.4234 25.5047 26.0101C25.5047 25.2308 25.2685 23.1054 25.1386 22.6803C24.9733 22.1726 24.5128 21.8183 23.9933 21.8183C23.5918 21.8183 23.58 21.8183 23.6509 22.267C23.6863 22.5032 23.8398 23.7548 23.9815 25.0419C24.2412 27.2853 24.2531 27.368 24.5128 27.368C24.6663 27.368 24.9261 27.1909 25.1386 26.9547ZM15.7514 25.1245C16.5543 23.8375 17.4163 23.3769 18.8215 23.5068C19.7543 23.5895 20.9587 23.991 21.4664 24.3688C21.8088 24.6404 21.8443 24.6404 21.8443 24.4397C21.8443 24.3098 21.3719 23.802 20.6517 23.1644C18.8451 21.5585 19.1757 21.5822 17.4045 22.9873C15.7278 24.3098 15.2437 24.5341 14.5588 24.3216C14.1337 24.1917 12.3508 22.8456 11.4888 22.0309C11.0283 21.594 11.3471 21.3932 8.70214 23.802C8.37153 24.109 8.14718 24.416 8.14718 24.5577C8.14718 24.8057 8.15899 24.7939 8.4896 24.4869C9.29254 23.7194 11.6423 23.2471 12.6814 23.6367C13.2718 23.8611 14.0275 24.6168 14.3935 25.3489C14.6061 25.7385 14.7123 25.833 14.9839 25.833C15.2673 25.833 15.3854 25.7267 15.7514 25.1245ZM16.4953 22.7984C17.1329 22.3024 17.9595 21.6294 18.3255 21.3224L18.9986 20.7438L18.6443 20.2479C17.9241 19.2206 17.5226 17.4258 17.865 16.7528L18.0539 16.3867L17.3927 15.879L16.7315 15.3831L15.161 15.3476C13.4843 15.3004 13.1891 15.3831 12.3508 16.0797C12.0556 16.3277 12.032 16.3867 12.1618 16.6229C12.3271 16.9299 12.2681 18.1697 12.0556 18.8664C11.9847 19.1025 11.7368 19.5984 11.5124 19.9881C11.2763 20.366 11.1109 20.7202 11.1227 20.7674C11.1582 20.8737 13.5315 22.8692 14.2164 23.3651C14.9249 23.8965 15.1728 23.8256 16.4953 22.7984ZM9.45785 22.1489C9.96558 21.6884 10.3907 21.2633 10.3907 21.2161C10.3907 21.1689 10.2135 21.1335 10.0128 21.1217C9.80027 21.1098 9.46965 21.098 9.26892 21.0862C8.92649 21.0508 8.90288 21.0862 8.65491 21.8183C8.39514 22.5858 8.32429 22.9991 8.45418 22.9991C8.4896 22.9991 8.9383 22.6213 9.45785 22.1489ZM21.5373 22.5032C21.49 22.2198 21.3601 21.7711 21.2302 21.4877C21.0295 20.9918 21.0059 20.98 20.6399 21.0626C20.4273 21.1217 20.1085 21.1571 19.9314 21.1571C19.7425 21.1453 19.6008 21.1689 19.6008 21.2161C19.6008 21.3106 21.4074 22.9873 21.5254 22.9991C21.5727 22.9991 21.5727 22.7748 21.5373 22.5032ZM10.4851 20.2243C10.9811 19.811 11.477 18.6184 11.5478 17.6738C11.5951 16.9535 11.5833 16.8826 11.3235 16.6937C11.17 16.5875 11.0165 16.5048 10.9811 16.5048C10.9456 16.5048 10.922 16.859 10.9102 17.3077C10.8984 18.276 10.556 19.2206 9.97739 19.8936C9.57592 20.366 9.58773 20.484 10.001 20.5076C10.0719 20.5195 10.2962 20.3896 10.4851 20.2243ZM20.3447 20.4486C20.3801 20.4132 20.2266 20.1416 20.014 19.8582C19.4591 19.1379 19.1048 18.1225 19.0812 17.2487C19.0812 16.8354 19.034 16.5048 18.9868 16.5048C18.7506 16.5048 18.42 17.0125 18.42 17.3668C18.4318 18.3114 18.9277 19.5866 19.5063 20.177C19.8369 20.4958 20.1794 20.6139 20.3447 20.4486ZM9.33977 19.5748C10.1781 18.7011 10.5087 16.859 9.95377 16.245C9.71762 15.9853 9.45785 15.9734 9.13903 16.245C8.20622 17.0125 7.76933 18.9018 8.3361 19.7874C8.58407 20.1652 8.83203 20.1062 9.33977 19.5748ZM21.6908 19.7283C22.1513 19.0317 21.8206 17.2251 21.0767 16.4458C19.955 15.2532 19.2938 16.9889 20.1794 18.8073C20.4391 19.3151 20.6989 19.6693 20.9351 19.8228C21.4192 20.1062 21.4428 20.1062 21.6908 19.7283ZM12.1855 15.3712C13.0238 14.7572 13.4725 14.6274 14.8422 14.6155C16.4481 14.6155 17.0503 14.7572 17.806 15.324C18.1484 15.5838 18.4436 15.7963 18.4672 15.7963C18.4908 15.7963 18.5381 15.3831 18.5853 14.8871C18.6798 13.7772 19.0104 13.0569 19.5535 12.6791L19.9668 12.4075L19.341 11.8407C16.9794 9.7153 13.0356 9.7153 10.6859 11.8289L10.0955 12.3602L10.4851 12.6791C11.0637 13.1396 11.3471 13.8008 11.4179 14.8753C11.4534 15.3831 11.5124 15.7963 11.5478 15.7963C11.5714 15.7963 11.8666 15.6074 12.1855 15.3712Z" fill="rgb(255,46,23)" fill-rule="nonzero" transform="matrix(1,0,0,-1,6.83984,41.1421)" />
		<path id="Vector" d="M12.9175 40.5101C12.7404 40.3094 12.2917 40.085 11.5006 39.8371C10.7213 39.5891 10.2962 39.3884 10.2135 39.2349C10.1427 39.105 9.58773 38.491 8.96192 37.877C8.14718 37.0622 7.72209 36.5309 7.41509 35.9287C6.94278 35.0313 6.49408 33.6261 6.41143 32.835C6.36419 32.4217 6.26973 32.2564 5.90369 31.973C5.39595 31.5716 5.18341 31.0993 5.32511 30.7096C5.44318 30.3908 5.58488 30.3081 6.31696 30.1428L6.90735 30.0129L6.94278 29.3989C6.9782 28.7849 6.9782 28.7849 6.62397 28.7849C6.376 28.7849 6.16346 28.6787 5.95092 28.4425C5.78561 28.2536 5.51403 28.0765 5.33691 28.041C4.73471 27.9112 4.23879 27.4979 3.99082 26.9311C3.74286 26.3761 3.74286 26.3525 3.94359 24.4869C4.1089 22.9401 4.19155 22.5032 4.4159 22.1135C4.77014 21.5231 5.4668 21.1098 6.15165 21.1098C6.45866 21.1098 6.74204 21.0272 6.87193 20.9091C7.1317 20.6848 7.82837 20.6611 8.08814 20.8737C8.22983 20.9918 8.26525 20.98 8.26525 20.8265C8.26525 20.7202 8.1826 20.6021 8.08814 20.5549C7.7221 20.425 7.43871 19.6339 7.43871 18.7601C7.43871 16.8 8.71395 15.0642 9.91835 15.4067C10.1427 15.4775 10.4379 15.572 10.556 15.6192C10.7685 15.7137 10.7803 15.6664 10.7213 14.8989C10.6386 13.9071 10.4615 13.5056 9.96558 13.1868C9.75304 13.0569 8.32429 12.5374 6.78928 12.0178C3.63659 10.9551 3.06981 10.6835 2.10157 9.79795C1.28683 9.03044 0.708245 8.12124 0.35401 6.9995C0.117853 6.2556 0.0824297 5.86594 0.0233905 3.15014C-0.0238408 0.35169 -0.0120329 0.127341 0.176892 0.0446865C0.661013 -0.132431 0.708245 0.115534 0.708245 2.67783C0.720052 4.23646 0.779092 5.45267 0.885362 6.04306C1.20417 7.84966 2.21965 9.29021 3.76647 10.1168C4.16794 10.3293 5.59669 10.8725 6.93097 11.3212L9.36338 12.1359L10.1191 11.4274C11.7604 9.89241 14.1337 9.23118 16.4835 9.66807C17.7587 9.90422 19.1166 10.6127 20.1675 11.5927L20.7225 12.1123L23.0841 11.3094C24.3829 10.8725 25.7881 10.3411 26.2013 10.1286C27.7246 9.36106 28.8817 7.74339 29.1651 5.99583C29.2242 5.57075 29.2832 4.10658 29.2832 2.73687C29.2832 0.670501 29.3186 0.209996 29.4603 0.0919178C29.5548 0.00926301 29.7201 -0.0143526 29.8263 0.0210708C29.9917 0.08011 30.0035 0.422537 29.968 3.19738C29.9208 5.96041 29.8854 6.37368 29.661 7.07034C29.1769 8.54632 27.9489 10.0223 26.6146 10.7426C26.2958 10.9079 24.7136 11.5101 23.0959 12.0651C21.4782 12.62 20.0495 13.175 19.9196 13.2931C19.5535 13.6237 19.3646 14.1078 19.282 14.9107C19.2111 15.7255 19.2465 15.7727 19.7188 15.5011C20.9941 14.769 22.5527 16.5284 22.5527 18.7011C22.5527 19.5748 22.352 20.1416 21.9387 20.4722C21.5254 20.791 21.6317 21.0154 22.0922 20.791C22.4819 20.6021 23.0368 20.673 23.273 20.9445C23.3557 21.039 23.6272 21.1098 23.9697 21.1098C24.8671 21.1098 25.6464 21.7711 25.8589 22.6921C25.918 22.9401 26.0242 23.8965 26.1069 24.8175C26.2486 26.4352 26.2486 26.4942 26.0006 26.9783C25.7172 27.5215 25.2685 27.8993 24.7254 28.0292C24.5364 28.0765 24.2412 28.2654 24.0641 28.4543C23.8516 28.6787 23.639 28.7849 23.3911 28.7849C23.0368 28.7849 23.025 28.8085 23.025 29.2927C23.025 29.9421 23.1077 30.0366 23.7217 30.1192C24.3593 30.2019 24.7136 30.5325 24.7136 31.0402C24.7136 31.3472 24.6073 31.5244 24.2412 31.8432C23.8162 32.2328 23.7453 32.3745 23.5092 33.39C22.9542 35.6807 21.797 37.5582 20.2856 38.55C20.0495 38.7153 19.8251 38.9633 19.7897 39.1168C19.7188 39.4002 19.1757 39.6599 17.9477 40.0024C17.6289 40.0968 17.2864 40.2976 17.0975 40.5219L16.7787 40.888L15.1492 40.9116C14.2518 40.9234 13.4371 40.9116 13.3426 40.8761C13.2482 40.8407 13.0474 40.6754 12.9175 40.5101ZM16.8141 33.6498C16.9322 33.6261 17.0739 33.6734 17.1329 33.7678C17.192 33.8505 17.2392 35.1612 17.2392 36.6726C17.2392 39.8134 17.1329 39.5891 18.3964 39.164C18.8451 39.0105 19.1285 38.857 19.1285 38.7507C19.1285 38.6563 19.0458 38.0541 18.9395 37.4046C18.727 36.1412 18.7624 35.8696 19.1166 35.8696C19.3764 35.8696 19.3882 35.8932 19.6362 37.2866L19.7897 38.1722L20.6753 37.2866C21.5963 36.3656 22.2103 35.3619 22.6118 34.1221C22.8361 33.4254 22.8007 33.3428 22.2103 33.1893C21.7144 33.0594 21.5018 32.776 21.7144 32.528C21.8206 32.3863 21.9387 32.3745 22.2339 32.4572C22.8597 32.6343 23.025 32.5989 23.025 32.2564C23.025 31.973 23.1431 31.8195 23.8516 31.2764C24.2649 30.9576 24.0877 30.8277 22.966 30.686C19.034 30.1665 10.7567 30.1901 7.04905 30.7096C5.88007 30.8749 5.73838 31.0993 6.48227 31.5244C6.78928 31.7015 6.96639 31.8786 6.96639 32.0321C6.9782 32.5044 7.1199 32.5989 7.68667 32.4454C8.13537 32.3273 8.20622 32.3273 8.34791 32.5162C8.56045 32.7996 8.35972 33.0121 7.7221 33.1656C7.43871 33.2365 7.20255 33.3428 7.20255 33.3782C7.20255 33.6498 7.84017 35.2792 8.17079 35.846C8.37153 36.2121 8.91469 36.8969 9.36338 37.3456L10.1899 38.1722L10.3907 37.0622C10.5914 35.9877 10.7449 35.7161 11.0637 35.8342C11.2644 35.9169 11.2526 36.2829 11.0401 37.5227C10.9456 38.0777 10.863 38.609 10.863 38.7153C10.863 38.8334 11.1227 38.9869 11.6659 39.1522C12.1028 39.2939 12.5279 39.412 12.6105 39.412C12.7168 39.412 12.7522 38.7862 12.7522 36.6489C12.7522 34.3582 12.7758 33.8623 12.9293 33.7442C13.0238 33.6616 13.1891 33.6261 13.2836 33.6734C13.4371 33.7324 13.4607 34.1811 13.4607 36.9087C13.4607 38.6563 13.4961 40.1204 13.5434 40.1677C13.5906 40.2031 14.2636 40.2267 15.0429 40.2149L16.4717 40.1795L16.5307 36.9323C16.5898 33.8741 16.6016 33.6852 16.8141 33.6498ZM7.95825 29.4344C7.7339 29.0801 7.55679 29.2218 7.65125 29.6823C7.69848 29.9657 7.95825 30.0602 8.08814 29.8476C8.12356 29.7886 8.06452 29.5997 7.95825 29.4344ZM22.045 29.5406C21.8679 29.8122 21.8679 29.8358 22.0568 29.8713C22.3166 29.9303 22.4819 29.6705 22.3402 29.4226C22.2575 29.2691 22.2103 29.2809 22.045 29.5406ZM19.589 29.6941L21.0413 29.7886L21.4074 29.2572C21.5963 28.9621 21.8679 28.6078 21.9978 28.4661C22.3284 28.0883 22.1867 28.0174 21.5845 28.2418C19.7425 28.9266 14.5234 29.1982 11.1582 28.7731C9.82389 28.6196 8.4896 28.3244 8.1826 28.1237C7.85198 27.923 7.79294 27.9112 7.79294 28.1119C7.79294 28.2064 7.93464 28.3953 8.09995 28.5606C8.26525 28.7141 8.53683 29.0683 8.70214 29.3517C8.92649 29.7296 9.05638 29.8358 9.19807 29.7886C9.30434 29.7414 11.3589 29.6823 13.7559 29.6469C16.1647 29.6233 18.786 29.6351 19.589 29.6941ZM21.5254 27.4507C21.6553 27.2617 21.5373 25.7031 21.3483 25.3016C21.183 24.9238 20.6162 24.6168 19.6362 24.3688C18.0067 23.9437 17.192 24.2271 16.3536 25.4787C15.7632 26.3879 15.5625 26.5414 14.9367 26.5414C14.4526 26.5414 14.1574 26.2817 13.5434 25.3016C12.8349 24.1917 12.0792 23.9673 10.4143 24.357C8.85565 24.723 8.50141 25.1363 8.50141 26.5651C8.50141 27.3208 8.53683 27.4979 8.71395 27.5923C9.02096 27.7577 10.7449 28.0647 12.0556 28.1945C13.4135 28.3244 17.6289 28.2536 19.0104 28.0765C20.2738 27.9112 21.3956 27.6396 21.5254 27.4507ZM7.75752 21.5467C7.67486 21.3224 7.56859 21.2988 7.33244 21.4523C7.10809 21.594 6.34058 27.8285 6.5295 28.0529C6.73024 28.3008 7.00182 28.1591 7.09628 27.7813C7.26159 27.0492 7.82837 21.7357 7.75752 21.5467ZM23.2612 24.8765C23.0605 23.1644 22.8715 21.6648 22.8361 21.5585C22.7535 21.2988 22.3284 21.287 22.2339 21.5349C22.1395 21.7947 22.8952 27.8639 23.0487 28.0529C23.1903 28.2182 23.2612 28.23 23.4737 28.0883C23.6036 28.0174 23.5564 27.4034 23.2612 24.8765ZM6.09261 24.5695C6.25792 23.188 6.376 21.9836 6.34058 21.8892C6.19888 21.5349 5.24245 22.0072 4.94725 22.5622C4.82918 22.7748 4.49856 25.4433 4.48675 26.1754C4.48675 26.4588 4.59302 26.6713 4.88822 26.9665C5.28968 27.368 5.78561 27.5097 5.78561 27.2263C5.78561 27.1436 5.92731 25.9392 6.09261 24.5695ZM25.5047 26.0101C25.5047 25.2308 25.2685 23.1054 25.1386 22.6803C24.9733 22.1726 24.5128 21.8183 23.9933 21.8183C23.5918 21.8183 23.58 21.8183 23.6509 22.267C23.6863 22.5032 23.8398 23.7548 23.9815 25.0419C24.2412 27.2853 24.2531 27.368 24.5128 27.368C24.6663 27.368 24.9261 27.1909 25.1386 26.9547C25.4338 26.6241 25.5047 26.4234 25.5047 26.0101ZM18.8215 23.5068C19.7543 23.5895 20.9587 23.991 21.4664 24.3688C21.8088 24.6404 21.8443 24.6404 21.8443 24.4397C21.8443 24.3098 21.3719 23.802 20.6517 23.1644C18.8451 21.5585 19.1757 21.5822 17.4045 22.9873C15.7278 24.3098 15.2437 24.5341 14.5588 24.3216C14.1337 24.1917 12.3508 22.8456 11.4888 22.0309C11.0283 21.594 11.3471 21.3932 8.70214 23.802C8.37153 24.109 8.14718 24.416 8.14718 24.5577C8.14718 24.8057 8.15899 24.7939 8.4896 24.4869C9.29254 23.7194 11.6423 23.2471 12.6814 23.6367C13.2718 23.8611 14.0275 24.6168 14.3935 25.3489C14.6061 25.7385 14.7123 25.833 14.9839 25.833C15.2673 25.833 15.3854 25.7267 15.7514 25.1245C16.5543 23.8375 17.4163 23.3769 18.8215 23.5068ZM18.3255 21.3224L18.9986 20.7438L18.6443 20.2479C17.9241 19.2206 17.5226 17.4258 17.865 16.7528L18.0539 16.3867L17.3927 15.879L16.7315 15.3831L15.161 15.3476C13.4843 15.3004 13.1891 15.3831 12.3508 16.0797C12.0556 16.3277 12.032 16.3867 12.1618 16.6229C12.3271 16.9299 12.2681 18.1697 12.0556 18.8664C11.9847 19.1025 11.7368 19.5984 11.5124 19.9881C11.2763 20.366 11.1109 20.7202 11.1227 20.7674C11.1582 20.8737 13.5315 22.8692 14.2164 23.3651C14.9249 23.8965 15.1728 23.8256 16.4953 22.7984C17.1329 22.3024 17.9595 21.6294 18.3255 21.3224ZM10.3907 21.2161C10.3907 21.1689 10.2135 21.1335 10.0128 21.1217C9.80027 21.1098 9.46965 21.098 9.26892 21.0862C8.92649 21.0508 8.90288 21.0862 8.65491 21.8183C8.39514 22.5858 8.32429 22.9991 8.45418 22.9991C8.4896 22.9991 8.9383 22.6213 9.45785 22.1489C9.96558 21.6884 10.3907 21.2633 10.3907 21.2161ZM21.2302 21.4877C21.0295 20.9918 21.0059 20.98 20.6399 21.0626C20.4273 21.1217 20.1085 21.1571 19.9314 21.1571C19.7425 21.1453 19.6008 21.1689 19.6008 21.2161C19.6008 21.3106 21.4074 22.9873 21.5254 22.9991C21.5727 22.9991 21.5727 22.7748 21.5373 22.5032C21.49 22.2198 21.3601 21.7711 21.2302 21.4877ZM11.5478 17.6738C11.5951 16.9535 11.5833 16.8826 11.3235 16.6937C11.17 16.5875 11.0165 16.5048 10.9811 16.5048C10.9456 16.5048 10.922 16.859 10.9102 17.3077C10.8984 18.276 10.556 19.2206 9.97739 19.8936C9.57592 20.366 9.58773 20.484 10.001 20.5076C10.0719 20.5195 10.2962 20.3896 10.4851 20.2243C10.9811 19.811 11.477 18.6184 11.5478 17.6738ZM20.014 19.8582C19.4591 19.1379 19.1048 18.1225 19.0812 17.2487C19.0812 16.8354 19.034 16.5048 18.9868 16.5048C18.7506 16.5048 18.42 17.0125 18.42 17.3668C18.4318 18.3114 18.9277 19.5866 19.5063 20.177C19.8369 20.4958 20.1794 20.6139 20.3447 20.4486C20.3801 20.4132 20.2266 20.1416 20.014 19.8582ZM9.95377 16.245C9.71762 15.9853 9.45785 15.9734 9.13903 16.245C8.20622 17.0125 7.76933 18.9018 8.3361 19.7874C8.58407 20.1652 8.83203 20.1062 9.33977 19.5748C10.1781 18.7011 10.5087 16.859 9.95377 16.245ZM21.0767 16.4458C19.955 15.2532 19.2938 16.9889 20.1794 18.8073C20.4391 19.3151 20.6989 19.6693 20.9351 19.8228C21.4192 20.1062 21.4428 20.1062 21.6908 19.7283C22.1513 19.0317 21.8206 17.2251 21.0767 16.4458ZM14.8422 14.6155C16.4481 14.6155 17.0503 14.7572 17.806 15.324C18.1484 15.5838 18.4436 15.7963 18.4672 15.7963C18.4908 15.7963 18.5381 15.3831 18.5853 14.8871C18.6798 13.7772 19.0104 13.0569 19.5535 12.6791L19.9668 12.4075L19.341 11.8407C16.9794 9.7153 13.0356 9.7153 10.6859 11.8289L10.0955 12.3602L10.4851 12.6791C11.0637 13.1396 11.3471 13.8008 11.4179 14.8753C11.4534 15.3831 11.5124 15.7963 11.5478 15.7963C11.5714 15.7963 11.8666 15.6074 12.1855 15.3712C13.0238 14.7572 13.4725 14.6274 14.8422 14.6155Z" fill-rule="nonzero" stroke="rgb(255,46,23)" stroke-width="0.450000" transform="matrix(1,0,0,-1,6.83984,41.1421)" />
		<path id="Vector" d="M1.97191 1.88925C1.61767 1.78298 0 0.625815 0 0.472313C0 0.236157 0.153502 0 0.318811 0C0.413274 0 0.791125 0.247964 1.15717 0.54316C2.2553 1.44056 2.53868 1.44056 3.54235 0.602199C4.23901 0.0236157 4.30986 -0.0118078 4.53421 0.070847C4.88844 0.212541 4.72313 0.554968 4.02647 1.08632C2.98738 1.90106 2.57411 2.05456 1.97191 1.88925Z" fill="rgb(255,46,23)" fill-rule="nonzero" transform="matrix(1,0,0,-1,19.4736,20.5044)" />
		<path id="Vector" d="M0 0.472313C0 0.236157 0.153502 0 0.318811 0C0.413274 0 0.791125 0.247964 1.15717 0.54316C2.2553 1.44056 2.53868 1.44056 3.54235 0.602199C4.23901 0.0236157 4.30986 -0.0118078 4.53421 0.070847C4.88844 0.212541 4.72313 0.554968 4.02647 1.08632C2.98738 1.90106 2.57411 2.05456 1.97191 1.88925C1.61767 1.78298 0 0.625815 0 0.472313Z" fill-rule="nonzero" stroke="rgb(255,46,23)" stroke-width="0.450000" transform="matrix(1,0,0,-1,19.4736,20.5044)" />
		<path id="Vector" d="M0.909203 3.27077C0.307003 2.97557 0 2.45603 0 1.73575C0 0.732085 0.70847 0 1.68852 0C2.73942 0 3.48331 0.743893 3.48331 1.79479C3.48331 3.0228 2.05456 3.83754 0.909203 3.27077ZM2.44422 2.44422C2.90473 2.00733 2.89292 1.45236 2.4206 0.968242C2.10179 0.661238 1.99552 0.614007 1.61767 0.673046C1.10994 0.755701 0.649431 1.21621 0.649431 1.6531C0.649431 2.65676 1.73575 3.12907 2.44422 2.44422Z" fill="rgb(255,46,23)" fill-rule="nonzero" transform="matrix(1,0,0,-1,20.123,24.9209)" />
		<path id="Vector" d="M0 1.73575C0 0.732085 0.70847 0 1.68852 0C2.73942 0 3.48331 0.743893 3.48331 1.79479C3.48331 3.0228 2.05456 3.83754 0.909203 3.27077C0.307003 2.97557 0 2.45603 0 1.73575ZM2.4206 0.968242C2.10179 0.661238 1.99552 0.614007 1.61767 0.673046C1.10994 0.755701 0.649431 1.21621 0.649431 1.6531C0.649431 2.65676 1.73575 3.12907 2.44422 2.44422C2.90473 2.00733 2.89292 1.45236 2.4206 0.968242Z" fill-rule="nonzero" stroke="rgb(255,46,23)" stroke-width="0.450000" transform="matrix(1,0,0,-1,20.123,24.9209)" />
		<path id="Vector" d="M5.61108 50.3722C2.69455 49.2268 0.226715 48.235 0.155868 48.1877C-0.0330571 48.0697 -0.0566727 36.2855 0.120445 32.9911C0.675413 22.8245 3.59195 15.2793 9.47224 8.80864C12.1999 5.78584 16.5569 2.52688 20.4063 0.602199L21.6343 0L22.8269 0.602199C24.3383 1.38152 26.2039 2.50326 27.5736 3.4715C28.9079 4.40432 29.1677 4.64048 29.1677 4.90025C29.1677 5.32533 28.8017 5.20725 27.7271 4.45155C26.1449 3.318 24.6453 2.39699 23.0394 1.53502L21.6343 0.791124L20.2292 1.5114C14.6913 4.39251 9.93275 8.61971 6.6856 13.5436C4.09968 17.4756 2.37574 21.9508 1.47834 27.099C0.887953 30.4878 0.805299 31.9284 0.74626 39.9931C0.710836 44.2912 0.722644 47.5737 0.781683 47.6328C0.840722 47.6918 3.20229 48.6483 6.01255 49.7464C8.83462 50.8563 11.1844 51.8009 11.2552 51.8718C11.3615 51.9781 11.1608 52.4858 11.0073 52.4622C10.96 52.4622 8.53943 51.5176 5.61108 50.3722Z" fill="rgb(255,46,23)" fill-rule="nonzero" transform="matrix(1,0,0,-1,0.224609,60.2261)" />
		<path id="Vector" d="M0.155868 48.1877C-0.0330571 48.0697 -0.0566727 36.2855 0.120445 32.9911C0.675413 22.8245 3.59195 15.2793 9.47224 8.80864C12.1999 5.78584 16.5569 2.52688 20.4063 0.602199L21.6343 0L22.8269 0.602199C24.3383 1.38152 26.2039 2.50326 27.5736 3.4715C28.9079 4.40432 29.1677 4.64048 29.1677 4.90025C29.1677 5.32533 28.8017 5.20725 27.7271 4.45155C26.1449 3.318 24.6453 2.39699 23.0394 1.53502L21.6343 0.791124L20.2292 1.5114C14.6913 4.39251 9.93275 8.61971 6.6856 13.5436C4.09968 17.4756 2.37574 21.9508 1.47834 27.099C0.887953 30.4878 0.805299 31.9284 0.74626 39.9931C0.710836 44.2912 0.722644 47.5737 0.781683 47.6328C0.840722 47.6918 3.20229 48.6483 6.01255 49.7464C8.83462 50.8563 11.1844 51.8009 11.2552 51.8718C11.3615 51.9781 11.1608 52.4858 11.0073 52.4622C10.96 52.4622 8.53943 51.5176 5.61108 50.3722C2.69455 49.2268 0.226715 48.235 0.155868 48.1877Z" fill-rule="nonzero" stroke="rgb(255,46,23)" stroke-width="0.450000" transform="matrix(1,0,0,-1,0.224609,60.2261)" />
		<path id="Vector" d="M0.128469 41.6108C0.0340066 41.5163 -0.0250326 41.3628 0.0103909 41.2802C0.0458144 41.1975 2.41919 40.1938 5.28849 39.0721L10.5075 37.0175L10.4957 29.4015C10.4957 23.0489 10.4603 21.4784 10.295 19.9552C9.74004 14.9841 8.74818 11.0994 7.03605 7.32085C6.04419 5.13641 5.01691 3.40065 3.25754 0.921011C2.84427 0.354235 2.83246 0 3.22212 0C3.45828 0 4.26121 1.00367 5.28849 2.59772C7.90983 6.65962 9.70462 11.4064 10.5548 16.5546C11.1334 20.0379 11.1924 21.0061 11.2396 29.3897C11.2751 34.6324 11.2514 37.3836 11.1806 37.4544C11.1097 37.5253 10.3186 37.8677 9.42123 38.2219C8.15779 38.7297 2.21845 41.044 0.565359 41.6934C0.376434 41.7643 0.246547 41.7407 0.128469 41.6108Z" fill="rgb(255,46,23)" fill-rule="nonzero" transform="matrix(1,0,0,-1,32.168,49.5518)" />
		<path id="Vector" d="M0.0103909 41.2802C0.0458144 41.1975 2.41919 40.1938 5.28849 39.0721L10.5075 37.0175L10.4957 29.4015C10.4957 23.0489 10.4603 21.4784 10.295 19.9552C9.74004 14.9841 8.74818 11.0994 7.03605 7.32085C6.04419 5.13641 5.01691 3.40065 3.25754 0.921011C2.84427 0.354235 2.83246 0 3.22212 0C3.45828 0 4.26121 1.00367 5.28849 2.59772C7.90983 6.65962 9.70462 11.4064 10.5548 16.5546C11.1334 20.0379 11.1924 21.0061 11.2396 29.3897C11.2751 34.6324 11.2514 37.3836 11.1806 37.4544C11.1097 37.5253 10.3186 37.8677 9.42123 38.2219C8.15779 38.7297 2.21845 41.044 0.565359 41.6934C0.376434 41.7643 0.246547 41.7407 0.128469 41.6108C0.0340066 41.5163 -0.0250326 41.3628 0.0103909 41.2802Z" fill-rule="nonzero" stroke="rgb(255,46,23)" stroke-width="0.450000" transform="matrix(1,0,0,-1,32.168,49.5518)" />
		<path id="Vector" d="M18.9697 24.6186C18.8044 24.5124 18.5918 24.2762 18.5092 24.0873C18.3793 23.7449 18.3439 23.7331 18.1195 23.8984C17.6826 24.2054 17.045 24.1227 16.6317 23.7213C16.2185 23.308 16.2066 23.2253 16.0295 19.6476C15.9587 18.2896 15.876 16.8373 15.8406 16.424L15.7698 15.6801L15.4509 16.1879C15.262 16.4712 14.9786 16.8491 14.8015 17.0262C14.4355 17.4159 13.5027 17.8646 13.2075 17.7819C13.0894 17.7583 12.9005 17.8055 12.7824 17.8882C12.4163 18.1598 11.7197 18.0889 11.33 17.7583C10.8813 17.3804 10.7278 16.9908 10.5625 15.81L10.4208 14.8536L8.42529 18.0063C6.39434 21.1826 6.06372 21.5958 5.4261 21.5958C5.06006 21.5958 4.68221 21.3951 4.38701 21.0291C4.17447 20.7575 4.10362 20.7457 3.93831 20.8756C3.69035 21.0763 3.00549 21.0881 2.63945 20.8992C2.2616 20.6984 1.9546 20.049 2.00183 19.5649C2.03725 19.2343 2.00183 19.187 1.64759 19.0926C0.891893 18.8918 0.573082 17.8882 1.03359 17.1325C1.31697 16.672 1.32878 16.5185 1.09263 16.5185C0.478619 16.5185 -0.111772 15.7392 0.0181139 15.0897C0.124384 14.5584 4.3752 7.55634 5.04825 6.81244C5.37887 6.43459 5.99287 5.90324 6.41796 5.63166C7.25631 5.07669 7.091 5.3955 8.41348 1.81773C9.06291 0.0701734 9.13376 -0.0479048 9.46438 0.0111343C9.60607 0.0465578 10.9285 0.814067 12.4045 1.74688L15.0967 3.4236L17.1867 3.30552C18.3321 3.23467 20.3512 3.14021 21.6737 3.10479L24.0588 3.02213L24.0588 3.30552C24.047 3.45902 23.9053 4.74607 23.7164 6.1512L23.3976 8.7135L23.7755 9.54005C23.988 9.98875 24.2478 10.6972 24.3659 11.1105C24.602 12.0315 24.7555 14.7945 24.7673 18.3133L24.7673 21.0055L24.4249 21.3833C24.1179 21.7257 24.0116 21.773 23.4803 21.7612L22.8781 21.7612L22.8781 22.3043C22.8781 23.2371 22.1578 23.8275 21.3076 23.5914C21.0242 23.5087 20.9652 23.5441 20.8235 23.8748C20.7409 24.0873 20.5519 24.3471 20.422 24.4651C20.1032 24.7603 19.3593 24.8312 18.9697 24.6186ZM20.1032 23.8039C20.2567 23.5678 20.2567 23.1545 20.1268 20.297C20.0324 18.4432 20.0088 16.9554 20.0678 16.8491C20.2095 16.5539 20.5047 16.5893 20.6228 16.9081C20.6818 17.0498 20.7645 18.3133 20.8117 19.7066C20.8589 21.0999 20.9416 22.3634 21.0006 22.505C21.2014 23.0482 21.9098 23.1427 22.1224 22.6585C22.1814 22.5169 22.1814 21.218 22.1224 19.5177C22.0161 16.4712 22.0515 16.1879 22.5002 16.4712C22.6655 16.5775 22.7128 16.8963 22.7954 18.5967C22.8899 20.7575 22.9961 21.1235 23.5275 21.1235C24.1297 21.1235 24.1533 20.9582 24.0352 16.5185C23.9172 11.9961 23.8345 11.3112 23.1733 9.92971L22.76 9.04412L21.3076 9.12678C18.214 9.28028 17.8007 9.25666 17.8007 8.90243C17.8007 8.59542 18.2022 8.52458 20.4457 8.44192C21.6737 8.4065 22.7009 8.35927 22.7128 8.33565C22.7246 8.32384 22.8426 7.43826 22.9843 6.36375C23.126 5.28923 23.2559 4.26195 23.2913 4.07303L23.3504 3.7306L21.2604 3.81325C20.1032 3.84868 18.4974 3.91953 17.6944 3.96676C16.0768 4.04941 16.1358 3.99037 17.0332 4.628C17.3874 4.88777 17.352 4.97042 16.5018 5.91505L15.8996 6.58809L16.1712 7.96961L16.431 9.33932L16.1712 9.7644C16.0177 10.0124 15.3683 11.264 14.7307 12.5629C13.6325 14.7827 13.4082 15.3967 13.2783 16.6129C13.2311 17.038 13.2429 17.1089 13.4436 17.1089C13.8215 17.1089 14.5181 16.365 15.203 15.2432C16.2657 13.4957 16.431 13.6019 16.5491 16.0107C16.7852 21.3125 16.8915 22.8475 17.045 23.1072C17.2457 23.4142 17.6944 23.4497 17.9778 23.1663C18.1549 22.9892 18.1667 22.7412 18.0841 20.663C17.9306 17.1207 17.9306 16.8255 18.2022 16.7782C18.3202 16.7546 18.4619 16.7782 18.5092 16.8373C18.5682 16.8845 18.6627 18.0181 18.7335 19.3524C18.9343 23.2371 18.9815 23.6032 19.2294 23.8511C19.5365 24.1581 19.8789 24.1345 20.1032 23.8039ZM5.78033 20.7457C5.8748 20.663 6.96112 19.0217 8.16551 17.1089C9.38172 15.196 10.4562 13.5429 10.5507 13.4484C10.6806 13.3186 10.775 13.3067 10.9285 13.4012C11.0939 13.5075 11.1411 13.7909 11.2001 14.948C11.2828 16.5067 11.4953 17.1561 11.9913 17.3804C12.2274 17.4867 12.2983 17.4749 12.4281 17.3096C12.6879 16.9436 13.1248 11.5828 13.0067 10.036L12.9359 9.02051L14.648 7.01318L16.372 5.00585L15.876 4.69884C15.6044 4.52172 14.1875 3.64795 12.7233 2.75055C11.2592 1.86496 9.9603 1.05022 9.81861 0.967568C9.57065 0.814067 9.54703 0.873106 8.77952 2.85682C8.35444 3.99037 8.00021 4.95861 8.00021 5.02946C8.00021 5.0885 8.85037 5.66708 9.88946 6.2929C11.9794 7.57995 12.1211 7.69803 11.8968 7.9578C11.8141 8.05226 11.7079 8.13492 11.6488 8.13492C11.5898 8.13492 10.6806 7.60357 9.61788 6.95414C8.56698 6.30471 7.62235 5.77335 7.52789 5.77335C7.20908 5.77335 5.76853 6.95414 5.24898 7.63899C4.83571 8.18215 1.34059 13.9326 0.809238 14.9598C0.52585 15.503 0.986356 16.0344 1.54132 15.8218C1.74206 15.7392 2.14352 15.1842 2.80476 14.1097C3.33611 13.2359 3.84385 12.4566 3.93831 12.3739C4.13905 12.2086 4.45786 12.3149 4.45786 12.551C4.45786 12.6455 3.79662 13.8381 2.98188 15.196C2.16714 16.5539 1.5059 17.7701 1.5059 17.9C1.5059 18.2542 1.90737 18.573 2.2616 18.4786C2.48595 18.4195 2.89922 17.841 4.0682 15.9753C4.89475 14.6292 5.65045 13.5075 5.7331 13.4721C5.81576 13.4484 5.96926 13.4957 6.07553 13.6019C6.24084 13.7554 6.07553 14.0625 4.50509 16.5893C3.54865 18.148 2.73391 19.5413 2.7103 19.7066C2.65126 20.1081 3.04092 20.4741 3.44238 20.3678C3.65492 20.3206 4.0682 19.7656 5.06006 18.207C7.15004 14.9008 7.39801 14.5111 7.45705 14.5111C7.66959 14.5111 7.88213 14.6883 7.88213 14.8772C7.88213 14.9953 7.63416 15.4794 7.32716 15.9517C5.94564 18.0889 4.81209 20.0136 4.81209 20.2261C4.81209 20.5095 5.14271 20.8874 5.40248 20.8874C5.50875 20.8874 5.67406 20.8165 5.78033 20.7457ZM15.3919 9.77621C15.7107 9.26847 15.7107 9.25666 15.569 8.37108C15.4864 7.88695 15.3919 7.45007 15.3565 7.39103C15.3329 7.34379 14.9314 7.73345 14.4827 8.27661L13.668 9.24485L13.668 11.1813L13.668 13.1296L14.3646 11.7009C14.7543 10.9216 15.2148 10.0596 15.3919 9.77621Z" fill="rgb(255,46,23)" fill-rule="nonzero" transform="matrix(1,0,0,-1,10.1738,56.5059)" />
		<path id="Vector" d="M18.5092 24.0873C18.3793 23.7449 18.3439 23.7331 18.1195 23.8984C17.6826 24.2054 17.045 24.1227 16.6317 23.7213C16.2185 23.308 16.2066 23.2253 16.0295 19.6476C15.9587 18.2896 15.876 16.8373 15.8406 16.424L15.7698 15.6801L15.4509 16.1879C15.262 16.4712 14.9786 16.8491 14.8015 17.0262C14.4355 17.4159 13.5027 17.8646 13.2075 17.7819C13.0894 17.7583 12.9005 17.8055 12.7824 17.8882C12.4163 18.1598 11.7197 18.0889 11.33 17.7583C10.8813 17.3804 10.7278 16.9908 10.5625 15.81L10.4208 14.8536L8.42529 18.0063C6.39434 21.1826 6.06372 21.5958 5.4261 21.5958C5.06006 21.5958 4.68221 21.3951 4.38701 21.0291C4.17447 20.7575 4.10362 20.7457 3.93831 20.8756C3.69035 21.0763 3.00549 21.0881 2.63945 20.8992C2.2616 20.6984 1.9546 20.049 2.00183 19.5649C2.03725 19.2343 2.00183 19.187 1.64759 19.0926C0.891893 18.8918 0.573082 17.8882 1.03359 17.1325C1.31697 16.672 1.32878 16.5185 1.09263 16.5185C0.478619 16.5185 -0.111772 15.7392 0.0181139 15.0897C0.124384 14.5584 4.3752 7.55634 5.04825 6.81244C5.37887 6.43459 5.99287 5.90324 6.41796 5.63166C7.25631 5.07669 7.091 5.3955 8.41348 1.81773C9.06291 0.0701734 9.13376 -0.0479048 9.46438 0.0111343C9.60607 0.0465578 10.9285 0.814067 12.4045 1.74688L15.0967 3.4236L17.1867 3.30552C18.3321 3.23467 20.3512 3.14021 21.6737 3.10479L24.0588 3.02213L24.0588 3.30552C24.047 3.45902 23.9053 4.74607 23.7164 6.1512L23.3976 8.7135L23.7755 9.54005C23.988 9.98875 24.2478 10.6972 24.3659 11.1105C24.602 12.0315 24.7555 14.7945 24.7673 18.3133L24.7673 21.0055L24.4249 21.3833C24.1179 21.7257 24.0116 21.773 23.4803 21.7612L22.8781 21.7612L22.8781 22.3043C22.8781 23.2371 22.1578 23.8275 21.3076 23.5914C21.0242 23.5087 20.9652 23.5441 20.8235 23.8748C20.7409 24.0873 20.5519 24.3471 20.422 24.4651C20.1032 24.7603 19.3593 24.8312 18.9697 24.6186C18.8044 24.5124 18.5918 24.2762 18.5092 24.0873ZM20.1268 20.297C20.0324 18.4432 20.0088 16.9554 20.0678 16.8491C20.2095 16.5539 20.5047 16.5893 20.6228 16.9081C20.6818 17.0498 20.7645 18.3133 20.8117 19.7066C20.8589 21.0999 20.9416 22.3634 21.0006 22.505C21.2014 23.0482 21.9098 23.1427 22.1224 22.6585C22.1814 22.5169 22.1814 21.218 22.1224 19.5177C22.0161 16.4712 22.0515 16.1879 22.5002 16.4712C22.6655 16.5775 22.7128 16.8963 22.7954 18.5967C22.8899 20.7575 22.9961 21.1235 23.5275 21.1235C24.1297 21.1235 24.1533 20.9582 24.0352 16.5185C23.9172 11.9961 23.8345 11.3112 23.1733 9.92971L22.76 9.04412L21.3076 9.12678C18.214 9.28028 17.8007 9.25666 17.8007 8.90243C17.8007 8.59542 18.2022 8.52458 20.4457 8.44192C21.6737 8.4065 22.7009 8.35927 22.7128 8.33565C22.7246 8.32384 22.8426 7.43826 22.9843 6.36375C23.126 5.28923 23.2559 4.26195 23.2913 4.07303L23.3504 3.7306L21.2604 3.81325C20.1032 3.84868 18.4974 3.91953 17.6944 3.96676C16.0768 4.04941 16.1358 3.99037 17.0332 4.628C17.3874 4.88777 17.352 4.97042 16.5018 5.91505L15.8996 6.58809L16.1712 7.96961L16.431 9.33932L16.1712 9.7644C16.0177 10.0124 15.3683 11.264 14.7307 12.5629C13.6325 14.7827 13.4082 15.3967 13.2783 16.6129C13.2311 17.038 13.2429 17.1089 13.4436 17.1089C13.8215 17.1089 14.5181 16.365 15.203 15.2432C16.2657 13.4957 16.431 13.6019 16.5491 16.0107C16.7852 21.3125 16.8915 22.8475 17.045 23.1072C17.2457 23.4142 17.6944 23.4497 17.9778 23.1663C18.1549 22.9892 18.1667 22.7412 18.0841 20.663C17.9306 17.1207 17.9306 16.8255 18.2022 16.7782C18.3202 16.7546 18.4619 16.7782 18.5092 16.8373C18.5682 16.8845 18.6627 18.0181 18.7335 19.3524C18.9343 23.2371 18.9815 23.6032 19.2294 23.8511C19.5365 24.1581 19.8789 24.1345 20.1032 23.8039C20.2567 23.5678 20.2567 23.1545 20.1268 20.297ZM8.16551 17.1089C9.38172 15.196 10.4562 13.5429 10.5507 13.4484C10.6806 13.3186 10.775 13.3067 10.9285 13.4012C11.0939 13.5075 11.1411 13.7909 11.2001 14.948C11.2828 16.5067 11.4953 17.1561 11.9913 17.3804C12.2274 17.4867 12.2983 17.4749 12.4281 17.3096C12.6879 16.9436 13.1248 11.5828 13.0067 10.036L12.9359 9.02051L14.648 7.01318L16.372 5.00585L15.876 4.69884C15.6044 4.52172 14.1875 3.64795 12.7233 2.75055C11.2592 1.86496 9.9603 1.05022 9.81861 0.967568C9.57065 0.814067 9.54703 0.873106 8.77952 2.85682C8.35444 3.99037 8.00021 4.95861 8.00021 5.02946C8.00021 5.0885 8.85037 5.66708 9.88946 6.2929C11.9794 7.57995 12.1211 7.69803 11.8968 7.9578C11.8141 8.05226 11.7079 8.13492 11.6488 8.13492C11.5898 8.13492 10.6806 7.60357 9.61788 6.95414C8.56698 6.30471 7.62235 5.77335 7.52789 5.77335C7.20908 5.77335 5.76853 6.95414 5.24898 7.63899C4.83571 8.18215 1.34059 13.9326 0.809238 14.9598C0.52585 15.503 0.986356 16.0344 1.54132 15.8218C1.74206 15.7392 2.14352 15.1842 2.80476 14.1097C3.33611 13.2359 3.84385 12.4566 3.93831 12.3739C4.13905 12.2086 4.45786 12.3149 4.45786 12.551C4.45786 12.6455 3.79662 13.8381 2.98188 15.196C2.16714 16.5539 1.5059 17.7701 1.5059 17.9C1.5059 18.2542 1.90737 18.573 2.2616 18.4786C2.48595 18.4195 2.89922 17.841 4.0682 15.9753C4.89475 14.6292 5.65045 13.5075 5.7331 13.4721C5.81576 13.4484 5.96926 13.4957 6.07553 13.6019C6.24084 13.7554 6.07553 14.0625 4.50509 16.5893C3.54865 18.148 2.73391 19.5413 2.7103 19.7066C2.65126 20.1081 3.04092 20.4741 3.44238 20.3678C3.65492 20.3206 4.0682 19.7656 5.06006 18.207C7.15004 14.9008 7.39801 14.5111 7.45705 14.5111C7.66959 14.5111 7.88213 14.6883 7.88213 14.8772C7.88213 14.9953 7.63416 15.4794 7.32716 15.9517C5.94564 18.0889 4.81209 20.0136 4.81209 20.2261C4.81209 20.5095 5.14271 20.8874 5.40248 20.8874C5.50875 20.8874 5.67406 20.8165 5.78033 20.7457C5.8748 20.663 6.96112 19.0217 8.16551 17.1089ZM15.569 8.37108C15.4864 7.88695 15.3919 7.45007 15.3565 7.39103C15.3329 7.34379 14.9314 7.73345 14.4827 8.27661L13.668 9.24485L13.668 11.1813L13.668 13.1296L14.3646 11.7009C14.7543 10.9216 15.2148 10.0596 15.3919 9.77621C15.7107 9.26847 15.7107 9.25666 15.569 8.37108Z" fill-rule="nonzero" stroke="rgb(255,46,23)" stroke-width="0.450000" transform="matrix(1,0,0,-1,10.1738,56.5059)" />
		<path id="Vector" d="M0.0129492 3.44499C-0.0460899 3.31511 0.095604 3.07895 0.461647 2.71291C1.06385 2.08709 1.31181 1.6384 1.41808 0.988966C1.57158 -0.00289166 1.5952 -0.0265074 1.86678 0.00891611C2.10293 0.0443396 2.12655 0.115187 2.12655 0.69377C2.11474 1.53213 1.66604 2.51218 1.00481 3.16161C0.473454 3.66934 0.131027 3.77561 0.0129492 3.44499Z" fill="rgb(255,46,23)" fill-rule="nonzero" transform="matrix(1,0,0,-1,27.3242,45.6406)" />
		<path id="Vector" d="M0.461647 2.71291C1.06385 2.08709 1.31181 1.6384 1.41808 0.988966C1.57158 -0.00289166 1.5952 -0.0265074 1.86678 0.00891611C2.10293 0.0443396 2.12655 0.115187 2.12655 0.69377C2.11474 1.53213 1.66604 2.51218 1.00481 3.16161C0.473454 3.66934 0.131027 3.77561 0.0129492 3.44499C-0.0460899 3.31511 0.095604 3.07895 0.461647 2.71291Z" fill-rule="nonzero" stroke="rgb(255,46,23)" stroke-width="0.450000" transform="matrix(1,0,0,-1,27.3242,45.6406)" />
		<path id="Vector" d="M0.472782 3.97648C0.201202 3.64586 -0.0113387 2.77209 0.000469156 2.01638C0.000469156 0.788371 0.555437 -0.309758 0.945095 0.0799008C1.06317 0.197979 1.05137 0.363289 0.897864 0.835602C0.638092 1.60311 0.638092 2.50051 0.886056 3.19717C1.00413 3.50417 1.05137 3.83479 1.01594 3.94106C0.92148 4.16541 0.6499 4.18902 0.472782 3.97648Z" fill="rgb(255,46,23)" fill-rule="nonzero" transform="matrix(1,0,0,-1,19.249,47.4238)" />
		<path id="Vector" d="M0.000469156 2.01638C0.000469156 0.788371 0.555437 -0.309758 0.945095 0.0799008C1.06317 0.197979 1.05137 0.363289 0.897864 0.835602C0.638092 1.60311 0.638092 2.50051 0.886056 3.19717C1.00413 3.50417 1.05137 3.83479 1.01594 3.94106C0.92148 4.16541 0.6499 4.18902 0.472782 3.97648C0.201202 3.64586 -0.0113387 2.77209 0.000469156 2.01638Z" fill-rule="nonzero" stroke="rgb(255,46,23)" stroke-width="0.450000" transform="matrix(1,0,0,-1,19.249,47.4238)" />
	</g>
</svg>
