<svg viewBox="0 0 50 46.9919" xmlns="http://www.w3.org/2000/svg" xmlns:xlink="http://www.w3.org/1999/xlink" width="50.000000" height="46.991943" fill="none" customFrame="#000000">
	<g id="Black">
		<path id="Vector" d="M0.426821 7.8962C0.101624 7.55068 0.132111 7.06288 0.508121 6.70719L0.812993 6.42265L0.812993 3.64831L0.812993 0.88413L0.569095 1.11787C0.325197 1.34144 0 1.34144 0 1.11787C0 0.985754 0.904455 0 1.0264 0C1.11787 0 1.96135 0.873968 2.01216 1.0264C2.09346 1.23981 1.70729 1.22965 1.46339 1.01624L1.21949 0.782506L1.21949 3.5975L1.21949 6.42265L1.52436 6.70719C1.89021 7.05272 1.9207 7.46938 1.61582 7.86571C1.34144 8.22139 0.741856 8.23156 0.426821 7.8962ZM1.30079 7.60149C1.62599 7.27629 1.11787 6.71736 0.762181 7.01207C0.477634 7.2458 0.640232 7.72344 1.01624 7.72344C1.1077 7.72344 1.22965 7.67262 1.30079 7.60149Z" fill="rgb(255,46,23)" fill-rule="nonzero" transform="matrix(1,0,0,-1,23.9844,8.14038)" />
		<path id="Vector" d="M0.447146 7.47954C0.0914617 7.3271 0 7.15434 0 6.66654C0 6.29054 0.233736 6.02631 0.660557 5.90436C0.914617 5.84339 1.07722 5.53852 2.27638 2.91661C3.00808 1.31095 3.66863 0 3.73977 0C3.81091 0 3.89221 0.0609745 3.92269 0.132111C3.94302 0.203248 3.37392 1.58534 2.64223 3.18084C1.36176 6.00599 1.32111 6.10761 1.48371 6.35151C1.76826 6.77833 1.50404 7.39824 0.965429 7.55067C0.853643 7.58116 0.619907 7.55067 0.447146 7.47954ZM1.11787 6.96126C1.21949 6.83931 1.20933 6.75801 1.07722 6.55476C0.894293 6.28037 0.721532 6.22956 0.528446 6.42265C0.396334 6.55476 0.365847 6.93077 0.477634 7.04255C0.599583 7.1645 0.985754 7.11369 1.11787 6.96126Z" fill="rgb(255,46,23)" fill-rule="nonzero" transform="matrix(1,0,0,-1,17.1758,9.46143)" />
		<path id="Vector" d="M1.9324 5.92701C1.64785 5.65263 1.59704 5.21564 1.82061 4.91077C1.94256 4.72785 1.8511 4.47379 0.946642 2.4413C0.397871 1.20149 -0.0289502 0.134437 0.00153702 0.0836246C0.174298 -0.200923 0.408034 0.175086 1.34298 2.23806C2.29824 4.362 2.37954 4.50428 2.67425 4.57541C3.58887 4.81931 3.43643 6.18107 2.49133 6.18107C2.29824 6.18107 2.08483 6.08961 1.9324 5.92701ZM2.7962 5.62214C3.06042 5.29694 2.66409 4.79899 2.31857 5.02256C1.96288 5.24613 2.08483 5.77458 2.49133 5.77458C2.59295 5.77458 2.72506 5.70344 2.7962 5.62214Z" fill="rgb(255,46,23)" fill-rule="nonzero" transform="matrix(1,0,0,-1,28.9121,9.44348)" />
		<path id="Vector" d="M0.101624 0.721532C0.0508121 0.609745 0 0.477634 0 0.416659C0 0.25406 0.304872 0 0.508121 0C0.731694 0 1.01624 0.25406 1.01624 0.457309C1.01624 0.873968 0.29471 1.07722 0.101624 0.721532Z" fill="rgb(255,46,23)" fill-rule="nonzero" transform="matrix(1,0,0,-1,21.4443,4.88831)" />
		<path id="Vector" d="M0.681333 4.17953C-0.0401981 3.59011 -0.0503606 3.56978 0.0817508 3.41735C0.183375 3.28524 0.234187 3.2954 0.447598 3.43767C0.589872 3.51897 0.711821 3.57995 0.721983 3.55962C0.742308 3.5393 0.579709 2.75679 0.366298 1.80152C0.152888 0.856419 -0.00971092 0.0739133 0.000451494 0.0637509C0.0106139 0.0535885 0.112238 0.0231013 0.224025 0.00277643C0.386623 -0.0175484 0.437435 0.0637509 0.549222 0.582034C0.620359 0.917394 0.803282 1.71006 0.945556 2.35029L1.20978 3.49865L1.40286 3.18361C1.52481 2.98036 1.64676 2.8889 1.74839 2.92955C1.9618 3.01085 1.94147 3.09215 1.59595 3.7832C1.26059 4.45391 1.09799 4.51489 0.681333 4.17953Z" fill="rgb(255,46,23)" fill-rule="nonzero" transform="matrix(1,0,0,-1,26.8604,8.77332)" />
		<path id="Vector" d="M0.00437492 3.14329C-0.0261123 3.06199 0.105999 2.32013 0.299085 1.48682C0.603957 0.145378 0.664932 -0.0273835 0.837693 0.00310371C0.939317 0.0234285 1.04094 0.0539158 1.0511 0.0640782C1.06127 0.0640782 0.979967 0.440088 0.878343 0.887234C0.776718 1.33438 0.624282 2.05591 0.522658 2.4929C0.410872 3.0315 0.309247 3.2754 0.207623 3.2754C0.126324 3.2754 0.0348622 3.21443 0.00437492 3.14329Z" fill="rgb(255,46,23)" fill-rule="nonzero" transform="matrix(1,0,0,-1,22.0889,8.77356)" />
		<path id="Vector" d="M2.846 4.91871C2.54113 4.77644 2.34805 4.27848 2.47 3.94312C2.55129 3.69922 2.43951 3.5163 1.26067 1.95129C0.549298 1.00618 -0.0197969 0.183025 0.000527957 0.12205C0.112315 -0.21331 0.427349 0.0915627 1.59603 1.6769C2.82568 3.34354 2.87649 3.40451 3.23218 3.40451C3.96387 3.42484 4.30939 4.26832 3.78095 4.7866C3.52689 5.05082 3.21185 5.10163 2.846 4.91871ZM3.43542 4.53254C3.64884 4.41059 3.68948 4.12604 3.50656 3.94312C3.32364 3.7602 3.03909 3.80084 2.91714 4.01426C2.78503 4.26832 2.78503 4.28864 2.97812 4.47156C3.16104 4.66465 3.18136 4.66465 3.43542 4.53254Z" fill="rgb(255,46,23)" fill-rule="nonzero" transform="matrix(1,0,0,-1,30.6191,10.5388)" />
		<path id="Vector" d="M0.250264 4.92045C-0.085096 4.58509 -0.085096 4.12778 0.260426 3.78226C0.483999 3.56885 0.585623 3.5282 0.931146 3.57901C1.3478 3.62982 1.35797 3.62982 3.58354 1.7701C5.31115 0.337197 5.85992 -0.0794619 5.96154 0.0119999C6.03268 0.0729744 6.09365 0.154274 6.09365 0.194923C6.09365 0.225411 5.08757 1.09938 3.85792 2.11562C1.73398 3.88388 1.62219 3.9855 1.62219 4.32086C1.62219 4.77817 1.24618 5.17451 0.809197 5.17451C0.616111 5.17451 0.4027 5.08305 0.250264 4.92045ZM1.11407 4.61557C1.37829 4.29038 0.981958 3.79242 0.636436 4.01599C0.280751 4.23957 0.4027 4.76801 0.809197 4.76801C0.910821 4.76801 1.04293 4.69687 1.11407 4.61557Z" fill="rgb(255,46,23)" fill-rule="nonzero" transform="matrix(1,0,0,-1,11.793,11.8922)" />
		<path id="Vector" d="M4.55261 4.98656C4.55261 4.83412 4.63391 4.77315 4.88797 4.75282C5.203 4.72234 5.11154 4.63088 2.7437 2.63904C1.38194 1.49069 0.192933 0.504935 0.111633 0.433798C0.0201717 0.362661 -0.020478 0.240712 0.0100093 0.149251C0.0811462 -0.0235104 0.345369 -0.0539976 0.436831 0.0984386C0.467318 0.149251 1.60551 1.11468 2.95711 2.25287L5.41641 4.30568L5.46723 3.96016C5.54853 3.36057 5.79242 3.51301 5.94486 4.26503C6.016 4.62071 6.05665 4.9764 6.02616 5.04753C5.99567 5.139 5.75177 5.17965 5.26398 5.17965C4.62375 5.17965 4.55261 5.15932 4.55261 4.98656Z" fill="rgb(255,46,23)" fill-rule="nonzero" transform="matrix(1,0,0,-1,32.1348,11.9989)" />
		<path id="Vector" d="M0.030899 3.29987C0.000411764 3.22873 -0.00975065 2.87304 0.0105742 2.51736C0.030899 2.0194 0.0817111 1.86696 0.193498 1.86696C0.284959 1.86696 0.366259 1.99908 0.396746 2.21249L0.447558 2.56817L1.36218 1.35884C1.8703 0.688124 2.30728 0.0987036 2.34793 0.0377291C2.39874 -0.0232454 2.48004 -0.0130829 2.58167 0.0885412C2.72394 0.230815 2.6528 0.362926 1.86013 1.40966C1.37234 2.04989 0.935354 2.63931 0.87438 2.71044C0.782918 2.82223 0.83373 2.83239 1.1386 2.78158C1.47396 2.72061 1.51461 2.73077 1.51461 2.92386C1.51461 3.06613 1.43331 3.14743 1.24023 3.19824C1.07763 3.22873 0.79308 3.29987 0.599994 3.35068C0.132523 3.47263 0.0918735 3.46246 0.030899 3.29987Z" fill="rgb(255,46,23)" fill-rule="nonzero" transform="matrix(1,0,0,-1,16.6777,10.5663)" />
		<path id="Vector" d="M7.20158 16.9942C5.51462 16.7299 3.92928 15.9373 2.69963 14.7787C1.34803 13.4881 0.494385 11.9638 0.138701 10.1955C-0.0950349 9.06746 -0.023898 7.20774 0.280975 6.14069C1.31754 2.55336 4.62033 0.033077 8.33977 0.00258973C8.94952 -0.00757269 9.4678 0.0127521 9.49829 0.0534018C9.53893 0.0940515 9.50845 0.378599 9.44747 0.703796L9.31536 1.29322L8.28896 1.30338C7.06947 1.30338 6.24631 1.50663 5.19958 2.02491C2.74028 3.25456 1.26673 5.68338 1.26673 8.50853C1.26673 10.287 1.75453 11.6995 2.83174 13.041C4.54919 15.1954 7.24223 16.1812 9.89462 15.6222C10.291 15.5409 11.043 15.2564 11.5714 15.0023C12.3742 14.606 12.6893 14.3722 13.4108 13.6507C14.1425 12.919 14.3661 12.6141 14.7523 11.8113C15.0165 11.2829 15.301 10.5715 15.3925 10.2361C15.5957 9.42315 15.5957 7.58375 15.3823 6.79108C15.301 6.46589 15.2401 6.18134 15.2502 6.17118C15.2705 6.16101 15.5246 6.0289 15.8193 5.88663L16.3579 5.63257L16.4494 5.8663C16.6628 6.4354 16.8559 7.71586 16.8559 8.57967C16.8559 11.0186 15.5856 13.6304 13.6547 15.1852C12.8519 15.8356 11.4901 16.5267 10.5044 16.7807C9.57959 17.0246 8.02474 17.1263 7.20158 16.9942Z" fill="rgb(255,46,23)" fill-rule="nonzero" transform="matrix(1,0,0,-1,16.5801,26.5574)" />
		<path id="Vector" d="M4.24577 3.14045C4.13399 3.02867 4.03236 2.85591 4.0222 2.76444C4.0222 2.66282 4.00187 2.52055 4.00187 2.43925C3.99171 2.36811 3.11774 1.85999 2.04053 1.32138C0.973474 0.782773 0.0588567 0.315302 0.018207 0.274652C-0.0224427 0.234003 0.0080446 0.132378 0.0791815 0.0409166C0.180806 -0.0810324 0.475516 0.0307542 2.22345 0.914884C3.89009 1.7482 4.27626 1.9108 4.43886 1.81934C4.74373 1.6669 5.10958 1.69739 5.3738 1.9108C5.55672 2.05307 5.6177 2.20551 5.6177 2.53071C5.6177 2.85591 5.55672 3.00834 5.3738 3.15062C5.05877 3.40468 4.50999 3.40468 4.24577 3.14045ZM5.16039 2.74412C5.2925 2.49006 5.20104 2.25632 4.94698 2.17502C4.56081 2.05307 4.28642 2.53071 4.57097 2.81526C4.75389 2.99818 5.03844 2.95753 5.16039 2.74412Z" fill="rgb(255,46,23)" fill-rule="nonzero" transform="matrix(1,0,0,-1,33.2549,13.6183)" />
		<path id="Vector" d="M0.214465 3.03114C0.00105424 2.81773 -0.029433 2.70594 0.0213791 2.40107C0.112841 1.771 0.570149 1.53727 1.24087 1.78116C1.53558 1.88279 1.68802 1.82181 3.41563 0.917358C4.44203 0.37875 5.32616 -0.0379095 5.37697 0.00274016C5.6412 0.165339 5.27535 0.439724 3.53757 1.34418C1.77948 2.26896 1.65753 2.35026 1.59655 2.66529C1.46444 3.31569 0.702261 3.51894 0.214465 3.03114ZM1.13924 2.66529C1.28152 2.43156 1.10876 2.13685 0.814048 2.0962C0.519337 2.05555 0.295764 2.50269 0.48885 2.73643C0.651449 2.93968 0.986809 2.89903 1.13924 2.66529Z" fill="rgb(255,46,23)" fill-rule="nonzero" transform="matrix(1,0,0,-1,11.1992,13.6715)" />
		<path id="Vector" d="M2.5406 7.11369C1.13819 6.75801 0.203248 5.70112 0.0609745 4.30886L0 3.76009L1.06705 3.76009L2.13411 3.76009L2.19508 4.16659C2.26622 4.71536 2.51012 5.07105 2.9471 5.25397C3.4349 5.44706 3.94302 5.34543 4.31903 4.97958C4.56292 4.73569 4.60357 4.60357 4.60357 4.15643C4.60357 3.62798 4.60357 3.62798 3.78042 2.80483C2.87596 1.90037 2.63207 1.46339 2.52028 0.58942L2.4593 0L3.42473 0L4.40033 0L4.4613 0.284548C4.59341 0.904455 4.76617 1.14835 5.53852 1.84956C5.98566 2.24589 6.43281 2.75401 6.55476 2.97759C6.84947 3.55685 6.90028 4.41049 6.69703 5.13202C6.47346 5.88404 5.71128 6.68687 4.95926 6.95109C4.35968 7.1645 3.07921 7.2458 2.5406 7.11369Z" fill="rgb(255,46,23)" fill-rule="nonzero" transform="matrix(1,0,0,-1,21.4131,20.0304)" />
		<path id="Vector" d="M3.84139 1.64909C3.67879 1.4865 3.00808 1.25276 1.79875 0.9174C0.33536 0.510903 0 0.378792 0 0.236518C0 0.134894 0.0406497 0.0332696 0.0812993 0.00278236C0.132111 -0.0277049 0.975592 0.195868 1.95118 0.500741C3.29262 0.9174 3.82107 1.03935 4.10562 0.988537C4.52228 0.9174 4.77634 1.08 4.77634 1.4052C4.77634 1.89299 4.25805 2.0251 3.84139 1.64909Z" fill="rgb(255,46,23)" fill-rule="nonzero" transform="matrix(1,0,0,-1,34.0449,15.6024)" />
		<path id="Vector" d="M1.60507 1.74794C1.60507 1.64631 1.65588 1.5142 1.72702 1.44306C1.96076 1.20933 1.69653 1.189 0.975002 1.40241C0.324608 1.5955 0.212821 1.5955 0.0807096 1.47355C-0.112376 1.2703 0.00957268 1.17884 0.792079 0.975592C1.80832 0.711369 1.79816 0.711369 1.48312 0.54877C1.20874 0.406497 1.07663 0 1.3002 0C1.51361 0 2.62131 0.619907 2.62131 0.731694C2.62131 0.802831 2.47904 1.09754 2.29612 1.39225C1.97092 1.93086 1.60507 2.12394 1.60507 1.74794Z" fill="rgb(255,46,23)" fill-rule="nonzero" transform="matrix(1,0,0,-1,13.1309,16.067)" />
		<path id="Vector" d="M5.8443 32.6423C5.79349 32.4899 5.48862 29.4208 5.48862 29.0245C5.48862 28.8009 5.45813 28.7908 4.53335 28.7908C3.7102 28.7908 3.56792 28.7704 3.51711 28.618C3.4663 28.4351 3.25289 26.3721 3.25289 26.0266C3.25289 25.864 3.15126 25.8437 2.43989 25.8437C1.49479 25.8437 1.42365 25.7827 1.42365 24.9087C1.42365 24.1567 1.34235 23.9433 1.04764 23.862C0.641146 23.7604 0.336274 23.5165 0.163513 23.1506C0.0212391 22.8559 0.000914236 21.7482 0.000914236 12.9679C0.000914236 1.81971 -0.0600602 2.64286 0.813908 2.19572L1.26105 1.96198L10.956 1.96198L20.6509 1.96198L21.0371 1.53516C21.8908 0.56973 23.2728 0.0209599 24.8988 0.000635059C26.5553 -0.0196898 27.8561 0.447781 28.8114 1.41321L29.3703 1.96198L39.0957 1.96198C49.9594 1.96198 49.2683 1.92133 49.7663 2.66319L50 3.00871L49.9797 13.0492L49.9492 23.0896L49.6545 23.3945C49.4919 23.5673 49.2073 23.7502 49.0244 23.8112C48.6484 23.9331 48.5773 24.116 48.5773 24.9494C48.5773 25.742 48.4553 25.8437 47.5 25.8437L46.748 25.8437L46.748 26.1282C46.7379 26.9006 46.5346 28.5265 46.433 28.6485C46.3619 28.7399 46.0265 28.7908 45.4472 28.8111L44.5631 28.8416L44.3802 30.6708C44.2887 31.6769 44.1769 32.561 44.1566 32.6423C44.0956 32.8049 43.0286 32.7439 41.4128 32.4594L40.3965 32.2866L40.4067 31.9106C40.4168 31.6972 40.4372 31.5143 40.4575 31.494C40.4778 31.4736 41.1282 31.5549 41.8904 31.6667C42.6627 31.7785 43.3233 31.8496 43.3538 31.809C43.3843 31.7785 43.6587 29.1261 43.9635 25.925C44.2582 22.7238 44.6546 18.5369 44.8375 16.6162C45.1017 13.7504 45.1424 13.1102 45.0306 13.0492C44.9594 12.9984 44.5428 12.9069 44.116 12.8358C42.7745 12.6224 39.7563 11.8297 37.9067 11.2199C33.2422 9.65493 29.0959 7.43952 26.159 4.92941L25.407 4.28917L25.407 7.95781L25.407 11.6163L25.0005 11.6163L24.594 11.6163L24.594 7.94764L24.594 4.27901L24.0147 4.78713C19.7871 8.42528 13.0393 11.4334 6.01706 12.8256C5.43781 12.9476 4.92969 13.0593 4.88904 13.0797C4.84839 13.1102 4.84839 13.4658 4.88904 13.8723C4.93985 14.2788 5.13293 16.352 5.33618 18.4759C5.53943 20.5999 5.90528 24.4819 6.14918 27.1038C6.39307 29.7257 6.61665 31.8801 6.62681 31.8903C6.67762 31.9411 9.54342 31.4431 10.1328 31.2907L10.6715 31.1484L10.7731 31.5143C10.8239 31.7175 10.834 31.9208 10.7934 31.9614C10.6918 32.0631 7.51094 32.6423 6.63697 32.7236C6.05771 32.7744 5.88495 32.7541 5.8443 32.6423ZM5.34634 27.8355C5.36667 27.8253 4.00491 13.6589 3.92361 13.0797C3.89312 12.8256 3.92361 12.602 3.99474 12.5004C4.06588 12.4089 4.64514 12.2362 5.43781 12.0736C10.0922 11.1285 13.71 9.89883 17.4803 7.99846C19.1469 7.15498 21.3115 5.89484 21.596 5.60013C21.657 5.54931 21.1997 5.75256 20.5798 6.05744C16.3319 8.16105 10.956 9.63461 5.64106 10.1427C4.69595 10.2342 3.66955 10.3257 3.37484 10.3561L2.83623 10.4171L2.88704 10.7321C2.91753 10.9151 2.96834 11.4435 2.99883 11.9211C3.08013 13.2423 3.95409 24.1567 4.11669 26.0469C4.19799 26.9717 4.26913 27.7745 4.26913 27.8355C4.26913 27.9066 4.45205 27.927 4.80774 27.8965C5.09228 27.8761 5.34634 27.8457 5.34634 27.8355ZM45.7826 27.3477C45.8131 27.053 45.9045 25.9656 45.9858 24.929C46.0671 23.8925 46.2501 21.6059 46.3923 19.8478C47.0834 11.1793 47.1342 10.4476 47.0122 10.3765C46.9513 10.3358 46.6058 10.2952 46.2399 10.2952C45.4066 10.2952 42.49 9.9598 40.8335 9.68542C36.9718 9.03502 32.6426 7.6631 29.5431 6.11841C28.1203 5.40704 28.1102 5.44769 29.4719 6.30133C33.7706 9.00454 38.4047 10.783 44.3497 12.0228C45.183 12.1854 45.8944 12.3581 45.9452 12.3886C46.0875 12.4801 46.057 13.0289 45.6302 17.4902C45.4066 19.8173 45.1119 22.9677 44.9696 24.4717C44.8273 25.9859 44.6952 27.368 44.6749 27.5509L44.6241 27.8761L45.1729 27.8761L45.7216 27.8761L45.7826 27.3477ZM3.11061 24.4514C3.08013 24.1262 2.86672 21.5348 2.64314 18.6792C2.41957 15.8337 2.16551 12.6833 2.08421 11.6773C2.00291 10.6813 1.96226 9.82769 1.98259 9.77688C2.01307 9.73623 1.96226 9.05535 1.8708 8.26268C1.7082 6.9314 1.7082 6.82978 1.8708 6.70783C2.02324 6.59604 2.02324 6.50458 1.86064 5.38672C1.63706 3.79122 1.6269 3.80138 3.01915 4.02495C5.83414 4.49242 6.576 4.54324 10.2141 4.54324C14.0352 4.5534 15.2547 4.45177 18.09 3.93349C21.0879 3.38472 21.4334 3.40504 11.0271 3.42537L1.47446 3.43553L1.44398 6.94157C1.42365 8.87242 1.4643 11.2708 1.51511 12.2768C1.81999 17.4292 2.25697 24.4108 2.29762 24.7055C2.34843 25.0103 2.36876 25.0307 2.75493 25.0307L3.17159 25.0307L3.11061 24.4514ZM47.8862 22.236C48.5264 11.9821 48.5874 10.5797 48.5569 6.99238L48.5264 3.43553L39.0348 3.40504C33.8113 3.39488 29.5634 3.40504 29.5939 3.43553C29.6955 3.53716 32.6934 4.09609 34.2686 4.3095C36.3011 4.57372 40.4778 4.67535 42.7948 4.51275C44.6444 4.37047 45.5082 4.27901 46.9818 4.02495C48.3537 3.80138 48.3435 3.79122 48.1809 5.36639C48.0793 6.28101 48.0793 6.57572 48.1708 6.6875C48.2724 6.80945 48.2724 7.10416 48.1809 7.98829C48.1098 8.61836 48.0387 9.52282 48.0183 10.0005C47.9675 10.9252 47.2358 20.2747 47.0021 22.9982C46.7988 25.2542 46.7683 25.051 47.2866 25.0103L47.7135 24.9799L47.8862 22.236ZM5.36667 9.32973C9.6044 8.89275 14.0759 7.8257 17.6225 6.42328C18.9538 5.89484 20.7424 5.09201 20.6916 5.04119C20.6713 5.02087 20.4477 5.10217 20.1835 5.21395C18.6388 5.87451 14.3401 6.86027 11.3523 7.24644C9.09628 7.53099 6.23047 7.67326 4.27929 7.59196L2.62282 7.52082L2.68379 7.91716C2.71428 8.14073 2.76509 8.57771 2.80574 8.90291L2.86672 9.48217L3.36467 9.48217C3.63906 9.48217 4.54351 9.41103 5.36667 9.32973ZM47.185 9.05535C47.2257 8.81145 47.2765 8.3643 47.3171 8.03911L47.3781 7.47001L46.5854 7.51066C46.1383 7.53099 45.3761 7.57164 44.868 7.59196C43.6282 7.65293 40.3355 7.49034 38.7807 7.29725C35.6303 6.91108 33.0288 6.30133 29.6244 5.16314C29.5126 5.13266 29.8073 5.28509 30.2849 5.51883C33.3438 7.00254 37.9474 8.38463 41.8802 8.97405C43.5164 9.22811 45.6505 9.45168 46.5041 9.47201L47.1342 9.48217L47.185 9.05535ZM10.5698 6.48426C12.2568 6.28101 14.1267 5.96597 15.4986 5.65094C16.647 5.39688 19.2282 4.69567 19.1774 4.64486C19.1672 4.6347 18.4965 4.73632 17.6835 4.86843C13.3543 5.60013 8.40523 5.6611 3.93377 5.04119C3.28337 4.94973 2.71428 4.90908 2.68379 4.93957C2.63298 4.99038 2.79558 6.05744 2.90737 6.45377C2.93785 6.54523 3.0598 6.64686 3.18175 6.67734C3.66955 6.77897 9.34017 6.64685 10.5698 6.48426ZM46.3619 6.67734L47.1342 6.60621L47.246 5.85419C47.3883 4.89892 47.3883 4.80746 47.2358 4.85827C46.8801 4.99038 43.5164 5.32574 41.6567 5.42737C38.4148 5.58996 34.8986 5.36639 31.9211 4.80746C31.3316 4.69567 30.8438 4.62453 30.8235 4.64486C30.7727 4.69567 32.8458 5.28509 34.2483 5.61029C36.4433 6.13873 38.8925 6.50458 41.2603 6.66718C42.1749 6.73832 45.62 6.73832 46.3619 6.67734ZM22.3786 3.02904C23.1306 2.80546 26.6773 2.7953 27.5207 3.01887C27.8764 3.1205 28.2118 3.18147 28.2728 3.16115C28.3337 3.14082 28.2219 2.91725 28.0289 2.67335C26.911 1.1998 23.781 0.986389 22.3176 2.26685C21.8806 2.65303 21.5656 3.18147 21.7688 3.18147C21.8399 3.18147 22.1143 3.11033 22.3786 3.02904Z" fill="rgb(255,46,23)" fill-rule="nonzero" transform="matrix(1,0,0,-1,0,46.9919)" />
		<path id="Vector" d="M0.189092 0.828019C-0.0852936 0.675583 -0.0548063 0.147137 0.239904 0.0353504C0.707375 -0.147573 1.11387 0.421522 0.768349 0.777207C0.575264 0.96013 0.43299 0.980455 0.189092 0.828019Z" fill="rgb(255,46,23)" fill-rule="nonzero" transform="matrix(1,0,0,-1,12.291,17.3118)" />
		<path id="Vector" d="M0.214826 0.812018C-0.0798837 0.60877 -0.0697213 0.303897 0.235151 0.110811C0.428237 -0.0212999 0.529861 -0.0314623 0.69246 0.0599994C0.977008 0.202273 0.98717 0.720556 0.712785 0.872993C0.458724 1.0051 0.489212 1.0051 0.214826 0.812018Z" fill="rgb(255,46,23)" fill-rule="nonzero" transform="matrix(1,0,0,-1,36.5947,17.3466)" />
		<path id="Vector" d="M0.0706522 0.462342C-0.132596 0.228606 0.0909771 0.116819 0.893808 0.0355202C1.63566 -0.0254543 1.67631 -0.0254543 1.67631 0.177794C1.67631 0.33023 1.59501 0.391205 1.35112 0.431854C0.345037 0.584291 0.172276 0.584291 0.0706522 0.462342Z" fill="rgb(255,46,23)" fill-rule="nonzero" transform="matrix(1,0,0,-1,13.873,17.3729)" />
		<path id="Vector" d="M0.547549 0.496483C0.120727 0.445671 0.0394281 0.394859 0.00894081 0.201773C-0.0215464 -0.0218 -0.011384 -0.0319624 0.669498 0.0391745C1.42152 0.110311 1.57395 0.181448 1.48249 0.425346C1.41135 0.598107 1.39103 0.598107 0.547549 0.496483Z" fill="rgb(255,46,23)" fill-rule="nonzero" transform="matrix(1,0,0,-1,34.4629,17.3663)" />
		<path id="Vector" d="M5.96534 1.91752C5.83323 1.78541 5.8942 1.56183 6.12794 1.36875C6.35151 1.18583 6.3007 1.18583 3.18084 1.17566C0.071137 1.17566 0 1.17566 0 0.972415C0 0.769166 0.071137 0.769166 3.09954 0.769166C4.80682 0.769166 6.19907 0.728517 6.19907 0.677705C6.19907 0.626893 6.12794 0.535431 6.04664 0.464294C5.87388 0.32202 5.84339 0.0984468 5.99583 0.00698507C6.1381 -0.0844767 7.11369 0.748842 7.11369 0.95209C7.11369 1.05371 6.89012 1.31794 6.61573 1.56183C6.07712 2.01914 6.06696 2.02931 5.96534 1.91752Z" fill="rgb(255,46,23)" fill-rule="nonzero" transform="matrix(1,0,0,-1,34.4521,19.9866)" />
		<path id="Vector" d="M0.310646 1.49355C-0.126338 1.15819 -0.0958505 0.47731 0.361458 0.152113C0.70698 -0.0917852 1.03218 -0.0409731 1.3777 0.294387L1.68257 0.599259L4.67032 0.599259C7.58694 0.599259 7.65807 0.599259 7.65807 0.802507C7.65807 1.00576 7.58694 1.00576 4.60935 1.00576C2.648 1.00576 1.56062 1.04641 1.56062 1.10738C1.56062 1.50371 0.686655 1.76794 0.310646 1.49355ZM1.10331 0.863482C1.10331 0.497635 0.839092 0.294387 0.605356 0.487473C0.442757 0.629746 0.381783 1.01592 0.513894 1.14803C0.554544 1.18868 0.70698 1.209 0.849254 1.18868C1.0525 1.16835 1.10331 1.10738 1.10331 0.863482Z" fill="rgb(255,46,23)" fill-rule="nonzero" transform="matrix(1,0,0,-1,7.89062,19.8167)" />
		<path id="Vector" d="M2.90645 1.64311C1.5955 1.24678 1.58534 1.24678 1.34144 1.45002C0.782506 1.87685 0 1.50084 0 0.799629C0 0.0679355 0.96543 -0.287749 1.41258 0.281346C1.53452 0.433782 1.62599 0.606544 1.62599 0.67768C1.62599 0.748817 2.24589 0.982553 3.06905 1.21629C3.86172 1.45002 4.52227 1.66343 4.5426 1.68376C4.61374 1.7549 4.45114 2.04961 4.32919 2.03944C4.26821 2.03944 3.62798 1.85652 2.90645 1.64311ZM1.05689 1.1045C1.2703 0.941903 1.23981 0.647193 0.995917 0.484595C0.640232 0.261021 0.243898 0.75898 0.508121 1.08418C0.660557 1.2671 0.823156 1.27726 1.05689 1.1045Z" fill="rgb(255,46,23)" fill-rule="nonzero" transform="matrix(1,0,0,-1,11.3828,22.5881)" />
		<path id="Vector" d="M0.00778854 2.01437C0.0382758 1.82128 0.221199 1.73999 1.46101 1.40463C2.24352 1.19121 3.05651 0.967642 3.26992 0.906667C3.4935 0.845693 3.64593 0.744068 3.64593 0.652607C3.64593 0.571307 3.75772 0.388384 3.89999 0.256272C4.38779 -0.241686 5.11948 0.0225368 5.23127 0.733906C5.28208 1.03878 5.2516 1.15057 5.03818 1.36398C4.71299 1.68917 4.20487 1.71966 3.91016 1.43511C3.69675 1.24203 3.67642 1.24203 1.91832 1.73999C0.942731 2.01437 0.0992503 2.23794 0.0586006 2.23794C0.00778855 2.23794 -0.0125363 2.13632 0.00778854 2.01437ZM4.7638 1.06927C4.90607 0.896505 4.81461 0.550982 4.6012 0.469683C4.37763 0.388384 4.05243 0.58147 4.05243 0.79488C4.05243 1.18105 4.5199 1.36398 4.7638 1.06927Z" fill="rgb(255,46,23)" fill-rule="nonzero" transform="matrix(1,0,0,-1,34.1602,22.7765)" />
		<path id="Vector" d="M0.345522 1.89021C0.0609745 1.60566 0 1.46339 0 1.11787C0 0.772344 0.0609745 0.63007 0.345522 0.345522C0.63007 0.0609745 0.772344 0 1.11787 0C1.46339 0 1.60566 0.0609745 1.89021 0.345522C2.29671 0.752019 2.34752 1.189 2.03248 1.70729C1.64631 2.33736 0.873968 2.41865 0.345522 1.89021Z" fill="rgb(255,46,23)" fill-rule="nonzero" transform="matrix(1,0,0,-1,23.7812,23.0791)" />
		<path id="Vector" d="M2.40841 7.10462C0.884043 6.57618 -0.111874 5.02133 0.0100754 3.36486C0.0710499 2.44008 0.355598 1.81001 0.99583 1.12912C1.97142 0.10272 3.41448 -0.263127 4.7356 0.194182C5.44697 0.43808 6.38191 1.30189 6.74776 2.0539C7.06279 2.69414 7.22539 4.12704 6.99166 4.26931C6.77824 4.40142 6.31077 3.83233 6.22947 3.34453C5.89411 1.08847 3.37384 0.10272 1.74785 1.5966C1.1381 2.15553 0.863718 2.7856 0.863718 3.60875C0.863718 4.72662 1.41249 5.63107 2.36776 6.09855C3.02831 6.42374 3.87179 6.46439 4.52219 6.20017L4.94901 6.02741L5.20307 6.31196C5.33518 6.47456 5.42664 6.63715 5.39616 6.68797C5.37583 6.72862 5.16242 6.86073 4.92868 6.98268C4.35959 7.27739 3.07912 7.33836 2.40841 7.10462Z" fill="rgb(255,46,23)" fill-rule="nonzero" transform="matrix(1,0,0,-1,26.9521,28.5171)" />
		<path id="Vector" d="M3.23165 2.87596L1.63615 1.28046L1.189 1.7581C0.599582 2.39833 0 2.39833 0 1.7581C0 1.45323 1.39225 0 1.68696 0C1.97151 0 5.58933 3.66863 5.58933 3.95318C5.58933 4.2174 5.32511 4.47146 5.05072 4.47146C4.89828 4.47146 4.31903 3.96334 3.23165 2.87596Z" fill="rgb(255,46,23)" fill-rule="nonzero" transform="matrix(1,0,0,-1,28.6592,26.4327)" />
		<path id="Vector" d="M1.26258 1.02023C0.134548 0.430815 -0.170325 0.156429 0.0837358 0.00399311C0.134548 -0.0366566 0.764618 0.237729 1.46582 0.613738C2.40077 1.10153 2.73613 1.32511 2.69548 1.43689C2.66499 1.51819 2.6345 1.60966 2.6345 1.62998C2.6345 1.7316 2.41093 1.62998 1.26258 1.02023Z" fill="rgb(255,46,23)" fill-rule="nonzero" transform="matrix(1,0,0,-1,13.9316,24.0385)" />
		<path id="Vector" d="M0.0354854 1.39581C-0.0356515 1.19256 -0.127113 1.2637 1.15335 0.542164C2.21024 -0.0574181 2.44398 -0.128555 2.44398 0.176317C2.44398 0.288104 0.370845 1.54824 0.167597 1.54824C0.126947 1.54824 0.0761351 1.47711 0.0354854 1.39581Z" fill="rgb(255,46,23)" fill-rule="nonzero" transform="matrix(1,0,0,-1,35.1582,24.9323)" />
		<path id="Vector" d="M0.0589113 0.701207C-0.103687 0.396334 0.0893985 0 0.404433 0C0.699143 0 0.882067 0.172761 0.882067 0.457309C0.882067 0.914617 0.272322 1.09754 0.0589113 0.701207Z" fill="rgb(255,46,23)" fill-rule="nonzero" transform="matrix(1,0,0,-1,12.4326,24.9083)" />
		<path id="Vector" d="M3.82102 3.64694C1.5548 1.76689 1.24993 1.54332 1.01619 1.60429C0.701159 1.69576 0.172714 1.49251 0.0710895 1.24861C-0.142321 0.689676 0.142226 0.120581 0.690997 0.0189568C0.965382 -0.0318553 1.06701 0.00879437 1.34139 0.273017C1.59545 0.53724 1.64626 0.649027 1.60561 0.882762C1.53448 1.20796 1.27025 0.953899 5.17262 4.18555C5.96529 4.8461 6.61569 5.42536 6.61569 5.46601C6.61569 5.50666 6.55471 5.58796 6.49374 5.64893C6.39211 5.73023 5.70107 5.21195 3.82102 3.64694ZM1.16863 0.974224C1.24993 0.83195 1.2296 0.750651 1.06701 0.57789C0.884083 0.405129 0.812946 0.384804 0.630022 0.476265C0.426774 0.588052 0.335312 0.984386 0.487749 1.13682C0.609698 1.25877 1.05684 1.15715 1.16863 0.974224Z" fill="rgb(255,46,23)" fill-rule="nonzero" transform="matrix(1,0,0,-1,11.1699,29.7648)" />
		<path id="Vector" d="M0.12954 0.778747C-0.175332 0.473874 0.0990528 -0.064734 0.525874 0.00640294C0.851072 0.057215 0.983183 0.321438 0.840909 0.636473C0.708798 0.92102 0.342951 0.992157 0.12954 0.778747Z" fill="rgb(255,46,23)" fill-rule="nonzero" transform="matrix(1,0,0,-1,38.1025,25.8092)" />
		<path id="Vector" d="M1.34289 2.0495C-0.150986 0.169455 -0.0798493 0.27108 0.0827494 0.0983187C0.275835 -0.0846048 0.184373 -0.165904 1.3124 1.29748C2.08475 2.31373 2.17621 2.46616 2.0441 2.59827C1.91198 2.73038 1.83068 2.66941 1.34289 2.0495Z" fill="rgb(255,46,23)" fill-rule="nonzero" transform="matrix(1,0,0,-1,17.1338,28.147)" />
		<path id="Vector" d="M0.0547998 3.68896C-0.117961 3.5162 0.0751245 3.29262 1.25396 2.27638C2.41248 1.28046 2.52427 1.15852 2.52427 0.843481C2.52427 0.376009 2.90028 0 3.36775 0C4.08928 0 4.41448 0.863805 3.88603 1.39225C3.66246 1.61582 3.56083 1.64631 3.20515 1.5955C2.79865 1.54469 2.76816 1.55485 1.49786 2.65239C0.786494 3.26214 0.186911 3.76009 0.166586 3.76009C0.136099 3.76009 0.085287 3.72961 0.0547998 3.68896ZM3.64213 1.06705C3.90636 0.741856 3.51002 0.243898 3.1645 0.467471C2.80881 0.691044 2.93076 1.21949 3.33726 1.21949C3.43888 1.21949 3.571 1.14835 3.64213 1.06705Z" fill="rgb(255,46,23)" fill-rule="nonzero" transform="matrix(1,0,0,-1,34.875,29.9896)" />
		<path id="Vector" d="M2.61174 6.07339C2.17476 5.92095 2.03248 5.82949 2.05281 5.69738C2.0833 5.57543 2.18492 5.54494 2.4593 5.5551L2.83531 5.57543L1.89021 3.62424C0.985754 1.7442 0.945105 1.67306 0.609745 1.61208C0.172761 1.52062 0 1.28689 0 0.799091C0 0.0978844 0.833318 -0.267963 1.30079 0.229996C1.53452 0.484056 1.60566 1.0938 1.42274 1.27672C1.3516 1.34786 1.61582 2.00842 2.25606 3.38034C2.77434 4.47789 3.23165 5.34169 3.2723 5.30104C3.30279 5.26039 3.3536 5.13844 3.37392 5.02666C3.41457 4.75227 3.86172 4.68113 3.85156 4.94536C3.84139 5.33153 3.49587 6.24615 3.3536 6.26647C3.2723 6.27663 2.93694 6.18517 2.61174 6.07339ZM1.06705 0.870228C1.06705 0.504381 0.802831 0.301133 0.569095 0.494219C0.376009 0.656817 0.355685 1.07348 0.538608 1.15478C0.84348 1.27672 1.06705 1.16494 1.06705 0.870228Z" fill="rgb(255,46,23)" fill-rule="nonzero" transform="matrix(1,0,0,-1,17.2773,33.2379)" />
		<path id="Vector" d="M1.53452 4.58353C1.41258 4.14655 1.19917 3.30307 1.04673 2.70349C0.843481 1.86001 0.741856 1.60595 0.609745 1.60595C0.315035 1.60595 0 1.16896 0 0.772628C0 0.101909 0.711369 -0.233451 1.24998 0.183208C1.61582 0.477918 1.6768 0.843765 1.42274 1.26042L1.21949 1.61611L1.6768 3.37421C1.93086 4.32947 2.13411 5.17295 2.13411 5.24409C2.13411 5.31523 2.05281 5.36604 1.94102 5.36604C1.78859 5.36604 1.70729 5.20344 1.53452 4.58353ZM1.06705 0.853928C1.06705 0.488081 0.802831 0.284832 0.569095 0.477918C0.25406 0.742141 0.457309 1.2401 0.863805 1.17913C1.01624 1.1588 1.06705 1.06734 1.06705 0.853928Z" fill="rgb(255,46,23)" fill-rule="nonzero" transform="matrix(1,0,0,-1,20.834,32.6117)" />
		<path id="Vector" d="M0 2.03248C0 0.0711368 0.0101624 0 0.203248 0C0.396334 0 0.406497 0.0711368 0.406497 2.03248C0.406497 3.99383 0.396334 4.06497 0.203248 4.06497C0.0101624 4.06497 0 3.99383 0 2.03248Z" fill="rgb(255,46,23)" fill-rule="nonzero" transform="matrix(1,0,0,-1,24.7979,31.6156)" />
		<path id="Vector" d="M0.121949 0.792668C0.0508121 0.721532 0 0.579258 0 0.457309C0 0.33536 0.0508121 0.193086 0.121949 0.121949C0.193086 0.0508121 0.33536 0 0.457309 0C0.579258 0 0.721532 0.0508121 0.792668 0.121949C0.863805 0.193086 0.914617 0.33536 0.914617 0.457309C0.914617 0.579258 0.863805 0.721532 0.792668 0.792668C0.721532 0.863805 0.579258 0.914617 0.457309 0.914617C0.33536 0.914617 0.193086 0.863805 0.121949 0.792668Z" fill="rgb(255,46,23)" fill-rule="nonzero" transform="matrix(1,0,0,-1,16.0576,29.3798)" />
		<path id="Vector" d="M0.0541996 1.8445C-0.0270998 1.74287 -0.0169374 1.65141 0.0846868 1.50914C0.176149 1.39735 0.206636 1.1941 0.176149 0.980694C0.0237123 0.086401 1.09077 -0.370908 1.60905 0.370949C1.85295 0.716471 1.80214 1.04167 1.46678 1.38719C1.21272 1.64125 1.10093 1.6819 0.857031 1.63109C0.623295 1.59044 0.531833 1.62093 0.450534 1.77336C0.328585 2.0071 0.216798 2.02742 0.0541996 1.8445ZM1.20255 1.10264C1.51759 0.79777 1.28385 0.401436 0.836706 0.472573C0.531833 0.513222 0.450534 0.940044 0.714757 1.13313C0.948492 1.30589 1.00947 1.29573 1.20255 1.10264Z" fill="rgb(255,46,23)" fill-rule="nonzero" transform="matrix(1,0,0,-1,33.0859,30.4419)" />
		<path id="Vector" d="M0.203248 3.62124C0.203248 3.50946 0.315035 2.90987 0.457309 2.2798C0.772344 0.83674 0.782506 0.796091 0.487796 0.999339C0.274385 1.15178 0 1.07048 0 0.846903C0 0.714791 1.13819 -0.0575524 1.23981 0.00342207C1.28046 0.0339093 1.46339 0.338782 1.63615 0.674142C1.88005 1.16194 1.9207 1.31437 1.80891 1.37535C1.5955 1.50746 1.54469 1.48713 1.38209 1.19242C1.19917 0.846903 1.19917 0.857065 0.904455 2.38143C0.782506 3.02166 0.640232 3.61108 0.579258 3.68222C0.436984 3.86514 0.203248 3.83465 0.203248 3.62124Z" fill="rgb(255,46,23)" fill-rule="nonzero" transform="matrix(1,0,0,-1,27.2363,32.4727)" />
		<path id="Vector" d="M0.00216724 4.07513C-0.02832 4.01415 0.26639 3.25197 0.662724 2.37801C1.05906 1.50404 1.36393 0.762181 1.33344 0.741856C1.31312 0.711369 1.19117 0.741856 1.07938 0.812993C0.835485 0.934942 0.662724 0.873968 0.662724 0.650395C0.662724 0.497958 1.63832 0 1.93303 0C2.08546 0 2.53261 1.28046 2.43098 1.44306C2.3192 1.62599 2.0753 1.50404 1.95335 1.19917L1.82124 0.88413L1.09971 2.49995C0.418826 3.99383 0.174928 4.34951 0.00216724 4.07513Z" fill="rgb(255,46,23)" fill-rule="nonzero" transform="matrix(1,0,0,-1,30.6387,33.6481)" />
		<path id="Vector" d="M0.256272 1.35266C-0.241686 0.86486 0.0225368 0.133166 0.733906 0.0213791C1.03878 -0.029433 1.15057 0.00105424 1.36398 0.214465C1.5469 0.397388 1.6282 0.590474 1.6282 0.82421C1.6282 1.53558 0.764393 1.87094 0.256272 1.35266ZM1.09975 1.07827C1.3843 0.793723 1.10992 0.316089 0.723743 0.438038C0.611957 0.468525 0.490008 0.590474 0.459521 0.702261C0.337572 1.08843 0.815205 1.36282 1.09975 1.07827Z" fill="rgb(255,46,23)" fill-rule="nonzero" transform="matrix(1,0,0,-1,24.1855,33.832)" />
	</g>
</svg>
