<svg viewBox="0 0 32.0063 32" xmlns="http://www.w3.org/2000/svg" xmlns:xlink="http://www.w3.org/1999/xlink" width="32.006348" height="32.000000" fill="none" customFrame="#000000">
	<path id="Vector" d="M21.4135 0.585966C20.6323 -0.195322 19.3634 -0.195322 18.5822 0.585966C17.8009 1.36725 17.8009 2.63607 18.5822 3.41735L19.1697 4.00488L1.75634 21.412C0.631281 22.537 0 24.0621 0 25.6559L0 25.9997C0 29.3124 2.68763 32 6.00029 32L6.34406 32C7.93789 32 9.46296 31.3687 10.588 30.2437L28.0014 12.8303L28.5889 13.4178C29.3702 14.1991 30.639 14.1991 31.4203 13.4178C32.2016 12.6366 32.2016 11.3677 31.4203 10.5865L29.4202 8.58636L23.4199 2.58606L21.4198 0.585966L21.4135 0.585966ZM12.8319 15.9992L22.0011 6.83002L25.17 9.99893L19.1697 15.9992L12.8319 15.9992Z" fill="rgb(255,255,255)" fill-rule="nonzero" />
</svg>
