<svg viewBox="0 0 37.0747 32" xmlns="http://www.w3.org/2000/svg" xmlns:xlink="http://www.w3.org/1999/xlink" width="37.074707" height="32.000000" fill="none" customFrame="#000000">
	<g id="Black">
		<path id="Vector" d="M7.39109 17.2472L7.39109 16.5234L6.84822 17.01C6.54662 17.2794 6.2973 17.4965 6.28926 17.4885C6.28122 17.4804 5.96354 17.1226 5.58152 16.6923C5.01854 16.0569 4.8979 15.9001 4.94616 15.8679C4.97833 15.8438 5.54131 15.3452 6.19677 14.7621L7.39109 13.7005L7.39109 12.1965C7.39109 11.3561 7.375 10.6966 7.3549 10.7046C7.33881 10.7127 6.77181 11.0344 6.09624 11.4204L4.87378 12.1201L4.53599 13.7407C4.27863 14.9631 4.18212 15.3612 4.13788 15.3612C4.08159 15.3612 2.15138 14.9591 2.13529 14.947C2.13127 14.939 2.37657 13.7648 2.4208 13.5798C2.43689 13.5155 2.42884 13.5155 2.31223 13.5838C2.14334 13.6844 1.36321 14.1307 1.25061 14.191C1.17019 14.2313 1.13802 14.191 0.659488 13.3506C0.38202 12.864 0.152808 12.4498 0.152808 12.4297C0.152808 12.4096 0.301595 12.3051 0.486573 12.2045C0.66753 12.1 0.940976 11.9391 1.09781 11.8507L1.37527 11.6898L1.09781 11.5933C0.940976 11.5451 0.631339 11.4365 0.410169 11.3561L0 11.2153L0.325723 10.2301C0.50668 9.69125 0.671552 9.24891 0.695679 9.24891C0.719807 9.24891 1.43559 9.48215 2.28408 9.76363L3.83629 10.2824L5.07082 9.57464C5.75041 9.18859 6.28926 8.85885 6.27318 8.84276C6.25709 8.82668 5.70216 8.50096 5.03865 8.12296L3.83227 7.4313L2.25191 7.96211C1.38332 8.25566 0.66753 8.48889 0.659488 8.48085C0.639381 8.45672 -0.00804253 6.50239 0.00402127 6.49435C0.00804253 6.49032 0.301595 6.38979 0.655466 6.27318C1.00934 6.15656 1.31093 6.05201 1.32702 6.03592C1.3431 6.02386 1.08574 5.85899 0.755998 5.66999C0.422233 5.48099 0.152808 5.31209 0.152808 5.28797C0.152808 5.23971 1.11791 3.54274 1.16215 3.51459C1.18225 3.50252 1.46776 3.64729 1.79348 3.83227C2.12725 4.02529 2.38863 4.15397 2.39667 4.12582C2.4007 4.10169 2.3444 3.78803 2.26799 3.43014C2.14736 2.84706 2.13931 2.77467 2.19963 2.75859C2.30419 2.72642 4.02529 2.36853 4.11376 2.36048C4.18614 2.35244 4.21831 2.48916 4.53599 3.97703L4.8778 5.60162L5.96354 6.2209C6.56271 6.56271 7.12568 6.88441 7.22219 6.94071L7.39109 7.04124L7.38707 5.64184L7.38707 4.24244L6.14047 3.14061L4.8979 2.0428L5.02658 1.89402C5.09897 1.81359 5.41262 1.46374 5.72226 1.11389C6.02788 0.768062 6.28926 0.482552 6.30535 0.482552C6.31741 0.482552 6.56271 0.691658 6.84822 0.949019L7.37098 1.41549L7.38305 0.707743L7.39109 0L8.43662 0L9.48215 0L9.49019 0.719807L9.50225 1.43961L10.0411 0.961083C10.3387 0.695679 10.596 0.486573 10.6121 0.490595C10.6282 0.498637 10.9419 0.844466 11.3158 1.26268C11.7984 1.80957 11.9794 2.03476 11.9512 2.07095C11.9311 2.0991 11.3681 2.6098 10.7006 3.20093L9.48215 4.27863L9.48215 5.66194C9.48215 6.42196 9.49823 7.03722 9.51432 7.02917C9.70734 6.95679 12.0196 5.59358 12.0357 5.54935C12.0437 5.51718 12.2005 4.78531 12.3815 3.92073C12.5584 3.06018 12.7112 2.34842 12.7152 2.3444C12.7193 2.34038 13.1737 2.43287 13.7246 2.54546C14.4605 2.70229 14.7339 2.77065 14.7379 2.81489C14.746 2.84706 14.6897 3.16474 14.6133 3.51861C14.5369 3.87248 14.4806 4.16603 14.4886 4.17407C14.4926 4.1781 14.7661 4.02931 15.0958 3.84031C15.4256 3.65131 15.7071 3.4985 15.7232 3.4985C15.7513 3.4985 16.7606 5.24775 16.7606 5.29601C16.7606 5.31611 16.4872 5.48099 16.1574 5.66596C15.8237 5.85496 15.5663 6.01984 15.5824 6.0319C15.6025 6.04799 15.9001 6.15656 16.2499 6.27318C16.5958 6.39381 16.8813 6.50641 16.8813 6.53054C16.8813 6.59488 16.2741 8.42053 16.2419 8.45672C16.2258 8.47281 15.506 8.24762 14.6414 7.95809L13.0731 7.4313L11.8909 8.10687C11.2394 8.47683 10.6845 8.79853 10.6564 8.82668C10.6161 8.86287 10.8574 9.0197 11.8386 9.57866L13.0731 10.2824L14.6374 9.76363C15.502 9.4741 16.2178 9.25696 16.2339 9.27304C16.2861 9.32934 16.8853 11.1429 16.8692 11.1912C16.8612 11.2153 16.5556 11.3359 16.1856 11.4606L15.514 11.6858L16.1373 12.0397C16.4792 12.2367 16.7606 12.4056 16.7606 12.4217C16.7606 12.4418 15.7674 14.1951 15.7392 14.2232C15.7312 14.2313 15.4417 14.0744 15.0958 13.8734C14.6696 13.6321 14.4685 13.5356 14.4846 13.5838C14.553 13.8211 14.758 14.9229 14.742 14.943C14.7058 14.9752 12.7434 15.3773 12.7193 15.3572C12.7112 15.3452 12.5504 14.6133 12.3654 13.7286L12.0276 12.1241L10.7569 11.3922L9.48215 10.6604L9.48617 12.1764L9.48617 13.6924L10.7328 14.7942C11.4164 15.3974 11.9753 15.9041 11.9753 15.9202C11.9753 15.9363 11.6657 16.2982 11.2877 16.7244L10.6001 17.4965L10.4915 17.4C10.4352 17.3437 10.1899 17.1266 9.94459 16.9094L9.50225 16.5194L9.49019 17.2472L9.48215 17.9751L8.43662 17.9751L7.39109 17.9751L7.39109 17.2472Z" fill="rgb(255,255,255)" fill-rule="nonzero" transform="matrix(1,0,0,-1,20.1938,17.9751)" />
		<path id="Vector" d="M13.4217 29.6234C9.84682 29.2575 6.69013 27.7455 4.21705 25.2201C1.83244 22.7752 0.420972 19.7673 0.0590585 16.3372C-0.00930306 15.6817 -0.0213669 14.1777 0.0389521 13.5022C0.465206 8.73697 3.18358 4.45835 7.32951 2.02548C7.91259 1.68367 9.03453 1.14884 9.64978 0.923652C13.285 -0.41543 17.2982 -0.294792 20.8249 1.26144C24.7617 2.9946 27.7978 6.42475 29.0283 10.5305C29.169 10.9929 29.3942 11.8856 29.3942 11.9862C29.3942 12.0022 28.7186 12.0143 27.8902 12.0143L26.3863 12.0143L26.3581 11.8655C26.2616 11.3428 25.8394 10.2409 25.4212 9.42059C24.0097 6.65798 21.5527 4.54279 18.6011 3.54954C16.7433 2.92222 14.7487 2.76539 12.8266 3.09111C8.98627 3.74256 5.60841 6.34432 3.98784 9.8951C2.47182 13.2207 2.55224 16.9444 4.20498 20.2177C4.76796 21.3356 5.50385 22.3449 6.41266 23.2537C8.30668 25.1518 10.6591 26.3059 13.3896 26.6758C13.7434 26.7241 14.1697 26.7442 14.8171 26.7442C15.8104 26.7442 16.3452 26.6919 17.2299 26.507C17.4953 26.4507 17.7687 26.3944 17.8371 26.3823L17.9617 26.3622L18.6896 27.6289C19.0917 28.3246 19.4215 28.9076 19.4215 28.9318C19.4215 28.9519 19.3451 28.9881 19.2526 29.0162C18.2714 29.2977 17.5274 29.4586 16.683 29.5712C16.1039 29.6476 13.9847 29.6838 13.4217 29.6234Z" fill="rgb(255,255,255)" fill-rule="nonzero" transform="matrix(1,0,0,-1,0,32)" />
		<path id="Vector" d="M8.35746 16.3597C7.324 16.0943 6.56398 15.3182 6.30259 14.2727C6.22619 13.9791 6.21815 13.8545 6.23825 13.388C6.29455 11.9967 6.91383 9.18579 7.49691 7.66173C7.513 7.62151 7.46474 7.60141 7.33606 7.5813C7.05457 7.53707 6.12164 7.29579 5.61496 7.13092C4.08688 6.64033 2.04005 5.74358 1.25993 5.2168C0.0615886 4.42059 -0.336517 2.8925 0.302865 1.56549C0.455673 1.24781 0.540119 1.13119 0.833672 0.841659C1.21569 0.46366 1.52935 0.270639 2.04407 0.109788C2.29339 0.0333842 2.43414 0.0172991 2.84833 0.0172991C3.85766 0.0172991 4.37239 0.294767 5.71951 1.57755C6.95404 2.74774 8.21672 4.22354 8.86414 5.24897L9.07325 5.58675L9.23812 5.30526C9.94988 4.10693 12.0048 1.83089 13.3639 0.733085C14.3491 -0.0591049 15.5274 -0.219956 16.581 0.302809C17.3048 0.656681 17.8517 1.33225 18.0527 2.12042C18.1492 2.50244 18.1573 3.15791 18.0648 3.53189C17.9602 3.9702 17.7109 4.42461 17.3932 4.76641C17.2404 4.93129 17.0354 5.12029 16.9469 5.18463C16.2391 5.66718 14.2567 6.55588 12.7607 7.05452C12.1777 7.24754 11.1281 7.52903 10.8064 7.57728L10.6255 7.60543L10.8547 8.29307C11.3453 9.77691 11.7755 11.7755 11.8962 13.1628C11.9887 14.2164 11.7313 14.9684 11.0557 15.6399C10.6978 15.9938 10.2635 16.2431 9.78099 16.3637C9.37082 16.4683 8.77165 16.4683 8.35746 16.3597Z" fill="rgb(255,255,255)" fill-rule="nonzero" transform="matrix(1,0,0,-1,5.75635,23.7629)" />
	</g>
</svg>
