<svg viewBox="0 0 26.3794 32" xmlns="http://www.w3.org/2000/svg" xmlns:xlink="http://www.w3.org/1999/xlink" width="26.379395" height="32.000000" fill="none" customFrame="#000000">
	<path id="Vector" d="M4.96604 31.9385C4.88766 31.8993 4.78968 31.821 4.74723 31.7654C4.70477 31.7099 4.56107 31.3899 4.42391 31.0535C3.53234 28.8393 2.85958 26.4552 2.38277 23.823C2.10191 22.2717 1.83738 20.3644 1.87004 20.1195C1.89616 19.9399 2.017 19.7603 2.17702 19.6721C2.36971 19.5643 4.69497 18.614 4.80928 18.5944C4.9595 18.5715 5.17178 18.6368 5.29915 18.7511C5.54082 18.9634 7.05616 20.998 7.8073 22.1215L8.12735 22.6015L8.23512 22.5591C8.29064 22.533 8.92421 22.275 9.63943 21.9778C10.3514 21.6838 10.936 21.4258 10.936 21.403C10.936 21.3834 10.7008 19.7374 10.4167 17.7453C10.1293 15.7564 9.57738 11.9223 9.18874 9.228C8.80011 6.53369 8.47679 4.30967 8.47026 4.28681C8.46046 4.25742 7.63095 4.24762 4.46963 4.24762C0.55391 4.24762 0.482062 4.24762 0.354695 4.1823C0.188138 4.09739 0.0705687 3.93737 0.028113 3.73815C0.00525226 3.63038 -0.00454521 3.0458 0.00198644 2.02359C0.0117839 0.638886 0.0183155 0.465798 0.0673029 0.374355C0.145683 0.230659 0.331834 0.0771649 0.475531 0.037975C0.655151 -0.0142781 25.7301 -0.0110123 25.9097 0.037975C26.0861 0.0869624 26.3016 0.305772 26.3474 0.485393C26.3768 0.583367 26.3833 1.0961 26.3768 2.21954L26.367 3.81653L26.269 3.96023C26.2135 4.03534 26.109 4.13332 26.0404 4.17251C25.9163 4.24435 25.8771 4.24762 25.1521 4.24762L24.3911 4.24762L24.3911 7.67673C24.3911 11.2691 24.3911 11.2691 24.2572 11.354C24.2311 11.3704 23.836 11.39 23.3787 11.3998L22.546 11.4161L22.5362 14.0222C22.5329 15.4527 22.5362 16.6251 22.546 16.6251C22.5525 16.6251 22.6211 16.6022 22.6929 16.5728C22.977 16.4585 23.3689 16.5826 23.4963 16.8276C23.6563 17.1346 24.4956 19.2116 24.512 19.339C24.5446 19.6068 24.4075 19.8648 24.1658 19.9856C24.1005 20.0183 20.9098 21.3442 17.0757 22.9281C13.2416 24.5153 10.0901 25.8216 10.077 25.8347C10.0607 25.8478 10.1162 25.9817 10.1979 26.1319C10.4167 26.5369 10.9033 27.5884 11.1972 28.2841C11.4748 28.9372 11.5075 29.0875 11.4128 29.3063C11.3213 29.5153 11.1776 29.6067 10.4461 29.9104C5.77596 31.8503 5.43958 31.9875 5.26976 31.9973C5.14892 32.0071 5.07054 31.9908 4.96604 31.9385ZM13.0816 20.5506C13.3723 20.4298 13.6009 20.322 13.5878 20.3122C12.9248 19.7374 12.0463 19.0189 12.0463 19.0516C12.0463 19.1104 12.2684 20.6616 12.2945 20.7792L12.3141 20.8707L12.4317 20.8184C12.497 20.7923 12.7909 20.6714 13.0816 20.5506ZM18.5192 18.3004L21.2527 17.1705L21.2396 16.0568C21.2331 15.4429 21.2266 14.1463 21.2266 13.1731L21.2233 11.3998L20.4101 11.3998C19.5937 11.3998 19.5936 11.3998 19.5022 11.3214L19.4108 11.243L19.401 7.74531L19.3944 4.24762L18.6596 4.24762L17.9248 4.24762L17.9085 4.32273C17.902 4.36192 17.8628 4.60686 17.8268 4.86813C17.7909 5.12939 17.5688 6.6578 17.337 8.26458C16.109 16.7753 15.7367 19.3618 15.7367 19.3945C15.7367 19.4174 15.7465 19.4337 15.7596 19.4337C15.7726 19.4337 17.0137 18.9242 18.5192 18.3004ZM14.5643 17.4873C14.6884 16.6251 14.7864 15.9066 14.7831 15.8837C14.7733 15.8446 12.5525 17.4905 12.5525 17.5395C12.5525 17.5689 14.3063 19.0712 14.3259 19.0549C14.3324 19.0516 14.4402 18.3462 14.5643 17.4873ZM13.7446 14.8387C13.8981 14.7211 14.0156 14.6199 14.0058 14.6068C13.9862 14.5807 11.1515 12.7747 11.1417 12.7845C11.1384 12.7877 11.2527 13.5911 11.3932 14.5676C11.5369 15.5474 11.6544 16.3573 11.6544 16.3703C11.6544 16.3932 12.7224 15.6094 13.7446 14.8387ZM15.4754 11.1777C15.6649 9.86157 15.8151 8.78711 15.8086 8.78711C15.7857 8.78711 12.079 11.6414 12.079 11.6578C12.079 11.6904 15.064 13.5813 15.0999 13.5748C15.1162 13.5715 15.286 12.4906 15.4754 11.1777ZM12.8301 9.26719C13.8817 8.46053 14.7439 7.79757 14.7504 7.79104C14.7602 7.7845 9.96601 4.3064 9.92029 4.28681C9.90722 4.28028 9.90396 4.30314 9.91049 4.3358C9.92682 4.40438 10.838 10.7041 10.838 10.7499C10.838 10.7695 10.8543 10.7727 10.8772 10.7597C10.9 10.7466 11.7785 10.0738 12.8301 9.26719ZM16.269 5.66172C16.3736 4.94651 16.4552 4.3358 16.4552 4.3064C16.4552 4.25089 16.3344 4.24762 14.3912 4.24762C13.1077 4.24762 12.3403 4.26068 12.3599 4.27701C12.4121 4.32926 16.047 6.95825 16.0666 6.95825C16.0764 6.95825 16.1678 6.37367 16.269 5.66172Z" fill="rgb(255,255,255)" fill-rule="nonzero" transform="matrix(1,0,0,-1,0,32)" />
</svg>
