<svg viewBox="0 0 30.0527 32" xmlns="http://www.w3.org/2000/svg" xmlns:xlink="http://www.w3.org/1999/xlink" width="30.052734" height="32.000000" fill="none" customFrame="#000000">
	<path id="Vector" d="M13.1579 30.7043L13.1579 29.4157L12.1915 30.2819C11.6546 30.7615 11.2107 31.1481 11.1964 31.1338C11.1821 31.1195 10.6166 30.4823 9.93647 29.7163C8.93423 28.5852 8.71946 28.306 8.80537 28.2488C8.86264 28.2058 9.86488 27.3181 11.0318 26.2801L13.1579 24.3902L13.1579 21.7128C13.1579 20.2166 13.1293 19.0425 13.0935 19.0568C13.0649 19.0711 12.0555 19.6438 10.8528 20.3311L8.67651 21.5767L8.07517 24.4617C7.617 26.638 7.44519 27.3468 7.36644 27.3468C7.26622 27.3468 3.82998 26.6309 3.80134 26.6094C3.79418 26.5951 4.23087 24.5047 4.30962 24.1754C4.33826 24.0609 4.32394 24.0609 4.11633 24.1826C3.81566 24.3615 2.42685 25.1562 2.2264 25.2635C2.08322 25.3351 2.02595 25.2635 1.17405 23.7673C0.680089 22.9011 0.272036 22.1638 0.272036 22.128C0.272036 22.0922 0.536913 21.906 0.866219 21.7271C1.18837 21.5409 1.67517 21.2546 1.95436 21.0971L2.44832 20.8107L1.95436 20.6389C1.67517 20.553 1.12394 20.3597 0.730201 20.2166L0 19.966L0.579866 18.2121C0.902013 17.2528 1.19553 16.4653 1.23848 16.4653C1.28143 16.4653 2.5557 16.8805 4.06622 17.3817L6.82953 18.3051L9.02729 17.0452C10.2371 16.3579 11.1964 15.7709 11.1678 15.7423C11.1392 15.7136 10.1512 15.1338 8.97002 14.4609L6.82237 13.2295L4.00895 14.1745C2.46264 14.6971 1.18837 15.1123 1.17405 15.098C1.13826 15.055 -0.0143177 11.5758 0.00715884 11.5615C0.0143177 11.5544 0.536913 11.3754 1.16689 11.1678C1.79687 10.9602 2.33378 10.774 2.36242 10.7454C2.39105 10.7239 1.93289 10.4304 1.34586 10.094C0.751678 9.75749 0.272036 9.45682 0.272036 9.41387C0.272036 9.32796 1.99016 6.30694 2.0689 6.25682C2.1047 6.23535 2.61298 6.49306 3.19284 6.82237C3.78702 7.166 4.25235 7.39508 4.26667 7.34497C4.27383 7.30201 4.1736 6.74362 4.03758 6.10649C3.82282 5.06846 3.8085 4.9396 3.91588 4.91096C4.10201 4.85369 7.166 4.21655 7.32349 4.20224C7.45235 4.18792 7.50962 4.43132 8.07517 7.08009L8.68367 9.97226L10.6166 11.0747C11.6832 11.6832 12.6855 12.2559 12.8573 12.3562L13.1579 12.5351L13.1508 10.0438L13.1508 7.55257L10.9315 5.59105L8.71946 3.63669L8.94855 3.37181C9.07741 3.22864 9.63579 2.60582 10.187 1.983C10.7311 1.36734 11.1964 0.85906 11.2251 0.85906C11.2465 0.85906 11.6832 1.23132 12.1915 1.68949L13.1221 2.51991L13.1436 1.25996L13.1579 0L15.0192 0L16.8805 0L16.8949 1.28143L16.9163 2.56286L17.8756 1.71096C18.4054 1.23848 18.8635 0.866219 18.8922 0.873378C18.9208 0.887696 19.4792 1.50336 20.145 2.24787C21.004 3.22148 21.3262 3.62237 21.2761 3.6868C21.2403 3.73691 20.238 4.64608 19.0497 5.69843L16.8805 7.617L16.8805 10.0796C16.8805 11.4327 16.9092 12.528 16.9378 12.5136C17.2814 12.3848 21.3978 9.95794 21.4264 9.8792C21.4407 9.82192 21.7199 8.51902 22.0421 6.97987C22.357 5.44788 22.6291 4.18076 22.6362 4.1736C22.6434 4.16644 23.4523 4.3311 24.4331 4.53154C25.7432 4.81074 26.23 4.93244 26.2371 5.01119C26.2515 5.06846 26.1512 5.634 26.0152 6.26398C25.8792 6.89396 25.779 7.41655 25.7933 7.43087C25.8004 7.43803 26.2872 7.17315 26.8743 6.83669C27.4613 6.50022 27.9624 6.22819 27.9911 6.22819C28.0412 6.22819 29.838 9.34228 29.838 9.42819C29.838 9.46398 29.3512 9.75749 28.7642 10.0868C28.17 10.4233 27.7119 10.7168 27.7405 10.7383C27.7763 10.7669 28.306 10.9602 28.9289 11.1678C29.5445 11.3826 30.0528 11.583 30.0528 11.626C30.0528 11.7405 28.9718 14.9906 28.9145 15.055C28.8859 15.0837 27.6045 14.6828 26.0653 14.1673L23.2734 13.2295L21.1687 14.4322C20.0089 15.0908 19.021 15.6635 18.9709 15.7136C18.8993 15.7781 19.3289 16.0573 21.0756 17.0523L23.2734 18.3051L26.0582 17.3817C27.5973 16.8662 28.8716 16.4796 28.9002 16.5083C28.9933 16.6085 30.06 19.8371 30.0313 19.923C30.017 19.966 29.4729 20.1808 28.8143 20.4027L27.6188 20.8036L28.7284 21.4336C29.3369 21.7843 29.838 22.085 29.838 22.1136C29.838 22.1494 28.0698 25.2707 28.0197 25.3208C28.0054 25.3351 27.4899 25.0559 26.8743 24.698C26.1154 24.2685 25.7575 24.0966 25.7861 24.1826C25.9078 24.6049 26.2729 26.5664 26.2443 26.6022C26.1799 26.6595 22.6864 27.3754 22.6434 27.3396C22.6291 27.3181 22.3427 26.0152 22.0134 24.4403L21.4121 21.5839L19.1499 20.281L16.8805 18.9781L16.8877 21.677L16.8877 24.3758L19.1069 26.3374C20.3239 27.4112 21.319 28.3132 21.319 28.3418C21.319 28.3705 20.7678 29.0148 20.0949 29.7736L18.8707 31.1481L18.6774 30.9763C18.5772 30.8761 18.1405 30.4895 17.7038 30.1029L16.9163 29.4085L16.8949 30.7043L16.8805 32L15.0192 32L13.1579 32L13.1579 30.7043Z" fill="rgb(255,255,255)" fill-rule="nonzero" transform="matrix(1,0,0,-1,0,32)" />
</svg>
